<?xml version="1.0" standalone="no"?>
<!DOCTYPE svg PUBLIC "-//W3C//DTD SVG 1.1//EN" "http://www.w3.org/Graphics/SVG/1.1/DTD/svg11.dtd" >
<svg xmlns="http://www.w3.org/2000/svg" xmlns:xlink="http://www.w3.org/1999/xlink" version="1.1">
<metadata>
Created by FontForge 20161013 at Wed Apr  9 00:47:52 2014
 By ,,,
Copyright (c) 2010 Linotype GmbH, www.linotype.com. All rights reserved. This font software may not be reproduced, modified, disclosed or transferred without the express written approval of Linotype GmbH.
</metadata>
<defs>
<font id="DINNextW1G-BlackItalic" horiz-adv-x="365" >
  <font-face 
    font-family="DIN Next W1G Black"
    font-weight="900"
    font-style="italic"
    font-stretch="normal"
    units-per-em="1000"
    panose-1="2 11 10 3 2 2 3 12 2 3"
    ascent="780"
    descent="-220"
    x-height="490"
    cap-height="680"
    bbox="-247.231 -255 1146 935"
    underline-thickness="50"
    underline-position="-200"
    slope="-10"
    unicode-range="U+000D-FB04"
  />
<missing-glyph horiz-adv-x="558" 
d="M548 0h-538q-10 0 -10 10v660q0 10 10 10h538q10 0 10 -10v-660q0 -10 -10 -10zM96 86h366q6 0 6 6v496q0 6 -6 6h-366q-6 0 -6 -6v-496q0 -6 6 -6zM327 257h-97q-10 0 -10 10v23q0 32 22 54l31 32q32 34 32 51q0 29 -28 29q-27 0 -34 -28q-3 -10 -12 -9l-91 12
q-10 0 -8 11q7 55 47.5 88t103.5 33q66 0 106 -35t40 -89q0 -53 -49 -103l-31 -32q-12 -14 -12 -32v-5q0 -10 -10 -10zM327 113h-97q-10 0 -10 10v84q0 10 10 10h97q10 0 10 -10v-84q0 -10 -10 -10z" />
    <glyph glyph-name="IJ" unicode="IJ" horiz-adv-x="808" 
d="M272 90q-2 10 4 14l143 98q9 5 12 -1q24 -34 60 -34q34 0 54 20t29 65l75 418q1 10 10 10h183q10 0 9 -10l-71 -397q-52 -285 -315 -285q-67 0 -119.5 28t-73.5 74zM11 10l117 660q1 10 11 10h182q10 0 9 -10l-117 -660q-1 -10 -11 -10h-182q-10 0 -9 10z" />
    <glyph glyph-name="ij" unicode="ij" horiz-adv-x="552" 
d="M562 540h-174q-9 0 -8 10l21 120q1 10 11 10h174q9 0 8 -10l-21 -120q-1 -10 -11 -10zM232 -180h-42q-10 0 -7 10l24 135q1 10 11 10h9q30 0 42.5 11t18.5 44l80 450q1 10 11 10h174q9 0 8 -10l-79 -451q-21 -121 -78 -164q-55 -45 -172 -45zM286 540h-174q-9 0 -8 10
l21 120q1 10 11 10h174q9 0 8 -10l-21 -120q-1 -10 -11 -10zM191 0h-174q-9 0 -8 10l83 470q1 10 11 10h174q9 0 8 -10l-83 -470q-1 -10 -11 -10z" />
    <glyph glyph-name="napostrophe" unicode="&#x22;n" horiz-adv-x="549" 
d="M464 0h-173q-10 0 -9 10l49 279q10 55 -30 55q-41 0 -50 -54l-49 -280q-1 -10 -11 -10h-174q-9 0 -8 10l83 470q1 10 11 10h173q9 0 8 -10l-6 -38h1q48 60 130 60q157 0 122 -182l-56 -310q-1 -10 -11 -10zM2 459q-11 0 -10 13l34 198q1 10 11 10h121q10 0 9 -10
l-19 -104q-3 -14 -14 -22l-115 -77q-11 -8 -17 -8z" />
    <glyph glyph-name="f_f" unicode="ff" horiz-adv-x="704" 
d="M213 0h-173q-10 0 -9 10l58 339q1 6 -5 6h-25q-8 0 -7 10l20 115q1 10 11 10h25q6 0 7 6l2 6q16 98 65 138t152 40h74q9 0 8 -10l-21 -119q-1 -10 -11 -10h-27q-25 0 -36 -8t-14 -29l-1 -7q-1 -7 5 -7h62q9 0 8 -10l-21 -115q-1 -10 -11 -10h-62q-5 0 -7 -6l-57 -339
q-1 -10 -10 -10zM565 0h-173q-10 0 -9 10l58 339q1 6 -5 6h-25q-8 0 -7 10l20 115q1 10 11 10h25q6 0 7 6l2 6q16 98 65 138t152 40h74q9 0 8 -10l-21 -119q-1 -10 -11 -10h-27q-25 0 -36 -8t-14 -29l-1 -7q-1 -7 5 -7h62q9 0 8 -10l-21 -115q-1 -10 -11 -10h-62q-5 0 -7 -6
l-57 -339q-1 -10 -10 -10z" />
    <glyph glyph-name="fi" unicode="fi" horiz-adv-x="628" 
d="M213 0h-173q-10 0 -9 10l58 339q1 6 -5 6h-25q-8 0 -7 10l20 115q1 10 11 10h25q6 0 7 6l2 6q16 98 65 138t152 40h74q9 0 8 -10l-21 -119q-1 -10 -11 -10h-27q-25 0 -36 -8t-14 -29l-1 -7q-1 -7 5 -7h62q9 0 8 -10l-21 -115q-1 -10 -11 -10h-62q-5 0 -7 -6l-57 -339
q-1 -10 -10 -10zM638 540h-174q-9 0 -8 10l21 120q1 10 11 10h174q9 0 8 -10l-21 -120q-1 -10 -11 -10zM543 0h-174q-9 0 -8 10l83 470q1 10 11 10h174q9 0 8 -10l-83 -470q-1 -10 -11 -10z" />
    <glyph glyph-name="fl" unicode="fl" horiz-adv-x="671" 
d="M213 0h-173q-10 0 -9 10l58 339q1 6 -5 6h-25q-8 0 -7 10l20 115q1 10 11 10h25q6 0 7 6l2 6q16 98 65 138t152 40h74q9 0 8 -10l-21 -119q-1 -10 -11 -10h-27q-25 0 -36 -8t-14 -29l-1 -7q-1 -7 5 -7h62q9 0 8 -10l-21 -115q-1 -10 -11 -10h-62q-5 0 -7 -6l-57 -339
q-1 -10 -10 -10zM605 -6h-68q-102 0 -135 43q-31 43 -15 143l89 490q1 10 10 10h174q10 0 9 -10l-85 -466q-10 -51 30 -51h19q9 0 8 -10l-25 -139q-1 -10 -11 -10z" />
    <glyph glyph-name="f_f_i" unicode="ffi" horiz-adv-x="980" 
d="M213 0h-173q-10 0 -9 10l58 339q1 6 -5 6h-25q-8 0 -7 10l20 115q1 10 11 10h25q6 0 7 6l2 6q16 98 65 138t152 40h74q9 0 8 -10l-21 -119q-1 -10 -11 -10h-27q-25 0 -36 -8t-14 -29l-1 -7q-1 -7 5 -7h62q9 0 8 -10l-21 -115q-1 -10 -11 -10h-62q-5 0 -7 -6l-57 -339
q-1 -10 -10 -10zM565 0h-173q-10 0 -9 10l58 339q1 6 -5 6h-25q-8 0 -7 10l20 115q1 10 11 10h25q6 0 7 6l2 6q16 98 65 138t152 40h74q9 0 8 -10l-21 -119q-1 -10 -11 -10h-27q-25 0 -36 -8t-14 -29l-1 -7q-1 -7 5 -7h62q9 0 8 -10l-21 -115q-1 -10 -11 -10h-62q-5 0 -7 -6
l-57 -339q-1 -10 -10 -10zM990 540h-174q-9 0 -8 10l21 120q1 10 11 10h174q9 0 8 -10l-21 -120q-1 -10 -11 -10zM895 0h-174q-9 0 -8 10l83 470q1 10 11 10h174q9 0 8 -10l-83 -470q-1 -10 -11 -10z" />
    <glyph glyph-name="f_f_l" unicode="ffl" horiz-adv-x="1023" 
d="M213 0h-173q-10 0 -9 10l58 339q1 6 -5 6h-25q-8 0 -7 10l20 115q1 10 11 10h25q6 0 7 6l2 6q16 98 65 138t152 40h74q9 0 8 -10l-21 -119q-1 -10 -11 -10h-27q-25 0 -36 -8t-14 -29l-1 -7q-1 -7 5 -7h62q9 0 8 -10l-21 -115q-1 -10 -11 -10h-62q-5 0 -7 -6l-57 -339
q-1 -10 -10 -10zM565 0h-173q-10 0 -9 10l58 339q1 6 -5 6h-25q-8 0 -7 10l20 115q1 10 11 10h25q6 0 7 6l2 6q16 98 65 138t152 40h74q9 0 8 -10l-21 -119q-1 -10 -11 -10h-27q-25 0 -36 -8t-14 -29l-1 -7q-1 -7 5 -7h62q9 0 8 -10l-21 -115q-1 -10 -11 -10h-62q-5 0 -7 -6
l-57 -339q-1 -10 -10 -10zM957 -6h-68q-102 0 -135 43q-31 43 -15 143l89 490q1 10 10 10h174q10 0 9 -10l-85 -466q-10 -51 30 -51h19q9 0 8 -10l-25 -139q-1 -10 -11 -10z" />
    <glyph glyph-name=".notdef" horiz-adv-x="558" 
d="M548 0h-538q-10 0 -10 10v660q0 10 10 10h538q10 0 10 -10v-660q0 -10 -10 -10zM96 86h366q6 0 6 6v496q0 6 -6 6h-366q-6 0 -6 -6v-496q0 -6 6 -6zM327 257h-97q-10 0 -10 10v23q0 32 22 54l31 32q32 34 32 51q0 29 -28 29q-27 0 -34 -28q-3 -10 -12 -9l-91 12
q-10 0 -8 11q7 55 47.5 88t103.5 33q66 0 106 -35t40 -89q0 -53 -49 -103l-31 -32q-12 -14 -12 -32v-5q0 -10 -10 -10zM327 113h-97q-10 0 -10 10v84q0 10 10 10h97q10 0 10 -10v-84q0 -10 -10 -10z" />
    <glyph glyph-name=".null" horiz-adv-x="0" 
 />
    <glyph glyph-name="nonmarkingreturn" horiz-adv-x="333" 
 />
    <glyph glyph-name="NULL" horiz-adv-x="500" 
 />
    <glyph glyph-name="NULL" horiz-adv-x="500" 
 />
    <glyph glyph-name="CR" unicode="&#xd;" horiz-adv-x="0" 
 />
    <glyph glyph-name="space" unicode=" " horiz-adv-x="233" 
 />
    <glyph glyph-name="exclam" unicode="!" horiz-adv-x="312" 
d="M229 219h-128q-9 0 -8 10l54 441q1 10 11 10h174q9 0 8 -10l-101 -441q-1 -10 -10 -10zM41 10l24 136q1 10 12 10h153q9 0 8 -10l-24 -136q-1 -10 -11 -10h-154q-9 0 -8 10z" />
    <glyph glyph-name="quotedbl" unicode="&#x22;" horiz-adv-x="416" 
d="M402 440h-112q-9 0 -8 10l38 220q1 10 11 10h113q10 0 9 -10l-39 -220q-1 -10 -12 -10zM212 440h-113q-9 0 -8 10l38 220q1 10 11 10h113q10 0 9 -10l-39 -220q-1 -10 -11 -10z" />
    <glyph glyph-name="numbersign" unicode="#" horiz-adv-x="630" 
d="M71 10l47 154h-54q-10 0 -9 10l21 120q1 10 12 10h74l24 78h-59q-10 0 -9 10l21 120q1 10 12 10h78l46 148q3 10 13 10h141q11 0 8 -10l-46 -148h80l46 148q3 10 12 10h141q10 0 7 -10l-46 -148h59q10 0 9 -10l-21 -120q-1 -10 -12 -10h-78l-24 -78h63q10 0 9 -10
l-21 -120q-1 -10 -12 -10h-83l-47 -154q-3 -10 -13 -10h-141q-11 0 -8 10l48 154h-79l-47 -154q-3 -10 -13 -10h-141q-11 0 -8 10zM348 382l-24 -78h78l25 78h-79z" />
    <glyph glyph-name="dollar" unicode="$" horiz-adv-x="553" 
d="M16 66q-8 8 1 17l115 116q8 8 16 0q45 -45 103 -45q31 0 53 17q21 17 21 47t-42 36l-16 2q-81 10 -126 55.5t-45 117.5q0 102 58 169q58 68 153 88l14 78q1 10 12 10h102q9 0 8 -10l-14 -76q81 -14 137 -55q7 -7 -2 -17l-101 -116q-8 -8 -14 -3q-41 29 -84 29
q-32 0 -50.5 -14.5t-18.5 -40.5q0 -32 43 -36l24 -3q164 -21 164 -158q0 -113 -58 -185t-161 -93l-14 -80q-3 -10 -12 -10h-101q-9 0 -8 10l13 76q-110 14 -170 74z" />
    <glyph glyph-name="percent" unicode="%" horiz-adv-x="854" 
d="M133 -2l504 684q7 10 18 10h118q9 0 2 -10l-505 -684q-7 -10 -18 -10h-117q-9 0 -2 10zM228 330q-56 0 -89.5 30.5t-33.5 85.5q0 97 31 158q40 84 156 84q56 0 89 -31t33 -86q0 -95 -31 -157q-41 -84 -155 -84zM245 421q14 0 21 16q5 11 15 68q10 56 10 73q0 19 -16 19
q-15 0 -22 -16q-5 -11 -15 -68q-10 -56 -10 -73q0 -19 17 -19zM493 108q0 97 31 158q40 84 155 84q56 0 89.5 -31t33.5 -86q0 -95 -31 -157q-41 -84 -155 -84q-56 0 -89.5 30.5t-33.5 85.5zM616 102q0 -19 16 -19q15 0 22 16q5 11 15 68q10 56 10 73q0 19 -16 19
q-15 0 -22 -16q-5 -11 -15 -68q-10 -56 -10 -73z" />
    <glyph glyph-name="ampersand" unicode="&#x26;" horiz-adv-x="627" 
d="M177 369q-41 71 -41 122q0 90 62 146q61 55 167 55q77 0 122 -40t45 -105q0 -55 -33 -100q-31 -43 -117 -105l39 -65l88 79q7 7 14 0l80 -85q7 -7 -1 -14l-106 -103q12 -15 39 -15h22q9 0 8 -10l-21 -119q-1 -10 -11 -10h-51q-43 0 -66.5 10.5t-42.5 36.5
q-86 -59 -181 -59q-77 0 -120 46q-44 47 -44 109q0 64 31 113q33 51 118 113zM312 459q36 26 48.5 42.5t12.5 34.5q0 32 -30 32q-20 0 -34.5 -14.5t-14.5 -35.5q0 -24 18 -59zM195 178q0 -39 41 -39q27 0 63 30l-51 83q-53 -38 -53 -74z" />
    <glyph glyph-name="quotesingle" unicode="'" horiz-adv-x="226" 
d="M212 440h-113q-9 0 -8 10l39 220q1 10 11 10h113q10 0 9 -10l-39 -220q-1 -10 -12 -10z" />
    <glyph glyph-name="parenleft" unicode="(" horiz-adv-x="339" 
d="M131 -74q-65 127 -65 280q0 137 54 274q56 138 153 250q7 10 15 10h119q12 0 5 -10q-170 -272 -170 -576q0 -126 28 -228q3 -10 -8 -10h-119q-8 0 -12 10z" />
    <glyph glyph-name="parenright" unicode=")" horiz-adv-x="339" 
d="M-21 -74q170 272 170 576q0 126 -28 228q-3 10 8 10h120q8 0 12 -10q65 -127 65 -280q0 -140 -55 -275q-54 -135 -152 -249q-7 -10 -15 -10h-120q-12 0 -5 10z" />
    <glyph glyph-name="asterisk" unicode="*" horiz-adv-x="431" 
d="M284 335h-80q-9 0 -8 10l15 78l-70 -38q-10 -4 -13 3l-28 66q-4 9 5 14l80 42l-63 40q-8 5 -1 13l46 62q6 8 14 3l60 -41l13 83q1 10 11 10h79q9 0 8 -10l-15 -79l71 39q9 4 12 -3l29 -68q3 -8 -6 -13l-78 -41l62 -38q10 -5 2 -14l-46 -63q-6 -9 -14 -3l-61 41l-12 -83
q-1 -10 -12 -10z" />
    <glyph glyph-name="plus" unicode="+" horiz-adv-x="533" 
d="M197 45v146q0 6 -6 6h-143q-10 0 -10 10v138q0 10 10 10h143q6 0 6 6v146q0 10 10 10h143q10 0 10 -10v-146q0 -6 6 -6h144q10 0 10 -10v-138q0 -10 -10 -10h-144q-6 0 -6 -6v-146q0 -10 -10 -10h-143q-10 0 -10 10z" />
    <glyph glyph-name="comma" unicode="," horiz-adv-x="239" 
d="M-14 -96l44 251q1 10 11 10h146q10 0 9 -10l-24 -141q-3 -11 -14 -20l-143 -98q-13 -8 -19 -8q-13 0 -10 16z" />
    <glyph glyph-name="hyphen" unicode="-" horiz-adv-x="389" 
d="M346 182h-306q-10 0 -9 10l26 146q1 10 11 10h306q10 0 9 -10l-25 -146q-1 -10 -12 -10z" />
    <glyph glyph-name="period" unicode="." horiz-adv-x="247" 
d="M4 10l26 155q1 10 11 10h155q10 0 9 -10l-27 -155q-1 -10 -11 -10h-154q-10 0 -9 10z" />
    <glyph glyph-name="slash" unicode="/" horiz-adv-x="439" 
d="M-6 -2l324 684q4 10 14 10h178q9 0 5 -10l-326 -684q-4 -10 -16 -10h-174q-9 0 -5 10z" />
    <glyph glyph-name="zero" unicode="0" horiz-adv-x="553" 
d="M40 172q0 60 23 192q24 132 49 180q72 148 249 148q92 0 147.5 -49t55.5 -135q0 -61 -23 -193q-23 -130 -48 -179q-72 -148 -249 -148q-92 0 -148 49t-56 135zM234 180q0 -37 34 -37q29 0 43 29q11 21 36 157q25 134 25 171t-35 37q-29 0 -43 -29q-9 -18 -35 -158
q-25 -134 -25 -170z" />
    <glyph glyph-name="one" unicode="1" horiz-adv-x="553" 
d="M181 10l82 467h-2l-131 -79q-5 -3 -8 -1.5t-2 7.5l29 166q2 10 8 14l142 90q9 6 19 6h164q10 0 9 -10l-117 -660q-1 -10 -11 -10h-173q-10 0 -9 10z" />
    <glyph glyph-name="two" unicode="2" horiz-adv-x="553" 
d="M21 10l24 129q2 12 9 16l270 254q51 48 51 89q0 39 -39 39q-52 0 -68 -73q-2 -11 -13 -9l-148 21q-7 1 -6 11q21 95 93.5 150t181.5 55q87 0 138.5 -45.5t51.5 -119.5q0 -114 -110 -215l-167 -151l-1 -2h206q10 0 9 -10l-25 -139q-1 -10 -11 -10h-438q-9 0 -8 10z" />
    <glyph glyph-name="three" unicode="3" horiz-adv-x="553" 
d="M44 167q0 11 10 12l156 21q11 2 11 -9q1 -48 49 -48q29 0 47 23t18 57q0 49 -52 49h-26q-9 0 -8 10l23 132q1 10 12 10h24q28 0 46 19.5t18 52.5q0 41 -39 41q-40 0 -58 -48q-5 -9 -12 -8l-151 20q-8 2 -5 11q28 83 98 131.5t167 48.5q91 0 142 -42t51 -112
q0 -110 -102 -173v-2q60 -37 60 -119q0 -110 -80 -184q-79 -72 -195 -72q-99 0 -154 49t-50 130z" />
    <glyph glyph-name="four" unicode="4" horiz-adv-x="553" 
d="M284 92h-254q-9 0 -8 10l26 152q2 9 5 13l234 404q5 9 16 9h185q11 0 5 -11l-239 -410l-1 -3h60q7 0 7 6l17 95q1 10 12 10h161q9 0 8 -10l-16 -95q-2 -6 4 -6h31q10 0 9 -10l-26 -144q-1 -10 -11 -10h-32q-5 0 -7 -6l-13 -76q-1 -10 -11 -10h-161q-10 0 -9 10l13 76
q1 6 -5 6z" />
    <glyph glyph-name="five" unicode="5" horiz-adv-x="553" 
d="M46 160q0 10 9 11l155 21q8 2 10 -9q7 -40 43 -40q33 0 47 30q19 39 19 88q0 44 -38 44q-26 0 -44 -26q-4 -10 -14 -10h-148q-10 0 -9 10l69 391q1 10 11 10h402q10 0 9 -10l-25 -139q-1 -10 -12 -10h-247q-5 0 -7 -6l-17 -99h2q42 42 111 42q149 0 149 -148
q0 -103 -42 -187q-65 -135 -242 -135q-94 0 -142.5 46t-48.5 126z" />
    <glyph glyph-name="six" unicode="6" horiz-adv-x="553" 
d="M38 169q0 52 22 106.5t74 132.5l178 264q5 8 13 8h186q14 0 5 -11l-166 -247v-1q5 5 24 5q72 0 115 -46t43 -121q0 -113 -81 -193q-81 -78 -206 -78q-95 0 -151 49.5t-56 131.5zM221 197q0 -24 14 -39t38 -15q31 0 53 23.5t22 58.5q0 25 -14 40t-38 15q-30 0 -52.5 -24
t-22.5 -59z" />
    <glyph glyph-name="seven" unicode="7" horiz-adv-x="553" 
d="M81 11l286 500v3h-85q-6 0 -7 -6l-11 -57q-1 -10 -11 -10h-160q-9 0 -8 10l40 219q1 10 11 10h449q9 0 8 -10l-26 -144q-2 -13 -8 -25l-275 -491q-4 -10 -14 -10h-183q-11 0 -6 11z" />
    <glyph glyph-name="eight" unicode="8" horiz-adv-x="553" 
d="M33 161q0 119 102 190l1 2q-37 37 -37 99q0 97 77 168q76 72 192 72q91 0 143.5 -46.5t52.5 -122.5q0 -103 -84 -170l-1 -2q50 -42 50 -111q0 -108 -84 -180q-83 -72 -202 -72q-94 0 -152 46.5t-58 126.5zM321 426q24 0 43.5 20t19.5 47q0 20 -11.5 32t-32.5 12
q-24 0 -43.5 -20t-19.5 -47q0 -20 12 -32t32 -12zM219 196q0 -24 15 -38.5t38 -14.5q31 0 53 23t22 55q0 24 -15 39t-38 15q-31 0 -53 -23.5t-22 -55.5z" />
    <glyph glyph-name="nine" unicode="9" horiz-adv-x="553" 
d="M91 11l166 247v1q-5 -5 -24 -5q-72 0 -115 46t-43 121q0 114 81 192q80 79 206 79q95 0 151 -49.5t56 -131.5q0 -52 -22 -106.5t-74 -132.5l-178 -264q-5 -8 -13 -8h-186q-14 0 -5 11zM311 400q30 0 52.5 24t22.5 59q0 24 -14 39t-38 15q-31 0 -53 -23.5t-22 -58.5
q0 -24 14 -39.5t38 -15.5z" />
    <glyph glyph-name="colon" unicode=":" horiz-adv-x="247" 
d="M223 315h-155q-10 0 -9 10l27 155q1 10 11 10h154q10 0 9 -10l-26 -155q-1 -10 -11 -10zM4 10l26 155q1 10 11 10h155q10 0 9 -10l-27 -155q-1 -10 -11 -10h-154q-10 0 -9 10z" />
    <glyph glyph-name="semicolon" unicode=";" horiz-adv-x="247" 
d="M223 315h-155q-10 0 -9 10l27 155q1 10 11 10h154q10 0 9 -10l-26 -155q-1 -10 -11 -10zM-9 -86l44 251q1 10 11 10h146q10 0 9 -10l-24 -141q-3 -11 -14 -20l-143 -98q-13 -8 -19 -8q-11 0 -10 16z" />
    <glyph glyph-name="less" unicode="&#x3c;" horiz-adv-x="533" 
d="M510 38l-462 165q-10 3 -10 14v118q0 11 10 14l462 165q10 3 10 -7v-148q0 -9 -10 -13l-225 -69v-2l225 -69q10 -4 10 -13v-148q0 -10 -10 -7z" />
    <glyph glyph-name="equal" unicode="=" horiz-adv-x="533" 
d="M518 312h-462q-10 0 -10 10v138q0 10 10 10h462q10 0 10 -10v-138q0 -10 -10 -10zM518 82h-462q-10 0 -10 10v138q0 10 10 10h462q10 0 10 -10v-138q0 -10 -10 -10z" />
    <glyph glyph-name="greater" unicode="&#x3e;" horiz-adv-x="533" 
d="M38 45v148q0 9 10 13l224 69v2l-224 69q-10 4 -10 13v148q0 10 10 7l462 -165q10 -3 10 -14v-118q0 -11 -10 -14l-462 -165q-10 -3 -10 7z" />
    <glyph glyph-name="question" unicode="?" horiz-adv-x="501" 
d="M333 219h-155q-10 0 -9 10l7 40q11 54 48 85l56 50q36 31 50 51t14 40q0 38 -35 38q-39 0 -62 -51q-5 -10 -15 -9l-140 20q-9 2 -6 11q25 83 93 136q68 52 161 52q88 0 141 -47q52 -46 52 -117q0 -54 -26 -96.5t-87 -96.5l-43 -37q-28 -25 -32 -57l-2 -12q-1 -10 -10 -10
zM132 10l24 136q1 10 11 10h155q9 0 8 -10l-24 -136q-1 -10 -11 -10h-155q-9 0 -8 10z" />
    <glyph glyph-name="at" unicode="@" horiz-adv-x="929" 
d="M36 174q0 224 142 369q142 147 370 147q166 0 263 -94t97 -249q0 -135 -71 -217q-71 -80 -177 -80q-51 0 -86 18.5t-46 50.5h-1q-47 -69 -137 -69q-62 0 -96.5 34t-34.5 94q0 41 14 113q15 69 30 99q45 91 138 91q77 0 95 -49h1l5 30q2 9 11 9h138q7 0 6 -9l-41 -232
q-4 -25 5 -38.5t28 -13.5q31 0 52 43t21 115q0 111 -61 168.5t-176 57.5q-151 0 -246 -108q-94 -107 -94 -263q0 -105 62 -164.5t173 -59.5q95 0 193 53q10 4 14 -2l54 -94q5 -8 -5 -14q-115 -78 -278 -78q-167 0 -264 94q-98 95 -98 248zM416 217q0 -39 34 -39q30 0 43 30
q5 12 13 50q8 40 8 57q0 39 -34 39q-30 0 -43 -30q-7 -16 -14 -51t-7 -56z" />
    <glyph glyph-name="A" unicode="A" horiz-adv-x="691" 
d="M184 0h-201q-10 0 -6 10l346 660q3 10 13 10h197q11 0 11 -10l107 -660q1 -10 -7 -10h-190q-11 0 -12 10l-9 93h-194l-41 -93q-4 -10 -14 -10zM399 458l-85 -189h104l-17 189h-2z" />
    <glyph glyph-name="B" unicode="B" horiz-adv-x="590" 
d="M11 10l117 660q1 10 10 10h282q191 0 191 -141q0 -129 -111 -187l-1 -2q69 -30 69 -122q0 -104 -75 -166q-74 -62 -192 -62h-282q-9 0 -8 10zM288 411h34q39 0 61 20.5t22 58.5q0 25 -14.5 35.5t-46.5 10.5h-33q-5 0 -7 -6l-20 -113q-2 -6 4 -6zM260 279l-22 -128
q-2 -6 4 -6h44q39 0 61 23.5t22 67.5q0 49 -58 49h-44q-5 0 -7 -6z" />
    <glyph glyph-name="C" unicode="C" horiz-adv-x="562" 
d="M38 207q0 63 18 163q20 105 47 160q79 162 273 162q182 0 218 -162q3 -10 -7 -14l-160 -62q-12 -4 -15 6q-11 53 -57 53q-45 0 -69 -49q-13 -28 -29 -112t-16 -125q0 -27 14 -43.5t39 -16.5q42 0 75 55q6 12 15 7l142 -82q8 -6 3 -15q-46 -75 -109 -109.5t-154 -34.5
q-104 0 -166 58t-62 161z" />
    <glyph glyph-name="D" unicode="D" horiz-adv-x="616" 
d="M11 10l117 660q1 10 10 10h265q218 0 218 -205q0 -67 -19 -165q-18 -97 -44 -153q-76 -157 -274 -157h-265q-9 0 -8 10zM248 179h28q40 0 61.5 11.5t37.5 42.5q12 23 26 95q13 65 13 99q0 40 -19 57t-65 17h-25q-5 0 -6 -6l-55 -310q-2 -6 4 -6z" />
    <glyph glyph-name="E" unicode="E" horiz-adv-x="533" 
d="M11 10l117 660q1 10 10 10h442q9 0 8 -10l-27 -148q-1 -10 -10 -10h-246q-6 0 -6 -6l-13 -75q-2 -6 4 -6h196q9 0 8 -10l-25 -144q-1 -10 -12 -10h-196q-5 0 -6 -6l-15 -81q0 -6 5 -6h244q9 0 8 -10l-26 -148q-1 -10 -11 -10h-441q-9 0 -8 10z" />
    <glyph glyph-name="F" unicode="F" horiz-adv-x="530" 
d="M11 10l117 660q1 10 10 10h442q9 0 8 -10l-27 -148q-1 -10 -10 -10h-246q-6 0 -6 -6l-15 -85q0 -6 4 -6h196q9 0 8 -10l-25 -144q-1 -10 -12 -10h-196q-5 0 -6 -6l-42 -235q-1 -10 -11 -10h-181q-9 0 -8 10z" />
    <glyph glyph-name="G" unicode="G" horiz-adv-x="600" 
d="M38 208q0 63 19 164t46 158q79 162 278 162q176 0 225 -146q5 -12 -8 -17l-159 -61q-13 -5 -17 5q-19 40 -63 40q-51 0 -73 -49q-12 -26 -28 -111q-17 -91 -17 -126q0 -28 15.5 -44t45.5 -16q56 0 77 41q5 9 6 24q0 6 -6 6h-50q-8 0 -7 10l23 126q1 10 11 10h245
q8 0 7 -10l-8 -46q-23 -127 -52 -182q-42 -82 -107.5 -120t-163.5 -38q-112 0 -175.5 57t-63.5 163z" />
    <glyph glyph-name="H" unicode="H" horiz-adv-x="641" 
d="M11 10l117 660q1 10 11 10h182q10 0 9 -10l-40 -229q-2 -6 4 -6h138q6 0 7 6l41 229q1 10 11 10h182q10 0 9 -10l-117 -660q-1 -10 -11 -10h-182q-10 0 -9 10l42 240q1 6 -5 6h-138q-4 0 -6 -6l-43 -240q-1 -10 -11 -10h-182q-10 0 -9 10z" />
    <glyph glyph-name="I" unicode="I" horiz-adv-x="289" 
d="M11 10l117 660q1 10 11 10h182q10 0 9 -10l-117 -660q-1 -10 -11 -10h-182q-10 0 -9 10z" />
    <glyph glyph-name="J" unicode="J" horiz-adv-x="519" 
d="M-17 90q-2 10 4 14l143 98q9 5 12 -1q24 -34 60 -34q34 0 54 20t29 65l75 418q1 10 10 10h183q10 0 9 -10l-71 -397q-53 -285 -315 -285q-67 0 -119.5 28t-73.5 74z" />
    <glyph glyph-name="K" unicode="K" horiz-adv-x="637" 
d="M11 10l117 660q1 10 11 10h182q10 0 9 -10l-39 -220l183 220q9 10 19 10h214q15 0 6 -13l-245 -268l129 -388q5 -11 -7 -11h-192q-13 0 -16 10l-68 238l-75 -91l-26 -147q-1 -10 -11 -10h-182q-10 0 -9 10z" />
    <glyph glyph-name="L" unicode="L" horiz-adv-x="522" 
d="M11 10l117 660q1 10 11 10h182q10 0 9 -10l-86 -485q-2 -6 4 -6h235q10 0 9 -10l-29 -159q-1 -10 -11 -10h-432q-10 0 -9 10z" />
    <glyph glyph-name="M" unicode="M" horiz-adv-x="759" 
d="M11 10l117 660q1 10 10 10h168q12 0 15 -10l79 -326h4l190 326q4 10 18 10h179q10 0 9 -10l-117 -660q-1 -10 -11 -10h-163q-10 0 -9 10l57 323h-4l-129 -227q-7 -13 -20 -13h-85q-13 0 -17 13l-49 227h-4l-56 -323q-1 -10 -11 -10h-163q-9 0 -8 10z" />
    <glyph glyph-name="N" unicode="N" horiz-adv-x="631" 
d="M11 10l117 660q1 10 11 10h172q12 0 15 -10l99 -347h4l61 347q1 10 11 10h163q9 0 8 -10l-117 -660q-1 -10 -11 -10h-174q-10 0 -13 10l-98 347h-5l-61 -347q-1 -10 -11 -10h-162q-10 0 -9 10z" />
    <glyph glyph-name="O" unicode="O" horiz-adv-x="606" 
d="M276 -12q-112 0 -175 57t-63 163q0 63 19 164q20 106 46 158q79 162 275 162q112 0 175 -57t63 -163q0 -64 -19 -165q-20 -104 -46 -157q-79 -162 -275 -162zM297 167q49 0 71 49q12 27 28 110q17 91 17 127q0 60 -56 60q-49 0 -71 -49q-12 -26 -28 -111
q-17 -91 -17 -126q0 -60 56 -60z" />
    <glyph glyph-name="P" unicode="P" horiz-adv-x="599" 
d="M201 0h-182q-9 0 -8 10l117 660q1 10 10 10h272q111 0 167.5 -47.5t56.5 -136.5q0 -130 -85 -206t-220 -76h-75q-6 0 -7 -6l-35 -198q-1 -10 -11 -10zM283 383h64q37 0 59 21t22 59q0 49 -58 49h-64q-6 0 -6 -6l-21 -117q0 -6 4 -6z" />
    <glyph glyph-name="Q" unicode="Q" horiz-adv-x="606" 
d="M603 56l-143 -113q-9 -7 -16 1l-44 65q-57 -21 -124 -21q-112 0 -175 57t-63 163q0 63 19 164q20 106 46 158q79 162 275 162q112 0 175 -57t63 -163q0 -63 -19 -164q-20 -104 -46 -158l55 -78q7 -9 -3 -16zM297 167q49 0 71 49q12 27 28 110q17 91 17 127q0 60 -56 60
q-49 0 -71 -49q-12 -26 -28 -111q-17 -91 -17 -126q0 -60 56 -60z" />
    <glyph glyph-name="R" unicode="R" horiz-adv-x="610" 
d="M552 0h-180q-11 0 -14 10l-48 216h-54q-4 0 -6 -6l-38 -210q-1 -10 -11 -10h-182q-9 0 -8 10l117 660q1 10 10 10h275q105 0 161.5 -49t56.5 -134q0 -80 -36 -141t-101 -94l66 -251q2 -11 -8 -11zM284 389h62q36 0 58 21t22 57q0 45 -57 45h-63q-6 0 -6 -6l-20 -111
q-2 -6 4 -6z" />
    <glyph glyph-name="S" unicode="S" horiz-adv-x="595" 
d="M265 -12q-81 0 -158 30q-75 29 -109 71q-8 11 2 18l120 117q9 9 15 0q25 -28 65.5 -45t82.5 -17q41 0 64.5 14t23.5 37q0 30 -57 39l-35 5q-196 28 -196 177q0 116 79 186q80 72 214 72q148 0 239 -79q8 -6 -1 -17l-107 -121q-8 -8 -16 -2q-58 46 -130 46
q-30 0 -49 -12.5t-19 -31.5q0 -29 58 -38l34 -5q197 -29 197 -179q0 -123 -86 -194t-231 -71z" />
    <glyph glyph-name="T" unicode="T" horiz-adv-x="562" 
d="M338 0h-182q-10 0 -9 10l86 485q1 6 -4 6h-156q-10 0 -9 10l28 159q1 10 11 10h527q10 0 9 -10l-29 -159q-1 -10 -11 -10h-157q-6 0 -7 -6l-86 -485q-1 -10 -11 -10z" />
    <glyph glyph-name="U" unicode="U" horiz-adv-x="625" 
d="M312 -12q-137 0 -199 73.5t-38 213.5l71 395q1 10 11 10h182q10 0 9 -10l-73 -412q-16 -91 55 -91q70 0 86 91l73 412q1 10 11 10h183q9 0 8 -10l-70 -395q-27 -151 -101.5 -219t-207.5 -68z" />
    <glyph glyph-name="V" unicode="V" horiz-adv-x="629" 
d="M371 0h-180q-12 0 -13 10l-97 658q-1 12 11 12h183q12 0 13 -10l37 -380h3l166 380q4 10 14 10h199q15 0 8 -12l-329 -658q-4 -10 -15 -10z" />
    <glyph glyph-name="W" unicode="W" horiz-adv-x="910" 
d="M674 0h-147q-11 0 -12 10l-34 341h-2l-152 -341q-4 -10 -14 -10h-146q-12 0 -13 10l-73 660q-1 10 7 10h190q12 0 12 -10l10 -372h2l156 372q4 10 14 10h118q12 0 13 -10l30 -372h2l139 372q3 10 13 10h202q10 0 6 -10l-307 -660q-4 -10 -14 -10z" />
    <glyph glyph-name="X" unicode="X" horiz-adv-x="628" 
d="M592 0h-185q-13 0 -17 10l-66 162h-2l-118 -162q-7 -10 -19 -10h-208q-4 0 -5.5 3t1.5 7l273 350l-133 310q-4 10 7 10h188q12 0 16 -10l54 -133h3l96 133q7 10 18 10h196q4 0 5.5 -3t-1.5 -7l-238 -317l142 -343q4 -10 -7 -10z" />
    <glyph glyph-name="Y" unicode="Y" horiz-adv-x="605" 
d="M361 0h-182q-10 0 -9 10l43 245l-132 414q-5 11 9 11h171q12 0 15 -10l62 -221h3l140 221q6 10 17 10h189q14 0 6 -11l-278 -414l-43 -245q-1 -10 -11 -10z" />
    <glyph glyph-name="Z" unicode="Z" horiz-adv-x="578" 
d="M497 0h-484q-10 0 -9 10l28 156q1 6 5 10l317 322l1 3h-244q-9 0 -8 10l29 159q1 10 10 10h474q10 0 9 -10l-28 -155q-1 -6 -5 -10l-319 -323l-1 -3h256q9 0 8 -10l-28 -159q-1 -10 -11 -10z" />
    <glyph glyph-name="bracketleft" unicode="[" horiz-adv-x="321" 
d="M240 -84h-232q-10 0 -9 10l142 804q1 10 12 10h231q9 0 8 -10l-21 -121q-1 -10 -11 -10h-74q-6 0 -7 -6l-94 -530q0 -6 5 -6h73q10 0 9 -10l-21 -121q-1 -10 -11 -10z" />
    <glyph glyph-name="backslash" unicode="\" horiz-adv-x="439" 
d="M379 -12h-165q-11 0 -12 10l-99 684q-1 10 9 10h166q10 0 11 -10l99 -684q1 -10 -9 -10z" />
    <glyph glyph-name="bracketright" unicode="]" horiz-adv-x="321" 
d="M214 -84h-231q-9 0 -8 10l21 121q1 10 11 10h74q5 0 7 6l94 530q0 6 -5 6h-73q-10 0 -9 10l21 121q1 10 11 10h232q10 0 9 -10l-142 -804q-1 -10 -12 -10z" />
    <glyph glyph-name="asciicircum" unicode="^" horiz-adv-x="533" 
d="M518 235h-158q-10 0 -13 10l-64 202h-2l-65 -202q-3 -10 -13 -10h-158q-10 0 -7 10l162 425q4 10 14 10h135q11 0 14 -10l162 -425q3 -10 -7 -10z" />
    <glyph glyph-name="underscore" unicode="_" horiz-adv-x="565" 
d="M519 -51l-24 -136h-565l24 136h565z" />
    <glyph glyph-name="grave" unicode="`" horiz-adv-x="516" 
d="M471 541h-122q-12 0 -18 10l-77 143q-2 4 0 7t6 3h149q12 0 15 -10l55 -143q3 -10 -8 -10z" />
    <glyph glyph-name="a" unicode="a" horiz-adv-x="522" 
d="M436 0h-163q-10 0 -9 10l4 25h-1q-50 -47 -132 -47q-55 0 -91 32.5t-36 86.5q0 94 62 144.5t177 50.5h64q7 0 8 6l3 11q4 21 -12 29t-68 8q-61 0 -104 -25q-9 -4 -12 5l-39 102q-4 9 6 16q77 48 205 48q124 0 173 -43t31 -146l-55 -303q-1 -10 -11 -10zM228 120
q58 0 64 38l4 28q2 6 -5 6h-46q-54 0 -54 -44q0 -28 37 -28z" />
    <glyph glyph-name="b" unicode="b" horiz-adv-x="547" 
d="M318 -12q-85 0 -108 59h-1l-7 -37q-1 -10 -11 -10h-174q-9 0 -8 10l117 660q1 10 10 10h174q10 0 9 -10l-41 -227h1q44 59 129 59q70 0 102 -39.5t32 -119.5q0 -54 -16 -127q-17 -76 -39 -122q-28 -56 -68.5 -81t-100.5 -25zM273 143q31 0 47 31q9 20 16 62q9 47 9 67
q0 44 -37 44q-32 0 -47 -31q-8 -18 -17 -63q-8 -50 -8 -66q0 -44 37 -44z" />
    <glyph glyph-name="c" unicode="c" horiz-adv-x="489" 
d="M216 -12q-88 0 -141.5 49t-53.5 134q0 103 41 190q68 141 245 141q77 0 127.5 -37t59.5 -95q1 -8 -7 -13l-143 -57q-13 -6 -16 5q-6 23 -15 32.5t-26 9.5q-33 0 -46 -30q-9 -19 -18 -66t-9 -68q0 -40 37 -40q31 0 57 45q6 10 16 6l131 -62q7 -4 3 -13q-42 -67 -100 -99
t-142 -32z" />
    <glyph glyph-name="d" unicode="d" horiz-adv-x="547" 
d="M459 0h-173q-9 0 -8 10l6 37h-1q-44 -59 -129 -59q-70 0 -102.5 39.5t-32.5 119.5q0 55 16 126q17 76 39 122q52 106 169 106q86 0 109 -59h1l42 228q1 10 10 10h173q10 0 9 -10l-117 -660q-1 -10 -11 -10zM253 142q32 0 48 31q9 20 16 62q9 47 9 67q0 44 -37 44
q-32 0 -47 -31q-8 -18 -17 -63q-8 -50 -8 -66q0 -44 36 -44z" />
    <glyph glyph-name="e" unicode="e" horiz-adv-x="523" 
d="M233 -12q-98 0 -155 47t-57 136q0 106 41 191q68 140 249 140q92 0 147 -46.5t55 -128.5q0 -38 -14 -125q-1 -10 -12 -10h-277q-5 0 -7 -5q-1 -2 -1 -10q0 -49 78 -49q50 0 109 39q10 6 14 -1l60 -84q7 -8 -2 -16q-93 -78 -228 -78zM230 302h97q5 0 7 6q3 10 3 19
q0 45 -46 45q-41 0 -59 -37q-7 -13 -7 -27q0 -6 5 -6z" />
    <glyph glyph-name="f" unicode="f" horiz-adv-x="352" 
d="M213 0h-173q-10 0 -9 10l58 339q1 6 -5 6h-25q-8 0 -7 10l20 115q1 10 11 10h25q6 0 7 6l2 6q16 98 65 138t152 40h74q9 0 8 -10l-21 -119q-1 -10 -11 -10h-27q-25 0 -36 -8t-14 -29l-1 -7q-1 -7 5 -7h62q9 0 8 -10l-21 -115q-1 -10 -11 -10h-62q-5 0 -7 -6l-57 -339
q-1 -10 -10 -10z" />
    <glyph glyph-name="g" unicode="g" horiz-adv-x="539" 
d="M185 -192q-63 0 -116 24t-78 63q-5 8 4 15l105 88q8 8 16 1q39 -36 81 -36q39 0 60 21t30 71l7 36h-1q-43 -58 -128 -58q-135 0 -135 151q0 51 12 111q12 58 32 99q52 108 170 108q39 0 68.5 -16.5t40.5 -43.5h1l7 38q1 10 12 10h170q9 0 8 -10l-64 -392
q-27 -152 -100 -216q-71 -64 -202 -64zM260 184q31 0 48 32q19 34 19 88q0 43 -37 43q-33 0 -48 -32q-18 -36 -18 -88q0 -43 36 -43z" />
    <glyph glyph-name="h" unicode="h" horiz-adv-x="549" 
d="M464 0h-173q-10 0 -9 10l49 279q10 55 -30 55q-41 0 -50 -54l-49 -280q-1 -10 -11 -10h-174q-9 0 -8 10l116 660q1 10 11 10h174q9 0 8 -10l-40 -228h1q48 60 130 60q157 0 122 -183l-56 -309q-1 -10 -11 -10z" />
    <glyph glyph-name="i" unicode="i" horiz-adv-x="276" 
d="M286 540h-174q-9 0 -8 10l21 120q1 10 11 10h174q9 0 8 -10l-21 -120q-1 -10 -11 -10zM191 0h-174q-9 0 -8 10l83 470q1 10 11 10h174q9 0 8 -10l-83 -470q-1 -10 -11 -10z" />
    <glyph glyph-name="j" unicode="j" horiz-adv-x="276" 
d="M287 540h-174q-9 0 -8 10l21 120q1 10 11 10h174q9 0 8 -10l-21 -120q-1 -10 -11 -10zM-43 -180h-42q-10 0 -7 10l24 135q1 10 11 10h9q30 0 42.5 11t18.5 44l80 450q1 10 11 10h174q9 0 8 -10l-79 -451q-21 -121 -78 -164q-56 -45 -172 -45z" />
    <glyph glyph-name="k" unicode="k" horiz-adv-x="536" 
d="M493 0h-178q-10 0 -13 10l-48 183l-28 -34l-26 -149q-1 -10 -11 -10h-172q-9 0 -8 10l114 660q1 10 10 10h173q10 0 9 -10l-55 -316l106 127q8 9 20 9h173q5 0 6.5 -3t-1.5 -7l-160 -172l95 -298q4 -10 -6 -10z" />
    <glyph glyph-name="l" unicode="l" horiz-adv-x="319" 
d="M268 -6h-68q-102 0 -135 43q-31 43 -15 143l89 490q1 10 10 10h174q10 0 9 -10l-85 -466q-10 -51 30 -51h19q9 0 8 -10l-25 -139q-1 -10 -11 -10z" />
    <glyph glyph-name="m" unicode="m" horiz-adv-x="822" 
d="M737 0h-173q-10 0 -9 10l49 279q10 55 -30 55q-41 0 -50 -54l-49 -280q-1 -10 -11 -10h-173q-10 0 -9 10l49 279q10 55 -30 55q-41 0 -50 -54l-49 -280q-1 -10 -11 -10h-174q-9 0 -8 10l83 470q1 10 11 10h173q9 0 8 -10l-6 -38h1q48 60 130 60q86 0 113 -59h1
q59 59 156 59q158 0 125 -183l-56 -309q-1 -10 -11 -10z" />
    <glyph glyph-name="n" unicode="n" horiz-adv-x="549" 
d="M464 0h-173q-10 0 -9 10l49 279q10 55 -30 55q-41 0 -50 -54l-49 -280q-1 -10 -11 -10h-174q-9 0 -8 10l83 470q1 10 11 10h173q9 0 8 -10l-6 -38h1q48 60 130 60q157 0 122 -182l-56 -310q-1 -10 -11 -10z" />
    <glyph glyph-name="o" unicode="o" horiz-adv-x="522" 
d="M226 -12q-95 0 -150 49t-55 140q0 104 39 185q69 140 247 140q95 0 150 -49t55 -140q0 -104 -39 -185q-69 -140 -247 -140zM248 143q32 0 47 31q9 18 18 65q9 46 9 67q0 41 -37 41q-32 0 -47 -31q-9 -18 -18 -65t-9 -67q0 -41 37 -41z" />
    <glyph glyph-name="p" unicode="p" horiz-adv-x="547" 
d="M159 -180h-174q-9 0 -8 10l115 650q1 10 10 10h174q10 0 9 -10l-7 -38h1q43 60 129 60q70 0 102 -39.5t32 -119.5q0 -54 -16 -127q-17 -76 -39 -122q-28 -56 -68.5 -81t-100.5 -25q-85 0 -108 59h-1l-39 -217q-1 -10 -11 -10zM273 143q31 0 47 31q9 20 16 62q9 47 9 67
q0 44 -37 44q-32 0 -47 -31q-8 -18 -17 -63q-8 -50 -8 -66q0 -44 37 -44z" />
    <glyph glyph-name="q" unicode="q" horiz-adv-x="547" 
d="M428 -180h-173q-9 0 -8 10l37 217h-1q-44 -59 -129 -59q-70 0 -102.5 39.5t-32.5 119.5q0 54 16 127q17 76 39 122q52 106 170 106q86 0 108 -60h1l7 38q1 10 10 10h174q10 0 9 -10l-114 -650q-1 -10 -11 -10zM253 142q32 0 48 31q9 20 16 62q9 47 9 67q0 44 -37 44
q-32 0 -47 -31q-8 -18 -17 -63q-8 -50 -8 -66q0 -44 36 -44z" />
    <glyph glyph-name="r" unicode="r" horiz-adv-x="420" 
d="M191 0h-174q-9 0 -8 10l83 470q1 10 11 10h173q9 0 8 -10l-8 -45h1q43 67 136 67q27 0 42 -6q11 -3 6 -14l-87 -176q-4 -10 -15 -3q-32 21 -55 21q-47 0 -59 -72l-43 -242q-1 -10 -11 -10z" />
    <glyph glyph-name="s" unicode="s" horiz-adv-x="509" 
d="M232 -12q-142 0 -231 78q-8 6 1 15l89 91q7 7 16 1q80 -50 152 -50q23 0 37.5 8.5t14.5 20.5q0 17 -46 21l-53 6q-70 8 -107.5 40.5t-37.5 86.5q0 90 65 143t178 53q134 0 208 -65q7 -6 -2 -15l-81 -86q-7 -8 -15 -3q-61 38 -128 38q-20 0 -33 -7.5t-13 -17.5
q0 -16 39 -21l52 -6q157 -16 157 -128q0 -92 -71 -148q-70 -55 -191 -55z" />
    <glyph glyph-name="t" unicode="t" horiz-adv-x="342" 
d="M281 -6h-60q-107 0 -142.5 48.5t-14.5 158.5l29 148q1 6 -5 6h-26q-8 0 -7 10l20 115q1 10 11 10h25q5 0 7 6l23 124q1 10 12 10h173q8 0 7 -10l-23 -124q-2 -6 5 -6h58q9 0 8 -10l-20 -115q-1 -10 -12 -10h-60q-5 0 -7 -6l-26 -140q-6 -33 0.5 -44.5t32.5 -11.5h20
q10 0 9 -10l-25 -139q-1 -10 -12 -10z" />
    <glyph glyph-name="u" unicode="u" horiz-adv-x="546" 
d="M492 0h-173q-9 0 -8 10l6 37h-1q-50 -59 -132 -59q-151 0 -118 183l54 309q1 10 11 10h174q9 0 8 -10l-50 -280q-9 -54 31 -54q41 0 50 54l49 280q1 10 11 10h174q9 0 8 -10l-83 -470q-1 -10 -11 -10z" />
    <glyph glyph-name="v" unicode="v" horiz-adv-x="543" 
d="M320 0h-167q-10 0 -11 10l-88 470q-1 10 9 10h175q12 0 13 -10l24 -237h2l105 237q4 10 17 10h182q10 0 6 -10l-255 -470q-4 -10 -12 -10z" />
    <glyph glyph-name="w" unicode="w" horiz-adv-x="762" 
d="M551 0h-131q-9 0 -10 10l-23 223h-2l-104 -223q-4 -10 -13 -10h-130q-10 0 -11 10l-74 470q0 10 10 10h168q12 0 12 -10l10 -229h2l103 229q4 10 16 10h103q11 0 12 -10l23 -229h2l88 229q4 10 17 10h178q10 0 6 -10l-240 -470q-4 -10 -12 -10z" />
    <glyph glyph-name="x" unicode="x" horiz-adv-x="542" 
d="M491 0h-178q-9 0 -12 8l-42 93h-1l-76 -93q-8 -8 -16 -8h-188q-10 0 -4 10l209 247l-107 223q-4 10 8 10h173q9 0 13 -7l35 -79h2l63 79q6 7 16 7h181q11 0 4 -10l-190 -229l117 -241q4 -10 -7 -10z" />
    <glyph glyph-name="y" unicode="y" horiz-adv-x="543" 
d="M70 -180h-40q-9 0 -8 10l24 135q1 10 12 10h27q42 0 60 34l13 27l-104 444q-1 10 8 10h175q10 0 11 -10l34 -216h2l102 216q4 10 15 10h180q11 0 6 -11l-318 -548q-38 -65 -80 -87q-43 -24 -119 -24z" />
    <glyph glyph-name="z" unicode="z" horiz-adv-x="494" 
d="M418 0h-404q-8 0 -7 10l22 128q1 9 7 13l226 188v3h-176q-8 0 -7 10l23 128q1 10 11 10h393q8 0 7 -10l-22 -128q-1 -8 -7 -13l-226 -187v-3h187q9 0 8 -10l-23 -129q-1 -10 -12 -10z" />
    <glyph glyph-name="braceleft" unicode="{" horiz-adv-x="366" 
d="M276 -84h-80q-136 0 -113 129l21 124q16 88 -52 90q-10 0 -9 10l22 121q1 10 11 10q35 0 55.5 21t28.5 67l22 123q22 129 159 129h80q9 0 8 -10l-21 -121q-1 -10 -12 -10h-19q-42 0 -50 -47l-16 -91q-10 -56 -30.5 -85.5t-61.5 -45.5v-2q35 -16 45.5 -46t0.5 -86l-16 -92
q-8 -47 32 -47h19q10 0 9 -10l-22 -121q-1 -10 -11 -10z" />
    <glyph glyph-name="bar" unicode="|" horiz-adv-x="332" 
d="M261 -84h-150q-10 0 -10 10v804q0 10 10 10h150q10 0 10 -10v-804q0 -10 -10 -10z" />
    <glyph glyph-name="braceright" unicode="}" horiz-adv-x="366" 
d="M72 -84h-81q-9 0 -8 10l21 121q1 10 12 10h19q42 0 50 47l16 93q10 56 30.5 85.5t61.5 45.5v2q-35 16 -45.5 46t-0.5 86l17 90q8 47 -32 47h-20q-10 0 -9 10l22 121q1 10 11 10h81q135 0 112 -129l-21 -122q-17 -89 52 -89q10 0 9 -10l-22 -121q-1 -10 -11 -10
q-68 0 -84 -89l-22 -125q-22 -129 -158 -129z" />
    <glyph glyph-name="asciitilde" unicode="~" horiz-adv-x="533" 
d="M373 175q-53 0 -100 31q-38 25 -62 25q-33 0 -59 -44q-4 -9 -14 -4l-94 60q-8 5 -4 14q25 53 65 85.5t87 32.5q50 0 100 -32q38 -25 63 -25q32 0 59 45q4 9 14 4l94 -61q8 -5 4 -14q-25 -53 -65.5 -85t-87.5 -32z" />
    <glyph glyph-name="uni00A0" unicode="&#xa0;" horiz-adv-x="233" 
 />
    <glyph glyph-name="exclamdown" unicode="&#xa1;" horiz-adv-x="312" 
d="M108 271h128q9 0 8 -10l-54 -441q-1 -10 -11 -10h-174q-9 0 -8 10l101 441q1 10 10 10zM296 480l-24 -136q-1 -10 -12 -10h-153q-9 0 -8 10l24 136q1 10 11 10h154q9 0 8 -10z" />
    <glyph glyph-name="cent" unicode="&#xa2;" horiz-adv-x="553" 
d="M498 114q-64 -105 -189 -122l-13 -77q-1 -10 -12 -10h-101q-9 0 -8 10l14 81q-63 15 -98 61t-35 114q0 103 41 190q53 111 180 135l14 79q1 10 12 10h101q9 0 8 -10l-14 -79q55 -12 91 -46t44 -80q1 -8 -7 -13l-143 -55q-13 -6 -16 4q-7 42 -44 42q-34 0 -47 -31
q-9 -19 -18 -66t-9 -68q0 -40 39 -40q34 0 59 45q8 11 18 4l130 -65q7 -4 3 -13z" />
    <glyph glyph-name="sterling" unicode="&#xa3;" horiz-adv-x="553" 
d="M470 0h-438q-10 0 -9 10l24 134q1 10 10 16q39 31 46 73l4 19q1 6 -5 6h-25q-10 0 -9 10l20 110q1 10 11 10h25q6 0 8 6l16 90q17 99 83.5 153.5t168.5 54.5q86 0 132 -44.5t41 -116.5q0 -11 -9 -12l-153 -29q-9 -2 -9 8q0 39 -26 39q-30 0 -37 -45l-16 -98q-1 -6 4 -6
h124q10 0 9 -10l-20 -110q-1 -10 -11 -10h-125q-6 0 -7 -7l-2 -12q-8 -51 -46 -79l-1 -2h249q9 0 8 -10l-24 -138q-1 -10 -11 -10z" />
    <glyph glyph-name="currency" unicode="&#xa4;" horiz-adv-x="533" 
d="M505 104l-111 -93q-9 -8 -14 0l-47 59q-43 -17 -86 -17q-42 0 -75 15l-70 -60q-8 -8 -14 0l-84 101q-6 7 3 14l72 63q-3 20 -3 39q0 66 34 122l-49 62q-6 7 3 14l109 93q9 8 14 0l48 -60q42 17 86 17q41 0 74 -15l72 62q8 8 14 0l83 -101q4 -7 -3 -14l-73 -64
q4 -23 4 -40q0 -62 -34 -121l49 -62q7 -7 -2 -14zM271 186q34 0 59 28q26 29 26 65q0 27 -16 44t-43 17q-34 0 -60 -29q-25 -28 -25 -64q0 -27 16 -44t43 -17z" />
    <glyph glyph-name="yen" unicode="&#xa5;" horiz-adv-x="553" 
d="M331 0h-172q-10 0 -9 10l19 110q1 6 -5 6h-104q-8 0 -7 10l11 61q1 10 11 10h104q5 0 7 6l4 24q2 6 -5 6h-104q-8 0 -7 10l11 61q1 10 11 10h79v2l-78 344q0 10 9 10h178q13 0 14 -10l22 -222h3l101 222q4 10 16 10h182q10 0 6 -10l-199 -344v-2h79q8 0 7 -10l-11 -61
q-1 -10 -11 -10h-103q-6 0 -7 -6l-4 -24q-1 -6 5 -6h103q8 0 7 -10l-11 -61q-1 -10 -11 -10h-103q-5 0 -7 -6l-20 -110q-1 -10 -11 -10z" />
    <glyph glyph-name="brokenbar" unicode="&#xa6;" horiz-adv-x="332" 
d="M261 388h-150q-10 0 -10 10v332q0 10 10 10h150q10 0 10 -10v-332q0 -10 -10 -10zM261 -84h-150q-10 0 -10 10v336q0 10 10 10h150q10 0 10 -10v-336q0 -10 -10 -10z" />
    <glyph glyph-name="section" unicode="&#xa7;" horiz-adv-x="487" 
d="M168 -196q-85 0 -130 42.5t-45 114.5q0 11 11 13l144 19q10 1 10 -9q-1 -40 33 -40q19 0 31 12.5t12 35.5q0 18 -16 30.5t-55 25.5q-134 44 -134 154q0 119 106 191v2q-38 36 -38 92q0 89 68 149q67 60 167 60q88 0 133 -47q45 -46 40 -113q-2 -12 -13 -13l-139 -18
q-9 -1 -9 8q0 43 -32 43q-20 0 -32 -12t-12 -31q0 -34 71 -57q135 -44 135 -158q0 -115 -106 -187v-2q37 -34 37 -94q0 -93 -68 -152t-169 -59zM241 192q26 0 43.5 23t17.5 53q0 20 -10.5 32t-29.5 12q-26 0 -44 -23t-18 -53q0 -44 41 -44z" />
    <glyph glyph-name="dieresis" unicode="&#xa8;" horiz-adv-x="513" 
d="M480 544h-122q-10 0 -9 10l22 120q1 10 12 10h122q9 0 8 -10l-22 -120q-1 -10 -11 -10zM277 544h-122q-10 0 -9 10l22 120q1 10 12 10h122q9 0 8 -10l-22 -120q-1 -10 -11 -10z" />
    <glyph glyph-name="copyright" unicode="&#xa9;" horiz-adv-x="777" 
d="M664 86q-100 -100 -252 -100q-153 0 -253 100t-100 253t100 253t253 100q152 0 252 -100t100 -253t-100 -253zM220 147q75 -75 192 -75q118 0 191 75q75 75 75 192t-75 192q-73 75 -191 75q-117 0 -192 -75t-75 -192t75 -192zM417 146q-65 0 -113 30t-66 84
q-10 27 -10 81q0 52 10 81q18 54 66 84t113 30q61 0 108 -27.5t65 -70.5q4 -10 -6 -13l-105 -44q-9 -4 -13 5q-13 31 -43 31q-29 0 -38 -26q-4 -11 -4 -50t4 -50q9 -26 38 -26q30 0 43 31q4 9 13 5l105 -44q10 -3 6 -13q-18 -43 -65 -70.5t-108 -27.5z" />
    <glyph glyph-name="ordfeminine" unicode="&#xaa;" horiz-adv-x="367" 
d="M351 392h-97q-10 0 -9 10l3 14h-1q-29 -30 -81 -30q-40 0 -63 18t-23 52q0 51 40 83t108 32h40q6 0 8 6l1 4q5 24 -46 24q-38 0 -72 -19q-9 -6 -12 4l-22 54q-3 10 7 14q50 31 127 31q80 0 112.5 -26t22.5 -84l-32 -177q-1 -10 -11 -10zM217 462q39 0 43 25l2 12
q2 6 -4 6h-33q-30 0 -30 -25q0 -18 22 -18z" />
    <glyph glyph-name="guillemotleft" unicode="&#xab;" horiz-adv-x="596" 
d="M505 11l-203 246q-6 8 2 14l292 247q4 3 7 1.5t2 -6.5l-29 -160q-3 -12 -14 -23l-81 -72q-4 -4 -2 -8l56 -72q9 -10 6 -22l-25 -143q-1 -4 -4.5 -5t-6.5 3zM234 11l-203 246q-6 8 2 14l292 247q4 3 7 1.5t2 -6.5l-29 -160q-3 -12 -14 -23l-81 -72q-4 -4 -2 -8l56 -72
q9 -10 6 -22l-25 -143q-1 -4 -4.5 -5t-6.5 3z" />
    <glyph glyph-name="logicalnot" unicode="&#xac;" horiz-adv-x="533" 
d="M510 69h-143q-10 0 -10 10v112q0 6 -6 6h-303q-10 0 -10 10v138q0 10 10 10h462q10 0 10 -10v-266q0 -10 -10 -10z" />
    <glyph glyph-name="uni00AD" unicode="&#xad;" horiz-adv-x="396" 
d="M349 187h-306q-9 0 -8 10l25 144q1 10 12 10h306q9 0 8 -10l-25 -144q-1 -10 -12 -10z" />
    <glyph glyph-name="registered" unicode="&#xae;" horiz-adv-x="431" 
d="M402 356q-55 -55 -138 -55q-84 0 -139 55q-56 56 -56 137q0 82 56 136q55 55 139 55q83 0 138 -55q56 -54 56 -136q0 -81 -56 -137zM264 343q66 0 106 42q42 42 42 108q0 67 -42 107q-40 42 -106 42q-65 0 -107 -41.5t-42 -107.5q0 -67 41.5 -108.5t107.5 -41.5zM240 388
h-57q-7 0 -7 7v198q0 7 7 7h98q41 0 62.5 -19t21.5 -53q0 -43 -36 -61l35 -72q1 -7 -5 -7h-63q-7 0 -10 7l-26 61h-9q-4 0 -4 -4v-57q0 -7 -7 -7zM251 509h20q23 0 23 19q0 18 -23 18h-20q-4 0 -4 -4v-29q0 -4 4 -4z" />
    <glyph glyph-name="overscore" unicode="&#xaf;" horiz-adv-x="513" 
d="M476 552h-312q-9 0 -8 10l18 104q1 10 11 10h312q9 0 8 -10l-18 -104q-1 -10 -11 -10z" />
    <glyph glyph-name="degree" unicode="&#xb0;" horiz-adv-x="374" 
d="M242 370q-71 0 -117 46q-47 47 -47 116q0 70 47 117t117 47t117 -47t47 -117q0 -69 -47 -116q-46 -46 -117 -46zM293 532q2 32 -24.5 45.5t-53 0t-24.5 -45.5q0 -22 14.5 -36.5t36.5 -14.5t36.5 14.5t14.5 36.5z" />
    <glyph glyph-name="plusminus" unicode="&#xb1;" horiz-adv-x="533" 
d="M350 195h-143q-10 0 -10 10v143q0 6 -6 6h-143q-10 0 -10 10v139q0 10 10 10h143q6 0 6 6v142q0 10 10 10h143q10 0 10 -10v-142q0 -6 6 -6h144q10 0 10 -10v-139q0 -10 -10 -10h-144q-6 0 -6 -6v-143q0 -10 -10 -10zM510 0h-462q-10 0 -10 10v139q0 10 10 10h462
q10 0 10 -10v-139q0 -10 -10 -10z" />
    <glyph glyph-name="twosuperior" unicode="&#xb2;" 
d="M366 430h-287q-8 0 -7 10l15 83q3 14 13 21l166 128q28 21 28 47q0 20 -20 20q-26 0 -34 -35q-1 -10 -13 -9l-100 12q-8 1 -7 11q12 57 61.5 91t120.5 34q59 0 92.5 -29t33.5 -77q0 -41 -18.5 -72t-60.5 -62l-82 -61v-1h119q9 0 8 -10l-16 -91q-1 -10 -12 -10z" />
    <glyph glyph-name="threesuperior" unicode="&#xb3;" 
d="M222 423q-65 0 -101.5 29t-35.5 80q0 10 9 11l104 13q9 2 12 -7q7 -22 25 -22q13 0 22.5 10.5t9.5 25.5q0 22 -29 22h-9q-9 0 -8 10l14 82q1 10 11 10h11q13 0 23 9t10 23q0 20 -20 20q-21 0 -30 -22q-4 -9 -13 -8l-101 14q-9 2 -6 11q18 50 64 79.5t111 29.5
q62 0 97 -26t35 -69q0 -64 -63 -99v-2q38 -20 38 -68q0 -70 -52 -113t-128 -43z" />
    <glyph glyph-name="acute" unicode="&#xb4;" horiz-adv-x="513" 
d="M325 541h-135q-12 0 -4 10l107 143q7 10 19 10h158q5 0 6 -3t-3 -7l-129 -143q-9 -10 -19 -10z" />
    <glyph glyph-name="mu" unicode="&#xb5;" horiz-adv-x="576" 
d="M158 -180h-176q-8 0 -6 9l115 652q1 9 11 9h174q8 0 7 -9l-50 -281q0 -3 -0.5 -5.5t-1 -4.5t-0.5 -3.5v-2.5q0 -39 34 -39q42 0 51 55l49 281q1 9 12 9h173q10 0 7 -9l-49 -274q-1 -8 -2.5 -17t-2 -13t-0.5 -5q0 -20 25 -20q8 0 7 -9l-25 -136q-1 -13 -12 -13h-17
q-78 0 -107 10q-30 10 -43 34l-7 14h-2q-36 -55 -116 -63l-10 -1l-1 -4l-27 -155q-2 -9 -10 -9z" />
    <glyph glyph-name="paragraph" unicode="&#xb6;" horiz-adv-x="680" 
d="M549 -180h-130q-8 0 -7 10l127 723q1 6 -5 6h-66q-6 0 -7 -6l-127 -723q-1 -10 -11 -10h-130q-8 0 -7 10l63 364q-81 5 -129.5 57.5t-47.5 135.5q0 124 85 208q85 85 213 85h330q9 0 8 -10l-148 -840q-1 -10 -11 -10z" />
    <glyph glyph-name="middot" unicode="&#xb7;" horiz-adv-x="247" 
d="M199 178h-154q-10 0 -9 10l26 154q1 10 11 10h155q10 0 9 -10l-27 -154q-1 -10 -11 -10z" />
    <glyph glyph-name="cedilla" unicode="&#xb8;" horiz-adv-x="513" 
d="M234 -171h-131q-9 0 -5 10l89 161q6 10 17 10h115q10 0 6 -10l-74 -161q-4 -10 -17 -10z" />
    <glyph glyph-name="onesuperior" unicode="&#xb9;" 
d="M297 430h-119q-9 0 -8 10l46 260h-2l-72 -37q-4 -2 -7 0t-2 6l19 108q2 11 12 15l67 38q11 6 23 6h114q10 0 9 -10l-68 -386q-1 -10 -12 -10z" />
    <glyph glyph-name="ordmasculine" unicode="&#xba;" horiz-adv-x="393" 
d="M228 383q-62 0 -98.5 31t-36.5 86q0 56 23 104q42 85 165 85q62 0 98.5 -31t36.5 -86q0 -56 -23 -104q-43 -85 -165 -85zM279 499q3 6 8 32q5 28 5 35q0 29 -26 29t-36 -22q-5 -8 -9 -32q-4 -23 -4 -35q0 -29 26 -29t36 22z" />
    <glyph glyph-name="guillemotright" unicode="&#xbb;" horiz-adv-x="596" 
d="M588 257l-292 -247q-4 -3 -7 -1.5t-2 6.5l29 160q3 12 14 23l82 72q4 4 2 8l-57 72q-9 10 -6 22l25 143q1 4 4.5 5t6.5 -3l203 -246q6 -8 -2 -14zM317 257l-292 -247q-4 -3 -7 -1.5t-2 6.5l29 160q3 12 14 23l82 72q4 4 2 8l-57 72q-9 10 -6 22l25 143q1 4 4.5 5t6.5 -3
l203 -246q6 -8 -2 -14z" />
    <glyph glyph-name="onequarter" unicode="&#xbc;" horiz-adv-x="903" 
d="M766 0h-106q-8 0 -7 10l6 33q1 6 -5 6h-164q-9 0 -8 10l17 98q2 10 9 20l133 219q6 10 15 10h123q4 0 5.5 -3t-0.5 -7l-142 -233v-3h32q6 0 7 6l8 45q1 10 11 10h105q8 0 7 -10l-7 -45q-1 -6 4 -6h13q8 0 7 -10l-17 -91q-1 -10 -11 -10h-12q-5 0 -7 -6l-5 -33
q-1 -10 -11 -10zM296 274h-119q-9 0 -8 10l46 260h-2l-72 -37q-4 -2 -7 0t-2 6l19 108q1 11 12 15l67 38q11 6 23 6h114q10 0 9 -10l-68 -386q-1 -10 -12 -10zM273 -12h-116q-9 0 -2 10l503 684q6 10 17 10h118q9 0 2 -10l-504 -684q-7 -10 -18 -10z" />
    <glyph glyph-name="onehalf" unicode="&#xbd;" horiz-adv-x="936" 
d="M273 -12h-116q-9 0 -2 10l503 684q6 10 17 10h118q9 0 2 -10l-504 -684q-7 -10 -18 -10zM296 274h-119q-9 0 -8 10l46 260h-2l-72 -37q-4 -2 -7 0t-2 6l19 108q1 11 12 15l67 38q11 6 23 6h114q10 0 9 -10l-68 -386q-1 -10 -12 -10zM821 0h-287q-8 0 -7 10l15 83
q3 14 13 21l166 128q28 21 28 47q0 20 -20 20q-26 0 -34 -35q-1 -10 -13 -9l-100 12q-8 1 -7 11q12 57 61.5 91t120.5 34q59 0 92.5 -29t33.5 -77q0 -41 -18.5 -72t-60.5 -62l-82 -61v-1h119q9 0 8 -10l-16 -91q-1 -10 -12 -10z" />
    <glyph glyph-name="threequarters" unicode="&#xbe;" horiz-adv-x="959" 
d="M253 267q-65 0 -101.5 29t-35.5 80q0 10 9 11l104 13q9 2 12 -7q7 -22 25 -22q13 0 22.5 10.5t9.5 25.5q0 22 -29 22h-9q-9 0 -8 10l14 82q1 10 11 10h11q13 0 23 9t10 23q0 20 -20 20q-21 0 -30 -22q-4 -9 -13 -8l-101 14q-9 2 -6 11q18 50 64 79.5t111 29.5
q62 0 97 -26t35 -69q0 -64 -63 -99v-2q38 -20 38 -68q0 -70 -52 -113t-128 -43zM822 0h-106q-8 0 -7 10l6 33q1 6 -5 6h-164q-9 0 -8 10l17 98q2 10 9 20l133 219q6 10 15 10h123q4 0 5.5 -3t-0.5 -7l-142 -233v-3h32q6 0 7 6l8 45q1 10 11 10h105q8 0 7 -10l-7 -45
q-1 -6 4 -6h13q8 0 7 -10l-17 -91q-1 -10 -11 -10h-12q-5 0 -7 -6l-5 -33q-1 -10 -11 -10zM329 -12h-116q-9 0 -2 10l503 684q6 10 17 10h118q9 0 2 -10l-504 -684q-7 -10 -18 -10z" />
    <glyph glyph-name="questiondown" unicode="&#xbf;" horiz-adv-x="501" 
d="M192 271h155q10 0 9 -10l-7 -40q-11 -54 -48 -85l-56 -50q-36 -31 -50 -51t-14 -40q0 -38 35 -38q40 0 62 51q4 10 15 9l140 -20q9 -2 6 -11q-25 -84 -94 -136q-67 -52 -160 -52q-88 0 -141 47q-52 46 -52 117q0 54 26 96.5t87 96.5l43 37q28 25 32 57l2 12q1 10 10 10z
M393 480l-24 -136q-1 -10 -11 -10h-155q-9 0 -8 10l24 136q1 10 11 10h155q9 0 8 -10z" />
    <glyph glyph-name="Agrave" unicode="&#xc0;" horiz-adv-x="691" 
d="M184 0h-201q-10 0 -6 10l346 660q3 10 13 10h197q11 0 11 -10l107 -660q1 -10 -7 -10h-190q-11 0 -12 10l-9 93h-194l-41 -93q-4 -10 -14 -10zM399 458l-85 -189h104l-17 189h-2zM507 739h-128q-10 0 -19 10l-107 131q-2 4 0 7t6 3h151q12 0 19 -10l83 -131q6 -10 -5 -10
z" />
    <glyph glyph-name="Aacute" unicode="&#xc1;" horiz-adv-x="691" 
d="M184 0h-201q-10 0 -6 10l346 660q3 10 13 10h197q11 0 11 -10l107 -660q1 -10 -7 -10h-190q-11 0 -12 10l-9 93h-194l-41 -93q-4 -10 -14 -10zM399 458l-85 -189h104l-17 189h-2zM500 739h-132q-12 0 -4 10l130 131q10 10 22 10h158q5 0 6.5 -3t-2.5 -7l-153 -131
q-10 -10 -25 -10z" />
    <glyph glyph-name="Acircumflex" unicode="&#xc2;" horiz-adv-x="691" 
d="M184 0h-201q-10 0 -6 10l346 660q3 10 13 10h197q11 0 11 -10l107 -660q1 -10 -7 -10h-190q-11 0 -12 10l-9 93h-194l-41 -93q-4 -10 -14 -10zM399 458l-85 -189h104l-17 189h-2zM618 735h-104q-14 0 -21 10l-35 46h-2l-52 -46q-10 -10 -25 -10h-113q-5 0 -6 3t3 7
l135 143q9 10 20 10h104q12 0 18 -10l84 -143q6 -10 -6 -10z" />
    <glyph glyph-name="Atilde" unicode="&#xc3;" horiz-adv-x="691" 
d="M516 733q-44 0 -87 25q-31 17 -56 17q-37 0 -83 -33q-4 -3 -8 -1.5t-3 6.5l16 89q3 15 13 23q46 39 90 39q41 0 87 -26q31 -17 56 -17q37 0 83 33q4 3 8 1.5t3 -6.5l-16 -89q-1 -12 -14 -23q-44 -38 -89 -38zM184 0h-201q-10 0 -6 10l346 660q3 10 13 10h197q11 0 11 -10
l107 -660q1 -10 -7 -10h-190q-11 0 -12 10l-9 93h-194l-41 -93q-4 -10 -14 -10zM399 458l-85 -189h104l-17 189h-2z" />
    <glyph glyph-name="Adieresis" unicode="&#xc4;" horiz-adv-x="691" 
d="M184 0h-201q-10 0 -6 10l346 660q3 10 13 10h197q11 0 11 -10l107 -660q1 -10 -7 -10h-190q-11 0 -12 10l-9 93h-194l-41 -93q-4 -10 -14 -10zM399 458l-85 -189h104l-17 189h-2zM606 742h-122q-10 0 -9 10l22 120q1 10 12 10h122q9 0 8 -10l-22 -120q-1 -10 -11 -10z
M403 742h-122q-10 0 -9 10l22 120q1 10 12 10h122q9 0 8 -10l-22 -120q-1 -10 -11 -10z" />
    <glyph glyph-name="Aring" unicode="&#xc5;" horiz-adv-x="691" 
d="M438 699q-46 0 -74.5 25.5t-28.5 68.5q0 61 40 101.5t102 40.5q46 0 74.5 -25.5t28.5 -68.5q0 -61 -40 -101.5t-102 -40.5zM450 774q20 0 33.5 15t13.5 38q0 33 -32 33q-20 0 -33.5 -15t-13.5 -38q0 -33 32 -33zM184 0h-201q-10 0 -6 10l346 660q3 10 13 10h197
q11 0 11 -10l107 -660q1 -10 -7 -10h-190q-11 0 -12 10l-9 93h-194l-41 -93q-4 -10 -14 -10zM399 458l-85 -189h104l-17 189h-2z" />
    <glyph glyph-name="AE" unicode="&#xc6;" horiz-adv-x="921" 
d="M853 0h-441q-9 0 -8 10l15 87q1 6 -5 6h-156l-52 -93q-6 -10 -15 -10h-207q-12 0 -5 10l396 660q7 10 14 10h584q9 0 8 -10l-27 -148q-1 -10 -10 -10h-246q-6 0 -6 -6l-13 -75q-1 -6 4 -6h196q9 0 8 -10l-25 -144q-1 -10 -12 -10h-196q-4 0 -6 -6l-15 -81q0 -6 5 -6h244
q9 0 8 -10l-26 -148q-1 -10 -11 -10zM493 512h-4l-137 -243h91q5 0 7 6z" />
    <glyph glyph-name="Ccedilla" unicode="&#xc7;" horiz-adv-x="545" 
d="M229 -171h-131q-9 0 -5 10l88 160q-70 19 -108.5 73t-38.5 135q0 63 18 163q20 105 47 160q79 162 273 162q182 0 218 -162q3 -10 -7 -14l-160 -62q-12 -4 -15 6q-11 53 -57 53q-44 0 -68 -49q-13 -27 -29 -113q-17 -90 -17 -124q0 -27 14 -43.5t39 -16.5q42 0 75 55
q6 12 15 7l142 -82q8 -6 3 -15q-77 -125 -209 -141l-70 -152q-4 -10 -17 -10z" />
    <glyph glyph-name="Egrave" unicode="&#xc8;" horiz-adv-x="533" 
d="M437 739h-128q-10 0 -19 10l-107 131q-6 10 6 10h151q12 0 19 -10l83 -131q6 -10 -5 -10zM11 10l117 660q1 10 10 10h442q9 0 8 -10l-27 -148q-1 -10 -10 -10h-246q-6 0 -6 -6l-13 -75q-2 -6 4 -6h196q9 0 8 -10l-25 -144q-1 -10 -12 -10h-196q-5 0 -6 -6l-15 -81
q0 -6 5 -6h244q9 0 8 -10l-26 -148q-1 -10 -11 -10h-441q-9 0 -8 10z" />
    <glyph glyph-name="Eacute" unicode="&#xc9;" horiz-adv-x="533" 
d="M11 10l117 660q1 10 10 10h442q9 0 8 -10l-27 -148q-1 -10 -10 -10h-246q-6 0 -6 -6l-13 -75q-2 -6 4 -6h196q9 0 8 -10l-25 -144q-1 -10 -12 -10h-196q-5 0 -6 -6l-15 -81q0 -6 5 -6h244q9 0 8 -10l-26 -148q-1 -10 -11 -10h-441q-9 0 -8 10zM404 739h-132q-4 0 -5.5 3
t1.5 7l130 131q10 10 22 10h158q5 0 6.5 -3t-2.5 -7l-153 -131q-10 -10 -25 -10z" />
    <glyph glyph-name="Ecircumflex" unicode="&#xca;" horiz-adv-x="533" 
d="M11 10l117 660q1 10 10 10h442q9 0 8 -10l-27 -148q-1 -10 -10 -10h-246q-6 0 -6 -6l-13 -75q-2 -6 4 -6h196q9 0 8 -10l-25 -144q-1 -10 -12 -10h-196q-5 0 -6 -6l-15 -81q0 -6 5 -6h244q9 0 8 -10l-26 -148q-1 -10 -11 -10h-441q-9 0 -8 10zM543 735h-104q-14 0 -21 10
l-35 46h-2l-52 -46q-10 -10 -25 -10h-113q-5 0 -6 3t3 7l135 143q9 10 20 10h104q12 0 18 -10l84 -143q6 -10 -6 -10z" />
    <glyph glyph-name="Edieresis" unicode="&#xcb;" horiz-adv-x="533" 
d="M11 10l117 660q1 10 10 10h442q9 0 8 -10l-27 -148q-1 -10 -10 -10h-246q-6 0 -6 -6l-13 -75q-2 -6 4 -6h196q9 0 8 -10l-25 -144q-1 -10 -12 -10h-196q-5 0 -6 -6l-15 -81q0 -6 5 -6h244q9 0 8 -10l-26 -148q-1 -10 -11 -10h-441q-9 0 -8 10zM533 742h-122q-10 0 -9 10
l22 120q1 10 12 10h122q9 0 8 -10l-22 -120q-1 -10 -11 -10zM330 742h-122q-10 0 -9 10l22 120q1 10 12 10h122q9 0 8 -10l-22 -120q-1 -10 -11 -10z" />
    <glyph glyph-name="Igrave" unicode="&#xcc;" horiz-adv-x="289" 
d="M11 10l117 660q1 10 11 10h182q10 0 9 -10l-117 -660q-1 -10 -11 -10h-182q-10 0 -9 10zM304 739h-128q-10 0 -19 10l-107 131q-2 4 0 7t6 3h151q12 0 19 -10l83 -131q6 -10 -5 -10z" />
    <glyph glyph-name="Iacute" unicode="&#xcd;" horiz-adv-x="289" 
d="M11 10l117 660q1 10 11 10h182q10 0 9 -10l-117 -660q-1 -10 -11 -10h-182q-10 0 -9 10zM301 739h-132q-12 0 -4 10l130 131q10 10 22 10h158q5 0 6.5 -3t-2.5 -7l-153 -131q-10 -10 -25 -10z" />
    <glyph glyph-name="Icircumflex" unicode="&#xce;" horiz-adv-x="289" 
d="M11 10l117 660q1 10 11 10h182q10 0 9 -10l-117 -660q-1 -10 -11 -10h-182q-10 0 -9 10zM414 735h-104q-14 0 -21 10l-35 46h-2l-52 -46q-10 -10 -25 -10h-113q-5 0 -6 3t3 7l135 143q9 10 20 10h104q12 0 18 -10l84 -143q2 -4 0 -7t-6 -3z" />
    <glyph glyph-name="Idieresis" unicode="&#xcf;" horiz-adv-x="289" 
d="M11 10l117 660q1 10 11 10h182q10 0 9 -10l-117 -660q-1 -10 -11 -10h-182q-10 0 -9 10zM402 742h-122q-10 0 -9 10l22 120q1 10 12 10h122q9 0 8 -10l-22 -120q-1 -10 -11 -10zM199 742h-122q-10 0 -9 10l22 120q1 10 12 10h122q9 0 8 -10l-22 -120q-1 -10 -11 -10z" />
    <glyph glyph-name="Eth" unicode="&#xd0;" horiz-adv-x="616" 
d="M284 0h-265q-9 0 -8 10l46 262q1 6 -5 6h-25q-9 0 -8 10l19 111q1 10 12 10h25q5 0 7 6l46 255q1 10 10 10h265q218 0 218 -205q0 -67 -19 -165q-18 -97 -44 -153q-76 -157 -274 -157zM248 179h28q40 0 61.5 11.5t37.5 42.5q12 23 26 95q13 65 13 99q0 40 -19 57t-65 17
h-25q-5 0 -6 -6l-14 -80q-1 -6 4 -6h53q9 0 8 -10l-19 -111q-1 -10 -11 -10h-54q-6 0 -7 -6l-15 -87q-2 -6 4 -6z" />
    <glyph glyph-name="Ntilde" unicode="&#xd1;" horiz-adv-x="631" 
d="M11 10l117 660q1 10 11 10h172q12 0 15 -10l99 -347h4l61 347q1 10 11 10h163q9 0 8 -10l-117 -660q-1 -10 -11 -10h-174q-10 0 -13 10l-98 347h-5l-61 -347q-1 -10 -11 -10h-162q-10 0 -9 10zM477 733q-44 0 -87 25q-31 17 -56 17q-36 0 -83 -33q-4 -3 -8 -1.5t-3 6.5
l16 89q3 15 13 23q47 39 90 39q41 0 87 -26q31 -17 56 -17q36 0 83 33q4 3 8 1.5t3 -6.5l-16 -89q-1 -12 -14 -23q-44 -38 -89 -38z" />
    <glyph glyph-name="Ograve" unicode="&#xd2;" horiz-adv-x="606" 
d="M276 -12q-112 0 -175 57t-63 163q0 63 19 164q20 106 46 158q79 162 275 162q112 0 175 -57t63 -163q0 -64 -19 -165q-20 -104 -46 -157q-79 -162 -275 -162zM297 167q49 0 71 49q12 27 28 110q17 91 17 127q0 60 -56 60q-49 0 -71 -49q-12 -26 -28 -111
q-17 -91 -17 -126q0 -60 56 -60zM464 739h-128q-10 0 -19 10l-107 131q-2 4 0 7t6 3h151q12 0 19 -10l83 -131q6 -10 -5 -10z" />
    <glyph glyph-name="Oacute" unicode="&#xd3;" horiz-adv-x="606" 
d="M453 739h-132q-12 0 -4 10l130 131q10 10 22 10h158q5 0 6.5 -3t-2.5 -7l-153 -131q-10 -10 -25 -10zM276 -12q-112 0 -175 57t-63 163q0 63 19 164q20 106 46 158q79 162 275 162q112 0 175 -57t63 -163q0 -64 -19 -165q-20 -104 -46 -157q-79 -162 -275 -162zM297 167
q49 0 71 49q12 27 28 110q17 91 17 127q0 60 -56 60q-49 0 -71 -49q-12 -26 -28 -111q-17 -91 -17 -126q0 -60 56 -60z" />
    <glyph glyph-name="Ocircumflex" unicode="&#xd4;" horiz-adv-x="606" 
d="M572 745h-104q-14 0 -21 10l-35 46h-2l-52 -46q-10 -10 -25 -10h-113q-5 0 -6 3t3 7l135 143q9 10 20 10h104q12 0 18 -10l84 -143q2 -4 0 -7t-6 -3zM276 -12q-112 0 -175 57t-63 163q0 63 19 164q20 106 46 158q79 162 275 162q112 0 175 -57t63 -163q0 -64 -19 -165
q-20 -104 -46 -157q-79 -162 -275 -162zM297 167q49 0 71 49q12 27 28 110q17 91 17 127q0 60 -56 60q-49 0 -71 -49q-12 -26 -28 -111q-17 -91 -17 -126q0 -60 56 -60z" />
    <glyph glyph-name="Otilde" unicode="&#xd5;" horiz-adv-x="606" 
d="M462 733q-44 0 -87 25q-31 17 -56 17q-37 0 -83 -33q-4 -3 -8 -1.5t-3 6.5l16 89q3 15 13 23q46 39 90 39q41 0 87 -26q31 -17 56 -17q37 0 83 33q4 3 8 1.5t3 -6.5l-16 -89q-1 -12 -14 -23q-44 -38 -89 -38zM276 -12q-112 0 -175 57t-63 163q0 63 19 164q20 106 46 158
q79 162 275 162q112 0 175 -57t63 -163q0 -64 -19 -165q-20 -104 -46 -157q-79 -162 -275 -162zM297 167q49 0 71 49q12 27 28 110q17 91 17 127q0 60 -56 60q-49 0 -71 -49q-12 -26 -28 -111q-17 -91 -17 -126q0 -60 56 -60z" />
    <glyph glyph-name="Odieresis" unicode="&#xd6;" horiz-adv-x="606" 
d="M276 -12q-112 0 -175 57t-63 163q0 63 19 164q20 106 46 158q79 162 275 162q112 0 175 -57t63 -163q0 -64 -19 -165q-20 -104 -46 -157q-79 -162 -275 -162zM297 167q49 0 71 49q12 27 28 110q17 91 17 127q0 60 -56 60q-49 0 -71 -49q-12 -26 -28 -111
q-17 -91 -17 -126q0 -60 56 -60zM552 742h-122q-10 0 -9 10l22 120q1 10 12 10h122q9 0 8 -10l-22 -120q-1 -10 -11 -10zM349 742h-122q-10 0 -9 10l22 120q1 10 12 10h122q9 0 8 -10l-22 -120q-1 -10 -11 -10z" />
    <glyph glyph-name="multiply" unicode="&#xd7;" horiz-adv-x="533" 
d="M523 141l-93 -94q-7 -8 -14 0l-119 118q-4 4 -8 0l-118 -118q-7 -8 -14 0l-93 93q-7 7 0 14l117 117q5 5 0 9l-117 117q-7 7 0 14l95 95q7 7 14 0l117 -119q4 -3 9 0l118 119q7 7 14 0l92 -93q8 -8 0 -14l-118 -118q-5 -5 0 -8l118 -118q8 -7 0 -14z" />
    <glyph glyph-name="Oslash" unicode="&#xd8;" horiz-adv-x="606" 
d="M277 -12q-82 0 -141 32l-32 -40q-9 -10 -19 -10h-113q-12 0 -4 10l95 115q-24 47 -24 113q0 63 19 164q20 106 46 158q80 162 275 162q81 0 140 -32l33 40q9 10 19 10h113q12 0 4 -10l-96 -115q25 -47 25 -113q0 -64 -19 -165q-20 -104 -46 -157q-79 -162 -275 -162z
M298 167q49 0 71 49q12 27 28 110q17 91 17 127q0 60 -56 60q-49 0 -71 -49q-12 -26 -28 -111q-17 -91 -17 -126q0 -60 56 -60z" />
    <glyph glyph-name="Ugrave" unicode="&#xd9;" horiz-adv-x="625" 
d="M312 -12q-137 0 -199 73.5t-38 213.5l71 395q1 10 11 10h182q10 0 9 -10l-73 -412q-16 -91 55 -91q70 0 86 91l73 412q1 10 11 10h183q9 0 8 -10l-70 -395q-27 -151 -101.5 -219t-207.5 -68zM496 739h-128q-10 0 -19 10l-107 131q-2 4 0 7t6 3h151q12 0 19 -10l83 -131
q6 -10 -5 -10z" />
    <glyph glyph-name="Uacute" unicode="&#xda;" horiz-adv-x="625" 
d="M485 739h-132q-12 0 -4 10l130 131q10 10 22 10h158q5 0 6.5 -3t-2.5 -7l-153 -131q-10 -10 -25 -10zM312 -12q-137 0 -199 73.5t-38 213.5l71 395q1 10 11 10h182q10 0 9 -10l-73 -412q-16 -91 55 -91q70 0 86 91l73 412q1 10 11 10h183q9 0 8 -10l-70 -395
q-27 -151 -101.5 -219t-207.5 -68z" />
    <glyph glyph-name="Ucircumflex" unicode="&#xdb;" horiz-adv-x="625" 
d="M312 -12q-137 0 -199 73.5t-38 213.5l71 395q1 10 11 10h182q10 0 9 -10l-73 -412q-16 -91 55 -91q70 0 86 91l73 412q1 10 11 10h183q9 0 8 -10l-70 -395q-27 -151 -101.5 -219t-207.5 -68zM606 735h-104q-14 0 -21 10l-35 46h-2l-52 -46q-10 -10 -25 -10h-113
q-5 0 -6 3t3 7l135 143q9 10 20 10h104q12 0 18 -10l84 -143q2 -4 0 -7t-6 -3z" />
    <glyph glyph-name="Udieresis" unicode="&#xdc;" horiz-adv-x="625" 
d="M312 -12q-137 0 -199 73.5t-38 213.5l71 395q1 10 11 10h182q10 0 9 -10l-73 -412q-16 -91 55 -91q70 0 86 91l73 412q1 10 11 10h183q9 0 8 -10l-70 -395q-27 -151 -101.5 -219t-207.5 -68zM593 742h-122q-10 0 -9 10l22 120q1 10 12 10h122q9 0 8 -10l-22 -120
q-1 -10 -11 -10zM390 742h-122q-10 0 -9 10l22 120q1 10 12 10h122q9 0 8 -10l-22 -120q-1 -10 -11 -10z" />
    <glyph glyph-name="Yacute" unicode="&#xdd;" horiz-adv-x="605" 
d="M361 0h-182q-10 0 -9 10l43 245l-132 414q-5 11 9 11h171q12 0 15 -10l62 -221h3l140 221q6 10 17 10h189q14 0 6 -11l-278 -414l-43 -245q-1 -10 -11 -10zM441 739h-132q-12 0 -4 10l130 131q10 10 22 10h158q5 0 6.5 -3t-2.5 -7l-153 -131q-10 -10 -25 -10z" />
    <glyph glyph-name="Thorn" unicode="&#xde;" horiz-adv-x="593" 
d="M201 0h-182q-9 0 -8 10l117 660q1 10 11 10h182q9 0 8 -10l-15 -83q-2 -6 4 -6h75q111 0 167.5 -47.5t56.5 -136.5q0 -130 -85 -206t-220 -76h-75q-5 0 -7 -6l-18 -99q-1 -10 -11 -10zM266 283h64q36 0 58.5 22t22.5 58q0 50 -58 50h-64q-6 0 -6 -6l-21 -118q0 -6 4 -6z
" />
    <glyph glyph-name="germandbls" unicode="&#xdf;" horiz-adv-x="590" 
d="M291 -6h-45q-9 0 -8 10l22 123q1 10 12 10h23q45 0 64 39q6 14 12 50q7 35 7 57q0 39 -51 39h-19q-10 0 -9 10l22 120q1 10 12 10h23q24 0 39 13.5t15 36.5q0 31 -51 31q-36 0 -54.5 -16t-24.5 -51l-82 -466q-1 -10 -11 -10h-170q-9 0 -8 10l82 466q19 109 90 162.5
t204 53.5q104 0 160.5 -39t56.5 -106q0 -101 -81 -151v-2q48 -28 48 -96q0 -110 -41 -194q-29 -58 -86 -84t-151 -26z" />
    <glyph glyph-name="agrave" unicode="&#xe0;" horiz-adv-x="522" 
d="M436 0h-163q-10 0 -9 10l4 25h-1q-50 -47 -132 -47q-55 0 -91 32.5t-36 86.5q0 94 62 144.5t177 50.5h64q7 0 8 6l3 11q4 21 -12 29t-68 8q-61 0 -104 -25q-9 -4 -12 5l-39 102q-4 9 6 16q77 48 205 48q124 0 173 -43t31 -146l-55 -303q-1 -10 -11 -10zM228 120
q58 0 64 38l4 28q2 6 -5 6h-46q-54 0 -54 -44q0 -28 37 -28zM405 541h-122q-12 0 -18 10l-77 143q-2 4 0 7t6 3h149q12 0 15 -10l55 -143q3 -10 -8 -10z" />
    <glyph glyph-name="aacute" unicode="&#xe1;" horiz-adv-x="522" 
d="M436 0h-163q-10 0 -9 10l4 25h-1q-50 -47 -132 -47q-55 0 -91 32.5t-36 86.5q0 94 62 144.5t177 50.5h64q7 0 8 6l3 11q4 21 -12 29t-68 8q-61 0 -104 -25q-9 -4 -12 5l-39 102q-4 9 6 16q77 48 205 48q124 0 173 -43t31 -146l-55 -303q-1 -10 -11 -10zM228 120
q58 0 64 38l4 28q2 6 -5 6h-46q-54 0 -54 -44q0 -28 37 -28zM370 541h-135q-12 0 -4 10l107 143q7 10 19 10h158q5 0 6 -3t-3 -7l-129 -143q-9 -10 -19 -10z" />
    <glyph glyph-name="acircumflex" unicode="&#xe2;" horiz-adv-x="522" 
d="M436 0h-163q-10 0 -9 10l4 25h-1q-50 -47 -132 -47q-55 0 -91 32.5t-36 86.5q0 94 62 144.5t177 50.5h64q7 0 8 6l3 11q4 21 -12 29t-68 8q-61 0 -104 -25q-9 -4 -12 5l-39 102q-4 9 6 16q77 48 205 48q124 0 173 -43t31 -146l-55 -303q-1 -10 -11 -10zM228 120
q58 0 64 38l4 28q2 6 -5 6h-46q-54 0 -54 -44q0 -28 37 -28zM495 539h-104q-14 0 -21 10l-35 46h-2l-52 -46q-10 -10 -25 -10h-113q-5 0 -6 3t3 7l135 143q9 10 20 10h104q12 0 18 -10l84 -143q6 -10 -6 -10z" />
    <glyph glyph-name="atilde" unicode="&#xe3;" horiz-adv-x="522" 
d="M436 0h-163q-10 0 -9 10l4 25h-1q-50 -47 -132 -47q-55 0 -91 32.5t-36 86.5q0 94 62 144.5t177 50.5h64q7 0 8 6l3 11q4 21 -12 29t-68 8q-61 0 -104 -25q-9 -4 -12 5l-39 102q-4 9 6 16q77 48 205 48q124 0 173 -43t31 -146l-55 -303q-1 -10 -11 -10zM228 120
q58 0 64 38l4 28q2 6 -5 6h-46q-54 0 -54 -44q0 -28 37 -28zM388 539q-44 0 -87 25q-31 17 -56 17q-37 0 -83 -33q-4 -3 -8 -1.5t-3 6.5l16 89q3 15 13 23q46 39 90 39q41 0 87 -26q31 -17 56 -17q37 0 83 33q4 3 8 1.5t3 -6.5l-16 -89q-1 -12 -14 -23q-44 -38 -89 -38z" />
    <glyph glyph-name="adieresis" unicode="&#xe4;" horiz-adv-x="522" 
d="M436 0h-163q-10 0 -9 10l4 25h-1q-50 -47 -132 -47q-55 0 -91 32.5t-36 86.5q0 94 62 144.5t177 50.5h64q7 0 8 6l3 11q4 21 -12 29t-68 8q-61 0 -104 -25q-9 -4 -12 5l-39 102q-4 9 6 16q77 48 205 48q124 0 173 -43t31 -146l-55 -303q-1 -10 -11 -10zM228 120
q58 0 64 38l4 28q2 6 -5 6h-46q-54 0 -54 -44q0 -28 37 -28zM475 544h-122q-10 0 -9 10l22 120q1 10 12 10h122q9 0 8 -10l-22 -120q-1 -10 -11 -10zM272 544h-122q-10 0 -9 10l22 120q1 10 12 10h122q9 0 8 -10l-22 -120q-1 -10 -11 -10z" />
    <glyph glyph-name="aring" unicode="&#xe5;" horiz-adv-x="522" 
d="M436 0h-163q-10 0 -9 10l4 25h-1q-50 -47 -132 -47q-55 0 -91 32.5t-36 86.5q0 94 62 144.5t177 50.5h64q7 0 8 6l3 11q4 21 -12 29t-68 8q-61 0 -104 -25q-9 -4 -12 5l-39 102q-4 9 6 16q77 48 205 48q124 0 173 -43t31 -146l-55 -303q-1 -10 -11 -10zM228 120
q58 0 64 38l4 28q2 6 -5 6h-46q-54 0 -54 -44q0 -28 37 -28zM318 516q-46 0 -74.5 25.5t-28.5 68.5q0 61 40 101.5t102 40.5q46 0 74.5 -25.5t28.5 -68.5q0 -61 -40 -101.5t-102 -40.5zM330 591q20 0 33.5 15t13.5 38q0 33 -32 33q-20 0 -33.5 -15t-13.5 -38q0 -33 32 -33z
" />
    <glyph glyph-name="ae" unicode="&#xe6;" horiz-adv-x="797" 
d="M761 192h-277q-5 0 -7 -5q-1 -2 -1 -10q0 -49 78 -49q48 0 110 39q10 6 14 -1l59 -84q6 -8 -2 -16q-90 -78 -228 -78q-50 0 -89.5 18.5t-57.5 46.5h-1q-71 -65 -193 -65q-158 0 -158 129q0 88 63 136.5t176 48.5h64q7 0 8 6l3 11q4 21 -12 29t-68 8q-61 0 -104 -25
q-9 -4 -12 5l-39 102q-4 9 6 16q77 48 205 48q87 0 151 -41h1q58 41 135 41q92 0 147 -46.5t55 -128.5q0 -38 -14 -125q-1 -10 -12 -10zM504 302h98q6 0 7 6q3 10 3 19q0 45 -47 45q-41 0 -59 -37q-5 -9 -7 -27q0 -6 5 -6zM228 120q58 0 64 38l4 28q2 6 -5 6h-46
q-54 0 -54 -44q0 -28 37 -28z" />
    <glyph glyph-name="ccedilla" unicode="&#xe7;" horiz-adv-x="489" 
d="M192 -171h-131q-9 0 -5 10l88 159q-58 17 -90.5 62t-32.5 111q0 103 41 190q68 141 245 141q77 0 127.5 -37t59.5 -95q1 -8 -7 -13l-143 -57q-13 -6 -16 5q-6 23 -15 32.5t-26 9.5q-33 0 -46 -30q-9 -19 -18 -66t-9 -68q0 -40 37 -40q31 0 57 45q6 10 16 6l131 -62
q7 -4 3 -13q-64 -106 -178 -126l-71 -154q-4 -10 -17 -10z" />
    <glyph glyph-name="egrave" unicode="&#xe8;" horiz-adv-x="523" 
d="M233 -12q-98 0 -155 47t-57 136q0 106 41 191q68 140 249 140q92 0 147 -46.5t55 -128.5q0 -38 -14 -125q-1 -10 -12 -10h-277q-5 0 -7 -5q-1 -2 -1 -10q0 -49 78 -49q50 0 109 39q10 6 14 -1l60 -84q7 -8 -2 -16q-93 -78 -228 -78zM230 302h97q5 0 7 6q3 10 3 19
q0 45 -46 45q-41 0 -59 -37q-7 -13 -7 -27q0 -6 5 -6zM387 541h-122q-12 0 -18 10l-77 143q-2 4 0 7t6 3h149q12 0 15 -10l55 -143q3 -10 -8 -10z" />
    <glyph glyph-name="eacute" unicode="&#xe9;" horiz-adv-x="523" 
d="M377 541h-135q-4 0 -5.5 3t1.5 7l107 143q7 10 19 10h158q5 0 6 -3t-3 -7l-129 -143q-9 -10 -19 -10zM233 -12q-98 0 -155 47t-57 136q0 106 41 191q68 140 249 140q92 0 147 -46.5t55 -128.5q0 -38 -14 -125q-1 -10 -12 -10h-277q-5 0 -7 -5q-1 -2 -1 -10q0 -49 78 -49
q50 0 109 39q10 6 14 -1l60 -84q7 -8 -2 -16q-93 -78 -228 -78zM230 302h97q5 0 7 6q3 10 3 19q0 45 -46 45q-41 0 -59 -37q-7 -13 -7 -27q0 -6 5 -6z" />
    <glyph glyph-name="ecircumflex" unicode="&#xea;" horiz-adv-x="523" 
d="M490 539h-104q-14 0 -21 10l-35 46h-2l-52 -46q-10 -10 -25 -10h-113q-5 0 -6 3t3 7l135 143q9 10 20 10h104q12 0 18 -10l84 -143q2 -4 0 -7t-6 -3zM233 -12q-98 0 -155 47t-57 136q0 106 41 191q68 140 249 140q92 0 147 -46.5t55 -128.5q0 -38 -14 -125
q-1 -10 -12 -10h-277q-5 0 -7 -5q-1 -2 -1 -10q0 -49 78 -49q50 0 109 39q10 6 14 -1l60 -84q7 -8 -2 -16q-93 -78 -228 -78zM230 302h97q5 0 7 6q3 10 3 19q0 45 -46 45q-41 0 -59 -37q-7 -13 -7 -27q0 -6 5 -6z" />
    <glyph glyph-name="edieresis" unicode="&#xeb;" horiz-adv-x="523" 
d="M233 -12q-98 0 -155 47t-57 136q0 106 41 191q68 140 249 140q92 0 147 -46.5t55 -128.5q0 -38 -14 -125q-1 -10 -12 -10h-277q-5 0 -7 -5q-1 -2 -1 -10q0 -49 78 -49q50 0 109 39q10 6 14 -1l60 -84q7 -8 -2 -16q-93 -78 -228 -78zM230 302h97q5 0 7 6q3 10 3 19
q0 45 -46 45q-41 0 -59 -37q-7 -13 -7 -27q0 -6 5 -6zM478 544h-122q-10 0 -9 10l22 120q1 10 12 10h122q9 0 8 -10l-22 -120q-1 -10 -11 -10zM275 544h-122q-10 0 -9 10l22 120q1 10 12 10h122q9 0 8 -10l-22 -120q-1 -10 -11 -10z" />
    <glyph glyph-name="igrave" unicode="&#xec;" horiz-adv-x="276" 
d="M191 0h-174q-9 0 -8 10l83 470q1 10 11 10h174q9 0 8 -10l-83 -470q-1 -10 -11 -10zM261 541h-122q-12 0 -18 10l-77 143q-2 4 0 7t6 3h149q12 0 15 -10l55 -143q3 -10 -8 -10z" />
    <glyph glyph-name="iacute" unicode="&#xed;" horiz-adv-x="276" 
d="M263 541h-135q-4 0 -5.5 3t1.5 7l107 143q7 10 19 10h158q5 0 6 -3t-3 -7l-129 -143q-9 -10 -19 -10zM191 0h-174q-9 0 -8 10l83 470q1 10 11 10h174q9 0 8 -10l-83 -470q-1 -10 -11 -10z" />
    <glyph glyph-name="icircumflex" unicode="&#xee;" horiz-adv-x="276" 
d="M191 0h-174q-9 0 -8 10l83 470q1 10 11 10h174q9 0 8 -10l-83 -470q-1 -10 -11 -10zM371 539h-104q-14 0 -21 10l-35 46h-2l-52 -46q-10 -10 -25 -10h-113q-5 0 -6 3t3 7l135 143q9 10 20 10h104q12 0 18 -10l84 -143q6 -10 -6 -10z" />
    <glyph glyph-name="idieresis" unicode="&#xef;" horiz-adv-x="276" 
d="M362 544h-122q-10 0 -9 10l22 120q1 10 12 10h122q9 0 8 -10l-22 -120q-1 -10 -11 -10zM159 544h-122q-10 0 -9 10l22 120q1 10 12 10h122q9 0 8 -10l-22 -120q-1 -10 -11 -10zM191 0h-174q-9 0 -8 10l83 470q1 10 11 10h174q9 0 8 -10l-83 -470q-1 -10 -11 -10z" />
    <glyph glyph-name="eth" unicode="&#xf0;" horiz-adv-x="529" 
d="M483 570l-58 -17l8 -14q78 -145 78 -258q0 -87 -32 -153q-68 -140 -248 -140q-96 0 -150 50.5t-54 138.5q0 75 30 138q59 120 181 120q39 0 63 -18h2l-46 88l-99 -28q-9 -1 -10 7l-9 79q-1 10 8 13l63 18l-39 76q-6 10 6 10h169q12 0 17 -9l15 -29l94 27q9 1 10 -7l9 -79
q1 -10 -8 -13zM254 143q31 0 47 31q17 36 17 75q0 41 -37 41q-31 0 -47 -31q-17 -36 -17 -75q0 -41 37 -41z" />
    <glyph glyph-name="ntilde" unicode="&#xf1;" horiz-adv-x="549" 
d="M464 0h-173q-10 0 -9 10l49 279q10 55 -30 55q-41 0 -50 -54l-49 -280q-1 -10 -11 -10h-174q-9 0 -8 10l83 470q1 10 11 10h173q9 0 8 -10l-6 -38h1q48 60 130 60q157 0 122 -182l-56 -310q-1 -10 -11 -10zM402 539q-44 0 -87 25q-31 17 -56 17q-37 0 -83 -33
q-4 -3 -8 -1.5t-3 6.5l16 89q3 15 13 23q46 39 90 39q41 0 87 -26q31 -17 56 -17q37 0 83 33q4 3 8 1.5t3 -6.5l-16 -89q-1 -12 -14 -23q-44 -38 -89 -38z" />
    <glyph glyph-name="ograve" unicode="&#xf2;" horiz-adv-x="522" 
d="M226 -12q-95 0 -150 49t-55 140q0 104 39 185q69 140 247 140q95 0 150 -49t55 -140q0 -104 -39 -185q-69 -140 -247 -140zM248 143q32 0 47 31q9 18 18 65q9 46 9 67q0 41 -37 41q-32 0 -47 -31q-9 -18 -18 -65t-9 -67q0 -41 37 -41zM383 541h-122q-12 0 -18 10l-77 143
q-2 4 0 7t6 3h149q12 0 15 -10l55 -143q3 -10 -8 -10z" />
    <glyph glyph-name="oacute" unicode="&#xf3;" horiz-adv-x="522" 
d="M226 -12q-95 0 -150 49t-55 140q0 104 39 185q69 140 247 140q95 0 150 -49t55 -140q0 -104 -39 -185q-69 -140 -247 -140zM248 143q32 0 47 31q9 18 18 65q9 46 9 67q0 41 -37 41q-32 0 -47 -31q-9 -18 -18 -65t-9 -67q0 -41 37 -41zM370 541h-135q-12 0 -4 10l107 143
q7 10 19 10h158q5 0 6 -3t-3 -7l-129 -143q-9 -10 -19 -10z" />
    <glyph glyph-name="ocircumflex" unicode="&#xf4;" horiz-adv-x="522" 
d="M226 -12q-95 0 -150 49t-55 140q0 104 39 185q69 140 247 140q95 0 150 -49t55 -140q0 -104 -39 -185q-69 -140 -247 -140zM248 143q32 0 47 31q9 18 18 65q9 46 9 67q0 41 -37 41q-32 0 -47 -31q-9 -18 -18 -65t-9 -67q0 -41 37 -41zM485 539h-104q-14 0 -21 10l-35 46
h-2l-52 -46q-10 -10 -25 -10h-113q-5 0 -6 3t3 7l135 143q9 10 20 10h104q12 0 18 -10l84 -143q6 -10 -6 -10z" />
    <glyph glyph-name="otilde" unicode="&#xf5;" horiz-adv-x="522" 
d="M226 -12q-95 0 -150 49t-55 140q0 104 39 185q69 140 247 140q95 0 150 -49t55 -140q0 -104 -39 -185q-69 -140 -247 -140zM248 143q32 0 47 31q9 18 18 65q9 46 9 67q0 41 -37 41q-32 0 -47 -31q-9 -18 -18 -65t-9 -67q0 -41 37 -41zM374 539q-44 0 -87 25
q-31 17 -56 17q-37 0 -83 -33q-4 -3 -8 -1.5t-3 6.5l16 89q3 15 13 23q46 39 90 39q41 0 87 -26q31 -17 56 -17q37 0 83 33q4 3 8 1.5t3 -6.5l-16 -89q-1 -12 -14 -23q-44 -38 -89 -38z" />
    <glyph glyph-name="odieresis" unicode="&#xf6;" horiz-adv-x="522" 
d="M226 -12q-95 0 -150 49t-55 140q0 104 39 185q69 140 247 140q95 0 150 -49t55 -140q0 -104 -39 -185q-69 -140 -247 -140zM248 143q32 0 47 31q9 18 18 65q9 46 9 67q0 41 -37 41q-32 0 -47 -31q-9 -18 -18 -65t-9 -67q0 -41 37 -41zM471 544h-122q-10 0 -9 10l22 120
q1 10 12 10h122q9 0 8 -10l-22 -120q-1 -10 -11 -10zM268 544h-122q-10 0 -9 10l22 120q1 10 12 10h122q9 0 8 -10l-22 -120q-1 -10 -11 -10z" />
    <glyph glyph-name="divide" unicode="&#xf7;" horiz-adv-x="533" 
d="M279 390q-39 0 -66 27.5t-27 65.5t27 65.5t66 27.5q38 0 65 -27.5t27 -65.5t-27 -65.5t-65 -27.5zM510 197h-462q-10 0 -10 10v138q0 10 10 10h462q10 0 10 -10v-138q0 -10 -10 -10zM279 -24q-39 0 -66 27.5t-27 65.5t27 65.5t66 27.5q38 0 65 -27.5t27 -65.5t-27 -65.5
t-65 -27.5z" />
    <glyph glyph-name="oslash" unicode="&#xf8;" horiz-adv-x="522" 
d="M65 -30h-96q-4 0 -5 3t3 7l83 89q-28 44 -28 108q0 104 39 185q69 140 247 140q64 0 112 -24l28 31q10 10 20 10h95q4 0 5 -3t-3 -7l-81 -88q29 -44 29 -108q0 -104 -39 -185q-69 -140 -247 -140q-64 0 -113 23l-29 -31q-9 -10 -20 -10zM249 143q32 0 47 31q9 18 18 65
q9 46 9 67q0 41 -37 41q-32 0 -47 -31q-9 -18 -18 -65t-9 -67q0 -41 37 -41z" />
    <glyph glyph-name="ugrave" unicode="&#xf9;" horiz-adv-x="547" 
d="M492 0h-173q-9 0 -8 10l6 37h-1q-50 -59 -132 -59q-151 0 -118 183l54 309q1 10 11 10h174q9 0 8 -10l-50 -280q-9 -54 31 -54q41 0 50 54l49 280q1 10 11 10h174q9 0 8 -10l-83 -470q-1 -10 -11 -10zM429 541h-122q-12 0 -18 10l-77 143q-2 4 0 7t6 3h149q12 0 15 -10
l55 -143q3 -10 -8 -10z" />
    <glyph glyph-name="uacute" unicode="&#xfa;" horiz-adv-x="547" 
d="M424 541h-135q-4 0 -5.5 3t1.5 7l107 143q7 10 19 10h158q5 0 6 -3t-3 -7l-129 -143q-9 -10 -19 -10zM492 0h-173q-9 0 -8 10l6 37h-1q-50 -59 -132 -59q-151 0 -118 183l54 309q1 10 11 10h174q9 0 8 -10l-50 -280q-9 -54 31 -54q41 0 50 54l49 280q1 10 11 10h174
q9 0 8 -10l-83 -470q-1 -10 -11 -10z" />
    <glyph glyph-name="ucircumflex" unicode="&#xfb;" horiz-adv-x="547" 
d="M492 0h-173q-9 0 -8 10l6 37h-1q-50 -59 -132 -59q-151 0 -118 183l54 309q1 10 11 10h174q9 0 8 -10l-50 -280q-9 -54 31 -54q41 0 50 54l49 280q1 10 11 10h174q9 0 8 -10l-83 -470q-1 -10 -11 -10zM534 539h-104q-14 0 -21 10l-35 46h-2l-52 -46q-10 -10 -25 -10h-113
q-5 0 -6 3t3 7l135 143q9 10 20 10h104q12 0 18 -10l84 -143q6 -10 -6 -10z" />
    <glyph glyph-name="udieresis" unicode="&#xfc;" horiz-adv-x="547" 
d="M492 0h-173q-9 0 -8 10l6 37h-1q-50 -59 -132 -59q-151 0 -118 183l54 309q1 10 11 10h174q9 0 8 -10l-50 -280q-9 -54 31 -54q41 0 50 54l49 280q1 10 11 10h174q9 0 8 -10l-83 -470q-1 -10 -11 -10zM527 544h-122q-10 0 -9 10l22 120q1 10 12 10h122q9 0 8 -10
l-22 -120q-1 -10 -11 -10zM324 544h-122q-10 0 -9 10l22 120q1 10 12 10h122q9 0 8 -10l-22 -120q-1 -10 -11 -10z" />
    <glyph glyph-name="yacute" unicode="&#xfd;" horiz-adv-x="543" 
d="M70 -180h-40q-9 0 -8 10l24 135q1 10 12 10h27q42 0 60 34l13 27l-104 444q-1 10 8 10h175q10 0 11 -10l34 -216h2l102 216q4 10 15 10h180q11 0 6 -11l-318 -548q-38 -65 -80 -87q-43 -24 -119 -24zM380 541h-135q-12 0 -4 10l107 143q7 10 19 10h158q5 0 6 -3t-3 -7
l-129 -143q-9 -10 -19 -10z" />
    <glyph glyph-name="thorn" unicode="&#xfe;" horiz-adv-x="547" 
d="M318 -12q-85 0 -108 59h-1l-39 -217q-1 -10 -11 -10h-174q-9 0 -8 10l149 840q1 10 10 10h174q10 0 9 -10l-41 -227h1q44 59 129 59q70 0 102 -39.5t32 -119.5q0 -54 -16 -127q-17 -76 -39 -122q-28 -56 -68.5 -81t-100.5 -25zM273 143q31 0 47 31q9 20 16 62q9 47 9 67
q0 44 -37 44q-32 0 -47 -31q-8 -18 -17 -63q-8 -50 -8 -66q0 -44 37 -44z" />
    <glyph glyph-name="ydieresis" unicode="&#xff;" horiz-adv-x="543" 
d="M70 -180h-40q-9 0 -8 10l24 135q1 10 12 10h27q42 0 60 34l13 27l-104 444q-1 10 8 10h175q10 0 11 -10l34 -216h2l102 216q4 10 15 10h180q11 0 6 -11l-318 -548q-38 -65 -80 -87q-43 -24 -119 -24zM501 544h-122q-10 0 -9 10l22 120q1 10 12 10h122q9 0 8 -10l-22 -120
q-1 -10 -11 -10zM298 544h-122q-10 0 -9 10l22 120q1 10 12 10h122q9 0 8 -10l-22 -120q-1 -10 -11 -10z" />
    <glyph glyph-name="Amacron" unicode="&#x100;" horiz-adv-x="691" 
d="M184 0h-201q-10 0 -6 10l346 660q3 10 13 10h197q11 0 11 -10l107 -660q1 -10 -7 -10h-190q-11 0 -12 10l-9 93h-194l-41 -93q-4 -10 -14 -10zM399 458l-85 -189h104l-17 189h-2zM601 751h-312q-9 0 -8 10l18 104q1 10 11 10h312q9 0 8 -10l-18 -104q-1 -10 -11 -10z" />
    <glyph glyph-name="amacron" unicode="&#x101;" horiz-adv-x="522" 
d="M436 0h-163q-10 0 -9 10l4 25h-1q-50 -47 -132 -47q-55 0 -91 32.5t-36 86.5q0 94 62 144.5t177 50.5h64q7 0 8 6l3 11q4 21 -12 29t-68 8q-61 0 -104 -25q-9 -4 -12 5l-39 102q-4 9 6 16q77 48 205 48q124 0 173 -43t31 -146l-55 -303q-1 -10 -11 -10zM228 120
q58 0 64 38l4 28q2 6 -5 6h-46q-54 0 -54 -44q0 -28 37 -28zM470 552h-312q-9 0 -8 10l18 104q1 10 11 10h312q9 0 8 -10l-18 -104q-1 -10 -11 -10z" />
    <glyph glyph-name="Abreve" unicode="&#x102;" horiz-adv-x="691" 
d="M184 0h-201q-10 0 -6 10l346 660q3 10 13 10h197q11 0 11 -10l107 -660q1 -10 -7 -10h-190q-11 0 -12 10l-9 93h-194l-41 -93q-4 -10 -14 -10zM399 458l-85 -189h104l-17 189h-2zM443 724q-69 0 -109 42.5t-32 105.5q1 13 15 13h72q12 0 15 -11q9 -38 56 -38t71 38
q8 11 19 11h71q13 0 11 -12q-11 -63 -66 -106t-123 -43z" />
    <glyph glyph-name="abreve" unicode="&#x103;" horiz-adv-x="522" 
d="M436 0h-163q-10 0 -9 10l4 25h-1q-50 -47 -132 -47q-55 0 -91 32.5t-36 86.5q0 94 62 144.5t177 50.5h64q7 0 8 6l3 11q4 21 -12 29t-68 8q-61 0 -104 -25q-9 -4 -12 5l-39 102q-4 9 6 16q77 48 205 48q124 0 173 -43t31 -146l-55 -303q-1 -10 -11 -10zM228 120
q58 0 64 38l4 28q2 6 -5 6h-46q-54 0 -54 -44q0 -28 37 -28zM312 531q-69 0 -109 42.5t-32 106.5q1 13 15 13h72q12 0 15 -11q9 -38 56 -38t71 38q8 11 19 11h71q12 0 11 -12q-11 -63 -66 -106q-56 -44 -123 -44z" />
    <glyph glyph-name="Aogonek" unicode="&#x104;" horiz-adv-x="691" 
d="M503 -191q-47 0 -73.5 23t-26.5 60q0 60 64 108h-13q-11 0 -12 10l-9 93h-194l-41 -93q-4 -10 -14 -10h-201q-10 0 -6 10l346 660q3 10 13 10h197q11 0 11 -10l107 -660q2 -8 -7 -11q-99 -34 -99 -59q0 -9 10 -9q11 0 24 9q10 6 13 -3l31 -80q3 -9 -6 -14
q-59 -34 -114 -34zM401 458h-2l-85 -189h104z" />
    <glyph glyph-name="aogonek" unicode="&#x105;" horiz-adv-x="522" 
d="M296 -191q-47 0 -73.5 23t-26.5 60q0 62 79 108h-3q-9 0 -8 10l4 25h-1q-50 -47 -132 -47q-55 0 -91 32.5t-36 86.5q0 94 62 144.5t177 50.5h64q7 0 8 6l3 11q4 21 -12 29t-68 8q-61 0 -104 -25q-9 -4 -12 5l-39 102q-4 9 6 16q77 48 205 48q124 0 173 -43t31 -146
l-55 -301q-2 -9 -11 -12q-61 -24 -79.5 -36t-18.5 -24q0 -9 10 -9t24 9q10 6 13 -3l31 -80q3 -9 -6 -14q-59 -34 -114 -34zM228 120q58 0 64 38l4 28q2 6 -5 6h-46q-54 0 -54 -44q0 -28 37 -28z" />
    <glyph glyph-name="Cacute" unicode="&#x106;" horiz-adv-x="545" 
d="M34 207q0 63 18 163q20 105 47 160q79 162 273 162q182 0 218 -162q3 -10 -7 -14l-160 -62q-12 -4 -15 6q-11 53 -57 53q-45 0 -69 -49q-13 -28 -29 -112t-16 -125q0 -27 14 -43.5t39 -16.5q42 0 75 55q6 12 15 7l142 -82q8 -6 3 -15q-46 -75 -109 -109.5t-154 -34.5
q-104 0 -166 58t-62 161zM437 739h-132q-12 0 -4 10l130 131q10 10 22 10h158q5 0 6.5 -3t-2.5 -7l-153 -131q-10 -10 -25 -10z" />
    <glyph glyph-name="cacute" unicode="&#x107;" horiz-adv-x="489" 
d="M361 541h-135q-4 0 -5.5 3t1.5 7l107 143q7 10 19 10h158q5 0 6 -3t-3 -7l-129 -143q-9 -10 -19 -10zM216 -12q-88 0 -141.5 49t-53.5 134q0 103 41 190q68 141 245 141q77 0 127.5 -37t59.5 -95q1 -8 -7 -13l-143 -57q-13 -6 -16 5q-6 23 -15 32.5t-26 9.5
q-33 0 -46 -30q-9 -19 -18 -66t-9 -68q0 -40 37 -40q31 0 57 45q6 10 16 6l131 -62q7 -4 3 -13q-42 -67 -100 -99t-142 -32z" />
    <glyph glyph-name="Ccircumflex" unicode="&#x108;" horiz-adv-x="545" 
d="M34 207q0 63 18 163q20 105 47 160q79 162 273 162q182 0 218 -162q3 -10 -7 -14l-160 -62q-12 -4 -15 6q-11 53 -57 53q-45 0 -69 -49q-13 -28 -29 -112t-16 -125q0 -27 14 -43.5t39 -16.5q42 0 75 55q6 12 15 7l142 -82q8 -6 3 -15q-46 -75 -109 -109.5t-154 -34.5
q-104 0 -166 58t-62 161zM559 735h-104q-14 0 -21 10l-35 46h-2l-52 -46q-10 -10 -25 -10h-113q-5 0 -6 3t3 7l135 143q9 10 20 10h104q12 0 18 -10l84 -143q6 -10 -6 -10z" />
    <glyph glyph-name="ccircumflex" unicode="&#x109;" horiz-adv-x="489" 
d="M216 -12q-88 0 -141.5 49t-53.5 134q0 103 41 190q68 141 245 141q77 0 127.5 -37t59.5 -95q1 -8 -7 -13l-143 -57q-13 -6 -16 5q-6 23 -15 32.5t-26 9.5q-33 0 -46 -30q-9 -19 -18 -66t-9 -68q0 -40 37 -40q31 0 57 45q6 10 16 6l131 -62q7 -4 3 -13q-42 -67 -100 -99
t-142 -32zM491 539h-104q-14 0 -21 10l-35 46h-2l-52 -46q-10 -10 -25 -10h-113q-5 0 -6 3t3 7l135 143q9 10 20 10h104q12 0 18 -10l84 -143q6 -10 -6 -10z" />
    <glyph glyph-name="Cdotaccent" unicode="&#x10a;" horiz-adv-x="545" 
d="M34 207q0 63 18 163q20 105 47 160q79 162 273 162q182 0 218 -162q3 -10 -7 -14l-160 -62q-12 -4 -15 6q-11 53 -57 53q-45 0 -69 -49q-13 -28 -29 -112t-16 -125q0 -27 14 -43.5t39 -16.5q42 0 75 55q6 12 15 7l142 -82q8 -6 3 -15q-46 -75 -109 -109.5t-154 -34.5
q-104 0 -166 58t-62 161zM448 742h-158q-9 0 -8 10l21 120q1 10 12 10h157q9 0 8 -10l-21 -120q-1 -10 -11 -10z" />
    <glyph glyph-name="cdotaccent" unicode="&#x10b;" horiz-adv-x="489" 
d="M216 -12q-88 0 -141.5 49t-53.5 134q0 103 41 190q68 141 245 141q77 0 127.5 -37t59.5 -95q1 -8 -7 -13l-143 -57q-13 -6 -16 5q-6 23 -15 32.5t-26 9.5q-33 0 -46 -30q-9 -19 -18 -66t-9 -68q0 -40 37 -40q31 0 57 45q6 10 16 6l131 -62q7 -4 3 -13q-42 -67 -100 -99
t-142 -32zM379 540h-158q-9 0 -8 10l21 120q1 10 11 10h158q9 0 8 -10l-21 -120q-1 -10 -11 -10z" />
    <glyph glyph-name="Ccaron" unicode="&#x10c;" horiz-adv-x="545" 
d="M34 207q0 63 18 163q20 105 47 160q79 162 273 162q182 0 218 -162q3 -10 -7 -14l-160 -62q-12 -4 -15 6q-11 53 -57 53q-45 0 -69 -49q-13 -28 -29 -112t-16 -125q0 -27 14 -43.5t39 -16.5q42 0 75 55q6 12 15 7l142 -82q8 -6 3 -15q-46 -75 -109 -109.5t-154 -34.5
q-104 0 -166 58t-62 161zM426 727h-103q-13 0 -19 10l-84 143q-2 4 0 7t6 3h104q14 0 21 -10l35 -45h2l52 45q10 10 25 10h113q5 0 6 -3t-3 -7l-135 -143q-9 -10 -20 -10z" />
    <glyph glyph-name="ccaron" unicode="&#x10d;" horiz-adv-x="489" 
d="M361 535h-104q-12 0 -18 10l-84 143q-2 4 0 7t6 3h104q14 0 21 -10l35 -45h2l52 45q10 10 25 10h113q5 0 6 -3t-3 -7l-135 -143q-9 -10 -20 -10zM216 -12q-88 0 -141.5 49t-53.5 134q0 103 41 190q68 141 245 141q77 0 127.5 -37t59.5 -95q1 -8 -7 -13l-143 -57
q-13 -6 -16 5q-6 23 -15 32.5t-26 9.5q-33 0 -46 -30q-9 -19 -18 -66t-9 -68q0 -40 37 -40q31 0 57 45q6 10 16 6l131 -62q7 -4 3 -13q-42 -67 -100 -99t-142 -32z" />
    <glyph glyph-name="Dcaron" unicode="&#x10e;" horiz-adv-x="616" 
d="M11 10l117 660q1 10 10 10h265q218 0 218 -205q0 -67 -19 -165q-18 -97 -44 -153q-76 -157 -274 -157h-265q-9 0 -8 10zM248 179h28q40 0 61.5 11.5t37.5 42.5q12 23 26 95q13 65 13 99q0 40 -19 57t-65 17h-25q-5 0 -6 -6l-55 -310q-2 -6 4 -6zM424 727h-103
q-13 0 -19 10l-84 143q-2 4 0 7t6 3h104q14 0 21 -10l35 -45h2l52 45q10 10 25 10h113q5 0 6 -3t-3 -7l-135 -143q-9 -10 -20 -10z" />
    <glyph glyph-name="dcaron" unicode="&#x10f;" horiz-adv-x="547" 
d="M459 0h-173q-9 0 -8 10l6 37h-1q-44 -59 -129 -59q-70 0 -102.5 39.5t-32.5 119.5q0 55 16 126q17 76 39 122q52 106 169 106q86 0 109 -59h1l42 228q1 10 10 10h173q10 0 9 -10l-117 -660q-1 -10 -11 -10zM253 142q32 0 48 31q9 20 16 62q9 47 9 67q0 44 -37 44
q-32 0 -47 -31q-8 -18 -17 -63q-8 -50 -8 -66q0 -44 36 -44zM600 459q-11 0 -10 13l34 198q1 10 11 10h121q10 0 9 -10l-19 -104q-3 -14 -14 -22l-115 -77q-11 -8 -17 -8z" />
    <glyph glyph-name="Dcroat" unicode="&#x110;" horiz-adv-x="616" 
d="M284 0h-265q-9 0 -8 10l46 262q1 6 -5 6h-25q-9 0 -8 10l19 111q1 10 12 10h25q5 0 7 6l46 255q1 10 10 10h265q218 0 218 -205q0 -67 -19 -165q-18 -97 -44 -153q-76 -157 -274 -157zM248 179h28q40 0 61.5 11.5t37.5 42.5q12 23 26 95q13 65 13 99q0 40 -19 57t-65 17
h-25q-5 0 -6 -6l-14 -80q-1 -6 4 -6h53q9 0 8 -10l-19 -111q-1 -10 -11 -10h-54q-6 0 -7 -6l-15 -87q-2 -6 4 -6z" />
    <glyph glyph-name="dslash" unicode="&#x111;" horiz-adv-x="547" 
d="M459 0h-173q-9 0 -8 10l6 37h-1q-44 -59 -129 -59q-70 0 -102.5 39.5t-32.5 119.5q0 55 16 126q17 76 39 122q28 56 68.5 81t100.5 25q86 0 109 -59h1l16 90q1 6 -5 6h-85q-8 0 -7 10l16 86q1 10 11 10h85q6 0 7 6l4 20q1 10 10 10h173q10 0 9 -10l-4 -20q-1 -6 5 -6h22
q9 0 8 -10l-16 -86q-1 -10 -11 -10h-22q-5 0 -7 -6l-92 -522q-1 -10 -11 -10zM253 142q32 0 47 31q9 19 17 62q9 47 9 67q0 44 -37 44q-32 0 -47 -31q-8 -18 -17 -63q-8 -50 -8 -66q0 -44 36 -44z" />
    <glyph glyph-name="Emacron" unicode="&#x112;" horiz-adv-x="533" 
d="M11 10l117 660q1 10 10 10h442q9 0 8 -10l-27 -148q-1 -10 -10 -10h-246q-6 0 -6 -6l-13 -75q-2 -6 4 -6h196q9 0 8 -10l-25 -144q-1 -10 -12 -10h-196q-5 0 -6 -6l-15 -81q0 -6 5 -6h244q9 0 8 -10l-26 -148q-1 -10 -11 -10h-441q-9 0 -8 10zM522 751h-312q-9 0 -8 10
l18 104q1 10 11 10h312q9 0 8 -10l-18 -104q-1 -10 -11 -10z" />
    <glyph glyph-name="emacron" unicode="&#x113;" horiz-adv-x="523" 
d="M233 -12q-98 0 -155 47t-57 136q0 106 41 191q68 140 249 140q92 0 147 -46.5t55 -128.5q0 -38 -14 -125q-1 -10 -12 -10h-277q-5 0 -7 -5q-1 -2 -1 -10q0 -49 78 -49q50 0 109 39q10 6 14 -1l60 -84q7 -8 -2 -16q-93 -78 -228 -78zM230 302h97q5 0 7 6q3 10 3 19
q0 45 -46 45q-41 0 -59 -37q-7 -13 -7 -27q0 -6 5 -6zM465 552h-312q-9 0 -8 10l18 104q1 10 11 10h312q9 0 8 -10l-18 -104q-1 -10 -11 -10z" />
    <glyph glyph-name="Ebreve" unicode="&#x114;" horiz-adv-x="533" 
d="M11 10l117 660q1 10 10 10h442q9 0 8 -10l-27 -148q-1 -10 -10 -10h-246q-6 0 -6 -6l-13 -75q-2 -6 4 -6h196q9 0 8 -10l-25 -144q-1 -10 -12 -10h-196q-5 0 -6 -6l-15 -81q0 -6 5 -6h244q9 0 8 -10l-26 -148q-1 -10 -11 -10h-441q-9 0 -8 10zM358 724q-69 0 -109 42.5
t-32 105.5q1 13 15 13h72q12 0 15 -11q9 -38 56 -38t71 38q8 11 19 11h71q12 0 11 -12q-11 -63 -66 -106t-123 -43z" />
    <glyph glyph-name="ebreve" unicode="&#x115;" horiz-adv-x="523" 
d="M233 -12q-98 0 -155 47t-57 136q0 106 41 191q68 140 249 140q92 0 147 -46.5t55 -128.5q0 -38 -14 -125q-1 -10 -12 -10h-277q-5 0 -7 -5q-1 -2 -1 -10q0 -49 78 -49q50 0 109 39q10 6 14 -1l60 -84q7 -8 -2 -16q-93 -78 -228 -78zM230 302h97q5 0 7 6q3 10 3 19
q0 45 -46 45q-41 0 -59 -37q-7 -13 -7 -27q0 -6 5 -6zM312 531q-69 0 -109 42.5t-32 106.5q1 13 15 13h72q12 0 15 -11q9 -38 56 -38t71 38q8 11 19 11h71q12 0 11 -12q-11 -63 -66 -106q-56 -44 -123 -44z" />
    <glyph glyph-name="Edotaccent" unicode="&#x116;" horiz-adv-x="533" 
d="M11 10l117 660q1 10 10 10h442q9 0 8 -10l-27 -148q-1 -10 -10 -10h-246q-6 0 -6 -6l-13 -75q-2 -6 4 -6h196q9 0 8 -10l-25 -144q-1 -10 -12 -10h-196q-5 0 -6 -6l-15 -81q0 -6 5 -6h244q9 0 8 -10l-26 -148q-1 -10 -11 -10h-441q-9 0 -8 10zM447 742h-158q-9 0 -8 10
l21 120q1 10 12 10h157q9 0 8 -10l-21 -120q-1 -10 -11 -10z" />
    <glyph glyph-name="edotaccent" unicode="&#x117;" horiz-adv-x="523" 
d="M233 -12q-98 0 -155 47t-57 136q0 106 41 191q68 140 249 140q92 0 147 -46.5t55 -128.5q0 -38 -14 -125q-1 -10 -12 -10h-277q-5 0 -7 -5q-1 -2 -1 -10q0 -49 78 -49q50 0 109 39q10 6 14 -1l60 -84q7 -8 -2 -16q-93 -78 -228 -78zM230 302h97q5 0 7 6q3 10 3 19
q0 45 -46 45q-41 0 -59 -37q-7 -13 -7 -27q0 -6 5 -6zM390 540h-158q-9 0 -8 10l21 120q1 10 11 10h158q9 0 8 -10l-21 -120q-1 -10 -11 -10z" />
    <glyph glyph-name="Eogonek" unicode="&#x118;" horiz-adv-x="533" 
d="M312 -191q-47 0 -73.5 23t-26.5 60q0 60 63 108h-256q-9 0 -8 10l117 660q1 10 10 10h442q9 0 8 -10l-27 -148q-1 -10 -10 -10h-246q-6 0 -6 -6l-13 -75q-2 -6 4 -6h196q9 0 8 -10l-25 -144q-1 -10 -12 -10h-196q-5 0 -6 -6l-15 -81q0 -6 5 -6h244q9 0 8 -10l-26 -148
q-1 -10 -11 -10h-13q-55 -23 -74 -35.5t-19 -24.5q0 -9 10 -9t24 9q10 6 13 -3l31 -80q3 -9 -6 -14q-59 -34 -114 -34z" />
    <glyph glyph-name="eogonek" unicode="&#x119;" horiz-adv-x="523" 
d="M202 177q0 -49 78 -49q50 0 109 39q10 6 14 -1l60 -84q7 -8 -2 -16q-21 -19 -56 -39q-94 -57 -94 -87q0 -9 10 -9q11 0 24 9q10 6 13 -3l31 -80q3 -9 -6 -14q-59 -34 -114 -34q-47 0 -73.5 23t-26.5 60q0 50 49 96q-92 3 -144.5 50t-52.5 133q0 106 41 191
q68 140 249 140q92 0 147 -46.5t55 -128.5q0 -38 -14 -125q-1 -10 -12 -10h-277q-5 0 -7 -5q-1 -2 -1 -10zM230 302h97q5 0 7 6q3 10 3 19q0 45 -46 45q-41 0 -59 -37q-7 -13 -7 -27q0 -6 5 -6z" />
    <glyph glyph-name="Ecaron" unicode="&#x11a;" horiz-adv-x="533" 
d="M413 727h-103q-13 0 -19 10l-84 143q-6 10 6 10h104q14 0 21 -10l35 -45h2l52 45q10 10 25 10h113q5 0 6 -3t-3 -7l-135 -143q-9 -10 -20 -10zM11 10l117 660q1 10 10 10h442q9 0 8 -10l-27 -148q-1 -10 -10 -10h-246q-6 0 -6 -6l-13 -75q-2 -6 4 -6h196q9 0 8 -10
l-25 -144q-1 -10 -12 -10h-196q-5 0 -6 -6l-15 -81q0 -6 5 -6h244q9 0 8 -10l-26 -148q-1 -10 -11 -10h-441q-9 0 -8 10z" />
    <glyph glyph-name="ecaron" unicode="&#x11b;" horiz-adv-x="523" 
d="M364 535h-104q-12 0 -18 10l-84 143q-2 4 0 7t6 3h104q14 0 21 -10l35 -45h2l52 45q10 10 25 10h113q5 0 6 -3t-3 -7l-135 -143q-9 -10 -20 -10zM233 -12q-98 0 -155 47t-57 136q0 106 41 191q68 140 249 140q92 0 147 -46.5t55 -128.5q0 -38 -14 -125q-1 -10 -12 -10
h-277q-5 0 -7 -5q-1 -2 -1 -10q0 -49 78 -49q50 0 109 39q10 6 14 -1l60 -84q7 -8 -2 -16q-93 -78 -228 -78zM230 302h97q5 0 7 6q3 10 3 19q0 45 -46 45q-41 0 -59 -37q-7 -13 -7 -27q0 -6 5 -6z" />
    <glyph glyph-name="Gcircumflex" unicode="&#x11c;" horiz-adv-x="600" 
d="M38 208q0 63 19 164t46 158q79 162 278 162q176 0 225 -146q5 -12 -8 -17l-159 -61q-13 -5 -17 5q-19 40 -63 40q-51 0 -73 -49q-12 -26 -28 -111q-17 -91 -17 -126q0 -28 15.5 -44t45.5 -16q56 0 77 41q5 9 6 24q0 6 -6 6h-50q-8 0 -7 10l23 126q1 10 11 10h245
q8 0 7 -10l-8 -46q-23 -127 -52 -182q-42 -82 -107.5 -120t-163.5 -38q-112 0 -175.5 57t-63.5 163zM563 735h-104q-14 0 -21 10l-35 46h-2l-52 -46q-10 -10 -25 -10h-113q-5 0 -6 3t3 7l135 143q9 10 20 10h104q12 0 18 -10l84 -143q6 -10 -6 -10z" />
    <glyph glyph-name="gcircumflex" unicode="&#x11d;" horiz-adv-x="539" 
d="M505 539h-104q-14 0 -21 10l-35 46h-2l-52 -46q-10 -10 -25 -10h-113q-5 0 -6 3t3 7l135 143q9 10 20 10h104q12 0 18 -10l84 -143q2 -4 0 -7t-6 -3zM185 -192q-63 0 -116 24t-78 63q-5 8 4 15l105 88q8 8 16 1q39 -36 81 -36q39 0 60 21t30 71l7 36h-1q-43 -58 -128 -58
q-135 0 -135 151q0 51 12 111q12 58 32 99q52 108 170 108q39 0 68.5 -16.5t40.5 -43.5h1l7 38q1 10 12 10h170q9 0 8 -10l-64 -392q-27 -152 -100 -216q-71 -64 -202 -64zM260 184q31 0 48 32q19 34 19 88q0 43 -37 43q-33 0 -48 -32q-18 -36 -18 -88q0 -43 36 -43z" />
    <glyph glyph-name="Gbreve" unicode="&#x11e;" horiz-adv-x="600" 
d="M381 724q-69 0 -109 42.5t-32 105.5q1 13 15 13h72q12 0 15 -11q11 -38 56 -38q47 0 71 38q8 11 19 11h71q13 0 11 -12q-11 -63 -66 -106t-123 -43zM38 208q0 63 19 164t46 158q79 162 278 162q176 0 225 -146q5 -12 -8 -17l-159 -61q-13 -5 -17 5q-19 40 -63 40
q-51 0 -73 -49q-12 -26 -28 -111q-17 -91 -17 -126q0 -28 15.5 -44t45.5 -16q56 0 77 41q5 9 6 24q0 6 -6 6h-50q-8 0 -7 10l23 126q1 10 11 10h245q8 0 7 -10l-8 -46q-23 -127 -52 -182q-42 -82 -107.5 -120t-163.5 -38q-112 0 -175.5 57t-63.5 163z" />
    <glyph glyph-name="gbreve" unicode="&#x11f;" horiz-adv-x="539" 
d="M185 -192q-63 0 -116 24t-78 63q-5 8 4 15l105 88q8 8 16 1q39 -36 81 -36q39 0 60 21t30 71l7 36h-1q-43 -58 -128 -58q-135 0 -135 151q0 51 12 111q12 58 32 99q52 108 170 108q39 0 68.5 -16.5t40.5 -43.5h1l7 38q1 10 12 10h170q9 0 8 -10l-64 -392
q-27 -152 -100 -216q-71 -64 -202 -64zM260 184q31 0 48 32q19 34 19 88q0 43 -37 43q-33 0 -48 -32q-18 -36 -18 -88q0 -43 36 -43zM320 531q-69 0 -109 42.5t-32 106.5q1 13 15 13h72q12 0 15 -11q11 -38 56 -38q47 0 71 38q8 11 19 11h71q12 0 11 -12q-11 -63 -66 -106
q-56 -44 -123 -44z" />
    <glyph glyph-name="Gdotaccent" unicode="&#x120;" horiz-adv-x="600" 
d="M38 208q0 63 19 164t46 158q79 162 278 162q176 0 225 -146q5 -12 -8 -17l-159 -61q-13 -5 -17 5q-19 40 -63 40q-51 0 -73 -49q-12 -26 -28 -111q-17 -91 -17 -126q0 -28 15.5 -44t45.5 -16q56 0 77 41q5 9 6 24q0 6 -6 6h-50q-8 0 -7 10l23 126q1 10 11 10h245
q8 0 7 -10l-8 -46q-23 -127 -52 -182q-42 -82 -107.5 -120t-163.5 -38q-112 0 -175.5 57t-63.5 163zM462 742h-158q-9 0 -8 10l21 120q1 10 12 10h157q9 0 8 -10l-21 -120q-1 -10 -11 -10z" />
    <glyph glyph-name="gdotaccent" unicode="&#x121;" horiz-adv-x="539" 
d="M185 -192q-63 0 -116 24t-78 63q-5 8 4 15l105 88q8 8 16 1q39 -36 81 -36q39 0 60 21t30 71l7 36h-1q-43 -58 -128 -58q-135 0 -135 151q0 51 12 111q12 58 32 99q52 108 170 108q39 0 68.5 -16.5t40.5 -43.5h1l7 38q1 10 12 10h170q9 0 8 -10l-64 -392
q-27 -152 -100 -216q-71 -64 -202 -64zM260 184q31 0 48 32q19 34 19 88q0 43 -37 43q-33 0 -48 -32q-18 -36 -18 -88q0 -43 36 -43zM404 540h-158q-9 0 -8 10l21 120q1 10 11 10h158q9 0 8 -10l-21 -120q-1 -10 -11 -10z" />
    <glyph glyph-name="Gcommaaccent" unicode="&#x122;" horiz-adv-x="600" 
d="M156 -255q-12 0 -10 12l34 192q1 10 11 10h136q10 0 9 -10l-17 -98q-1 -15 -14 -23l-131 -75q-14 -8 -18 -8zM38 208q0 63 19 164t46 158q79 162 278 162q176 0 225 -146q5 -12 -8 -17l-159 -61q-13 -5 -17 5q-19 40 -63 40q-51 0 -73 -49q-12 -26 -28 -111
q-17 -91 -17 -126q0 -28 15.5 -44t45.5 -16q56 0 77 41q5 9 6 24q0 6 -6 6h-50q-8 0 -7 10l23 126q1 10 11 10h245q8 0 7 -10l-8 -46q-23 -127 -52 -182q-42 -82 -107.5 -120t-163.5 -38q-112 0 -175.5 57t-63.5 163z" />
    <glyph glyph-name="gcommaaccent" unicode="&#x123;" horiz-adv-x="539" 
d="M185 -192q-63 0 -116 24t-78 63q-5 8 4 15l105 88q8 8 16 1q39 -36 81 -36q39 0 60 21t30 71l7 36h-1q-43 -58 -128 -58q-135 0 -135 151q0 51 12 111q12 58 32 99q52 108 170 108q39 0 68.5 -16.5t40.5 -43.5h1l7 38q1 10 12 10h170q9 0 8 -10l-64 -392
q-27 -152 -100 -216q-71 -64 -202 -64zM260 184q31 0 48 32q19 34 19 88q0 43 -37 43q-33 0 -48 -32q-18 -36 -18 -88q0 -43 36 -43zM388 538h-136q-9 0 -8 10l16 97q3 15 15 23l130 76q14 8 18 8q11 0 10 -13l-33 -191q-1 -10 -12 -10z" />
    <glyph glyph-name="Hcircumflex" unicode="&#x124;" horiz-adv-x="641" 
d="M11 10l117 660q1 10 11 10h182q10 0 9 -10l-40 -229q-2 -6 4 -6h138q6 0 7 6l41 229q1 10 11 10h182q10 0 9 -10l-117 -660q-1 -10 -11 -10h-182q-10 0 -9 10l42 240q1 6 -5 6h-138q-4 0 -6 -6l-43 -240q-1 -10 -11 -10h-182q-10 0 -9 10zM590 735h-104q-14 0 -21 10
l-35 46h-2l-52 -46q-10 -10 -25 -10h-113q-5 0 -6 3t3 7l135 143q9 10 20 10h104q12 0 18 -10l84 -143q2 -4 0 -7t-6 -3z" />
    <glyph glyph-name="hcircumflex" unicode="&#x125;" horiz-adv-x="549" 
d="M464 0h-173q-10 0 -9 10l49 279q10 55 -30 55q-41 0 -50 -54l-49 -280q-1 -10 -11 -10h-174q-9 0 -8 10l116 660q1 10 11 10h174q9 0 8 -10l-40 -228h1q48 60 130 60q157 0 122 -183l-56 -309q-1 -10 -11 -10zM554 735h-104q-14 0 -21 10l-35 46h-2l-52 -46
q-10 -10 -25 -10h-113q-5 0 -6 3t3 7l135 143q9 10 20 10h104q12 0 18 -10l84 -143q2 -4 0 -7t-6 -3z" />
    <glyph glyph-name="Hbar" unicode="&#x126;" horiz-adv-x="641" 
d="M554 0h-182q-10 0 -9 10l42 240q1 6 -5 6h-138q-4 0 -6 -6l-43 -240q-1 -10 -11 -10h-182q-10 0 -9 10l87 491q2 6 -5 6h-27q-10 0 -9 10l16 86q1 10 11 10h27q7 0 8 6l9 51q1 10 11 10h182q10 0 9 -10l-9 -51q-1 -6 4 -6h139q6 0 7 6l9 51q1 10 11 10h182q10 0 9 -10
l-8 -51q-2 -6 5 -6h24q8 0 7 -10l-15 -86q-1 -10 -10 -10h-26q-5 0 -7 -6l-87 -491q-1 -10 -11 -10zM294 435h138q6 0 7 6l10 60q1 6 -5 6h-137q-5 0 -7 -6l-10 -60q-2 -6 4 -6z" />
    <glyph glyph-name="hbar" unicode="&#x127;" horiz-adv-x="549" 
d="M464 0h-173q-10 0 -9 10l49 279q10 55 -30 55q-41 0 -50 -54l-49 -280q-1 -10 -11 -10h-174q-9 0 -8 10l91 522q2 6 -5 6h-23q-8 0 -7 10l16 86q1 10 11 10h22q6 0 7 6l4 20q1 10 11 10h174q9 0 8 -10l-4 -20q-2 -6 5 -6h84q9 0 8 -10l-16 -86q-1 -10 -11 -10h-83
q-5 0 -7 -6l-16 -90h1q48 60 130 60q157 0 122 -183l-56 -309q-1 -10 -11 -10z" />
    <glyph glyph-name="Itilde" unicode="&#x128;" horiz-adv-x="289" 
d="M319 733q-44 0 -87 25q-31 17 -56 17q-36 0 -83 -33q-4 -3 -8 -1.5t-3 6.5l16 89q3 15 13 23q47 39 90 39q41 0 87 -26q31 -17 56 -17q36 0 83 33q4 3 8 1.5t3 -6.5l-16 -89q-1 -12 -14 -23q-44 -38 -89 -38zM11 10l117 660q1 10 11 10h182q10 0 9 -10l-117 -660
q-1 -10 -11 -10h-182q-10 0 -9 10z" />
    <glyph glyph-name="itilde" unicode="&#x129;" horiz-adv-x="276" 
d="M274 539q-44 0 -87 25q-31 17 -56 17q-37 0 -83 -33q-4 -3 -8 -1.5t-3 6.5l16 89q3 15 13 23q46 39 90 39q41 0 87 -26q31 -17 56 -17q37 0 83 33q4 3 8 1.5t3 -6.5l-16 -89q-1 -12 -14 -23q-44 -38 -89 -38zM191 0h-174q-9 0 -8 10l83 470q1 10 11 10h174q9 0 8 -10
l-83 -470q-1 -10 -11 -10z" />
    <glyph glyph-name="Imacron" unicode="&#x12a;" horiz-adv-x="289" 
d="M11 10l117 660q1 10 11 10h182q10 0 9 -10l-117 -660q-1 -10 -11 -10h-182q-10 0 -9 10zM392 751h-312q-9 0 -8 10l18 104q1 10 11 10h312q9 0 8 -10l-18 -104q-1 -10 -11 -10z" />
    <glyph glyph-name="imacron" unicode="&#x12b;" horiz-adv-x="276" 
d="M191 0h-174q-9 0 -8 10l83 470q1 10 11 10h174q9 0 8 -10l-83 -470q-1 -10 -11 -10zM351 552h-312q-9 0 -8 10l18 104q1 10 11 10h312q9 0 8 -10l-18 -104q-1 -10 -11 -10z" />
    <glyph glyph-name="Ibreve" unicode="&#x12c;" horiz-adv-x="289" 
d="M11 10l117 660q1 10 11 10h182q10 0 9 -10l-117 -660q-1 -10 -11 -10h-182q-10 0 -9 10zM239 724q-69 0 -109 42.5t-32 105.5q1 13 15 13h72q12 0 15 -11q11 -38 56 -38q47 0 71 38q8 11 19 11h71q13 0 11 -12q-11 -63 -66 -106t-123 -43z" />
    <glyph glyph-name="ibreve" unicode="&#x12d;" horiz-adv-x="276" 
d="M191 0h-174q-9 0 -8 10l83 470q1 10 11 10h174q9 0 8 -10l-83 -470q-1 -10 -11 -10zM193 531q-69 0 -109 42.5t-32 106.5q1 13 15 13h72q12 0 15 -11q11 -38 56 -38q47 0 71 38q8 11 19 11h71q13 0 11 -12q-11 -63 -66 -106q-56 -44 -123 -44z" />
    <glyph glyph-name="Iogonek" unicode="&#x12e;" horiz-adv-x="289" 
d="M67 -191q-47 0 -73.5 23t-26.5 60q0 60 63 108h-12q-10 0 -9 10l117 660q1 10 11 10h182q10 0 9 -10l-117 -659q-2 -8 -9 -11q-55 -23 -74 -35.5t-19 -24.5q0 -9 10 -9q11 0 24 9q10 6 13 -3l31 -80q3 -9 -6 -14q-59 -34 -114 -34z" />
    <glyph glyph-name="iogonek" unicode="&#x12f;" horiz-adv-x="276" 
d="M284 540h-174q-9 0 -8 10l21 120q1 10 11 10h174q9 0 8 -10l-21 -120q-1 -10 -11 -10zM60 -191q-47 0 -73.5 23t-26.5 60q0 60 63 108h-9q-8 0 -7 10l83 470q1 10 11 10h174q9 0 8 -10l-83 -470q-2 -9 -13 -13q-85 -33 -85 -57q0 -9 10 -9t24 9q10 6 13 -3l31 -80
q3 -9 -6 -14q-59 -34 -114 -34z" />
    <glyph glyph-name="Idot" unicode="&#x130;" horiz-adv-x="289" 
d="M11 10l117 660q1 10 11 10h182q10 0 9 -10l-117 -660q-1 -10 -11 -10h-182q-10 0 -9 10zM317 742h-158q-9 0 -8 10l21 120q1 10 12 10h157q9 0 8 -10l-21 -120q-1 -10 -11 -10z" />
    <glyph glyph-name="dotlessi" unicode="&#x131;" horiz-adv-x="276" 
d="M191 0h-174q-9 0 -8 10l83 470q1 10 11 10h174q9 0 8 -10l-83 -470q-1 -10 -11 -10z" />
    <glyph glyph-name="Jcircumflex" unicode="&#x134;" horiz-adv-x="517" 
d="M-17 90q-2 10 4 14l143 98q9 5 12 -1q24 -34 60 -34q34 0 54 20t29 65l75 418q1 10 10 10h183q10 0 9 -10l-71 -397q-53 -285 -315 -285q-67 0 -119.5 28t-73.5 74zM648 735h-104q-14 0 -21 10l-35 46h-2l-52 -46q-10 -10 -25 -10h-113q-5 0 -6 3t3 7l135 143q9 10 20 10
h104q12 0 18 -10l84 -143q2 -4 0 -7t-6 -3z" />
    <glyph glyph-name="jcircumflex" unicode="&#x135;" horiz-adv-x="276" 
d="M-43 -180h-42q-10 0 -7 10l24 135q1 10 11 10h9q30 0 42.5 11t18.5 44l80 450q1 10 11 10h174q9 0 8 -10l-79 -451q-21 -121 -78 -164q-56 -45 -172 -45zM373 539h-104q-14 0 -21 10l-35 46h-2l-52 -46q-10 -10 -25 -10h-113q-5 0 -6 3t3 7l135 143q9 10 20 10h104
q12 0 18 -10l84 -143q6 -10 -6 -10z" />
    <glyph glyph-name="Kcommaaccent" unicode="&#x136;" horiz-adv-x="635" 
d="M11 10l117 660q1 10 11 10h182q10 0 9 -10l-39 -220l183 220q9 10 19 10h214q15 0 6 -13l-245 -268l129 -388q5 -11 -7 -11h-192q-13 0 -16 10l-68 238l-75 -91l-26 -147q-1 -10 -11 -10h-182q-10 0 -9 10zM189 -255q-11 0 -10 12l34 192q1 10 11 10h136q10 0 9 -10
l-17 -98q-1 -15 -14 -23l-131 -75q-14 -8 -18 -8z" />
    <glyph glyph-name="kcommaaccent" unicode="&#x137;" horiz-adv-x="536" 
d="M493 0h-178q-10 0 -13 10l-48 183l-28 -34l-26 -149q-1 -10 -11 -10h-172q-9 0 -8 10l114 660q1 10 10 10h173q10 0 9 -10l-55 -316l106 127q8 9 20 9h173q5 0 6.5 -3t-1.5 -7l-160 -172l95 -298q4 -10 -6 -10zM141 -255q-11 0 -10 12l34 192q1 10 11 10h136q10 0 9 -10
l-17 -98q-1 -15 -14 -23l-131 -75q-14 -8 -18 -8z" />
    <glyph glyph-name="kgreenlandic" unicode="&#x138;" horiz-adv-x="536" 
d="M493 0h-178q-10 0 -13 10l-48 183l-28 -34l-26 -149q-1 -10 -11 -10h-172q-9 0 -8 10l81 470q1 10 10 10h173q10 0 9 -10l-22 -126l106 127q8 9 20 9h173q5 0 6.5 -3t-1.5 -7l-160 -172l95 -298q4 -10 -6 -10z" />
    <glyph glyph-name="Lacute" unicode="&#x139;" horiz-adv-x="522" 
d="M313 739h-132q-12 0 -4 10l130 131q10 10 22 10h158q5 0 6.5 -3t-2.5 -7l-153 -131q-10 -10 -25 -10zM11 10l117 660q1 10 11 10h182q10 0 9 -10l-86 -485q-2 -6 4 -6h235q10 0 9 -10l-29 -159q-1 -10 -11 -10h-432q-10 0 -9 10z" />
    <glyph glyph-name="lacute" unicode="&#x13a;" horiz-adv-x="319" 
d="M268 -6h-68q-102 0 -135 43q-31 43 -15 143l89 490q1 10 10 10h174q10 0 9 -10l-85 -466q-10 -51 30 -51h19q9 0 8 -10l-25 -139q-1 -10 -11 -10zM309 739h-132q-4 0 -5.5 3t1.5 7l130 131q10 10 22 10h158q5 0 6.5 -3t-2.5 -7l-153 -131q-10 -10 -25 -10z" />
    <glyph glyph-name="Lcommaaccent" unicode="&#x13b;" horiz-adv-x="522" 
d="M154 -255q-12 0 -10 12l34 192q1 10 11 10h136q10 0 9 -10l-17 -98q-1 -15 -14 -23l-131 -75q-14 -8 -18 -8zM11 10l117 660q1 10 11 10h182q10 0 9 -10l-86 -485q-2 -6 4 -6h235q10 0 9 -10l-29 -159q-1 -10 -11 -10h-432q-10 0 -9 10z" />
    <glyph glyph-name="lcommaaccent" unicode="&#x13c;" horiz-adv-x="319" 
d="M65 -255q-11 0 -10 12l34 192q1 10 11 10h136q10 0 9 -10l-17 -98q-1 -15 -14 -23l-131 -75q-14 -8 -18 -8zM268 -6h-68q-102 0 -135 43q-31 43 -15 143l89 490q1 10 10 10h174q10 0 9 -10l-85 -466q-10 -51 30 -51h19q9 0 8 -10l-25 -139q-1 -10 -11 -10z" />
    <glyph glyph-name="Lcaron" unicode="&#x13d;" horiz-adv-x="522" 
d="M11 10l117 660q1 10 11 10h182q10 0 9 -10l-86 -485q-2 -6 4 -6h235q10 0 9 -10l-29 -159q-1 -10 -11 -10h-432q-10 0 -9 10zM357 459q-11 0 -10 13l34 198q1 10 11 10h121q10 0 9 -10l-19 -104q-3 -14 -14 -22l-115 -77q-11 -8 -17 -8z" />
    <glyph glyph-name="lcaron" unicode="&#x13e;" horiz-adv-x="319" 
d="M268 -6h-68q-102 0 -135 43q-31 43 -15 143l89 490q1 10 10 10h174q10 0 9 -10l-85 -466q-10 -51 30 -51h19q9 0 8 -10l-25 -139q-1 -10 -11 -10zM336 459q-11 0 -10 13l34 198q1 10 11 10h121q10 0 9 -10l-19 -104q-3 -14 -14 -22l-115 -77q-11 -8 -17 -8z" />
    <glyph glyph-name="Ldot" unicode="&#x13f;" horiz-adv-x="522" 
d="M11 10l117 660q1 10 11 10h182q10 0 9 -10l-86 -485q-2 -6 4 -6h235q10 0 9 -10l-29 -159q-1 -10 -11 -10h-432q-10 0 -9 10zM489 238h-154q-10 0 -9 10l26 154q1 10 11 10h155q10 0 9 -10l-27 -154q-1 -10 -11 -10z" />
    <glyph glyph-name="ldot" unicode="&#x140;" horiz-adv-x="438" 
d="M268 -6h-68q-102 0 -135 43q-31 43 -15 143l89 490q1 10 10 10h174q10 0 9 -10l-85 -466q-10 -51 30 -51h19q9 0 8 -10l-25 -139q-1 -10 -11 -10zM458 238h-154q-10 0 -9 10l26 154q1 10 11 10h155q10 0 9 -10l-27 -154q-1 -10 -11 -10z" />
    <glyph glyph-name="Lslash" unicode="&#x141;" horiz-adv-x="522" 
d="M406 394l-137 -65l-26 -144q-1 -6 4 -6h235q10 0 9 -10l-29 -159q-1 -10 -11 -10h-432q-10 0 -9 10l39 220l-37 -18q-4 -2 -7 -0.5t-2 6.5l22 118q1 9 10 14l39 18l53 302q1 10 11 10h182q10 0 9 -10l-36 -203l136 65q4 2 7 0.5t2 -6.5l-22 -118q-1 -9 -10 -14z" />
    <glyph glyph-name="lslash" unicode="&#x142;" horiz-adv-x="319" 
d="M252 -6h-68q-102 0 -135 43q-31 43 -15 143l9 48l-35 -16q-4 -2 -7 0t-2 7l22 116q1 9 11 14l36 17l55 304q1 10 10 10h174q10 0 9 -10l-37 -204l62 30q4 2 7 0t2 -7l-22 -116q-1 -9 -11 -14l-63 -30l-23 -125q-10 -51 30 -51h19q9 0 8 -10l-25 -139q-1 -10 -11 -10z" />
    <glyph glyph-name="Nacute" unicode="&#x143;" horiz-adv-x="631" 
d="M11 10l117 660q1 10 11 10h172q12 0 15 -10l99 -347h4l61 347q1 10 11 10h163q9 0 8 -10l-117 -660q-1 -10 -11 -10h-174q-10 0 -13 10l-98 347h-5l-61 -347q-1 -10 -11 -10h-162q-10 0 -9 10zM458 739h-132q-4 0 -5.5 3t1.5 7l130 131q10 10 22 10h158q5 0 6.5 -3
t-2.5 -7l-153 -131q-10 -10 -25 -10z" />
    <glyph glyph-name="nacute" unicode="&#x144;" horiz-adv-x="549" 
d="M379 541h-135q-4 0 -5.5 3t1.5 7l107 143q7 10 19 10h158q5 0 6 -3t-3 -7l-129 -143q-9 -10 -19 -10zM464 0h-173q-10 0 -9 10l49 279q10 55 -30 55q-41 0 -50 -54l-49 -280q-1 -10 -11 -10h-174q-9 0 -8 10l83 470q1 10 11 10h173q9 0 8 -10l-6 -38h1q48 60 130 60
q157 0 122 -182l-56 -310q-1 -10 -11 -10z" />
    <glyph glyph-name="Ncommaaccent" unicode="&#x145;" horiz-adv-x="631" 
d="M11 10l117 660q1 10 11 10h172q12 0 15 -10l99 -347h4l61 347q1 10 11 10h163q9 0 8 -10l-117 -660q-1 -10 -11 -10h-174q-10 0 -13 10l-98 347h-5l-61 -347q-1 -10 -11 -10h-162q-10 0 -9 10zM199 -255q-11 0 -10 12l34 192q1 10 11 10h136q10 0 9 -10l-17 -98
q-1 -15 -14 -23l-131 -75q-14 -8 -18 -8z" />
    <glyph glyph-name="ncommaaccent" unicode="&#x146;" horiz-adv-x="549" 
d="M464 0h-173q-10 0 -9 10l49 279q10 55 -30 55q-41 0 -50 -54l-49 -280q-1 -10 -11 -10h-174q-9 0 -8 10l83 470q1 10 11 10h173q9 0 8 -10l-6 -38h1q48 60 130 60q157 0 122 -182l-56 -310q-1 -10 -11 -10zM133 -255q-11 0 -10 12l34 192q1 10 11 10h136q10 0 9 -10
l-17 -98q-1 -15 -14 -23l-131 -75q-14 -8 -18 -8z" />
    <glyph glyph-name="Ncaron" unicode="&#x147;" horiz-adv-x="631" 
d="M11 10l117 660q1 10 11 10h172q12 0 15 -10l99 -347h4l61 347q1 10 11 10h163q9 0 8 -10l-117 -660q-1 -10 -11 -10h-174q-10 0 -13 10l-98 347h-5l-61 -347q-1 -10 -11 -10h-162q-10 0 -9 10zM456 727h-103q-13 0 -19 10l-84 143q-2 4 0 7t6 3h104q14 0 21 -10l35 -45h2
l52 45q10 10 25 10h113q5 0 6 -3t-3 -7l-135 -143q-9 -10 -20 -10z" />
    <glyph glyph-name="ncaron" unicode="&#x148;" horiz-adv-x="549" 
d="M381 535h-104q-12 0 -18 10l-84 143q-2 4 0 7t6 3h104q14 0 21 -10l35 -45h2l52 45q10 10 25 10h113q5 0 6 -3t-3 -7l-135 -143q-9 -10 -20 -10zM464 0h-173q-10 0 -9 10l49 279q10 55 -30 55q-41 0 -50 -54l-49 -280q-1 -10 -11 -10h-174q-9 0 -8 10l83 470q1 10 11 10
h173q9 0 8 -10l-6 -38h1q48 60 130 60q157 0 122 -182l-56 -310q-1 -10 -11 -10z" />
    <glyph glyph-name="Eng" unicode="&#x14a;" horiz-adv-x="632" 
d="M283 -192h-42q-9 0 -8 10l27 145q1 10 11 10h9q59 0 77 35v2l-98 347h-5l-61 -347q-1 -10 -11 -10h-163q-9 0 -8 10l117 660q1 10 10 10h173q12 0 15 -10l99 -347h4l61 347q1 10 11 10h162q10 0 9 -10l-110 -620q-22 -123 -91 -182.5t-188 -59.5z" />
    <glyph glyph-name="eng" unicode="&#x14b;" horiz-adv-x="549" 
d="M235 -180h-41q-9 0 -8 10l24 135q1 10 11 10h9q27 0 38.5 10.5t16.5 40.5l46 263q10 55 -30 55q-41 0 -50 -54l-49 -280q-1 -10 -11 -10h-174q-9 0 -8 10l83 470q1 10 11 10h173q9 0 8 -10l-6 -38h1q48 60 130 60q154 0 122 -182l-52 -291q-21 -114 -77.5 -161.5
t-166.5 -47.5z" />
    <glyph glyph-name="Omacron" unicode="&#x14c;" horiz-adv-x="606" 
d="M276 -12q-112 0 -175 57t-63 163q0 63 19 164q20 106 46 158q79 162 275 162q112 0 175 -57t63 -163q0 -64 -19 -165q-20 -104 -46 -157q-79 -162 -275 -162zM297 167q49 0 71 49q12 27 28 110q17 91 17 127q0 60 -56 60q-49 0 -71 -49q-12 -26 -28 -111
q-17 -91 -17 -126q0 -60 56 -60zM551 751h-312q-9 0 -8 10l18 104q1 10 11 10h312q9 0 8 -10l-18 -104q-1 -10 -11 -10z" />
    <glyph glyph-name="omacron" unicode="&#x14d;" horiz-adv-x="522" 
d="M226 -12q-95 0 -150 49t-55 140q0 104 39 185q69 140 247 140q95 0 150 -49t55 -140q0 -104 -39 -185q-69 -140 -247 -140zM248 143q32 0 47 31q9 18 18 65q9 46 9 67q0 41 -37 41q-32 0 -47 -31q-9 -18 -18 -65t-9 -67q0 -41 37 -41zM459 552h-312q-9 0 -8 10l18 104
q1 10 11 10h312q9 0 8 -10l-18 -104q-1 -10 -11 -10z" />
    <glyph glyph-name="Obreve" unicode="&#x14e;" horiz-adv-x="606" 
d="M389 724q-69 0 -109 42.5t-32 105.5q1 13 15 13h72q12 0 15 -11q11 -38 56 -38q47 0 71 38q8 11 19 11h71q13 0 11 -12q-11 -63 -66 -106t-123 -43zM276 -12q-112 0 -175 57t-63 163q0 63 19 164q20 106 46 158q79 162 275 162q112 0 175 -57t63 -163q0 -64 -19 -165
q-20 -104 -46 -157q-79 -162 -275 -162zM297 167q49 0 71 49q12 27 28 110q17 91 17 127q0 60 -56 60q-49 0 -71 -49q-12 -26 -28 -111q-17 -91 -17 -126q0 -60 56 -60z" />
    <glyph glyph-name="obreve" unicode="&#x14f;" horiz-adv-x="522" 
d="M226 -12q-95 0 -150 49t-55 140q0 104 39 185q69 140 247 140q95 0 150 -49t55 -140q0 -104 -39 -185q-69 -140 -247 -140zM248 143q32 0 47 31q9 18 18 65q9 46 9 67q0 41 -37 41q-32 0 -47 -31q-9 -18 -18 -65t-9 -67q0 -41 37 -41zM310 531q-69 0 -109 42.5t-32 106.5
q1 13 15 13h72q12 0 15 -11q9 -38 56 -38t71 38q8 11 19 11h71q12 0 11 -12q-11 -63 -66 -106q-56 -44 -123 -44z" />
    <glyph glyph-name="Ohungarumlaut" unicode="&#x150;" horiz-adv-x="606" 
d="M276 -12q-112 0 -175 57t-63 163q0 63 19 164q20 106 46 158q79 162 275 162q112 0 175 -57t63 -163q0 -64 -19 -165q-20 -104 -46 -157q-79 -162 -275 -162zM297 167q49 0 71 49q12 27 28 110q17 91 17 127q0 60 -56 60q-49 0 -71 -49q-12 -26 -28 -111
q-17 -91 -17 -126q0 -60 56 -60zM533 739h-109q-5 0 -6.5 3t1.5 7l100 125q7 10 18 10h129q5 0 6.5 -3t-1.5 -7l-116 -125q-10 -10 -22 -10zM340 739h-110q-4 0 -5.5 3t1.5 7l100 125q7 10 18 10h129q5 0 6.5 -3t-1.5 -7l-116 -125q-10 -10 -22 -10z" />
    <glyph glyph-name="ohungarumlaut" unicode="&#x151;" horiz-adv-x="522" 
d="M226 -12q-95 0 -150 49t-55 140q0 104 39 185q69 140 247 140q95 0 150 -49t55 -140q0 -104 -39 -185q-69 -140 -247 -140zM248 143q32 0 47 31q9 18 18 65q9 46 9 67q0 41 -37 41q-32 0 -47 -31q-9 -18 -18 -65t-9 -67q0 -41 37 -41zM455 537h-112q-11 0 -4 10l95 143
q7 10 18 10h128q5 0 6.5 -3t-1.5 -7l-111 -143q-7 -10 -19 -10zM263 537h-112q-11 0 -4 10l95 143q7 10 18 10h128q5 0 6.5 -3t-1.5 -7l-111 -143q-7 -10 -19 -10z" />
    <glyph glyph-name="OE" unicode="&#x152;" horiz-adv-x="866" 
d="M790 0h-441q-9 0 -8 10l4 18h-2q-41 -40 -115 -40q-189 0 -189 220q0 63 19 164t46 158q80 162 243 162q78 0 106 -40h2l3 18q1 10 10 10h442q9 0 8 -10l-26 -148q-1 -10 -10 -10h-246q-6 0 -6 -6l-14 -75q-2 -6 4 -6h196q9 0 8 -10l-24 -144q-1 -10 -12 -10h-196
q-6 0 -7 -6l-15 -81q0 -6 5 -6h244q9 0 8 -10l-26 -148q-1 -10 -11 -10zM298 167q50 0 72 49q11 23 27 110q17 91 17 127q0 60 -55 60q-50 0 -72 -49q-12 -26 -28 -111q-16 -86 -16 -126q0 -60 55 -60z" />
    <glyph glyph-name="oe" unicode="&#x153;" horiz-adv-x="809" 
d="M772 192h-277q-5 0 -7 -5q-1 -2 -1 -10q0 -49 78 -49q51 0 109 39q10 6 14 -1l60 -84q7 -8 -2 -16q-93 -78 -228 -78q-89 0 -144 46h-1q-65 -46 -148 -46q-95 0 -149.5 49t-54.5 140q0 104 39 185q68 140 247 140q89 0 140 -48h2q57 48 147 48q92 0 147 -46.5t55 -128.5
q0 -38 -14 -125q-1 -10 -12 -10zM515 302h96q7 0 8 6q3 10 3 19q0 45 -46 45q-40 0 -59 -37q-7 -13 -7 -27q0 -6 5 -6zM248 143q31 0 47 31q9 18 18 65q9 46 9 67q0 41 -37 41q-32 0 -47 -31q-9 -18 -18 -65t-9 -67q0 -41 37 -41z" />
    <glyph glyph-name="Racute" unicode="&#x154;" horiz-adv-x="610" 
d="M552 0h-180q-11 0 -14 10l-48 216h-54q-4 0 -6 -6l-38 -210q-1 -10 -11 -10h-182q-9 0 -8 10l117 660q1 10 10 10h275q105 0 161.5 -49t56.5 -134q0 -80 -36 -141t-101 -94l66 -251q2 -11 -8 -11zM284 389h62q36 0 58 21t22 57q0 45 -57 45h-63q-6 0 -6 -6l-20 -111
q-2 -6 4 -6zM408 739h-132q-4 0 -5.5 3t1.5 7l130 131q10 10 22 10h158q5 0 6.5 -3t-2.5 -7l-153 -131q-10 -10 -25 -10z" />
    <glyph glyph-name="racute" unicode="&#x155;" horiz-adv-x="420" 
d="M343 541h-135q-4 0 -5.5 3t1.5 7l107 143q7 10 19 10h158q5 0 6 -3t-3 -7l-129 -143q-9 -10 -19 -10zM191 0h-174q-9 0 -8 10l83 470q1 10 11 10h173q9 0 8 -10l-8 -45h1q43 67 136 67q27 0 42 -6q11 -3 6 -14l-87 -176q-4 -10 -15 -3q-32 21 -55 21q-47 0 -59 -72
l-43 -242q-1 -10 -11 -10z" />
    <glyph glyph-name="Rcommaaccent" unicode="&#x156;" horiz-adv-x="610" 
d="M552 0h-180q-11 0 -14 10l-48 216h-54q-4 0 -6 -6l-38 -210q-1 -10 -11 -10h-182q-9 0 -8 10l117 660q1 10 10 10h275q105 0 161.5 -49t56.5 -134q0 -80 -36 -141t-101 -94l66 -251q2 -11 -8 -11zM284 389h62q36 0 58 21t22 57q0 45 -57 45h-63q-6 0 -6 -6l-20 -111
q-2 -6 4 -6zM173 -255q-11 0 -10 12l34 192q1 10 11 10h136q10 0 9 -10l-17 -98q-1 -15 -14 -23l-131 -75q-14 -8 -18 -8z" />
    <glyph glyph-name="rcommaaccent" unicode="&#x157;" horiz-adv-x="420" 
d="M190 0h-174q-9 0 -8 10l83 470q1 10 11 10h173q9 0 8 -10l-8 -45h1q43 67 136 67q27 0 42 -6q11 -3 6 -14l-87 -176q-5 -10 -15 -3q-32 21 -55 21q-47 0 -59 -72l-43 -242q-1 -10 -11 -10zM-8 -255q-12 0 -10 12l34 192q1 10 11 10h136q10 0 9 -10l-17 -98
q-1 -15 -14 -23l-131 -75q-14 -8 -18 -8z" />
    <glyph glyph-name="Rcaron" unicode="&#x158;" horiz-adv-x="610" 
d="M552 0h-180q-11 0 -14 10l-48 216h-54q-4 0 -6 -6l-38 -210q-1 -10 -11 -10h-182q-9 0 -8 10l117 660q1 10 10 10h275q105 0 161.5 -49t56.5 -134q0 -80 -36 -141t-101 -94l66 -251q2 -11 -8 -11zM284 389h62q36 0 58 21t22 57q0 45 -57 45h-63q-6 0 -6 -6l-20 -111
q-2 -6 4 -6zM412 727h-103q-13 0 -19 10l-84 143q-2 4 0 7t6 3h104q14 0 21 -10l35 -45h2l52 45q10 10 25 10h113q5 0 6 -3t-3 -7l-135 -143q-9 -10 -20 -10z" />
    <glyph glyph-name="rcaron" unicode="&#x159;" horiz-adv-x="420" 
d="M191 0h-174q-9 0 -8 10l83 470q1 10 11 10h173q9 0 8 -10l-8 -45h1q43 67 136 67q27 0 42 -6q11 -3 6 -14l-87 -176q-4 -10 -15 -3q-32 21 -55 21q-47 0 -59 -72l-43 -242q-1 -10 -11 -10zM351 535h-104q-12 0 -18 10l-84 143q-6 10 6 10h104q14 0 21 -10l35 -45h2l52 45
q10 10 25 10h113q5 0 6 -3t-3 -7l-135 -143q-9 -10 -20 -10z" />
    <glyph glyph-name="Sacute" unicode="&#x15a;" horiz-adv-x="595" 
d="M265 -12q-81 0 -158 30q-75 29 -109 71q-8 11 2 18l120 117q9 9 15 0q25 -28 65.5 -45t82.5 -17q41 0 64.5 14t23.5 37q0 30 -57 39l-35 5q-196 28 -196 177q0 116 79 186q80 72 214 72q148 0 239 -79q8 -6 -1 -17l-107 -121q-8 -8 -16 -2q-58 46 -130 46
q-30 0 -49 -12.5t-19 -31.5q0 -29 58 -38l34 -5q197 -29 197 -179q0 -123 -86 -194t-231 -71zM424 739h-132q-4 0 -5.5 3t1.5 7l130 131q10 10 22 10h158q5 0 6.5 -3t-2.5 -7l-153 -131q-10 -10 -25 -10z" />
    <glyph glyph-name="sacute" unicode="&#x15b;" horiz-adv-x="509" 
d="M232 -12q-142 0 -231 78q-8 6 1 15l89 91q7 7 16 1q80 -50 152 -50q23 0 37.5 8.5t14.5 20.5q0 17 -46 21l-53 6q-70 8 -107.5 40.5t-37.5 86.5q0 90 65 143t178 53q134 0 208 -65q7 -6 -2 -15l-81 -86q-7 -8 -15 -3q-61 38 -128 38q-20 0 -33 -7.5t-13 -17.5
q0 -16 39 -21l52 -6q157 -16 157 -128q0 -92 -71 -148q-70 -55 -191 -55zM350 541h-135q-12 0 -4 10l107 143q7 10 19 10h158q5 0 6 -3t-3 -7l-129 -143q-9 -10 -19 -10z" />
    <glyph glyph-name="Scircumflex" unicode="&#x15c;" horiz-adv-x="595" 
d="M265 -12q-81 0 -158 30q-75 29 -109 71q-8 11 2 18l120 117q9 9 15 0q25 -28 65.5 -45t82.5 -17q41 0 64.5 14t23.5 37q0 30 -57 39l-35 5q-196 28 -196 177q0 116 79 186q80 72 214 72q148 0 239 -79q8 -6 -1 -17l-107 -121q-8 -8 -16 -2q-58 46 -130 46
q-30 0 -49 -12.5t-19 -31.5q0 -29 58 -38l34 -5q197 -29 197 -179q0 -123 -86 -194t-231 -71zM560 735h-104q-14 0 -21 10l-35 46h-2l-52 -46q-10 -10 -25 -10h-113q-5 0 -6 3t3 7l135 143q9 10 20 10h104q12 0 18 -10l84 -143q2 -4 0 -7t-6 -3z" />
    <glyph glyph-name="scircumflex" unicode="&#x15d;" horiz-adv-x="509" 
d="M232 -12q-142 0 -231 78q-8 6 1 15l89 91q7 7 16 1q80 -50 152 -50q23 0 37.5 8.5t14.5 20.5q0 17 -46 21l-53 6q-70 8 -107.5 40.5t-37.5 86.5q0 90 65 143t178 53q134 0 208 -65q7 -6 -2 -15l-81 -86q-7 -8 -15 -3q-61 38 -128 38q-20 0 -33 -7.5t-13 -17.5
q0 -16 39 -21l52 -6q157 -16 157 -128q0 -92 -71 -148q-70 -55 -191 -55zM491 539h-104q-14 0 -21 10l-35 46h-2l-52 -46q-10 -10 -25 -10h-113q-5 0 -6 3t3 7l135 143q9 10 20 10h104q12 0 18 -10l84 -143q6 -10 -6 -10z" />
    <glyph glyph-name="Scedilla" unicode="&#x15e;" horiz-adv-x="595" 
d="M254 -171h-131q-9 0 -5 10l85 154q-66 10 -122.5 36.5t-82.5 59.5q-8 11 2 18l120 117q9 9 15 0q25 -28 65.5 -45t82.5 -17q41 0 64.5 14t23.5 37q0 30 -57 39l-35 5q-196 28 -196 177q0 116 79 186q80 72 214 72q148 0 239 -79q8 -6 -1 -17l-107 -121q-8 -8 -16 -2
q-58 46 -130 46q-30 0 -49 -12.5t-19 -31.5q0 -29 58 -38l34 -5q197 -29 197 -179q0 -105 -64 -173.5t-176 -85.5l-71 -155q-4 -10 -17 -10z" />
    <glyph glyph-name="scedilla" unicode="&#x15f;" horiz-adv-x="509" 
d="M218 -171h-131q-9 0 -5 10l85 154q-102 17 -166 73q-8 6 1 15l89 91q7 7 16 1q80 -50 152 -50q23 0 37.5 8.5t14.5 20.5q0 17 -46 21l-53 6q-70 8 -107.5 40.5t-37.5 86.5q0 90 65 143t178 53q134 0 208 -65q7 -6 -2 -15l-81 -86q-7 -8 -15 -3q-61 38 -128 38
q-20 0 -33 -7.5t-13 -17.5q0 -16 39 -21l52 -6q157 -16 157 -128q0 -77 -50 -128.5t-138 -67.5l-71 -156q-4 -10 -17 -10z" />
    <glyph glyph-name="Scaron" unicode="&#x160;" horiz-adv-x="595" 
d="M265 -12q-81 0 -158 30q-75 29 -109 71q-8 11 2 18l120 117q9 9 15 0q25 -28 65.5 -45t82.5 -17q41 0 64.5 14t23.5 37q0 30 -57 39l-35 5q-196 28 -196 177q0 116 79 186q80 72 214 72q148 0 239 -79q8 -6 -1 -17l-107 -121q-8 -8 -16 -2q-58 46 -130 46
q-30 0 -49 -12.5t-19 -31.5q0 -29 58 -38l34 -5q197 -29 197 -179q0 -123 -86 -194t-231 -71zM431 727h-103q-13 0 -19 10l-84 143q-6 10 6 10h104q14 0 21 -10l35 -45h2l52 45q10 10 25 10h113q5 0 6 -3t-3 -7l-135 -143q-9 -10 -20 -10z" />
    <glyph glyph-name="scaron" unicode="&#x161;" horiz-adv-x="509" 
d="M232 -12q-142 0 -231 78q-8 6 1 15l89 91q7 7 16 1q80 -50 152 -50q23 0 37.5 8.5t14.5 20.5q0 17 -46 21l-53 6q-70 8 -107.5 40.5t-37.5 86.5q0 90 65 143t178 53q134 0 208 -65q7 -6 -2 -15l-81 -86q-7 -8 -15 -3q-61 38 -128 38q-20 0 -33 -7.5t-13 -17.5
q0 -16 39 -21l52 -6q157 -16 157 -128q0 -92 -71 -148q-70 -55 -191 -55zM357 535h-104q-12 0 -18 10l-84 143q-6 10 6 10h104q14 0 21 -10l35 -45h2l52 45q10 10 25 10h113q5 0 6 -3t-3 -7l-135 -143q-9 -10 -20 -10z" />
    <glyph glyph-name="uni0162" unicode="&#x162;" horiz-adv-x="562" 
d="M140 -255q-12 0 -10 12l34 192q1 10 11 10h136q10 0 9 -10l-17 -98q-1 -15 -14 -23l-131 -75q-14 -8 -18 -8zM338 0h-182q-10 0 -9 10l86 485q1 6 -4 6h-156q-10 0 -9 10l28 159q1 10 11 10h527q10 0 9 -10l-29 -159q-1 -10 -11 -10h-157q-6 0 -7 -6l-86 -485
q-1 -10 -11 -10z" />
    <glyph glyph-name="uni0163" unicode="&#x163;" horiz-adv-x="342" 
d="M53 -255q-11 0 -10 12l34 192q1 10 11 10h136q10 0 9 -10l-17 -98q-1 -15 -14 -23l-131 -75q-14 -8 -18 -8zM275 -6h-60q-107 0 -142.5 48.5t-14.5 158.5l29 148q1 6 -5 6h-26q-8 0 -7 10l20 115q1 10 11 10h25q5 0 7 6l23 124q1 10 12 10h173q8 0 7 -10l-23 -124
q-2 -6 5 -6h58q9 0 8 -10l-20 -115q-1 -10 -12 -10h-60q-5 0 -7 -6l-26 -140q-6 -33 0.5 -44.5t32.5 -11.5h20q10 0 9 -10l-25 -139q-1 -10 -12 -10z" />
    <glyph glyph-name="Tcaron" unicode="&#x164;" horiz-adv-x="562" 
d="M411 727h-103q-13 0 -19 10l-84 143q-6 10 6 10h104q14 0 21 -10l35 -45h2l52 45q10 10 25 10h113q5 0 6 -3t-3 -7l-135 -143q-9 -10 -20 -10zM338 0h-182q-10 0 -9 10l86 485q1 6 -4 6h-156q-10 0 -9 10l28 159q1 10 11 10h527q10 0 9 -10l-29 -159q-1 -10 -11 -10h-157
q-6 0 -7 -6l-86 -485q-1 -10 -11 -10z" />
    <glyph glyph-name="tcaron" unicode="&#x165;" horiz-adv-x="342" 
d="M281 -6h-60q-107 0 -142.5 48.5t-14.5 158.5l29 148q1 6 -5 6h-26q-8 0 -7 10l20 115q1 10 11 10h25q5 0 7 6l23 124q1 10 12 10h173q8 0 7 -10l-23 -124q-2 -6 5 -6h58q9 0 8 -10l-20 -115q-1 -10 -12 -10h-60q-5 0 -7 -6l-26 -140q-6 -33 0.5 -44.5t32.5 -11.5h20
q10 0 9 -10l-25 -139q-1 -10 -12 -10zM405 459q-11 0 -10 13l34 198q1 10 11 10h121q10 0 9 -10l-19 -104q-3 -14 -14 -22l-115 -77q-11 -8 -17 -8z" />
    <glyph glyph-name="Tbar" unicode="&#x166;" horiz-adv-x="562" 
d="M338 0h-182q-10 0 -9 10l46 257q1 6 -5 6h-61q-10 0 -9 10l19 112q1 10 11 10h63q5 0 7 6l15 84q1 6 -4 6h-156q-10 0 -9 10l28 159q1 10 11 10h527q10 0 9 -10l-29 -159q-1 -10 -11 -10h-157q-6 0 -7 -6l-15 -84q-2 -6 5 -6h61q9 0 8 -10l-18 -112q-1 -10 -11 -10h-63
q-6 0 -7 -6l-46 -257q-1 -10 -11 -10z" />
    <glyph glyph-name="tbar" unicode="&#x167;" horiz-adv-x="342" 
d="M272 -6h-60q-110 0 -143 48q-33 49 -14 159l3 14q2 6 -5 6h-19q-8 0 -7 10l13 75q1 10 12 10h20q6 0 7 6l5 27q2 6 -5 6h-26q-8 0 -7 10l20 115q1 10 11 10h25q6 0 7 6l23 124q1 10 12 10h173q8 0 7 -10l-23 -124q-1 -6 5 -6h58q9 0 8 -10l-20 -115q-1 -10 -12 -10h-60
q-6 0 -7 -6l-5 -27q-2 -6 5 -6h42q8 0 7 -10l-13 -75q-1 -10 -11 -10h-43q-5 0 -7 -6l-1 -7q-6 -31 0.5 -43t32.5 -12h20q10 0 9 -10l-25 -139q-1 -10 -12 -10z" />
    <glyph glyph-name="Utilde" unicode="&#x168;" horiz-adv-x="625" 
d="M500 733q-44 0 -87 25q-31 17 -56 17q-37 0 -83 -33q-4 -3 -8 -1.5t-3 6.5l16 89q3 15 13 23q46 39 90 39q41 0 87 -26q31 -17 56 -17q37 0 83 33q4 3 8 1.5t3 -6.5l-16 -89q-1 -12 -14 -23q-44 -38 -89 -38zM312 -12q-137 0 -199 73.5t-38 213.5l71 395q1 10 11 10h182
q10 0 9 -10l-73 -412q-16 -91 55 -91q70 0 86 91l73 412q1 10 11 10h183q9 0 8 -10l-70 -395q-27 -151 -101.5 -219t-207.5 -68z" />
    <glyph glyph-name="utilde" unicode="&#x169;" horiz-adv-x="547" 
d="M492 0h-173q-9 0 -8 10l6 37h-1q-50 -59 -132 -59q-151 0 -118 183l54 309q1 10 11 10h174q9 0 8 -10l-50 -280q-9 -54 31 -54q41 0 50 54l49 280q1 10 11 10h174q9 0 8 -10l-83 -470q-1 -10 -11 -10zM436 539q-44 0 -87 25q-31 17 -56 17q-37 0 -83 -33q-4 -3 -8 -1.5
t-3 6.5l16 89q3 15 13 23q46 39 90 39q41 0 87 -26q31 -17 56 -17q37 0 83 33q4 3 8 1.5t3 -6.5l-16 -89q-1 -12 -14 -23q-44 -38 -89 -38z" />
    <glyph glyph-name="Umacron" unicode="&#x16a;" horiz-adv-x="625" 
d="M312 -12q-137 0 -199 73.5t-38 213.5l71 395q1 10 11 10h182q10 0 9 -10l-73 -412q-16 -91 55 -91q70 0 86 91l73 412q1 10 11 10h183q9 0 8 -10l-70 -395q-27 -151 -101.5 -219t-207.5 -68zM591 751h-312q-9 0 -8 10l18 104q1 10 11 10h312q9 0 8 -10l-18 -104
q-1 -10 -11 -10z" />
    <glyph glyph-name="umacron" unicode="&#x16b;" horiz-adv-x="547" 
d="M492 0h-173q-9 0 -8 10l6 37h-1q-50 -59 -132 -59q-151 0 -118 183l54 309q1 10 11 10h174q9 0 8 -10l-50 -280q-9 -54 31 -54q41 0 50 54l49 280q1 10 11 10h174q9 0 8 -10l-83 -470q-1 -10 -11 -10zM517 552h-312q-9 0 -8 10l18 104q1 10 11 10h312q9 0 8 -10l-18 -104
q-1 -10 -11 -10z" />
    <glyph glyph-name="Ubreve" unicode="&#x16c;" horiz-adv-x="625" 
d="M312 -12q-137 0 -199 73.5t-38 213.5l71 395q1 10 11 10h182q10 0 9 -10l-73 -412q-16 -91 55 -91q70 0 86 91l73 412q1 10 11 10h183q9 0 8 -10l-70 -395q-27 -151 -101.5 -219t-207.5 -68zM424 724q-69 0 -109 42.5t-32 105.5q1 13 15 13h72q12 0 15 -11q9 -38 56 -38
t71 38q8 11 19 11h71q12 0 11 -12q-11 -63 -66 -106t-123 -43z" />
    <glyph glyph-name="ubreve" unicode="&#x16d;" horiz-adv-x="547" 
d="M492 0h-173q-9 0 -8 10l6 37h-1q-50 -59 -132 -59q-151 0 -118 183l54 309q1 10 11 10h174q9 0 8 -10l-50 -280q-9 -54 31 -54q41 0 50 54l49 280q1 10 11 10h174q9 0 8 -10l-83 -470q-1 -10 -11 -10zM358 531q-69 0 -109 42.5t-32 106.5q1 13 15 13h72q12 0 15 -11
q11 -38 56 -38q47 0 71 38q8 11 19 11h71q12 0 11 -12q-11 -63 -66 -106q-56 -44 -123 -44z" />
    <glyph glyph-name="Uring" unicode="&#x16e;" horiz-adv-x="625" 
d="M312 -12q-137 0 -199 73.5t-38 213.5l71 395q1 10 11 10h182q10 0 9 -10l-73 -412q-16 -91 55 -91q70 0 86 91l73 412q1 10 11 10h183q9 0 8 -10l-70 -395q-27 -151 -101.5 -219t-207.5 -68zM420 699q-46 0 -74.5 25.5t-28.5 68.5q0 61 40 101.5t102 40.5
q46 0 74.5 -25.5t28.5 -68.5q0 -61 -40 -101.5t-102 -40.5zM432 774q20 0 33.5 15t13.5 38q0 33 -32 33q-20 0 -33.5 -15t-13.5 -38q0 -33 32 -33z" />
    <glyph glyph-name="uring" unicode="&#x16f;" horiz-adv-x="547" 
d="M492 0h-173q-9 0 -8 10l6 37h-1q-50 -59 -132 -59q-151 0 -118 183l54 309q1 10 11 10h174q9 0 8 -10l-50 -280q-9 -54 31 -54q41 0 50 54l49 280q1 10 11 10h174q9 0 8 -10l-83 -470q-1 -10 -11 -10zM354 516q-46 0 -74.5 25.5t-28.5 68.5q0 61 40 101.5t102 40.5
q46 0 74.5 -25.5t28.5 -68.5q0 -61 -40 -101.5t-102 -40.5zM366 591q20 0 33.5 15t13.5 38q0 33 -32 33q-20 0 -33.5 -15t-13.5 -38q0 -33 32 -33z" />
    <glyph glyph-name="Uhungarumlaut" unicode="&#x170;" horiz-adv-x="625" 
d="M312 -12q-137 0 -199 73.5t-38 213.5l71 395q1 10 11 10h182q10 0 9 -10l-73 -412q-16 -91 55 -91q70 0 86 91l73 412q1 10 11 10h183q9 0 8 -10l-70 -395q-27 -151 -101.5 -219t-207.5 -68zM573 739h-109q-5 0 -6.5 3t1.5 7l100 125q7 10 18 10h129q5 0 6.5 -3t-1.5 -7
l-116 -125q-10 -10 -22 -10zM380 739h-110q-4 0 -5.5 3t1.5 7l100 125q7 10 18 10h129q5 0 6.5 -3t-1.5 -7l-116 -125q-10 -10 -22 -10z" />
    <glyph glyph-name="uhungarumlaut" unicode="&#x171;" horiz-adv-x="547" 
d="M492 0h-173q-9 0 -8 10l6 37h-1q-50 -59 -132 -59q-151 0 -118 183l54 309q1 10 11 10h174q9 0 8 -10l-50 -280q-9 -54 31 -54q41 0 50 54l49 280q1 10 11 10h174q9 0 8 -10l-83 -470q-1 -10 -11 -10zM509 537h-112q-11 0 -4 10l95 143q7 10 18 10h128q5 0 6.5 -3
t-1.5 -7l-111 -143q-7 -10 -19 -10zM317 537h-112q-11 0 -4 10l95 143q7 10 18 10h128q5 0 6.5 -3t-1.5 -7l-111 -143q-7 -10 -19 -10z" />
    <glyph glyph-name="Uogonek" unicode="&#x172;" horiz-adv-x="625" 
d="M268 -191q-47 0 -73.5 23t-26.5 60q0 61 56 105q-94 21 -133.5 91.5t-18.5 186.5l71 395q1 10 11 10h182q10 0 9 -10l-73 -412q-16 -91 55 -91q70 0 86 91l73 412q1 10 11 10h183q9 0 8 -10l-70 -395q-24 -135 -86 -203t-172 -81q-50 -32 -50 -50q0 -10 11 -10t24 9
q10 6 13 -3l30 -80q3 -9 -6 -14q-58 -34 -114 -34z" />
    <glyph glyph-name="uogonek" unicode="&#x173;" horiz-adv-x="547" 
d="M352 -191q-47 0 -73.5 23t-26.5 60q0 60 71 108h-4q-9 0 -8 10l6 37h-1q-50 -59 -132 -59q-151 0 -118 183l54 309q1 10 11 10h173q9 0 8 -10l-49 -280q-9 -54 31 -54q41 0 50 54l49 280q1 10 11 10h174q9 0 8 -10l-83 -468q-2 -9 -11 -12q-63 -24 -80.5 -35.5
t-17.5 -24.5q0 -9 10 -9t24 9q10 6 13 -3l31 -80q3 -9 -6 -14q-59 -34 -114 -34z" />
    <glyph glyph-name="Wcircumflex" unicode="&#x174;" horiz-adv-x="910" 
d="M674 0h-147q-11 0 -12 10l-34 341h-2l-152 -341q-4 -10 -14 -10h-146q-12 0 -13 10l-73 660q-1 10 7 10h190q12 0 12 -10l10 -372h2l156 372q4 10 14 10h118q12 0 13 -10l30 -372h2l139 372q3 10 13 10h202q10 0 6 -10l-307 -660q-4 -10 -14 -10zM726 735h-104
q-14 0 -21 10l-35 46h-2l-52 -46q-10 -10 -25 -10h-113q-5 0 -6 3t3 7l135 143q9 10 20 10h104q12 0 18 -10l84 -143q2 -4 0 -7t-6 -3z" />
    <glyph glyph-name="wcircumflex" unicode="&#x175;" horiz-adv-x="762" 
d="M604 539h-104q-14 0 -21 10l-35 46h-2l-52 -46q-10 -10 -25 -10h-113q-5 0 -6 3t3 7l135 143q9 10 20 10h104q12 0 18 -10l84 -143q2 -4 0 -7t-6 -3zM551 0h-131q-9 0 -10 10l-23 223h-2l-104 -223q-4 -10 -13 -10h-130q-10 0 -11 10l-74 470q0 10 10 10h168q12 0 12 -10
l10 -229h2l103 229q4 10 16 10h103q11 0 12 -10l23 -229h2l88 229q4 10 17 10h178q10 0 6 -10l-240 -470q-4 -10 -12 -10z" />
    <glyph glyph-name="Ycircumflex" unicode="&#x176;" horiz-adv-x="605" 
d="M361 0h-182q-10 0 -9 10l43 245l-132 414q-5 11 9 11h171q12 0 15 -10l62 -221h3l140 221q6 10 17 10h189q14 0 6 -11l-278 -414l-43 -245q-1 -10 -11 -10zM575 735h-104q-14 0 -21 10l-35 46h-2l-52 -46q-10 -10 -25 -10h-113q-5 0 -6 3t3 7l135 143q9 10 20 10h104
q12 0 18 -10l84 -143q6 -10 -6 -10z" />
    <glyph glyph-name="ycircumflex" unicode="&#x177;" horiz-adv-x="543" 
d="M70 -180h-40q-9 0 -8 10l24 135q1 10 12 10h27q42 0 60 34l13 27l-104 444q-1 10 8 10h175q10 0 11 -10l34 -216h2l102 216q4 10 15 10h180q11 0 6 -11l-318 -548q-38 -65 -80 -87q-43 -24 -119 -24zM503 539h-104q-14 0 -21 10l-35 46h-2l-52 -46q-10 -10 -25 -10h-113
q-5 0 -6 3t3 7l135 143q9 10 20 10h104q12 0 18 -10l84 -143q6 -10 -6 -10z" />
    <glyph glyph-name="Ydieresis" unicode="&#x178;" horiz-adv-x="605" 
d="M361 0h-182q-10 0 -9 10l43 245l-132 414q-5 11 9 11h171q12 0 15 -10l62 -221h3l140 221q6 10 17 10h189q14 0 6 -11l-278 -414l-43 -245q-1 -10 -11 -10zM563 742h-122q-10 0 -9 10l22 120q1 10 12 10h122q9 0 8 -10l-22 -120q-1 -10 -11 -10zM360 742h-122
q-10 0 -9 10l22 120q1 10 12 10h122q9 0 8 -10l-22 -120q-1 -10 -11 -10z" />
    <glyph glyph-name="Zacute" unicode="&#x179;" horiz-adv-x="578" 
d="M497 0h-484q-10 0 -9 10l28 156q1 6 5 10l317 322l1 3h-244q-9 0 -8 10l29 159q1 10 10 10h474q10 0 9 -10l-28 -155q-1 -6 -5 -10l-319 -323l-1 -3h256q9 0 8 -10l-28 -159q-1 -10 -11 -10zM426 739h-132q-4 0 -5.5 3t1.5 7l130 131q10 10 22 10h158q5 0 6.5 -3t-2.5 -7
l-153 -131q-10 -10 -25 -10z" />
    <glyph glyph-name="zacute" unicode="&#x17a;" horiz-adv-x="484" 
d="M355 541h-135q-4 0 -5.5 3t1.5 7l107 143q7 10 19 10h158q5 0 6 -3t-3 -7l-129 -143q-9 -10 -19 -10zM409 0h-404q-8 0 -7 10l22 128q1 9 7 13l226 188v3h-176q-8 0 -7 10l23 128q1 10 11 10h393q8 0 7 -10l-22 -128q-2 -8 -7 -13l-226 -187v-3h187q9 0 8 -10l-23 -129
q-1 -10 -12 -10z" />
    <glyph glyph-name="Zdotaccent" unicode="&#x17b;" horiz-adv-x="578" 
d="M497 0h-484q-10 0 -9 10l28 156q1 6 5 10l317 322l1 3h-244q-9 0 -8 10l29 159q1 10 10 10h474q10 0 9 -10l-28 -155q-1 -6 -5 -10l-319 -323l-1 -3h256q9 0 8 -10l-28 -159q-1 -10 -11 -10zM458 742h-158q-9 0 -8 10l21 120q1 10 12 10h157q9 0 8 -10l-21 -120
q-1 -10 -11 -10z" />
    <glyph glyph-name="zdotaccent" unicode="&#x17c;" horiz-adv-x="484" 
d="M409 0h-404q-8 0 -7 10l22 128q1 9 7 13l226 188v3h-176q-8 0 -7 10l23 128q1 10 11 10h393q8 0 7 -10l-22 -128q-2 -8 -7 -13l-226 -187v-3h187q9 0 8 -10l-23 -129q-1 -10 -12 -10zM380 540h-158q-9 0 -8 10l21 120q1 10 11 10h158q9 0 8 -10l-21 -120q-1 -10 -11 -10z
" />
    <glyph glyph-name="Zcaron" unicode="&#x17d;" horiz-adv-x="578" 
d="M497 0h-484q-10 0 -9 10l28 156q1 6 5 10l317 322l1 3h-244q-9 0 -8 10l29 159q1 10 10 10h474q10 0 9 -10l-28 -155q-1 -6 -5 -10l-319 -323l-1 -3h256q9 0 8 -10l-28 -159q-1 -10 -11 -10zM430 727h-103q-13 0 -19 10l-84 143q-2 4 0 7t6 3h104q14 0 21 -10l35 -45h2
l52 45q10 10 25 10h113q5 0 6 -3t-3 -7l-135 -143q-9 -10 -20 -10z" />
    <glyph glyph-name="zcaron" unicode="&#x17e;" horiz-adv-x="484" 
d="M354 535h-104q-12 0 -18 10l-84 143q-2 4 0 7t6 3h104q14 0 21 -10l35 -45h2l52 45q10 10 25 10h113q5 0 6 -3t-3 -7l-135 -143q-9 -10 -20 -10zM409 0h-404q-8 0 -7 10l22 128q1 9 7 13l226 188v3h-176q-8 0 -7 10l23 128q1 10 11 10h393q8 0 7 -10l-22 -128
q-2 -8 -7 -13l-226 -187v-3h187q9 0 8 -10l-23 -129q-1 -10 -12 -10z" />
    <glyph glyph-name="florin" unicode="&#x192;" horiz-adv-x="553" 
d="M463 292h-77l-92 -284q-35 -107 -92 -146q-59 -42 -157 -42h-40q-9 0 -8 10l24 137q1 10 11 10h22q23 0 35.5 10.5t20.5 34.5l88 270h-53q-8 0 -7 10l21 120q1 10 11 10h74l20 60q35 105 92 146q58 42 157 42h39q9 0 8 -10l-23 -137q-1 -10 -11 -10h-23q-23 0 -36 -10
t-21 -35l-15 -46h57q8 0 7 -10l-21 -120q-1 -10 -11 -10z" />
    <glyph glyph-name="Scommaaccent" unicode="&#x218;" horiz-adv-x="595" 
d="M265 -12q-81 0 -158 30q-75 29 -109 71q-8 11 2 18l120 117q9 9 15 0q25 -28 65.5 -45t82.5 -17q41 0 64.5 14t23.5 37q0 30 -57 39l-35 5q-196 28 -196 177q0 116 79 186q80 72 214 72q148 0 239 -79q8 -6 -1 -17l-107 -121q-8 -8 -16 -2q-58 46 -130 46
q-30 0 -49 -12.5t-19 -31.5q0 -29 58 -38l34 -5q197 -29 197 -179q0 -123 -86 -194t-231 -71zM165 -255q-11 0 -10 12l34 192q1 10 11 10h136q10 0 9 -10l-17 -98q-1 -15 -14 -23l-131 -75q-14 -8 -18 -8z" />
    <glyph glyph-name="scommaaccent" unicode="&#x219;" horiz-adv-x="509" 
d="M132 -255q-12 0 -10 12l34 192q1 10 11 10h136q10 0 9 -10l-17 -98q-1 -15 -14 -23l-131 -75q-14 -8 -18 -8zM232 -12q-142 0 -231 78q-8 6 1 15l89 91q7 7 16 1q80 -50 152 -50q23 0 37.5 8.5t14.5 20.5q0 17 -46 21l-53 6q-70 8 -107.5 40.5t-37.5 86.5q0 90 65 143
t178 53q134 0 208 -65q7 -6 -2 -15l-81 -86q-7 -8 -15 -3q-61 38 -128 38q-20 0 -33 -7.5t-13 -17.5q0 -16 39 -21l52 -6q157 -16 157 -128q0 -92 -71 -148q-70 -55 -191 -55z" />
    <glyph glyph-name="uni021A" unicode="&#x21a;" horiz-adv-x="562" 
d="M140 -255q-12 0 -10 12l34 192q1 10 11 10h136q10 0 9 -10l-17 -98q-1 -15 -14 -23l-131 -75q-14 -8 -18 -8zM338 0h-182q-10 0 -9 10l86 485q1 6 -4 6h-156q-10 0 -9 10l28 159q1 10 11 10h527q10 0 9 -10l-29 -159q-1 -10 -11 -10h-157q-6 0 -7 -6l-86 -485
q-1 -10 -11 -10z" />
    <glyph glyph-name="uni021B" unicode="&#x21b;" horiz-adv-x="342" 
d="M53 -255q-11 0 -10 12l34 192q1 10 11 10h136q10 0 9 -10l-17 -98q-1 -15 -14 -23l-131 -75q-14 -8 -18 -8zM275 -6h-60q-107 0 -142.5 48.5t-14.5 158.5l29 148q1 6 -5 6h-26q-8 0 -7 10l20 115q1 10 11 10h25q5 0 7 6l23 124q1 10 12 10h173q8 0 7 -10l-23 -124
q-2 -6 5 -6h58q9 0 8 -10l-20 -115q-1 -10 -12 -10h-60q-5 0 -7 -6l-26 -140q-6 -33 0.5 -44.5t32.5 -11.5h20q10 0 9 -10l-25 -139q-1 -10 -12 -10z" />
    <glyph glyph-name="dotlessj" unicode="&#x237;" horiz-adv-x="276" 
d="M-43 -180h-42q-10 0 -7 10l24 135q1 10 11 10h9q30 0 42.5 11t18.5 44l80 450q1 10 11 10h174q9 0 8 -10l-79 -451q-21 -121 -78 -164q-56 -45 -172 -45z" />
    <glyph glyph-name="circumflex" unicode="&#x2c6;" horiz-adv-x="513" 
d="M490 539h-104q-14 0 -21 10l-35 46h-2l-52 -46q-10 -10 -25 -10h-113q-5 0 -6 3t3 7l135 143q9 10 20 10h104q12 0 18 -10l84 -143q6 -10 -6 -10z" />
    <glyph glyph-name="caron" unicode="&#x2c7;" horiz-adv-x="513" 
d="M366 535h-104q-12 0 -18 10l-84 143q-6 10 6 10h104q14 0 21 -10l35 -45h2l52 45q10 10 25 10h113q5 0 6 -3t-3 -7l-135 -143q-9 -10 -20 -10z" />
    <glyph glyph-name="uni02C9" unicode="&#x2c9;" horiz-adv-x="513" 
d="M510 751h-312q-9 0 -8 10l18 104q1 10 11 10h312q9 0 8 -10l-18 -104q-1 -10 -11 -10z" />
    <glyph glyph-name="breve" unicode="&#x2d8;" horiz-adv-x="513" 
d="M323 531q-69 0 -109 42.5t-32 106.5q1 13 15 13h72q12 0 15 -11q11 -38 56 -38q47 0 71 38q8 11 19 11h71q13 0 11 -12q-11 -63 -66 -106q-56 -44 -123 -44z" />
    <glyph glyph-name="dotaccent" unicode="&#x2d9;" horiz-adv-x="513" 
d="M397 540h-158q-9 0 -8 10l21 120q1 10 11 10h158q9 0 8 -10l-21 -120q-1 -10 -11 -10z" />
    <glyph glyph-name="ring" unicode="&#x2da;" horiz-adv-x="513" 
d="M312 516q-46 0 -74.5 25.5t-28.5 68.5q0 61 40 101.5t102 40.5q46 0 74.5 -25.5t28.5 -68.5q0 -61 -40 -101.5t-102 -40.5zM324 591q20 0 33.5 15t13.5 38q0 33 -32 33q-20 0 -33.5 -15t-13.5 -38q0 -33 32 -33z" />
    <glyph glyph-name="ogonek" unicode="&#x2db;" horiz-adv-x="513" 
d="M185 -191q-47 0 -73.5 23t-26.5 60q0 59 64 108q13 10 28 10h142q5 0 5.5 -4t-4.5 -6q-55 -23 -74 -35.5t-19 -24.5q0 -9 11 -9q10 0 24 9q10 6 13 -3l30 -80q3 -9 -6 -14q-58 -34 -114 -34z" />
    <glyph glyph-name="tilde" unicode="&#x2dc;" horiz-adv-x="513" 
d="M390 539q-44 0 -87 25q-31 17 -56 17q-37 0 -83 -33q-4 -3 -8 -1.5t-3 6.5l16 89q3 15 13 23q46 39 90 39q41 0 87 -26q31 -17 56 -17q37 0 83 33q4 3 8 1.5t3 -6.5l-16 -89q-1 -12 -14 -23q-44 -38 -89 -38z" />
    <glyph glyph-name="hungarumlaut" unicode="&#x2dd;" horiz-adv-x="513" 
d="M424 537h-112q-11 0 -4 10l95 143q7 10 18 10h128q5 0 6.5 -3t-1.5 -7l-111 -143q-7 -10 -19 -10zM232 537h-112q-11 0 -4 10l95 143q7 10 18 10h128q5 0 6.5 -3t-1.5 -7l-111 -143q-7 -10 -19 -10z" />
    <glyph glyph-name="uni0374" unicode="&#x374;" horiz-adv-x="531" 
d="M181 470h-127q-11 0 -4 10l147 220q7 10 17 10h177q4 0 5.5 -3t-1.5 -7l-196 -220q-9 -10 -18 -10z" />
    <glyph glyph-name="uni0375" unicode="&#x375;" horiz-adv-x="531" 
d="M258 60h127q11 0 4 -10l-147 -220q-7 -10 -17 -10h-177q-12 0 -4 10l196 220q9 10 18 10z" />
    <glyph glyph-name="uni037E" unicode="&#x37e;" horiz-adv-x="247" 
d="M223 315h-155q-10 0 -9 10l27 155q1 10 11 10h154q10 0 9 -10l-26 -155q-1 -10 -11 -10zM-9 -86l44 251q1 10 11 10h146q10 0 9 -10l-24 -141q-3 -11 -14 -20l-143 -98q-13 -8 -19 -8q-11 0 -10 16z" />
    <glyph glyph-name="tonos" unicode="&#x384;" horiz-adv-x="481" 
d="M316 542h-122q-9 0 -5 10l74 174q4 10 16 10h173q6 0 7 -3.5t-2 -6.5l-126 -176q-8 -8 -15 -8z" />
    <glyph glyph-name="dieresistonos" unicode="&#x385;" horiz-adv-x="706" 
d="M444 542h-113q-9 0 -5 10l50 174q3 10 17 10h160q4 0 5.5 -3.5t-0.5 -6.5l-98 -174q-6 -10 -16 -10zM673 542h-120q-10 0 -9 10l22 118q1 10 12 10h120q9 0 8 -10l-22 -118q-1 -10 -11 -10zM275 542h-120q-10 0 -9 10l21 118q1 10 12 10h121q7 0 6 -10l-20 -118
q-1 -10 -11 -10z" />
    <glyph glyph-name="Alphatonos" unicode="&#x386;" horiz-adv-x="691" 
d="M184 0h-201q-10 0 -6 10l346 660q3 10 13 10h197q11 0 11 -10l107 -660q1 -10 -7 -10h-190q-11 0 -12 10l-9 93h-194l-41 -93q-4 -10 -14 -10zM399 458l-85 -189h104l-17 189h-2zM105 486h-122q-9 0 -5 10l74 174q4 10 16 10h173q12 0 5 -10l-126 -176q-8 -8 -15 -8z" />
    <glyph glyph-name="anoteleia" unicode="&#x387;" horiz-adv-x="247" 
d="M199 178h-154q-10 0 -9 10l26 154q1 10 11 10h155q10 0 9 -10l-27 -154q-1 -10 -11 -10z" />
    <glyph glyph-name="Epsilontonos" unicode="&#x388;" horiz-adv-x="533" 
d="M463 0h-441q-9 0 -8 10l117 660q1 10 10 10h442q9 0 8 -10l-27 -148q-1 -10 -10 -10h-246q-6 0 -6 -6l-13 -75q-1 -6 4 -6h196q9 0 8 -10l-25 -144q-1 -10 -12 -10h-196q-4 0 -6 -6l-15 -81q0 -6 5 -6h244q9 0 8 -10l-26 -148q-1 -10 -11 -10zM-65 486h-122q-9 0 -5 10
l74 174q4 10 16 10h173q12 0 5 -10l-126 -176q-8 -8 -15 -8z" />
    <glyph glyph-name="Etatonos" unicode="&#x389;" horiz-adv-x="641" 
d="M205 0h-182q-10 0 -9 10l117 660q1 10 11 10h182q10 0 9 -10l-40 -229q-1 -6 4 -6h138q5 0 7 6l41 229q1 10 11 10h182q10 0 9 -10l-117 -660q-1 -10 -11 -10h-182q-10 0 -9 10l42 240q2 6 -5 6h-138q-5 0 -6 -6l-43 -240q-1 -10 -11 -10zM-65 486h-122q-9 0 -5 10
l74 174q4 10 16 10h173q12 0 5 -10l-126 -176q-8 -8 -15 -8z" />
    <glyph glyph-name="Iotatonos" unicode="&#x38a;" horiz-adv-x="289" 
d="M205 0h-182q-10 0 -9 10l117 660q1 10 11 10h182q10 0 9 -10l-117 -660q-1 -10 -11 -10zM-65 486h-122q-9 0 -5 10l74 174q4 10 16 10h173q12 0 5 -10l-126 -176q-8 -8 -15 -8z" />
    <glyph glyph-name="Omicrontonos" unicode="&#x38c;" horiz-adv-x="606" 
d="M281 -12q-112 0 -175 57t-63 163q0 63 19 164q20 106 46 158q80 162 275 162q112 0 175 -57t63 -163q0 -64 -19 -165q-20 -104 -46 -157q-79 -162 -275 -162zM302 167q49 0 71 49q12 27 28 110q17 91 17 127q0 60 -56 60q-49 0 -71 -49q-12 -26 -28 -111
q-17 -91 -17 -126q0 -60 56 -60zM-13 486h-122q-9 0 -5 10l74 174q4 10 16 10h173q12 0 5 -10l-126 -176q-8 -8 -15 -8z" />
    <glyph glyph-name="Upsilontonos" unicode="&#x38e;" horiz-adv-x="605" 
d="M362 0h-182q-10 0 -9 10l43 245l-132 414q-5 11 9 11h171q12 0 15 -10l62 -221h3l140 221q6 10 17 10h189q14 0 6 -11l-278 -414l-43 -245q-1 -10 -11 -10zM-119 486h-122q-9 0 -5 10l74 174q4 10 16 10h173q12 0 5 -10l-126 -176q-8 -8 -15 -8z" />
    <glyph glyph-name="Omegatonos" unicode="&#x38f;" horiz-adv-x="615" 
d="M235 0h-226q-10 0 -9 10l25 139q1 10 11 10h38v1q-29 27 -29 102q0 42 7 78q21 124 54 184q92 168 286 168q107 0 167.5 -55.5t60.5 -159.5q0 -47 -16 -137q-23 -139 -84 -180v-1h38q10 0 9 -10l-25 -139q-1 -10 -11 -10h-227q-10 0 -9 10l23 131q1 10 12 16q30 20 41 50
q13 34 29 133q16 89 16 113q0 58 -56 60q-49 0 -73 -46q-11 -24 -30 -127q-17 -91 -17 -126q0 -37 23 -57q6 -6 5 -16l-23 -131q-1 -10 -10 -10zM-31 486h-122q-9 0 -5 10l74 174q4 10 16 10h173q12 0 5 -10l-126 -176q-8 -8 -15 -8z" />
    <glyph glyph-name="iotadieresistonos" unicode="&#x390;" horiz-adv-x="336" 
d="M175 -12q-73 0 -110 28.5t-37 96.5q0 31 9 73l62 294q1 10 12 10h173q9 0 8 -10l-59 -277q-4 -15 -4 -27q0 -29 33 -29q1 0 27 2q6 1 7.5 0t2.5 -8l13 -115q2 -11 -8 -16q-48 -22 -129 -22zM259 542h-113q-9 0 -5 10l50 174q3 10 17 10h160q4 0 5.5 -3.5t-0.5 -6.5
l-98 -174q-6 -10 -16 -10zM488 542h-120q-10 0 -9 10l22 118q1 10 12 10h120q9 0 8 -10l-22 -118q-1 -10 -11 -10zM90 542h-120q-10 0 -9 10l21 118q1 10 12 10h121q7 0 6 -10l-20 -118q-1 -10 -11 -10z" />
    <glyph glyph-name="Alpha" unicode="&#x391;" horiz-adv-x="691" 
d="M184 0h-201q-10 0 -6 10l346 660q3 10 13 10h197q11 0 11 -10l107 -660q1 -10 -7 -10h-190q-11 0 -12 10l-9 93h-194l-41 -93q-4 -10 -14 -10zM399 458l-85 -189h104l-17 189h-2z" />
    <glyph glyph-name="Beta" unicode="&#x392;" horiz-adv-x="590" 
d="M11 10l117 660q1 10 10 10h282q191 0 191 -141q0 -129 -111 -187l-1 -2q69 -30 69 -122q0 -104 -75 -166q-74 -62 -192 -62h-282q-9 0 -8 10zM288 411h34q39 0 61 20.5t22 58.5q0 25 -14.5 35.5t-46.5 10.5h-33q-5 0 -7 -6l-20 -113q-2 -6 4 -6zM260 279l-22 -128
q-2 -6 4 -6h44q39 0 61 23.5t22 67.5q0 49 -58 49h-44q-5 0 -7 -6z" />
    <glyph glyph-name="Gamma" unicode="&#x393;" horiz-adv-x="520" 
d="M200 0h-181q-9 0 -8 10l117 660q1 10 10 10h432q9 0 8 -10l-27 -148q-1 -10 -10 -10h-236q-5 0 -6 -6l-88 -496q-1 -10 -11 -10z" />
    <glyph glyph-name="uni0394" unicode="&#x394;" horiz-adv-x="691" 
d="M653 0h-673q-10 0 -6 10l349 660q4 10 14 10h196q10 0 11 -10l117 -660q1 -10 -8 -10zM276 175h154q6 0 6 6l-35 277h-2l-126 -276q-4 -7 3 -7z" />
    <glyph glyph-name="Epsilon" unicode="&#x395;" horiz-adv-x="533" 
d="M460 0h-441q-9 0 -8 10l117 660q1 10 10 10h442q9 0 8 -10l-27 -148q-1 -10 -10 -10h-246q-6 0 -6 -6l-13 -75q-2 -6 4 -6h196q9 0 8 -10l-25 -144q-1 -10 -12 -10h-196q-5 0 -6 -6l-15 -81q0 -6 5 -6h244q9 0 8 -10l-26 -148q-1 -10 -11 -10z" />
    <glyph glyph-name="Zeta" unicode="&#x396;" horiz-adv-x="578" 
d="M497 0h-484q-10 0 -9 10l28 156q1 6 5 10l317 322l1 3h-244q-9 0 -8 10l29 159q1 10 10 10h474q10 0 9 -10l-28 -155q-1 -6 -5 -10l-319 -323l-1 -3h256q9 0 8 -10l-28 -159q-1 -10 -11 -10z" />
    <glyph glyph-name="Eta" unicode="&#x397;" horiz-adv-x="641" 
d="M202 0h-182q-10 0 -9 10l117 660q1 10 11 10h182q10 0 9 -10l-40 -229q-2 -6 4 -6h138q6 0 7 6l41 229q1 10 11 10h182q10 0 9 -10l-117 -660q-1 -10 -11 -10h-182q-10 0 -9 10l42 240q1 6 -5 6h-138q-4 0 -6 -6l-43 -240q-1 -10 -11 -10z" />
    <glyph glyph-name="Theta" unicode="&#x398;" horiz-adv-x="628" 
d="M289 -12q-132 0 -195 64q-56 59 -56 161q0 71 26 186q34 151 105 219q77 74 229 74q121 0 183 -62q57 -57 57 -165q0 -89 -31 -210q-30 -121 -83 -177q-86 -90 -235 -90zM311 171q51 0 74 32t38 113q17 88 17 126q0 70 -74 70q-49 0 -72 -29q-22 -28 -39 -110
q-18 -89 -18 -132q0 -70 74 -70zM375 279h-98q-10 0 -9 10l20 102q1 10 12 10h99q8 0 7 -10l-20 -102q-1 -10 -11 -10z" />
    <glyph glyph-name="Iota" unicode="&#x399;" horiz-adv-x="289" 
d="M202 0h-182q-10 0 -9 10l117 660q1 10 11 10h182q10 0 9 -10l-117 -660q-1 -10 -11 -10z" />
    <glyph glyph-name="Kappa" unicode="&#x39a;" horiz-adv-x="637" 
d="M202 0h-182q-10 0 -9 10l117 660q1 10 11 10h182q10 0 9 -10l-39 -220l183 220q9 10 19 10h214q15 0 6 -13l-245 -268l129 -388q5 -11 -7 -11h-192q-13 0 -16 10l-68 238l-75 -91l-26 -147q-1 -10 -11 -10z" />
    <glyph glyph-name="Lambda" unicode="&#x39b;" horiz-adv-x="691" 
d="M187 0h-201q-10 0 -6 10l343 660q4 10 13 10h197q10 0 11 -10l97 -660q1 -10 -7 -10h-190q-12 0 -12 11l-31 447h-2l-198 -448q-4 -10 -14 -10z" />
    <glyph glyph-name="Mu" unicode="&#x39c;" horiz-adv-x="759" 
d="M182 0h-163q-9 0 -8 10l117 660q1 10 10 10h168q12 0 15 -10l79 -326h4l190 326q4 10 18 10h179q10 0 9 -10l-117 -660q-1 -10 -11 -10h-163q-10 0 -9 10l57 323h-4l-129 -227q-7 -13 -20 -13h-85q-13 0 -17 13l-49 227h-4l-56 -323q-1 -10 -11 -10z" />
    <glyph glyph-name="Nu" unicode="&#x39d;" horiz-adv-x="631" 
d="M182 0h-162q-10 0 -9 10l117 660q1 10 11 10h172q12 0 15 -10l99 -347h4l61 347q1 10 11 10h163q9 0 8 -10l-117 -660q-1 -10 -11 -10h-174q-10 0 -13 10l-98 347h-5l-61 -347q-1 -10 -11 -10z" />
    <glyph glyph-name="Xi" unicode="&#x39e;" horiz-adv-x="543" 
d="M469 0h-455q-10 0 -9 10l27 154q1 10 12 10h456q9 0 8 -10l-28 -154q-1 -10 -11 -10zM466 255h-360q-9 0 -8 10l27 150q1 10 12 10h360q9 0 8 -10l-27 -150q-1 -10 -12 -10zM558 506h-456q-9 0 -8 10l28 154q1 10 11 10h457q9 0 8 -10l-28 -154q-1 -10 -12 -10z" />
    <glyph glyph-name="Omicron" unicode="&#x39f;" horiz-adv-x="606" 
d="M276 -12q-112 0 -175 57t-63 163q0 63 19 164q20 106 46 158q79 162 275 162q112 0 175 -57t63 -163q0 -64 -19 -165q-20 -104 -46 -157q-79 -162 -275 -162zM297 167q49 0 71 49q12 27 28 110q17 91 17 127q0 60 -56 60q-49 0 -71 -49q-12 -26 -28 -111
q-17 -91 -17 -126q0 -60 56 -60z" />
    <glyph glyph-name="Pi" unicode="&#x3a0;" horiz-adv-x="632" 
d="M200 0h-181q-9 0 -8 10l117 660q1 10 10 10h526q10 0 9 -10l-118 -660q-1 -10 -11 -10h-182q-10 0 -9 10l86 485q1 6 -4 6h-132q-6 0 -6 -6l-86 -485q-1 -10 -11 -10z" />
    <glyph glyph-name="Rho" unicode="&#x3a1;" horiz-adv-x="599" 
d="M201 0h-182q-9 0 -8 10l117 660q1 10 10 10h272q111 0 167.5 -47.5t56.5 -136.5q0 -130 -85 -206t-220 -76h-75q-6 0 -7 -6l-35 -198q-1 -10 -11 -10zM283 383h64q37 0 59 21t22 59q0 49 -58 49h-64q-6 0 -6 -6l-21 -117q0 -6 4 -6z" />
    <glyph glyph-name="Sigma" unicode="&#x3a3;" horiz-adv-x="571" 
d="M488 0h-485q-10 0 -9 10l27 153q1 7 4 10l152 166l-80 156q-3 5 -2 11l29 164q1 10 10 10h474q9 0 8 -10l-27 -155q-1 -12 -12 -12h-254v-1l83 -147q4 -7 -1 -12l-154 -163v-1h267q10 0 9 -9l-29 -161q-2 -9 -10 -9z" />
    <glyph glyph-name="Tau" unicode="&#x3a4;" horiz-adv-x="562" 
d="M338 0h-182q-10 0 -9 10l86 485q1 6 -4 6h-156q-10 0 -9 10l28 159q1 10 11 10h527q10 0 9 -10l-29 -159q-1 -10 -11 -10h-157q-6 0 -7 -6l-86 -485q-1 -10 -11 -10z" />
    <glyph glyph-name="Upsilon" unicode="&#x3a5;" horiz-adv-x="605" 
d="M361 0h-182q-10 0 -9 10l43 245l-132 414q-5 11 9 11h171q12 0 15 -10l62 -221h3l140 221q6 10 17 10h189q14 0 6 -11l-278 -414l-43 -245q-1 -10 -11 -10z" />
    <glyph glyph-name="Phi" unicode="&#x3a6;" horiz-adv-x="774" 
d="M421 -50h-158q-9 0 -8 10l9 51q-127 11 -179 72q-46 55 -46 156q0 65 12 131q12 68 46 137t88 108q67 44 195 49l10 56q1 10 11 10h157q9 0 8 -10l-10 -55q103 -8 154 -47q73 -55 73 -184q0 -112 -33 -207q-32 -94 -81 -140q-77 -74 -229 -75l-9 -52q-1 -10 -10 -10z
M292 168l60 340q-45 0 -67 -25q-27 -30 -45 -146q-12 -77 -12 -102q0 -36 14 -50.5t50 -16.5zM528 506l-60 -339q29 0 47 8q26 12 39.5 46.5t26.5 115.5q11 72 11 102q0 36 -14 50.5t-50 16.5z" />
    <glyph glyph-name="Chi" unicode="&#x3a7;" horiz-adv-x="628" 
d="M184 0h-208q-4 0 -5.5 3t1.5 7l273 350l-133 310q-4 10 7 10h188q12 0 16 -10l54 -133h3l96 133q7 10 18 10h196q4 0 5.5 -3t-1.5 -7l-238 -317l142 -343q4 -10 -7 -10h-185q-13 0 -17 10l-66 162h-2l-118 -162q-7 -10 -19 -10z" />
    <glyph glyph-name="Psi" unicode="&#x3a8;" horiz-adv-x="755" 
d="M467 0h-157q-9 0 -8 10l12 73q-246 29 -199 289l53 299q2 9 13 9h154q5 0 8 -2.5t2 -6.5l-57 -324q-10 -56 2.5 -78.5t51.5 -25.5l76 427q1 10 10 10h157q9 0 8 -10l-76 -428q45 5 64 28q21 27 31 90l55 311q1 9 12 9h155q5 0 8 -2.5t2 -6.5l-51 -288q-20 -109 -59 -175
q-70 -117 -245 -128l-12 -70q-1 -10 -10 -10z" />
    <glyph glyph-name="uni03A9" unicode="&#x3a9;" horiz-adv-x="615" 
d="M232 0h-226q-10 0 -9 10l25 139q1 10 11 10h38v1q-29 27 -29 102q0 42 7 78q21 124 54 184q91 168 286 168q107 0 167.5 -55.5t60.5 -159.5q0 -47 -16 -137q-23 -139 -84 -180v-1h38q10 0 9 -10l-25 -139q-1 -10 -11 -10h-227q-10 0 -9 10l23 131q1 10 12 16q30 20 41 50
q13 34 29 133q16 89 16 113q0 58 -56 60q-49 0 -73 -46q-11 -24 -30 -127q-17 -91 -17 -126q0 -37 23 -57q6 -6 5 -16l-23 -131q-1 -10 -10 -10z" />
    <glyph glyph-name="Iotadieresis" unicode="&#x3aa;" horiz-adv-x="289" 
d="M202 0h-182q-10 0 -9 10l117 660q1 10 11 10h182q10 0 9 -10l-117 -660q-1 -10 -11 -10zM402 742h-122q-10 0 -9 10l22 120q1 10 12 10h122q9 0 8 -10l-22 -120q-1 -10 -11 -10zM199 742h-122q-10 0 -9 10l22 120q1 10 12 10h122q9 0 8 -10l-22 -120q-1 -10 -11 -10z" />
    <glyph glyph-name="Upsilondieresis" unicode="&#x3ab;" horiz-adv-x="605" 
d="M361 0h-182q-10 0 -9 10l43 245l-132 414q-5 11 9 11h171q12 0 15 -10l62 -221h3l140 221q6 10 17 10h189q14 0 6 -11l-278 -414l-43 -245q-1 -10 -11 -10zM563 742h-122q-10 0 -9 10l22 120q1 10 12 10h122q9 0 8 -10l-22 -120q-1 -10 -11 -10zM360 742h-122
q-10 0 -9 10l22 120q1 10 12 10h122q9 0 8 -10l-22 -120q-1 -10 -11 -10z" />
    <glyph glyph-name="alphatonos" unicode="&#x3ac;" horiz-adv-x="565" 
d="M173 -12q-80 0 -117 42.5t-37 116.5q0 139 51 241q55 114 173 114q94 0 138 -68h1l27 55q8 17 24 11l131 -44q17 -6 9 -23l-98 -206q-1 -4 -1 -15q0 -23 15 -41t34 -18h3q11 0 9 -11l-25 -139q-2 -9 -11 -9h-9q-71 0 -102 8.5t-48 33.5q-5 5 -8 14h-1q-56 -62 -158 -62z
M252 142q32 0 48 31q8 18 17 64q10 46 10 68q0 42 -37 42q-33 0 -48 -32q-9 -18 -18 -62q-8 -46 -8 -73q0 -38 36 -38zM377 542h-122q-9 0 -5 10l74 174q4 10 16 10h173q6 0 7 -3.5t-2 -6.5l-126 -176q-8 -8 -15 -8z" />
    <glyph glyph-name="epsilontonos" unicode="&#x3ad;" horiz-adv-x="463" 
d="M214 -12q-109 0 -156.5 34t-47.5 98q0 100 96 140v1q-39 31 -39 85q0 73 60.5 114.5t172.5 41.5q86 0 147 -18q12 -4 14.5 -8t-0.5 -14l-19 -98q-1 -13 -17 -9q-53 10 -119 10q-50 0 -50 -30q0 -25 42 -25h53q15 0 13 -15l-15 -92q-1 -13 -16 -13h-69q-39 0 -39 -30
q0 -29 50 -29q59 0 124 9q16 4 17 -12l13 -105q1 -9 -1.5 -11.5t-11.5 -5.5q-56 -18 -202 -18zM365 542h-122q-9 0 -5 10l74 174q4 10 16 10h173q6 0 7 -3.5t-2 -6.5l-126 -176q-8 -8 -15 -8z" />
    <glyph glyph-name="etatonos" unicode="&#x3ae;" horiz-adv-x="570" 
d="M210 0h-174q-9 0 -8 10l55 306q3 15 3 24q0 17 -14 17q-12 0 -14.5 1.5t-1.5 10.5l21 116q1 10 11 10h13q71 0 102.5 -10t48.5 -43q7 -15 12 -38h2q65 98 164 98q128 0 128 -123q0 -27 -6 -59l-87 -490q-1 -10 -11 -10h-173q-10 0 -9 10l80 459q2 18 2 20q0 35 -34 35
q-41 0 -50 -54l-49 -280q-1 -10 -11 -10zM378 542h-122q-9 0 -5 10l74 174q4 10 16 10h173q12 0 5 -10l-126 -176q-8 -8 -15 -8z" />
    <glyph glyph-name="iotatonos" unicode="&#x3af;" horiz-adv-x="336" 
d="M173 -12q-73 0 -110 28.5t-37 96.5q0 31 9 73l62 294q1 10 12 10h173q9 0 8 -10l-59 -277q-4 -15 -4 -27q0 -29 33 -29q1 0 27 2q6 1 7.5 0t2.5 -8l13 -115q2 -11 -8 -16q-48 -22 -129 -22zM270 542h-122q-9 0 -5 10l74 174q4 10 16 10h173q12 0 5 -10l-126 -176
q-8 -8 -15 -8z" />
    <glyph glyph-name="upsilondieresistonos" unicode="&#x3b0;" horiz-adv-x="558" 
d="M251 -12q-190 0 -190 174q0 29 7 72l15 85q4 20 4 25q0 8 -4 10.5t-16 2.5q-8 0 -10.5 2t-1.5 10l21 116q1 10 12 10q108 0 151 -21t43 -88q0 -25 -7 -64l-22 -126q-11 -50 27 -50q36 0 47 50l48 284q1 10 10 10h174q10 0 9 -10l-38 -249q-16 -102 -71 -167
q-63 -76 -208 -76zM366 542h-113q-9 0 -5 10l50 174q3 10 17 10h160q4 0 5.5 -3.5t-0.5 -6.5l-98 -174q-6 -10 -16 -10zM595 542h-120q-10 0 -9 10l22 118q1 10 12 10h120q9 0 8 -10l-22 -118q-1 -10 -11 -10zM197 542h-120q-10 0 -9 10l21 118q1 10 12 10h121q7 0 6 -10
l-20 -118q-1 -10 -11 -10z" />
    <glyph glyph-name="alpha" unicode="&#x3b1;" horiz-adv-x="565" 
d="M173 -12q-80 0 -117 42.5t-37 116.5q0 139 51 241q55 114 173 114q94 0 138 -68h1l27 55q8 17 24 11l131 -44q17 -6 9 -23l-98 -206q-1 -4 -1 -15q0 -23 15 -41t34 -18h3q11 0 9 -11l-25 -139q-2 -9 -11 -9h-9q-71 0 -102 8.5t-48 33.5q-5 5 -8 14h-1q-56 -62 -158 -62z
M252 142q32 0 48 31q8 18 17 64q10 46 10 68q0 42 -37 42q-33 0 -48 -32q-9 -18 -18 -62q-8 -46 -8 -73q0 -38 36 -38z" />
    <glyph glyph-name="beta" unicode="&#x3b2;" horiz-adv-x="571" 
d="M154 -180h-170q-10 0 -8 11l105 600q23 131 87 195q27 27 64 42q56 24 135 24q84 0 140 -35q55 -34 55 -115q0 -101 -80 -161v-1q79 -31 79 -135q0 -131 -75 -202q-58 -55 -149 -55q-93 0 -132 57h-1l-37 -211q-3 -14 -13 -14zM287 137q36 0 55 28q19 29 19 71
q0 43 -52 43h-14q-9 0 -7 9l20 119q1 10 12 10h14q25 0 38 11q23 20 23 68q0 44 -52 44q-57 0 -71 -75l-44 -256q-2 -18 -2 -22q0 -50 61 -50z" />
    <glyph glyph-name="gamma" unicode="&#x3b3;" horiz-adv-x="535" 
d="M282 -181h-156q-10 0 -7 12l39 167l-46 234q-17 83 -26 102q-9 23 -31 23q-11 0 -11 10l20 114q1 14 17 14q109 0 146 -30q38 -28 52 -126l12 -91h1l44 94q40 84 52 136q4 12 17 12h156q11 0 7 -15q-18 -77 -115 -260l-122 -228l-36 -157q-2 -11 -13 -11z" />
    <glyph glyph-name="delta" unicode="&#x3b4;" horiz-adv-x="523" 
d="M231 -12q-89 0 -148 51q-58 52 -58 145q0 184 153 254v1l-5 5q-41 41 -41 92q0 72 56 114t155 42q104 0 176 -23q12 -4 15.5 -7t2.5 -10l-29 -118q-3 -11 -15 -7q-96 24 -124 24q-34 0 -34 -28q0 -12 6.5 -19t29.5 -23q65 -45 96.5 -94t31.5 -111q0 -77 -29 -143
q-24 -63 -83.5 -103.5t-155.5 -41.5zM244 141q26 0 40.5 20.5t23.5 69.5q5 30 5 44q0 56 -35 70q-34 -7 -53 -59q-18 -51 -18 -93q0 -52 37 -52z" />
    <glyph glyph-name="epsilon" unicode="&#x3b5;" horiz-adv-x="463" 
d="M214 -12q-109 0 -156.5 34t-47.5 98q0 100 96 140v1q-39 31 -39 85q0 73 60.5 114.5t172.5 41.5q86 0 147 -18q12 -4 14.5 -8t-0.5 -14l-19 -98q-1 -13 -17 -9q-53 10 -119 10q-50 0 -50 -30q0 -25 42 -25h53q15 0 13 -15l-15 -92q-1 -13 -16 -13h-69q-39 0 -39 -30
q0 -29 50 -29q59 0 124 9q16 4 17 -12l13 -105q1 -9 -1.5 -11.5t-11.5 -5.5q-56 -18 -202 -18z" />
    <glyph glyph-name="zeta" unicode="&#x3b6;" horiz-adv-x="437" 
d="M265 -179q-13 -11 -24 3l-51 62q-8 10 2 20q36 30 36 51q0 15 -8 23.5t-30 20.5q-79 41 -119 89t-40 114q0 184 206 336v1h-123q-8 0 -7 10l21 119q1 10 11 10h353q12 0 9 -12l-20 -119q-134 -91 -190 -159q-55 -67 -55 -140q0 -36 22 -64t74 -54q80 -41 80 -112
q0 -57 -33 -102t-114 -97z" />
    <glyph glyph-name="eta" unicode="&#x3b7;" horiz-adv-x="570" 
d="M210 0h-174q-9 0 -8 10l55 306q3 15 3 24q0 17 -14 17q-12 0 -14.5 1.5t-1.5 10.5l21 116q1 10 11 10h13q71 0 102.5 -10t48.5 -43q7 -15 12 -38h2q65 98 164 98q128 0 128 -123q0 -27 -6 -59l-87 -490q-1 -10 -11 -10h-173q-10 0 -9 10l80 459q2 18 2 20q0 35 -34 35
q-41 0 -50 -54l-49 -280q-1 -10 -11 -10z" />
    <glyph glyph-name="theta" unicode="&#x3b8;" horiz-adv-x="485" 
d="M211 -12q-182 0 -182 191q0 70 16 157q31 181 93 268q61 88 183 88q87 0 133 -51.5t46 -146.5q0 -69 -19 -167q-22 -118 -56 -193q-60 -141 -214 -146zM227 143q23 0 39 16q16 15 38 125h-102q-13 -69 -13 -100q0 -23 9 -32t29 -9zM236 449l-12 -51h102q14 82 14 100
q0 23 -9.5 32t-28.5 9q-27 0 -40 -19.5t-26 -70.5z" />
    <glyph glyph-name="iota" unicode="&#x3b9;" horiz-adv-x="336" 
d="M173 -12q-73 0 -110 28.5t-37 96.5q0 31 9 73l62 294q1 10 12 10h173q9 0 8 -10l-59 -277q-4 -15 -4 -27q0 -29 33 -29q1 0 27 2q6 1 7.5 0t2.5 -8l13 -115q2 -11 -8 -16q-48 -22 -129 -22z" />
    <glyph glyph-name="kappa" unicode="&#x3ba;" horiz-adv-x="564" 
d="M190 0h-174q-8 0 -7 10l83 470q1 10 11 10h174q9 0 8 -10l-28 -159l109 108q38 38 66 52t71 14h64q9 0 8 -10l-21 -119q-1 -10 -12 -10h-9q-16 0 -30 -9t-42 -36l-54 -52l123 -249q2 -10 -7 -10h-180q-8 0 -12 10l-54 131l-63 -60l-12 -71q-1 -10 -12 -10z" />
    <glyph glyph-name="lambda" unicode="&#x3bb;" horiz-adv-x="564" 
d="M176 0h-176q-8 0 -4 9l262 437l-12 52q-7 27 -16.5 35t-36.5 8h-8q-10 0 -9 10l20 115q3 14 15 14h51q69 0 103 -26t50 -111l69 -344q6 -31 14.5 -38.5t34.5 -7.5h6q13 0 10 -15l-24 -134q-1 -10 -14 -10h-29q-88 0 -125 21q-35 22 -46 90l-15 103h-4l-104 -199
q-4 -9 -12 -9z" />
    <glyph glyph-name="uni03BC" unicode="&#x3bc;" horiz-adv-x="576" 
d="M158 -180h-176q-8 0 -6 9l115 652q1 9 11 9h174q8 0 7 -9l-50 -281q0 -3 -0.5 -5.5t-1 -4.5t-0.5 -3.5v-2.5q0 -39 34 -39q42 0 51 55l49 281q1 9 12 9h173q10 0 7 -9l-49 -274q-1 -8 -2.5 -17t-2 -13t-0.5 -5q0 -20 25 -20q8 0 7 -9l-25 -136q-1 -13 -12 -13h-17
q-78 0 -107 10q-30 10 -43 34l-7 14h-2q-36 -55 -116 -63l-10 -1l-1 -4l-27 -155q-2 -9 -10 -9z" />
    <glyph glyph-name="nu" unicode="&#x3bd;" horiz-adv-x="534" 
d="M318 0h-164q-8 0 -9 9l-88 470q-2 11 9 11h176q10 0 12 -12l21 -238h2l33 67q60 124 70 169q5 14 16 14h160q5 0 5 -9q-16 -83 -112 -258l-119 -214q-4 -9 -12 -9z" />
    <glyph glyph-name="xi" unicode="&#x3be;" horiz-adv-x="449" 
d="M265 -174q-22 -15 -31 -3l-52 63q-5 5 -5 10q0 4 6 9q37 33 37 55q0 13 -9.5 22.5t-38.5 23.5q-84 41 -115 78t-31 98q0 51 33.5 97t90.5 67v2q-27 11 -43.5 34.5t-16.5 53.5q0 37 24 66.5t58 38.5v1h-76q-8 0 -8 6v3l21 119q1 10 11 10h364q9 0 9 -9v-4l-22 -121
q-97 0 -138.5 -14t-41.5 -50q0 -26 20.5 -35t85.5 -9h14q8 0 8 -8v-3l-22 -126q-2 -11 -14 -11h-29q-128 0 -128 -76q0 -17 23 -40l32 -19q2 -1 45 -24q78 -44 78 -112q0 -53 -30 -96q-29 -44 -109 -97z" />
    <glyph glyph-name="omicron" unicode="&#x3bf;" horiz-adv-x="522" 
d="M226 -12q-95 0 -150 49t-55 140q0 104 39 185q69 140 247 140q95 0 150 -49t55 -140q0 -104 -39 -185q-69 -140 -247 -140zM248 143q32 0 47 31q9 18 18 65q9 46 9 67q0 41 -37 41q-32 0 -47 -31q-9 -18 -18 -65t-9 -67q0 -41 37 -41z" />
    <glyph glyph-name="pi" unicode="&#x3c0;" horiz-adv-x="631" 
d="M234 0h-172q-10 0 -9 10l54 309q1 6 -4 6h-39q-9 0 -8 10l25 145q1 10 12 10h541q9 0 8 -10l-24 -145q-1 -10 -13 -10h-39q-6 0 -8 -6l-22 -126l-2 -18q0 -22 25 -22h10q10 0 9 -10l-25 -139q-1 -10 -12 -10h-49q-80 0 -116 27.5t-36 94.5q0 28 6 64l24 139q2 6 -4 6h-59
q-7 0 -8 -6l-55 -309q-1 -10 -10 -10z" />
    <glyph glyph-name="rho" unicode="&#x3c1;" horiz-adv-x="539" 
d="M147 -180h-171q-9 0 -8 10l73 409q27 151 92 207t185 56q100 0 156 -51.5t56 -148.5q0 -73 -23.5 -140.5t-69.5 -113.5q-60 -60 -145 -60q-72 0 -98 38h-1l-35 -196q-1 -10 -11 -10zM224 184q0 -41 37 -41q32 0 47 31q9 20 16 63q9 47 9 68q0 42 -37 42q-32 0 -47 -31
q-8 -18 -17 -64q-8 -50 -8 -68z" />
    <glyph glyph-name="sigma1" unicode="&#x3c2;" horiz-adv-x="432" 
d="M261 -179q-13 -10 -23 2l-53 64q-8 11 3 19q36 29 36 53q0 26 -39 52q-69 46 -93 73q-57 64 -57 156q0 96 57 173q30 41 84 65t123 24q109 0 167 -30q11 -5 6 -16l-42 -120q-6 -16 -22 -10q-54 18 -88 18q-39 0 -64 -26t-25 -68q0 -29 17 -58q5 -9 23 -23l25 -17l33 -20
q45 -27 62 -52t17 -64q0 -54 -33.5 -99t-113.5 -96z" />
    <glyph glyph-name="sigma" unicode="&#x3c3;" horiz-adv-x="563" 
d="M221 -12q-103 0 -155 55q-51 55 -51 138q0 162 87 243q70 66 190 66h287q9 0 8 -9l-22 -126q-1 -9 -12 -9l-71 1v-1q17 -19 17 -76q0 -44 -19 -101q-18 -56 -59 -102q-73 -79 -200 -79zM241 143q35 0 49 32q6 15 14 57q10 43 10 66q0 44 -19 51h-7q-36 0 -49 -18
q-11 -17 -25 -78q-9 -45 -9 -66q0 -44 36 -44z" />
    <glyph glyph-name="tau" unicode="&#x3c4;" horiz-adv-x="465" 
d="M265 -12q-66 0 -106 22q-47 26 -47 102q0 22 8 67l28 140q2 6 -4 6h-95q-8 0 -7 10l25 145q1 10 11 10h401q8 0 7 -10l-25 -145q-1 -10 -12 -10h-101q-6 0 -7 -6l-22 -107q-6 -24 -6 -35q0 -30 31 -30l4 1q3 0 10.5 0.5t15.5 0.5q6 1 7 -0.5t2 -8.5l13 -113q2 -12 -8 -17
q-44 -22 -123 -22z" />
    <glyph glyph-name="upsilon" unicode="&#x3c5;" horiz-adv-x="558" 
d="M251 -12q-190 0 -190 174q0 29 7 72l15 85q4 20 4 25q0 8 -4 10.5t-16 2.5q-8 0 -10.5 2t-1.5 10l21 116q1 10 12 10q108 0 151 -21t43 -88q0 -25 -7 -64l-22 -126q-11 -50 27 -50q36 0 47 50l48 284q1 10 10 10h174q10 0 9 -10l-38 -249q-16 -102 -71 -167
q-63 -76 -208 -76z" />
    <glyph glyph-name="phi" unicode="&#x3c6;" horiz-adv-x="700" 
d="M354 -180h-150q-8 0 -7 10l26 151q-94 4 -148 57t-54 150q0 140 76 231q77 92 219 92l16 89q1 10 11 10h150q8 0 7 -10l-16 -89q98 -4 151.5 -56t53.5 -146q0 -141 -78 -235q-77 -93 -219 -93l-27 -151q-1 -10 -11 -10zM250 133l41 233q-39 -3 -56.5 -24.5t-29.5 -79.5
q-11 -55 -11 -75q0 -28 13 -41t43 -13zM459 366l-41 -233q39 3 56.5 24.5t29.5 79.5q11 55 11 75q0 28 -13 41t-43 13z" />
    <glyph glyph-name="chi" unicode="&#x3c7;" horiz-adv-x="596" 
d="M125 -180h-170q-8 0 -2 8l249 338l-51 122q-18 45 -32 56q-13 12 -44 12q-7 0 -9.5 3t-0.5 11l20 115q1 10 12 10h73q57 0 91 -31.5t59 -100.5l10 -28h1l95 144q8 11 17 11h186q2 0 3.5 -1.5t1.5 -4.5t-3 -7l-229 -307l61 -150q9 -23 19 -33.5t17.5 -12t24.5 -1.5h16
q11 0 9 -14l-24 -133q-1 -12 -15 -12h-27q-64 0 -99.5 15.5t-55.5 57.5l-51 107h-1l-122 -163q-8 -11 -29 -11z" />
    <glyph glyph-name="psi" unicode="&#x3c8;" horiz-adv-x="753" 
d="M396 -180h-153q-9 0 -8 10l27 158q-102 2 -148.5 44t-46.5 133q0 30 8 76l13 72q1 5 2 10.5t1.5 9t1 6.5t0.5 5v1q0 12 -19 12q-10 0 -12.5 2.5t-0.5 10.5l21 115q1 10 10 10h34q59 0 94 -18q47 -20 47 -91q0 -28 -6 -60l-19 -100q-4 -20 -4 -32q0 -48 52 -49l80 454
q1 10 12 10h153q9 0 8 -10l-80 -454q39 1 55.5 17.5t24.5 61.5l43 256q1 10 11 10h154q9 0 8 -10l-39 -251q-20 -125 -88 -183t-196 -58l-28 -158q-1 -10 -12 -10z" />
    <glyph glyph-name="omega" unicode="&#x3c9;" horiz-adv-x="712" 
d="M174 -12q-71 0 -112 49t-41 141q0 101 38 185q38 85 84 125q15 11 25 7l131 -46q14 -5 2 -21q-42 -57 -67 -121.5t-25 -117.5q0 -44 30 -44q19 0 27.5 14.5t16.5 58.5l17 102q3 16 15 16h125q8 0 10 -3.5t-1 -12.5l-17 -100q-5 -37 -5 -46q0 -16 5.5 -22.5t19.5 -6.5
q14 -2 25.5 8.5t21 42t9.5 80.5q0 52 -23 144q-3 12 6 15l144 61q11 4 15 -3q51 -77 51 -215q0 -57 -22 -125q-15 -48 -35 -79q-22 -37 -63 -61.5t-91 -24.5q-125 0 -145 92h-4q-44 -92 -167 -92z" />
    <glyph glyph-name="iotadieresis" unicode="&#x3ca;" horiz-adv-x="336" 
d="M173 -12q-73 0 -110 28.5t-37 96.5q0 31 9 73l62 294q1 10 12 10h173q9 0 8 -10l-59 -277q-4 -15 -4 -27q0 -29 33 -29q1 0 27 2q6 1 7.5 0t2.5 -8l13 -115q2 -11 -8 -16q-48 -22 -129 -22zM364 544h-122q-10 0 -9 10l22 120q1 10 12 10h122q9 0 8 -10l-22 -120
q-1 -10 -11 -10zM161 544h-122q-10 0 -9 10l22 120q1 10 12 10h122q9 0 8 -10l-22 -120q-1 -10 -11 -10z" />
    <glyph glyph-name="upsilondieresis" unicode="&#x3cb;" horiz-adv-x="558" 
d="M251 -12q-190 0 -190 174q0 29 7 72l15 85q4 20 4 25q0 8 -4 10.5t-16 2.5q-8 0 -10.5 2t-1.5 10l21 116q1 10 12 10q108 0 151 -21t43 -88q0 -25 -7 -64l-22 -126q-11 -50 27 -50q36 0 47 50l48 284q1 10 10 10h174q10 0 9 -10l-38 -249q-16 -102 -71 -167
q-63 -76 -208 -76zM501 544h-122q-10 0 -9 10l22 120q1 10 12 10h122q9 0 8 -10l-22 -120q-1 -10 -11 -10zM298 544h-122q-10 0 -9 10l22 120q1 10 12 10h122q9 0 8 -10l-22 -120q-1 -10 -11 -10z" />
    <glyph glyph-name="omicrontonos" unicode="&#x3cc;" horiz-adv-x="522" 
d="M226 -12q-95 0 -150 49t-55 140q0 104 39 185q69 140 247 140q95 0 150 -49t55 -140q0 -104 -39 -185q-69 -140 -247 -140zM248 143q32 0 47 31q9 18 18 65q9 46 9 67q0 41 -37 41q-32 0 -47 -31q-9 -18 -18 -65t-9 -67q0 -41 37 -41zM373 542h-122q-9 0 -5 10l74 174
q4 10 16 10h173q6 0 7 -3.5t-2 -6.5l-126 -176q-8 -8 -15 -8z" />
    <glyph glyph-name="upsilontonos" unicode="&#x3cd;" horiz-adv-x="558" 
d="M251 -12q-190 0 -190 174q0 29 7 72l15 85q4 20 4 25q0 8 -4 10.5t-16 2.5q-8 0 -10.5 2t-1.5 10l21 116q1 10 12 10q108 0 151 -21t43 -88q0 -25 -7 -64l-22 -126q-11 -50 27 -50q36 0 47 50l48 284q1 10 10 10h174q10 0 9 -10l-38 -249q-16 -102 -71 -167
q-63 -76 -208 -76zM387 542h-122q-9 0 -5 10l74 174q4 10 16 10h173q12 0 5 -10l-126 -176q-8 -8 -15 -8z" />
    <glyph glyph-name="omegatonos" unicode="&#x3ce;" horiz-adv-x="712" 
d="M174 -12q-71 0 -112 49t-41 141q0 101 38 185q38 85 84 125q15 11 25 7l131 -46q14 -5 2 -21q-42 -57 -67 -121.5t-25 -117.5q0 -44 30 -44q19 0 27.5 14.5t16.5 58.5l17 102q3 16 15 16h125q8 0 10 -3.5t-1 -12.5l-17 -100q-5 -37 -5 -46q0 -16 5.5 -22.5t19.5 -6.5
q14 -2 25.5 8.5t21 42t9.5 80.5q0 52 -23 144q-3 12 6 15l144 61q11 4 15 -3q51 -77 51 -215q0 -57 -22 -125q-15 -48 -35 -79q-22 -37 -63 -61.5t-91 -24.5q-125 0 -145 92h-4q-44 -92 -167 -92zM456 542h-122q-9 0 -5 10l74 174q4 10 16 10h173q12 0 5 -10l-126 -176
q-8 -8 -15 -8z" />
    <glyph glyph-name="uni0400" unicode="&#x400;" horiz-adv-x="533" 
d="M460 0h-441q-9 0 -8 10l117 660q1 10 10 10h442q9 0 8 -10l-27 -148q-1 -10 -10 -10h-246q-5 0 -6 -6l-13 -75q-2 -6 4 -6h196q9 0 8 -10l-25 -144q-1 -10 -12 -10h-196q-5 0 -6 -6l-15 -81q-2 -6 5 -6h244q9 0 8 -10l-26 -148q-1 -10 -11 -10zM437 739h-128
q-10 0 -19 10l-107 131q-6 10 6 10h151q12 0 19 -10l83 -131q6 -10 -5 -10z" />
    <glyph glyph-name="uni0401" unicode="&#x401;" horiz-adv-x="533" 
d="M460 0h-441q-9 0 -8 10l117 660q1 10 10 10h442q9 0 8 -10l-27 -148q-1 -10 -10 -10h-246q-5 0 -6 -6l-13 -75q-2 -6 4 -6h196q9 0 8 -10l-25 -144q-1 -10 -12 -10h-196q-5 0 -6 -6l-15 -81q-2 -6 5 -6h244q9 0 8 -10l-26 -148q-1 -10 -11 -10zM533 742h-122q-10 0 -9 10
l22 120q1 10 12 10h122q9 0 8 -10l-22 -120q-1 -10 -11 -10zM330 742h-122q-10 0 -9 10l22 120q1 10 12 10h122q9 0 8 -10l-22 -120q-1 -10 -11 -10z" />
    <glyph glyph-name="uni0402" unicode="&#x402;" horiz-adv-x="762" 
d="M338 0h-181q-10 0 -9 10l87 496q1 6 -4 6h-156q-10 0 -9 10l26 148q1 10 11 10h527q10 0 9 -10l-27 -148q-1 -10 -11 -10h-157q-6 0 -7 -6l-16 -90q-1 -4 3 -6.5t7 -1.5q1 0 10 2.5t18.5 4.5t14.5 2q44 4 76 4q86 0 137 -46t51 -132q0 -115 -69.5 -179t-191.5 -64h-68
q-11 0 -10 10l24 139q1 9 12 9h21q78 0 78 59q0 19 -13.5 31.5t-41.5 12.5q-32 0 -80 -12q-9 -3 -10 -13l-39 -226q-1 -10 -12 -10z" />
    <glyph glyph-name="uni0403" unicode="&#x403;" horiz-adv-x="490" 
d="M201 0h-181q-10 0 -9 10l117 660q1 10 11 10h419q10 0 9 -10l-28 -159q-1 -10 -12 -10h-221q-6 0 -7 -6l-86 -485q-1 -10 -12 -10zM378 739h-132q-4 0 -5.5 3t1.5 7l130 131q10 10 22 10h158q5 0 6.5 -3t-2.5 -7l-153 -131q-10 -10 -25 -10z" />
    <glyph glyph-name="uni0404" unicode="&#x404;" horiz-adv-x="583" 
d="M284 -12q-119 0 -183 56.5t-64 162.5q0 63 18 163q20 105 47 160q80 162 273 162q93 0 154.5 -42t78.5 -117q3 -11 -7 -15l-146 -58q-12 -4 -15 6q-15 57 -74 57q-42 0 -67 -33q-15 -22 -25 -57q-2 -8 6 -8h135q10 0 9 -10l-26 -143q-2 -9 -11 -9h-131q-12 0 -14 -8
q-3 -15 -3 -28q0 -70 70 -70q51 0 88 58q8 11 16 7l135 -65q10 -5 3 -15q-94 -154 -267 -154z" />
    <glyph glyph-name="uni0405" unicode="&#x405;" horiz-adv-x="595" 
d="M265 -12q-81 0 -158 30q-75 29 -109 71q-8 11 2 18l120 117q9 9 15 0q25 -28 65.5 -45t82.5 -17q41 0 64.5 14t23.5 37q0 30 -57 39l-35 5q-196 28 -196 177q0 116 79 186q80 72 214 72q148 0 239 -79q8 -6 -1 -17l-107 -121q-8 -8 -16 -2q-58 46 -130 46
q-30 0 -49 -12.5t-19 -31.5q0 -29 58 -38l34 -5q197 -29 197 -179q0 -123 -86 -194t-231 -71z" />
    <glyph glyph-name="uni0406" unicode="&#x406;" horiz-adv-x="289" 
d="M202 0h-182q-10 0 -9 10l117 660q1 10 11 10h182q10 0 9 -10l-117 -660q-1 -10 -11 -10z" />
    <glyph glyph-name="uni0407" unicode="&#x407;" horiz-adv-x="289" 
d="M202 0h-182q-10 0 -9 10l117 660q1 10 11 10h182q10 0 9 -10l-117 -660q-1 -10 -11 -10zM402 742h-122q-10 0 -9 10l22 120q1 10 12 10h122q9 0 8 -10l-22 -120q-1 -10 -11 -10zM199 742h-122q-10 0 -9 10l22 120q1 10 12 10h122q9 0 8 -10l-22 -120q-1 -10 -11 -10z" />
    <glyph glyph-name="uni0408" unicode="&#x408;" horiz-adv-x="519" 
d="M197 -12q-78 0 -136.5 28.5t-76.5 73.5q-3 8 4 14l143 98q9 5 12 -1q24 -34 60 -34q68 0 83 85l75 418q1 10 10 10h183q10 0 9 -10l-78 -429q-46 -253 -288 -253z" />
    <glyph glyph-name="uni0409" unicode="&#x409;" horiz-adv-x="1005" 
d="M67 -6h-94q-10 0 -9 10l28 153q2 9 12 9h16q85 0 114 161l61 344q1 9 10 9h499q8 0 7 -9l-36 -203q-1 -6 5 -6h85q108 0 161.5 -50.5t53.5 -144.5q0 -127 -77 -197t-211 -70h-292q-9 0 -8 10l86 485q2 6 -5 6h-105q-6 0 -7 -6l-30 -168q-31 -184 -94 -259
q-62 -74 -170 -74zM627 170h66q37 0 59 21t22 59q0 49 -58 49h-66q-4 0 -6 -6l-21 -117q-1 -6 4 -6z" />
    <glyph glyph-name="uni040A" unicode="&#x40a;" horiz-adv-x="962" 
d="M202 0h-182q-10 0 -9 10l117 660q1 10 11 10h182q10 0 9 -10l-39 -224q-1 -6 4 -6h138q5 0 7 6l40 224q1 10 11 10h182q10 0 9 -10l-39 -224q-1 -6 5 -6h92q93 0 145.5 -49.5t52.5 -136.5q0 -119 -77 -187q-76 -67 -203 -67h-286q-10 0 -9 10l43 245q2 6 -5 6h-138
q-5 0 -6 -6l-44 -245q-1 -10 -11 -10zM597 161h64q37 0 59 21t22 59q0 49 -58 49h-64q-4 0 -6 -6l-21 -117q-1 -6 4 -6z" />
    <glyph glyph-name="uni040B" unicode="&#x40b;" horiz-adv-x="745" 
d="M338 0h-181q-10 0 -9 10l87 496q1 6 -4 6h-156q-10 0 -9 10l26 148q1 10 11 10h527q10 0 9 -10l-27 -148q-1 -10 -11 -10h-157q-6 0 -7 -6l-16 -92q-1 -3 2 -5t6 -1q87 14 150 14q32 0 59 -9t51.5 -31.5t31.5 -61t-1 -97.5l-38 -214q-2 -9 -10 -9h-183q-11 0 -9 9l34 193
q4 22 -7 34t-42 12q-18 0 -66 -12q-10 -3 -11 -13l-38 -213q-1 -10 -12 -10z" />
    <glyph glyph-name="uni040C" unicode="&#x40c;" horiz-adv-x="637" 
d="M202 0h-182q-10 0 -9 10l117 660q1 10 11 10h182q10 0 9 -10l-41 -231q-1 -6 4 -6h14q51 0 73 43l56 105q31 59 73.5 82t106.5 23h66q10 0 9 -10l-26 -147q-1 -9 -12 -9h-16q-29 0 -52 -41l-38 -69q-25 -46 -53 -52v-4q29 -11 40 -68l14 -73q9 -47 50 -47h7q9 0 8 -9
l-27 -153q-1 -10 -11 -10h-76q-115 0 -135 122l-13 81q-9 39 -26.5 50t-45.5 10h-17q-4 0 -6 -6l-43 -241q-1 -10 -11 -10zM458 739h-132q-4 0 -5.5 3t1.5 7l130 131q10 10 22 10h158q5 0 6.5 -3t-2.5 -7l-153 -131q-10 -10 -25 -10z" />
    <glyph glyph-name="uni040D" unicode="&#x40d;" horiz-adv-x="650" 
d="M181 0h-162q-9 0 -8 10l117 661q2 9 10 9h184q10 0 8 -9l-53 -299h3l221 297q9 11 19 11h163q9 0 8 -9l-117 -661q-1 -10 -10 -10h-184q-9 0 -8 10l53 301h-3l-220 -299q-9 -12 -21 -12zM487 739h-128q-10 0 -19 10l-107 131q-6 10 6 10h151q12 0 19 -10l83 -131
q6 -10 -5 -10z" />
    <glyph glyph-name="uni040E" unicode="&#x40e;" horiz-adv-x="629" 
d="M191 -6h-103q-11 0 -10 10l27 153q1 9 13 9h43q49 0 69 32l7 10l-141 459q-2 6 1 9.5t7 3.5h184q14 0 16 -9l62 -232h3l124 232q5 9 15 9h201q13 0 5 -12l-342 -565q-66 -109 -181 -109zM401 724q-136 0 -148 129q-2 13 8 14l90 11q8 1 10 -7q3 -16 18 -25t36 -9
q44 0 60 34q5 8 13 7l94 -11q8 -2 2 -14q-24 -68 -67 -98.5t-116 -30.5z" />
    <glyph glyph-name="uni040F" unicode="&#x40f;" horiz-adv-x="653" 
d="M349 -110h-164q-8 0 -6 11l15 93q2 6 -4 6h-171q-9 0 -8 9l117 661q1 10 10 10h184q9 0 8 -10l-86 -485q-2 -6 9 -6h126q5 0 7 6l86 485q1 10 10 10h183q4 0 7 -3t2 -7l-117 -661q-1 -9 -12 -9h-160q-7 0 -8 -6l-15 -93q-2 -11 -13 -11z" />
    <glyph glyph-name="uni0410" unicode="&#x410;" horiz-adv-x="691" 
d="M184 0h-201q-10 0 -6 10l346 660q4 10 13 10h197q10 0 11 -10l107 -660q1 -10 -7 -10h-190q-11 0 -12 10l-9 93h-194l-41 -93q-4 -10 -14 -10zM399 458l-85 -189h104l-17 189h-2z" />
    <glyph glyph-name="uni0411" unicode="&#x411;" horiz-adv-x="590" 
d="M305 0h-286q-9 0 -8 10l117 661q2 9 10 9h459q8 0 8 -9l-27 -151q-1 -10 -11 -10h-260q-5 0 -7 -6l-10 -58q-2 -6 5 -6h92q93 0 145.5 -49.5t52.5 -136.5q0 -119 -77 -187q-76 -67 -203 -67zM244 161h64q37 0 59 21t22 59q0 49 -58 49h-64q-5 0 -6 -6l-21 -117
q-2 -6 4 -6z" />
    <glyph glyph-name="uni0412" unicode="&#x412;" horiz-adv-x="590" 
d="M306 0h-287q-9 0 -8 10l117 660q1 10 10 10h282q191 0 191 -141q0 -62 -30 -112.5t-81 -72.5v-4q73 -32 73 -122q0 -104 -75 -166q-74 -62 -192 -62zM242 145h44q39 0 61 23.5t22 67.5q0 49 -58 49h-44q-5 0 -7 -6l-22 -128q-2 -6 4 -6zM288 411h34q39 0 61 20.5t22 58.5
q0 25 -14.5 35.5t-46.5 10.5h-33q-5 0 -7 -6l-20 -113q-2 -6 4 -6z" />
    <glyph glyph-name="uni0413" unicode="&#x413;" horiz-adv-x="490" 
d="M201 0h-181q-10 0 -9 10l117 660q1 10 11 10h419q10 0 9 -10l-28 -159q-1 -10 -12 -10h-221q-6 0 -7 -6l-86 -485q-1 -10 -12 -10z" />
    <glyph glyph-name="uni0414" unicode="&#x414;" horiz-adv-x="712" 
d="M126 -110h-166q-8 0 -6 11l45 268q1 9 11 9h32q15 0 21 10q48 74 78 151q30 80 51 194l25 138q1 9 11 9h492q3 0 6 -3t2 -7l-86 -486q-2 -6 5 -6h51q10 0 8 -9l-46 -268q-2 -11 -11 -11h-167q-8 0 -6 11l15 93q1 6 -4 6h-327q-6 0 -8 -6l-15 -93q-2 -11 -11 -11zM277 178
h157q6 0 7 6l56 316q1 6 -5 6h-102q-6 0 -7 -6l-3 -16q-15 -87 -46 -168q-29 -81 -62 -129q-8 -9 5 -9z" />
    <glyph glyph-name="uni0415" unicode="&#x415;" horiz-adv-x="533" 
d="M460 0h-441q-9 0 -8 10l117 660q1 10 10 10h442q9 0 8 -10l-27 -148q-1 -10 -10 -10h-246q-5 0 -6 -6l-13 -75q-2 -6 4 -6h196q9 0 8 -10l-25 -144q-1 -10 -12 -10h-196q-5 0 -6 -6l-15 -81q-2 -6 5 -6h244q9 0 8 -10l-26 -148q-1 -10 -11 -10z" />
    <glyph glyph-name="uni0416" unicode="&#x416;" horiz-adv-x="957" 
d="M46 -6h-52q-10 0 -9 10l27 153q2 9 12 9h13q16 0 26.5 11t27.5 43l40 80q24 49 70 56v4q-18 11 -28 58l-13 56q-10 46 -54 46h-10q-14 0 -11 13l26 143q1 10 11 10h55q129 0 149 -93l12 -55q22 -106 74 -106h4q6 0 7 6l41 232q1 10 14 10h178q10 0 9 -10l-41 -232
q-2 -6 4 -6h4q49 0 72 44l56 105q31 59 73.5 82t106.5 23h66q10 0 9 -10l-26 -147q-1 -9 -12 -9h-12q-30 0 -53 -41l-41 -74q-24 -41 -53 -48v-4q25 -9 39 -74l12 -66q9 -47 56 -47h4q9 0 8 -9l-27 -153q-1 -10 -11 -10h-62q-128 0 -148 122l-13 81q-10 61 -68 61h-10
q-6 0 -7 -6l-43 -242q-1 -10 -12 -10h-180q-10 0 -9 10l43 242q2 6 -4 6h-5q-57 0 -88 -63l-34 -68q-34 -67 -73 -101q-17 -14 -40 -21q-39 -11 -100 -11z" />
    <glyph glyph-name="uni0417" unicode="&#x417;" horiz-adv-x="560" 
d="M266 -12q-83 0 -156.5 24.5t-114.5 67.5q-5 8 3 15l104 123q4 6 12 1q78 -60 144 -60q32 0 54.5 15.5t22.5 44.5q0 47 -60 47h-73q-8 0 -7 10l25 140q2 11 11 11h72q30 0 49.5 15t19.5 41q0 39 -61 39q-77 0 -149 -42q-10 -5 -14 2l-59 127q-3 7 3 12q124 71 256 71
q110 0 170.5 -46.5t60.5 -125.5q0 -54 -29 -98t-78 -67v-4q30 -13 49.5 -50.5t19.5 -81.5q0 -101 -83 -166t-192 -65z" />
    <glyph glyph-name="uni0418" unicode="&#x418;" horiz-adv-x="650" 
d="M181 0h-162q-9 0 -8 10l117 661q2 9 10 9h184q10 0 8 -9l-53 -299h3l221 297q9 11 19 11h163q9 0 8 -9l-117 -661q-1 -10 -10 -10h-184q-9 0 -8 10l53 301h-3l-220 -299q-9 -12 -21 -12z" />
    <glyph glyph-name="uni0419" unicode="&#x419;" horiz-adv-x="650" 
d="M181 0h-162q-9 0 -8 10l117 661q2 9 10 9h184q10 0 8 -9l-53 -299h3l221 297q9 11 19 11h163q9 0 8 -9l-117 -661q-1 -10 -10 -10h-184q-9 0 -8 10l53 301h-3l-220 -299q-9 -12 -21 -12zM412 724q-136 0 -148 129q-2 13 8 14l90 11q8 1 10 -7q3 -16 18 -25t36 -9
q44 0 60 34q5 8 13 7l94 -11q8 -2 2 -14q-24 -68 -67 -98.5t-116 -30.5z" />
    <glyph glyph-name="uni041A" unicode="&#x41a;" horiz-adv-x="637" 
d="M202 0h-182q-10 0 -9 10l117 660q1 10 11 10h182q10 0 9 -10l-41 -231q-1 -6 4 -6h14q51 0 73 43l56 105q31 59 73.5 82t106.5 23h66q10 0 9 -10l-26 -147q-1 -9 -12 -9h-16q-29 0 -52 -41l-38 -69q-25 -46 -53 -52v-4q29 -11 40 -68l14 -73q9 -47 50 -47h7q9 0 8 -9
l-27 -153q-1 -10 -11 -10h-76q-115 0 -135 122l-13 81q-9 39 -26.5 50t-45.5 10h-17q-4 0 -6 -6l-43 -241q-1 -10 -11 -10z" />
    <glyph glyph-name="uni041B" unicode="&#x41b;" horiz-adv-x="678" 
d="M74 -6h-94q-10 0 -9 10l27 153q2 9 12 9h16q86 0 115 161l61 344q2 9 10 9h499q9 0 7 -9l-117 -661q-1 -10 -8 -10h-186q-9 0 -8 10l86 485q1 6 -5 6h-105q-5 0 -7 -6l-30 -168q-31 -184 -94 -259q-62 -74 -170 -74z" />
    <glyph glyph-name="uni041C" unicode="&#x41c;" horiz-adv-x="759" 
d="M182 0h-163q-9 0 -8 10l117 660q1 10 10 10h168q12 0 15 -10l79 -326h4l190 326q4 10 18 10h179q10 0 9 -10l-117 -660q-1 -10 -11 -10h-163q-10 0 -9 10l57 323h-4l-129 -227q-7 -13 -20 -13h-85q-16 0 -17 13l-49 227h-4l-56 -323q-1 -10 -11 -10z" />
    <glyph glyph-name="uni041D" unicode="&#x41d;" horiz-adv-x="641" 
d="M202 0h-182q-10 0 -9 10l117 660q1 10 11 10h182q10 0 9 -10l-40 -229q-2 -6 4 -6h138q6 0 7 6l41 229q1 10 11 10h182q10 0 9 -10l-117 -660q-1 -10 -11 -10h-182q-10 0 -9 10l42 240q1 6 -5 6h-138q-4 0 -6 -6l-43 -240q-1 -10 -11 -10z" />
    <glyph glyph-name="uni041E" unicode="&#x41e;" horiz-adv-x="606" 
d="M276 -12q-112 0 -175 57t-63 163q0 63 19 164q20 106 46 158q79 162 275 162q112 0 175 -57t63 -163q0 -64 -19 -165q-20 -104 -46 -157q-79 -162 -275 -162zM297 167q49 0 71 49q12 27 28 110q17 91 17 127q0 60 -56 60q-49 0 -71 -49q-12 -26 -28 -111
q-17 -91 -17 -126q0 -60 56 -60z" />
    <glyph glyph-name="uni041F" unicode="&#x41f;" horiz-adv-x="633" 
d="M203 0h-184q-9 0 -8 10l117 661q2 9 10 9h526q5 0 8 -2.5t2 -6.5l-117 -661q-1 -10 -11 -10h-184q-8 0 -7 10l86 485q1 6 -5 6h-130q-6 0 -7 -6l-86 -485q-1 -10 -10 -10z" />
    <glyph glyph-name="uni0420" unicode="&#x420;" horiz-adv-x="599" 
d="M201 0h-182q-9 0 -8 10l117 660q1 10 10 10h272q111 0 167.5 -47.5t56.5 -136.5q0 -130 -85 -206t-220 -76h-75q-6 0 -7 -6l-35 -198q-1 -10 -11 -10zM283 383h64q37 0 59 21t22 59q0 49 -58 49h-64q-4 0 -6 -6l-21 -117q-1 -6 4 -6z" />
    <glyph glyph-name="uni0421" unicode="&#x421;" horiz-adv-x="562" 
d="M266 -12q-104 0 -166 58t-62 161q0 63 18 163q20 105 47 160q79 162 273 162q182 0 218 -162q3 -10 -7 -14l-160 -62q-12 -4 -15 6q-11 53 -57 53q-45 0 -69 -49q-13 -28 -29 -112t-16 -125q0 -27 14 -43.5t39 -16.5q42 0 75 55q6 12 15 7l142 -82q8 -6 3 -15
q-46 -75 -109 -109.5t-154 -34.5z" />
    <glyph glyph-name="uni0422" unicode="&#x422;" horiz-adv-x="562" 
d="M338 0h-182q-10 0 -9 10l86 485q1 6 -4 6h-156q-10 0 -9 10l28 159q1 10 11 10h527q10 0 9 -10l-29 -159q-1 -10 -11 -10h-157q-6 0 -7 -6l-86 -485q-1 -10 -11 -10z" />
    <glyph glyph-name="uni0423" unicode="&#x423;" horiz-adv-x="629" 
d="M191 -6h-103q-11 0 -10 10l27 153q1 9 13 9h43q49 0 69 32l7 10l-141 459q-2 6 1 9.5t7 3.5h184q14 0 16 -9l62 -232h3l124 232q5 9 15 9h201q13 0 5 -12l-342 -565q-66 -109 -181 -109z" />
    <glyph glyph-name="uni0424" unicode="&#x424;" horiz-adv-x="841" 
d="M470 -12h-183q-8 0 -7 10l12 70q2 6 -4 6q-249 23 -249 235q0 141 88.5 219t255.5 89q5 0 7 6l11 58q2 11 10 11h184q9 0 7 -11l-11 -58q-1 -6 5 -6q248 -23 248 -235q0 -141 -88 -219t-255 -89q-7 0 -8 -6l-12 -70q-1 -10 -11 -10zM316 244q8 0 9 6l33 191q1 3 -1 4
t-6 1q-55 -4 -83 -36t-28 -85q0 -41 18 -59t58 -22zM532 244q55 5 83 37t28 85q0 41 -18 59t-58 21q-6 0 -8 -5l-33 -191q-2 -6 6 -6z" />
    <glyph glyph-name="uni0425" unicode="&#x425;" horiz-adv-x="628" 
d="M185 0h-208q-4 0 -5.5 3t1.5 7l273 350l-133 310q-4 10 7 10h188q12 0 16 -10l54 -133h3l96 133q7 10 18 10h196q4 0 5.5 -3t-1.5 -7l-238 -317l142 -343q4 -10 -7 -10h-185q-13 0 -17 10l-66 162h-2l-118 -162q-7 -10 -19 -10z" />
    <glyph glyph-name="uni0426" unicode="&#x426;" horiz-adv-x="658" 
d="M594 -110h-166q-8 0 -6 11l15 93q1 6 -4 6h-414q-9 0 -8 9l117 661q1 10 10 10h184q3 0 6 -3t2 -7l-86 -485q-2 -6 5 -6h130q5 0 7 6l86 485q1 10 9 10h185q3 0 6 -3t2 -7l-86 -485q-2 -6 5 -6h50q9 0 8 -9l-46 -269q-2 -11 -11 -11z" />
    <glyph glyph-name="uni0427" unicode="&#x427;" horiz-adv-x="598" 
d="M552 0h-183q-9 0 -8 10l38 216q1 4 -2.5 6.5t-6.5 1.5q-93 -15 -141 -15q-182 0 -140 237l39 215q2 9 10 9h182q10 0 9 -9l-34 -194q-6 -40 4 -59.5t45 -19.5q36 0 60 10q8 3 9 10l45 253q2 9 10 9h182q10 0 9 -9l-117 -661q-1 -10 -10 -10z" />
    <glyph glyph-name="uni0428" unicode="&#x428;" horiz-adv-x="944" 
d="M857 0h-838q-9 0 -8 9l117 661q1 10 10 10h184q3 0 6 -3t2 -7l-86 -485q-2 -6 5 -6h114q5 0 7 6l86 485q1 10 9 10h184q9 0 8 -10l-86 -485q-1 -6 5 -6h114q6 0 7 6l86 485q1 10 9 10h185q9 0 8 -10l-117 -661q-2 -9 -11 -9z" />
    <glyph glyph-name="uni0429" unicode="&#x429;" horiz-adv-x="969" 
d="M906 -110h-167q-8 0 -6 11l15 93q2 6 -4 6h-725q-9 0 -8 9l117 661q1 10 10 10h184q3 0 6 -3t2 -7l-86 -485q-2 -6 5 -6h114q5 0 7 6l86 485q1 10 9 10h184q9 0 8 -10l-86 -485q-1 -6 5 -6h114q6 0 7 6l86 485q1 10 9 10h185q9 0 8 -10l-86 -485q-1 -6 5 -6h51q9 0 8 -9
l-46 -269q-2 -11 -11 -11z" />
    <glyph glyph-name="uni042A" unicode="&#x42a;" horiz-adv-x="713" 
d="M401 0h-289q-10 0 -9 10l86 486q0 4 -5 6h-112q-9 0 -8 10l28 158q1 10 11 10h307q11 0 10 -10l-36 -202q-2 -6 5 -6h85q108 0 161.5 -50.5t53.5 -144.5q0 -127 -77 -197t-211 -70zM336 170h66q37 0 59 21t22 59q0 49 -58 49h-66q-5 0 -6 -6l-21 -117q-2 -6 4 -6z" />
    <glyph glyph-name="uni042B" unicode="&#x42b;" horiz-adv-x="888" 
d="M311 0h-291q-10 0 -9 10l117 660q1 10 11 10h181q11 0 10 -10l-36 -202q-2 -6 5 -6h85q108 0 161.5 -50.5t53.5 -144.5q0 -127 -77 -197t-211 -70zM246 170h66q37 0 59 21t22 59q0 49 -58 49h-66q-5 0 -6 -6l-21 -117q-2 -6 4 -6zM800 0h-180q-10 0 -9 10l117 660
q1 10 11 10h180q11 0 10 -10l-117 -660q-1 -10 -12 -10z" />
    <glyph glyph-name="uni042C" unicode="&#x42c;" horiz-adv-x="623" 
d="M311 0h-291q-10 0 -9 10l117 660q1 10 11 10h181q11 0 10 -10l-36 -202q-2 -6 5 -6h85q108 0 161.5 -50.5t53.5 -144.5q0 -127 -77 -197t-211 -70zM246 170h66q37 0 59 21t22 59q0 49 -58 49h-66q-5 0 -6 -6l-21 -117q-2 -6 4 -6z" />
    <glyph glyph-name="uni042D" unicode="&#x42d;" horiz-adv-x="570" 
d="M243 -12q-91 0 -151.5 42t-84.5 117q-4 10 7 15l153 60q6 3 13.5 1t8.5 -8q9 -32 21.5 -45t41.5 -13q59 0 83 55q9 19 13 43q2 8 -7 8h-124q-11 0 -9 9l26 143q1 10 11 10h125q10 0 10 8q1 6 1 29q0 61 -68 61q-29 0 -47.5 -12t-36.5 -40q-7 -12 -17 -7l-133 75
q-9 5 -3 15q41 71 104 104.5t166 33.5q105 0 171 -57q67 -55 67 -163q0 -71 -20 -166q-20 -93 -48 -156q-72 -162 -273 -162z" />
    <glyph glyph-name="uni042E" unicode="&#x42e;" horiz-adv-x="882" 
d="M558 -12q-111 0 -172 55.5t-61 157.5q0 25 3 50q0 6 -5 6h-60q-5 0 -7 -6l-43 -241q-1 -10 -11 -10h-182q-10 0 -9 10l117 660q1 10 11 10h182q10 0 9 -10l-41 -231q-1 -6 5 -6h60q6 0 7 6q8 28 20 64q27 72 71 112q86 77 211 77q106 0 168.5 -56t62.5 -157
q0 -61 -18 -165q-18 -101 -44 -157q-39 -81 -111 -125t-163 -44zM579 162q45 0 66 45q11 24 29 120q19 95 19 135q0 56 -52 56q-44 0 -65 -45q-10 -23 -30 -120q-18 -97 -18 -135q0 -56 51 -56z" />
    <glyph glyph-name="uni042F" unicode="&#x42f;" horiz-adv-x="614" 
d="M51 -6h-47q-10 0 -9 10l27 153q2 9 12 9h8q22 0 35.5 11.5t27.5 35.5l23 38q15 27 40 33v4q-39 12 -67.5 55t-28.5 102q0 109 77 172t190 63h307q10 0 8 -9l-117 -661q-1 -10 -10 -10h-182q-10 0 -9 10l38 213q2 6 -5 6h-8q-37 0 -64 -48l-34 -62q-42 -76 -83 -100
q-41 -25 -129 -25zM321 390h76q5 0 7 6l19 111q1 6 -5 6h-78q-31 0 -50 -18t-19 -51q0 -24 14 -39t36 -15z" />
    <glyph glyph-name="uni0430" unicode="&#x430;" horiz-adv-x="522" 
d="M135 -12q-55 0 -91 32.5t-36 86.5q0 94 62 144.5t177 50.5h64q7 0 8 6l3 11q4 21 -12 29t-68 8q-61 0 -104 -25q-9 -4 -12 5l-39 102q-4 9 6 16q77 48 205 48q124 0 173 -43t31 -146l-55 -303q-1 -10 -11 -10h-163q-10 0 -9 10l4 25h-1q-50 -47 -132 -47zM228 120
q58 0 64 38l4 28q2 6 -5 6h-46q-54 0 -54 -44q0 -28 37 -28z" />
    <glyph glyph-name="uni0431" unicode="&#x431;" horiz-adv-x="533" 
d="M245 -12q-99 0 -157 49t-58 140q0 61 18 161q16 94 44 156t80 102q29 23 73 34l35 9q51 10 71 12q51 11 58 32q5 9 10 9h153q8 0 7 -9q-15 -83 -42.5 -121t-86.5 -52q-10 -3 -64 -8q-111 -9 -147 -35q-23 -17 -27 -47h3q37 52 134 52q85 0 129 -45t44 -125
q0 -77 -31 -152q-30 -77 -88 -117q-66 -45 -158 -45zM259 143q33 0 48 31q9 20 16 57q9 42 9 60q0 24 -9 34.5t-30 10.5q-38 0 -53 -39q-6 -15 -14 -56q-6 -37 -6 -55q0 -24 9 -33.5t30 -9.5z" />
    <glyph glyph-name="uni0432" unicode="&#x432;" horiz-adv-x="543" 
d="M311 0h-295q-4 0 -6.5 3t-1.5 6l83 472q1 9 11 9h290q70 0 106 -28.5t36 -79.5q0 -83 -79 -126v-4q53 -24 53 -84q0 -78 -53 -123t-144 -45zM221 118h55q18 0 31 12t13 30q0 14 -8.5 23t-22.5 9h-55q-6 0 -8 -6l-11 -61q-1 -7 6 -7zM254 302h48q43 0 43 39q0 29 -31 29
h-48q-8 0 -9 -7l-9 -54q-1 -7 6 -7z" />
    <glyph glyph-name="uni0433" unicode="&#x433;" horiz-adv-x="410" 
d="M191 0h-175q-4 0 -6.5 3t-1.5 6l83 472q1 9 11 9h341q9 0 8 -9l-24 -139q-1 -9 -12 -9h-152q-5 0 -7 -6l-56 -318q-2 -9 -9 -9z" />
    <glyph glyph-name="uni0434" unicode="&#x434;" horiz-adv-x="579" 
d="M105 -81h-146q-9 0 -7 9l38 220q2 9 10 9h21q10 0 17 10q54 78 86 267l8 47q2 9 13 9h422q7 0 6 -9l-56 -318q-1 -6 5 -6h30q10 0 8 -9l-39 -220q-1 -9 -9 -9h-148q-8 0 -7 9l11 66q1 3 -1 4.5t-6 1.5h-226q-7 0 -8 -6l-11 -66q-2 -9 -11 -9zM226 157h92q6 0 7 6l30 168
q1 6 -5 6h-59q-5 0 -7 -6l-2 -9q-23 -96 -59 -158q-4 -7 3 -7z" />
    <glyph glyph-name="uni0435" unicode="&#x435;" horiz-adv-x="523" 
d="M233 -12q-98 0 -155 47t-57 136q0 106 41 191q68 140 249 140q92 0 147 -46.5t55 -128.5q0 -38 -14 -125q-1 -10 -12 -10h-277q-5 0 -7 -5q-1 -2 -1 -10q0 -49 78 -49q50 0 109 39q10 6 14 -1l60 -84q7 -8 -2 -16q-93 -78 -228 -78zM230 302h97q5 0 7 6q3 10 3 19
q0 45 -46 45q-41 0 -59 -37q-7 -13 -7 -27q0 -6 5 -6z" />
    <glyph glyph-name="uni0436" unicode="&#x436;" horiz-adv-x="780" 
d="M66 -6h-83q-9 0 -8 9l24 133q1 9 10 9h8q11 0 26 28q1 3 2 4l23 39q21 37 53 39v4q-8 6 -15 34l-8 27q-8 29 -32 29h-7q-3 0 -6 0.5t-5 2.5t-1 6l23 129q2 9 11 9h68q47 0 70.5 -17.5t33.5 -59.5l12 -49q10 -43 35 -43h8q6 0 7 6l26 148q1 9 10 9h176q7 0 6 -9l-26 -148
q-1 -6 5 -6h9q19 0 40 36l34 61q21 37 50 54.5t76 17.5h66q11 0 10 -10l-23 -128q-2 -9 -11 -9h-7q-14 0 -31 -30l-18 -31q-13 -22 -35 -30v-4q16 -7 26 -38l12 -39q11 -32 28 -32h12q10 0 8 -9l-24 -133q-2 -9 -12 -9h-50q-62 0 -91 22.5t-44 72.5l-14 48q-11 32 -31 32h-8
q-6 0 -7 -6l-27 -154q-2 -9 -9 -9h-176q-3 0 -5.5 3t-1.5 6l27 154q1 6 -5 6h-11q-19 0 -36 -32l-34 -64q-40 -79 -133 -79z" />
    <glyph glyph-name="uni0437" unicode="&#x437;" horiz-adv-x="492" 
d="M225 -12q-140 0 -225 71q-6 7 1 14l82 93q7 9 15 4q59 -35 112 -35q60 0 60 28q0 24 -46 24h-61q-11 0 -9 11l19 107q2 8 11 8h59q46 0 46 28q0 22 -54 22q-61 0 -114 -33q-10 -4 -14 3l-45 97q-4 7 7 14q91 58 228 58q95 0 143.5 -31.5t48.5 -89.5q0 -45 -22.5 -76
t-57.5 -43v-4q23 -9 38.5 -33t15.5 -56q0 -88 -71 -135q-70 -46 -167 -46z" />
    <glyph glyph-name="uni0438" unicode="&#x438;" horiz-adv-x="563" 
d="M178 0h-162q-4 0 -6.5 3t-1.5 6l83 472q1 9 11 9h167q8 0 7 -10l-32 -181h3l135 183q8 8 16 8h166q8 0 7 -9l-83 -471q-1 -10 -11 -10h-166q-10 0 -9 10l34 194h-3l-139 -194q-6 -10 -16 -10z" />
    <glyph glyph-name="uni0439" unicode="&#x439;" horiz-adv-x="563" 
d="M178 0h-162q-4 0 -6.5 3t-1.5 6l83 472q1 9 11 9h167q8 0 7 -10l-32 -181h3l135 183q8 8 16 8h166q8 0 7 -9l-83 -471q-1 -10 -11 -10h-166q-10 0 -9 10l34 194h-3l-139 -194q-6 -10 -16 -10zM195 661q-2 12 9 14l85 13q9 1 11 -7q2 -16 17 -28t33 -12q36 0 59 41
q5 8 13 7l88 -14q7 -2 2 -14q-21 -69 -62.5 -101t-110.5 -32q-134 0 -144 133z" />
    <glyph glyph-name="uni043A" unicode="&#x43a;" horiz-adv-x="540" 
d="M191 0h-175q-4 0 -6.5 3t-1.5 6l83 472q1 9 11 9h175q7 0 6 -9l-26 -148q-1 -6 5 -6h8q26 0 47 36l37 61q24 39 56 55.5t84 16.5h63q11 0 10 -10l-23 -128q-2 -9 -11 -9h-14q-12 0 -33 -30l-19 -31q-16 -24 -35 -30v-4q16 -7 25 -34l16 -45q11 -30 33 -30h4q10 0 8 -9
l-24 -133q-2 -9 -12 -9h-58q-61 0 -92 24t-41 71l-11 48q-8 32 -35 32h-11q-6 0 -7 -6l-27 -154q-2 -9 -9 -9z" />
    <glyph glyph-name="uni043B" unicode="&#x43b;" horiz-adv-x="579" 
d="M59 -6h-79q-10 0 -8 9l24 133q2 9 10 9h10q64 0 78 77l45 259q1 9 10 9h432q9 0 7 -9l-83 -472q-1 -9 -10 -9h-174q-4 0 -7 3t-2 6l56 318q2 6 -5 6h-64q-5 0 -7 -6l-15 -86q-24 -136 -75 -191q-51 -56 -143 -56z" />
    <glyph glyph-name="uni043C" unicode="&#x43c;" horiz-adv-x="653" 
d="M179 0h-163q-4 0 -6.5 3t-1.5 6l83 472q1 9 11 9h167q8 0 9 -7l55 -211h3l129 211q4 7 13 7h176q8 0 7 -9l-83 -472q-2 -9 -10 -9h-162q-4 0 -6.5 3t-1.5 6l34 195h-3l-77 -126q-6 -9 -12 -9h-70q-6 0 -9 9l-36 126h-3l-34 -195q-2 -9 -9 -9z" />
    <glyph glyph-name="uni043D" unicode="&#x43d;" horiz-adv-x="553" 
d="M190 0h-174q-4 0 -6.5 3t-1.5 6l83 472q1 9 11 9h175q7 0 6 -9l-26 -149q-1 -3 1.5 -4.5t6.5 -1.5h71q6 0 7 6l26 149q1 9 11 9h174q8 0 7 -9l-83 -472q-2 -9 -10 -9h-173q-4 0 -7 3t-2 6l27 154q1 6 -5 6h-74q-6 0 -7 -6l-27 -154q-2 -9 -10 -9z" />
    <glyph glyph-name="uni043E" unicode="&#x43e;" horiz-adv-x="522" 
d="M226 -12q-95 0 -150 49t-55 140q0 104 39 185q69 140 247 140q95 0 150 -49t55 -140q0 -104 -39 -185q-69 -140 -247 -140zM248 143q32 0 47 31q9 18 18 65q9 46 9 67q0 41 -37 41q-32 0 -47 -31q-9 -18 -18 -65t-9 -67q0 -41 37 -41z" />
    <glyph glyph-name="uni043F" unicode="&#x43f;" horiz-adv-x="548" 
d="M191 0h-175q-4 0 -6.5 3t-1.5 6l83 472q1 9 11 9h447q9 0 7 -9l-83 -472q-1 -9 -10 -9h-173q-4 0 -7 3t-2 6l56 318q1 6 -5 6h-69q-5 0 -7 -6l-56 -318q-2 -9 -9 -9z" />
    <glyph glyph-name="uni0440" unicode="&#x440;" horiz-adv-x="547" 
d="M159 -180h-174q-9 0 -8 10l115 650q1 10 10 10h174q10 0 9 -10l-7 -38h1q43 60 129 60q70 0 102 -39.5t32 -119.5q0 -54 -16 -127q-17 -76 -39 -122q-28 -56 -68.5 -81t-100.5 -25q-85 0 -108 59h-1l-39 -217q-1 -10 -11 -10zM273 143q31 0 47 31q9 20 16 62q9 47 9 67
q0 44 -37 44q-32 0 -47 -31q-8 -18 -17 -63q-8 -50 -8 -66q0 -44 37 -44z" />
    <glyph glyph-name="uni0441" unicode="&#x441;" horiz-adv-x="489" 
d="M216 -12q-88 0 -141.5 49t-53.5 134q0 103 41 190q68 141 245 141q77 0 127.5 -37t59.5 -95q1 -8 -7 -13l-143 -57q-13 -6 -16 5q-6 23 -15 32.5t-26 9.5q-33 0 -46 -30q-9 -19 -18 -66t-9 -68q0 -40 37 -40q31 0 57 45q6 10 16 6l131 -62q7 -4 3 -13q-42 -67 -100 -99
t-142 -32z" />
    <glyph glyph-name="uni0442" unicode="&#x442;" horiz-adv-x="443" 
d="M276 0h-173q-4 0 -7 3t-2 6l56 318q2 6 -5 6h-107q-8 0 -6 9l24 139q2 9 10 9h412q8 0 7 -9l-24 -139q-1 -9 -11 -9h-101q-5 0 -7 -6l-56 -318q-2 -9 -10 -9z" />
    <glyph glyph-name="uni0443" unicode="&#x443;" horiz-adv-x="543" 
d="M70 -180h-40q-9 0 -8 10l24 135q1 10 12 10h27q42 0 60 34l13 27l-104 444q-1 10 8 10h175q10 0 11 -10l34 -216h2l102 216q4 10 15 10h180q11 0 6 -11l-318 -548q-38 -66 -81 -88q-44 -23 -118 -23z" />
    <glyph glyph-name="uni0444" unicode="&#x444;" horiz-adv-x="753" 
d="M394 -180h-174q-10 0 -8 9l29 162q1 6 -5 6q-112 6 -166 53.5t-54 140.5q0 74 27.5 139t75.5 103q71 55 204 59q5 0 7 6l31 173q1 9 10 9h174q9 0 8 -9l-31 -173q-2 -6 5 -6q111 -6 165 -53.5t54 -140.5q0 -73 -27.5 -138.5t-75.5 -103.5q-71 -55 -203 -59q-6 0 -7 -6
l-29 -162q-2 -9 -10 -9zM265 143q5 0 7 6l33 191q1 6 -4 6q-35 -2 -52 -17q-19 -16 -30 -59q-10 -39 -10 -76q0 -29 12.5 -39.5t43.5 -11.5zM462 143q34 2 51 17q21 20 30 63q10 43 10 72t-12.5 39.5t-42.5 11.5q-6 0 -8 -6l-33 -191q-1 -6 5 -6z" />
    <glyph glyph-name="uni0445" unicode="&#x445;" horiz-adv-x="542" 
d="M163 0h-188q-4 0 -5.5 3.5t1.5 6.5l209 247l-107 223q-4 10 8 10h173q9 0 13 -7l35 -79h2l63 79q6 7 16 7h181q11 0 4 -10l-190 -229l117 -241q4 -10 -7 -10h-178q-9 0 -12 8l-42 93h-1l-76 -93q-8 -8 -16 -8z" />
    <glyph glyph-name="uni0446" unicode="&#x446;" horiz-adv-x="563" 
d="M496 -81h-149q-7 0 -6 9l11 66q2 6 -4 6h-331q-9 0 -8 9l83 472q2 9 11 9h175q8 0 6 -9l-56 -318q-2 -6 5 -6h69q6 0 7 6l56 318q1 9 12 9h173q8 0 7 -9l-56 -318q-1 -6 5 -6h30q10 0 8 -9l-39 -220q-1 -9 -9 -9z" />
    <glyph glyph-name="uni0447" unicode="&#x447;" horiz-adv-x="521" 
d="M464 0h-173q-4 0 -7 3t-2 6l25 142q1 6 -1 8t-8 1q-59 -13 -105 -13q-152 0 -124 172l28 162q1 9 10 9h175q8 0 7 -9l-27 -153q-4 -33 28 -33q8 0 38 6q6 2 7 8l30 172q1 9 12 9h173q8 0 7 -9l-83 -472q-2 -9 -10 -9z" />
    <glyph glyph-name="uni0448" unicode="&#x448;" horiz-adv-x="807" 
d="M724 0h-707q-9 0 -8 9l83 472q2 9 11 9h175q8 0 6 -9l-56 -318q-2 -6 5 -6h62q5 0 7 6l56 318q2 9 12 9h174q8 0 6 -9l-56 -318q-2 -6 5 -6h62q5 0 7 6l56 318q2 9 12 9h174q8 0 6 -9l-83 -472q-1 -9 -9 -9z" />
    <glyph glyph-name="uni0449" unicode="&#x449;" horiz-adv-x="822" 
d="M755 -81h-149q-8 0 -6 9l11 66q1 6 -4 6h-590q-9 0 -8 9l83 472q2 9 11 9h175q8 0 6 -9l-56 -318q-2 -6 5 -6h62q5 0 7 6l56 318q2 9 12 9h174q8 0 6 -9l-56 -318q-2 -6 5 -6h62q5 0 7 6l56 318q2 9 12 9h174q8 0 6 -9l-56 -318q-2 -6 5 -6h30q9 0 8 -9l-39 -220
q-2 -9 -9 -9z" />
    <glyph glyph-name="uni044A" unicode="&#x44a;" horiz-adv-x="577" 
d="M355 0h-281q-4 0 -6.5 3t-1.5 6l56 318q2 6 -5 6h-78q-9 0 -7 9l24 139q2 9 11 9h268q7 0 6 -9l-24 -142q-1 -6 5 -6h92q67 0 106 -37.5t39 -101.5q0 -83 -55 -138q-54 -56 -149 -56zM279 131h57q17 0 30.5 12t13.5 29q0 34 -31 34h-57q-6 0 -7 -6l-11 -63q-2 -6 5 -6z
" />
    <glyph glyph-name="uni044B" unicode="&#x44b;" horiz-adv-x="770" 
d="M292 0h-276q-4 0 -6.5 3t-1.5 6l83 472q1 9 11 9h175q7 0 6 -9l-24 -142q-1 -6 5 -6h87q67 0 106 -37.5t39 -101.5q0 -83 -55 -138q-54 -56 -149 -56zM221 131h57q17 0 30.5 12t13.5 29q0 34 -31 34h-57q-6 0 -7 -6l-11 -63q-2 -6 5 -6zM684 0h-172q-10 0 -9 10l83 470
q1 10 12 10h172q9 0 8 -10l-83 -470q-1 -10 -11 -10z" />
    <glyph glyph-name="uni044C" unicode="&#x44c;" horiz-adv-x="520" 
d="M297 0h-281q-4 0 -6.5 3t-1.5 6l83 472q1 9 11 9h175q7 0 6 -9l-24 -142q-1 -6 5 -6h92q67 0 106 -37.5t39 -101.5q0 -83 -55 -138q-54 -56 -149 -56zM221 131h57q17 0 30.5 12t13.5 29q0 34 -31 34h-57q-6 0 -7 -6l-11 -63q-2 -6 5 -6z" />
    <glyph glyph-name="uni044D" unicode="&#x44d;" horiz-adv-x="489" 
d="M195 -12q-68 0 -118 29.5t-76 76.5q-3 7 7 14l101 75q12 8 16 -2q31 -49 78 -49q36 0 54 24q6 8 9 19q1 3 -2 4.5t-8 1.5h-86q-8 0 -7 9l19 110q1 10 12 10h92q5 0 5 6v4q0 40 -49 40q-50 0 -82 -38q-8 -10 -15 -3l-91 72q-8 6 0 15q44 49 95 72.5t130 23.5
q96 0 149.5 -50t53.5 -138q0 -68 -20.5 -134t-55.5 -105q-76 -87 -211 -87z" />
    <glyph glyph-name="uni044E" unicode="&#x44e;" horiz-adv-x="784" 
d="M492 -12q-87 0 -146 48q-57 50 -57 129q0 6 -5 6h-49q-5 0 -7 -6l-28 -156q-2 -9 -9 -9h-175q-4 0 -6.5 3t-1.5 6l83 472q1 9 11 9h175q7 0 6 -9l-26 -151q-1 -6 5 -6h46q4 0 7 6q25 65 61 100q69 72 189 72q99 0 154.5 -48.5t55.5 -139.5q0 -100 -41 -190
q-63 -136 -242 -136zM511 143q32 0 47 31q9 18 18 65q9 46 9 67q0 41 -37 41q-32 0 -47 -31q-9 -18 -18 -65t-9 -67q0 -41 37 -41z" />
    <glyph glyph-name="uni044F" unicode="&#x44f;" horiz-adv-x="545" 
d="M52 -6h-44q-10 0 -8 9l21 129q2 11 13 11h8q21 0 35 20l16 23q11 16 22 20v4q-29 9 -47 38.5t-18 67.5q0 63 35 104q61 70 206 70h256q9 0 7 -9l-83 -472q-1 -9 -10 -9h-173q-4 0 -7 3t-2 6l24 137q1 6 -5 6h-3q-17 0 -32 -25l-41 -66q-25 -40 -63.5 -53.5t-106.5 -13.5z
M264 279h60q7 0 8 7l12 68q2 6 -5 6h-61q-21 0 -34 -12.5t-13 -33.5q0 -16 9 -25.5t24 -9.5z" />
    <glyph glyph-name="uni0450" unicode="&#x450;" horiz-adv-x="523" 
d="M233 -12q-98 0 -155 47t-57 136q0 106 41 191q68 140 249 140q92 0 147 -46.5t55 -128.5q0 -38 -14 -125q-1 -10 -12 -10h-277q-5 0 -7 -5q-1 -2 -1 -10q0 -49 78 -49q50 0 109 39q10 6 14 -1l60 -84q7 -8 -2 -16q-93 -78 -228 -78zM230 302h97q5 0 7 6q3 10 3 19
q0 45 -46 45q-41 0 -59 -37q-7 -13 -7 -27q0 -6 5 -6zM387 541h-122q-12 0 -18 10l-77 143q-2 4 0 7t6 3h149q12 0 15 -10l55 -143q3 -10 -8 -10z" />
    <glyph glyph-name="uni0451" unicode="&#x451;" horiz-adv-x="523" 
d="M233 -12q-98 0 -155 47t-57 136q0 106 41 191q68 140 249 140q92 0 147 -46.5t55 -128.5q0 -38 -14 -125q-1 -10 -12 -10h-277q-5 0 -7 -5q-1 -2 -1 -10q0 -49 78 -49q50 0 109 39q10 6 14 -1l60 -84q7 -8 -2 -16q-93 -78 -228 -78zM230 302h97q5 0 7 6q3 10 3 19
q0 45 -46 45q-41 0 -59 -37q-7 -13 -7 -27q0 -6 5 -6zM478 544h-122q-10 0 -9 10l22 120q1 10 12 10h122q9 0 8 -10l-22 -120q-1 -10 -11 -10zM275 544h-122q-10 0 -9 10l22 120q1 10 12 10h122q9 0 8 -10l-22 -120q-1 -10 -11 -10z" />
    <glyph glyph-name="uni0452" unicode="&#x452;" horiz-adv-x="559" 
d="M239 -180h-42q-8 0 -7 10l24 135q1 10 11 10h9q30 0 42.5 11t18.5 44l44 247q10 55 -30 55q-41 0 -50 -54l-47 -268q-1 -10 -11 -10h-174q-9 0 -8 10l88 499q1 6 -5 6h-61q-9 0 -8 10l17 97q1 10 12 10h61q7 0 7 6l5 32q1 10 11 10h174q9 0 8 -10l-6 -32q-2 -6 5 -6h77
q9 0 8 -10l-17 -97q-1 -10 -12 -10h-77q-6 0 -7 -6l-13 -79h1q48 60 130 60q157 0 122 -183l-50 -278q-23 -121 -78 -164q-55 -45 -172 -45z" />
    <glyph glyph-name="uni0453" unicode="&#x453;" horiz-adv-x="410" 
d="M191 0h-175q-4 0 -6.5 3t-1.5 6l83 472q1 9 11 9h341q9 0 8 -9l-24 -139q-1 -9 -12 -9h-152q-5 0 -7 -6l-56 -318q-2 -9 -9 -9zM301 541h-135q-12 0 -4 10l107 143q7 10 19 10h158q5 0 6 -3t-3 -7l-129 -143q-9 -10 -19 -10z" />
    <glyph glyph-name="uni0454" unicode="&#x454;" horiz-adv-x="489" 
d="M232 -12q-103 0 -157 51.5t-54 145.5q0 72 22 138t63 107q68 71 198 71q132 0 192 -106q4 -9 -7 -15l-103 -62q-11 -6 -16 3q-20 38 -67 38q-29 0 -48 -13q-16 -12 -21 -29q-5 -8 5 -8h93q10 0 9 -10l-19 -110q-2 -9 -12 -9h-92q-9 0 -9 -7v-4q0 -38 53 -38q45 0 92 46
q8 9 15 2l85 -82q8 -7 1 -14q-83 -95 -223 -95z" />
    <glyph glyph-name="uni0455" unicode="&#x455;" horiz-adv-x="509" 
d="M232 -12q-142 0 -231 78q-8 6 1 15l89 91q7 7 16 1q80 -50 152 -50q23 0 37.5 8.5t14.5 20.5q0 17 -46 21l-53 6q-70 8 -107.5 40.5t-37.5 86.5q0 90 65 143t178 53q134 0 208 -65q7 -6 -2 -15l-81 -86q-7 -8 -15 -3q-61 38 -128 38q-20 0 -33 -7.5t-13 -17.5
q0 -16 39 -21l52 -6q157 -16 157 -128q0 -92 -71 -148q-70 -55 -191 -55z" />
    <glyph glyph-name="uni0456" unicode="&#x456;" horiz-adv-x="276" 
d="M191 0h-174q-9 0 -8 10l83 470q1 10 11 10h174q9 0 8 -10l-83 -470q-1 -10 -11 -10zM286 540h-174q-9 0 -8 10l21 120q1 10 11 10h174q9 0 8 -10l-21 -120q-1 -10 -11 -10z" />
    <glyph glyph-name="uni0457" unicode="&#x457;" horiz-adv-x="276" 
d="M362 544h-122q-10 0 -9 10l22 120q1 10 12 10h122q9 0 8 -10l-22 -120q-1 -10 -11 -10zM159 544h-122q-10 0 -9 10l22 120q1 10 12 10h122q9 0 8 -10l-22 -120q-1 -10 -11 -10zM191 0h-174q-9 0 -8 10l83 470q1 10 11 10h174q9 0 8 -10l-83 -470q-1 -10 -11 -10z" />
    <glyph glyph-name="uni0458" unicode="&#x458;" horiz-adv-x="276" 
d="M-44 -180h-42q-8 0 -7 10l24 135q1 10 11 10h9q30 0 42.5 11t18.5 44l80 450q1 10 11 10h174q9 0 8 -10l-79 -451q-21 -121 -78 -164q-55 -45 -172 -45zM286 540h-174q-9 0 -8 10l21 120q1 10 11 10h174q9 0 8 -10l-21 -120q-1 -10 -11 -10z" />
    <glyph glyph-name="uni0459" unicode="&#x459;" horiz-adv-x="823" 
d="M59 -6h-79q-10 0 -8 9l24 133q2 9 10 9h9q65 0 79 77l45 259q1 9 10 9h432q9 0 7 -9l-25 -142q-1 -6 5 -6h92q67 0 106 -37.5t39 -101.5q0 -83 -55 -138q-54 -56 -149 -56h-280q-4 0 -7 3t-2 6l56 318q2 6 -5 6h-64q-5 0 -7 -6l-15 -86q-24 -136 -75 -191
q-51 -56 -143 -56zM525 131h57q17 0 30.5 12t13.5 29q0 34 -31 34h-57q-6 0 -7 -6l-11 -63q-2 -6 5 -6z" />
    <glyph glyph-name="uni045A" unicode="&#x45a;" horiz-adv-x="797" 
d="M190 0h-174q-4 0 -6.5 3t-1.5 6l83 472q1 9 11 9h175q7 0 6 -9l-25 -142q-1 -3 1.5 -4.5t6.5 -1.5h71q5 0 7 6l25 142q1 9 11 9h174q8 0 7 -9l-25 -142q-2 -6 5 -6h92q67 0 106 -37.5t39 -101.5q0 -83 -55 -138q-54 -56 -149 -56h-279q-4 0 -7 3t-2 6l28 161q2 6 -5 6
h-73q-6 0 -8 -6l-28 -161q-2 -9 -10 -9zM498 131h57q17 0 30.5 12t13.5 29q0 34 -31 34h-57q-5 0 -7 -6l-11 -63q-1 -6 5 -6z" />
    <glyph glyph-name="uni045B" unicode="&#x45b;" horiz-adv-x="559" 
d="M201 0h-174q-9 0 -8 10l88 499q1 6 -5 6h-61q-9 0 -8 10l17 97q1 10 12 10h61q7 0 7 6l5 32q1 10 11 10h174q9 0 8 -10l-6 -32q-2 -6 5 -6h77q9 0 8 -10l-17 -97q-1 -10 -12 -10h-77q-6 0 -7 -6l-13 -79h1q48 60 130 60q157 0 122 -183l-54 -297q-1 -10 -11 -10h-173
q-10 0 -9 10l47 267q10 55 -30 55q-41 0 -50 -54l-47 -268q-1 -10 -11 -10z" />
    <glyph glyph-name="uni045C" unicode="&#x45c;" horiz-adv-x="540" 
d="M191 0h-175q-4 0 -6.5 3t-1.5 6l83 472q1 9 11 9h175q7 0 6 -9l-26 -148q-1 -6 5 -6h8q26 0 47 36l37 61q24 39 56 55.5t84 16.5h63q11 0 10 -10l-23 -128q-2 -9 -11 -9h-14q-12 0 -33 -30l-19 -31q-16 -24 -35 -30v-4q16 -7 25 -34l16 -45q11 -30 33 -30h4q10 0 8 -9
l-24 -133q-2 -9 -12 -9h-58q-61 0 -92 24t-41 71l-11 48q-8 32 -35 32h-11q-6 0 -7 -6l-27 -154q-2 -9 -9 -9zM356 541h-135q-4 0 -5.5 3t1.5 7l107 143q7 10 19 10h158q5 0 6 -3t-3 -7l-129 -143q-9 -10 -19 -10z" />
    <glyph glyph-name="uni045D" unicode="&#x45d;" horiz-adv-x="563" 
d="M178 0h-162q-4 0 -6.5 3t-1.5 6l83 472q1 9 11 9h167q8 0 7 -10l-32 -181h3l135 183q8 8 16 8h166q8 0 7 -9l-83 -471q-1 -10 -11 -10h-166q-10 0 -9 10l34 194h-3l-139 -194q-6 -10 -16 -10zM408 541h-122q-12 0 -18 10l-77 143q-2 4 0 7t6 3h149q12 0 15 -10l55 -143
q3 -10 -8 -10z" />
    <glyph glyph-name="uni045E" unicode="&#x45e;" horiz-adv-x="543" 
d="M70 -180h-40q-9 0 -8 10l24 135q1 10 12 10h27q42 0 60 34l13 27l-104 444q-1 10 8 10h175q10 0 11 -10l34 -216h2l102 216q4 10 15 10h180q11 0 6 -11l-318 -548q-38 -66 -81 -88q-44 -23 -118 -23zM180 661q-2 12 9 14l85 13q9 1 11 -7q2 -16 17 -28t33 -12q36 0 59 41
q5 8 13 7l88 -14q7 -2 2 -14q-21 -69 -62.5 -101t-110.5 -32q-134 0 -144 133z" />
    <glyph glyph-name="uni045F" unicode="&#x45f;" horiz-adv-x="548" 
d="M304 -81h-154q-3 0 -5.5 3t-1.5 6l12 66q1 6 -4 6h-134q-9 0 -8 9l83 472q2 9 11 9h175q8 0 6 -9l-56 -318q-2 -6 5 -6h69q6 0 7 6l56 318q1 9 12 9h173q8 0 7 -9l-83 -472q-2 -9 -10 -9h-131q-7 0 -8 -6l-12 -66q-1 -9 -9 -9z" />
    <glyph glyph-name="uni0490" unicode="&#x490;" horiz-adv-x="490" 
d="M201 0h-181q-10 0 -9 10l117 660q1 10 11 10h253q4 0 6 5l19 106q3 10 12 10h152q8 0 7 -10l-49 -280q-1 -10 -12 -10h-221q-6 0 -7 -6l-86 -485q-1 -10 -12 -10z" />
    <glyph glyph-name="uni0491" unicode="&#x491;" horiz-adv-x="410" 
d="M191 0h-175q-4 0 -6.5 3t-1.5 6l83 472q1 9 11 9h186q6 0 7 6l12 67q1 9 8 9h144q9 0 7 -9l-39 -221q-1 -9 -11 -9h-153q-5 0 -7 -6l-56 -318q-2 -9 -9 -9z" />
    <glyph glyph-name="Wgrave" unicode="&#x1e80;" horiz-adv-x="910" 
d="M674 0h-147q-11 0 -12 10l-34 341h-2l-152 -341q-4 -10 -14 -10h-146q-12 0 -13 10l-73 660q-1 10 7 10h190q12 0 12 -10l10 -372h2l156 372q4 10 14 10h118q12 0 13 -10l30 -372h2l139 372q3 10 13 10h202q10 0 6 -10l-307 -660q-4 -10 -14 -10zM599 739h-128
q-10 0 -19 10l-107 131q-2 4 0 7t6 3h151q12 0 19 -10l83 -131q6 -10 -5 -10z" />
    <glyph glyph-name="wgrave" unicode="&#x1e81;" horiz-adv-x="762" 
d="M551 0h-131q-9 0 -10 10l-23 223h-2l-104 -223q-4 -10 -13 -10h-130q-10 0 -11 10l-74 470q0 10 10 10h168q12 0 12 -10l10 -229h2l103 229q4 10 16 10h103q11 0 12 -10l23 -229h2l88 229q4 10 17 10h178q10 0 6 -10l-240 -470q-4 -10 -12 -10zM487 541h-122
q-12 0 -18 10l-77 143q-2 4 0 7t6 3h149q12 0 15 -10l55 -143q3 -10 -8 -10z" />
    <glyph glyph-name="Wacute" unicode="&#x1e82;" horiz-adv-x="910" 
d="M674 0h-147q-11 0 -12 10l-34 341h-2l-152 -341q-4 -10 -14 -10h-146q-12 0 -13 10l-73 660q-1 10 7 10h190q12 0 12 -10l10 -372h2l156 372q4 10 14 10h118q12 0 13 -10l30 -372h2l139 372q3 10 13 10h202q10 0 6 -10l-307 -660q-4 -10 -14 -10zM606 739h-132
q-4 0 -5.5 3t1.5 7l130 131q10 10 22 10h158q5 0 6.5 -3t-2.5 -7l-153 -131q-10 -10 -25 -10z" />
    <glyph glyph-name="wacute" unicode="&#x1e83;" horiz-adv-x="762" 
d="M551 0h-131q-9 0 -10 10l-23 223h-2l-104 -223q-4 -10 -13 -10h-130q-10 0 -11 10l-74 470q0 10 10 10h168q12 0 12 -10l10 -229h2l103 229q4 10 16 10h103q11 0 12 -10l23 -229h2l88 229q4 10 17 10h178q10 0 6 -10l-240 -470q-4 -10 -12 -10zM498 541h-135q-12 0 -4 10
l107 143q7 10 19 10h158q5 0 6 -3t-3 -7l-129 -143q-9 -10 -19 -10z" />
    <glyph glyph-name="Wdieresis" unicode="&#x1e84;" horiz-adv-x="910" 
d="M674 0h-147q-11 0 -12 10l-34 341h-2l-152 -341q-4 -10 -14 -10h-146q-12 0 -13 10l-73 660q-1 10 7 10h190q12 0 12 -10l10 -372h2l156 372q4 10 14 10h118q12 0 13 -10l30 -372h2l139 372q3 10 13 10h202q10 0 6 -10l-307 -660q-4 -10 -14 -10zM715 742h-122
q-10 0 -9 10l22 120q1 10 12 10h122q9 0 8 -10l-22 -120q-1 -10 -11 -10zM512 742h-122q-10 0 -9 10l22 120q1 10 12 10h122q9 0 8 -10l-22 -120q-1 -10 -11 -10z" />
    <glyph glyph-name="wdieresis" unicode="&#x1e85;" horiz-adv-x="762" 
d="M551 0h-131q-9 0 -10 10l-23 223h-2l-104 -223q-4 -10 -13 -10h-130q-10 0 -11 10l-74 470q0 10 10 10h168q12 0 12 -10l10 -229h2l103 229q4 10 16 10h103q11 0 12 -10l23 -229h2l88 229q4 10 17 10h178q10 0 6 -10l-240 -470q-4 -10 -12 -10zM600 544h-122q-10 0 -9 10
l22 120q1 10 12 10h122q9 0 8 -10l-22 -120q-1 -10 -11 -10zM397 544h-122q-10 0 -9 10l22 120q1 10 12 10h122q9 0 8 -10l-22 -120q-1 -10 -11 -10z" />
    <glyph glyph-name="Ygrave" unicode="&#x1ef2;" horiz-adv-x="605" 
d="M361 0h-182q-10 0 -9 10l43 245l-132 414q-5 11 9 11h171q12 0 15 -10l62 -221h3l140 221q6 10 17 10h189q14 0 6 -11l-278 -414l-43 -245q-1 -10 -11 -10zM456 739h-128q-10 0 -19 10l-107 131q-2 4 0 7t6 3h151q12 0 19 -10l83 -131q6 -10 -5 -10z" />
    <glyph glyph-name="ygrave" unicode="&#x1ef3;" horiz-adv-x="543" 
d="M70 -180h-40q-9 0 -8 10l24 135q1 10 12 10h27q42 0 60 34l13 27l-104 444q-1 10 8 10h175q10 0 11 -10l34 -216h2l102 216q4 10 15 10h180q11 0 6 -11l-318 -548q-38 -65 -80 -87q-43 -24 -119 -24zM387 541h-122q-12 0 -18 10l-77 143q-2 4 0 7t6 3h149q12 0 15 -10
l55 -143q3 -10 -8 -10z" />
    <glyph glyph-name="uni2010" unicode="&#x2010;" horiz-adv-x="389" 
d="M346 182h-306q-10 0 -9 10l26 146q1 10 11 10h306q10 0 9 -10l-25 -146q-1 -10 -12 -10z" />
    <glyph glyph-name="endash" unicode="&#x2013;" horiz-adv-x="552" 
d="M521 184h-494q-9 0 -8 10l25 142q1 10 12 10h494q8 0 7 -10l-25 -142q-1 -10 -11 -10z" />
    <glyph glyph-name="emdash" unicode="&#x2014;" horiz-adv-x="923" 
d="M891 184h-864q-9 0 -8 10l25 142q1 10 12 10h865q8 0 7 -10l-26 -142q-1 -10 -11 -10z" />
    <glyph glyph-name="afii00208" unicode="&#x2015;" horiz-adv-x="923" 
d="M891 184h-864q-9 0 -8 10l25 142q1 10 12 10h865q8 0 7 -10l-26 -142q-1 -10 -11 -10z" />
    <glyph glyph-name="quoteleft" unicode="&#x2018;" horiz-adv-x="240" 
d="M227 440h-127q-10 0 -9 10l22 125q3 16 15 23l120 76q14 8 19 8q11 0 10 -13l-39 -219q-1 -10 -11 -10z" />
    <glyph glyph-name="quoteright" unicode="&#x2019;" horiz-adv-x="240" 
d="M101 438q-11 0 -10 13l39 219q1 10 11 10h127q10 0 9 -10l-22 -125q-3 -16 -15 -23l-120 -76q-14 -8 -19 -8z" />
    <glyph glyph-name="quotesinglbase" unicode="&#x201a;" horiz-adv-x="240" 
d="M8 -89q-11 0 -10 13l39 219q1 10 11 10h127q10 0 9 -10l-22 -125q-3 -16 -15 -23l-120 -76q-14 -8 -19 -8z" />
    <glyph glyph-name="quotedblleft" unicode="&#x201c;" horiz-adv-x="446" 
d="M433 440h-127q-10 0 -9 10l22 125q3 15 14 23l121 76q14 8 18 8q11 0 10 -13l-38 -219q-1 -10 -11 -10zM227 440h-127q-10 0 -9 10l22 125q3 16 15 23l120 76q14 8 19 8q11 0 10 -13l-39 -219q-1 -10 -11 -10z" />
    <glyph glyph-name="quotedblright" unicode="&#x201d;" horiz-adv-x="446" 
d="M307 438q-11 0 -10 13l38 219q1 10 11 10h127q10 0 9 -10l-21 -125q-3 -16 -15 -23l-120 -76q-14 -8 -19 -8zM101 438q-11 0 -10 13l39 219q1 10 11 10h127q10 0 9 -10l-22 -125q-3 -16 -15 -23l-120 -76q-14 -8 -19 -8z" />
    <glyph glyph-name="quotedblbase" unicode="&#x201e;" horiz-adv-x="446" 
d="M213 -89q-11 0 -10 13l39 219q1 10 11 10h127q10 0 9 -10l-22 -125q-3 -16 -15 -23l-120 -76q-14 -8 -19 -8zM8 -89q-11 0 -10 13l39 219q1 10 11 10h127q10 0 9 -10l-22 -125q-3 -16 -15 -23l-120 -76q-14 -8 -19 -8z" />
    <glyph glyph-name="dagger" unicode="&#x2020;" horiz-adv-x="564" 
d="M304 -180h-176q-11 0 -8 10l84 469q0 6 -5 6h-140q-9 0 -8 10l27 154q1 10 10 10h140q6 0 8 6l32 185q1 10 11 10h176q9 0 8 -10l-34 -185q-1 -6 4 -6h140q10 0 9 -10l-27 -154q-1 -10 -11 -10h-140q-7 0 -7 -6l-82 -469q-3 -10 -11 -10z" />
    <glyph glyph-name="daggerdbl" unicode="&#x2021;" horiz-adv-x="564" 
d="M304 -180h-176q-11 0 -8 10l27 145q1 6 -5 6h-140q-9 0 -8 10l27 154q1 10 11 10h140q6 0 7 6l32 178q1 6 -5 6h-140q-9 0 -8 10l27 154q1 10 11 10h140q6 0 7 6l25 145q1 10 11 10h176q9 0 8 -10l-27 -145q-2 -6 5 -6h140q9 0 8 -10l-27 -154q-1 -10 -11 -10h-140
q-5 0 -7 -6l-32 -178q-2 -6 5 -6h140q9 0 8 -10l-27 -154q-1 -10 -11 -10h-140q-5 0 -7 -6l-25 -145q-3 -10 -11 -10z" />
    <glyph glyph-name="bullet" unicode="&#x2022;" horiz-adv-x="444" 
d="M365 186q-49 -49 -123 -49t-123 49t-49 123t49 123t123 49t123 -49t49 -123t-49 -123z" />
    <glyph glyph-name="ellipsis" unicode="&#x2026;" horiz-adv-x="741" 
d="M661 0h-154q-10 0 -9 10l26 155q1 10 11 10h155q10 0 9 -10l-27 -155q-1 -10 -11 -10zM414 0h-154q-10 0 -9 10l26 155q1 10 11 10h155q10 0 9 -10l-27 -155q-1 -10 -11 -10zM167 0h-154q-10 0 -9 10l26 155q1 10 11 10h155q10 0 9 -10l-27 -155q-1 -10 -11 -10z" />
    <glyph glyph-name="perthousand" unicode="&#x2030;" horiz-adv-x="1198" 
d="M251 -12h-117q-9 0 -2 10l504 684q7 10 18 10h118q9 0 2 -10l-505 -684q-7 -10 -18 -10zM227 330q-56 0 -89 30.5t-33 85.5q0 97 31 158q40 84 155 84q56 0 89.5 -31t33.5 -86q0 -95 -31 -157q-41 -84 -156 -84zM244 421q15 0 22 16q5 11 15 68q10 56 10 73q0 19 -17 19
q-14 0 -21 -16q-5 -11 -15 -68q-10 -56 -10 -73q0 -19 16 -19zM959 -8q-56 0 -89.5 30.5t-33.5 85.5q0 92 32 158q40 84 155 84q56 0 89.5 -31t33.5 -86q0 -95 -31 -157q-41 -84 -156 -84zM615 -8q-56 0 -89.5 30.5t-33.5 85.5q0 95 31 158q41 84 156 84q56 0 89.5 -31
t33.5 -86q0 -92 -31 -157q-41 -84 -156 -84zM976 83q14 0 21 16q6 10 16 68q10 56 10 73q0 19 -17 19q-14 0 -21 -16q-5 -11 -15 -68q-10 -56 -10 -73q0 -19 16 -19zM632 83q14 0 21 16q5 11 15 68q10 56 10 73q0 19 -16 19q-14 0 -21 -16q-6 -10 -16 -68q-10 -56 -10 -73
q0 -19 17 -19z" />
    <glyph glyph-name="guilsinglleft" unicode="&#x2039;" horiz-adv-x="325" 
d="M234 11l-203 246q-6 8 2 14l292 247q4 3 7 1.5t2 -6.5l-29 -160q-3 -12 -14 -23l-81 -72q-4 -4 -2 -8l56 -72q9 -10 6 -22l-25 -143q-1 -4 -4.5 -5t-6.5 3z" />
    <glyph glyph-name="guilsinglright" unicode="&#x203a;" horiz-adv-x="325" 
d="M317 257l-292 -247q-4 -3 -7 -1.5t-2 6.5l29 160q3 12 14 23l82 72q4 4 2 8l-57 72q-9 10 -6 22l25 143q1 4 4.5 5t6.5 -3l203 -246q6 -8 -2 -14z" />
    <glyph glyph-name="interrobang" unicode="&#x203d;" horiz-adv-x="501" 
d="M129 10l24 136q1 10 11 10h155q9 0 8 -10l-24 -136q-1 -10 -11 -10h-155q-9 0 -8 10zM318 219h-145q-8 0 -8 8l9 226q3 10 12 10h131q8 0 8 -7v-3l-15 -63h2l15 17q44 49 46 88q0 50 -57 50q-42 0 -63 -33q-6 -8 -11 -8l-14 2q-15 3 -51.5 10t-76.5 14q-7 1 -7 6q0 2 2 8
q66 148 259 148q87 0 138 -43.5t51 -115.5q0 -55 -26.5 -100.5t-83.5 -95.5l-73 -61q-24 -21 -28 -40l-2 -7q-1 -10 -12 -10z" />
    <glyph glyph-name="fraction" unicode="&#x2044;" horiz-adv-x="239" 
d="M-51 -12h-116q-9 0 -2 10l503 684q6 10 17 10h118q9 0 2 -10l-504 -684q-7 -10 -18 -10z" />
    <glyph glyph-name="zero.superior" unicode="&#x2070;" 
d="M220 423q-65 0 -101 33t-36 94q0 31 12 100q14 71 28 98q47 95 171 95q64 0 100 -33t36 -94q0 -34 -13 -100q-12 -70 -27 -98q-48 -95 -170 -95zM239 527q15 0 23 17q6 14 18 83q13 68 13 90t-17 22q-16 0 -24 -17q-5 -12 -19 -84q-12 -70 -12 -89q0 -22 18 -22z" />
    <glyph glyph-name="four.superior" unicode="&#x2074;" 
d="M355 430h-106q-8 0 -7 10l6 33q2 6 -5 6h-164q-9 0 -8 10l17 98q2 10 9 20l133 219q6 10 15 10h123q4 0 5.5 -3t-0.5 -7l-142 -233v-3h32q5 0 7 6l8 45q1 10 11 10h105q8 0 7 -10l-7 -45q-2 -6 4 -6h13q8 0 7 -10l-17 -91q-1 -10 -11 -10h-12q-6 0 -7 -6l-5 -33
q-1 -10 -11 -10z" />
    <glyph glyph-name="five.superior" unicode="&#x2075;" 
d="M222 423q-126 0 -130 99q0 12 11 14l99 13q10 1 13 -6q4 -16 21 -16q16 0 24 15q8 18 8 34q0 22 -19 22q-11 0 -22 -10q-6 -6 -14 -6h-100q-9 0 -8 10l41 234q1 10 11 10h261q10 0 9 -10l-15 -87q-2 -11 -11 -11h-150q-5 0 -7 -5l-7 -40h1q23 19 66 19q101 0 101 -94
q0 -52 -20 -95q-21 -43 -64 -66.5t-99 -23.5z" />
    <glyph glyph-name="six.superior" unicode="&#x2076;" 
d="M220 423q-65 0 -102.5 30.5t-37.5 82.5q0 37 14 69.5t49 78.5l104 142q7 10 18 10h126q4 0 5.5 -3t-1.5 -7l-96 -132v-1h9q47 0 74.5 -28t27.5 -73q0 -74 -55 -122q-56 -47 -135 -47zM238 525q15 0 26.5 12.5t11.5 28.5q0 27 -26 27q-16 0 -27.5 -12t-11.5 -28
q0 -28 27 -28z" />
    <glyph glyph-name="seven.superior" unicode="&#x2077;" 
d="M254 430h-125q-11 0 -5 12l168 284l1 2h-43q-6 0 -7 -6l-6 -33q-1 -10 -12 -10h-102q-9 0 -8 10l25 137q1 10 11 10h290q10 0 9 -10l-18 -101q-1 -8 -7 -18l-156 -267q-4 -10 -15 -10z" />
    <glyph glyph-name="eight.superior" unicode="&#x2078;" 
d="M220 423q-64 0 -102.5 28.5t-38.5 78.5q0 68 59 109v1q-23 26 -23 59q0 61 53 102q52 42 126 42q62 0 98 -29.5t36 -76.5q0 -55 -49 -97v-1q29 -27 29 -65q0 -67 -56 -109t-132 -42zM265 684q14 0 23 9.5t9 25.5q0 22 -21 22q-14 0 -23.5 -10t-9.5 -26q0 -21 22 -21z
M238 525q16 0 27 11.5t11 29.5q0 12 -7.5 19t-18.5 7q-16 0 -27.5 -11t-11.5 -29q0 -12 7.5 -19.5t19.5 -7.5z" />
    <glyph glyph-name="nine.superior" unicode="&#x2079;" 
d="M249 430h-126q-4 0 -5.5 3t1.5 7l96 132v1h-9q-47 0 -74.5 28t-27.5 73q0 75 55 121q56 48 136 48q64 0 101.5 -30.5t37.5 -82.5q0 -37 -14 -68.5t-49 -79.5l-104 -142q-7 -10 -18 -10zM265 673q16 0 27 12t11 28q0 28 -26 28q-16 0 -27.5 -12.5t-11.5 -28.5
q0 -27 27 -27z" />
    <glyph glyph-name="zero.inferior" unicode="&#x2080;" 
d="M119 -163q-65 0 -101 33t-36 94q0 34 13 100q12 70 27 98q48 95 171 95q64 0 100 -33t36 -94q0 -34 -13 -100q-12 -70 -27 -98q-47 -95 -170 -95zM138 -59q15 0 23 17q6 14 18 83q13 68 13 90t-17 22q-16 0 -24 -17q-5 -12 -19 -84q-12 -70 -12 -89q0 -22 18 -22z" />
    <glyph glyph-name="one.inferior" unicode="&#x2081;" 
d="M195 -156h-119q-9 0 -8 10l46 260h-2l-72 -37q-4 -2 -7 0t-2 6l19 108q2 11 12 15l67 38q11 6 23 6h114q10 0 9 -10l-68 -386q-1 -10 -12 -10z" />
    <glyph glyph-name="two.inferior" unicode="&#x2082;" 
d="M264 -156h-287q-8 0 -7 10l15 83q3 14 13 21l166 128q28 21 28 47q0 20 -20 20q-26 0 -34 -35q-1 -10 -13 -9l-100 12q-8 1 -7 11q12 57 61 91t121 34q59 0 92.5 -29t33.5 -77q0 -41 -18.5 -72t-60.5 -62l-82 -61v-1h119q9 0 8 -10l-16 -91q-1 -10 -12 -10z" />
    <glyph glyph-name="three.inferior" unicode="&#x2083;" 
d="M121 -163q-65 0 -101.5 29t-35.5 80q0 10 9 11l104 13q9 2 12 -7q7 -22 25 -22q13 0 22.5 10.5t9.5 25.5q0 22 -29 22h-9q-9 0 -8 10l14 82q1 10 11 10h11q13 0 23 9t10 23q0 20 -20 20q-21 0 -30 -22q-4 -9 -13 -8l-101 14q-9 2 -6 11q18 50 64 79.5t111 29.5
q62 0 97 -26t35 -69q0 -64 -63 -99v-2q38 -20 38 -68q0 -70 -52 -113t-128 -43z" />
    <glyph glyph-name="four.inferior" unicode="&#x2084;" 
d="M254 -156h-106q-8 0 -7 10l6 33q1 6 -5 6h-164q-9 0 -8 10l17 98q2 10 9 20l133 219q6 10 15 10h123q4 0 5.5 -3t-0.5 -7l-142 -233v-3h32q6 0 7 6l8 45q1 10 11 10h105q8 0 7 -10l-7 -45q-1 -6 4 -6h13q8 0 7 -10l-17 -91q-1 -10 -11 -10h-12q-5 0 -7 -6l-5 -33
q-1 -10 -11 -10z" />
    <glyph glyph-name="five.inferior" unicode="&#x2085;" 
d="M120 -163q-126 0 -130 99q0 12 11 14l99 13q10 1 13 -6q4 -16 21 -16q16 0 24 15q8 18 8 34q0 22 -19 22q-11 0 -22 -10q-6 -6 -14 -6h-100q-9 0 -8 10l41 234q1 10 11 10h261q10 0 9 -10l-15 -87q-2 -11 -11 -11h-150q-5 0 -7 -5l-7 -40h1q23 19 66 19q101 0 101 -94
q0 -52 -20 -95q-21 -43 -64 -66.5t-99 -23.5z" />
    </font>
</defs>
</svg>
