<?xml version="1.0" standalone="no"?>
<!DOCTYPE svg PUBLIC "-//W3C//DTD SVG 1.1//EN" "http://www.w3.org/Graphics/SVG/1.1/DTD/svg11.dtd" >
<svg xmlns="http://www.w3.org/2000/svg" xmlns:xlink="http://www.w3.org/1999/xlink" version="1.1">
<metadata>
Created by FontForge 20161013 at Wed Apr  9 00:47:54 2014
 By ,,,
Copyright (c) 2010 Linotype GmbH, www.linotype.com. All rights reserved. This font software may not be reproduced, modified, disclosed or transferred without the express written approval of Linotype GmbH.
</metadata>
<defs>
<font id="DINNextW1G-BoldItalic" horiz-adv-x="536" >
  <font-face 
    font-family="DIN Next W1G"
    font-weight="700"
    font-style="italic"
    font-stretch="normal"
    units-per-em="1000"
    panose-1="2 11 8 3 2 2 3 12 2 3"
    ascent="781"
    descent="-219"
    x-height="484"
    cap-height="680"
    bbox="-179.231 -234 1048 924"
    underline-thickness="50"
    underline-position="-200"
    slope="-10"
    unicode-range="U+000D-FB04"
  />
<missing-glyph horiz-adv-x="506" 
d="M496 0h-486q-10 0 -10 10v660q0 10 10 10h486q10 0 10 -10v-660q0 -10 -10 -10zM75 65h356q6 0 6 6v538q0 6 -6 6h-356q-6 0 -6 -6v-538q0 -6 6 -6zM277 243h-68q-10 0 -10 10v24q0 29 19 54l46 60q23 31 23 52q0 18 -11.5 30t-29.5 12q-38 0 -48 -39q-2 -11 -11 -9
l-65 10q-10 0 -8 11q9 49 44.5 77t91.5 28t91.5 -33t35.5 -84q0 -45 -32 -82l-45 -60q-13 -17 -13 -38v-13q0 -10 -10 -10zM279 114h-71q-10 0 -10 10v67q0 10 10 10h71q10 0 10 -10v-67q0 -10 -10 -10z" />
    <glyph glyph-name="IJ" unicode="IJ" horiz-adv-x="763" 
d="M266 79q-3 8 5 14l95 64q9 5 13 -2q31 -40 76 -40q94 0 114 119l77 436q1 10 11 10h122q9 0 8 -10l-76 -429q-24 -133 -89 -192.5t-181 -59.5q-58 0 -108 26q-49 27 -67 64zM30 10l117 660q1 10 11 10h121q9 0 8 -10l-117 -660q-1 -10 -10 -10h-121q-10 0 -9 10z" />
    <glyph glyph-name="ij" unicode="ij" horiz-adv-x="510" 
d="M506 565h-116q-9 0 -8 10l18 95q1 10 11 10h115q9 0 8 -10l-17 -95q-1 -10 -11 -10zM212 -180h-32q-10 0 -7 10l17 94q1 10 11 10h16q30 0 43.5 12t19.5 45l85 483q1 10 11 10h115q9 0 8 -10l-85 -482q-18 -99 -62 -136q-44 -36 -140 -36zM251 565h-116q-9 0 -8 10l18 95
q1 10 11 10h115q9 0 8 -10l-17 -95q-1 -10 -11 -10zM152 0h-115q-10 0 -9 10l82 464q1 10 11 10h115q9 0 8 -10l-82 -464q-1 -10 -10 -10z" />
    <glyph glyph-name="napostrophe" unicode="&#x22;n" horiz-adv-x="533" 
d="M431 0h-114q-9 0 -8 10l49 278q15 93 -56 93q-35 0 -59 -24.5t-32 -66.5l-49 -280q-1 -10 -10 -10h-115q-10 0 -9 10l82 464q1 10 11 10h115q9 0 8 -10l-7 -36h1q50 57 132 57q75 0 108 -49t19 -131l-55 -305q-1 -10 -11 -10zM46 491q-10 0 -8 12l29 167q1 10 11 10h91
q10 0 9 -10l-15 -82q-1 -10 -11 -20l-90 -69q-10 -8 -16 -8z" />
    <glyph glyph-name="f_f" unicode="ff" horiz-adv-x="654" 
d="M169 0h-115q-10 0 -9 10l65 370q2 6 -4 6h-30q-8 0 -7 10l14 78q1 10 10 10h30q5 0 7 6l4 25q16 87 62 126t130 39h53q9 0 8 -10l-16 -89q-1 -10 -11 -10h-28q-33 0 -46.5 -11t-18.5 -43l-5 -26q-1 -7 5 -7h76q10 0 9 -10l-14 -78q-1 -10 -12 -10h-76q-6 0 -7 -6
l-64 -370q-1 -10 -10 -10zM496 0h-115q-10 0 -9 10l65 370q1 6 -4 6h-30q-8 0 -7 10l14 78q1 10 10 10h30q6 0 7 6l4 25q16 87 62 126t130 39h53q9 0 8 -10l-16 -89q-1 -10 -11 -10h-28q-33 0 -46.5 -11t-18.5 -43l-5 -26q-1 -7 5 -7h76q10 0 9 -10l-14 -78q-1 -10 -12 -10
h-76q-5 0 -7 -6l-64 -370q-1 -10 -10 -10z" />
    <glyph glyph-name="fi" unicode="fi" horiz-adv-x="582" 
d="M169 0h-115q-10 0 -9 10l65 370q2 6 -4 6h-30q-8 0 -7 10l14 78q1 10 10 10h30q5 0 7 6l4 25q16 87 62 126t130 39h53q9 0 8 -10l-16 -89q-1 -10 -11 -10h-28q-33 0 -46.5 -11t-18.5 -43l-5 -26q-1 -7 5 -7h76q10 0 9 -10l-14 -78q-1 -10 -12 -10h-76q-6 0 -7 -6
l-64 -370q-1 -10 -10 -10zM578 565h-116q-9 0 -8 10l18 95q1 10 11 10h115q9 0 8 -10l-17 -95q-1 -10 -11 -10zM479 0h-115q-10 0 -9 10l82 464q1 10 11 10h115q9 0 8 -10l-82 -464q-1 -10 -10 -10z" />
    <glyph glyph-name="fl" unicode="fl" horiz-adv-x="619" 
d="M169 0h-115q-10 0 -9 10l65 370q2 6 -4 6h-30q-8 0 -7 10l14 78q1 10 10 10h30q5 0 7 6l4 25q16 87 62 126t130 39h53q9 0 8 -10l-16 -89q-1 -10 -11 -10h-28q-33 0 -46.5 -11t-18.5 -43l-5 -26q-1 -7 5 -7h76q10 0 9 -10l-14 -78q-1 -10 -12 -10h-76q-6 0 -7 -6
l-64 -370q-1 -10 -10 -10zM544 -6h-50q-77 0 -103.5 35.5t-12.5 115.5l94 525q1 10 10 10h115q10 0 9 -10l-94 -517q-4 -23 3.5 -33.5t29.5 -10.5h19q9 0 8 -10l-16 -95q-1 -10 -12 -10z" />
    <glyph glyph-name="f_f_i" unicode="ffi" horiz-adv-x="909" 
d="M169 0h-115q-10 0 -9 10l65 370q2 6 -4 6h-30q-8 0 -7 10l14 78q1 10 10 10h30q5 0 7 6l4 25q16 87 62 126t130 39h53q9 0 8 -10l-16 -89q-1 -10 -11 -10h-28q-33 0 -46.5 -11t-18.5 -43l-5 -26q-1 -7 5 -7h76q10 0 9 -10l-14 -78q-1 -10 -12 -10h-76q-6 0 -7 -6
l-64 -370q-1 -10 -10 -10zM496 0h-115q-10 0 -9 10l65 370q1 6 -4 6h-30q-8 0 -7 10l14 78q1 10 10 10h30q6 0 7 6l4 25q16 87 62 126t130 39h53q9 0 8 -10l-16 -89q-1 -10 -11 -10h-28q-33 0 -46.5 -11t-18.5 -43l-5 -26q-1 -7 5 -7h76q10 0 9 -10l-14 -78q-1 -10 -12 -10
h-76q-5 0 -7 -6l-64 -370q-1 -10 -10 -10zM905 565h-116q-9 0 -8 10l18 95q1 10 11 10h115q9 0 8 -10l-17 -95q-1 -10 -11 -10zM806 0h-115q-10 0 -9 10l82 464q1 10 11 10h115q9 0 8 -10l-82 -464q-1 -10 -10 -10z" />
    <glyph glyph-name="f_f_l" unicode="ffl" horiz-adv-x="946" 
d="M169 0h-115q-10 0 -9 10l65 370q2 6 -4 6h-30q-8 0 -7 10l14 78q1 10 10 10h30q5 0 7 6l4 25q16 87 62 126t130 39h53q9 0 8 -10l-16 -89q-1 -10 -11 -10h-28q-33 0 -46.5 -11t-18.5 -43l-5 -26q-1 -7 5 -7h76q10 0 9 -10l-14 -78q-1 -10 -12 -10h-76q-6 0 -7 -6
l-64 -370q-1 -10 -10 -10zM496 0h-115q-10 0 -9 10l65 370q1 6 -4 6h-30q-8 0 -7 10l14 78q1 10 10 10h30q6 0 7 6l4 25q16 87 62 126t130 39h53q9 0 8 -10l-16 -89q-1 -10 -11 -10h-28q-33 0 -46.5 -11t-18.5 -43l-5 -26q-1 -7 5 -7h76q10 0 9 -10l-14 -78q-1 -10 -12 -10
h-76q-5 0 -7 -6l-64 -370q-1 -10 -10 -10zM871 -6h-50q-77 0 -103.5 35.5t-12.5 115.5l94 525q1 10 10 10h115q10 0 9 -10l-94 -517q-4 -23 3.5 -33.5t29.5 -10.5h19q9 0 8 -10l-16 -95q-1 -10 -12 -10z" />
    <glyph glyph-name=".notdef" horiz-adv-x="506" 
d="M496 0h-486q-10 0 -10 10v660q0 10 10 10h486q10 0 10 -10v-660q0 -10 -10 -10zM75 65h356q6 0 6 6v538q0 6 -6 6h-356q-6 0 -6 -6v-538q0 -6 6 -6zM277 243h-68q-10 0 -10 10v24q0 29 19 54l46 60q23 31 23 52q0 18 -11.5 30t-29.5 12q-38 0 -48 -39q-2 -11 -11 -9
l-65 10q-10 0 -8 11q9 49 44.5 77t91.5 28t91.5 -33t35.5 -84q0 -45 -32 -82l-45 -60q-13 -17 -13 -38v-13q0 -10 -10 -10zM279 114h-71q-10 0 -10 10v67q0 10 10 10h71q10 0 10 -10v-67q0 -10 -10 -10z" />
    <glyph glyph-name=".null" horiz-adv-x="0" 
 />
    <glyph glyph-name="nonmarkingreturn" horiz-adv-x="333" 
 />
    <glyph glyph-name="NULL" horiz-adv-x="500" 
 />
    <glyph glyph-name="NULL" horiz-adv-x="500" 
 />
    <glyph glyph-name="CR" unicode="&#xd;" horiz-adv-x="0" 
 />
    <glyph glyph-name="space" unicode=" " horiz-adv-x="229" 
 />
    <glyph glyph-name="exclam" unicode="!" horiz-adv-x="299" 
d="M191 198h-79q-9 0 -8 10l59 462q1 10 11 10h123q9 0 8 -10l-103 -462q-1 -10 -11 -10zM54 10l19 110q1 10 11 10h113q10 0 9 -10l-19 -110q-1 -10 -11 -10h-114q-9 0 -8 10z" />
    <glyph glyph-name="quotedbl" unicode="&#x22;" horiz-adv-x="359" 
d="M344 476h-76q-9 0 -8 10l33 184q1 10 11 10h75q10 0 9 -10l-33 -184q-1 -10 -11 -10zM190 476h-76q-9 0 -8 10l33 184q1 10 11 10h76q9 0 8 -10l-33 -184q-1 -10 -11 -10z" />
    <glyph glyph-name="numbersign" unicode="#" horiz-adv-x="533" 
d="M46 10l57 187h-61q-10 0 -9 10l14 74q1 10 11 10h74l33 108h-62q-10 0 -9 10l13 74q1 10 11 10h76l55 177q3 10 12 10h86q11 0 8 -10l-55 -177h102l55 177q3 10 12 10h86q10 0 7 -10l-55 -177h64q10 0 9 -10l-14 -74q-1 -10 -10 -10h-78l-33 -108h66q10 0 9 -10l-13 -74
q-1 -10 -11 -10h-80l-58 -187q-3 -10 -11 -10h-86q-11 0 -8 10l58 187h-102l-58 -187q-3 -10 -12 -10h-86q-10 0 -7 10zM271 399l-33 -108h102l33 108h-102z" />
    <glyph glyph-name="dollar" unicode="$" 
d="M29 65q-6 8 1 15l76 78q9 9 15 1q47 -49 108 -53l32 179q-72 11 -112.5 55.5t-40.5 111.5q0 98 62 165q62 65 162 73l10 57q1 10 11 10h39q9 0 8 -10l-10 -58q84 -8 142 -57q6 -6 -1 -15l-66 -76q-8 -8 -14 -3q-37 27 -82 35l-30 -169h2q75 -11 114 -52t39 -107
q0 -109 -63 -176q-61 -67 -164 -78l-10 -58q-1 -10 -12 -10h-38q-9 0 -8 10l10 57q-108 8 -180 75zM284 416l27 154q-30 -10 -48.5 -35.5t-18.5 -59.5q0 -43 40 -59zM316 272l-28 -160q33 13 51 40.5t18 61.5q0 40 -41 58z" />
    <glyph glyph-name="percent" unicode="%" horiz-adv-x="788" 
d="M120 -1l502 682q7 10 17 10h80q9 0 3 -10l-502 -682q-7 -10 -17 -10h-79q-10 0 -4 10zM219 330q-49 0 -80 28t-31 75q0 33 10 89q10 57 24 86q38 80 138 80q49 0 80 -28t31 -76q0 -35 -10 -89q-11 -60 -23 -85q-41 -80 -139 -80zM231 406q27 0 39 25q7 13 18 74
q11 63 11 76q0 31 -31 31q-27 0 -39 -25q-7 -13 -18 -74q-10 -57 -10 -76q0 -31 30 -31zM451 95q0 32 10 88q11 62 23 86q39 80 139 80q49 0 80 -27.5t31 -75.5q0 -35 -10 -89q-11 -60 -23 -85q-41 -81 -139 -81q-49 0 -80 28t-31 76zM543 98q0 -31 31 -31q26 0 38 26
q8 14 18 73q11 63 11 76q0 31 -31 31q-27 0 -39 -25q-7 -15 -17 -74q-11 -63 -11 -76z" />
    <glyph glyph-name="ampersand" unicode="&#x26;" horiz-adv-x="619" 
d="M32 140q0 62 33 114q33 53 128 123q-47 83 -47 131q0 77 59 130t144 53q66 0 105.5 -36.5t39.5 -94.5q0 -53 -33 -100q-30 -45 -117 -107l64 -112l84 83q7 6 14 0l58 -59q6 -7 -1 -14l-102 -103l10 -16q13 -22 38 -22h21q9 0 8 -10l-16 -90q-1 -10 -11 -10h-37
q-38 0 -58.5 11.5t-38.5 43.5l-5 8q-92 -74 -182 -74q-72 0 -115 42.5t-43 108.5zM293 446q47 34 64.5 56t17.5 44q0 21 -11.5 33.5t-31.5 12.5q-27 0 -46 -20t-19 -48q0 -29 26 -78zM156 160q0 -27 16.5 -43t45.5 -16q41 0 101 54l-75 131q-50 -36 -69 -64t-19 -62z" />
    <glyph glyph-name="quotesingle" unicode="'" horiz-adv-x="205" 
d="M190 476h-76q-9 0 -8 10l32 184q1 10 11 10h76q10 0 9 -10l-33 -184q-1 -10 -11 -10z" />
    <glyph glyph-name="parenleft" unicode="(" horiz-adv-x="301" 
d="M125 -74q-63 124 -63 279q0 137 54 274t151 251q7 10 17 10h70q11 0 4 -10q-172 -271 -172 -572q0 -127 30 -232q3 -10 -7 -10h-70q-10 0 -14 10z" />
    <glyph glyph-name="parenright" unicode=")" horiz-adv-x="301" 
d="M-8 -74q172 274 172 572q0 127 -30 232q-3 10 7 10h70q9 0 13 -10q64 -124 64 -279q0 -139 -54 -276q-54 -135 -152 -249q-7 -10 -16 -10h-70q-11 0 -4 10z" />
    <glyph glyph-name="asterisk" unicode="*" horiz-adv-x="360" 
d="M237 376h-52q-9 0 -8 10l16 82l-73 -41q-10 -6 -14 3l-18 45q-3 8 5 13l79 42l-62 41q-10 5 -2 14l31 41q6 8 14 2l61 -42l14 84q1 10 11 10h52q9 0 8 -10l-15 -80l73 40q10 6 14 -3l18 -46q3 -8 -6 -13l-79 -41l63 -40q10 -5 2 -14l-31 -42q-6 -7 -15 -3l-61 41l-13 -83
q-1 -10 -12 -10z" />
    <glyph glyph-name="plus" unicode="+" 
d="M215 219h-148q-10 0 -10 10v94q0 10 10 10h148q6 0 6 6v152q0 10 10 10h97q10 0 10 -10v-152q0 -6 6 -6h148q10 0 10 -10v-94q0 -10 -10 -10h-148q-6 0 -6 -6v-152q0 -10 -10 -10h-97q-10 0 -10 10v152q0 6 -6 6z" />
    <glyph glyph-name="comma" unicode="," horiz-adv-x="244" 
d="M7 -95l39 221q1 10 11 10h106q10 0 9 -10l-19 -117q-1 -11 -12 -21l-108 -88q-10 -8 -16 -8q-11 0 -10 13z" />
    <glyph glyph-name="hyphen" unicode="-" horiz-adv-x="372" 
d="M329 207h-277q-9 0 -8 10l17 97q1 10 11 10h277q9 0 8 -10l-17 -97q-1 -10 -11 -10z" />
    <glyph glyph-name="period" unicode="." horiz-adv-x="244" 
d="M23 10l20 116q1 10 11 10h113q10 0 9 -10l-20 -116q-1 -10 -11 -10h-113q-10 0 -9 10z" />
    <glyph glyph-name="slash" unicode="/" horiz-adv-x="408" 
d="M7 -1l331 682q4 10 14 10h106q9 0 5 -10l-331 -682q-4 -10 -14 -10h-105q-10 0 -6 10z" />
    <glyph glyph-name="zero" unicode="0" 
d="M56 153q0 55 27 207q27 153 49 198q64 133 218 133q82 0 130 -43.5t48 -120.5q0 -56 -27 -208t-49 -197q-64 -133 -218 -133q-82 0 -130 43.5t-48 120.5zM191 164q0 -28 16 -45t43 -17q52 0 74 48q15 28 42 176t27 190q0 28 -16 45t-43 17q-52 0 -74 -48
q-15 -28 -42 -177q-27 -147 -27 -189z" />
    <glyph glyph-name="one" unicode="1" 
d="M182 10l92 519h-2l-120 -76q-5 -3 -8 -1t-2 8l20 117q1 9 9 14l127 83q10 6 18 6h108q10 0 9 -10l-117 -660q-1 -10 -11 -10h-114q-10 0 -9 10z" />
    <glyph glyph-name="two" unicode="2" 
d="M29 10l16 88q3 10 9 16l279 286q59 62 59 116q0 28 -16 45t-45 17q-34 0 -58.5 -21.5t-35.5 -61.5q-3 -9 -12 -8l-102 18q-8 2 -5 11q19 78 80.5 126.5t151.5 48.5q80 0 129 -43.5t49 -112.5q0 -101 -98 -202l-213 -216v-2h229q10 0 9 -10l-17 -95q-1 -10 -11 -10h-389
q-10 0 -9 10z" />
    <glyph glyph-name="three" unicode="3" 
d="M38 144q0 10 11 13l106 20q10 1 10 -8q9 -67 75 -67q43 0 71.5 33.5t28.5 82.5q0 36 -20 56t-57 20h-27q-9 0 -8 10l16 92q1 10 12 10h25q42 0 70.5 31.5t28.5 77.5q0 29 -16 46t-45 17q-59 0 -88 -66q-3 -9 -12 -7l-102 20q-8 2 -5 11q24 69 86.5 112t145.5 43
q81 0 127 -40t46 -108q0 -57 -27 -105t-76 -75v-2q27 -15 44.5 -47.5t17.5 -75.5q0 -109 -71 -180q-71 -69 -179 -69q-85 0 -136 41.5t-52 113.5z" />
    <glyph glyph-name="four" unicode="4" 
d="M287 103h-254q-9 0 -8 10l17 95q2 7 7 15l271 449q6 8 16 8h119q12 0 5 -10l-269 -450v-2h116q7 0 8 6l27 149q1 10 11 10h111q9 0 8 -10l-26 -149q-2 -6 4 -6h42q10 0 9 -10l-17 -95q-1 -10 -11 -10h-43q-6 0 -7 -6l-15 -87q-1 -10 -11 -10h-111q-10 0 -9 10l15 87
q2 6 -5 6z" />
    <glyph glyph-name="five" unicode="5" 
d="M59 140q0 9 8 11l107 19q9 2 10 -8q8 -60 66 -60q55 0 78 50q10 21 18 59q8 42 8 63q0 66 -63 66q-51 0 -74 -43q-4 -10 -14 -10h-102q-8 0 -7 10l66 373q1 10 10 10h365q10 0 9 -10l-17 -95q-1 -10 -12 -10h-251q-6 0 -7 -6l-25 -142h2q40 35 107 35q147 0 147 -146
q0 -44 -12 -102q-10 -57 -29 -96q-59 -119 -212 -119q-83 0 -130 41t-46 110z" />
    <glyph glyph-name="six" unicode="6" 
d="M46 158q0 101 79 213l212 302q4 7 13 7h121q12 0 5 -10l-184 -266l2 -1q11 7 43 7q69 0 112 -43.5t43 -115.5q0 -113 -73 -187q-73 -75 -187 -75q-84 0 -135 45.5t-51 123.5zM178 178q0 -34 20 -55t53 -21q45 0 76.5 35.5t31.5 86.5q0 35 -19.5 55.5t-53.5 20.5
q-46 0 -77 -35.5t-31 -86.5z" />
    <glyph glyph-name="seven" unicode="7" 
d="M93 11l307 550v2h-139q-5 0 -7 -6l-14 -72q-1 -10 -11 -10h-107q-8 0 -7 10l33 185q1 10 11 10h392q9 0 8 -10l-17 -97l-6 -17l-304 -547q-4 -9 -16 -9h-117q-11 0 -6 11z" />
    <glyph glyph-name="eight" unicode="8" 
d="M46 155q0 60 29.5 114t80.5 86l1 2q-42 36 -42 103q0 90 66 161q66 70 175 70q82 0 130 -44.5t48 -115.5q0 -110 -92 -174l-1 -2q56 -45 56 -121q0 -102 -74 -174q-74 -71 -185 -71q-87 0 -139.5 45t-52.5 121zM308 411q39 0 66.5 30t27.5 72q0 30 -16.5 47.5t-46.5 17.5
q-39 0 -66.5 -30t-27.5 -72q0 -29 17 -47t46 -18zM179 179q0 -35 20.5 -56t55.5 -21q45 0 77 35t32 85q0 35 -20 56t-55 21q-46 0 -78 -35t-32 -85z" />
    <glyph glyph-name="nine" unicode="9" 
d="M109 10l182 266l-1 1q-11 -7 -42 -7q-69 0 -112 46t-43 119q0 107 72 181q72 75 188 75q85 0 136 -45.5t51 -123.5q0 -96 -81 -212l-211 -303q-4 -7 -13 -7h-121q-5 0 -6.5 3t1.5 7zM300 380q47 0 77 35q31 35 31 85q0 36 -19.5 57t-53.5 21q-47 0 -78 -36
q-30 -36 -30 -85q0 -35 19.5 -56t53.5 -21z" />
    <glyph glyph-name="colon" unicode=":" horiz-adv-x="244" 
d="M207 348h-114q-10 0 -9 10l20 116q1 10 11 10h114q10 0 9 -10l-20 -116q-1 -10 -11 -10zM23 10l20 116q1 10 11 10h113q10 0 9 -10l-20 -116q-1 -10 -11 -10h-113q-10 0 -9 10z" />
    <glyph glyph-name="semicolon" unicode=";" horiz-adv-x="244" 
d="M208 348h-114q-10 0 -9 10l20 116q1 10 11 10h114q10 0 9 -10l-20 -116q-1 -10 -11 -10zM9 -95l38 221q1 10 11 10h107q10 0 9 -10l-20 -117q-3 -13 -12 -21l-108 -88q-10 -8 -16 -8q-12 0 -9 13z" />
    <glyph glyph-name="less" unicode="&#x3c;" 
d="M492 54l-425 168q-10 4 -10 14v80q0 10 10 14l425 168q10 3 10 -6v-103q0 -9 -10 -13l-264 -99v-2l264 -99q10 -4 10 -13v-103q0 -9 -10 -6z" />
    <glyph glyph-name="equal" unicode="=" 
d="M499 323h-425q-10 0 -10 10v94q0 10 10 10h425q10 0 10 -10v-94q0 -10 -10 -10zM499 115h-425q-10 0 -10 10v94q0 10 10 10h425q10 0 10 -10v-94q0 -10 -10 -10z" />
    <glyph glyph-name="greater" unicode="&#x3e;" 
d="M70 60v103q0 9 10 13l263 99v2l-263 99q-10 4 -10 13v103q0 9 10 6l425 -168q10 -4 10 -14v-80q0 -10 -10 -14l-425 -168q-10 -3 -10 6z" />
    <glyph glyph-name="question" unicode="?" horiz-adv-x="462" 
d="M281 197h-109q-9 0 -8 10l8 42q9 52 43 86l81 89q31 33 43 54t12 45q0 54 -53 54q-60 0 -88 -73q-4 -10 -13 -9l-101 15q-9 2 -6 12q24 77 86 123t143 46q77 0 122 -40.5t45 -106.5q0 -82 -82 -164l-76 -85q-24 -27 -31 -63l-5 -25q-1 -10 -11 -10zM128 10l19 110
q1 10 11 10h113q10 0 9 -10l-19 -110q-1 -10 -11 -10h-114q-9 0 -8 10z" />
    <glyph glyph-name="at" unicode="@" horiz-adv-x="879" 
d="M43 195q0 210 129 342t339 132q154 0 247 -90q93 -89 93 -233q0 -136 -60 -214t-159 -78q-92 0 -113 66h-1q-44 -66 -134 -66q-57 0 -92.5 35.5t-35.5 96.5q0 44 12 101q11 55 29 92q47 96 146 96q36 0 61.5 -14t34.5 -37h2l5 31q1 10 9 10h92q7 0 6 -10l-42 -242
q-12 -65 40 -65q41 0 67 51t26 136q0 113 -66.5 176.5t-183.5 63.5q-155 0 -249 -106t-94 -267q0 -112 66.5 -177.5t181.5 -65.5q101 0 201 47q9 5 12 -4l30 -68q5 -8 -6 -13q-106 -60 -253 -60q-153 0 -247 93q-93 91 -93 241zM365 209q0 -59 57 -61q48 0 72 49q9 17 17 59
t8 64q0 61 -57 61q-49 0 -71 -49q-11 -20 -18 -60q-8 -43 -8 -63z" />
    <glyph glyph-name="A" unicode="A" horiz-adv-x="624" 
d="M121 0h-132q-9 0 -5 10l343 660q4 10 15 10h121q10 0 11 -10l105 -660q1 -10 -7 -10h-122q-11 0 -12 10l-16 122h-229l-59 -122q-4 -10 -13 -10zM373 500l-121 -248h155l-31 248h-3z" />
    <glyph glyph-name="B" unicode="B" horiz-adv-x="585" 
d="M30 10l117 660q1 10 11 10h254q89 0 135 -38t46 -108q0 -124 -108 -180v-2q29 -12 47.5 -44t18.5 -75q0 -108 -70 -170.5t-193 -62.5h-249q-10 0 -9 10zM245 400h99q46 0 75.5 28.5t29.5 74.5q0 64 -75 64h-100q-6 0 -7 -6l-27 -155q-2 -6 5 -6zM219 286l-29 -167
q-2 -6 4 -6h108q48 0 78 30.5t30 80.5q0 68 -77 68h-107q-6 0 -7 -6z" />
    <glyph glyph-name="C" unicode="C" horiz-adv-x="555" 
d="M51 197q0 53 21 169q23 120 47 168q79 157 258 157q79 0 131 -39.5t69 -111.5q1 -8 -7 -13l-106 -44q-9 -4 -13 6q-20 77 -90 77q-76 0 -114 -80q-17 -34 -36 -135q-18 -101 -18 -142q0 -44 23.5 -69.5t66.5 -25.5q69 0 115 78q6 9 15 5l95 -51q7 -3 3 -13
q-88 -144 -249 -144q-97 0 -154 54.5t-57 153.5z" />
    <glyph glyph-name="D" unicode="D" horiz-adv-x="605" 
d="M30 10l117 660q1 10 11 10h243q196 0 196 -193q0 -67 -21 -180q-19 -109 -47 -168q-38 -74 -96.5 -106.5t-150.5 -32.5h-243q-10 0 -9 10zM266 549l-74 -418q-2 -6 5 -6h76q51 0 82.5 18t51.5 59q16 33 33 122q17 91 17 132q0 51 -26.5 75t-83.5 24h-75q-4 0 -6 -6z" />
    <glyph glyph-name="E" unicode="E" horiz-adv-x="542" 
d="M30 10l117 660q1 10 11 10h418q9 0 8 -10l-18 -102q-1 -10 -11 -10h-282q-5 0 -7 -6l-25 -143q-1 -6 5 -6h234q9 0 8 -10l-18 -100q-1 -10 -12 -10h-234q-6 0 -7 -6l-26 -149q-1 -6 5 -6h282q9 0 8 -10l-19 -102q-1 -10 -11 -10h-417q-10 0 -9 10z" />
    <glyph glyph-name="F" unicode="F" 
d="M30 10l117 660q1 10 11 10h418q9 0 8 -10l-18 -102q-1 -10 -11 -10h-283q-4 0 -6 -6l-27 -151q0 -6 5 -6h234q10 0 9 -10l-18 -100q-1 -10 -12 -10h-235q-4 0 -6 -6l-46 -259q-1 -10 -11 -10h-120q-10 0 -9 10z" />
    <glyph glyph-name="G" unicode="G" horiz-adv-x="601" 
d="M51 197q0 56 22 170q23 120 46 168q77 156 267 156q80 0 135 -40t70 -104q3 -8 -6 -14l-106 -43q-8 -4 -13 5q-26 71 -100 71q-81 0 -119 -80q-15 -30 -35 -135q-19 -98 -19 -141q0 -44 25.5 -70t69.5 -26q82 0 118 73q14 34 20 71q0 6 -5 6h-88q-8 0 -7 10l16 92
q1 10 11 10h226q8 0 7 -10l-10 -55q-18 -111 -45 -167q-78 -155 -263 -155q-100 0 -158.5 54.5t-58.5 153.5z" />
    <glyph glyph-name="H" unicode="H" horiz-adv-x="634" 
d="M30 10l117 660q1 10 11 10h121q9 0 8 -10l-45 -258q-2 -6 5 -6h214q5 0 7 6l46 258q1 10 11 10h121q10 0 9 -10l-117 -660q-1 -10 -11 -10h-121q-10 0 -9 10l47 265q2 6 -5 6h-215q-6 0 -7 -6l-47 -265q-1 -10 -10 -10h-121q-10 0 -9 10z" />
    <glyph glyph-name="I" unicode="I" horiz-adv-x="266" 
d="M30 10l117 660q1 10 11 10h121q9 0 8 -10l-117 -660q-1 -10 -10 -10h-121q-10 0 -9 10z" />
    <glyph glyph-name="J" unicode="J" horiz-adv-x="497" 
d="M1 79q-3 8 5 14l95 64q9 5 13 -2q31 -40 76 -40q94 0 114 119l77 436q1 10 11 10h122q9 0 8 -10l-76 -429q-24 -133 -89 -192.5t-181 -59.5q-58 0 -108 26q-49 27 -67 64z" />
    <glyph glyph-name="K" unicode="K" horiz-adv-x="619" 
d="M30 10l117 660q1 10 11 10h121q9 0 8 -10l-51 -285l263 286q7 9 18 9h144q13 0 4 -13l-251 -262l141 -393q3 -12 -9 -12h-123q-11 0 -14 9l-99 293l-109 -118l-31 -174q-1 -10 -10 -10h-121q-10 0 -9 10z" />
    <glyph glyph-name="L" unicode="L" horiz-adv-x="519" 
d="M30 10l117 660q1 10 11 10h121q9 0 8 -10l-95 -539q-2 -6 5 -6h277q9 0 8 -10l-19 -105q-1 -10 -10 -10h-414q-10 0 -9 10z" />
    <glyph glyph-name="M" unicode="M" horiz-adv-x="737" 
d="M30 10l117 660q1 10 11 10h107q12 0 15 -10l97 -396h3l234 396q6 10 16 10h119q10 0 9 -10l-117 -660q-1 -10 -11 -10h-108q-10 0 -9 10l70 395h-4l-177 -298q-6 -13 -20 -13h-64q-12 0 -16 13l-71 298h-4l-70 -395q-1 -10 -10 -10h-108q-10 0 -9 10z" />
    <glyph glyph-name="N" unicode="N" horiz-adv-x="631" 
d="M30 10l117 660q1 10 11 10h114q12 0 15 -10l155 -437h4l78 437q1 10 11 10h108q10 0 9 -10l-117 -660q-1 -10 -11 -10h-115q-10 0 -14 10l-156 437h-5l-77 -437q-1 -10 -10 -10h-108q-10 0 -9 10z" />
    <glyph glyph-name="O" unicode="O" horiz-adv-x="602" 
d="M266 -11q-100 0 -157.5 54.5t-57.5 153.5q0 56 22 170q23 120 46 168q77 156 264 156q100 0 157.5 -54.5t57.5 -153.5q0 -55 -22 -171q-23 -120 -46 -167q-76 -156 -264 -156zM285 114q79 0 118 80q16 31 34 134q19 98 19 142q0 45 -24 70.5t-68 25.5q-79 0 -117 -80
q-16 -33 -36 -134q-18 -101 -18 -142q0 -45 24.5 -70.5t67.5 -25.5z" />
    <glyph glyph-name="P" unicode="P" horiz-adv-x="582" 
d="M160 0h-121q-9 0 -8 10l117 660q1 10 10 10h253q93 0 144 -45.5t51 -126.5q0 -124 -75 -193q-73 -69 -195 -69h-117q-7 0 -7 -6l-41 -230q-1 -10 -11 -10zM240 368h108q51 0 83.5 32t32.5 85q0 34 -21.5 53.5t-60.5 19.5h-108q-6 0 -7 -6l-32 -178q0 -6 5 -6z" />
    <glyph glyph-name="Q" unicode="Q" horiz-adv-x="605" 
d="M526 9l-84 -60q-11 -8 -15 1l-39 59q-57 -20 -122 -20q-100 0 -157.5 54.5t-57.5 153.5q0 56 22 170q23 120 46 168q77 156 264 156q100 0 157.5 -54.5t57.5 -153.5q0 -55 -22 -171q-23 -120 -46 -167q-22 -43 -39 -61l39 -60q5 -9 -4 -15zM285 114q21 0 34 4l-38 59
q-5 8 5 14l84 60q9 6 15 -2l24 -38q15 42 31 134q16 86 16 125q0 45 -24 70.5t-67 25.5q-80 0 -118 -80q-15 -30 -35 -135q-19 -98 -19 -141q0 -45 24 -70.5t68 -25.5z" />
    <glyph glyph-name="R" unicode="R" horiz-adv-x="600" 
d="M520 0h-119q-10 0 -13 10l-69 252h-98q-7 0 -7 -6l-44 -246q-1 -10 -10 -10h-121q-10 0 -9 10l117 660q1 10 11 10h258q89 0 140 -46t51 -122q0 -80 -42.5 -141.5t-114.5 -89.5l78 -269q2 -4 -0.5 -8t-7.5 -4zM242 382h115q47 1 77.5 30.5t30.5 78.5q0 31 -21 49t-56 18
h-115q-5 0 -7 -6l-29 -164q-1 -6 5 -6z" />
    <glyph glyph-name="S" unicode="S" horiz-adv-x="574" 
d="M256 -11q-73 0 -142 26q-69 28 -100 66q-6 9 1 16l86 82q8 8 14 1q64 -67 160 -67q54 0 89.5 29.5t35.5 72.5q0 27 -20 42t-67 22l-33 5q-177 25 -177 170q0 107 74 172q76 65 193 65q132 0 212 -72q8 -5 0 -15l-71 -82q-8 -8 -14 -3q-65 49 -138 49q-47 0 -78 -27
t-31 -66q0 -27 20 -42.5t67 -22.5l33 -5q178 -27 178 -163q0 -118 -81 -185q-82 -68 -211 -68z" />
    <glyph glyph-name="T" unicode="T" horiz-adv-x="538" 
d="M295 0h-121q-9 0 -8 10l95 539q1 6 -5 6h-166q-10 0 -9 10l19 105q1 10 11 10h485q10 0 9 -10l-19 -105q-1 -10 -11 -10h-167q-6 0 -7 -6l-95 -539q-1 -10 -11 -10z" />
    <glyph glyph-name="U" unicode="U" horiz-adv-x="619" 
d="M308 -11q-120 0 -180 69q-60 71 -38 195l74 417q1 10 10 10h121q10 0 9 -10l-75 -425q-11 -62 13.5 -96.5t77.5 -34.5t84.5 30.5t43.5 100.5l76 425q1 10 11 10h120q10 0 9 -10l-76 -427q-24 -135 -92 -194.5t-188 -59.5z" />
    <glyph glyph-name="V" unicode="V" horiz-adv-x="572" 
d="M308 0h-112q-10 0 -11 10l-93 659q-2 11 10 11h119q12 0 13 -10l52 -457h3l208 457q6 10 15 10h128q12 0 7 -11l-326 -659q-4 -10 -13 -10z" />
    <glyph glyph-name="W" unicode="W" horiz-adv-x="833" 
d="M605 0h-97q-10 0 -11 10l-38 434h-2l-192 -434q-4 -10 -14 -10h-97q-9 0 -10 10l-53 660q0 10 8 10h120q11 0 11 -10l17 -439h2l190 439q4 10 14 10h83q10 0 11 -10l38 -439h2l170 439q3 10 12 10h129q10 0 7 -10l-288 -660q-3 -10 -12 -10z" />
    <glyph glyph-name="X" unicode="X" horiz-adv-x="576" 
d="M523 0h-126q-11 0 -15 10l-82 214h-2l-158 -214q-7 -10 -16 -10h-141q-5 0 -6 4t3 8l260 343l-128 313q-5 12 8 12h128q11 0 15 -10l72 -187h2l137 187q7 10 18 10h134q12 0 4 -12l-237 -315l137 -341q2 -4 0 -8t-7 -4z" />
    <glyph glyph-name="Y" unicode="Y" horiz-adv-x="547" 
d="M299 0h-120q-10 0 -9 10l47 261l-125 399q-2 4 1 7t8 3h117q11 0 14 -10l75 -255h3l165 255q6 10 15 10h125q13 0 7 -10l-265 -399l-47 -261q-1 -10 -11 -10z" />
    <glyph glyph-name="Z" unicode="Z" horiz-adv-x="533" 
d="M448 0h-431q-10 0 -9 10l17 100q2 8 8 16l355 427v2h-264q-9 0 -8 10l19 105q1 10 10 10h422q10 0 9 -10l-18 -100q-2 -8 -6 -14l-359 -429v-2h277q9 0 8 -10l-19 -105q-1 -10 -11 -10z" />
    <glyph glyph-name="bracketleft" unicode="[" horiz-adv-x="287" 
d="M201 -84h-183q-10 0 -9 10l142 804q1 10 12 10h182q9 0 8 -10l-15 -80q-1 -10 -10 -10h-69q-5 0 -7 -6l-108 -612q0 -6 5 -6h68q9 0 8 -10l-14 -80q-1 -10 -10 -10z" />
    <glyph glyph-name="backslash" unicode="\" horiz-adv-x="408" 
d="M322 -11h-102q-11 0 -12 10l-94 682q0 10 9 10h102q10 0 11 -10l94 -682q1 -10 -8 -10z" />
    <glyph glyph-name="bracketright" unicode="]" horiz-adv-x="287" 
d="M170 -84h-182q-10 0 -9 10l15 80q1 10 12 10h68q4 0 6 6l108 612q2 6 -4 6h-68q-10 0 -9 10l14 80q1 10 12 10h182q10 0 9 -10l-142 -804q-1 -10 -12 -10z" />
    <glyph glyph-name="asciicircum" unicode="^" 
d="M493 255h-104q-10 0 -14 10l-98 254h-2l-100 -254q-3 -10 -13 -10h-104q-10 0 -6 10l169 405q4 10 14 10h82q10 0 14 -10l168 -405q4 -10 -6 -10z" />
    <glyph glyph-name="underscore" unicode="_" horiz-adv-x="505" 
d="M456 -65l-15 -85h-501l15 85h501z" />
    <glyph glyph-name="grave" unicode="`" horiz-adv-x="443" 
d="M386 551h-81q-10 0 -17 10l-72 130q-2 4 0 7t7 3h104q12 0 15 -10l52 -130q3 -10 -8 -10z" />
    <glyph glyph-name="a" unicode="a" horiz-adv-x="509" 
d="M404 0h-106q-9 0 -8 10l5 33h-1q-46 -54 -138 -54q-57 0 -94 34t-37 89q0 87 57.5 133t165.5 46h84q6 0 8 6l4 22q6 38 -12 53t-73 15q-63 0 -110 -32q-9 -6 -12 3l-30 75q-3 9 5 14q73 48 182 48q110 0 152 -40.5t25 -133.5l-56 -311q-1 -10 -11 -10zM215 89
q91 0 101 70l6 37q2 6 -5 6h-68q-94 0 -94 -68q0 -45 60 -45z" />
    <glyph glyph-name="b" unicode="b" horiz-adv-x="530" 
d="M284 -11q-88 0 -114 59h-1l-7 -38q-1 -10 -10 -10h-115q-10 0 -9 10l117 660q1 10 11 10h115q9 0 8 -10l-41 -233h1q46 58 132 58q68 0 103.5 -41.5t35.5 -117.5q0 -50 -14 -123q-14 -72 -36 -115q-54 -109 -176 -109zM260 102q55 0 82 55q12 23 21 72q10 47 10 79
q0 74 -64 74q-55 0 -82 -55q-11 -23 -21 -72q-10 -47 -10 -79q0 -74 64 -74z" />
    <glyph glyph-name="c" unicode="c" horiz-adv-x="460" 
d="M214 -11q-82 0 -130.5 46t-48.5 126q0 40 11 101q10 58 32 103q64 130 221 130q121 0 158 -97q3 -9 -4 -13l-87 -49q-10 -7 -16 3q-22 43 -64 43q-56 0 -83 -55q-12 -23 -23 -75q-9 -48 -9 -75q0 -75 64 -75q43 0 84 45q7 7 13 3l76 -55q8 -5 1 -14q-66 -92 -195 -92z
" />
    <glyph glyph-name="d" unicode="d" horiz-adv-x="531" 
d="M423 0h-115q-9 0 -8 10l6 37h-1q-46 -58 -132 -58q-68 0 -103.5 41.5t-35.5 117.5q0 50 14 123q14 72 36 115q54 109 176 109q88 0 114 -59h1l41 234q1 10 11 10h115q9 0 8 -10l-116 -660q-1 -10 -11 -10zM235 102q55 0 82 55q11 23 21 72q10 47 10 79q0 74 -64 74
q-55 0 -82 -55q-11 -20 -22 -73q-9 -50 -9 -78q0 -74 64 -74z" />
    <glyph glyph-name="e" unicode="e" horiz-adv-x="503" 
d="M222 -11q-90 0 -138.5 45.5t-48.5 131.5q0 117 40 196q64 133 225 133q80 0 129.5 -45t49.5 -125q0 -44 -13 -113q-1 -10 -12 -10h-283q-5 0 -7 -6q-1 -3 -1 -15q0 -84 87 -84q57 0 116 47q8 8 15 0l49 -59q8 -7 -1 -16q-88 -80 -207 -80zM187 291h156q5 0 7 6q3 15 3 27
q0 68 -70 68q-63 0 -88 -54q-8 -15 -12 -40q-1 -7 4 -7z" />
    <glyph glyph-name="f" unicode="f" horiz-adv-x="327" 
d="M169 0h-115q-10 0 -9 10l65 370q2 6 -4 6h-30q-8 0 -7 10l14 78q1 10 10 10h30q5 0 7 6l4 25q16 87 62 126t130 39h53q9 0 8 -10l-16 -89q-1 -10 -11 -10h-28q-33 0 -46.5 -11t-18.5 -43l-5 -26q-1 -7 5 -7h76q10 0 9 -10l-14 -78q-1 -10 -12 -10h-76q-6 0 -7 -6
l-64 -370q-1 -10 -10 -10z" />
    <glyph glyph-name="g" unicode="g" horiz-adv-x="521" 
d="M180 -191q-56 0 -101 21.5t-69 57.5q-7 8 2 16l74 62q9 7 16 0q42 -44 89 -44q94 0 114 110l8 44h-1q-43 -58 -128 -58q-68 0 -103 40.5t-35 114.5q0 43 12 105q12 63 31 102q54 115 175 115q87 0 111 -59h1l7 38q1 10 11 10h112q9 0 8 -10l-74 -427
q-22 -127 -83.5 -182.5t-176.5 -55.5zM245 130q51 0 77 54q27 53 27 125q0 73 -63 73q-52 0 -77 -54q-27 -53 -27 -125q0 -73 63 -73z" />
    <glyph glyph-name="h" unicode="h" horiz-adv-x="533" 
d="M431 0h-114q-9 0 -8 10l49 278q15 93 -56 93q-35 0 -59 -24.5t-32 -66.5l-49 -280q-1 -10 -10 -10h-115q-10 0 -9 10l117 660q1 10 11 10h115q9 0 8 -10l-42 -232h1q50 57 132 57q75 0 108 -49.5t19 -131.5l-55 -304q-1 -10 -11 -10z" />
    <glyph glyph-name="i" unicode="i" horiz-adv-x="255" 
d="M251 565h-116q-9 0 -8 10l18 95q1 10 11 10h115q9 0 8 -10l-17 -95q-1 -10 -11 -10zM152 0h-115q-10 0 -9 10l82 464q1 10 11 10h115q9 0 8 -10l-82 -464q-1 -10 -10 -10z" />
    <glyph glyph-name="j" unicode="j" horiz-adv-x="255" 
d="M252 565h-116q-9 0 -8 10l18 95q1 10 11 10h115q9 0 8 -10l-17 -95q-1 -10 -11 -10zM-42 -180h-32q-10 0 -7 10l17 94q1 10 11 10h16q30 0 43.5 12t19.5 45l85 483q1 10 11 10h115q9 0 8 -10l-85 -482q-18 -99 -62 -136q-44 -36 -140 -36z" />
    <glyph glyph-name="k" unicode="k" horiz-adv-x="514" 
d="M454 0h-119q-10 0 -13 10l-73 207l-63 -71l-24 -136q-1 -10 -11 -10h-115q-9 0 -8 10l116 660q1 10 11 10h114q10 0 9 -10l-63 -360l157 165q8 9 20 9h126q5 0 6.5 -3t-1.5 -7l-174 -176l112 -288q4 -10 -7 -10z" />
    <glyph glyph-name="l" unicode="l" horiz-adv-x="292" 
d="M229 -6h-50q-77 0 -103.5 35.5t-12.5 115.5l94 525q1 10 10 10h115q10 0 9 -10l-94 -517q-4 -23 3.5 -33.5t29.5 -10.5h19q9 0 8 -10l-16 -95q-1 -10 -12 -10z" />
    <glyph glyph-name="m" unicode="m" horiz-adv-x="812" 
d="M711 0h-114q-10 0 -9 10l49 278q17 93 -56 93q-34 0 -58.5 -25t-31.5 -66l-49 -280q-1 -10 -11 -10h-114q-10 0 -9 10l49 278q16 93 -56 93q-34 0 -58.5 -25t-31.5 -66l-50 -280q-1 -10 -10 -10h-115q-9 0 -8 10l82 464q1 10 11 10h114q9 0 8 -10l-6 -36h1q48 57 131 57
q85 0 115 -64h1q65 64 159 64q79 0 113 -48.5t19 -132.5l-54 -304q-1 -10 -11 -10z" />
    <glyph glyph-name="n" unicode="n" horiz-adv-x="533" 
d="M431 0h-114q-9 0 -8 10l49 278q15 93 -56 93q-35 0 -59 -24.5t-32 -66.5l-49 -280q-1 -10 -10 -10h-115q-10 0 -9 10l82 464q1 10 11 10h115q9 0 8 -10l-7 -36h1q50 57 132 57q75 0 108 -49t19 -131l-55 -305q-1 -10 -11 -10z" />
    <glyph glyph-name="o" unicode="o" horiz-adv-x="508" 
d="M217 -11q-84 0 -133 46.5t-49 127.5q0 47 12 105q13 61 31 98q63 129 224 129q84 0 133 -46.5t49 -127.5q0 -47 -12 -105q-13 -61 -31 -98q-63 -129 -224 -129zM235 102q55 0 82 55q11 24 22 74q10 47 10 77q0 74 -65 74q-55 0 -82 -55q-11 -24 -22 -75q-10 -47 -10 -76
q0 -74 65 -74z" />
    <glyph glyph-name="p" unicode="p" horiz-adv-x="530" 
d="M120 -180h-115q-9 0 -8 10l113 644q1 10 11 10h115q9 0 8 -10l-6 -37h1q46 58 132 58q68 0 103.5 -41.5t35.5 -117.5q0 -50 -14 -123q-14 -72 -36 -115q-54 -109 -176 -109q-88 0 -114 59h-1l-38 -218q-1 -10 -11 -10zM260 102q55 0 82 55q12 23 21 72q10 47 10 79
q0 74 -64 74q-55 0 -82 -55q-11 -23 -21 -72q-10 -47 -10 -79q0 -74 64 -74z" />
    <glyph glyph-name="q" unicode="q" horiz-adv-x="531" 
d="M392 -180h-115q-9 0 -8 10l38 217h-1q-46 -58 -132 -58q-68 0 -103.5 41.5t-35.5 117.5q0 50 14 123q14 72 36 115q55 109 176 109q88 0 114 -59h1l7 38q1 10 11 10h115q9 0 8 -10l-114 -644q-1 -10 -11 -10zM236 102q55 0 82 55q10 23 21 72q10 47 10 79q0 74 -64 74
q-55 0 -82 -55q-11 -20 -22 -73q-9 -50 -9 -78q0 -74 64 -74z" />
    <glyph glyph-name="r" unicode="r" horiz-adv-x="412" 
d="M152 0h-115q-10 0 -9 10l82 464q1 10 11 10h115q9 0 8 -10l-8 -43h1q46 64 130 64q51 0 77 -29q6 -7 1 -14l-68 -97q-7 -7 -14 -2q-31 22 -62 22q-75 0 -94 -109l-45 -256q-1 -10 -10 -10z" />
    <glyph glyph-name="s" unicode="s" horiz-adv-x="487" 
d="M219 -11q-131 0 -204 76q-6 6 2 14l72 67q8 6 14 0q59 -51 134 -51q37 0 61 17t24 41q0 33 -57 37l-51 5q-63 7 -97.5 38.5t-34.5 82.5q0 84 60 131q61 48 158 48q53 0 101 -17t78 -44q7 -6 -1 -14l-64 -65q-6 -7 -14 -2q-53 38 -117 38q-32 0 -51.5 -14.5t-19.5 -35.5
q0 -16 12 -24t43 -12l50 -5q136 -13 136 -120q0 -87 -63 -139t-171 -52z" />
    <glyph glyph-name="t" unicode="t" horiz-adv-x="319" 
d="M247 -6h-50q-80 0 -108 38t-13 122l42 226q2 6 -5 6h-30q-8 0 -7 10l14 78q1 10 11 10h30q5 0 7 6l23 130q1 10 12 10h113q9 0 8 -10l-23 -130q-1 -6 4 -6h61q9 0 8 -10l-13 -78q-1 -10 -12 -10h-62q-5 0 -6 -6l-41 -221q-5 -28 2.5 -39t32.5 -11h22q9 0 8 -10l-17 -95
q-1 -10 -11 -10z" />
    <glyph glyph-name="u" unicode="u" horiz-adv-x="529" 
d="M129 484h114q10 0 9 -10l-49 -279q-8 -43 6 -67.5t49 -24.5t58.5 24t31.5 67l49 280q1 10 10 10h115q10 0 9 -10l-83 -464q-1 -10 -11 -10h-114q-9 0 -8 10l6 36h-1q-52 -57 -130 -57q-75 0 -107.5 48.5t-17.5 131.5l54 305q1 10 10 10z" />
    <glyph glyph-name="v" unicode="v" horiz-adv-x="492" 
d="M262 0h-105q-10 0 -11 10l-85 464q0 10 9 10h117q10 0 11 -10l39 -294h2l142 294q4 10 14 10h122q10 0 6 -10l-248 -464q-4 -10 -13 -10z" />
    <glyph glyph-name="w" unicode="w" horiz-adv-x="735" 
d="M520 0h-94q-10 0 -10 10l-30 290h-2l-135 -290q-4 -10 -13 -10h-94q-10 0 -10 10l-68 464q0 10 10 10h110q11 0 12 -10l25 -297h2l134 297q4 10 13 10h83q11 0 12 -10l30 -297h1l127 297q4 10 14 10h121q10 0 6 -10l-231 -464q-4 -10 -13 -10z" />
    <glyph glyph-name="x" unicode="x" horiz-adv-x="497" 
d="M439 0h-118q-9 0 -14 9l-61 135h-1l-108 -135q-9 -9 -17 -9h-127q-12 0 -6 10l203 243l-106 221q-4 10 8 10h119q11 0 14 -8l52 -118h1l94 118q8 8 16 8h125q5 0 6.5 -3t-1.5 -7l-185 -223l114 -241q4 -10 -8 -10z" />
    <glyph glyph-name="y" unicode="y" horiz-adv-x="492" 
d="M57 -180h-33q-11 0 -8 10l16 94q1 10 12 10h21q47 0 74 52l18 37l-94 451q-1 10 8 10h119q9 0 10 -10l44 -287h2l140 287q4 10 14 10h120q11 0 7 -10l-283 -516q-42 -79 -83 -108q-41 -30 -104 -30z" />
    <glyph glyph-name="z" unicode="z" horiz-adv-x="471" 
d="M384 0h-364q-9 0 -8 10l15 87q2 6 6 10l265 266v2h-201q-8 0 -7 10l16 89q1 10 11 10h353q8 0 7 -10l-15 -89l-6 -12l-262 -260v-3h210q9 0 8 -10l-16 -90q-1 -10 -12 -10z" />
    <glyph glyph-name="braceleft" unicode="{" horiz-adv-x="342" 
d="M251 -84h-62q-120 0 -99 121l27 157q7 42 -5 61.5t-46 20.5q-9 0 -8 10l15 88q1 10 12 10q65 0 80 82l27 153q21 121 142 121h62q9 0 8 -10l-14 -80q-1 -10 -11 -10h-26q-41 0 -49 -44l-25 -141q-10 -55 -30 -82.5t-60 -41.5v-2q35 -14 45.5 -41.5t0.5 -83.5l-25 -144
q-8 -44 32 -44h26q10 0 9 -10l-15 -80q-1 -10 -11 -10z" />
    <glyph glyph-name="bar" unicode="|" horiz-adv-x="328" 
d="M232 -84h-94q-10 0 -10 10v804q0 10 10 10h94q10 0 10 -10v-804q0 -10 -10 -10z" />
    <glyph glyph-name="braceright" unicode="}" horiz-adv-x="342" 
d="M55 -84h-62q-9 0 -8 10l14 80q1 10 11 10h26q41 0 49 44l25 145q10 54 30 82t60 42v2q-35 14 -45 41.5t0 83.5l24 140q8 44 -32 44h-26q-10 0 -9 10l15 80q1 10 11 10h62q120 0 99 -121l-26 -153q-13 -81 51 -82q9 0 8 -10l-16 -88q-1 -10 -11 -10q-65 0 -80 -82
l-28 -157q-21 -121 -142 -121z" />
    <glyph glyph-name="asciitilde" unicode="~" 
d="M367 194q-51 0 -103 34q-38 25 -65 25q-40 0 -68 -49q-5 -8 -14 -2l-64 39q-8 5 -3 14q21 46 60 74t84 28q50 0 102 -34q40 -25 66 -25q39 0 67 49q5 9 15 2l63 -39q9 -4 3 -14q-21 -46 -59.5 -74t-83.5 -28z" />
    <glyph glyph-name="uni00A0" unicode="&#xa0;" horiz-adv-x="229" 
 />
    <glyph glyph-name="exclamdown" unicode="&#xa1;" horiz-adv-x="299" 
d="M129 286h79q9 0 8 -10l-59 -462q-1 -10 -11 -10h-123q-9 0 -8 10l103 462q1 10 11 10zM266 474l-19 -110q-1 -10 -11 -10h-113q-10 0 -9 10l19 110q1 10 11 10h114q9 0 8 -10z" />
    <glyph glyph-name="cent" unicode="&#xa2;" 
d="M249 -98h-37q-9 0 -8 10l14 79q-72 8 -111.5 51.5t-39.5 115.5q0 114 42 205q59 119 197 131l14 78q1 10 12 10h37q9 0 8 -10l-14 -79q100 -11 134 -95q2 -9 -5 -13l-87 -49q-9 -6 -16 3q-17 33 -46 41l-49 -276q36 9 64 43q6 10 14 2l76 -56q8 -5 0 -13
q-58 -81 -174 -90l-13 -78q-1 -10 -12 -10zM203 172q0 -49 35 -64l47 268q-31 -12 -50 -49q-14 -30 -23 -77q-9 -46 -9 -78z" />
    <glyph glyph-name="sterling" unicode="&#xa3;" 
d="M434 0h-376q-10 0 -9 10l17 92q1 5 7 13q23 20 33 37t16 49l11 64q1 6 -5 6h-39q-8 0 -7 10l13 75q1 10 11 10h38q6 0 8 6l22 126q16 94 72.5 143.5t144.5 49.5q69 0 107 -37t37 -99q0 -9 -9 -12l-104 -22q-9 0 -9 9q0 48 -40 48q-52 0 -63 -65l-23 -141q-1 -6 4 -6h117
q10 0 9 -10l-13 -75q-1 -10 -12 -10h-118q-6 0 -7 -6l-8 -49q-10 -65 -44 -100l-1 -2h239q10 0 9 -10l-17 -94q-1 -10 -11 -10z" />
    <glyph glyph-name="currency" unicode="&#xa4;" 
d="M512 131l-73 -61q-9 -8 -14 0l-45 55q-50 -24 -103 -24t-93 25l-66 -58q-9 -8 -14 0l-55 66q-7 7 3 14l68 60q-9 27 -9 58q0 78 45 142l-46 58q-6 6 2 14l73 61q7 7 14 0l44 -56q46 25 103 25q53 0 91 -25l68 59q9 8 14 0l56 -66q4 -7 -3 -14l-70 -61q10 -29 10 -59
q0 -77 -44 -142l46 -57q6 -8 -2 -14zM292 199q49 0 83 40t34 90q0 36 -21 59.5t-56 23.5q-50 0 -84 -40t-34 -91q0 -36 21.5 -59t56.5 -23z" />
    <glyph glyph-name="yen" unicode="&#xa5;" 
d="M292 0h-115q-9 0 -8 10l21 118q2 6 -5 6h-113q-9 0 -8 10l11 58q1 10 11 10h113q5 0 7 6l6 36q2 6 -5 6h-113q-8 0 -7 10l10 58q1 10 11 10h91v2l-85 330q-1 10 8 10h118q12 0 13 -10l50 -264h3l142 264q7 10 16 10h121q10 0 6 -10l-201 -330v-2h90q9 0 8 -10l-11 -58
q-1 -10 -11 -10h-113q-5 0 -7 -6l-6 -36q-2 -6 5 -6h113q8 0 7 -10l-10 -58q-1 -10 -11 -10h-114q-6 0 -7 -6l-20 -118q-1 -10 -11 -10z" />
    <glyph glyph-name="brokenbar" unicode="&#xa6;" horiz-adv-x="328" 
d="M232 388h-94q-10 0 -10 10v332q0 10 10 10h94q10 0 10 -10v-332q0 -10 -10 -10zM232 -84h-94q-10 0 -10 10v336q0 10 10 10h94q10 0 10 -10v-336q0 -10 -10 -10z" />
    <glyph glyph-name="section" unicode="&#xa7;" horiz-adv-x="531" 
d="M195 -192q-79 0 -118.5 38t-36.5 104q0 10 8 12l101 17q4 1 6 -1t2 -7q0 -32 12.5 -46.5t41.5 -14.5q32 0 53 21t21 55q0 27 -21 44.5t-69 30.5q-120 35 -120 145q0 64 30.5 116.5t85.5 82.5v1q-44 35 -44 91q0 83 60 139q62 56 150 56q81 0 120 -42q39 -43 32 -101
q-1 -10 -10 -11l-98 -17q-4 -1 -6 1t-2 7q1 61 -52 61q-31 0 -51 -21.5t-20 -53.5q0 -26 20.5 -42.5t67.5 -29.5q120 -35 120 -146q0 -61 -31.5 -115t-85.5 -83v-1q47 -29 47 -93q0 -87 -61 -142q-59 -55 -152 -55zM261 165q40 0 67 32t27 77q0 31 -16.5 48t-46.5 17
q-41 0 -68 -31.5t-27 -77.5q0 -31 17 -48t47 -17z" />
    <glyph glyph-name="dieresis" unicode="&#xa8;" horiz-adv-x="441" 
d="M427 566h-89q-9 0 -8 10l18 95q1 10 11 10h89q9 0 8 -10l-18 -95q-1 -10 -11 -10zM234 566h-89q-9 0 -8 10l18 95q1 10 11 10h88q9 0 8 -10l-17 -95q-1 -10 -11 -10z" />
    <glyph glyph-name="copyright" unicode="&#xa9;" horiz-adv-x="811" 
d="M424 -12q-150 0 -251 101t-101 251q0 149 101 250t251 101q149 0 250 -101t101 -250q0 -150 -101 -251t-250 -101zM695 340q0 117 -77 196q-77 78 -194 78q-118 0 -194 -78q-77 -79 -77 -196q0 -118 77 -197q76 -78 194 -78t194 78q77 79 77 197zM433 144
q-62 0 -105.5 28t-60.5 81q-10 31 -10 87q0 55 10 88q17 52 61 80.5t105 28.5q97 0 143 -70q6 -10 -3 -14l-62 -40q-7 -6 -13 2q-27 34 -63 34q-52 0 -67 -46q-5 -17 -5 -63q0 -47 5 -62q17 -47 67 -47q36 0 63 34q6 9 13 2l62 -39q9 -6 3 -14q-46 -70 -143 -70z" />
    <glyph glyph-name="ordfeminine" unicode="&#xaa;" horiz-adv-x="344" 
d="M327 392h-72q-10 0 -9 10l3 14h-1q-29 -29 -84 -29q-39 0 -62 19t-23 54q0 51 39 80.5t103 29.5h48q5 0 7 6l2 7q3 16 -8.5 23t-42.5 7q-34 0 -69 -16q-8 -6 -12 3l-19 48q-5 9 6 14q47 26 118 26q74 0 102 -24.5t18 -79.5l-33 -182q-1 -10 -11 -10zM204 456q51 0 57 36
l2 11q1 6 -4 6h-42q-21 0 -33 -9t-12 -23q0 -21 32 -21z" />
    <glyph glyph-name="guillemotleft" unicode="&#xab;" horiz-adv-x="544" 
d="M451 41l-173 216q-6 8 2 14l250 216q3 3 6.5 1.5t2.5 -5.5l-20 -117q-1 -10 -14 -21l-94 -83q-4 -4 -2 -8l65 -84q9 -9 6 -21l-18 -104q-1 -4 -4.5 -5.5t-6.5 1.5zM216 41l-173 216q-6 8 2 14l250 216q3 3 6.5 1.5t2.5 -5.5l-21 -117q-3 -13 -13 -21l-94 -83q-4 -4 -2 -8
l65 -84q9 -9 6 -21l-18 -104q-1 -4 -4.5 -5.5t-6.5 1.5z" />
    <glyph glyph-name="logicalnot" unicode="&#xac;" 
d="M492 86h-98q-10 0 -10 10v117q0 6 -6 6h-311q-10 0 -10 10v94q0 10 10 10h425q10 0 10 -10v-227q0 -10 -10 -10z" />
    <glyph glyph-name="uni00AD" unicode="&#xad;" horiz-adv-x="378" 
d="M329 206h-277q-9 0 -8 10l18 100q1 10 11 10h278q9 0 8 -10l-18 -100q-1 -10 -12 -10z" />
    <glyph glyph-name="registered" unicode="&#xae;" horiz-adv-x="443" 
d="M274 301q-82 0 -137 55t-55 137q0 81 55 136t137 55t137 -55q56 -56 56 -136q0 -81 -56 -137q-55 -55 -137 -55zM274 340q65 0 107 43q43 43 43 110q0 66 -43 109q-42 43 -107 43q-64 0 -107 -43t-43 -109q0 -67 43 -110t107 -43zM240 388h-40q-7 0 -7 7v198q0 7 7 7h88
q79 0 79 -67q0 -43 -39 -60l40 -78q4 -7 -5 -7h-43q-7 0 -10 7l-34 70h-25q-4 0 -4 -4v-66q0 -7 -7 -7zM251 509h33q29 0 29 24q0 23 -29 23h-33q-4 0 -4 -4v-38q0 -5 4 -5z" />
    <glyph glyph-name="overscore" unicode="&#xaf;" horiz-adv-x="441" 
d="M424 579h-272q-9 0 -8 10l12 71q1 10 11 10h273q9 0 8 -10l-13 -71q-1 -10 -11 -10z" />
    <glyph glyph-name="degree" unicode="&#xb0;" horiz-adv-x="437" 
d="M269 388q-66 0 -109 43t-43 109q0 65 43 108q44 44 109 44q64 0 108 -44t44 -108q0 -65 -44 -109q-43 -43 -108 -43zM341 540q0 33 -20 53.5t-52 20.5t-52 -20.5t-20 -53.5q0 -32 20.5 -53.5t51.5 -21.5t51.5 21.5t20.5 53.5z" />
    <glyph glyph-name="plusminus" unicode="&#xb1;" 
d="M335 166h-97q-10 0 -10 10v150q0 6 -6 6h-148q-10 0 -10 10v94q0 10 10 10h148q6 0 6 6v151q0 10 10 10h97q10 0 10 -10v-151q0 -6 6 -6h148q10 0 10 -10v-94q0 -10 -10 -10h-148q-6 0 -6 -6v-150q0 -10 -10 -10zM499 0h-425q-10 0 -10 10v94q0 10 10 10h425q10 0 10 -10
v-94q0 -10 -10 -10z" />
    <glyph glyph-name="twosuperior" unicode="&#xb2;" horiz-adv-x="343" 
d="M337 430h-251q-9 0 -8 10l12 63q1 10 9 16l166 150q35 32 35 62t-31 30q-32 0 -49 -41q-3 -10 -11 -8l-72 12q-8 2 -6 11q13 48 55 78.5t102 30.5q51 0 82 -27t31 -72q0 -66 -68 -126l-112 -103v-1h131q9 0 8 -10l-11 -65q-1 -10 -12 -10z" />
    <glyph glyph-name="threesuperior" unicode="&#xb3;" horiz-adv-x="343" 
d="M213 422q-54 0 -86.5 25.5t-36.5 71.5q-2 11 8 12l74 14q8 2 11 -8q9 -32 40 -32q21 0 36.5 16t15.5 39q0 36 -42 36h-16q-9 0 -8 10l11 62q1 10 11 10h14q23 0 37 14t14 38q0 31 -32 31q-29 0 -45 -28q-5 -8 -13 -7l-68 14q-9 2 -6 11q16 42 56 67.5t95 25.5
q54 0 85 -25.5t31 -68.5q0 -69 -59 -104v-1q35 -20 35 -70q0 -69 -46 -111q-47 -42 -116 -42z" />
    <glyph glyph-name="acute" unicode="&#xb4;" horiz-adv-x="441" 
d="M277 551h-86q-11 0 -4 10l95 130q7 10 19 10h111q5 0 6 -3.5t-3 -7.5l-118 -129q-10 -10 -20 -10z" />
    <glyph glyph-name="mu" unicode="&#xb5;" horiz-adv-x="553" 
d="M118 -180h-116q-9 0 -8 10l113 645q1 9 11 9h115q10 0 8 -11l-43 -245q-8 -46 -8 -61q0 -64 59 -64q34 0 59 23t33 67l50 282q1 9 12 9h116q8 0 6 -9l-55 -303q-5 -32 -5 -39q0 -24 26 -24q9 0 7 -9l-17 -96q-1 -10 -12 -10h-12q-59 0 -84.5 11t-31.5 38l-4 16h-2
q-15 -33 -48 -51.5t-71 -18.5q-31 0 -58 13l-30 -173q-2 -9 -10 -9z" />
    <glyph glyph-name="paragraph" unicode="&#xb6;" horiz-adv-x="630" 
d="M490 -180h-91q-9 0 -8 10l131 745q2 6 -5 6h-68q-5 0 -7 -6l-131 -745q-1 -10 -11 -10h-91q-8 0 -7 10l71 410q-84 4 -128 61t-33 143q12 101 85 168q74 68 182 68h262q9 0 8 -10l-148 -840q-1 -10 -11 -10z" />
    <glyph glyph-name="middot" unicode="&#xb7;" horiz-adv-x="244" 
d="M181 197h-114q-10 0 -9 10l20 115q1 10 11 10h114q10 0 9 -10l-20 -115q-1 -10 -11 -10z" />
    <glyph glyph-name="cedilla" unicode="&#xb8;" horiz-adv-x="441" 
d="M180 -159h-91q-9 0 -5 10l85 149q6 10 15 10h79q10 0 6 -10l-71 -149q-4 -10 -18 -10z" />
    <glyph glyph-name="onesuperior" unicode="&#xb9;" horiz-adv-x="343" 
d="M271 430h-82q-9 0 -8 10l51 287h-2l-69 -40q-4 -3 -7.5 -1t-2.5 7l15 80q2 11 12 15l66 41q10 7 19 7h79q9 0 8 -10l-68 -386q-1 -10 -11 -10z" />
    <glyph glyph-name="ordmasculine" unicode="&#xba;" horiz-adv-x="358" 
d="M211 384q-59 0 -91.5 28.5t-32.5 81.5q0 58 24 111q42 83 152 83q59 0 91.5 -28.5t32.5 -81.5q0 -58 -24 -111q-42 -83 -152 -83zM224 465q32 0 48 31q14 31 14 67q0 44 -36 44q-32 0 -48 -31q-14 -31 -14 -67q0 -44 36 -44z" />
    <glyph glyph-name="guillemotright" unicode="&#xbb;" horiz-adv-x="545" 
d="M526 257l-250 -216q-4 -3 -7 -1.5t-2 5.5l20 117q1 10 14 21l94 83q4 4 2 8l-65 84q-9 9 -6 21l18 104q1 4 4.5 5.5t6.5 -1.5l173 -216q6 -8 -2 -14zM290 257l-249 -216q-4 -3 -7 -1.5t-2 5.5l20 117q3 13 13 21l95 83q4 4 2 8l-65 84q-9 9 -6 21l18 104q1 4 4.5 5.5
t6.5 -1.5l172 -216q6 -8 -2 -14z" />
    <glyph glyph-name="onequarter" unicode="&#xbc;" horiz-adv-x="837" 
d="M224 -11h-79q-4 0 -5.5 3t1.5 7l501 682q6 10 17 10h80q9 0 3 -10l-500 -682q-7 -10 -18 -10zM262 274h-82q-9 0 -8 10l51 287h-2l-69 -40q-4 -3 -7.5 -1t-2.5 7l15 80q1 11 12 15l66 41q10 7 19 7h79q9 0 8 -10l-68 -386q-1 -10 -11 -10zM692 0h-75q-8 0 -7 10l7 41
q1 6 -5 6h-158q-9 0 -8 10l11 66q2 12 8 18l155 245q7 10 16 10h82q9 0 5 -10l-155 -253v-1h59q5 0 7 6l13 71q1 10 11 10h74q9 0 8 -10l-12 -71q-2 -6 4 -6h16q8 0 7 -10l-11 -65q-1 -10 -11 -10h-16q-5 0 -6 -6l-8 -41q-1 -10 -11 -10z" />
    <glyph glyph-name="onehalf" unicode="&#xbd;" horiz-adv-x="875" 
d="M224 -11h-79q-4 0 -5.5 3t1.5 7l501 682q6 10 17 10h80q9 0 3 -10l-500 -682q-7 -10 -18 -10zM262 274h-82q-9 0 -8 10l51 287h-2l-69 -40q-4 -3 -7.5 -1t-2.5 7l15 80q1 11 12 15l66 41q10 7 19 7h79q9 0 8 -10l-68 -386q-1 -10 -11 -10zM752 0h-251q-9 0 -8 10l12 63
q1 10 9 16l166 150q35 32 35 62t-31 30q-32 0 -49 -41q-3 -10 -11 -8l-72 12q-8 2 -6 11q13 48 55 78.5t102 30.5q51 0 82 -27t31 -72q0 -66 -68 -126l-112 -103v-1h131q9 0 8 -10l-11 -65q-1 -10 -12 -10z" />
    <glyph glyph-name="threequarters" unicode="&#xbe;" horiz-adv-x="894" 
d="M281 -11h-79q-4 0 -5.5 3t1.5 7l501 682q6 10 17 10h80q9 0 3 -10l-500 -682q-7 -10 -18 -10zM750 0h-75q-8 0 -7 10l7 41q1 6 -5 6h-158q-9 0 -8 10l11 66q2 12 8 18l155 245q7 10 16 10h82q9 0 5 -10l-155 -253v-1h59q5 0 7 6l13 71q1 10 11 10h74q9 0 8 -10l-12 -71
q-2 -6 4 -6h16q8 0 7 -10l-11 -65q-1 -10 -11 -10h-16q-5 0 -6 -6l-8 -41q-1 -10 -11 -10zM236 266q-54 0 -86.5 25.5t-36.5 71.5q-2 11 8 12l74 14q8 2 11 -8q9 -32 40 -32q21 0 36.5 16t15.5 39q0 36 -42 36h-16q-9 0 -8 10l11 62q1 10 11 10h14q23 0 37 14t14 38
q0 31 -32 31q-29 0 -45 -28q-5 -8 -13 -7l-68 14q-9 2 -6 11q16 42 56 67.5t95 25.5q54 0 85 -25.5t31 -68.5q0 -69 -59 -104v-1q35 -20 35 -70q0 -69 -46 -111t-116 -42z" />
    <glyph glyph-name="questiondown" unicode="&#xbf;" horiz-adv-x="462" 
d="M202 287h109q9 0 8 -10l-8 -42q-9 -52 -43 -86l-81 -89q-31 -33 -43 -54t-12 -45q0 -54 53 -54q60 0 88 73q4 10 13 9l101 -15q9 -2 6 -12q-24 -77 -86 -123t-143 -46q-77 0 -122 40.5t-45 106.5q0 82 82 164l76 85q24 27 31 63l5 25q1 10 11 10zM355 474l-19 -110
q-1 -10 -11 -10h-113q-10 0 -9 10l19 110q1 10 11 10h114q9 0 8 -10z" />
    <glyph glyph-name="Agrave" unicode="&#xc0;" horiz-adv-x="624" 
d="M121 0h-132q-9 0 -5 10l343 660q4 10 15 10h121q10 0 11 -10l105 -660q1 -10 -7 -10h-122q-11 0 -12 10l-16 122h-229l-59 -122q-4 -10 -13 -10zM373 500l-121 -248h155l-31 248h-3zM448 755h-87q-9 0 -17 8l-96 115q-3 4 -1.5 7.5t6.5 3.5h108q13 0 20 -10l73 -114
q6 -10 -6 -10z" />
    <glyph glyph-name="Aacute" unicode="&#xc1;" horiz-adv-x="624" 
d="M121 0h-132q-9 0 -5 10l343 660q4 10 15 10h121q10 0 11 -10l105 -660q1 -10 -7 -10h-122q-11 0 -12 10l-16 122h-229l-59 -122q-4 -10 -13 -10zM373 500l-121 -248h155l-31 248h-3zM452 755h-87q-5 0 -6.5 3t1.5 7l109 114q10 10 21 10h115q5 0 6.5 -3t-2.5 -7
l-137 -116q-10 -8 -20 -8z" />
    <glyph glyph-name="Acircumflex" unicode="&#xc2;" horiz-adv-x="624" 
d="M121 0h-132q-9 0 -5 10l343 660q4 10 15 10h121q10 0 11 -10l105 -660q1 -10 -7 -10h-122q-11 0 -12 10l-16 122h-229l-59 -122q-4 -10 -13 -10zM373 500l-121 -248h155l-31 248h-3zM557 748h-71q-12 0 -19 10l-41 57h-2l-61 -57q-10 -10 -23 -10h-80q-5 0 -6 3t3 7
l122 131q7 9 20 9h72q11 0 16 -9l76 -131q2 -4 0 -7t-6 -3z" />
    <glyph glyph-name="Atilde" unicode="&#xc3;" horiz-adv-x="624" 
d="M121 0h-132q-9 0 -5 10l343 660q4 10 15 10h121q10 0 11 -10l105 -660q1 -10 -7 -10h-122q-11 0 -12 10l-16 122h-229l-59 -122q-4 -10 -13 -10zM373 500l-121 -248h155l-31 248h-3zM470 750q-32 0 -69 22q-28 18 -52 18q-34 0 -75 -32q-3 -3 -6 -1.5t-2 5.5l12 69
q2 13 12 20q37 34 79 34q33 0 70 -22q29 -18 52 -18q36 0 74 32q4 3 7 1.5t2 -5.5l-12 -69q-1 -9 -12 -20q-38 -34 -80 -34z" />
    <glyph glyph-name="Adieresis" unicode="&#xc4;" horiz-adv-x="624" 
d="M121 0h-132q-9 0 -5 10l343 660q4 10 15 10h121q10 0 11 -10l105 -660q1 -10 -7 -10h-122q-11 0 -12 10l-16 122h-229l-59 -122q-4 -10 -13 -10zM373 500l-121 -248h155l-31 248h-3zM555 762h-89q-9 0 -8 10l18 94q1 10 11 10h88q9 0 8 -10l-17 -94q-1 -10 -11 -10z
M362 762h-89q-10 0 -9 10l18 94q1 10 11 10h89q9 0 8 -10l-17 -94q-1 -10 -11 -10z" />
    <glyph glyph-name="Aring" unicode="&#xc5;" horiz-adv-x="624" 
d="M121 0h-132q-9 0 -5 10l343 660q4 10 15 10h121q10 0 11 -10l105 -660q1 -10 -7 -10h-122q-11 0 -12 10l-16 122h-229l-59 -122q-4 -10 -13 -10zM373 500l-121 -248h155l-31 248h-3zM404 714q-39 0 -63.5 23.5t-24.5 61.5q0 52 35 88.5t88 36.5q39 0 63 -23t24 -61
q0 -53 -34.5 -89.5t-87.5 -36.5zM413 770q22 0 38 17t16 43q0 17 -10 27.5t-27 10.5q-23 0 -38.5 -17t-15.5 -43q0 -17 10 -27.5t27 -10.5z" />
    <glyph glyph-name="AE" unicode="&#xc6;" horiz-adv-x="898" 
d="M817 0h-418q-9 0 -8 10l20 116q1 6 -5 6h-186l-76 -122q-6 -10 -15 -10h-138q-12 0 -5 10l421 660q7 10 15 10h514q10 0 9 -10l-18 -102q-1 -10 -12 -10h-282q-6 0 -6 -6l-25 -143q-2 -6 4 -6h235q9 0 8 -10l-18 -100q-1 -10 -12 -10h-235q-4 0 -6 -6l-27 -149q0 -6 5 -6
h282q9 0 8 -10l-18 -102q-1 -10 -11 -10zM487 558h-2l-191 -306h133q5 0 7 6z" />
    <glyph glyph-name="Ccedilla" unicode="&#xc7;" horiz-adv-x="550" 
d="M212 -159h-91q-9 0 -5 10l82 145q-70 15 -109 67.5t-39 133.5q0 53 21 169q23 120 47 168q78 157 258 157q79 0 131 -39.5t69 -111.5q1 -8 -7 -13l-106 -44q-9 -4 -13 6q-20 77 -90 77q-76 0 -114 -80q-14 -30 -35 -136q-19 -98 -19 -141q0 -44 23.5 -69.5t66.5 -25.5
q68 0 115 78q6 9 15 5l95 -51q7 -3 3 -13q-79 -130 -214 -142l-66 -140q-4 -10 -18 -10z" />
    <glyph glyph-name="Egrave" unicode="&#xc8;" horiz-adv-x="542" 
d="M424 755h-87q-9 0 -17 8l-96 115q-3 4 -1.5 7.5t6.5 3.5h108q13 0 20 -10l73 -114q2 -4 0 -7t-6 -3zM30 10l117 660q1 10 11 10h418q9 0 8 -10l-18 -102q-1 -10 -11 -10h-282q-5 0 -7 -6l-25 -143q-1 -6 5 -6h234q9 0 8 -10l-18 -100q-1 -10 -12 -10h-234q-6 0 -7 -6
l-26 -149q-1 -6 5 -6h282q9 0 8 -10l-19 -102q-1 -10 -11 -10h-417q-10 0 -9 10z" />
    <glyph glyph-name="Eacute" unicode="&#xc9;" horiz-adv-x="542" 
d="M30 10l117 660q1 10 11 10h418q9 0 8 -10l-18 -102q-1 -10 -11 -10h-282q-5 0 -7 -6l-25 -143q-1 -6 5 -6h234q9 0 8 -10l-18 -100q-1 -10 -12 -10h-234q-6 0 -7 -6l-26 -149q-1 -6 5 -6h282q9 0 8 -10l-19 -102q-1 -10 -11 -10h-417q-10 0 -9 10zM398 755h-87
q-5 0 -6.5 3t1.5 7l109 114q10 10 21 10h115q5 0 6.5 -3t-2.5 -7l-137 -116q-10 -8 -20 -8z" />
    <glyph glyph-name="Ecircumflex" unicode="&#xca;" horiz-adv-x="542" 
d="M30 10l117 660q1 10 11 10h418q9 0 8 -10l-18 -102q-1 -10 -11 -10h-282q-5 0 -7 -6l-25 -143q-1 -6 5 -6h234q9 0 8 -10l-18 -100q-1 -10 -12 -10h-234q-6 0 -7 -6l-26 -149q-1 -6 5 -6h282q9 0 8 -10l-19 -102q-1 -10 -11 -10h-417q-10 0 -9 10zM529 748h-71
q-12 0 -19 10l-41 57h-2l-61 -57q-10 -10 -23 -10h-80q-5 0 -6 3t3 7l122 131q7 9 20 9h72q11 0 16 -9l76 -131q6 -10 -6 -10z" />
    <glyph glyph-name="Edieresis" unicode="&#xcb;" horiz-adv-x="542" 
d="M30 10l117 660q1 10 11 10h418q9 0 8 -10l-18 -102q-1 -10 -11 -10h-282q-5 0 -7 -6l-25 -143q-1 -6 5 -6h234q9 0 8 -10l-18 -100q-1 -10 -12 -10h-234q-6 0 -7 -6l-26 -149q-1 -6 5 -6h282q9 0 8 -10l-19 -102q-1 -10 -11 -10h-417q-10 0 -9 10zM527 762h-89
q-9 0 -8 10l18 94q1 10 11 10h88q9 0 8 -10l-17 -94q-1 -10 -11 -10zM334 762h-89q-10 0 -9 10l18 94q1 10 11 10h89q9 0 8 -10l-17 -94q-1 -10 -11 -10z" />
    <glyph glyph-name="Igrave" unicode="&#xcc;" horiz-adv-x="266" 
d="M30 10l117 660q1 10 11 10h121q9 0 8 -10l-117 -660q-1 -10 -10 -10h-121q-10 0 -9 10zM269 755h-87q-9 0 -17 8l-96 115q-3 4 -1.5 7.5t6.5 3.5h108q13 0 20 -10l73 -114q6 -10 -6 -10z" />
    <glyph glyph-name="Iacute" unicode="&#xcd;" horiz-adv-x="266" 
d="M30 10l117 660q1 10 11 10h121q9 0 8 -10l-117 -660q-1 -10 -10 -10h-121q-10 0 -9 10zM273 755h-87q-5 0 -6.5 3t1.5 7l109 114q10 10 21 10h115q5 0 6.5 -3t-2.5 -7l-137 -116q-10 -8 -20 -8z" />
    <glyph glyph-name="Icircumflex" unicode="&#xce;" horiz-adv-x="266" 
d="M30 10l117 660q1 10 11 10h121q9 0 8 -10l-117 -660q-1 -10 -10 -10h-121q-10 0 -9 10zM382 748h-71q-12 0 -19 10l-41 57h-2l-61 -57q-10 -10 -23 -10h-80q-5 0 -6 3t3 7l122 131q7 9 20 9h72q12 0 16 -9l76 -131q2 -4 0 -7t-6 -3z" />
    <glyph glyph-name="Idieresis" unicode="&#xcf;" horiz-adv-x="266" 
d="M30 10l117 660q1 10 11 10h121q9 0 8 -10l-117 -660q-1 -10 -10 -10h-121q-10 0 -9 10zM374 762h-89q-9 0 -8 10l18 94q1 10 11 10h88q9 0 8 -10l-17 -94q-1 -10 -11 -10zM181 762h-89q-10 0 -9 10l18 94q1 10 11 10h89q9 0 8 -10l-17 -94q-1 -10 -11 -10z" />
    <glyph glyph-name="Eth" unicode="&#xd0;" horiz-adv-x="605" 
d="M282 0h-243q-10 0 -9 10l49 275q1 6 -4 6h-26q-9 0 -8 10l15 84q1 10 12 10h24q6 0 7 6l48 269q1 10 11 10h243q196 0 196 -193q0 -67 -21 -180q-19 -109 -47 -168q-38 -74 -96.5 -106.5t-150.5 -32.5zM197 125h76q51 0 82.5 18t51.5 59q16 33 33 122q17 91 17 132
q0 51 -26.5 75t-83.5 24h-75q-4 0 -6 -6l-26 -148q-2 -6 4 -6h82q9 0 8 -10l-15 -84q-1 -10 -11 -10h-82q-6 0 -7 -6l-27 -154q-2 -6 5 -6z" />
    <glyph glyph-name="Ntilde" unicode="&#xd1;" horiz-adv-x="631" 
d="M30 10l117 660q1 10 11 10h114q12 0 15 -10l155 -437h4l78 437q1 10 11 10h108q10 0 9 -10l-117 -660q-1 -10 -11 -10h-115q-10 0 -14 10l-156 437h-5l-77 -437q-1 -10 -10 -10h-108q-10 0 -9 10zM469 750q-32 0 -69 22q-29 18 -52 18q-34 0 -75 -32q-3 -3 -6 -1.5
t-2 5.5l12 69q2 13 12 20q37 34 79 34q33 0 70 -22q28 -18 52 -18q36 0 74 32q4 3 7 1.5t2 -5.5l-12 -69q-1 -9 -12 -20q-38 -34 -80 -34z" />
    <glyph glyph-name="Ograve" unicode="&#xd2;" horiz-adv-x="602" 
d="M440 755h-87q-9 0 -17 8l-96 115q-3 4 -1.5 7.5t6.5 3.5h108q13 0 20 -10l73 -114q2 -4 0 -7t-6 -3zM266 -11q-100 0 -157.5 54.5t-57.5 153.5q0 56 22 170q23 120 46 168q77 156 264 156q100 0 157.5 -54.5t57.5 -153.5q0 -55 -22 -171q-23 -120 -46 -167
q-76 -156 -264 -156zM285 114q79 0 118 80q16 31 34 134q19 98 19 142q0 45 -24 70.5t-68 25.5q-79 0 -117 -80q-16 -33 -36 -134q-18 -101 -18 -142q0 -45 24.5 -70.5t67.5 -25.5z" />
    <glyph glyph-name="Oacute" unicode="&#xd3;" horiz-adv-x="602" 
d="M266 -11q-100 0 -157.5 54.5t-57.5 153.5q0 56 22 170q23 120 46 168q77 156 264 156q100 0 157.5 -54.5t57.5 -153.5q0 -55 -22 -171q-23 -120 -46 -167q-76 -156 -264 -156zM285 114q79 0 118 80q16 31 34 134q19 98 19 142q0 45 -24 70.5t-68 25.5q-79 0 -117 -80
q-16 -33 -36 -134q-18 -101 -18 -142q0 -45 24.5 -70.5t67.5 -25.5zM433 755h-87q-5 0 -6.5 3t1.5 7l109 114q10 10 21 10h115q5 0 6.5 -3t-2.5 -7l-137 -116q-10 -8 -20 -8z" />
    <glyph glyph-name="Ocircumflex" unicode="&#xd4;" horiz-adv-x="602" 
d="M542 756h-71q-12 0 -19 10l-41 57h-1l-62 -57q-10 -10 -23 -10h-79q-4 0 -5.5 3t1.5 7l122 131q9 10 20 10h72q10 0 16 -10l76 -131q2 -4 0 -7t-6 -3zM266 -11q-100 0 -157.5 54.5t-57.5 153.5q0 56 22 170q23 120 46 168q77 156 264 156q100 0 157.5 -54.5t57.5 -153.5
q0 -55 -22 -171q-23 -120 -46 -167q-76 -156 -264 -156zM285 114q79 0 118 80q16 31 34 134q19 98 19 142q0 45 -24 70.5t-68 25.5q-79 0 -117 -80q-16 -33 -36 -134q-18 -101 -18 -142q0 -45 24.5 -70.5t67.5 -25.5z" />
    <glyph glyph-name="Otilde" unicode="&#xd5;" horiz-adv-x="602" 
d="M266 -11q-100 0 -157.5 54.5t-57.5 153.5q0 56 22 170q23 120 46 168q77 156 264 156q100 0 157.5 -54.5t57.5 -153.5q0 -55 -22 -171q-23 -120 -46 -167q-76 -156 -264 -156zM285 114q79 0 118 80q16 31 34 134q19 98 19 142q0 45 -24 70.5t-68 25.5q-79 0 -117 -80
q-16 -33 -36 -134q-18 -101 -18 -142q0 -45 24.5 -70.5t67.5 -25.5zM449 750q-32 0 -69 22q-28 18 -52 18q-34 0 -75 -32q-3 -3 -6 -1.5t-2 5.5l12 69q2 13 12 20q37 34 79 34q33 0 70 -22q28 -18 52 -18q36 0 74 32q4 3 7 1.5t2 -5.5l-12 -69q-1 -9 -12 -20
q-38 -34 -80 -34z" />
    <glyph glyph-name="Odieresis" unicode="&#xd6;" horiz-adv-x="602" 
d="M266 -11q-100 0 -157.5 54.5t-57.5 153.5q0 56 22 170q23 120 46 168q77 156 264 156q100 0 157.5 -54.5t57.5 -153.5q0 -55 -22 -171q-23 -120 -46 -167q-76 -156 -264 -156zM285 114q79 0 118 80q16 31 34 134q19 98 19 142q0 45 -24 70.5t-68 25.5q-79 0 -117 -80
q-16 -33 -36 -134q-18 -101 -18 -142q0 -45 24.5 -70.5t67.5 -25.5zM533 762h-89q-9 0 -8 10l18 94q1 10 11 10h88q9 0 8 -10l-17 -94q-1 -10 -11 -10zM340 762h-89q-10 0 -9 10l18 94q1 10 11 10h89q9 0 8 -10l-17 -94q-1 -10 -11 -10z" />
    <glyph glyph-name="multiply" unicode="&#xd7;" 
d="M479 140l-64 -64q-7 -7 -14 0l-118 118q-4 4 -8 0l-118 -118q-7 -7 -14 0l-64 64q-7 7 0 14l117 118q4 4 0 8l-117 118q-7 7 0 14l64 64q7 7 14 0l118 -118q5 -3 9 0l117 118q7 7 14 0l64 -64q7 -7 0 -14l-118 -117q-5 -5 0 -9l118 -118q7 -7 0 -14z" />
    <glyph glyph-name="Oslash" unicode="&#xd8;" horiz-adv-x="602" 
d="M83 -30h-66q-10 0 -3 10l75 97q-30 47 -30 120q0 56 22 170q23 120 46 168q77 156 264 156q85 0 140 -40l39 50q4 9 16 9h67q9 0 3 -10l-78 -101q28 -47 28 -116q0 -55 -22 -171q-23 -120 -46 -167q-76 -156 -264 -156q-85 0 -137 37l-37 -47q-8 -9 -17 -9zM253 487
q-16 -30 -34 -128q-19 -98 -20 -143l243 323q-25 28 -70 28q-81 0 -119 -80zM293 113q81 0 120 80q16 33 32 120q17 92 20 141l-239 -317q25 -24 67 -24z" />
    <glyph glyph-name="Ugrave" unicode="&#xd9;" horiz-adv-x="619" 
d="M464 755h-87q-9 0 -17 8l-96 115q-3 4 -1.5 7.5t6.5 3.5h108q13 0 20 -10l73 -114q2 -4 0 -7t-6 -3zM308 -11q-120 0 -180 69q-60 71 -38 195l74 417q1 10 10 10h121q10 0 9 -10l-75 -425q-11 -62 13.5 -96.5t77.5 -34.5t84.5 30.5t43.5 100.5l76 425q1 10 11 10h120
q10 0 9 -10l-76 -427q-24 -135 -92 -194.5t-188 -59.5z" />
    <glyph glyph-name="Uacute" unicode="&#xda;" horiz-adv-x="619" 
d="M308 -11q-120 0 -180 69q-60 71 -38 195l74 417q1 10 10 10h121q10 0 9 -10l-75 -425q-11 -62 13.5 -96.5t77.5 -34.5t84.5 30.5t43.5 100.5l76 425q1 10 11 10h120q10 0 9 -10l-76 -427q-24 -135 -92 -194.5t-188 -59.5zM462 755h-87q-5 0 -6.5 3t1.5 7l109 114
q10 10 21 10h115q5 0 6.5 -3t-2.5 -7l-137 -116q-10 -8 -20 -8z" />
    <glyph glyph-name="Ucircumflex" unicode="&#xdb;" horiz-adv-x="619" 
d="M308 -11q-120 0 -180 69q-60 71 -38 195l74 417q1 10 10 10h121q10 0 9 -10l-75 -425q-11 -62 13.5 -96.5t77.5 -34.5t84.5 30.5t43.5 100.5l76 425q1 10 11 10h120q10 0 9 -10l-76 -427q-24 -135 -92 -194.5t-188 -59.5zM580 748h-71q-12 0 -19 10l-41 57h-2l-61 -57
q-10 -10 -23 -10h-80q-5 0 -6 3t3 7l122 131q8 9 20 9h72q12 0 16 -9l76 -131q2 -4 0 -7t-6 -3z" />
    <glyph glyph-name="Udieresis" unicode="&#xdc;" horiz-adv-x="619" 
d="M308 -11q-120 0 -180 69q-60 71 -38 195l74 417q1 10 10 10h121q10 0 9 -10l-75 -425q-11 -62 13.5 -96.5t77.5 -34.5t84.5 30.5t43.5 100.5l76 425q1 10 11 10h120q10 0 9 -10l-76 -427q-24 -135 -92 -194.5t-188 -59.5zM574 762h-89q-9 0 -8 10l18 94q1 10 11 10h88
q9 0 8 -10l-17 -94q-1 -10 -11 -10zM381 762h-89q-10 0 -9 10l18 94q1 10 11 10h89q9 0 8 -10l-17 -94q-1 -10 -11 -10z" />
    <glyph glyph-name="Yacute" unicode="&#xdd;" horiz-adv-x="545" 
d="M298 0h-120q-10 0 -9 10l47 261l-125 399q-2 4 1 7t8 3h117q11 0 14 -10l75 -255h3l165 255q6 10 15 10h125q13 0 7 -10l-265 -399l-47 -261q-1 -10 -11 -10zM403 755h-87q-5 0 -6.5 3t1.5 7l109 114q10 10 21 10h115q5 0 6.5 -3t-2.5 -7l-137 -116q-10 -8 -20 -8z" />
    <glyph glyph-name="Thorn" unicode="&#xde;" horiz-adv-x="580" 
d="M160 0h-121q-9 0 -8 10l117 660q1 10 11 10h121q9 0 8 -10l-18 -95q-2 -6 5 -6h117q92 0 143 -45.5t51 -126.5q0 -124 -75 -193q-73 -69 -195 -69h-117q-5 0 -7 -6l-21 -119q-1 -10 -11 -10zM220 257h109q51 0 83 32t32 85q0 34 -21.5 53.5t-60.5 19.5h-108q-6 0 -7 -6
l-31 -178q-2 -6 4 -6z" />
    <glyph glyph-name="germandbls" unicode="&#xdf;" horiz-adv-x="557" 
d="M274 -4h-34q-9 0 -8 10l16 89q1 10 12 10h24q50 0 71 42q8 15 18 73q10 56 10 80q0 54 -65 54h-14q-9 0 -8 10l17 89q1 10 11 10h22q33 0 52 19t19 52q0 46 -68 46q-46 0 -70.5 -21.5t-32.5 -69.5l-85 -479q-1 -10 -11 -10h-113q-10 0 -9 10l84 476q36 205 254 205
q90 0 138 -34.5t48 -97.5q0 -101 -78 -146v-2q43 -27 43 -89q0 -52 -13 -120q-13 -70 -33 -109q-26 -51 -73 -74t-124 -23z" />
    <glyph glyph-name="agrave" unicode="&#xe0;" horiz-adv-x="509" 
d="M404 0h-106q-9 0 -8 10l5 33h-1q-46 -54 -138 -54q-57 0 -94 34t-37 89q0 87 57.5 133t165.5 46h84q6 0 8 6l4 22q6 38 -12 53t-73 15q-63 0 -110 -32q-9 -6 -12 3l-30 75q-3 9 5 14q73 48 182 48q110 0 152 -40.5t25 -133.5l-56 -311q-1 -10 -11 -10zM215 89
q91 0 101 70l6 37q2 6 -5 6h-68q-94 0 -94 -68q0 -45 60 -45zM357 551h-81q-10 0 -17 10l-72 130q-2 4 0 7t7 3h104q12 0 15 -10l52 -130q3 -10 -8 -10z" />
    <glyph glyph-name="aacute" unicode="&#xe1;" horiz-adv-x="509" 
d="M404 0h-106q-9 0 -8 10l5 33h-1q-46 -54 -138 -54q-57 0 -94 34t-37 89q0 87 57.5 133t165.5 46h84q6 0 8 6l4 22q6 38 -12 53t-73 15q-63 0 -110 -32q-9 -6 -12 3l-30 75q-3 9 5 14q73 48 182 48q110 0 152 -40.5t25 -133.5l-56 -311q-1 -10 -11 -10zM215 89
q91 0 101 70l6 37q2 6 -5 6h-68q-94 0 -94 -68q0 -45 60 -45zM352 551h-86q-11 0 -4 10l95 130q7 10 19 10h111q5 0 6 -3.5t-3 -7.5l-118 -129q-10 -10 -20 -10z" />
    <glyph glyph-name="acircumflex" unicode="&#xe2;" horiz-adv-x="509" 
d="M404 0h-106q-9 0 -8 10l5 33h-1q-46 -54 -138 -54q-57 0 -94 34t-37 89q0 87 57.5 133t165.5 46h84q6 0 8 6l4 22q6 38 -12 53t-73 15q-63 0 -110 -32q-9 -6 -12 3l-30 75q-3 9 5 14q73 48 182 48q110 0 152 -40.5t25 -133.5l-56 -311q-1 -10 -11 -10zM215 89
q91 0 101 70l6 37q2 6 -5 6h-68q-94 0 -94 -68q0 -45 60 -45zM463 550h-71q-12 0 -19 10l-41 57h-1l-62 -57q-10 -10 -23 -10h-79q-12 0 -4 10l122 131q9 10 20 10h72q10 0 16 -10l76 -131q6 -10 -6 -10z" />
    <glyph glyph-name="atilde" unicode="&#xe3;" horiz-adv-x="509" 
d="M404 0h-106q-9 0 -8 10l5 33h-1q-46 -54 -138 -54q-57 0 -94 34t-37 89q0 87 57.5 133t165.5 46h84q6 0 8 6l4 22q6 38 -12 53t-73 15q-63 0 -110 -32q-9 -6 -12 3l-30 75q-3 9 5 14q73 48 182 48q110 0 152 -40.5t25 -133.5l-56 -311q-1 -10 -11 -10zM215 89
q91 0 101 70l6 37q2 6 -5 6h-68q-94 0 -94 -68q0 -45 60 -45zM374 556q-34 0 -69 21q-27 18 -52 18q-35 0 -75 -31q-3 -3 -6 -1.5t-2 4.5l12 69q2 10 12 21q38 33 79 33q35 0 70 -22q29 -18 52 -18q36 0 74 32q4 3 7 1.5t2 -5.5l-12 -69q-1 -9 -12 -20q-38 -33 -80 -33z" />
    <glyph glyph-name="adieresis" unicode="&#xe4;" horiz-adv-x="509" 
d="M404 0h-106q-9 0 -8 10l5 33h-1q-46 -54 -138 -54q-57 0 -94 34t-37 89q0 87 57.5 133t165.5 46h84q6 0 8 6l4 22q6 38 -12 53t-73 15q-63 0 -110 -32q-9 -6 -12 3l-30 75q-3 9 5 14q73 48 182 48q110 0 152 -40.5t25 -133.5l-56 -311q-1 -10 -11 -10zM215 89
q91 0 101 70l6 37q2 6 -5 6h-68q-94 0 -94 -68q0 -45 60 -45zM456 566h-89q-9 0 -8 10l18 95q1 10 11 10h89q9 0 8 -10l-18 -95q-1 -10 -11 -10zM263 566h-89q-9 0 -8 10l18 95q1 10 11 10h88q9 0 8 -10l-17 -95q-1 -10 -11 -10z" />
    <glyph glyph-name="aring" unicode="&#xe5;" horiz-adv-x="509" 
d="M404 0h-106q-9 0 -8 10l5 33h-1q-46 -54 -138 -54q-57 0 -94 34t-37 89q0 87 57.5 133t165.5 46h84q6 0 8 6l4 22q6 38 -12 53t-73 15q-63 0 -110 -32q-9 -6 -12 3l-30 75q-3 9 5 14q73 48 182 48q110 0 152 -40.5t25 -133.5l-56 -311q-1 -10 -11 -10zM215 89
q91 0 101 70l6 37q2 6 -5 6h-68q-94 0 -94 -68q0 -45 60 -45zM310 525q-39 0 -63.5 23.5t-24.5 61.5q0 51 35 89q34 37 88 37q39 0 63.5 -23.5t24.5 -61.5q0 -51 -35 -89q-34 -37 -88 -37zM319 581q23 0 38.5 17t15.5 43q0 17 -10 28t-27 11q-22 0 -38 -17t-16 -43
q0 -17 10 -28t27 -11z" />
    <glyph glyph-name="ae" unicode="&#xe6;" horiz-adv-x="786" 
d="M505 -11q-110 0 -150 73h-1q-58 -73 -180 -73q-71 0 -110 33t-39 93q0 84 58.5 130t164.5 46h84q6 0 8 6l4 22q6 38 -12 53t-73 15q-63 0 -110 -32q-9 -6 -12 3l-30 75q-3 9 5 14q73 48 182 48q108 0 148 -49h2q55 49 139 49q80 0 129.5 -45t49.5 -125q0 -44 -13 -113
q-1 -10 -12 -10h-283q-6 0 -7 -6q-1 -3 -1 -15q0 -84 87 -84q57 0 116 47q7 8 15 0l49 -59q7 -7 -1 -16q-88 -80 -207 -80zM470 291h156q6 0 7 6q3 15 3 27q0 68 -70 68q-62 0 -88 -54q-8 -15 -12 -40q-1 -7 4 -7zM215 89q91 0 101 70l6 37q2 6 -5 6h-68q-94 0 -94 -68
q0 -45 60 -45z" />
    <glyph glyph-name="ccedilla" unicode="&#xe7;" horiz-adv-x="460" 
d="M167 -159h-91q-9 0 -5 10l83 146q-57 14 -88 56.5t-31 107.5q0 40 11 101q10 58 32 103q64 130 221 130q121 0 158 -97q3 -9 -4 -13l-87 -49q-10 -7 -16 3q-22 43 -64 43q-56 0 -83 -55q-12 -23 -23 -75q-9 -48 -9 -75q0 -75 64 -75q43 0 84 45q7 7 13 3l76 -55
q8 -5 1 -14q-57 -78 -158 -90l-66 -140q-4 -10 -18 -10z" />
    <glyph glyph-name="egrave" unicode="&#xe8;" horiz-adv-x="503" 
d="M222 -11q-90 0 -138.5 45.5t-48.5 131.5q0 117 40 196q64 133 225 133q80 0 129.5 -45t49.5 -125q0 -44 -13 -113q-1 -10 -12 -10h-283q-5 0 -7 -6q-1 -3 -1 -15q0 -84 87 -84q57 0 116 47q8 8 15 0l49 -59q8 -7 -1 -16q-88 -80 -207 -80zM187 291h156q5 0 7 6q3 15 3 27
q0 68 -70 68q-63 0 -88 -54q-8 -15 -12 -40q-1 -7 4 -7zM340 551h-81q-10 0 -17 10l-72 130q-2 4 0 7t7 3h104q12 0 15 -10l52 -130q3 -10 -8 -10z" />
    <glyph glyph-name="eacute" unicode="&#xe9;" horiz-adv-x="503" 
d="M222 -11q-90 0 -138.5 45.5t-48.5 131.5q0 117 40 196q64 133 225 133q80 0 129.5 -45t49.5 -125q0 -44 -13 -113q-1 -10 -12 -10h-283q-5 0 -7 -6q-1 -3 -1 -15q0 -84 87 -84q57 0 116 47q8 8 15 0l49 -59q8 -7 -1 -16q-88 -80 -207 -80zM187 291h156q5 0 7 6q3 15 3 27
q0 68 -70 68q-63 0 -88 -54q-8 -15 -12 -40q-1 -7 4 -7zM330 551h-86q-11 0 -4 10l95 130q7 10 19 10h111q5 0 6 -3.5t-3 -7.5l-118 -129q-10 -10 -20 -10z" />
    <glyph glyph-name="ecircumflex" unicode="&#xea;" horiz-adv-x="503" 
d="M446 550h-71q-12 0 -19 10l-41 57h-1l-62 -57q-10 -10 -23 -10h-79q-4 0 -5.5 3t1.5 7l122 131q9 10 20 10h72q10 0 16 -10l76 -131q2 -4 0 -7t-6 -3zM222 -11q-90 0 -138.5 45.5t-48.5 131.5q0 117 40 196q64 133 225 133q80 0 129.5 -45t49.5 -125q0 -44 -13 -113
q-1 -10 -12 -10h-283q-5 0 -7 -6q-1 -3 -1 -15q0 -84 87 -84q57 0 116 47q8 8 15 0l49 -59q8 -7 -1 -16q-88 -80 -207 -80zM187 291h156q5 0 7 6q3 15 3 27q0 68 -70 68q-63 0 -88 -54q-8 -15 -12 -40q-1 -7 4 -7z" />
    <glyph glyph-name="edieresis" unicode="&#xeb;" horiz-adv-x="503" 
d="M222 -11q-90 0 -138.5 45.5t-48.5 131.5q0 117 40 196q64 133 225 133q80 0 129.5 -45t49.5 -125q0 -44 -13 -113q-1 -10 -12 -10h-283q-5 0 -7 -6q-1 -3 -1 -15q0 -84 87 -84q57 0 116 47q8 8 15 0l49 -59q8 -7 -1 -16q-88 -80 -207 -80zM187 291h156q5 0 7 6q3 15 3 27
q0 68 -70 68q-63 0 -88 -54q-8 -15 -12 -40q-1 -7 4 -7zM447 566h-89q-9 0 -8 10l18 95q1 10 11 10h89q9 0 8 -10l-18 -95q-1 -10 -11 -10zM254 566h-89q-9 0 -8 10l18 95q1 10 11 10h88q9 0 8 -10l-17 -95q-1 -10 -11 -10z" />
    <glyph glyph-name="igrave" unicode="&#xec;" horiz-adv-x="255" 
d="M152 0h-115q-10 0 -9 10l82 464q1 10 11 10h115q9 0 8 -10l-82 -464q-1 -10 -10 -10zM225 551h-81q-10 0 -17 10l-72 130q-2 4 0 7t7 3h104q12 0 15 -10l52 -130q3 -10 -8 -10z" />
    <glyph glyph-name="iacute" unicode="&#xed;" horiz-adv-x="255" 
d="M152 0h-115q-10 0 -9 10l82 464q1 10 11 10h115q9 0 8 -10l-82 -464q-1 -10 -10 -10zM230 551h-86q-11 0 -4 10l95 130q7 10 19 10h111q5 0 6 -3.5t-3 -7.5l-118 -129q-10 -10 -20 -10z" />
    <glyph glyph-name="icircumflex" unicode="&#xee;" horiz-adv-x="255" 
d="M152 0h-115q-10 0 -9 10l82 464q1 10 11 10h115q9 0 8 -10l-82 -464q-1 -10 -10 -10zM339 550h-71q-12 0 -19 10l-41 57h-1l-62 -57q-10 -10 -23 -10h-79q-12 0 -4 10l122 131q9 10 20 10h72q10 0 16 -10l76 -131q6 -10 -6 -10z" />
    <glyph glyph-name="idieresis" unicode="&#xef;" horiz-adv-x="255" 
d="M334 566h-89q-9 0 -8 10l18 95q1 10 11 10h89q9 0 8 -10l-18 -95q-1 -10 -11 -10zM141 566h-89q-9 0 -8 10l18 95q1 10 11 10h88q9 0 8 -10l-17 -95q-1 -10 -11 -10zM152 0h-115q-10 0 -9 10l82 464q1 10 11 10h115q9 0 8 -10l-82 -464q-1 -10 -10 -10z" />
    <glyph glyph-name="eth" unicode="&#xf0;" horiz-adv-x="510" 
d="M458 575l-60 -18l13 -24q71 -137 71 -245q0 -93 -38 -171q-63 -128 -224 -128q-86 0 -133 47.5t-47 132.5q0 91 32 160q28 59 75.5 91t107.5 32q45 0 65 -17h2l-45 87l-97 -28q-9 -5 -11 6l-8 64q-1 10 9 13l68 20l-38 73q-4 10 6 10h116q11 0 17 -10l20 -38l89 26
q9 3 11 -6l8 -62q1 -12 -9 -15zM238 102q56 0 83 55q26 54 26 113q0 74 -65 74q-58 0 -83 -55q-26 -50 -26 -113q0 -74 65 -74z" />
    <glyph glyph-name="ntilde" unicode="&#xf1;" horiz-adv-x="533" 
d="M431 0h-114q-9 0 -8 10l49 278q15 93 -56 93q-35 0 -59 -24.5t-32 -66.5l-49 -280q-1 -10 -10 -10h-115q-10 0 -9 10l82 464q1 10 11 10h115q9 0 8 -10l-7 -36h1q50 57 132 57q75 0 108 -49t19 -131l-55 -305q-1 -10 -11 -10zM377 556q-35 0 -69 21q-27 18 -52 18
q-35 0 -75 -31q-3 -3 -6 -1.5t-2 4.5l12 69q1 10 12 21q38 33 79 33q35 0 70 -22q28 -18 52 -18q36 0 74 32q4 3 7 1.5t2 -5.5l-12 -69q-1 -9 -12 -20q-37 -33 -80 -33z" />
    <glyph glyph-name="ograve" unicode="&#xf2;" horiz-adv-x="508" 
d="M217 -11q-84 0 -133 46.5t-49 127.5q0 47 12 105q13 61 31 98q63 129 224 129q84 0 133 -46.5t49 -127.5q0 -47 -12 -105q-13 -61 -31 -98q-63 -129 -224 -129zM235 102q55 0 82 55q11 24 22 74q10 47 10 77q0 74 -65 74q-55 0 -82 -55q-11 -24 -22 -75q-10 -47 -10 -76
q0 -74 65 -74zM342 551h-81q-10 0 -17 10l-72 130q-2 4 0 7t7 3h104q12 0 15 -10l52 -130q3 -10 -8 -10z" />
    <glyph glyph-name="oacute" unicode="&#xf3;" horiz-adv-x="508" 
d="M217 -11q-84 0 -133 46.5t-49 127.5q0 47 12 105q13 61 31 98q63 129 224 129q84 0 133 -46.5t49 -127.5q0 -47 -12 -105q-13 -61 -31 -98q-63 -129 -224 -129zM235 102q55 0 82 55q11 24 22 74q10 47 10 77q0 74 -65 74q-55 0 -82 -55q-11 -24 -22 -75q-10 -47 -10 -76
q0 -74 65 -74zM344 551h-86q-11 0 -4 10l95 130q7 10 19 10h111q5 0 6 -3.5t-3 -7.5l-118 -129q-10 -10 -20 -10z" />
    <glyph glyph-name="ocircumflex" unicode="&#xf4;" horiz-adv-x="508" 
d="M217 -11q-84 0 -133 46.5t-49 127.5q0 47 12 105q13 61 31 98q63 129 224 129q84 0 133 -46.5t49 -127.5q0 -47 -12 -105q-13 -61 -31 -98q-63 -129 -224 -129zM235 102q55 0 82 55q11 24 22 74q10 47 10 77q0 74 -65 74q-55 0 -82 -55q-11 -24 -22 -75q-10 -47 -10 -76
q0 -74 65 -74zM453 550h-71q-12 0 -19 10l-41 57h-1l-62 -57q-10 -10 -23 -10h-79q-12 0 -4 10l122 131q9 10 20 10h72q10 0 16 -10l76 -131q6 -10 -6 -10z" />
    <glyph glyph-name="otilde" unicode="&#xf5;" horiz-adv-x="508" 
d="M217 -11q-84 0 -133 46.5t-49 127.5q0 47 12 105q13 61 31 98q63 129 224 129q84 0 133 -46.5t49 -127.5q0 -47 -12 -105q-13 -61 -31 -98q-63 -129 -224 -129zM235 102q55 0 82 55q11 24 22 74q10 47 10 77q0 74 -65 74q-55 0 -82 -55q-11 -24 -22 -75q-10 -47 -10 -76
q0 -74 65 -74zM369 556q-35 0 -69 21q-27 18 -52 18q-35 0 -75 -31q-3 -3 -6 -1.5t-2 4.5l12 69q1 10 12 21q37 33 79 33q35 0 70 -22q28 -18 52 -18q36 0 74 32q4 3 7 1.5t2 -5.5l-12 -69q-1 -9 -12 -20q-37 -33 -80 -33z" />
    <glyph glyph-name="odieresis" unicode="&#xf6;" horiz-adv-x="508" 
d="M217 -11q-84 0 -133 46.5t-49 127.5q0 47 12 105q13 61 31 98q63 129 224 129q84 0 133 -46.5t49 -127.5q0 -47 -12 -105q-13 -61 -31 -98q-63 -129 -224 -129zM235 102q55 0 82 55q11 24 22 74q10 47 10 77q0 74 -65 74q-55 0 -82 -55q-11 -24 -22 -75q-10 -47 -10 -76
q0 -74 65 -74zM448 566h-89q-9 0 -8 10l18 95q1 10 11 10h89q9 0 8 -10l-18 -95q-1 -10 -11 -10zM255 566h-89q-9 0 -8 10l18 95q1 10 11 10h88q9 0 8 -10l-17 -95q-1 -10 -11 -10z" />
    <glyph glyph-name="divide" unicode="&#xf7;" 
d="M209 460q0 30 21.5 51.5t52.5 21.5t52 -21.5t21 -51.5q0 -31 -21 -52.5t-52 -21.5t-52.5 21.5t-21.5 52.5zM496 219h-425q-10 0 -10 10v94q0 10 10 10h425q10 0 10 -10v-94q0 -10 -10 -10zM209 92q0 31 21.5 52.5t52.5 21.5t52 -21.5t21 -52.5q0 -30 -21 -51.5t-52 -21.5
t-52.5 21.5t-21.5 51.5z" />
    <glyph glyph-name="oslash" unicode="&#xf8;" horiz-adv-x="508" 
d="M55 -30h-44q-10 0 -3 10l66 75q-31 43 -31 108q0 47 12 105q12 62 31 98q64 130 225 130q70 0 115 -33l35 40q9 10 19 10h44q10 0 3 -10l-65 -75q30 -43 30 -107q0 -47 -12 -105q-13 -61 -31 -98q-63 -129 -224 -129q-69 0 -115 31l-35 -40q-9 -10 -20 -10zM176 176v-6
l164 197q-17 17 -47 17q-56 0 -85 -56q-11 -24 -22 -76q-10 -47 -10 -76zM243 100q55 0 84 56q11 24 22 75q10 49 10 78v2l-163 -196q16 -15 47 -15z" />
    <glyph glyph-name="ugrave" unicode="&#xf9;" horiz-adv-x="529" 
d="M129 484h114q10 0 9 -10l-49 -279q-8 -43 6 -67.5t49 -24.5t58.5 24t31.5 67l49 280q1 10 10 10h115q10 0 9 -10l-83 -464q-1 -10 -11 -10h-114q-9 0 -8 10l6 36h-1q-52 -57 -130 -57q-75 0 -107.5 48.5t-17.5 131.5l54 305q1 10 10 10zM369 551h-81q-10 0 -17 10
l-72 130q-2 4 0 7t7 3h104q12 0 15 -10l52 -130q3 -10 -8 -10z" />
    <glyph glyph-name="uacute" unicode="&#xfa;" horiz-adv-x="529" 
d="M129 484h114q10 0 9 -10l-49 -279q-8 -43 6 -67.5t49 -24.5t58.5 24t31.5 67l49 280q1 10 10 10h115q10 0 9 -10l-83 -464q-1 -10 -11 -10h-114q-9 0 -8 10l6 36h-1q-52 -57 -130 -57q-75 0 -107.5 48.5t-17.5 131.5l54 305q1 10 10 10zM369 551h-86q-11 0 -4 10l95 130
q7 10 19 10h111q5 0 6 -3.5t-3 -7.5l-118 -129q-10 -10 -20 -10z" />
    <glyph glyph-name="ucircumflex" unicode="&#xfb;" horiz-adv-x="529" 
d="M483 550h-71q-12 0 -19 10l-41 57h-1l-62 -57q-10 -10 -23 -10h-79q-4 0 -5.5 3t1.5 7l122 131q9 10 20 10h72q10 0 16 -10l76 -131q2 -4 0 -7t-6 -3zM129 484h114q10 0 9 -10l-49 -279q-8 -43 6 -67.5t49 -24.5t58.5 24t31.5 67l49 280q1 10 10 10h115q10 0 9 -10
l-83 -464q-1 -10 -11 -10h-114q-9 0 -8 10l6 36h-1q-52 -57 -130 -57q-75 0 -107.5 48.5t-17.5 131.5l54 305q1 10 10 10z" />
    <glyph glyph-name="udieresis" unicode="&#xfc;" horiz-adv-x="529" 
d="M129 484h114q10 0 9 -10l-49 -279q-8 -43 6 -67.5t49 -24.5t58.5 24t31.5 67l49 280q1 10 10 10h115q10 0 9 -10l-83 -464q-1 -10 -11 -10h-114q-9 0 -8 10l6 36h-1q-52 -57 -130 -57q-75 0 -107.5 48.5t-17.5 131.5l54 305q1 10 10 10zM476 566h-89q-9 0 -8 10l18 95
q1 10 11 10h89q9 0 8 -10l-18 -95q-1 -10 -11 -10zM283 566h-89q-9 0 -8 10l18 95q1 10 11 10h88q9 0 8 -10l-17 -95q-1 -10 -11 -10z" />
    <glyph glyph-name="yacute" unicode="&#xfd;" horiz-adv-x="492" 
d="M57 -180h-33q-11 0 -8 10l16 94q1 10 12 10h21q47 0 74 52l18 37l-94 451q-1 10 8 10h119q9 0 10 -10l44 -287h2l140 287q4 10 14 10h120q11 0 7 -10l-283 -516q-42 -79 -83 -108q-41 -30 -104 -30zM328 551h-86q-11 0 -4 10l95 130q7 10 19 10h111q5 0 6 -3.5t-3 -7.5
l-118 -129q-10 -10 -20 -10z" />
    <glyph glyph-name="thorn" unicode="&#xfe;" horiz-adv-x="530" 
d="M120 -180h-115q-9 0 -8 10l148 840q1 10 11 10h115q9 0 8 -10l-41 -233h1q46 58 132 58q68 0 103.5 -41.5t35.5 -117.5q0 -50 -14 -123q-14 -72 -36 -115q-54 -109 -176 -109q-88 0 -114 59h-1l-38 -218q-1 -10 -11 -10zM260 102q55 0 82 55q12 23 21 72q10 47 10 79
q0 74 -64 74q-55 0 -82 -55q-11 -23 -21 -72q-10 -47 -10 -79q0 -74 64 -74z" />
    <glyph glyph-name="ydieresis" unicode="&#xff;" horiz-adv-x="492" 
d="M57 -180h-33q-11 0 -8 10l16 94q1 10 12 10h21q47 0 74 52l18 37l-94 451q-1 10 8 10h119q9 0 10 -10l44 -287h2l140 287q4 10 14 10h120q11 0 7 -10l-283 -516q-42 -79 -83 -108q-41 -30 -104 -30zM449 566h-89q-9 0 -8 10l18 95q1 10 11 10h89q9 0 8 -10l-18 -95
q-1 -10 -11 -10zM256 566h-89q-9 0 -8 10l18 95q1 10 11 10h88q9 0 8 -10l-17 -95q-1 -10 -11 -10z" />
    <glyph glyph-name="Amacron" unicode="&#x100;" horiz-adv-x="624" 
d="M121 0h-132q-9 0 -5 10l343 660q4 10 15 10h121q10 0 11 -10l105 -660q1 -10 -7 -10h-122q-11 0 -12 10l-16 122h-229l-59 -122q-4 -10 -13 -10zM373 500l-121 -248h155l-31 248h-3zM553 773h-272q-9 0 -8 10l12 72q1 10 11 10h273q9 0 8 -10l-13 -72q-1 -10 -11 -10z
" />
    <glyph glyph-name="amacron" unicode="&#x101;" horiz-adv-x="509" 
d="M404 0h-106q-9 0 -8 10l5 33h-1q-46 -54 -138 -54q-57 0 -94 34t-37 89q0 87 57.5 133t165.5 46h84q6 0 8 6l4 22q6 38 -12 53t-73 15q-63 0 -110 -32q-9 -6 -12 3l-30 75q-3 9 5 14q73 48 182 48q110 0 152 -40.5t25 -133.5l-56 -311q-1 -10 -11 -10zM215 89
q91 0 101 70l6 37q2 6 -5 6h-68q-94 0 -94 -68q0 -45 60 -45zM452 579h-272q-9 0 -8 10l12 71q1 10 11 10h273q9 0 8 -10l-13 -71q-1 -10 -11 -10z" />
    <glyph glyph-name="Abreve" unicode="&#x102;" horiz-adv-x="624" 
d="M121 0h-132q-9 0 -5 10l343 660q4 10 15 10h121q10 0 11 -10l105 -660q1 -10 -7 -10h-122q-11 0 -12 10l-16 122h-229l-59 -122q-4 -10 -13 -10zM373 500l-121 -248h155l-31 248h-3zM412 746q-63 0 -97 35.5t-27 92.5q2 11 11 11h55q11 0 12 -10q6 -45 60 -45t78 45
q6 10 15 10h54q11 0 8 -11q-12 -54 -60 -92q-47 -36 -109 -36z" />
    <glyph glyph-name="abreve" unicode="&#x103;" horiz-adv-x="509" 
d="M404 0h-106q-9 0 -8 10l5 33h-1q-46 -54 -138 -54q-57 0 -94 34t-37 89q0 87 57.5 133t165.5 46h84q6 0 8 6l4 22q6 38 -12 53t-73 15q-63 0 -110 -32q-9 -6 -12 3l-30 75q-3 9 5 14q73 48 182 48q110 0 152 -40.5t25 -133.5l-56 -311q-1 -10 -11 -10zM215 89
q91 0 101 70l6 37q2 6 -5 6h-68q-94 0 -94 -68q0 -45 60 -45zM308 548q-63 0 -97 35.5t-27 92.5q2 11 11 11h55q11 0 12 -10q6 -44 60 -44q55 0 78 44q6 10 15 10h54q11 0 8 -10q-12 -55 -60 -93q-47 -36 -109 -36z" />
    <glyph glyph-name="Aogonek" unicode="&#x104;" horiz-adv-x="624" 
d="M454 -190q-39 0 -62 20t-23 55q0 64 81 115q-11 0 -12 10l-15 122h-230l-59 -122q-4 -10 -13 -10h-132q-9 0 -5 10l343 660q4 10 15 10h121q10 0 11 -10l105 -660q1 -6 -6 -10q-98 -47 -98 -82q0 -16 18 -16q10 0 24 8q10 4 13 -4l19 -56q4 -8 -5 -13q-44 -27 -90 -27z
M376 500h-3l-121 -248h155z" />
    <glyph glyph-name="aogonek" unicode="&#x105;" horiz-adv-x="509" 
d="M288 -190q-39 0 -62 20t-23 55q0 64 85 116l7 42h-1q-46 -54 -138 -54q-57 0 -94 34t-37 89q0 87 57.5 133t165.5 46h84q6 0 8 6l4 22q6 38 -12 53t-73 15q-63 0 -110 -32q-9 -6 -12 3l-30 75q-3 9 5 14q73 48 182 48q110 0 152 -40.5t25 -133.5l-56 -310q-2 -9 -8 -12
q-98 -47 -98 -81q0 -16 17 -16q7 0 25 8q9 4 12 -4l20 -56q3 -8 -5 -13q-44 -27 -90 -27zM215 89q88 0 101 70l6 37q2 6 -5 6h-68q-94 0 -94 -68q0 -45 60 -45z" />
    <glyph glyph-name="Cacute" unicode="&#x106;" horiz-adv-x="550" 
d="M50 197q0 53 21 169q23 120 47 168q78 157 258 157q79 0 131 -39.5t69 -111.5q1 -8 -7 -13l-106 -44q-9 -4 -13 6q-20 77 -90 77q-76 0 -114 -80q-16 -34 -36 -135q-18 -101 -18 -142q0 -44 23.5 -69.5t66.5 -25.5q68 0 115 78q6 9 15 5l95 -51q7 -3 3 -13
q-88 -144 -249 -144q-97 0 -154 54.5t-57 153.5zM402 755h-87q-5 0 -6.5 3t1.5 7l109 114q10 10 21 10h115q5 0 6.5 -3t-2.5 -7l-137 -116q-10 -8 -20 -8z" />
    <glyph glyph-name="cacute" unicode="&#x107;" horiz-adv-x="460" 
d="M214 -11q-82 0 -130.5 46t-48.5 126q0 40 11 101q10 58 32 103q64 130 221 130q121 0 158 -97q3 -9 -4 -13l-87 -49q-10 -7 -16 3q-22 43 -64 43q-56 0 -83 -55q-12 -23 -23 -75q-9 -48 -9 -75q0 -75 64 -75q43 0 84 45q7 7 13 3l76 -55q8 -5 1 -14q-66 -92 -195 -92z
M331 551h-86q-11 0 -4 10l95 130q7 10 19 10h111q5 0 6 -3.5t-3 -7.5l-118 -129q-10 -10 -20 -10z" />
    <glyph glyph-name="Ccircumflex" unicode="&#x108;" horiz-adv-x="550" 
d="M50 197q0 53 21 169q23 120 47 168q78 157 258 157q79 0 131 -39.5t69 -111.5q1 -8 -7 -13l-106 -44q-9 -4 -13 6q-20 77 -90 77q-76 0 -114 -80q-16 -34 -36 -135q-18 -101 -18 -142q0 -44 23.5 -69.5t66.5 -25.5q68 0 115 78q6 9 15 5l95 -51q7 -3 3 -13
q-88 -144 -249 -144q-97 0 -154 54.5t-57 153.5zM534 748h-71q-12 0 -19 10l-41 57h-2l-61 -57q-10 -10 -23 -10h-80q-5 0 -6 3t3 7l122 131q8 9 20 9h72q12 0 16 -9l76 -131q2 -4 0 -7t-6 -3z" />
    <glyph glyph-name="ccircumflex" unicode="&#x109;" horiz-adv-x="460" 
d="M450 550h-71q-12 0 -19 10l-41 57h-1l-62 -57q-10 -10 -23 -10h-79q-4 0 -5.5 3t1.5 7l122 131q9 10 20 10h72q10 0 16 -10l76 -131q2 -4 0 -7t-6 -3zM214 -11q-82 0 -130.5 46t-48.5 126q0 40 11 101q10 58 32 103q64 130 221 130q121 0 158 -97q3 -9 -4 -13l-87 -49
q-10 -7 -16 3q-22 43 -64 43q-56 0 -83 -55q-12 -23 -23 -75q-9 -48 -9 -75q0 -75 64 -75q43 0 84 45q7 7 13 3l76 -55q8 -5 1 -14q-66 -92 -195 -92z" />
    <glyph glyph-name="Cdotaccent" unicode="&#x10a;" horiz-adv-x="550" 
d="M432 762h-111q-9 0 -8 10l18 94q1 10 11 10h110q9 0 8 -10l-17 -94q-1 -10 -11 -10zM50 197q0 53 21 169q23 120 47 168q78 157 258 157q79 0 131 -39.5t69 -111.5q1 -8 -7 -13l-106 -44q-9 -4 -13 6q-20 77 -90 77q-76 0 -114 -80q-16 -34 -36 -135q-18 -101 -18 -142
q0 -44 23.5 -69.5t66.5 -25.5q68 0 115 78q6 9 15 5l95 -51q7 -3 3 -13q-88 -144 -249 -144q-97 0 -154 54.5t-57 153.5z" />
    <glyph glyph-name="cdotaccent" unicode="&#x10b;" horiz-adv-x="460" 
d="M214 -11q-82 0 -130.5 46t-48.5 126q0 40 11 101q10 58 32 103q64 130 221 130q121 0 158 -97q3 -9 -4 -13l-87 -49q-10 -7 -16 3q-22 43 -64 43q-56 0 -83 -55q-12 -23 -23 -75q-9 -48 -9 -75q0 -75 64 -75q43 0 84 45q7 7 13 3l76 -55q8 -5 1 -14q-66 -92 -195 -92z
M354 565h-111q-9 0 -8 10l17 95q1 10 11 10h110q9 0 8 -10l-16 -95q-1 -10 -11 -10z" />
    <glyph glyph-name="Ccaron" unicode="&#x10c;" horiz-adv-x="550" 
d="M50 197q0 53 21 169q23 120 47 168q78 157 258 157q79 0 131 -39.5t69 -111.5q1 -8 -7 -13l-106 -44q-9 -4 -13 6q-20 77 -90 77q-76 0 -114 -80q-16 -34 -36 -135q-18 -101 -18 -142q0 -44 23.5 -69.5t66.5 -25.5q68 0 115 78q6 9 15 5l95 -51q7 -3 3 -13
q-88 -144 -249 -144q-97 0 -154 54.5t-57 153.5zM414 744h-72q-12 0 -16 9l-76 131q-2 4 0 7t6 3h71q12 0 19 -10l41 -57h1l62 57q10 10 23 10h80q5 0 6 -3t-3 -7l-122 -131q-8 -9 -20 -9z" />
    <glyph glyph-name="ccaron" unicode="&#x10d;" horiz-adv-x="460" 
d="M214 -11q-82 0 -130.5 46t-48.5 126q0 40 11 101q10 58 32 103q64 130 221 130q121 0 158 -97q3 -9 -4 -13l-87 -49q-10 -7 -16 3q-22 43 -64 43q-56 0 -83 -55q-12 -23 -23 -75q-9 -48 -9 -75q0 -75 64 -75q43 0 84 45q7 7 13 3l76 -55q8 -5 1 -14q-66 -92 -195 -92z
M332 548h-72q-10 0 -16 10l-76 131q-2 4 0 7t6 3h71q12 0 19 -10l41 -57h1l62 57q10 10 23 10h79q4 0 5.5 -3t-1.5 -7l-122 -131q-9 -10 -20 -10z" />
    <glyph glyph-name="Dcaron" unicode="&#x10e;" horiz-adv-x="605" 
d="M412 744h-72q-12 0 -16 9l-76 131q-2 4 0 7t6 3h71q12 0 19 -10l41 -57h1l62 57q10 10 23 10h80q5 0 6 -3t-3 -7l-122 -131q-8 -9 -20 -9zM30 10l117 660q1 10 11 10h243q196 0 196 -193q0 -67 -21 -180q-19 -109 -47 -168q-38 -74 -96.5 -106.5t-150.5 -32.5h-243
q-10 0 -9 10zM266 549l-74 -418q-2 -6 5 -6h76q51 0 82.5 18t51.5 59q16 33 33 122q17 91 17 132q0 51 -26.5 75t-83.5 24h-75q-4 0 -6 -6z" />
    <glyph glyph-name="dcaron" unicode="&#x10f;" horiz-adv-x="531" 
d="M423 0h-115q-9 0 -8 10l6 37h-1q-46 -58 -132 -58q-68 0 -103.5 41.5t-35.5 117.5q0 50 14 123q14 72 36 115q54 109 176 109q88 0 114 -59h1l41 234q1 10 11 10h115q9 0 8 -10l-116 -660q-1 -10 -11 -10zM235 102q55 0 82 55q11 23 21 72q10 47 10 79q0 74 -64 74
q-55 0 -82 -55q-11 -20 -22 -73q-9 -50 -9 -78q0 -74 64 -74zM575 491q-9 0 -8 12l29 167q1 10 11 10h91q10 0 9 -10l-15 -82q-2 -10 -11 -20l-90 -69q-10 -8 -16 -8z" />
    <glyph glyph-name="Dcroat" unicode="&#x110;" horiz-adv-x="605" 
d="M282 0h-243q-10 0 -9 10l49 275q1 6 -4 6h-26q-9 0 -8 10l15 84q1 10 12 10h24q6 0 7 6l48 269q1 10 11 10h243q196 0 196 -193q0 -67 -21 -180q-19 -109 -47 -168q-38 -74 -96.5 -106.5t-150.5 -32.5zM197 125h76q51 0 82.5 18t51.5 59q16 33 33 122q17 91 17 132
q0 51 -26.5 75t-83.5 24h-75q-4 0 -6 -6l-26 -148q-2 -6 4 -6h82q9 0 8 -10l-15 -84q-1 -10 -11 -10h-82q-6 0 -7 -6l-27 -154q-2 -6 5 -6z" />
    <glyph glyph-name="dslash" unicode="&#x111;" horiz-adv-x="530" 
d="M527 537l-93 -527q-1 -10 -11 -10h-115q-9 0 -8 10l6 37h-1q-46 -58 -132 -58q-68 0 -103.5 41.5t-35.5 117.5q0 50 14 123q14 72 36 115q54 109 176 109q88 0 114 -59h1l18 101q1 6 -5 6h-100q-8 0 -7 10l13 73q1 10 11 10h99q6 0 7 6l5 28q1 10 11 10h115q9 0 8 -10
l-5 -28q-1 -6 4 -6h16q10 0 9 -10l-14 -73q-1 -10 -12 -10h-14q-6 0 -7 -6zM235 102q55 0 82 55q11 23 21 72q10 47 10 79q0 74 -64 74q-55 0 -82 -55q-11 -20 -22 -73q-9 -50 -9 -78q0 -74 64 -74z" />
    <glyph glyph-name="Emacron" unicode="&#x112;" horiz-adv-x="542" 
d="M30 10l117 660q1 10 11 10h418q9 0 8 -10l-18 -102q-1 -10 -11 -10h-282q-5 0 -7 -6l-25 -143q-1 -6 5 -6h234q9 0 8 -10l-18 -100q-1 -10 -12 -10h-234q-6 0 -7 -6l-26 -149q-1 -6 5 -6h282q9 0 8 -10l-19 -102q-1 -10 -11 -10h-417q-10 0 -9 10zM515 773h-272
q-9 0 -8 10l12 72q1 10 11 10h273q9 0 8 -10l-13 -72q-1 -10 -11 -10z" />
    <glyph glyph-name="emacron" unicode="&#x113;" horiz-adv-x="503" 
d="M222 -11q-90 0 -138.5 45.5t-48.5 131.5q0 117 40 196q64 133 225 133q80 0 129.5 -45t49.5 -125q0 -44 -13 -113q-1 -10 -12 -10h-283q-5 0 -7 -6q-1 -3 -1 -15q0 -84 87 -84q57 0 116 47q8 8 15 0l49 -59q8 -7 -1 -16q-88 -80 -207 -80zM187 291h156q5 0 7 6q3 15 3 27
q0 68 -70 68q-63 0 -88 -54q-8 -15 -12 -40q-1 -7 4 -7zM441 579h-272q-9 0 -8 10l12 71q1 10 11 10h273q9 0 8 -10l-13 -71q-1 -10 -11 -10z" />
    <glyph glyph-name="Ebreve" unicode="&#x114;" horiz-adv-x="542" 
d="M30 10l117 660q1 10 11 10h418q9 0 8 -10l-18 -102q-1 -10 -11 -10h-282q-5 0 -7 -6l-25 -143q-1 -6 5 -6h234q9 0 8 -10l-18 -100q-1 -10 -12 -10h-234q-6 0 -7 -6l-26 -149q-1 -6 5 -6h282q9 0 8 -10l-19 -102q-1 -10 -11 -10h-417q-10 0 -9 10zM368 746
q-63 0 -97 35.5t-27 92.5q2 11 11 11h55q11 0 12 -10q6 -45 60 -45t78 45q6 10 15 10h54q11 0 8 -11q-12 -54 -60 -92q-47 -36 -109 -36z" />
    <glyph glyph-name="ebreve" unicode="&#x115;" horiz-adv-x="503" 
d="M222 -11q-90 0 -138.5 45.5t-48.5 131.5q0 117 40 196q64 133 225 133q80 0 129.5 -45t49.5 -125q0 -44 -13 -113q-1 -10 -12 -10h-283q-5 0 -7 -6q-1 -3 -1 -15q0 -84 87 -84q57 0 116 47q8 8 15 0l49 -59q8 -7 -1 -16q-88 -80 -207 -80zM187 291h156q5 0 7 6q3 15 3 27
q0 68 -70 68q-63 0 -88 -54q-8 -15 -12 -40q-1 -7 4 -7zM302 548q-63 0 -97 35.5t-27 92.5q2 11 11 11h55q11 0 12 -10q6 -44 60 -44q55 0 78 44q6 10 15 10h54q11 0 8 -10q-12 -55 -60 -93q-47 -36 -109 -36z" />
    <glyph glyph-name="Edotaccent" unicode="&#x116;" horiz-adv-x="542" 
d="M30 10l117 660q1 10 11 10h418q9 0 8 -10l-18 -102q-1 -10 -11 -10h-282q-5 0 -7 -6l-25 -143q-1 -6 5 -6h234q9 0 8 -10l-18 -100q-1 -10 -12 -10h-234q-6 0 -7 -6l-26 -149q-1 -6 5 -6h282q9 0 8 -10l-19 -102q-1 -10 -11 -10h-417q-10 0 -9 10zM434 762h-111
q-9 0 -8 10l18 94q1 10 11 10h110q9 0 8 -10l-17 -94q-1 -10 -11 -10z" />
    <glyph glyph-name="edotaccent" unicode="&#x117;" horiz-adv-x="503" 
d="M222 -11q-90 0 -138.5 45.5t-48.5 131.5q0 117 40 196q64 133 225 133q80 0 129.5 -45t49.5 -125q0 -44 -13 -113q-1 -10 -12 -10h-283q-5 0 -7 -6q-1 -3 -1 -15q0 -84 87 -84q57 0 116 47q8 8 15 0l49 -59q8 -7 -1 -16q-88 -80 -207 -80zM187 291h156q5 0 7 6q3 15 3 27
q0 68 -70 68q-63 0 -88 -54q-8 -15 -12 -40q-1 -7 4 -7zM360 565h-111q-9 0 -8 10l17 95q1 10 11 10h110q9 0 8 -10l-16 -95q-1 -10 -11 -10z" />
    <glyph glyph-name="Eogonek" unicode="&#x118;" horiz-adv-x="542" 
d="M330 -190q-39 0 -62 20t-23 55q0 63 76 115h-282q-10 0 -9 10l117 660q1 10 11 10h418q9 0 8 -10l-18 -102q-1 -10 -11 -10h-282q-5 0 -7 -6l-25 -143q-1 -6 5 -6h234q9 0 8 -10l-18 -100q-1 -10 -12 -10h-234q-6 0 -7 -6l-26 -149q-1 -6 5 -6h282q9 0 8 -10l-19 -102
q-1 -10 -11 -10h-9q-96 -46 -96 -82q0 -16 17 -16q7 0 25 8q9 4 12 -4l20 -56q3 -8 -5 -13q-45 -27 -90 -27z" />
    <glyph glyph-name="eogonek" unicode="&#x119;" horiz-adv-x="503" 
d="M163 181q0 -84 87 -84q57 0 116 47q8 8 15 0l49 -59q8 -7 -1 -16q-30 -25 -51 -39q-99 -75 -99 -112q0 -16 17 -16q7 0 25 8q8 5 12 -4l19 -56q4 -8 -5 -13q-44 -27 -89 -27q-39 0 -62 20t-23 55q0 52 53 105q-2 -1 -9 -1q-87 1 -134.5 47t-47.5 130q0 117 40 196
q64 133 225 133q80 0 129.5 -45t49.5 -125q0 -44 -13 -113q-1 -10 -12 -10h-283q-5 0 -7 -6q-1 -3 -1 -15zM187 291h156q5 0 7 6q3 15 3 27q0 68 -70 68q-63 0 -88 -54q-9 -18 -12 -41q-1 -6 4 -6z" />
    <glyph glyph-name="Ecaron" unicode="&#x11a;" horiz-adv-x="542" 
d="M410 744h-72q-12 0 -16 9l-76 131q-2 4 0 7t6 3h71q12 0 19 -10l41 -57h1l62 57q10 10 23 10h80q5 0 6 -3t-3 -7l-122 -131q-8 -9 -20 -9zM30 10l117 660q1 10 11 10h418q9 0 8 -10l-18 -102q-1 -10 -11 -10h-282q-5 0 -7 -6l-25 -143q-1 -6 5 -6h234q9 0 8 -10l-18 -100
q-1 -10 -12 -10h-234q-6 0 -7 -6l-26 -149q-1 -6 5 -6h282q9 0 8 -10l-19 -102q-1 -10 -11 -10h-417q-10 0 -9 10z" />
    <glyph glyph-name="ecaron" unicode="&#x11b;" horiz-adv-x="503" 
d="M222 -11q-90 0 -138.5 45.5t-48.5 131.5q0 117 40 196q64 133 225 133q80 0 129.5 -45t49.5 -125q0 -44 -13 -113q-1 -10 -12 -10h-283q-5 0 -7 -6q-1 -3 -1 -15q0 -84 87 -84q57 0 116 47q8 8 15 0l49 -59q8 -7 -1 -16q-88 -80 -207 -80zM187 291h156q5 0 7 6q3 15 3 27
q0 68 -70 68q-63 0 -88 -54q-8 -15 -12 -40q-1 -7 4 -7zM338 548h-72q-10 0 -16 10l-76 131q-2 4 0 7t6 3h71q12 0 19 -10l41 -57h1l62 57q10 10 23 10h79q4 0 5.5 -3t-1.5 -7l-122 -131q-9 -10 -20 -10z" />
    <glyph glyph-name="Gcircumflex" unicode="&#x11c;" horiz-adv-x="601" 
d="M51 197q0 56 22 170q23 120 46 168q77 156 267 156q80 0 135 -40t70 -104q3 -8 -6 -14l-106 -43q-8 -4 -13 5q-26 71 -100 71q-81 0 -119 -80q-15 -30 -35 -135q-19 -98 -19 -141q0 -44 25.5 -70t69.5 -26q82 0 118 73q14 34 20 71q0 6 -5 6h-88q-8 0 -7 10l16 92
q1 10 11 10h226q8 0 7 -10l-10 -55q-18 -111 -45 -167q-78 -155 -263 -155q-100 0 -158.5 54.5t-58.5 153.5zM541 748h-71q-12 0 -19 10l-41 57h-2l-61 -57q-10 -10 -23 -10h-80q-5 0 -6 3t3 7l122 131q7 9 20 9h72q11 0 16 -9l76 -131q6 -10 -6 -10z" />
    <glyph glyph-name="gcircumflex" unicode="&#x11d;" horiz-adv-x="521" 
d="M475 550h-71q-12 0 -19 10l-41 57h-1l-62 -57q-10 -10 -23 -10h-79q-4 0 -5.5 3t1.5 7l122 131q9 10 20 10h72q10 0 16 -10l76 -131q2 -4 0 -7t-6 -3zM180 -191q-56 0 -101 21.5t-69 57.5q-7 8 2 16l74 62q9 7 16 0q42 -44 89 -44q94 0 114 110l8 44h-1q-43 -58 -128 -58
q-68 0 -103 40.5t-35 114.5q0 43 12 105q12 63 31 102q54 115 175 115q87 0 111 -59h1l7 38q1 10 11 10h112q9 0 8 -10l-74 -427q-22 -127 -83.5 -182.5t-176.5 -55.5zM245 130q51 0 77 54q27 53 27 125q0 73 -63 73q-52 0 -77 -54q-27 -53 -27 -125q0 -73 63 -73z" />
    <glyph glyph-name="Gbreve" unicode="&#x11e;" horiz-adv-x="601" 
d="M51 197q0 56 22 170q23 120 46 168q77 156 267 156q80 0 135 -40t70 -104q3 -8 -6 -14l-106 -43q-8 -4 -13 5q-26 71 -100 71q-81 0 -119 -80q-15 -30 -35 -135q-19 -98 -19 -141q0 -44 25.5 -70t69.5 -26q82 0 118 73q14 34 20 71q0 6 -5 6h-88q-8 0 -7 10l16 92
q1 10 11 10h226q8 0 7 -10l-10 -55q-18 -111 -45 -167q-78 -155 -263 -155q-100 0 -158.5 54.5t-58.5 153.5zM390 746q-63 0 -97 35.5t-27 92.5q2 11 11 11h55q11 0 12 -10q6 -45 60 -45t78 45q6 10 15 10h54q11 0 8 -11q-12 -54 -60 -92q-47 -36 -109 -36z" />
    <glyph glyph-name="gbreve" unicode="&#x11f;" horiz-adv-x="521" 
d="M180 -191q-56 0 -101 21.5t-69 57.5q-7 8 2 16l74 62q9 7 16 0q42 -44 89 -44q94 0 114 110l8 44h-1q-43 -58 -128 -58q-68 0 -103 40.5t-35 114.5q0 43 12 105q12 63 31 102q54 115 175 115q87 0 111 -59h1l7 38q1 10 11 10h112q9 0 8 -10l-74 -427
q-22 -127 -83.5 -182.5t-176.5 -55.5zM245 130q51 0 77 54q27 53 27 125q0 73 -63 73q-52 0 -77 -54q-27 -53 -27 -125q0 -73 63 -73zM322 548q-63 0 -97 35.5t-27 92.5q2 11 11 11h55q11 0 12 -10q6 -44 60 -44q55 0 78 44q6 10 15 10h54q11 0 8 -10q-12 -55 -60 -93
q-47 -36 -109 -36z" />
    <glyph glyph-name="Gdotaccent" unicode="&#x120;" horiz-adv-x="601" 
d="M51 197q0 56 22 170q23 120 46 168q77 156 267 156q80 0 135 -40t70 -104q3 -8 -6 -14l-106 -43q-8 -4 -13 5q-26 71 -100 71q-81 0 -119 -80q-15 -30 -35 -135q-19 -98 -19 -141q0 -44 25.5 -70t69.5 -26q82 0 118 73q14 34 20 71q0 6 -5 6h-88q-8 0 -7 10l16 92
q1 10 11 10h226q8 0 7 -10l-10 -55q-18 -111 -45 -167q-78 -155 -263 -155q-100 0 -158.5 54.5t-58.5 153.5zM447 762h-111q-9 0 -8 10l18 94q1 10 11 10h110q9 0 8 -10l-17 -94q-1 -10 -11 -10z" />
    <glyph glyph-name="gdotaccent" unicode="&#x121;" horiz-adv-x="521" 
d="M180 -191q-56 0 -101 21.5t-69 57.5q-7 8 2 16l74 62q9 7 16 0q42 -44 89 -44q94 0 114 110l8 44h-1q-43 -58 -128 -58q-68 0 -103 40.5t-35 114.5q0 43 12 105q12 63 31 102q54 115 175 115q87 0 111 -59h1l7 38q1 10 11 10h112q9 0 8 -10l-74 -427
q-22 -127 -83.5 -182.5t-176.5 -55.5zM245 130q51 0 77 54q27 53 27 125q0 73 -63 73q-52 0 -77 -54q-27 -53 -27 -125q0 -73 63 -73zM382 565h-111q-9 0 -8 10l17 95q1 10 11 10h110q9 0 8 -10l-16 -95q-1 -10 -11 -10z" />
    <glyph glyph-name="Gcommaaccent" unicode="&#x122;" horiz-adv-x="601" 
d="M51 197q0 56 22 170q23 120 46 168q77 156 267 156q80 0 135 -40t70 -104q3 -8 -6 -14l-106 -43q-8 -4 -13 5q-26 71 -100 71q-81 0 -119 -80q-15 -30 -35 -135q-19 -98 -19 -141q0 -44 25.5 -70t69.5 -26q82 0 118 73q14 34 20 71q0 6 -5 6h-88q-8 0 -7 10l16 92
q1 10 11 10h226q8 0 7 -10l-10 -55q-18 -111 -45 -167q-78 -155 -263 -155q-100 0 -158.5 54.5t-58.5 153.5zM175 -234q-11 0 -9 11l28 163q1 10 12 10h96q10 0 9 -10l-14 -77q-3 -13 -12 -20l-95 -70q-7 -7 -15 -7z" />
    <glyph glyph-name="gcommaaccent" unicode="&#x123;" horiz-adv-x="521" 
d="M180 -191q-56 0 -101 21.5t-69 57.5q-7 8 2 16l74 62q9 7 16 0q42 -44 89 -44q94 0 114 110l8 44h-1q-43 -58 -128 -58q-68 0 -103 40.5t-35 114.5q0 43 12 105q12 63 31 102q54 115 175 115q87 0 111 -59h1l7 38q1 10 11 10h112q9 0 8 -10l-74 -427
q-22 -127 -83.5 -182.5t-176.5 -55.5zM245 130q51 0 77 54q27 53 27 125q0 73 -63 73q-52 0 -77 -54q-27 -53 -27 -125q0 -73 63 -73zM372 562h-96q-9 0 -8 10l13 77q3 13 13 20l94 69q11 8 16 8q10 0 8 -12l-28 -162q-1 -10 -12 -10z" />
    <glyph glyph-name="Hcircumflex" unicode="&#x124;" horiz-adv-x="634" 
d="M30 10l117 660q1 10 11 10h121q9 0 8 -10l-45 -258q-2 -6 5 -6h214q5 0 7 6l46 258q1 10 11 10h121q10 0 9 -10l-117 -660q-1 -10 -11 -10h-121q-10 0 -9 10l47 265q2 6 -5 6h-215q-6 0 -7 -6l-47 -265q-1 -10 -10 -10h-121q-10 0 -9 10zM566 748h-71q-12 0 -19 10
l-41 57h-2l-61 -57q-10 -10 -23 -10h-80q-5 0 -6 3t3 7l122 131q8 9 20 9h72q12 0 16 -9l76 -131q2 -4 0 -7t-6 -3z" />
    <glyph glyph-name="hcircumflex" unicode="&#x125;" horiz-adv-x="533" 
d="M431 0h-114q-9 0 -8 10l49 278q15 93 -56 93q-35 0 -59 -24.5t-32 -66.5l-49 -280q-1 -10 -10 -10h-115q-10 0 -9 10l117 660q1 10 11 10h115q9 0 8 -10l-42 -232h1q50 57 132 57q75 0 108 -49.5t19 -131.5l-55 -304q-1 -10 -11 -10zM513 748h-71q-12 0 -19 10l-41 57h-2
l-61 -57q-10 -10 -23 -10h-80q-5 0 -6 3t3 7l122 131q7 9 20 9h72q11 0 16 -9l76 -131q6 -10 -6 -10z" />
    <glyph glyph-name="Hbar" unicode="&#x126;" horiz-adv-x="634" 
d="M527 0h-121q-10 0 -9 10l47 265q2 6 -5 6h-215q-6 0 -7 -6l-47 -265q-1 -10 -10 -10h-121q-10 0 -9 10l84 480q2 6 -4 6h-31q-8 0 -7 10l13 71q1 10 11 10h30q6 0 7 6l14 77q1 10 11 10h121q9 0 8 -10l-13 -77q-2 -6 5 -6h215q6 0 7 6l13 77q1 10 11 10h121q10 0 9 -10
l-14 -77q-1 -6 4 -6h31q9 0 8 -10l-13 -71q-1 -10 -11 -10h-31q-5 0 -7 -6l-84 -480q-1 -10 -11 -10zM247 406h214q5 0 7 6l14 78q2 6 -5 6h-215q-6 0 -7 -6l-13 -78q-2 -6 5 -6z" />
    <glyph glyph-name="hbar" unicode="&#x127;" horiz-adv-x="533" 
d="M431 0h-114q-9 0 -8 10l49 278q15 93 -56 93q-35 0 -59 -24.5t-32 -66.5l-49 -280q-1 -10 -10 -10h-115q-10 0 -9 10l93 527q1 6 -5 6h-15q-10 0 -9 10l14 73q1 10 12 10h15q5 0 7 6l5 28q1 10 11 10h115q9 0 8 -10l-5 -28q-2 -6 5 -6h99q8 0 7 -10l-13 -73
q-1 -10 -11 -10h-99q-6 0 -7 -6l-18 -99h1q50 57 132 57q75 0 108 -49.5t19 -131.5l-55 -304q-1 -10 -11 -10z" />
    <glyph glyph-name="Itilde" unicode="&#x128;" horiz-adv-x="266" 
d="M30 10l117 660q1 10 11 10h121q9 0 8 -10l-117 -660q-1 -10 -10 -10h-121q-10 0 -9 10zM296 750q-32 0 -69 22q-29 18 -52 18q-34 0 -75 -32q-3 -3 -6 -1.5t-2 5.5l12 69q2 13 12 20q37 34 79 34q32 0 70 -22q29 -18 52 -18q36 0 74 32q4 3 7 1.5t2 -5.5l-12 -69
q-1 -9 -12 -20q-38 -34 -80 -34z" />
    <glyph glyph-name="itilde" unicode="&#x129;" horiz-adv-x="255" 
d="M152 0h-115q-10 0 -9 10l82 464q1 10 11 10h115q9 0 8 -10l-82 -464q-1 -10 -10 -10zM252 556q-34 0 -69 21q-27 18 -52 18q-35 0 -75 -31q-3 -3 -6 -1.5t-2 4.5l12 69q2 10 12 21q38 33 79 33q35 0 70 -22q29 -18 52 -18q36 0 74 32q4 3 7 1.5t2 -5.5l-12 -69
q-1 -9 -12 -20q-38 -33 -80 -33z" />
    <glyph glyph-name="Imacron" unicode="&#x12a;" horiz-adv-x="266" 
d="M30 10l117 660q1 10 11 10h121q9 0 8 -10l-117 -660q-1 -10 -10 -10h-121q-10 0 -9 10zM371 773h-272q-9 0 -8 10l12 72q1 10 11 10h273q9 0 8 -10l-13 -72q-1 -10 -11 -10z" />
    <glyph glyph-name="imacron" unicode="&#x12b;" horiz-adv-x="255" 
d="M152 0h-115q-10 0 -9 10l82 464q1 10 11 10h115q9 0 8 -10l-82 -464q-1 -10 -10 -10zM329 579h-272q-9 0 -8 10l12 71q1 10 11 10h273q9 0 8 -10l-13 -71q-1 -10 -11 -10z" />
    <glyph glyph-name="Ibreve" unicode="&#x12c;" horiz-adv-x="266" 
d="M30 10l117 660q1 10 11 10h121q9 0 8 -10l-117 -660q-1 -10 -10 -10h-121q-10 0 -9 10zM233 746q-63 0 -97 35.5t-27 92.5q2 11 11 11h55q11 0 12 -10q6 -45 60 -45t78 45q6 10 15 10h54q11 0 8 -11q-12 -54 -60 -92q-46 -36 -109 -36z" />
    <glyph glyph-name="ibreve" unicode="&#x12d;" horiz-adv-x="255" 
d="M152 0h-115q-10 0 -9 10l82 464q1 10 11 10h115q9 0 8 -10l-82 -464q-1 -10 -10 -10zM188 548q-63 0 -97 35.5t-27 92.5q2 11 11 11h55q11 0 12 -10q6 -44 60 -44q55 0 78 44q6 10 15 10h54q11 0 8 -10q-12 -55 -60 -93q-47 -36 -109 -36z" />
    <glyph glyph-name="Iogonek" unicode="&#x12e;" horiz-adv-x="266" 
d="M55 -190q-39 0 -62 20t-23 55q0 56 71 115h-5q-9 0 -8 10l117 660q1 10 11 10h121q9 0 8 -10l-117 -660q-1 -7 -7 -11q-46 -28 -67 -47q-12 -12 -16 -23.5t0 -19t15 -7.5q7 0 25 8q9 4 12 -4l20 -56q3 -8 -6 -13q-44 -27 -89 -27z" />
    <glyph glyph-name="iogonek" unicode="&#x12f;" horiz-adv-x="255" 
d="M249 565h-116q-9 0 -8 10l18 95q1 10 11 10h115q9 0 8 -10l-17 -95q-1 -10 -11 -10zM49 -190q-39 0 -62 20t-23 55q0 61 70 115q-9 0 -8 10l82 464q1 10 11 10h115q9 0 8 -10l-82 -464q-2 -8 -8 -11q-82 -49 -82 -81q0 -16 18 -16q10 0 24 8q10 4 13 -4l19 -56
q3 -8 -5 -13q-43 -27 -90 -27z" />
    <glyph glyph-name="Idot" unicode="&#x130;" horiz-adv-x="266" 
d="M30 10l117 660q1 10 11 10h121q9 0 8 -10l-117 -660q-1 -10 -10 -10h-121q-10 0 -9 10zM288 762h-111q-9 0 -8 10l18 94q1 10 11 10h110q9 0 8 -10l-17 -94q-1 -10 -11 -10z" />
    <glyph glyph-name="dotlessi" unicode="&#x131;" horiz-adv-x="255" 
d="M152 0h-115q-10 0 -9 10l82 464q1 10 11 10h115q9 0 8 -10l-82 -464q-1 -10 -10 -10z" />
    <glyph glyph-name="Jcircumflex" unicode="&#x134;" horiz-adv-x="496" 
d="M1 79q-3 8 5 14l95 64q9 5 13 -2q31 -40 76 -40q94 0 114 119l77 436q1 10 11 10h122q9 0 8 -10l-76 -429q-24 -133 -89 -192.5t-181 -59.5q-58 0 -108 26q-49 27 -67 64zM618 748h-71q-12 0 -19 10l-41 57h-2l-61 -57q-10 -10 -23 -10h-80q-5 0 -6 3t3 7l122 131
q8 9 20 9h72q12 0 16 -9l76 -131q6 -10 -6 -10z" />
    <glyph glyph-name="jcircumflex" unicode="&#x135;" horiz-adv-x="255" 
d="M-42 -180h-32q-10 0 -7 10l17 94q1 10 11 10h16q30 0 43.5 12t19.5 45l85 483q1 10 11 10h115q9 0 8 -10l-85 -482q-18 -99 -62 -136q-44 -36 -140 -36zM334 550h-71q-12 0 -19 10l-41 57h-1l-62 -57q-10 -10 -23 -10h-79q-12 0 -4 10l122 131q9 10 20 10h72q10 0 16 -10
l76 -131q6 -10 -6 -10z" />
    <glyph glyph-name="Kcommaaccent" unicode="&#x136;" horiz-adv-x="619" 
d="M30 10l117 660q1 10 11 10h121q9 0 8 -10l-51 -285l263 286q7 9 18 9h144q13 0 4 -13l-251 -262l141 -393q3 -12 -9 -12h-123q-11 0 -14 9l-99 293l-109 -118l-31 -174q-1 -10 -10 -10h-121q-10 0 -9 10zM195 -234q-11 0 -9 11l28 163q1 10 12 10h96q10 0 9 -10l-14 -77
q-3 -13 -12 -20l-95 -70q-7 -7 -15 -7z" />
    <glyph glyph-name="kcommaaccent" unicode="&#x137;" horiz-adv-x="514" 
d="M454 0h-119q-10 0 -13 10l-73 207l-63 -71l-24 -136q-1 -10 -11 -10h-115q-9 0 -8 10l116 660q1 10 11 10h114q10 0 9 -10l-63 -360l157 165q8 9 20 9h126q5 0 6.5 -3t-1.5 -7l-174 -176l112 -288q4 -10 -7 -10zM153 -234q-11 0 -9 11l28 163q1 10 12 10h96q10 0 9 -10
l-14 -77q-3 -13 -12 -20l-95 -70q-7 -7 -15 -7z" />
    <glyph glyph-name="kgreenlandic" unicode="&#x138;" horiz-adv-x="514" 
d="M454 0h-119q-10 0 -13 10l-73 207l-63 -71l-24 -136q-1 -10 -11 -10h-115q-9 0 -8 10l82 464q1 10 11 10h114q10 0 9 -10l-29 -164l157 165q8 9 20 9h126q5 0 6.5 -3t-1.5 -7l-174 -176l112 -288q4 -10 -7 -10z" />
    <glyph glyph-name="Lacute" unicode="&#x139;" horiz-adv-x="519" 
d="M30 10l117 660q1 10 11 10h121q9 0 8 -10l-95 -539q-2 -6 5 -6h277q9 0 8 -10l-19 -105q-1 -10 -10 -10h-414q-10 0 -9 10zM283 755h-87q-5 0 -6.5 3t1.5 7l109 114q10 10 21 10h115q5 0 6.5 -3t-2.5 -7l-137 -116q-10 -8 -20 -8z" />
    <glyph glyph-name="lacute" unicode="&#x13a;" horiz-adv-x="292" 
d="M229 -6h-50q-77 0 -103.5 35.5t-12.5 115.5l94 525q1 10 10 10h115q10 0 9 -10l-94 -517q-4 -23 3.5 -33.5t29.5 -10.5h19q9 0 8 -10l-16 -95q-1 -10 -12 -10zM280 755h-87q-5 0 -6.5 3t1.5 7l109 114q10 10 21 10h115q5 0 6.5 -3t-2.5 -7l-137 -116q-10 -8 -20 -8z" />
    <glyph glyph-name="Lcommaaccent" unicode="&#x13b;" horiz-adv-x="519" 
d="M30 10l117 660q1 10 11 10h121q9 0 8 -10l-95 -539q-2 -6 5 -6h277q9 0 8 -10l-19 -105q-1 -10 -10 -10h-414q-10 0 -9 10zM180 -234q-11 0 -9 11l28 163q1 10 12 10h96q10 0 9 -10l-14 -77q-3 -13 -12 -20l-95 -70q-7 -7 -15 -7z" />
    <glyph glyph-name="lcommaaccent" unicode="&#x13c;" horiz-adv-x="292" 
d="M217 -6h-50q-77 0 -103.5 35.5t-12.5 115.5l94 525q1 10 10 10h115q10 0 9 -10l-94 -517q-4 -23 3.5 -33.5t29.5 -10.5h19q9 0 8 -10l-16 -95q-1 -10 -12 -10zM43 -234q-11 0 -9 11l28 163q1 10 12 10h96q10 0 9 -10l-14 -77q-3 -13 -12 -20l-95 -70q-7 -7 -15 -7z" />
    <glyph glyph-name="Lcaron" unicode="&#x13d;" horiz-adv-x="519" 
d="M30 10l117 660q1 10 11 10h121q9 0 8 -10l-95 -539q-2 -6 5 -6h277q9 0 8 -10l-19 -105q-1 -10 -10 -10h-414q-10 0 -9 10zM318 491q-10 0 -8 12l29 167q1 10 11 10h91q10 0 9 -10l-15 -82q-1 -10 -11 -20l-90 -69q-10 -8 -16 -8z" />
    <glyph glyph-name="lcaron" unicode="&#x13e;" horiz-adv-x="292" 
d="M229 -6h-50q-77 0 -103.5 35.5t-12.5 115.5l94 525q1 10 10 10h115q10 0 9 -10l-94 -517q-4 -23 3.5 -33.5t29.5 -10.5h19q9 0 8 -10l-16 -95q-1 -10 -12 -10zM312 491q-10 0 -8 12l29 167q1 10 11 10h91q10 0 9 -10l-15 -82q-1 -10 -11 -20l-90 -69q-10 -8 -16 -8z" />
    <glyph glyph-name="Ldot" unicode="&#x13f;" horiz-adv-x="519" 
d="M30 10l117 660q1 10 11 10h121q9 0 8 -10l-95 -539q-2 -6 5 -6h277q9 0 8 -10l-19 -105q-1 -10 -10 -10h-414q-10 0 -9 10zM466 257h-114q-10 0 -9 10l20 115q1 10 11 10h114q10 0 9 -10l-20 -115q-1 -10 -11 -10z" />
    <glyph glyph-name="ldot" unicode="&#x140;" horiz-adv-x="370" 
d="M229 -6h-50q-77 0 -103.5 35.5t-12.5 115.5l94 525q1 10 10 10h115q10 0 9 -10l-94 -517q-4 -23 3.5 -33.5t29.5 -10.5h19q9 0 8 -10l-16 -95q-1 -10 -12 -10zM395 267h-114q-10 0 -9 10l20 115q1 10 11 10h114q10 0 9 -10l-20 -115q-1 -10 -11 -10z" />
    <glyph glyph-name="Lslash" unicode="&#x141;" horiz-adv-x="519" 
d="M361 388l-136 -66l-34 -191q-1 -6 5 -6h277q9 0 8 -10l-19 -105q-1 -10 -10 -10h-414q-10 0 -9 10l42 240l-48 -23q-4 -2 -6.5 -0.5t-1.5 6.5l16 90q2 9 11 14l49 23l55 310q1 10 11 10h121q9 0 8 -10l-42 -238l136 66q4 2 7 0.5t2 -6.5l-17 -90q-1 -9 -11 -14z" />
    <glyph glyph-name="lslash" unicode="&#x142;" horiz-adv-x="292" 
d="M216 -6h-50q-77 0 -103.5 35.5t-12.5 115.5l22 122l-35 -16q-5 -2 -8 -0.5t-2 6.5l15 83q2 10 12 15l37 17l53 298q1 10 10 10h115q10 0 9 -10l-42 -228l64 30q5 2 8 0t2 -6l-15 -83q-2 -12 -12 -16l-66 -31l-33 -183q-4 -23 3.5 -33.5t29.5 -10.5h19q9 0 8 -10l-16 -95
q-1 -10 -12 -10z" />
    <glyph glyph-name="Nacute" unicode="&#x143;" horiz-adv-x="631" 
d="M30 10l117 660q1 10 11 10h114q12 0 15 -10l155 -437h4l78 437q1 10 11 10h108q10 0 9 -10l-117 -660q-1 -10 -11 -10h-115q-10 0 -14 10l-156 437h-5l-77 -437q-1 -10 -10 -10h-108q-10 0 -9 10zM428 755h-87q-5 0 -6.5 3t1.5 7l109 114q10 10 21 10h115q5 0 6.5 -3
t-2.5 -7l-137 -116q-10 -8 -20 -8z" />
    <glyph glyph-name="nacute" unicode="&#x144;" horiz-adv-x="533" 
d="M431 0h-114q-9 0 -8 10l49 278q15 93 -56 93q-35 0 -59 -24.5t-32 -66.5l-49 -280q-1 -10 -10 -10h-115q-10 0 -9 10l82 464q1 10 11 10h115q9 0 8 -10l-7 -36h1q50 57 132 57q75 0 108 -49t19 -131l-55 -305q-1 -10 -11 -10zM339 551h-86q-11 0 -4 10l95 130q7 10 19 10
h111q5 0 6 -3.5t-3 -7.5l-118 -129q-10 -10 -20 -10z" />
    <glyph glyph-name="Ncommaaccent" unicode="&#x145;" horiz-adv-x="631" 
d="M30 10l117 660q1 10 11 10h114q12 0 15 -10l155 -437h4l78 437q1 10 11 10h108q10 0 9 -10l-117 -660q-1 -10 -11 -10h-115q-10 0 -14 10l-156 437h-5l-77 -437q-1 -10 -10 -10h-108q-10 0 -9 10zM214 -234q-11 0 -9 11l28 163q1 10 12 10h96q10 0 9 -10l-14 -77
q-3 -13 -12 -20l-95 -70q-7 -7 -15 -7z" />
    <glyph glyph-name="ncommaaccent" unicode="&#x146;" horiz-adv-x="533" 
d="M431 0h-114q-9 0 -8 10l49 278q15 93 -56 93q-35 0 -59 -24.5t-32 -66.5l-49 -280q-1 -10 -10 -10h-115q-10 0 -9 10l82 464q1 10 11 10h115q9 0 8 -10l-7 -36h1q50 57 132 57q75 0 108 -49t19 -131l-55 -305q-1 -10 -11 -10zM155 -234q-11 0 -9 11l28 163q1 10 12 10h96
q10 0 9 -10l-14 -77q-3 -13 -12 -20l-95 -70q-7 -7 -15 -7z" />
    <glyph glyph-name="Ncaron" unicode="&#x147;" horiz-adv-x="631" 
d="M444 744h-72q-12 0 -16 9l-76 131q-2 4 0 7t6 3h71q12 0 19 -10l41 -57h1l62 57q10 10 23 10h80q5 0 6 -3t-3 -7l-122 -131q-8 -9 -20 -9zM30 10l117 660q1 10 11 10h114q12 0 15 -10l155 -437h4l78 437q1 10 11 10h108q10 0 9 -10l-117 -660q-1 -10 -11 -10h-115
q-10 0 -14 10l-156 437h-5l-77 -437q-1 -10 -10 -10h-108q-10 0 -9 10z" />
    <glyph glyph-name="ncaron" unicode="&#x148;" horiz-adv-x="533" 
d="M353 548h-72q-10 0 -16 10l-76 131q-6 10 6 10h71q12 0 19 -10l41 -57h1l62 57q10 10 23 10h79q12 0 4 -10l-122 -131q-9 -10 -20 -10zM431 0h-114q-9 0 -8 10l49 278q15 93 -56 93q-35 0 -59 -24.5t-32 -66.5l-49 -280q-1 -10 -10 -10h-115q-10 0 -9 10l82 464
q1 10 11 10h115q9 0 8 -10l-7 -36h1q50 57 132 57q75 0 108 -49t19 -131l-55 -305q-1 -10 -11 -10z" />
    <glyph glyph-name="Eng" unicode="&#x14a;" horiz-adv-x="631" 
d="M307 -184h-32q-10 0 -7 10l18 101q1 10 11 10h17q69 0 84 60v5l-159 445h-5l-77 -437q-1 -10 -10 -10h-108q-10 0 -9 10l117 660q1 10 11 10h114q12 0 15 -10l155 -437h4l78 437q1 10 11 10h108q10 0 9 -10l-116 -655q-36 -199 -229 -199z" />
    <glyph glyph-name="eng" unicode="&#x14b;" horiz-adv-x="533" 
d="M238 -180h-31q-9 0 -8 10l17 94q1 10 11 10h17q30 0 43 11.5t18 43.5l53 299q15 93 -56 93q-35 0 -59 -24.5t-32 -66.5l-49 -280q-1 -10 -10 -10h-115q-10 0 -9 10l82 464q1 10 11 10h115q9 0 8 -10l-7 -36h1q50 57 132 57q75 0 108 -48.5t19 -130.5l-57 -324
q-16 -90 -64.5 -131t-137.5 -41z" />
    <glyph glyph-name="Omacron" unicode="&#x14c;" horiz-adv-x="602" 
d="M266 -11q-100 0 -157.5 54.5t-57.5 153.5q0 56 22 170q23 120 46 168q77 156 264 156q100 0 157.5 -54.5t57.5 -153.5q0 -55 -22 -171q-23 -120 -46 -167q-76 -156 -264 -156zM285 114q79 0 118 80q16 31 34 134q19 98 19 142q0 45 -24 70.5t-68 25.5q-79 0 -117 -80
q-16 -33 -36 -134q-18 -101 -18 -142q0 -45 24.5 -70.5t67.5 -25.5zM532 773h-272q-9 0 -8 10l12 72q1 10 11 10h273q9 0 8 -10l-13 -72q-1 -10 -11 -10z" />
    <glyph glyph-name="omacron" unicode="&#x14d;" horiz-adv-x="508" 
d="M217 -11q-84 0 -133 46.5t-49 127.5q0 47 12 105q13 61 31 98q63 129 224 129q84 0 133 -46.5t49 -127.5q0 -47 -12 -105q-13 -61 -31 -98q-63 -129 -224 -129zM235 102q55 0 82 55q11 24 22 74q10 47 10 77q0 74 -65 74q-55 0 -82 -55q-11 -24 -22 -75q-10 -47 -10 -76
q0 -74 65 -74zM446 579h-272q-9 0 -8 10l12 71q1 10 11 10h273q9 0 8 -10l-13 -71q-1 -10 -11 -10z" />
    <glyph glyph-name="Obreve" unicode="&#x14e;" horiz-adv-x="602" 
d="M266 -11q-100 0 -157.5 54.5t-57.5 153.5q0 56 22 170q23 120 46 168q77 156 264 156q100 0 157.5 -54.5t57.5 -153.5q0 -55 -22 -171q-23 -120 -46 -167q-76 -156 -264 -156zM285 114q79 0 118 80q16 31 34 134q19 98 19 142q0 45 -24 70.5t-68 25.5q-79 0 -117 -80
q-16 -33 -36 -134q-18 -101 -18 -142q0 -45 24.5 -70.5t67.5 -25.5zM390 746q-63 0 -97 35.5t-27 92.5q2 11 11 11h55q11 0 12 -10q6 -45 60 -45t78 45q6 10 15 10h54q11 0 8 -11q-12 -54 -60 -92q-47 -36 -109 -36z" />
    <glyph glyph-name="obreve" unicode="&#x14f;" horiz-adv-x="508" 
d="M217 -11q-84 0 -133 46.5t-49 127.5q0 47 12 105q13 61 31 98q63 129 224 129q84 0 133 -46.5t49 -127.5q0 -47 -12 -105q-13 -61 -31 -98q-63 -129 -224 -129zM235 102q55 0 82 55q11 24 22 74q10 47 10 77q0 74 -65 74q-55 0 -82 -55q-11 -24 -22 -75q-10 -47 -10 -76
q0 -74 65 -74zM310 548q-63 0 -97 35.5t-27 92.5q2 11 11 11h55q11 0 12 -10q6 -44 60 -44q55 0 78 44q6 10 15 10h54q11 0 8 -10q-12 -55 -60 -93q-47 -36 -109 -36z" />
    <glyph glyph-name="Ohungarumlaut" unicode="&#x150;" horiz-adv-x="602" 
d="M266 -11q-100 0 -157.5 54.5t-57.5 153.5q0 56 22 170q23 120 46 168q77 156 264 156q100 0 157.5 -54.5t57.5 -153.5q0 -55 -22 -171q-23 -120 -46 -167q-76 -156 -264 -156zM285 114q79 0 118 80q16 31 34 134q19 98 19 142q0 45 -24 70.5t-68 25.5q-79 0 -117 -80
q-16 -33 -36 -134q-18 -101 -18 -142q0 -45 24.5 -70.5t67.5 -25.5zM508 756h-74q-11 0 -4 10l88 112q6 10 18 10h90q4 0 5.5 -3t-1.5 -7l-100 -112q-10 -10 -22 -10zM344 756h-74q-12 0 -5 10l88 112q7 10 18 10h91q4 0 5.5 -3t-1.5 -7l-100 -112q-10 -10 -22 -10z" />
    <glyph glyph-name="ohungarumlaut" unicode="&#x151;" horiz-adv-x="508" 
d="M423 550h-75q-12 0 -5 10l88 130q7 10 18 10h90q12 0 4 -10l-101 -130q-6 -10 -19 -10zM259 550h-75q-12 0 -5 10l88 130q7 10 18 10h90q12 0 4 -10l-101 -130q-6 -10 -19 -10zM217 -11q-84 0 -133 46.5t-49 127.5q0 47 12 105q13 61 31 98q63 129 224 129
q84 0 133 -46.5t49 -127.5q0 -47 -12 -105q-13 -61 -31 -98q-63 -129 -224 -129zM235 102q55 0 82 55q11 24 22 74q10 47 10 77q0 74 -65 74q-55 0 -82 -55q-11 -24 -22 -75q-10 -47 -10 -76q0 -74 65 -74z" />
    <glyph glyph-name="OE" unicode="&#x152;" horiz-adv-x="895" 
d="M807 0h-418q-10 0 -9 10l5 25h-1q-52 -46 -132 -46q-95 0 -148 54t-53 154q0 56 22 170q23 122 47 168q76 156 254 156q81 0 118 -46h1l4 25q1 10 11 10h418q10 0 9 -10l-19 -102q-1 -10 -11 -10h-282q-6 0 -6 -6l-25 -143q-2 -6 4 -6h235q9 0 8 -10l-18 -100
q-1 -10 -12 -10h-235q-4 0 -6 -6l-27 -149q0 -6 5 -6h282q9 0 8 -10l-18 -102q-1 -10 -11 -10zM285 114q80 0 118 80q16 31 34 134q19 98 19 142q0 45 -24 70.5t-67 25.5q-80 0 -118 -80q-15 -29 -35 -134q-18 -101 -18 -142q0 -45 24 -70.5t67 -25.5z" />
    <glyph glyph-name="oe" unicode="&#x153;" horiz-adv-x="803" 
d="M523 -11q-101 0 -146 62h-2q-64 -62 -158 -62q-84 0 -133 46.5t-49 127.5q0 47 12 105q13 61 31 98q63 129 224 129q96 0 139 -61h2q60 61 158 61q80 0 129.5 -45t49.5 -125q0 -44 -13 -113q-1 -10 -12 -10h-283q-6 0 -7 -6q-1 -3 -1 -15q0 -84 87 -84q57 0 116 47
q7 8 15 0l49 -59q7 -7 -1 -16q-88 -80 -207 -80zM496 338q-8 -15 -12 -40q-1 -7 4 -7h156q6 0 7 6q3 15 3 27q0 68 -70 68q-62 0 -88 -54zM235 102q55 0 82 55q11 24 22 74q10 47 10 77q0 74 -65 74q-55 0 -82 -55q-11 -24 -22 -75q-10 -47 -10 -76q0 -74 65 -74z" />
    <glyph glyph-name="Racute" unicode="&#x154;" horiz-adv-x="600" 
d="M520 0h-119q-10 0 -13 10l-69 252h-98q-7 0 -7 -6l-44 -246q-1 -10 -10 -10h-121q-10 0 -9 10l117 660q1 10 11 10h258q89 0 140 -46t51 -122q0 -80 -42.5 -141.5t-114.5 -89.5l78 -269q2 -4 -0.5 -8t-7.5 -4zM242 382h115q47 1 77.5 30.5t30.5 78.5q0 31 -21 49t-56 18
h-115q-5 0 -7 -6l-29 -164q-1 -6 5 -6zM397 755h-87q-5 0 -6.5 3t1.5 7l109 114q10 10 21 10h115q5 0 6.5 -3t-2.5 -7l-137 -116q-10 -8 -20 -8z" />
    <glyph glyph-name="racute" unicode="&#x155;" horiz-adv-x="412" 
d="M152 0h-115q-10 0 -9 10l82 464q1 10 11 10h115q9 0 8 -10l-8 -43h1q46 64 130 64q51 0 77 -29q6 -7 1 -14l-68 -97q-7 -7 -14 -2q-31 22 -62 22q-75 0 -94 -109l-45 -256q-1 -10 -10 -10zM303 551h-86q-11 0 -4 10l95 130q7 10 19 10h111q5 0 6 -3.5t-3 -7.5l-118 -129
q-10 -10 -20 -10z" />
    <glyph glyph-name="Rcommaaccent" unicode="&#x156;" horiz-adv-x="600" 
d="M520 0h-119q-10 0 -13 10l-69 252h-98q-7 0 -7 -6l-44 -246q-1 -10 -10 -10h-121q-10 0 -9 10l117 660q1 10 11 10h258q89 0 140 -46t51 -122q0 -80 -42.5 -141.5t-114.5 -89.5l78 -269q2 -4 -0.5 -8t-7.5 -4zM242 382h115q47 1 77.5 30.5t30.5 78.5q0 31 -21 49t-56 18
h-115q-5 0 -7 -6l-29 -164q-1 -6 5 -6zM186 -234q-11 0 -9 11l28 163q1 10 12 10h96q10 0 9 -10l-14 -77q-3 -13 -12 -20l-95 -70q-7 -7 -15 -7z" />
    <glyph glyph-name="rcommaaccent" unicode="&#x157;" horiz-adv-x="412" 
d="M152 0h-115q-10 0 -9 10l82 464q1 10 11 10h115q9 0 8 -10l-8 -43h1q46 64 130 64q51 0 77 -29q6 -7 1 -14l-68 -97q-7 -7 -14 -2q-31 22 -62 22q-75 0 -94 -109l-45 -256q-1 -10 -10 -10zM8 -234q-11 0 -9 11l28 163q1 10 12 10h96q10 0 9 -10l-14 -77q-3 -13 -12 -20
l-95 -70q-7 -7 -15 -7z" />
    <glyph glyph-name="Rcaron" unicode="&#x158;" horiz-adv-x="600" 
d="M398 744h-72q-12 0 -16 9l-76 131q-2 4 0 7t6 3h71q12 0 19 -10l41 -57h1l62 57q10 10 23 10h80q5 0 6 -3t-3 -7l-122 -131q-8 -9 -20 -9zM520 0h-119q-10 0 -13 10l-69 252h-98q-7 0 -7 -6l-44 -246q-1 -10 -10 -10h-121q-10 0 -9 10l117 660q1 10 11 10h258
q89 0 140 -46t51 -122q0 -80 -42.5 -141.5t-114.5 -89.5l78 -269q2 -4 -0.5 -8t-7.5 -4zM242 382h115q47 1 77.5 30.5t30.5 78.5q0 31 -21 49t-56 18h-115q-5 0 -7 -6l-29 -164q-1 -6 5 -6z" />
    <glyph glyph-name="rcaron" unicode="&#x159;" horiz-adv-x="412" 
d="M323 548h-72q-10 0 -16 10l-76 131q-6 10 6 10h71q12 0 19 -10l41 -57h1l62 57q10 10 23 10h79q12 0 4 -10l-122 -131q-9 -10 -20 -10zM152 0h-115q-10 0 -9 10l82 464q1 10 11 10h115q9 0 8 -10l-8 -43h1q46 64 130 64q51 0 77 -29q6 -7 1 -14l-68 -97q-7 -7 -14 -2
q-31 22 -62 22q-75 0 -94 -109l-45 -256q-1 -10 -10 -10z" />
    <glyph glyph-name="Sacute" unicode="&#x15a;" horiz-adv-x="574" 
d="M256 -11q-73 0 -142 26q-69 28 -100 66q-6 9 1 16l86 82q8 8 14 1q64 -67 160 -67q54 0 89.5 29.5t35.5 72.5q0 27 -20 42t-67 22l-33 5q-177 25 -177 170q0 107 74 172q76 65 193 65q132 0 212 -72q8 -5 0 -15l-71 -82q-8 -8 -14 -3q-65 49 -138 49q-47 0 -78 -27
t-31 -66q0 -27 20 -42.5t67 -22.5l33 -5q178 -27 178 -163q0 -118 -81 -185q-82 -68 -211 -68zM401 755h-87q-5 0 -6.5 3t1.5 7l109 114q10 10 21 10h115q5 0 6.5 -3t-2.5 -7l-137 -116q-10 -8 -20 -8z" />
    <glyph glyph-name="sacute" unicode="&#x15b;" horiz-adv-x="487" 
d="M219 -11q-131 0 -204 76q-6 6 2 14l72 67q8 6 14 0q59 -51 134 -51q37 0 61 17t24 41q0 33 -57 37l-51 5q-63 7 -97.5 38.5t-34.5 82.5q0 84 60 131q61 48 158 48q53 0 101 -17t78 -44q7 -6 -1 -14l-64 -65q-6 -7 -14 -2q-53 38 -117 38q-32 0 -51.5 -14.5t-19.5 -35.5
q0 -16 12 -24t43 -12l50 -5q136 -13 136 -120q0 -87 -63 -139t-171 -52zM336 551h-86q-11 0 -4 10l95 130q7 10 19 10h111q5 0 6 -3.5t-3 -7.5l-118 -129q-10 -10 -20 -10z" />
    <glyph glyph-name="Scircumflex" unicode="&#x15c;" horiz-adv-x="574" 
d="M256 -11q-73 0 -142 26q-69 28 -100 66q-6 9 1 16l86 82q8 8 14 1q64 -67 160 -67q54 0 89.5 29.5t35.5 72.5q0 27 -20 42t-67 22l-33 5q-177 25 -177 170q0 107 74 172q76 65 193 65q132 0 212 -72q8 -5 0 -15l-71 -82q-8 -8 -14 -3q-65 49 -138 49q-47 0 -78 -27
t-31 -66q0 -27 20 -42.5t67 -22.5l33 -5q178 -27 178 -163q0 -118 -81 -185q-82 -68 -211 -68zM526 748h-71q-12 0 -19 10l-41 57h-2l-61 -57q-10 -10 -23 -10h-80q-5 0 -6 3t3 7l122 131q8 9 20 9h72q12 0 16 -9l76 -131q2 -4 0 -7t-6 -3z" />
    <glyph glyph-name="scircumflex" unicode="&#x15d;" horiz-adv-x="487" 
d="M450 550h-71q-12 0 -19 10l-41 57h-1l-62 -57q-10 -10 -23 -10h-79q-4 0 -5.5 3t1.5 7l122 131q9 10 20 10h72q10 0 16 -10l76 -131q2 -4 0 -7t-6 -3zM219 -11q-131 0 -204 76q-6 6 2 14l72 67q8 6 14 0q59 -51 134 -51q37 0 61 17t24 41q0 33 -57 37l-51 5
q-63 7 -97.5 38.5t-34.5 82.5q0 84 60 131q61 48 158 48q53 0 101 -17t78 -44q7 -6 -1 -14l-64 -65q-6 -7 -14 -2q-53 38 -117 38q-32 0 -51.5 -14.5t-19.5 -35.5q0 -16 12 -24t43 -12l50 -5q136 -13 136 -120q0 -87 -63 -139t-171 -52z" />
    <glyph glyph-name="Scedilla" unicode="&#x15e;" horiz-adv-x="574" 
d="M230 -159h-91q-9 0 -5 10l80 140q-62 7 -117 32t-83 58q-6 9 1 16l86 82q8 8 14 1q64 -67 160 -67q54 0 89.5 29.5t35.5 72.5q0 27 -20 42t-67 22l-33 5q-177 25 -177 170q0 107 74 172q76 65 193 65q132 0 212 -72q8 -5 0 -15l-71 -82q-8 -8 -14 -3q-65 49 -138 49
q-47 0 -78 -27t-31 -66q0 -27 20 -42.5t67 -22.5l33 -5q178 -27 178 -163q0 -102 -62.5 -167.5t-169.5 -80.5l-68 -143q-4 -10 -18 -10z" />
    <glyph glyph-name="scedilla" unicode="&#x15f;" horiz-adv-x="487" 
d="M194 -159h-91q-9 0 -5 10l80 140q-104 12 -163 74q-6 6 2 14l72 67q8 6 14 0q59 -51 134 -51q37 0 61 17t24 41q0 33 -57 37l-51 5q-63 7 -97.5 38.5t-34.5 82.5q0 84 60 132q61 48 158 48q53 0 101 -17t78 -44q7 -7 -1 -14l-64 -65q-6 -7 -14 -2q-53 38 -117 38
q-32 0 -51.5 -14.5t-19.5 -36.5q0 -16 12 -24t43 -12l50 -5q136 -13 136 -120q0 -74 -45.5 -123.5t-127.5 -62.5l-68 -143q-4 -10 -18 -10z" />
    <glyph glyph-name="Scaron" unicode="&#x160;" horiz-adv-x="574" 
d="M256 -11q-73 0 -142 26q-69 28 -100 66q-6 9 1 16l86 82q8 8 14 1q64 -67 160 -67q54 0 89.5 29.5t35.5 72.5q0 27 -20 42t-67 22l-33 5q-177 25 -177 170q0 107 74 172q76 65 193 65q132 0 212 -72q8 -5 0 -15l-71 -82q-8 -8 -14 -3q-65 49 -138 49q-47 0 -78 -27
t-31 -66q0 -27 20 -42.5t67 -22.5l33 -5q178 -27 178 -163q0 -118 -81 -185q-82 -68 -211 -68zM406 744h-72q-12 0 -16 9l-76 131q-2 4 0 7t6 3h71q12 0 19 -10l41 -57h1l62 57q10 10 23 10h80q5 0 6 -3t-3 -7l-122 -131q-8 -9 -20 -9z" />
    <glyph glyph-name="scaron" unicode="&#x161;" horiz-adv-x="487" 
d="M339 548h-72q-10 0 -16 10l-76 131q-6 10 6 10h71q12 0 19 -10l41 -57h1l62 57q10 10 23 10h79q12 0 4 -10l-122 -131q-9 -10 -20 -10zM219 -11q-131 0 -204 76q-6 6 2 14l72 67q8 6 14 0q59 -51 134 -51q37 0 61 17t24 41q0 33 -57 37l-51 5q-63 7 -97.5 38.5
t-34.5 82.5q0 84 60 131q61 48 158 48q53 0 101 -17t78 -44q7 -6 -1 -14l-64 -65q-6 -7 -14 -2q-53 38 -117 38q-32 0 -51.5 -14.5t-19.5 -35.5q0 -16 12 -24t43 -12l50 -5q136 -13 136 -120q0 -87 -63 -139t-171 -52z" />
    <glyph glyph-name="uni0162" unicode="&#x162;" horiz-adv-x="538" 
d="M150 -234q-11 0 -9 11l28 163q1 10 12 10h96q10 0 9 -10l-14 -77q-3 -13 -12 -20l-95 -70q-7 -7 -15 -7zM295 0h-121q-9 0 -8 10l95 539q1 6 -5 6h-166q-10 0 -9 10l19 105q1 10 11 10h485q10 0 9 -10l-19 -105q-1 -10 -11 -10h-167q-6 0 -7 -6l-95 -539q-1 -10 -11 -10z
" />
    <glyph glyph-name="uni0163" unicode="&#x163;" horiz-adv-x="319" 
d="M58 -234q-11 0 -9 11l28 163q1 10 12 10h96q10 0 9 -10l-14 -77q-3 -13 -12 -20l-95 -70q-7 -7 -15 -7zM234 -6h-50q-80 0 -108 38t-13 122l42 226q1 6 -5 6h-30q-8 0 -7 10l14 78q1 10 11 10h30q6 0 7 6l23 130q1 10 12 10h113q9 0 8 -10l-23 -130q-2 -6 4 -6h61
q9 0 8 -10l-13 -78q-1 -10 -12 -10h-62q-4 0 -6 -6l-41 -221q-5 -28 2.5 -39t32.5 -11h22q9 0 8 -10l-17 -95q-1 -10 -11 -10z" />
    <glyph glyph-name="Tcaron" unicode="&#x164;" horiz-adv-x="538" 
d="M391 744h-72q-11 0 -16 9l-76 131q-6 10 6 10h71q12 0 19 -10l41 -57h1l62 57q10 10 23 10h80q5 0 6 -3t-3 -7l-122 -131q-7 -9 -20 -9zM295 0h-121q-9 0 -8 10l95 539q1 6 -5 6h-166q-10 0 -9 10l19 105q1 10 11 10h485q10 0 9 -10l-19 -105q-1 -10 -11 -10h-167
q-6 0 -7 -6l-95 -539q-1 -10 -11 -10z" />
    <glyph glyph-name="tcaron" unicode="&#x165;" horiz-adv-x="319" 
d="M247 -6h-50q-80 0 -108 38t-13 122l42 226q2 6 -5 6h-30q-8 0 -7 10l14 78q1 10 11 10h30q5 0 7 6l23 130q1 10 12 10h113q9 0 8 -10l-23 -130q-1 -6 4 -6h61q9 0 8 -10l-13 -78q-1 -10 -12 -10h-62q-5 0 -6 -6l-41 -221q-5 -28 2.5 -39t32.5 -11h22q9 0 8 -10l-17 -95
q-1 -10 -11 -10zM375 491q-9 0 -8 12l29 167q1 10 11 10h91q10 0 9 -10l-15 -82q-2 -10 -11 -20l-90 -69q-10 -8 -16 -8z" />
    <glyph glyph-name="Tbar" unicode="&#x166;" horiz-adv-x="538" 
d="M295 0h-121q-9 0 -8 10l53 304q1 6 -5 6h-84q-9 0 -8 10l16 88q1 10 11 10h85q6 0 7 6l20 115q1 6 -5 6h-166q-10 0 -9 10l19 105q1 10 11 10h485q10 0 9 -10l-19 -105q-1 -10 -11 -10h-167q-6 0 -7 -6l-20 -115q-1 -6 5 -6h85q9 0 8 -10l-16 -88q-1 -10 -11 -10h-85
q-5 0 -7 -6l-54 -304q-1 -10 -11 -10z" />
    <glyph glyph-name="tbar" unicode="&#x167;" horiz-adv-x="319" 
d="M234 -6h-50q-81 0 -108.5 38t-12.5 122l16 83q1 6 -5 6h-20q-9 0 -8 10l11 64q1 10 12 10h20q5 0 7 6l9 47q1 6 -5 6h-30q-8 0 -7 10l14 78q1 10 11 10h30q6 0 7 6l23 130q1 10 12 10h113q9 0 8 -10l-23 -130q-2 -6 4 -6h61q9 0 8 -10l-13 -78q-1 -10 -12 -10h-62
q-4 0 -6 -6l-9 -47q-1 -6 5 -6h49q8 0 7 -10l-10 -64q-1 -10 -11 -10h-51q-6 0 -7 -6l-14 -78q-5 -28 2.5 -39t32.5 -11h22q9 0 8 -10l-17 -95q-1 -10 -11 -10z" />
    <glyph glyph-name="Utilde" unicode="&#x168;" horiz-adv-x="619" 
d="M308 -11q-120 0 -180 69q-60 71 -38 195l74 417q1 10 10 10h121q10 0 9 -10l-75 -425q-11 -62 13.5 -96.5t77.5 -34.5t84.5 30.5t43.5 100.5l76 425q1 10 11 10h120q10 0 9 -10l-76 -427q-24 -135 -92 -194.5t-188 -59.5zM491 750q-32 0 -69 22q-28 18 -52 18
q-34 0 -75 -32q-3 -3 -6 -1.5t-2 5.5l12 69q2 13 12 20q37 34 79 34q33 0 70 -22q29 -18 52 -18q36 0 74 32q4 3 7 1.5t2 -5.5l-12 -69q-1 -9 -12 -20q-38 -34 -80 -34z" />
    <glyph glyph-name="utilde" unicode="&#x169;" horiz-adv-x="529" 
d="M129 484h114q10 0 9 -10l-49 -279q-8 -43 6 -67.5t49 -24.5t58.5 24t31.5 67l49 280q1 10 10 10h115q10 0 9 -10l-83 -464q-1 -10 -11 -10h-114q-9 0 -8 10l6 36h-1q-52 -57 -130 -57q-75 0 -107.5 48.5t-17.5 131.5l54 305q1 10 10 10zM401 556q-35 0 -69 21
q-27 18 -52 18q-35 0 -75 -31q-3 -3 -6 -1.5t-2 4.5l12 69q1 10 12 21q37 33 79 33q35 0 70 -22q29 -18 52 -18q36 0 74 32q4 3 7 1.5t2 -5.5l-12 -69q-1 -9 -12 -20q-37 -33 -80 -33z" />
    <glyph glyph-name="Umacron" unicode="&#x16a;" horiz-adv-x="619" 
d="M308 -11q-120 0 -180 69q-60 71 -38 195l74 417q1 10 10 10h121q10 0 9 -10l-75 -425q-11 -62 13.5 -96.5t77.5 -34.5t84.5 30.5t43.5 100.5l76 425q1 10 11 10h120q10 0 9 -10l-76 -427q-24 -135 -92 -194.5t-188 -59.5zM572 773h-272q-9 0 -8 10l12 72q1 10 11 10h273
q9 0 8 -10l-13 -72q-1 -10 -11 -10z" />
    <glyph glyph-name="umacron" unicode="&#x16b;" horiz-adv-x="529" 
d="M129 484h114q10 0 9 -10l-49 -279q-8 -43 6 -67.5t49 -24.5t58.5 24t31.5 67l49 280q1 10 10 10h115q10 0 9 -10l-83 -464q-1 -10 -11 -10h-114q-9 0 -8 10l6 36h-1q-52 -57 -130 -57q-75 0 -107.5 48.5t-17.5 131.5l54 305q1 10 10 10zM473 579h-272q-9 0 -8 10l12 71
q1 10 11 10h273q9 0 8 -10l-13 -71q-1 -10 -11 -10z" />
    <glyph glyph-name="Ubreve" unicode="&#x16c;" horiz-adv-x="619" 
d="M308 -11q-120 0 -180 69q-60 71 -38 195l74 417q1 10 10 10h121q10 0 9 -10l-75 -425q-11 -62 13.5 -96.5t77.5 -34.5t84.5 30.5t43.5 100.5l76 425q1 10 11 10h120q10 0 9 -10l-76 -427q-24 -135 -92 -194.5t-188 -59.5zM429 746q-63 0 -97 35.5t-27 92.5q2 11 11 11h55
q11 0 12 -10q6 -45 60 -45t78 45q6 10 15 10h54q11 0 8 -11q-12 -54 -60 -92q-46 -36 -109 -36z" />
    <glyph glyph-name="ubreve" unicode="&#x16d;" horiz-adv-x="529" 
d="M129 484h114q10 0 9 -10l-49 -279q-8 -43 6 -67.5t49 -24.5t58.5 24t31.5 67l49 280q1 10 10 10h115q10 0 9 -10l-83 -464q-1 -10 -11 -10h-114q-9 0 -8 10l6 36h-1q-52 -57 -130 -57q-75 0 -107.5 48.5t-17.5 131.5l54 305q1 10 10 10zM333 548q-63 0 -97 35.5t-27 92.5
q2 11 11 11h55q11 0 12 -10q6 -44 60 -44q55 0 78 44q6 10 15 10h54q11 0 8 -10q-12 -55 -60 -93q-46 -36 -109 -36z" />
    <glyph glyph-name="Uring" unicode="&#x16e;" horiz-adv-x="619" 
d="M308 -11q-120 0 -180 69q-60 71 -38 195l74 417q1 10 10 10h121q10 0 9 -10l-75 -425q-11 -62 13.5 -96.5t77.5 -34.5t84.5 30.5t43.5 100.5l76 425q1 10 11 10h120q10 0 9 -10l-76 -427q-24 -135 -92 -194.5t-188 -59.5zM424 714q-39 0 -63.5 23.5t-24.5 61.5
q0 52 35 88.5t88 36.5q39 0 63 -23t24 -61q0 -53 -34.5 -89.5t-87.5 -36.5zM433 770q22 0 38 17t16 43q0 17 -10 27.5t-27 10.5q-23 0 -38.5 -17t-15.5 -43q0 -17 10 -27.5t27 -10.5z" />
    <glyph glyph-name="uring" unicode="&#x16f;" horiz-adv-x="529" 
d="M129 484h114q10 0 9 -10l-49 -279q-8 -43 6 -67.5t49 -24.5t58.5 24t31.5 67l49 280q1 10 10 10h115q10 0 9 -10l-83 -464q-1 -10 -11 -10h-114q-9 0 -8 10l6 36h-1q-52 -57 -130 -57q-75 0 -107.5 48.5t-17.5 131.5l54 305q1 10 10 10zM333 525q-39 0 -63.5 23.5
t-24.5 61.5q0 51 35 89q34 37 88 37q39 0 63.5 -23.5t24.5 -61.5q0 -51 -35 -89q-34 -37 -88 -37zM342 581q23 0 38.5 17t15.5 43q0 17 -10 28t-27 11q-22 0 -38 -17t-16 -43q0 -17 10 -28t27 -11z" />
    <glyph glyph-name="Uhungarumlaut" unicode="&#x170;" horiz-adv-x="619" 
d="M308 -11q-120 0 -180 69q-60 71 -38 195l74 417q1 10 10 10h121q10 0 9 -10l-75 -425q-11 -62 13.5 -96.5t77.5 -34.5t84.5 30.5t43.5 100.5l76 425q1 10 11 10h120q10 0 9 -10l-76 -427q-24 -135 -92 -194.5t-188 -59.5zM539 756h-74q-11 0 -4 10l88 112q6 10 18 10h90
q12 0 4 -10l-100 -112q-10 -10 -22 -10zM375 756h-74q-12 0 -5 10l88 112q7 10 18 10h91q12 0 4 -10l-100 -112q-10 -10 -22 -10z" />
    <glyph glyph-name="uhungarumlaut" unicode="&#x171;" horiz-adv-x="529" 
d="M129 484h114q10 0 9 -10l-49 -279q-8 -43 6 -67.5t49 -24.5t58.5 24t31.5 67l49 280q1 10 10 10h115q10 0 9 -10l-83 -464q-1 -10 -11 -10h-114q-9 0 -8 10l6 36h-1q-52 -57 -130 -57q-75 0 -107.5 48.5t-17.5 131.5l54 305q1 10 10 10zM457 550h-75q-12 0 -5 10l88 130
q7 10 18 10h90q4 0 5.5 -3t-1.5 -7l-101 -130q-6 -10 -19 -10zM293 550h-75q-12 0 -5 10l88 130q7 10 18 10h90q4 0 5.5 -3t-1.5 -7l-101 -130q-6 -10 -19 -10z" />
    <glyph glyph-name="Uogonek" unicode="&#x172;" horiz-adv-x="620" 
d="M269 -190q-39 0 -62 20t-23 55q0 57 60 110q-92 16 -134 84t-23 174l74 417q1 10 10 10h121q10 0 9 -10l-75 -425q-11 -62 14 -96.5t77 -34.5q53 0 85 30.5t44 100.5l75 425q1 10 11 10h120q10 0 9 -10l-76 -427q-21 -120 -77 -180t-153 -71q-65 -44 -65 -74
q0 -16 17 -16q7 0 25 8q9 4 12 -4l20 -56q3 -8 -5 -13q-45 -27 -90 -27z" />
    <glyph glyph-name="uogonek" unicode="&#x173;" horiz-adv-x="529" 
d="M323 -190q-39 0 -62 20t-23 55q0 61 82 115q-7 1 -5 10l6 36h-1q-52 -57 -130 -57q-75 0 -107.5 48.5t-17.5 131.5l54 305q1 10 10 10h114q10 0 9 -10l-49 -279q-8 -43 6 -67.5t49 -24.5t58.5 24t31.5 67l49 280q1 10 10 10h115q10 0 9 -10l-83 -463q-2 -8 -7 -11
q-97 -46 -97 -82q0 -16 17 -16q7 0 25 8q8 5 12 -4l19 -56q4 -8 -5 -13q-44 -27 -89 -27z" />
    <glyph glyph-name="Wcircumflex" unicode="&#x174;" horiz-adv-x="833" 
d="M605 0h-97q-10 0 -11 10l-38 434h-2l-192 -434q-4 -10 -14 -10h-97q-9 0 -10 10l-53 660q0 10 8 10h120q11 0 11 -10l17 -439h2l190 439q4 10 14 10h83q10 0 11 -10l38 -439h2l170 439q3 10 12 10h129q10 0 7 -10l-288 -660q-3 -10 -12 -10zM657 748h-71q-12 0 -19 10
l-41 57h-2l-61 -57q-10 -10 -23 -10h-80q-5 0 -6 3t3 7l122 131q7 9 20 9h72q11 0 16 -9l76 -131q6 -10 -6 -10z" />
    <glyph glyph-name="wcircumflex" unicode="&#x175;" horiz-adv-x="735" 
d="M520 0h-94q-10 0 -10 10l-30 290h-2l-135 -290q-4 -10 -13 -10h-94q-10 0 -10 10l-68 464q0 10 10 10h110q11 0 12 -10l25 -297h2l134 297q4 10 13 10h83q11 0 12 -10l30 -297h1l127 297q4 10 14 10h121q10 0 6 -10l-231 -464q-4 -10 -13 -10zM573 550h-71q-12 0 -19 10
l-41 57h-1l-62 -57q-10 -10 -23 -10h-79q-12 0 -4 10l122 131q9 10 20 10h72q10 0 16 -10l76 -131q6 -10 -6 -10z" />
    <glyph glyph-name="Ycircumflex" unicode="&#x176;" horiz-adv-x="545" 
d="M298 0h-120q-10 0 -9 10l47 261l-125 399q-2 4 1 7t8 3h117q11 0 14 -10l75 -255h3l165 255q6 10 15 10h125q13 0 7 -10l-265 -399l-47 -261q-1 -10 -11 -10zM512 748h-71q-12 0 -19 10l-41 57h-2l-61 -57q-10 -10 -23 -10h-80q-5 0 -6 3t3 7l122 131q8 9 20 9h72
q12 0 16 -9l76 -131q2 -4 0 -7t-6 -3z" />
    <glyph glyph-name="ycircumflex" unicode="&#x177;" horiz-adv-x="492" 
d="M57 -180h-33q-11 0 -8 10l16 94q1 10 12 10h21q47 0 74 52l18 37l-94 451q-1 10 8 10h119q9 0 10 -10l44 -287h2l140 287q4 10 14 10h120q11 0 7 -10l-283 -516q-42 -79 -83 -108q-41 -30 -104 -30zM460 550h-71q-12 0 -19 10l-41 57h-1l-62 -57q-10 -10 -23 -10h-79
q-12 0 -4 10l122 131q9 10 20 10h72q10 0 16 -10l76 -131q6 -10 -6 -10z" />
    <glyph glyph-name="Ydieresis" unicode="&#x178;" horiz-adv-x="545" 
d="M298 0h-120q-10 0 -9 10l47 261l-125 399q-2 4 1 7t8 3h117q11 0 14 -10l75 -255h3l165 255q6 10 15 10h125q13 0 7 -10l-265 -399l-47 -261q-1 -10 -11 -10zM506 762h-89q-9 0 -8 10l18 94q1 10 11 10h88q9 0 8 -10l-17 -94q-1 -10 -11 -10zM313 762h-89q-10 0 -9 10
l18 94q1 10 11 10h89q9 0 8 -10l-17 -94q-1 -10 -11 -10z" />
    <glyph glyph-name="Zacute" unicode="&#x179;" horiz-adv-x="533" 
d="M448 0h-431q-10 0 -9 10l17 100q2 8 8 16l355 427v2h-264q-9 0 -8 10l19 105q1 10 10 10h422q10 0 9 -10l-18 -100q-2 -8 -6 -14l-359 -429v-2h277q9 0 8 -10l-19 -105q-1 -10 -11 -10zM388 755h-87q-5 0 -6.5 3t1.5 7l109 114q10 10 21 10h115q5 0 6.5 -3t-2.5 -7
l-137 -116q-10 -8 -20 -8z" />
    <glyph glyph-name="zacute" unicode="&#x17a;" horiz-adv-x="471" 
d="M384 0h-364q-9 0 -8 10l15 87q2 6 6 10l265 266v2h-201q-8 0 -7 10l16 89q1 10 11 10h353q8 0 7 -10l-15 -89l-6 -12l-262 -260v-3h210q9 0 8 -10l-16 -90q-1 -10 -12 -10zM323 551h-86q-11 0 -4 10l95 130q7 10 19 10h111q5 0 6 -3.5t-3 -7.5l-118 -129q-10 -10 -20 -10
z" />
    <glyph glyph-name="Zdotaccent" unicode="&#x17b;" horiz-adv-x="533" 
d="M448 0h-431q-10 0 -9 10l17 100q2 8 8 16l355 427v2h-264q-9 0 -8 10l19 105q1 10 10 10h422q10 0 9 -10l-18 -100q-2 -8 -6 -14l-359 -429v-2h277q9 0 8 -10l-19 -105q-1 -10 -11 -10zM413 762h-111q-9 0 -8 10l18 94q1 10 11 10h110q9 0 8 -10l-17 -94q-1 -10 -11 -10z
" />
    <glyph glyph-name="zdotaccent" unicode="&#x17c;" horiz-adv-x="471" 
d="M384 0h-364q-9 0 -8 10l15 87q2 6 6 10l265 266v2h-201q-8 0 -7 10l16 89q1 10 11 10h353q8 0 7 -10l-15 -89l-6 -12l-262 -260v-3h210q9 0 8 -10l-16 -90q-1 -10 -12 -10zM352 565h-111q-9 0 -8 10l17 95q1 10 11 10h110q9 0 8 -10l-16 -95q-1 -10 -11 -10z" />
    <glyph glyph-name="Zcaron" unicode="&#x17d;" horiz-adv-x="533" 
d="M391 744h-72q-11 0 -16 9l-76 131q-6 10 6 10h71q12 0 19 -10l41 -57h1l62 57q10 10 23 10h80q5 0 6 -3t-3 -7l-122 -131q-7 -9 -20 -9zM448 0h-431q-10 0 -9 10l17 100q2 8 8 16l355 427v2h-264q-9 0 -8 10l19 105q1 10 10 10h422q10 0 9 -10l-18 -100q-2 -8 -6 -14
l-359 -429v-2h277q9 0 8 -10l-19 -105q-1 -10 -11 -10z" />
    <glyph glyph-name="zcaron" unicode="&#x17e;" horiz-adv-x="471" 
d="M329 548h-72q-10 0 -16 10l-76 131q-6 10 6 10h71q12 0 19 -10l41 -57h1l62 57q10 10 23 10h79q12 0 4 -10l-122 -131q-9 -10 -20 -10zM384 0h-364q-9 0 -8 10l15 87q2 6 6 10l265 266v2h-201q-8 0 -7 10l16 89q1 10 11 10h353q8 0 7 -10l-15 -89l-6 -12l-262 -260v-3
h210q9 0 8 -10l-16 -90q-1 -10 -12 -10z" />
    <glyph glyph-name="florin" unicode="&#x192;" 
d="M445 316h-89l-106 -330q-28 -89 -77 -127.5t-131 -38.5h-32q-10 0 -9 10l16 92q1 10 12 10h20q54 0 73 58l105 326h-61q-9 0 -8 10l14 79q1 10 12 10h75l32 99q28 89 77 127.5t131 38.5h32q10 0 9 -10l-16 -92q-1 -10 -12 -10h-20q-54 0 -73 -58l-31 -95h76q8 0 7 -10
l-14 -79q-1 -10 -12 -10z" />
    <glyph glyph-name="Scommaaccent" unicode="&#x218;" horiz-adv-x="574" 
d="M256 -11q-73 0 -142 26q-69 28 -100 66q-6 9 1 16l86 82q8 8 14 1q64 -67 160 -67q54 0 89.5 29.5t35.5 72.5q0 27 -20 42t-67 22l-33 5q-177 25 -177 170q0 107 74 172q76 65 193 65q132 0 212 -72q8 -5 0 -15l-71 -82q-8 -8 -14 -3q-65 49 -138 49q-47 0 -78 -27
t-31 -66q0 -27 20 -42.5t67 -22.5l33 -5q178 -27 178 -163q0 -118 -81 -185q-82 -68 -211 -68zM181 -234q-11 0 -9 11l28 163q1 10 12 10h96q10 0 9 -10l-14 -77q-3 -13 -12 -20l-95 -70q-7 -7 -15 -7z" />
    <glyph glyph-name="scommaaccent" unicode="&#x219;" horiz-adv-x="487" 
d="M219 -11q-131 0 -204 76q-6 6 2 14l72 67q8 6 14 0q59 -51 134 -51q37 0 61 17t24 41q0 33 -57 37l-51 5q-63 7 -97.5 38.5t-34.5 82.5q0 84 60 131q61 48 158 48q53 0 101 -17t78 -44q7 -6 -1 -14l-64 -65q-6 -7 -14 -2q-53 38 -117 38q-32 0 -51.5 -14.5t-19.5 -35.5
q0 -16 12 -24t43 -12l50 -5q136 -13 136 -120q0 -87 -63 -139t-171 -52zM129 -234q-11 0 -9 11l28 163q1 10 12 10h96q10 0 9 -10l-14 -77q-3 -13 -12 -20l-95 -70q-7 -7 -15 -7z" />
    <glyph glyph-name="uni021A" unicode="&#x21a;" horiz-adv-x="538" 
d="M150 -234q-11 0 -9 11l28 163q1 10 12 10h96q10 0 9 -10l-14 -77q-3 -13 -12 -20l-95 -70q-7 -7 -15 -7zM295 0h-121q-9 0 -8 10l95 539q1 6 -5 6h-166q-10 0 -9 10l19 105q1 10 11 10h485q10 0 9 -10l-19 -105q-1 -10 -11 -10h-167q-6 0 -7 -6l-95 -539q-1 -10 -11 -10z
" />
    <glyph glyph-name="uni021B" unicode="&#x21b;" horiz-adv-x="319" 
d="M58 -234q-11 0 -9 11l28 163q1 10 12 10h96q10 0 9 -10l-14 -77q-3 -13 -12 -20l-95 -70q-7 -7 -15 -7zM234 -6h-50q-80 0 -108 38t-13 122l42 226q1 6 -5 6h-30q-8 0 -7 10l14 78q1 10 11 10h30q6 0 7 6l23 130q1 10 12 10h113q9 0 8 -10l-23 -130q-2 -6 4 -6h61
q9 0 8 -10l-13 -78q-1 -10 -12 -10h-62q-4 0 -6 -6l-41 -221q-5 -28 2.5 -39t32.5 -11h22q9 0 8 -10l-17 -95q-1 -10 -11 -10z" />
    <glyph glyph-name="dotlessj" unicode="&#x237;" horiz-adv-x="255" 
d="M-42 -180h-32q-10 0 -7 10l17 94q1 10 11 10h16q30 0 43.5 12t19.5 45l85 483q1 10 11 10h115q9 0 8 -10l-85 -482q-18 -99 -62 -136q-44 -36 -140 -36z" />
    <glyph glyph-name="circumflex" unicode="&#x2c6;" horiz-adv-x="441" 
d="M428 550h-71q-12 0 -19 10l-41 57h-1l-62 -57q-10 -10 -23 -10h-79q-12 0 -4 10l122 131q9 10 20 10h72q10 0 16 -10l76 -131q6 -10 -6 -10z" />
    <glyph glyph-name="caron" unicode="&#x2c7;" horiz-adv-x="441" 
d="M316 548h-72q-10 0 -16 10l-76 131q-2 4 0 7t6 3h71q12 0 19 -10l41 -57h1l62 57q10 10 23 10h79q4 0 5.5 -3t-1.5 -7l-122 -131q-9 -10 -20 -10z" />
    <glyph glyph-name="uni02C9" unicode="&#x2c9;" horiz-adv-x="441" 
d="M458 773h-272q-9 0 -8 10l12 72q1 10 11 10h273q9 0 8 -10l-13 -72q-1 -10 -11 -10z" />
    <glyph glyph-name="breve" unicode="&#x2d8;" horiz-adv-x="441" 
d="M287 548q-63 0 -97 35.5t-27 92.5q2 11 11 11h55q11 0 12 -10q6 -44 60 -44q55 0 78 44q6 10 15 10h54q11 0 8 -10q-12 -55 -60 -93q-46 -36 -109 -36z" />
    <glyph glyph-name="dotaccent" unicode="&#x2d9;" horiz-adv-x="441" 
d="M342 565h-111q-9 0 -8 10l17 95q1 10 11 10h110q9 0 8 -10l-16 -95q-1 -10 -11 -10z" />
    <glyph glyph-name="ring" unicode="&#x2da;" horiz-adv-x="441" 
d="M277 525q-39 0 -63.5 23.5t-24.5 61.5q0 51 35 89q34 37 88 37q39 0 63.5 -23.5t24.5 -61.5q0 -51 -35 -89q-34 -37 -88 -37zM286 581q23 0 38.5 17t15.5 43q0 17 -10 28t-27 11q-22 0 -38 -17t-16 -43q0 -17 10 -28t27 -11z" />
    <glyph glyph-name="ogonek" unicode="&#x2db;" horiz-adv-x="441" 
d="M148 -190q-39 0 -62 20t-23 55q0 63 76 115q13 10 27 10h98q5 0 5 -4t-4 -6q-96 -46 -96 -82q0 -16 17 -16q7 0 25 8q8 5 12 -4l20 -56q3 -8 -6 -13q-43 -27 -89 -27z" />
    <glyph glyph-name="tilde" unicode="&#x2dc;" horiz-adv-x="441" 
d="M344 556q-34 0 -69 21q-27 18 -52 18q-35 0 -75 -31q-3 -3 -6 -1.5t-2 4.5l12 69q2 10 12 21q37 33 79 33q35 0 70 -22q29 -18 52 -18q36 0 74 32q4 3 7 1.5t2 -5.5l-12 -69q-1 -9 -12 -20q-38 -33 -80 -33z" />
    <glyph glyph-name="hungarumlaut" unicode="&#x2dd;" horiz-adv-x="441" 
d="M365 550h-75q-12 0 -5 10l88 130q7 10 18 10h90q4 0 5.5 -3t-1.5 -7l-101 -130q-6 -10 -19 -10zM201 550h-75q-12 0 -5 10l88 130q7 10 18 10h90q4 0 5.5 -3t-1.5 -7l-101 -130q-6 -10 -19 -10z" />
    <glyph glyph-name="uni0374" unicode="&#x374;" horiz-adv-x="530" 
d="M297 470h-106q-11 0 -4 10l147 220q7 10 17 10h149q12 0 4 -10l-189 -220q-9 -10 -18 -10z" />
    <glyph glyph-name="uni0375" unicode="&#x375;" horiz-adv-x="530" 
d="M388 62h106q11 0 4 -10l-147 -220q-7 -10 -17 -10h-149q-4 0 -5.5 3t1.5 7l189 220q9 10 18 10z" />
    <glyph glyph-name="uni037E" unicode="&#x37e;" horiz-adv-x="244" 
d="M208 348h-114q-10 0 -9 10l20 116q1 10 11 10h114q10 0 9 -10l-20 -116q-1 -10 -11 -10zM9 -95l38 221q1 10 11 10h107q10 0 9 -10l-20 -117q-3 -13 -12 -21l-108 -88q-10 -8 -16 -8q-12 0 -9 13z" />
    <glyph glyph-name="tonos" unicode="&#x384;" horiz-adv-x="412" 
d="M280 551h-96q-9 0 -5 10l65 130q4 10 15 10h129q11 0 4 -10l-98 -131q-6 -9 -14 -9z" />
    <glyph glyph-name="dieresistonos" unicode="&#x385;" horiz-adv-x="593" 
d="M377 551h-84q-9 0 -6 10l47 130q3 10 14 10h122q9 0 5 -10l-85 -131q-4 -9 -13 -9zM579 560h-89q-9 0 -8 10l18 95q1 10 11 10h89q9 0 8 -10l-18 -95q-1 -10 -11 -10zM234 560h-89q-9 0 -8 10l18 95q1 10 11 10h88q9 0 8 -10l-17 -95q-1 -10 -11 -10z" />
    <glyph glyph-name="Alphatonos" unicode="&#x386;" horiz-adv-x="624" 
d="M121 0h-132q-9 0 -5 10l343 660q4 10 15 10h121q10 0 11 -10l105 -660q1 -10 -7 -10h-122q-11 0 -12 10l-16 122h-229l-59 -122q-4 -10 -13 -10zM373 500l-121 -248h155l-31 248h-3zM128 530h-96q-9 0 -5 10l65 130q4 10 15 10h129q11 0 4 -10l-98 -131q-6 -9 -14 -9z
" />
    <glyph glyph-name="anoteleia" unicode="&#x387;" horiz-adv-x="244" 
d="M181 197h-114q-10 0 -9 10l20 115q1 10 11 10h114q10 0 9 -10l-20 -115q-1 -10 -11 -10z" />
    <glyph glyph-name="Epsilontonos" unicode="&#x388;" horiz-adv-x="542" 
d="M33 10l117 660q1 10 11 10h418q9 0 8 -10l-18 -102q-1 -10 -11 -10h-282q-6 0 -7 -6l-25 -143q-2 -6 5 -6h234q9 0 8 -10l-18 -100q-1 -10 -12 -10h-234q-5 0 -7 -6l-26 -149q-2 -6 5 -6h282q9 0 8 -10l-19 -102q-1 -10 -11 -10h-417q-10 0 -9 10zM-27 530h-96
q-9 0 -5 10l65 130q4 10 15 10h129q11 0 4 -10l-98 -131q-6 -9 -14 -9z" />
    <glyph glyph-name="Etatonos" unicode="&#x389;" horiz-adv-x="634" 
d="M33 10l117 660q1 10 11 10h121q9 0 8 -10l-45 -258q-1 -6 5 -6h214q6 0 7 6l46 258q1 10 11 10h121q10 0 9 -10l-117 -660q-1 -10 -11 -10h-121q-10 0 -9 10l47 265q1 6 -5 6h-215q-5 0 -7 -6l-47 -265q-1 -10 -10 -10h-121q-10 0 -9 10zM-27 530h-96q-9 0 -5 10l65 130
q4 10 15 10h129q11 0 4 -10l-98 -131q-6 -9 -14 -9z" />
    <glyph glyph-name="Iotatonos" unicode="&#x38a;" horiz-adv-x="266" 
d="M33 10l117 660q1 10 11 10h121q9 0 8 -10l-117 -660q-1 -10 -10 -10h-121q-10 0 -9 10zM-27 530h-96q-9 0 -5 10l65 130q4 10 15 10h129q11 0 4 -10l-98 -131q-6 -9 -14 -9z" />
    <glyph glyph-name="Omicrontonos" unicode="&#x38c;" horiz-adv-x="602" 
d="M271 -11q-100 0 -157.5 54.5t-57.5 153.5q0 56 22 170q23 120 46 168q76 156 264 156q100 0 157.5 -54.5t57.5 -153.5q0 -55 -22 -171q-23 -120 -46 -167q-77 -156 -264 -156zM290 114q79 0 118 80q16 31 34 134q19 98 19 142q0 45 -24 70.5t-68 25.5q-79 0 -117 -80
q-16 -33 -36 -134q-18 -101 -18 -142q0 -45 24.5 -70.5t67.5 -25.5zM13 530h-96q-9 0 -5 10l65 130q4 10 15 10h129q5 0 6 -3.5t-2 -6.5l-98 -131q-6 -9 -14 -9z" />
    <glyph glyph-name="Upsilontonos" unicode="&#x38e;" horiz-adv-x="547" 
d="M302 0h-120q-10 0 -9 10l47 261l-125 399q-2 4 1 7t8 3h117q11 0 14 -10l75 -255h3l165 255q6 10 15 10h125q13 0 7 -10l-265 -399l-47 -261q-1 -10 -11 -10zM-77 530h-96q-9 0 -5 10l65 130q4 10 15 10h129q5 0 6 -3.5t-2 -6.5l-98 -131q-6 -9 -14 -9z" />
    <glyph glyph-name="Omegatonos" unicode="&#x38f;" horiz-adv-x="620" 
d="M526 0h-204q-9 0 -8 10l16 96q2 10 12 14q43 16 68 65q24 47 44 155q16 92 16 127q0 99 -93 99q-80 0 -118 -77q-21 -42 -40 -149q-13 -69 -13 -118q0 -82 48 -102q8 -5 7 -14l-17 -96q-1 -10 -10 -10h-204q-10 0 -9 10l18 99q1 10 12 10h55v2q-39 35 -39 114
q0 37 11 105q22 132 51 188q82 163 270 163q101 0 158 -54t57 -155q0 -44 -18 -142q-28 -169 -104 -219v-2h54q9 0 8 -10l-17 -99q-1 -10 -11 -10zM9 530h-96q-9 0 -5 10l65 130q4 10 15 10h129q11 0 4 -10l-98 -131q-6 -9 -14 -9z" />
    <glyph glyph-name="iotadieresistonos" unicode="&#x390;" horiz-adv-x="301" 
d="M168 -11q-130 0 -130 109q0 24 15 95l58 281q1 10 12 10h116q9 0 8 -10l-66 -311q-4 -15 -4 -28q0 -31 34 -31q17 0 37 2q9 1 10 -6l9 -84q2 -11 -7 -14q-35 -13 -92 -13zM236 551h-84q-9 0 -6 10l47 130q3 10 14 10h122q9 0 5 -10l-85 -131q-5 -9 -13 -9zM438 560h-89
q-9 0 -8 10l18 95q1 10 11 10h89q9 0 8 -10l-18 -95q-1 -10 -11 -10zM93 560h-89q-9 0 -8 10l18 95q1 10 11 10h88q9 0 8 -10l-17 -95q-1 -10 -11 -10z" />
    <glyph glyph-name="Alpha" unicode="&#x391;" horiz-adv-x="624" 
d="M121 0h-132q-9 0 -5 10l343 660q4 10 15 10h121q10 0 11 -10l105 -660q1 -10 -7 -10h-122q-11 0 -12 10l-16 122h-229l-59 -122q-4 -10 -13 -10zM373 500l-121 -248h155l-31 248h-3z" />
    <glyph glyph-name="Beta" unicode="&#x392;" horiz-adv-x="585" 
d="M30 10l117 660q1 10 11 10h254q89 0 135 -38t46 -108q0 -124 -108 -180v-2q29 -12 47.5 -44t18.5 -75q0 -108 -70 -170.5t-193 -62.5h-249q-10 0 -9 10zM245 400h99q46 0 75.5 28.5t29.5 74.5q0 64 -75 64h-100q-6 0 -7 -6l-27 -155q-2 -6 5 -6zM219 286l-29 -167
q-2 -6 4 -6h108q48 0 78 30.5t30 80.5q0 68 -77 68h-107q-6 0 -7 -6z" />
    <glyph glyph-name="Gamma" unicode="&#x393;" horiz-adv-x="509" 
d="M264 552l-96 -542q-1 -10 -11 -10h-120q-10 0 -9 10l117 660q1 10 11 10h398q9 0 8 -10l-18 -102q-1 -10 -11 -10h-263q-4 0 -6 -6z" />
    <glyph glyph-name="uni0394" unicode="&#x394;" horiz-adv-x="619" 
d="M571 0h-581q-10 0 -6 10l344 660q4 10 14 10h120q11 0 12 -10l105 -660q1 -10 -8 -10zM191 116h230q7 0 5 6l-50 378h-3l-185 -378q-3 -6 3 -6z" />
    <glyph glyph-name="Epsilon" unicode="&#x395;" horiz-adv-x="542" 
d="M30 10l117 660q1 10 11 10h418q9 0 8 -10l-18 -102q-1 -10 -11 -10h-282q-5 0 -7 -6l-25 -143q-1 -6 5 -6h234q9 0 8 -10l-18 -100q-1 -10 -12 -10h-234q-6 0 -7 -6l-26 -149q-1 -6 5 -6h282q9 0 8 -10l-19 -102q-1 -10 -11 -10h-417q-10 0 -9 10z" />
    <glyph glyph-name="Zeta" unicode="&#x396;" horiz-adv-x="533" 
d="M448 0h-431q-10 0 -9 10l17 100q2 8 8 16l355 427v2h-264q-9 0 -8 10l19 105q1 10 10 10h422q10 0 9 -10l-18 -100q-2 -8 -6 -14l-359 -429v-2h277q9 0 8 -10l-19 -105q-1 -10 -11 -10z" />
    <glyph glyph-name="Eta" unicode="&#x397;" horiz-adv-x="634" 
d="M30 10l117 660q1 10 11 10h121q9 0 8 -10l-45 -258q-2 -6 5 -6h214q5 0 7 6l46 258q1 10 11 10h121q10 0 9 -10l-117 -660q-1 -10 -11 -10h-121q-10 0 -9 10l47 265q2 6 -5 6h-215q-6 0 -7 -6l-47 -265q-1 -10 -10 -10h-121q-10 0 -9 10z" />
    <glyph glyph-name="Theta" unicode="&#x398;" horiz-adv-x="618" 
d="M270 -11q-104 0 -162 56q-57 55 -57 156q0 52 24 176q19 97 39 147q21 50 64 93q74 74 214 74q110 0 165 -55q57 -56 57 -154q0 -21 -11 -104q-9 -69 -25 -131q-20 -73 -33 -104q-13 -30 -46 -68q-78 -86 -229 -86zM290 114q66 0 101 37.5t50 112.5q31 155 31 207
q0 45 -25 70t-73 25q-79 0 -113 -55q-28 -46 -47 -146q-21 -113 -21 -152q0 -99 97 -99zM394 291h-144q-9 0 -8 10l15 80q1 10 11 10h144q9 0 8 -10l-15 -80q-1 -10 -11 -10z" />
    <glyph glyph-name="Iota" unicode="&#x399;" horiz-adv-x="266" 
d="M30 10l117 660q1 10 11 10h121q9 0 8 -10l-117 -660q-1 -10 -10 -10h-121q-10 0 -9 10z" />
    <glyph glyph-name="Kappa" unicode="&#x39a;" horiz-adv-x="619" 
d="M30 10l117 660q1 10 11 10h121q9 0 8 -10l-51 -285l263 286q7 9 18 9h144q13 0 4 -13l-251 -262l141 -393q3 -12 -9 -12h-123q-11 0 -14 9l-99 293l-109 -118l-31 -174q-1 -10 -10 -10h-121q-10 0 -9 10z" />
    <glyph glyph-name="Lambda" unicode="&#x39b;" horiz-adv-x="624" 
d="M376 500h-3l-239 -490q-4 -10 -13 -10h-132q-9 0 -5 10l343 660q4 10 15 10h121q10 0 11 -10l105 -660q1 -10 -7 -10h-122q-11 0 -12 10z" />
    <glyph glyph-name="Mu" unicode="&#x39c;" horiz-adv-x="737" 
d="M30 10l117 660q1 10 11 10h107q12 0 15 -10l97 -396h3l234 396q6 10 16 10h119q10 0 9 -10l-117 -660q-1 -10 -11 -10h-108q-10 0 -9 10l70 395h-4l-177 -298q-6 -13 -20 -13h-64q-12 0 -16 13l-71 298h-4l-70 -395q-1 -10 -10 -10h-108q-10 0 -9 10z" />
    <glyph glyph-name="Nu" unicode="&#x39d;" horiz-adv-x="631" 
d="M30 10l117 660q1 10 11 10h114q12 0 15 -10l155 -437h4l78 437q1 10 11 10h108q10 0 9 -10l-117 -660q-1 -10 -11 -10h-115q-10 0 -14 10l-156 437h-5l-77 -437q-1 -10 -10 -10h-108q-10 0 -9 10z" />
    <glyph glyph-name="Xi" unicode="&#x39e;" horiz-adv-x="530" 
d="M447 0h-430q-10 0 -9 10l18 106q1 10 12 10h432q9 0 8 -10l-20 -106q-1 -10 -11 -10zM449 280h-337q-9 0 -8 10l18 103q1 10 12 10h338q9 0 8 -10l-19 -103q-1 -10 -12 -10zM544 554h-431q-9 0 -8 10l19 106q1 10 11 10h432q9 0 8 -10l-19 -106q-1 -10 -12 -10z" />
    <glyph glyph-name="Omicron" unicode="&#x39f;" horiz-adv-x="602" 
d="M266 -11q-100 0 -157.5 54.5t-57.5 153.5q0 56 22 170q23 120 46 168q77 156 264 156q100 0 157.5 -54.5t57.5 -153.5q0 -55 -22 -171q-23 -120 -46 -167q-76 -156 -264 -156zM285 114q79 0 118 80q16 31 34 134q19 98 19 142q0 45 -24 70.5t-68 25.5q-79 0 -117 -80
q-16 -33 -36 -134q-18 -101 -18 -142q0 -45 24.5 -70.5t67.5 -25.5z" />
    <glyph glyph-name="Pi" unicode="&#x3a0;" horiz-adv-x="624" 
d="M645 670l-117 -660q-1 -10 -11 -10h-122q-9 0 -8 10l96 542q1 6 -3 6h-207q-5 0 -6 -6l-97 -542q-1 -10 -11 -10h-120q-10 0 -9 10l117 660q1 10 11 10h480q8 0 7 -10z" />
    <glyph glyph-name="Rho" unicode="&#x3a1;" horiz-adv-x="582" 
d="M160 0h-121q-9 0 -8 10l117 660q1 10 10 10h253q93 0 144 -45.5t51 -126.5q0 -124 -75 -193q-73 -69 -195 -69h-117q-7 0 -7 -6l-41 -230q-1 -10 -11 -10zM240 368h108q51 0 83.5 32t32.5 85q0 34 -21.5 53.5t-60.5 19.5h-108q-6 0 -7 -6l-32 -178q0 -6 5 -6z" />
    <glyph glyph-name="Sigma" unicode="&#x3a3;" horiz-adv-x="552" 
d="M464 0h-452q-10 0 -9 10l17 94q2 7 6 11l190 226l-101 192q-5 12 -4 17l22 121q1 9 10 9h441q9 0 8 -10l-19 -106q-2 -11 -12 -11h-286v-1l102 -196q4 -6 -1 -11l-189 -216v-1h298q11 0 9 -9l-20 -110q-2 -9 -10 -9z" />
    <glyph glyph-name="Tau" unicode="&#x3a4;" horiz-adv-x="538" 
d="M295 0h-121q-9 0 -8 10l95 539q1 6 -5 6h-166q-10 0 -9 10l19 105q1 10 11 10h485q10 0 9 -10l-19 -105q-1 -10 -11 -10h-167q-6 0 -7 -6l-95 -539q-1 -10 -11 -10z" />
    <glyph glyph-name="Upsilon" unicode="&#x3a5;" horiz-adv-x="547" 
d="M299 0h-120q-10 0 -9 10l47 261l-125 399q-2 4 1 7t8 3h117q11 0 14 -10l75 -255h3l165 255q6 10 15 10h125q13 0 7 -10l-265 -399l-47 -261q-1 -10 -11 -10z" />
    <glyph glyph-name="Phi" unicode="&#x3a6;" horiz-adv-x="716" 
d="M370 -37h-110q-9 0 -8 10l10 56q-119 9 -170 59.5t-51 158.5q0 104 34 203q35 102 106 152q70 50 192 53l9 52q1 10 11 10h109q9 0 8 -10l-9 -52q104 -6 157 -48q64 -51 64 -169q0 -106 -33 -200t-87 -141q-75 -66 -211 -68l-10 -56q-1 -10 -11 -10zM281 139l71 400
q-69 0 -105 -38q-41 -43 -61 -165q-9 -57 -9 -91q0 -52 23.5 -77t80.5 -29zM481 540l-71 -400q75 0 112 46t53 149q10 57 10 101q0 51 -24.5 76t-79.5 28z" />
    <glyph glyph-name="Chi" unicode="&#x3a7;" horiz-adv-x="576" 
d="M523 0h-126q-11 0 -15 10l-82 214h-2l-158 -214q-7 -10 -16 -10h-141q-5 0 -6 4t3 8l260 343l-128 313q-5 12 8 12h128q11 0 15 -10l72 -187h2l137 187q7 10 18 10h134q12 0 4 -12l-237 -315l137 -341q2 -4 0 -8t-7 -4z" />
    <glyph glyph-name="Psi" unicode="&#x3a8;" horiz-adv-x="724" 
d="M410 0h-110q-9 0 -8 10l16 92q-119 10 -172 72q-52 63 -27 205l52 292q1 9 12 9h106q5 0 8 -2.5t2 -6.5l-54 -309q-14 -76 9 -109.5t84 -35.5l80 453q1 10 10 10h110q9 0 8 -10l-80 -453q62 2 96.5 37t48.5 115l53 302q2 9 12 9h106q5 0 8 -2.5t2 -6.5l-50 -285
q-25 -141 -94.5 -210.5t-201.5 -75.5l-16 -90q-1 -10 -10 -10z" />
    <glyph glyph-name="uni03A9" unicode="&#x3a9;" horiz-adv-x="620" 
d="M523 0h-204q-9 0 -8 10l16 96q2 10 12 14q43 16 68 65q24 47 44 155q16 92 16 127q0 99 -93 99q-80 0 -118 -77q-21 -42 -40 -149q-13 -69 -13 -118q0 -82 48 -102q8 -5 7 -14l-17 -96q-1 -10 -10 -10h-204q-10 0 -9 10l18 99q1 10 12 10h55v2q-39 35 -39 114
q0 37 11 105q22 132 51 188q82 163 270 163q101 0 158 -54t57 -155q0 -44 -18 -142q-28 -169 -104 -219v-2h54q9 0 8 -10l-17 -99q-1 -10 -11 -10z" />
    <glyph glyph-name="Iotadieresis" unicode="&#x3aa;" horiz-adv-x="266" 
d="M30 10l117 660q1 10 11 10h121q9 0 8 -10l-117 -660q-1 -10 -10 -10h-121q-10 0 -9 10zM374 762h-89q-9 0 -8 10l18 94q1 10 11 10h88q9 0 8 -10l-17 -94q-1 -10 -11 -10zM181 762h-89q-10 0 -9 10l18 94q1 10 11 10h89q9 0 8 -10l-17 -94q-1 -10 -11 -10z" />
    <glyph glyph-name="Upsilondieresis" unicode="&#x3ab;" horiz-adv-x="547" 
d="M299 0h-120q-10 0 -9 10l47 261l-125 399q-2 4 1 7t8 3h117q11 0 14 -10l75 -255h3l165 255q6 10 15 10h125q13 0 7 -10l-265 -399l-47 -261q-1 -10 -11 -10zM505 762h-89q-9 0 -8 10l18 94q1 10 11 10h88q9 0 8 -10l-17 -94q-1 -10 -11 -10zM312 762h-89q-10 0 -9 10
l18 94q1 10 11 10h89q9 0 8 -10l-17 -94q-1 -10 -11 -10z" />
    <glyph glyph-name="alphatonos" unicode="&#x3ac;" horiz-adv-x="556" 
d="M175 -11q-71 0 -107.5 41t-36.5 115q0 54 14 127q13 67 43 121q56 102 164 102q52 0 83 -18.5t51 -63.5h1l31 71q5 14 19 9l98 -32q14 -5 7 -18l-95 -226q-1 -3 -1 -23q0 -39 16.5 -62t42.5 -23h5q11 0 9 -11l-17 -94q-1 -10 -11 -10h-9q-64 0 -94.5 15.5t-45.5 57.5h-1
q-54 -78 -166 -78zM232 102q52 0 79 58q13 28 21 72q9 44 9 70q0 80 -61 80q-54 0 -81 -55q-11 -20 -22 -73q-9 -50 -9 -78q0 -74 64 -74zM355 551h-96q-9 0 -5 10l65 130q4 10 15 10h129q11 0 4 -10l-98 -131q-6 -9 -14 -9z" />
    <glyph glyph-name="epsilontonos" unicode="&#x3ad;" horiz-adv-x="451" 
d="M221 -11q-196 0 -196 127q0 55 30 91t77 50v2q-50 29 -50 87q0 69 54.5 109.5t149.5 40.5q84 0 139 -16q10 -3 12 -6.5t0 -12.5l-19 -76q-3 -9 -14 -7q-65 13 -119 13q-68 0 -68 -52q0 -40 60 -40h54q12 0 11 -13l-12 -71q-2 -12 -14 -12h-68q-71 0 -71 -58
q0 -24 19.5 -34t72.5 -10q39 0 115 16q14 3 15 -9l11 -78q1 -7 -0.5 -9.5t-9.5 -5.5q-63 -26 -179 -26zM353 551h-96q-9 0 -5 10l65 130q4 10 15 10h129q11 0 4 -10l-98 -131q-6 -9 -14 -9z" />
    <glyph glyph-name="etatonos" unicode="&#x3ae;" horiz-adv-x="546" 
d="M166 0h-116q-8 0 -7 10l58 328q4 21 4 27q0 16 -17 16q-10 0 -12.5 2t-1.5 9l16 89q2 9 10 9h19q53 0 80 -18.5t29 -63.5h2q56 87 158 87q61 0 94.5 -36t33.5 -100q0 -28 -7 -60l-82 -469q-1 -10 -11 -10h-114q-9 0 -8 10l78 451q3 18 3 34q0 66 -58 66q-35 0 -59.5 -25
t-31.5 -66l-49 -280q-1 -10 -11 -10zM357 551h-96q-9 0 -5 10l65 130q4 10 15 10h129q11 0 4 -10l-98 -131q-6 -9 -14 -9z" />
    <glyph glyph-name="iotatonos" unicode="&#x3af;" horiz-adv-x="301" 
d="M166 -11q-130 0 -130 109q0 24 15 95l58 281q1 10 12 10h116q9 0 8 -10l-66 -311q-4 -15 -4 -28q0 -31 34 -31q17 0 37 2q9 1 10 -6l9 -84q2 -11 -7 -14q-35 -13 -92 -13zM245 551h-96q-9 0 -5 10l65 130q4 10 15 10h129q11 0 4 -10l-98 -131q-6 -9 -14 -9z" />
    <glyph glyph-name="upsilondieresistonos" unicode="&#x3b0;" horiz-adv-x="538" 
d="M266 102q80 0 97 95l49 277q1 10 11 10h106q9 0 8 -10l-47 -262q-20 -112 -75 -168q-54 -55 -169 -55q-172 0 -172 165q0 28 7 66l21 117q4 17 4 28q0 10 -4 13t-16 3q-14 0 -11 12l16 88q1 9 10 9h24q110 0 110 -88q0 -24 -5 -49l-27 -148q-5 -28 -5 -45q0 -58 68 -58z
M347 551h-84q-9 0 -6 10l47 130q3 10 14 10h122q9 0 5 -10l-85 -131q-4 -9 -13 -9zM549 560h-89q-9 0 -8 10l18 95q1 10 11 10h89q9 0 8 -10l-18 -95q-1 -10 -11 -10zM204 560h-89q-9 0 -8 10l18 95q1 10 11 10h88q9 0 8 -10l-17 -95q-1 -10 -11 -10z" />
    <glyph glyph-name="alpha" unicode="&#x3b1;" horiz-adv-x="556" 
d="M175 -11q-71 0 -107.5 41t-36.5 115q0 54 14 127q13 67 43 121q56 102 164 102q52 0 83 -18.5t51 -63.5h1l31 71q5 14 19 9l98 -32q14 -5 7 -18l-95 -226q-1 -3 -1 -23q0 -39 16.5 -62t42.5 -23h5q11 0 9 -11l-17 -94q-1 -10 -11 -10h-9q-64 0 -94.5 15.5t-45.5 57.5h-1
q-54 -78 -166 -78zM232 102q52 0 79 58q13 28 21 72q9 44 9 70q0 80 -61 80q-54 0 -81 -55q-11 -20 -22 -73q-9 -50 -9 -78q0 -74 64 -74z" />
    <glyph glyph-name="beta" unicode="&#x3b2;" horiz-adv-x="541" 
d="M115 -180h-115q-10 0 -8 11l108 616q26 147 93 197q60 47 147 47q85 0 134 -41t49 -118q0 -44 -24 -87q-23 -43 -69 -63v-1q89 -29 89 -136q0 -118 -60.5 -187t-166.5 -69q-87 0 -127 61h-1l-37 -217q-1 -13 -12 -13zM267 101q55 0 82.5 38.5t27.5 99.5q0 68 -84 68h-22
q-9 0 -8 9l15 86q2 9 12 9h23q44 0 66.5 25.5t22.5 68.5q0 33 -18 52t-51 19q-77 0 -93 -97l-40 -226q-9 -54 -9 -82q0 -70 76 -70z" />
    <glyph glyph-name="gamma" unicode="&#x3b3;" horiz-adv-x="514" 
d="M251 -174h-110q-10 0 -7 11l35 155l-47 254q-17 89 -26 108q-10 24 -33 27q-9 1 -8 11l15 86q2 12 16 12q78 2 109 -29q33 -31 46 -118l26 -168h2l40 87q73 156 83 211q3 11 15 11h119q10 0 7 -13q-20 -98 -115 -263l-125 -217l-30 -154q-2 -11 -12 -11z" />
    <glyph glyph-name="delta" unicode="&#x3b4;" horiz-adv-x="501" 
d="M225 -11q-93 0 -143.5 53.5t-50.5 140.5q0 98 46.5 167t126.5 96v1l-6 6q-43 43 -43 90q0 67 49 107.5t135 40.5q93 0 160 -26q13 -4 12 -14l-27 -90q-2 -9 -14 -6q-66 22 -104 22q-50 0 -50 -39q0 -22 44 -60q66 -57 91 -107q24 -46 24 -104q0 -74 -25 -134
q-25 -64 -84.5 -104t-140.5 -40zM236 102q38 0 62 30q40 51 40 141q0 70 -59 100q-51 -7 -82 -67q-29 -60 -29 -124q0 -80 68 -80z" />
    <glyph glyph-name="epsilon" unicode="&#x3b5;" horiz-adv-x="451" 
d="M221 -11q-196 0 -196 127q0 55 30 91t77 50v2q-50 29 -50 87q0 69 54.5 109.5t149.5 40.5q84 0 139 -16q10 -3 12 -6.5t0 -12.5l-19 -76q-3 -9 -14 -7q-65 13 -119 13q-68 0 -68 -52q0 -40 60 -40h54q12 0 11 -13l-12 -71q-2 -12 -14 -12h-68q-71 0 -71 -58
q0 -24 19.5 -34t72.5 -10q39 0 115 16q14 3 15 -9l11 -78q1 -7 -0.5 -9.5t-9.5 -5.5q-63 -26 -179 -26z" />
    <glyph glyph-name="zeta" unicode="&#x3b6;" horiz-adv-x="432" 
d="M251 -177q-11 -7 -18 3l-44 53q-6 9 3 15q45 31 45 59q0 18 -9 27.5t-41 27.5q-85 48 -115 91q-31 44 -31 114q0 93 58 184t166 169v1h-134q-9 0 -7 9l17 95q1 9 11 9h300q10 0 9 -12l-14 -94q-263 -185 -263 -343q0 -42 18 -63q20 -21 79 -56q96 -57 96 -122
q0 -99 -126 -167z" />
    <glyph glyph-name="eta" unicode="&#x3b7;" horiz-adv-x="546" 
d="M166 0h-116q-8 0 -7 10l58 328q4 21 4 27q0 16 -17 16q-10 0 -12.5 2t-1.5 9l16 89q2 9 10 9h19q53 0 80 -18.5t29 -63.5h2q56 87 158 87q61 0 94.5 -36t33.5 -100q0 -28 -7 -60l-82 -469q-1 -10 -11 -10h-114q-9 0 -8 10l78 451q3 18 3 34q0 66 -58 66q-35 0 -59.5 -25
t-31.5 -66l-49 -280q-1 -10 -11 -10z" />
    <glyph glyph-name="theta" unicode="&#x3b8;" horiz-adv-x="495" 
d="M209 -11q-89 0 -131.5 46t-42.5 141q0 56 20 165q33 177 92 264q59 86 174 86q102 0 140 -64q34 -55 34 -130q0 -51 -21 -166q-31 -163 -83 -247q-59 -95 -182 -95zM225 105q41 0 61.5 29t39.5 108l12 51h-164q-14 -87 -14 -111q0 -77 65 -77zM205 445l-13 -54h164
q15 78 15 109q0 35 -19 54.5t-48 19.5q-39 0 -61.5 -32t-37.5 -97z" />
    <glyph glyph-name="iota" unicode="&#x3b9;" horiz-adv-x="301" 
d="M166 -11q-130 0 -130 109q0 24 15 95l58 281q1 10 12 10h116q9 0 8 -10l-66 -311q-4 -15 -4 -28q0 -31 34 -31q17 0 37 2q9 1 10 -6l9 -84q2 -11 -7 -14q-35 -13 -92 -13z" />
    <glyph glyph-name="kappa" unicode="&#x3ba;" horiz-adv-x="529" 
d="M171 0h-114q-10 0 -9 10l82 464q1 10 11 10h115q9 0 8 -10l-34 -193l147 141l46 43q33 25 82 25h41q9 0 8 -10l-17 -89q-1 -10 -13 -10h-12q-16 0 -24 -7l-18 -18t-29 -27l-62 -60l127 -259q2 -10 -7 -10h-120q-9 0 -13 10l-82 175l-85 -82l-17 -93q-1 -10 -11 -10z" />
    <glyph glyph-name="lambda" unicode="&#x3bb;" horiz-adv-x="529" 
d="M139 0h-131q-11 0 -3 11l258 431l-11 50q-10 48 -20.5 63.5t-34.5 15.5h-5q-8 0 -10 2t0 9l15 85q1 13 15 13h19q65 0 97 -29t48 -112l79 -395q4 -21 11 -28t25 -7h5q10 0 9 -12l-16 -94q-1 -9 -14 -9h-13q-67 0 -98 23q-29 24 -41 95l-30 152h-3l-139 -255q-5 -9 -12 -9
z" />
    <glyph glyph-name="uni03BC" unicode="&#x3bc;" horiz-adv-x="553" 
d="M118 -180h-116q-9 0 -8 10l113 645q1 9 11 9h115q10 0 8 -11l-43 -245q-8 -46 -8 -61q0 -64 59 -64q34 0 59 23t33 67l50 282q1 9 12 9h116q8 0 6 -9l-55 -303q-5 -32 -5 -39q0 -24 26 -24q9 0 7 -9l-17 -96q-1 -10 -12 -10h-12q-59 0 -84.5 11t-31.5 38l-4 16h-2
q-15 -33 -48 -51.5t-71 -18.5q-31 0 -58 13l-30 -173q-2 -9 -10 -9z" />
    <glyph glyph-name="nu" unicode="&#x3bd;" horiz-adv-x="504" 
d="M277 0h-120q-7 0 -9 9l-86 464q-2 11 8 11h123q10 0 12 -11l46 -295h2l36 75q73 154 86 218q3 13 15 13h120q10 0 7 -13q-21 -100 -117 -266l-112 -196q-4 -9 -11 -9z" />
    <glyph glyph-name="xi" unicode="&#x3be;" horiz-adv-x="440" 
d="M261 -174q-13 -7 -16 -5q-1 0 -8 5l-43 52q-8 9 2 16q45 32 45 60q0 17 -10 27t-38 26q-91 51 -126 84q-33 35 -33 88q0 58 36.5 103.5t101.5 66.5v2q-64 31 -64 99q0 45 28 76t73 40v1h-96q-9 0 -8 10l17 94q2 9 10 9h325q11 0 9 -12l-15 -92q-109 -2 -153 -23t-44 -72
q0 -34 24.5 -50.5t82.5 -16.5h32q9 0 8 -10l-16 -87q-1 -10 -13 -10h-35q-70 0 -109.5 -27t-39.5 -73q-3 -18 16 -44q10 -10 35 -24l58 -34q84 -49 84 -114q0 -95 -120 -165z" />
    <glyph glyph-name="omicron" unicode="&#x3bf;" horiz-adv-x="504" 
d="M214 -11q-84 0 -133 46.5t-49 127.5q0 47 12 105q13 61 31 98q63 129 224 129q84 0 133 -46.5t49 -127.5q0 -47 -12 -105q-13 -61 -31 -98q-63 -129 -224 -129zM232 102q55 0 82 55q11 24 22 74q10 47 10 77q0 74 -65 74q-55 0 -82 -55q-11 -24 -22 -75q-10 -47 -10 -76
q0 -74 65 -74z" />
    <glyph glyph-name="pi" unicode="&#x3c0;" horiz-adv-x="604" 
d="M482 -6h-29q-61 0 -89.5 24t-28.5 75q0 15 5 48l39 218q0 6 -4 6h-116q-5 0 -7 -6l-63 -349q-1 -10 -10 -10h-114q-9 0 -9 8v2l63 349q0 6 -5 6h-42q-9 0 -9 8v2l18 99q1 10 11 10h491q8 0 8 -8v-2l-18 -99q-1 -10 -11 -10h-44q-7 0 -7 -6l-37 -210q0 -3 -0.5 -5.5
t-1 -4.5t-0.5 -3.5v-2.5q0 -24 27 -24h4q8 0 8 -8v-2l-17 -95q-1 -10 -12 -10z" />
    <glyph glyph-name="rho" unicode="&#x3c1;" horiz-adv-x="514" 
d="M102 -180h-115q-9 0 -8 10l73 417q22 129 84.5 188.5t174.5 59.5q86 0 134 -46.5t48 -127.5q0 -46 -14 -113q-14 -65 -37 -106q-65 -113 -176 -113q-86 0 -114 60h-1l-38 -219q-1 -10 -11 -10zM244 102q55 0 82 55q11 24 22 74q10 47 10 77q0 74 -65 74q-55 0 -82 -55
q-11 -24 -22 -75q-10 -47 -10 -76q0 -74 65 -74z" />
    <glyph glyph-name="sigma1" unicode="&#x3c2;" horiz-adv-x="453" 
d="M248 -177q-10 -7 -18 2l-45 54q-6 7 3 15q45 33 45 61q0 17 -8 28q-7 9 -40 32l-12 8q-30 20 -54 38q-17 12 -42 41q-45 51 -45 141q0 116 68 184t181 68q95 0 155 -29q9 -5 5 -15l-35 -94q-4 -11 -19 -7q-58 18 -97 18q-53 0 -85 -31.5t-32 -89.5q0 -19 4 -32
q1 -3 3.5 -10t3.5 -9.5t3.5 -7.5t6 -9t9.5 -9l20 -16l30 -20l33 -20q49 -32 68 -60t19 -66q0 -94 -125 -165z" />
    <glyph glyph-name="sigma" unicode="&#x3c3;" horiz-adv-x="539" 
d="M213 -11q-90 0 -137.5 48t-47.5 126q0 57 15 119q54 202 262 202h246q9 0 7 -8l-16 -92q-2 -9 -12 -9h-77v-1q32 -33 17.5 -133.5t-60.5 -161.5q-68 -90 -197 -90zM228 102q49 0 76 43q12 18 25 73q13 52 13 89q0 50 -26 70h-23q-57 0 -82 -28q-25 -26 -40 -108
q-8 -51 -8 -66q0 -73 65 -73z" />
    <glyph glyph-name="tau" unicode="&#x3c4;" horiz-adv-x="437" 
d="M248 -11q-126 0 -126 106q0 21 8 64l41 200q1 6 -5 6h-111q-9 0 -8 10l18 99q1 10 11 10h372q8 0 7 -10l-18 -99q-1 -10 -11 -10h-113q-6 0 -7 -7l-37 -176q-8 -37 -8 -49q0 -29 35 -29q16 0 40 2q7 1 9 -7l9 -83q2 -11 -9 -14q-42 -13 -97 -13z" />
    <glyph glyph-name="upsilon" unicode="&#x3c5;" horiz-adv-x="538" 
d="M266 102q80 0 97 95l49 277q1 10 11 10h106q9 0 8 -10l-47 -262q-20 -112 -75 -168q-54 -55 -169 -55q-172 0 -172 165q0 28 7 66l21 117q4 17 4 28q0 10 -4 13t-16 3q-14 0 -11 12l16 88q1 9 10 9h24q110 0 110 -88q0 -24 -5 -49l-27 -148q-5 -28 -5 -45q0 -58 68 -58z
" />
    <glyph glyph-name="phi" unicode="&#x3c6;" horiz-adv-x="665" 
d="M316 -180h-106q-8 0 -7 10l28 152q-97 10 -148.5 63t-51.5 145q0 80 31 154q19 43 50 79q31 37 86 59.5t123 23.5l15 91q1 10 11 10h105q8 0 7 -10l-15 -91q97 -11 148 -64t51 -144q0 -62 -17 -117t-50.5 -100.5t-91 -72t-131.5 -26.5l-26 -152q-1 -10 -11 -10zM250 95
l52 303q-60 -3 -92 -35q-29 -31 -46 -116q-6 -34 -6 -58q0 -43 21 -65.5t71 -28.5zM425 398l-52 -303q60 3 91 35q30 30 47 116q6 35 6 58q0 43 -21 65.5t-71 28.5z" />
    <glyph glyph-name="chi" unicode="&#x3c7;" horiz-adv-x="558" 
d="M89 -180h-130q-7 0 -2 8l250 343l-65 148q-16 36 -30 47q-15 12 -45 16q-7 1 -6 11l15 84q1 13 14 13q84 0 116 -25q33 -24 61 -94l31 -78h1l127 181q7 10 15 10h134q10 0 3 -12l-229 -315l78 -174q24 -53 61 -54h8q12 0 9 -13l-16 -93q-1 -9 -15 -9h-18
q-54 0 -85.5 18.5t-52.5 65.5l-62 136h-1l-143 -205q-6 -9 -23 -9z" />
    <glyph glyph-name="psi" unicode="&#x3c8;" horiz-adv-x="702" 
d="M351 -180h-105q-9 0 -8 10l27 158q-188 3 -188 166q0 28 7 66l21 117q4 17 4 28q0 10 -4 13t-16 3q-14 0 -11 12l16 88q2 9 10 9h24q110 0 110 -88q0 -11 -5 -49l-24 -134q-7 -46 -7 -50q0 -36 17.5 -51t65.5 -18l86 497q1 10 12 10h103q9 0 8 -10l-86 -497q60 2 82 22
q25 23 35 82l48 270q1 10 11 10h106q9 0 8 -10l-47 -264q-22 -124 -82 -173q-59 -49 -180 -49l-27 -158q-1 -10 -11 -10z" />
    <glyph glyph-name="omega" unicode="&#x3c9;" horiz-adv-x="727" 
d="M191 -11q-71 0 -113.5 49.5t-42.5 142.5t34 176q35 84 87 129q12 8 20 4l94 -34q10 -4 -1 -18q-47 -56 -73.5 -123.5t-26.5 -129.5q0 -37 15 -56.5t41 -19.5q53 0 68 93l17 110q3 14 14 14h109q9 0 8 -14l-16 -102q-6 -34 -6 -57q0 -48 46 -48q41 0 64 50q23 51 23 120
q0 72 -31 156q-5 11 4 14l104 44q9 4 14 -2q49 -77 49 -202q0 -78 -22 -143q-23 -68 -73 -110.5t-116 -42.5q-113 0 -134 103h-3q-21 -48 -62.5 -75.5t-90.5 -27.5z" />
    <glyph glyph-name="iotadieresis" unicode="&#x3ca;" horiz-adv-x="301" 
d="M166 -11q-130 0 -130 109q0 24 15 95l58 281q1 10 12 10h116q9 0 8 -10l-66 -311q-4 -15 -4 -28q0 -31 34 -31q17 0 37 2q9 1 10 -6l9 -84q2 -11 -7 -14q-35 -13 -92 -13zM341 566h-89q-9 0 -8 10l18 95q1 10 11 10h89q9 0 8 -10l-18 -95q-1 -10 -11 -10zM148 566h-89
q-9 0 -8 10l18 95q1 10 11 10h88q9 0 8 -10l-17 -95q-1 -10 -11 -10z" />
    <glyph glyph-name="upsilondieresis" unicode="&#x3cb;" horiz-adv-x="538" 
d="M266 102q80 0 97 95l49 277q1 10 11 10h106q9 0 8 -10l-47 -262q-20 -112 -75 -168q-54 -55 -169 -55q-172 0 -172 165q0 28 7 66l21 117q4 17 4 28q0 10 -4 13t-16 3q-14 0 -11 12l16 88q1 9 10 9h24q110 0 110 -88q0 -24 -5 -49l-27 -148q-5 -28 -5 -45q0 -58 68 -58z
M473 566h-89q-9 0 -8 10l18 95q1 10 11 10h89q9 0 8 -10l-18 -95q-1 -10 -11 -10zM280 566h-89q-9 0 -8 10l18 95q1 10 11 10h88q9 0 8 -10l-17 -95q-1 -10 -11 -10z" />
    <glyph glyph-name="omicrontonos" unicode="&#x3cc;" horiz-adv-x="504" 
d="M214 -11q-84 0 -133 46.5t-49 127.5q0 47 12 105q13 61 31 98q63 129 224 129q84 0 133 -46.5t49 -127.5q0 -47 -12 -105q-13 -61 -31 -98q-63 -129 -224 -129zM232 102q55 0 82 55q11 24 22 74q10 47 10 77q0 74 -65 74q-55 0 -82 -55q-11 -24 -22 -75q-10 -47 -10 -76
q0 -74 65 -74zM355 551h-96q-9 0 -5 10l65 130q4 10 15 10h129q11 0 4 -10l-98 -131q-6 -9 -14 -9z" />
    <glyph glyph-name="upsilontonos" unicode="&#x3cd;" horiz-adv-x="538" 
d="M266 102q80 0 97 95l49 277q1 10 11 10h106q9 0 8 -10l-47 -262q-20 -112 -75 -168q-54 -55 -169 -55q-172 0 -172 165q0 28 7 66l21 117q4 17 4 28q0 10 -4 13t-16 3q-14 0 -11 12l16 88q1 9 10 9h24q110 0 110 -88q0 -24 -5 -49l-27 -148q-5 -28 -5 -45q0 -58 68 -58z
M367 551h-96q-9 0 -5 10l65 130q4 10 15 10h129q11 0 4 -10l-98 -131q-6 -9 -14 -9z" />
    <glyph glyph-name="omegatonos" unicode="&#x3ce;" horiz-adv-x="727" 
d="M191 -11q-71 0 -113.5 49.5t-42.5 142.5t34 176q35 84 87 129q12 8 20 4l94 -34q10 -4 -1 -18q-47 -56 -73.5 -123.5t-26.5 -129.5q0 -37 15 -56.5t41 -19.5q53 0 68 93l17 110q3 14 14 14h109q9 0 8 -14l-16 -102q-6 -34 -6 -57q0 -48 46 -48q41 0 64 50q23 51 23 120
q0 72 -31 156q-5 11 4 14l104 44q9 4 14 -2q49 -77 49 -202q0 -78 -22 -143q-23 -68 -73 -110.5t-116 -42.5q-113 0 -134 103h-3q-21 -48 -62.5 -75.5t-90.5 -27.5zM458 551h-96q-9 0 -5 10l65 130q4 10 15 10h129q5 0 6 -3.5t-2 -6.5l-98 -131q-6 -9 -14 -9z" />
    <glyph glyph-name="uni0400" unicode="&#x400;" horiz-adv-x="542" 
d="M456 0h-417q-10 0 -9 10l117 660q1 10 11 10h418q9 0 8 -10l-18 -102q-1 -10 -11 -10h-282q-5 0 -7 -6l-25 -143q-1 -6 5 -6h234q9 0 8 -10l-18 -100q-1 -10 -12 -10h-234q-6 0 -7 -6l-26 -149q-1 -6 5 -6h282q9 0 8 -10l-19 -102q-1 -10 -11 -10zM424 755h-87
q-9 0 -17 8l-96 115q-3 4 -1.5 7.5t6.5 3.5h108q13 0 20 -10l73 -114q2 -4 0 -7t-6 -3z" />
    <glyph glyph-name="uni0401" unicode="&#x401;" horiz-adv-x="542" 
d="M456 0h-417q-10 0 -9 10l117 660q1 10 11 10h418q9 0 8 -10l-18 -102q-1 -10 -11 -10h-282q-5 0 -7 -6l-25 -143q-1 -6 5 -6h234q9 0 8 -10l-18 -100q-1 -10 -12 -10h-234q-6 0 -7 -6l-26 -149q-1 -6 5 -6h282q9 0 8 -10l-19 -102q-1 -10 -11 -10zM527 762h-89
q-9 0 -8 10l18 94q1 10 11 10h88q9 0 8 -10l-17 -94q-1 -10 -11 -10zM334 762h-89q-10 0 -9 10l18 94q1 10 11 10h89q9 0 8 -10l-17 -94q-1 -10 -11 -10z" />
    <glyph glyph-name="uni0402" unicode="&#x402;" horiz-adv-x="735" 
d="M294 0h-120q-10 0 -9 10l96 540q0 5 -4 6h-167q-10 0 -9 10l18 104q1 10 11 10h485q10 0 9 -10l-18 -104q-1 -10 -12 -10h-166q-6 0 -7 -6l-26 -145q-1 -4 1.5 -6t5.5 -1q79 22 142 22q84 0 133 -48t49 -136q0 -102 -75 -169q-74 -67 -196 -67h-33q-9 0 -8 10l17 102
q1 10 12 10h25q53 0 85 26.5t32 75.5q0 35 -22.5 54.5t-63.5 19.5q-59 0 -119 -23q-8 -3 -10 -12l-45 -253q-1 -10 -11 -10z" />
    <glyph glyph-name="uni0403" unicode="&#x403;" horiz-adv-x="490" 
d="M159 0h-120q-10 0 -9 10l117 660q1 10 11 10h395q10 0 9 -10l-20 -106q-2 -9 -11 -9h-259q-6 0 -7 -6l-95 -539q-1 -10 -11 -10zM370 755h-87q-5 0 -6.5 3t1.5 7l109 114q10 10 21 10h115q5 0 6.5 -3t-2.5 -7l-137 -116q-10 -8 -20 -8z" />
    <glyph glyph-name="uni0404" unicode="&#x404;" horiz-adv-x="560" 
d="M268 -11q-105 0 -161 54.5t-56 154.5q0 60 23 177q24 117 49 165q75 151 257 151q165 0 206 -143q3 -10 -7 -14l-100 -43q-10 -4 -13 6q-22 72 -99 72t-116 -71q-17 -30 -29 -88q-1 -7 6 -7h177q9 0 8 -9l-18 -102q-1 -9 -11 -9h-176q-9 0 -10 -7q-7 -38 -7 -60
q0 -105 97 -105q74 0 124 74q6 9 15 5l92 -46q8 -5 1 -15q-44 -72 -103.5 -106t-148.5 -34z" />
    <glyph glyph-name="uni0405" unicode="&#x405;" horiz-adv-x="574" 
d="M256 -11q-73 0 -142 26q-69 28 -100 66q-6 9 1 16l86 82q8 8 14 1q64 -67 160 -67q54 0 89.5 29.5t35.5 72.5q0 27 -20 42t-67 22l-33 5q-177 25 -177 170q0 107 74 172q76 65 193 65q132 0 212 -72q8 -6 0 -15l-71 -82q-8 -8 -14 -3q-65 49 -138 49q-47 0 -78 -27
t-31 -66q0 -27 20 -42.5t67 -22.5l33 -5q178 -27 178 -163q0 -118 -81 -185q-82 -68 -211 -68z" />
    <glyph glyph-name="uni0406" unicode="&#x406;" horiz-adv-x="266" 
d="M160 0h-121q-10 0 -9 10l117 660q1 10 11 10h121q9 0 8 -10l-117 -660q-1 -10 -10 -10z" />
    <glyph glyph-name="uni0407" unicode="&#x407;" horiz-adv-x="266" 
d="M160 0h-121q-10 0 -9 10l117 660q1 10 11 10h121q9 0 8 -10l-117 -660q-1 -10 -10 -10zM370 762h-89q-9 0 -8 10l18 94q1 10 11 10h88q9 0 8 -10l-17 -94q-1 -10 -11 -10zM177 762h-89q-10 0 -9 10l18 94q1 10 11 10h89q9 0 8 -10l-17 -94q-1 -10 -11 -10z" />
    <glyph glyph-name="uni0408" unicode="&#x408;" horiz-adv-x="497" 
d="M193 -11q-68 0 -121 25.5t-71 64.5q-3 8 5 14l95 64q9 5 13 -2q31 -40 76 -40q94 0 114 119l77 436q1 10 11 10h122q9 0 8 -10l-78 -439q-24 -129 -84 -185.5t-167 -56.5z" />
    <glyph glyph-name="uni0409" unicode="&#x409;" horiz-adv-x="985" 
d="M26 -4h-50q-9 0 -8 10l19 106q1 9 11 9h12q51 0 87 39q42 46 71 203l54 308q2 9 11 9h433q10 0 8 -9l-41 -232q-1 -6 5 -6h125q91 0 141.5 -48.5t50.5 -131.5q0 -119 -73 -186t-192 -67h-265q-9 0 -8 10l95 538q2 6 -5 6h-162q-5 0 -7 -6l-35 -196q-28 -142 -63.5 -218.5
t-84.5 -106.5t-129 -31zM583 122h114q51 0 83.5 32t32.5 85q0 34 -21.5 53.5t-60.5 19.5h-115q-4 0 -6 -6l-32 -178q-2 -6 5 -6z" />
    <glyph glyph-name="uni040A" unicode="&#x40a;" horiz-adv-x="958" 
d="M160 0h-121q-10 0 -9 10l117 660q1 10 11 10h121q9 0 8 -10l-44 -247q-1 -6 5 -6h215q5 0 7 6l44 247q1 10 11 10h120q10 0 9 -10l-43 -247q-1 -6 5 -6h123q90 0 140.5 -47t50.5 -129q0 -113 -71 -178q-71 -63 -186 -63h-267q-10 0 -9 10l49 279q2 6 -5 6h-215
q-4 0 -6 -6l-50 -279q-1 -10 -10 -10zM562 122h115q52 0 83 28t31 78q0 67 -81 67h-115q-5 0 -6 -6l-32 -161q-1 -6 5 -6z" />
    <glyph glyph-name="uni040B" unicode="&#x40b;" horiz-adv-x="735" 
d="M294 0h-120q-10 0 -9 10l96 540q0 6 -4 6h-167q-10 0 -9 10l18 104q1 10 11 10h485q10 0 9 -10l-18 -104q-1 -10 -12 -10h-166q-6 0 -7 -6l-26 -144q-1 -5 2.5 -7t6.5 1q94 20 157 20q86 0 126.5 -49t23.5 -142l-40 -220q-1 -9 -11 -9h-120q-10 0 -9 9l37 212
q7 37 -12.5 56t-63.5 19q-40 0 -107 -18q-12 -5 -15 -16l-45 -252q-1 -10 -11 -10z" />
    <glyph glyph-name="uni040C" unicode="&#x40c;" horiz-adv-x="619" 
d="M159 0h-120q-10 0 -9 10l117 660q1 10 11 10h120q10 0 9 -10l-46 -258q-1 -6 5 -6h40q52 0 88 62l73 126q31 56 66 72q35 18 90 18h47q10 0 9 -10l-18 -104q-1 -9 -12 -9h-14q-26 0 -39 -8t-27 -34l-54 -97q-30 -54 -70 -67v-4q36 -15 52 -79l25 -100q8 -32 19.5 -42.5
t37.5 -10.5h12q11 0 9 -9l-19 -104q-1 -10 -11 -10h-41q-56 0 -89 26.5t-47 88.5l-26 110q-13 60 -81 60h-42q-6 0 -7 -6l-47 -265q-1 -10 -11 -10zM428 755h-87q-5 0 -6.5 3t1.5 7l109 114q10 10 21 10h115q5 0 6.5 -3t-2.5 -7l-137 -116q-10 -8 -20 -8z" />
    <glyph glyph-name="uni040D" unicode="&#x40d;" horiz-adv-x="647" 
d="M149 0h-111q-9 0 -8 10l117 661q1 9 10 9h120q9 0 8 -9l-72 -407h3l318 408q6 8 14 8h111q11 0 9 -9l-117 -661q-1 -10 -11 -10h-119q-10 0 -9 10l73 407h-3l-318 -409q-6 -8 -15 -8zM474 755h-87q-9 0 -17 8l-96 115q-3 4 -1.5 7.5t6.5 3.5h108q13 0 20 -10l73 -114
q2 -4 0 -7t-6 -3z" />
    <glyph glyph-name="uni040E" unicode="&#x40e;" horiz-adv-x="572" 
d="M126 -4h-59q-11 0 -10 10l20 106q1 9 11 9h37q55 0 82 46l22 36l-138 465q-3 12 7 12h123q13 0 14 -9l85 -311h3l170 311q5 9 16 9h133q10 0 4 -11l-335 -561q-36 -61 -77 -86.5t-108 -25.5zM382 740q-124 0 -140 117q-2 13 8 14l63 8q10 1 11 -6q10 -48 62 -48
q50 0 77 48q3 7 13 6l63 -8q7 -1 2 -14q-39 -117 -159 -117z" />
    <glyph glyph-name="uni040F" unicode="&#x40f;" horiz-adv-x="632" 
d="M312 -133h-111q-8 0 -7 10l20 117q2 6 -4 6h-172q-10 0 -8 9l117 661q1 10 10 10h122q9 0 8 -10l-96 -539q-1 -3 1 -4.5t6 -1.5h206q6 0 7 6l95 539q1 10 10 10h123q9 0 8 -10l-117 -661q-2 -9 -11 -9h-168q-7 0 -8 -6l-19 -117q-1 -10 -12 -10z" />
    <glyph glyph-name="uni0410" unicode="&#x410;" horiz-adv-x="624" 
d="M121 0h-132q-9 0 -5 10l343 660q4 10 15 10h121q10 0 11 -10l105 -660q1 -10 -7 -10h-122q-11 0 -12 10l-16 122h-229l-59 -122q-4 -10 -13 -10zM373 500l-121 -248h155l-31 248h-3z" />
    <glyph glyph-name="uni0411" unicode="&#x411;" horiz-adv-x="588" 
d="M303 0h-265q-9 0 -8 10l117 661q1 9 10 9h417q10 0 9 -9l-19 -104q-2 -9 -11 -9h-280q-5 0 -7 -6l-23 -129q-1 -6 5 -6h121q92 0 141.5 -46t49.5 -130q0 -113 -71 -178q-71 -63 -186 -63zM194 120h114q51 0 82 29.5t31 80.5q0 33 -21 51t-60 18h-113q-5 0 -6 -6l-32 -167
q-1 -6 5 -6z" />
    <glyph glyph-name="uni0412" unicode="&#x412;" horiz-adv-x="585" 
d="M288 0h-249q-10 0 -9 10l117 660q1 10 11 10h254q179 0 179 -146q0 -125 -106 -179v-4q29 -13 47.5 -44t18.5 -74q0 -108 -70 -170.5t-193 -62.5zM194 113h108q48 0 78 30.5t30 80.5q0 68 -77 68h-107q-6 0 -7 -6l-29 -167q-2 -6 4 -6zM245 400h99q46 0 75.5 28.5
t29.5 74.5q0 64 -75 64h-100q-6 0 -7 -6l-27 -155q-2 -6 5 -6z" />
    <glyph glyph-name="uni0413" unicode="&#x413;" horiz-adv-x="490" 
d="M159 0h-120q-10 0 -9 10l117 660q1 10 11 10h395q10 0 9 -10l-20 -106q-2 -9 -11 -9h-259q-6 0 -7 -6l-95 -539q-1 -10 -11 -10z" />
    <glyph glyph-name="uni0414" unicode="&#x414;" horiz-adv-x="670" 
d="M61 -133h-112q-7 0 -6 10l41 239q2 9 10 9h38q12 0 18 9q57 84 91 176q36 99 65 277l14 84q2 9 11 9h435q9 0 8 -10l-96 -539q-2 -6 5 -6h57q4 0 7 -2.5t2 -6.5l-42 -239q-1 -10 -11 -10h-113q-7 0 -6 10l20 117q1 6 -4 6h-394q-7 0 -8 -6l-19 -117q-1 -10 -11 -10z
M200 125h231q5 0 7 6l75 420q1 6 -5 6h-165q-7 0 -7 -6l-2 -11q-49 -281 -137 -407q-5 -8 3 -8z" />
    <glyph glyph-name="uni0415" unicode="&#x415;" horiz-adv-x="542" 
d="M456 0h-417q-10 0 -9 10l117 660q1 10 11 10h418q9 0 8 -10l-18 -102q-1 -10 -11 -10h-282q-5 0 -7 -6l-25 -143q-1 -6 5 -6h234q9 0 8 -10l-18 -100q-1 -10 -12 -10h-234q-6 0 -7 -6l-26 -149q-1 -6 5 -6h282q9 0 8 -10l-19 -102q-1 -10 -11 -10z" />
    <glyph glyph-name="uni0416" unicode="&#x416;" horiz-adv-x="931" 
d="M39 -4h-48q-10 0 -9 10l19 105q1 9 11 9h13q27 0 41 9.5t30 39.5l59 114q14 27 38.5 46.5t50.5 24.5v4q-30 22 -42 76l-18 79q-10 48 -65 48h-11q-11 0 -9 11l18 102q1 10 11 10h48q100 0 123 -99l21 -90q20 -89 79 -89h22q5 0 7 6l46 258q1 10 12 10h119q10 0 9 -10
l-46 -258q0 -6 5 -6h23q54 0 90 62l66 120q31 57 69 77q37 19 100 19h40q10 0 9 -10l-18 -104q-2 -9 -12 -9h-17q-25 0 -37.5 -7.5t-24.5 -30.5l-49 -91q-32 -60 -76 -77v-4q36 -14 52 -80l27 -104q7 -27 18 -37t37 -10h12q10 0 9 -9l-19 -105q-1 -10 -11 -10h-56
q-52 0 -79.5 26t-41.5 87l-26 112q-15 61 -82 61h-25q-5 0 -7 -6l-47 -266q-1 -10 -11 -10h-120q-10 0 -9 10l47 266q2 6 -5 6h-28q-61 0 -96 -66l-57 -108q-36 -68 -72 -90q-35 -22 -107 -22z" />
    <glyph glyph-name="uni0417" unicode="&#x417;" horiz-adv-x="550" 
d="M244 -11q-75 0 -138.5 23t-101.5 64q-6 4 3 15l69 82q6 7 12 1q74 -63 153 -63q50 0 90 28t40 77q0 69 -93 69h-73q-3 0 -6 3t-2 7l17 99q1 10 12 10h74q47 0 79.5 28t32.5 73q0 31 -25 48t-69 17q-74 0 -156 -55q-11 -6 -15 1l-47 86q-4 9 3 13q115 76 233 76
q220 0 220 -171q0 -54 -30.5 -99.5t-82.5 -66.5v-4q32 -12 51.5 -48.5t19.5 -83.5q0 -103 -78 -166q-76 -63 -192 -63z" />
    <glyph glyph-name="uni0418" unicode="&#x418;" horiz-adv-x="647" 
d="M149 0h-111q-9 0 -8 10l117 661q1 9 10 9h120q9 0 8 -9l-72 -407h3l318 408q6 8 14 8h111q11 0 9 -9l-117 -661q-1 -10 -11 -10h-119q-10 0 -9 10l73 407h-3l-318 -409q-6 -8 -15 -8z" />
    <glyph glyph-name="uni0419" unicode="&#x419;" horiz-adv-x="647" 
d="M149 0h-111q-9 0 -8 10l117 661q1 9 10 9h120q9 0 8 -9l-72 -407h3l318 408q6 8 14 8h111q11 0 9 -9l-117 -661q-1 -10 -11 -10h-119q-10 0 -9 10l73 407h-3l-318 -409q-6 -8 -15 -8zM418 740q-124 0 -140 117q-2 13 8 14l63 8q10 1 11 -6q10 -48 62 -48q50 0 77 48
q3 7 13 6l63 -8q7 -1 2 -14q-39 -117 -159 -117z" />
    <glyph glyph-name="uni041A" unicode="&#x41a;" horiz-adv-x="619" 
d="M159 0h-120q-10 0 -9 10l117 660q1 10 11 10h120q10 0 9 -10l-46 -258q-1 -6 5 -6h40q52 0 88 62l73 126q31 56 66 72q35 18 90 18h47q10 0 9 -10l-18 -104q-1 -9 -12 -9h-14q-26 0 -39 -8t-27 -34l-54 -97q-30 -54 -70 -67v-4q36 -15 52 -79l25 -100q8 -32 19.5 -42.5
t37.5 -10.5h12q11 0 9 -9l-19 -104q-1 -10 -11 -10h-41q-56 0 -89 26.5t-47 88.5l-26 110q-13 60 -81 60h-42q-6 0 -7 -6l-47 -265q-1 -10 -11 -10z" />
    <glyph glyph-name="uni041B" unicode="&#x41b;" horiz-adv-x="654" 
d="M42 -4h-66q-9 0 -8 10l19 106q1 9 11 9h12q51 0 87 39q42 46 71 203l54 308q2 9 11 9h433q10 0 8 -9l-117 -661q-1 -10 -9 -10h-123q-9 0 -8 10l95 539q2 6 -5 6h-162q-5 0 -7 -6l-35 -197q-36 -204 -96 -280t-165 -76z" />
    <glyph glyph-name="uni041C" unicode="&#x41c;" horiz-adv-x="737" 
d="M147 0h-108q-10 0 -9 10l117 660q1 10 11 10h107q12 0 15 -10l97 -396h3l234 396q6 10 16 10h119q10 0 9 -10l-117 -660q-1 -10 -11 -10h-108q-10 0 -9 10l70 395h-4l-177 -298q-7 -13 -20 -13h-64q-12 0 -16 13l-71 298h-4l-70 -395q-1 -10 -10 -10z" />
    <glyph glyph-name="uni041D" unicode="&#x41d;" horiz-adv-x="634" 
d="M160 0h-121q-10 0 -9 10l117 660q1 10 11 10h121q9 0 8 -10l-45 -258q-2 -6 5 -6h214q5 0 7 6l46 258q1 10 11 10h121q10 0 9 -10l-117 -660q-1 -10 -11 -10h-121q-10 0 -9 10l47 265q2 6 -5 6h-215q-6 0 -7 -6l-47 -265q-1 -10 -10 -10z" />
    <glyph glyph-name="uni041E" unicode="&#x41e;" horiz-adv-x="602" 
d="M266 -11q-100 0 -157.5 54.5t-57.5 153.5q0 56 22 170q23 120 46 168q77 156 264 156q100 0 157.5 -54.5t57.5 -153.5q0 -55 -22 -171q-23 -120 -46 -167q-76 -156 -264 -156zM285 114q79 0 118 80q16 31 34 134q19 98 19 142q0 45 -24 70.5t-68 25.5q-78 0 -117 -80
q-15 -30 -35 -135q-19 -98 -19 -141q0 -45 24.5 -70.5t67.5 -25.5z" />
    <glyph glyph-name="uni041F" unicode="&#x41f;" horiz-adv-x="626" 
d="M160 0h-122q-9 0 -8 10l117 661q1 9 10 9h481q10 0 9 -9l-117 -661q-1 -10 -10 -10h-123q-9 0 -8 10l96 539q1 6 -5 6h-208q-6 0 -7 -6l-95 -539q-1 -10 -10 -10z" />
    <glyph glyph-name="uni0420" unicode="&#x420;" horiz-adv-x="582" 
d="M160 0h-121q-9 0 -8 10l117 660q1 10 10 10h253q92 0 143.5 -48.5t51.5 -130.5q0 -124 -74 -190q-74 -65 -196 -65h-117q-5 0 -7 -6l-41 -230q-1 -10 -11 -10zM240 368h108q51 0 83.5 32t32.5 85q0 34 -21.5 53.5t-60.5 19.5h-108q-6 0 -7 -6l-32 -178q-1 -6 5 -6z" />
    <glyph glyph-name="uni0421" unicode="&#x421;" horiz-adv-x="555" 
d="M262 -11q-97 0 -154 54.5t-57 153.5q0 53 21 169q23 120 47 168q79 157 258 157q79 0 131 -39.5t69 -111.5q1 -8 -7 -13l-106 -44q-9 -4 -13 6q-20 77 -90 77q-76 0 -114 -80q-14 -30 -35 -136q-19 -98 -19 -141q0 -44 23.5 -69.5t66.5 -25.5q69 0 115 78q6 9 15 5
l95 -51q7 -3 3 -13q-88 -144 -249 -144z" />
    <glyph glyph-name="uni0422" unicode="&#x422;" horiz-adv-x="538" 
d="M295 0h-121q-9 0 -8 10l95 539q1 6 -5 6h-166q-10 0 -9 10l19 105q1 10 11 10h485q10 0 9 -10l-19 -105q-1 -10 -11 -10h-167q-6 0 -7 -6l-95 -539q-1 -10 -11 -10z" />
    <glyph glyph-name="uni0423" unicode="&#x423;" horiz-adv-x="572" 
d="M126 -4h-59q-11 0 -10 10l20 106q1 9 11 9h37q55 0 82 46l22 36l-138 465q-3 12 7 12h123q13 0 14 -9l85 -311h3l170 311q5 9 16 9h133q10 0 4 -11l-335 -561q-36 -61 -77 -86.5t-108 -25.5z" />
    <glyph glyph-name="uni0424" unicode="&#x424;" horiz-adv-x="780" 
d="M412 -11h-122q-9 0 -8 10l13 73q1 6 -5 6q-116 8 -178.5 68.5t-62.5 162.5q0 140 89.5 221.5t247.5 89.5q6 0 7 6l10 55q1 10 11 10h122q8 0 7 -10l-10 -55q-1 -6 5 -6q116 -7 179.5 -67.5t63.5 -162.5q0 -141 -91 -222q-90 -81 -248 -90q-6 0 -7 -6l-13 -73
q-1 -10 -10 -10zM312 200q6 0 7 6l51 287q1 3 -1 4t-5 1q-80 -3 -127.5 -51.5t-47.5 -129.5q0 -109 123 -117zM465 200q82 5 128.5 53.5t46.5 129.5q0 109 -122 115q-6 0 -8 -5l-51 -287q-1 -6 6 -6z" />
    <glyph glyph-name="uni0425" unicode="&#x425;" horiz-adv-x="576" 
d="M124 0h-141q-5 0 -6 4t3 8l260 343l-128 313q-5 12 8 12h128q11 0 15 -10l72 -187h2l137 187q7 10 18 10h134q12 0 4 -12l-237 -315l137 -341q2 -4 0 -8t-7 -4h-126q-11 0 -15 10l-82 214h-2l-158 -214q-7 -10 -16 -10z" />
    <glyph glyph-name="uni0426" unicode="&#x426;" horiz-adv-x="643" 
d="M569 -133h-113q-7 0 -6 10l20 117q2 6 -4 6h-428q-10 0 -8 9l117 661q1 10 10 10h122q9 0 8 -10l-96 -539q-1 -6 5 -6h208q6 0 7 6l95 539q1 10 10 10h123q9 0 8 -10l-96 -539q-1 -6 5 -6h57q4 0 7 -2.5t2 -6.5l-42 -239q-1 -10 -11 -10z" />
    <glyph glyph-name="uni0427" unicode="&#x427;" horiz-adv-x="594" 
d="M507 0h-122q-9 0 -8 10l42 241q1 4 -1.5 5.5t-6.5 0.5q-82 -22 -150 -22q-82 0 -127 52q-44 53 -23 169l39 215q2 9 11 9h120q11 0 9 -9l-39 -219q-15 -92 69 -92q52 0 112 17q10 3 12 12l50 282q2 9 10 9h121q11 0 9 -9l-117 -661q-1 -10 -10 -10z" />
    <glyph glyph-name="uni0428" unicode="&#x428;" horiz-adv-x="923" 
d="M816 0h-778q-10 0 -8 9l117 661q1 10 10 10h122q9 0 8 -10l-96 -539q-1 -6 5 -6h177q5 0 7 6l95 539q1 10 9 10h123q9 0 8 -10l-95 -539q-2 -6 5 -6h176q5 0 7 6l96 539q1 10 9 10h122q10 0 9 -10l-117 -661q-1 -9 -11 -9z" />
    <glyph glyph-name="uni0429" unicode="&#x429;" horiz-adv-x="940" 
d="M865 -133h-112q-8 0 -7 10l20 117q2 6 -4 6h-724q-10 0 -8 9l117 661q1 10 10 10h122q9 0 8 -10l-96 -539q-1 -6 5 -6h177q5 0 7 6l95 539q1 10 9 10h123q9 0 8 -10l-95 -539q-2 -6 5 -6h176q5 0 7 6l96 539q1 10 9 10h122q10 0 9 -10l-96 -539q-2 -6 5 -6h56q4 0 7 -2.5
t2 -6.5l-42 -239q-1 -10 -11 -10z" />
    <glyph glyph-name="uni042A" unicode="&#x42a;" horiz-adv-x="694" 
d="M400 0h-264q-10 0 -9 10l96 539q0 6 -5 6h-129q-9 0 -8 10l19 105q1 10 10 10h264q11 0 10 -10l-41 -231q-1 -6 5 -6h124q92 0 142.5 -48.5t50.5 -131.5q0 -118 -74 -186q-73 -67 -191 -67zM292 122h115q51 0 83.5 32t32.5 85q0 34 -22 53.5t-61 19.5h-114q-6 0 -7 -6
l-31 -178q-2 -6 4 -6z" />
    <glyph glyph-name="uni042B" unicode="&#x42b;" horiz-adv-x="838" 
d="M303 0h-264q-10 0 -9 10l117 660q1 10 11 10h120q10 0 9 -10l-41 -231q-2 -6 5 -6h125q91 0 141.5 -48.5t50.5 -131.5q0 -119 -73 -186t-192 -67zM195 122h115q51 0 83.5 32t32.5 85q0 34 -21.5 53.5t-60.5 19.5h-115q-5 0 -6 -6l-32 -178q-1 -6 4 -6zM730 0h-119
q-10 0 -9 10l117 660q1 10 11 10h119q11 0 10 -10l-117 -660q-1 -10 -12 -10z" />
    <glyph glyph-name="uni042C" unicode="&#x42c;" horiz-adv-x="597" 
d="M303 0h-264q-10 0 -9 10l117 660q1 10 11 10h120q10 0 9 -10l-41 -231q-2 -6 5 -6h125q91 0 141.5 -48.5t50.5 -131.5q0 -119 -73 -186t-192 -67zM195 122h115q51 0 83.5 32t32.5 85q0 34 -21.5 53.5t-60.5 19.5h-115q-5 0 -6 -6l-32 -178q-1 -6 4 -6z" />
    <glyph glyph-name="uni042D" unicode="&#x42d;" horiz-adv-x="560" 
d="M232 -11q-83 0 -139 38.5t-75 105.5q-3 11 7 15l101 41q13 4 16 -5q21 -73 96 -73q83 0 122 69q19 33 31 96q2 8 -6 8h-179q-10 0 -8 9l18 102q2 9 11 9h179q8 0 9 7q4 28 4 56q0 47 -26.5 74.5t-74.5 27.5q-71 0 -119 -73q-6 -10 -15 -5l-93 50q-7 4 -2 14
q82 136 249 136q101 0 161 -55.5t60 -155.5q0 -62 -23 -180q-22 -113 -55 -173q-77 -138 -249 -138z" />
    <glyph glyph-name="uni042E" unicode="&#x42e;" horiz-adv-x="846" 
d="M520 -11q-95 0 -152.5 52t-57.5 144q0 26 10 90q0 6 -5 6h-90q-7 0 -8 -6l-47 -265q-1 -10 -10 -10h-121q-10 0 -9 10l117 660q1 10 11 10h121q9 0 8 -10l-46 -258q-1 -6 5 -6h91q5 0 7 6q24 102 56 153q84 126 231 126q97 0 155 -53t58 -148q0 -49 -23 -175
q-23 -124 -46 -170q-77 -156 -255 -156zM537 113q75 0 110 71q16 33 36 143q21 111 21 149q0 91 -84 91q-75 0 -112 -73q-16 -31 -36 -145q-20 -115 -20 -149q0 -39 23 -63t62 -24z" />
    <glyph glyph-name="uni042F" unicode="&#x42f;" horiz-adv-x="604" 
d="M42 -4h-42q-10 0 -9 10l19 106q2 9 11 9h17q24 0 38 10t30 38l42 69q22 36 53 51v4q-49 14 -79.5 55t-30.5 106q0 103 73 164q74 62 184 62h267q11 0 9 -9l-117 -661q-1 -10 -11 -10h-120q-10 0 -9 10l43 236q2 6 -5 6h-42q-19 0 -30.5 -2.5t-26.5 -14t-28 -33.5l-57 -96
q-36 -64 -73 -87q-38 -23 -106 -23zM313 374h112q5 0 7 6l31 172q1 6 -5 6h-113q-50 0 -82 -28t-32 -77q0 -36 22.5 -57.5t59.5 -21.5z" />
    <glyph glyph-name="uni0430" unicode="&#x430;" horiz-adv-x="509" 
d="M156 -11q-57 0 -94 34t-37 89q0 87 57.5 133t165.5 46h84q6 0 8 6l4 22q6 38 -12 53t-73 15q-63 0 -110 -32q-9 -6 -12 3l-30 75q-3 9 5 14q73 48 182 48q110 0 152 -40.5t25 -133.5l-56 -311q-1 -10 -11 -10h-106q-9 0 -8 10l5 33h-1q-46 -54 -138 -54zM215 89
q91 0 101 70l6 37q2 6 -5 6h-68q-94 0 -94 -68q0 -45 60 -45z" />
    <glyph glyph-name="uni0431" unicode="&#x431;" horiz-adv-x="520" 
d="M238 -11q-89 0 -140 45.5t-51 130.5q0 53 18 148q13 76 24 118q30 111 100 165q42 30 94 41l30 6l34 5q23 4 30 4q42 6 50 30q5 9 11 9h102q10 0 8 -9q-13 -67 -43.5 -100t-87.5 -41l-45 -5q-25 -1 -50 -5q-53 -7 -86 -33q-38 -30 -47 -90h3q45 66 145 66q76 0 117 -44.5
t41 -124.5q0 -67 -26 -145q-25 -76 -77 -120q-62 -51 -154 -51zM247 102q51 0 78 49q15 25 24 70q9 43 9 75q0 40 -15 56.5t-48 16.5q-54 0 -79 -43q-15 -24 -26 -74q-10 -44 -10 -77q0 -40 16.5 -56.5t50.5 -16.5z" />
    <glyph glyph-name="uni0432" unicode="&#x432;" horiz-adv-x="515" 
d="M280 0h-245q-4 0 -6.5 3t-1.5 6l82 466q1 9 11 9h242q131 0 131 -106q0 -43 -20.5 -77t-57.5 -48v-4q52 -20 52 -81q0 -79 -49 -123.5t-138 -44.5zM180 97h90q29 0 47.5 17t18.5 44q0 41 -46 41h-92q-6 0 -8 -5l-15 -92q-2 -5 5 -5zM214 292h89q24 0 41.5 15.5t17.5 39.5
q0 40 -45 40h-86q-6 0 -8 -5l-14 -85q-2 -5 5 -5z" />
    <glyph glyph-name="uni0433" unicode="&#x433;" horiz-adv-x="400" 
d="M150 0h-115q-4 0 -6.5 3t-1.5 6l82 466q1 9 10 9h307q10 0 8 -9l-16 -95q-2 -9 -12 -9h-177q-5 0 -7 -6l-62 -356q-2 -9 -10 -9z" />
    <glyph glyph-name="uni0434" unicode="&#x434;" horiz-adv-x="559" 
d="M62 -104h-101q-9 0 -7 9l35 200q1 9 10 9h27q12 0 20 12q29 43 53 107q25 67 43 172l12 70q2 9 12 9h361q9 0 8 -9l-63 -355q-2 -6 5 -6h43q10 0 8 -9l-36 -200q-2 -9 -9 -9h-102q-9 0 -7 9l15 89q1 6 -5 6h-288q-6 0 -8 -6l-15 -89q-1 -9 -11 -9zM179 114h153q6 0 7 6
l44 247q1 6 -5 6h-111q-5 0 -7 -6l-6 -34q-26 -138 -77 -212q-6 -7 2 -7z" />
    <glyph glyph-name="uni0435" unicode="&#x435;" horiz-adv-x="503" 
d="M222 -11q-90 0 -138.5 45.5t-48.5 131.5q0 117 40 196q64 133 225 133q80 0 129.5 -45t49.5 -125q0 -44 -13 -113q-1 -10 -12 -10h-283q-5 0 -7 -6q-1 -3 -1 -15q0 -84 87 -84q57 0 116 47q8 8 15 0l49 -59q8 -7 -1 -16q-88 -80 -207 -80zM187 291h156q5 0 7 6q3 15 3 27
q0 68 -70 68q-63 0 -88 -54q-8 -15 -12 -40q-1 -7 4 -7z" />
    <glyph glyph-name="uni0436" unicode="&#x436;" horiz-adv-x="743" 
d="M48 -4h-57q-11 0 -9 9l17 95q1 9 11 9h6q20 0 31 8.5t23 32.5l24 48q26 50 67 56v4q-12 13 -19 44l-10 42q-9 37 -48 37h-11q-11 0 -9 9l16 89q2 9 11 9h47q88 0 103 -77l13 -63q10 -46 52 -46h12q6 0 7 6l29 167q2 9 11 9h115q8 0 7 -9l-29 -167q-2 -6 5 -6h15
q34 0 61 49l39 73q21 38 46.5 51t75.5 13h47q11 0 9 -9l-16 -89q-2 -9 -11 -9h-9q-18 0 -28 -7t-21 -28l-24 -45q-22 -39 -45 -46v-4q19 -7 31 -48l15 -50q14 -45 43 -45h13q8 0 7 -9l-16 -94q-1 -9 -11 -9h-42q-92 0 -115 87l-16 65q-11 42 -57 42h-11q-7 0 -8 -6l-30 -175
q-1 -9 -10 -9h-115q-4 0 -6.5 3t-1.5 6l31 175q1 6 -5 6h-16q-46 0 -67 -42l-38 -77q-21 -41 -50.5 -58t-78.5 -17z" />
    <glyph glyph-name="uni0437" unicode="&#x437;" horiz-adv-x="463" 
d="M197 -11q-127 0 -197 64q-7 5 1 14l63 70q6 8 15 1q49 -40 110 -40q95 0 95 60q0 40 -66 40h-56q-8 0 -7 10l13 78q2 9 11 9h55q31 0 53 15t22 43q0 37 -72 37q-55 0 -116 -37q-10 -6 -13 1l-36 73q-5 9 5 14q86 54 193 54q85 0 131 -32.5t46 -87.5q0 -44 -22.5 -76
t-61.5 -44v-4q24 -7 39.5 -32.5t15.5 -55.5q0 -83 -63 -129q-63 -45 -158 -45z" />
    <glyph glyph-name="uni0438" unicode="&#x438;" horiz-adv-x="550" 
d="M148 0h-113q-4 0 -6.5 3t-1.5 6l82 466q1 9 11 9h112q10 0 8 -9l-47 -259h3l203 262q6 6 14 6h115q10 0 8 -9l-82 -466q-2 -9 -11 -9h-112q-9 0 -8 9l47 266h-3l-205 -267q-6 -8 -14 -8z" />
    <glyph glyph-name="uni0439" unicode="&#x439;" horiz-adv-x="550" 
d="M148 0h-113q-4 0 -6.5 3t-1.5 6l82 466q1 9 11 9h112q10 0 8 -9l-47 -259h3l203 262q6 6 14 6h115q10 0 8 -9l-82 -466q-2 -9 -11 -9h-112q-9 0 -8 9l47 266h-3l-205 -267q-6 -8 -14 -8zM332 544q-63 0 -98.5 30t-38.5 87q-1 13 9 15l59 10q9 1 11 -7q4 -22 20 -36.5
t40 -14.5q48 0 76 52q4 7 14 6l54 -9q11 -2 6 -16q-19 -60 -55.5 -88.5t-96.5 -28.5z" />
    <glyph glyph-name="uni043A" unicode="&#x43a;" horiz-adv-x="513" 
d="M150 0h-115q-4 0 -6.5 3t-1.5 6l82 466q1 9 11 9h115q9 0 7 -9l-29 -167q-1 -6 5 -6h28q38 0 63 49l41 76q21 36 49 48.5t87 12.5h31q11 0 9 -9l-16 -89q-2 -9 -11 -9h-8q-18 0 -27 -6t-20 -27l-25 -47q-18 -37 -48 -46v-4q19 -7 31 -48l16 -50q7 -24 16.5 -34.5
t26.5 -10.5h12q9 0 7 -9l-16 -94q-2 -9 -11 -9h-42q-91 0 -113 87l-17 65q-11 41 -59 41h-24q-6 0 -7 -6l-31 -174q-2 -9 -10 -9z" />
    <glyph glyph-name="uni043B" unicode="&#x43b;" horiz-adv-x="552" 
d="M30 -4h-42q-10 0 -8 9l17 96q1 9 10 9h8q39 0 65 30t39 105l41 230q2 9 10 9h362q8 0 7 -9l-82 -466q-1 -9 -10 -9h-114q-4 0 -7 3t-2 6l63 356q1 6 -5 6h-109q-5 0 -7 -6l-21 -122q-22 -136 -74 -192q-51 -55 -141 -55z" />
    <glyph glyph-name="uni043C" unicode="&#x43c;" horiz-adv-x="643" 
d="M145 0h-110q-4 0 -6.5 3t-1.5 6l82 466q1 9 11 9h114q8 0 9 -7l74 -269h3l168 269q4 7 13 7h121q8 0 7 -9l-82 -466q-1 -9 -10 -9h-109q-4 0 -7 3t-2 6l44 247h-3l-119 -185q-6 -9 -13 -9h-62q-7 0 -10 9l-54 185h-3l-44 -247q-1 -9 -10 -9z" />
    <glyph glyph-name="uni043D" unicode="&#x43d;" horiz-adv-x="537" 
d="M150 0h-115q-4 0 -6.5 3t-1.5 6l82 466q1 9 11 9h115q9 0 7 -9l-29 -167q-1 -6 6 -6h134q5 0 7 6l30 167q2 9 11 9h114q9 0 8 -9l-82 -466q-1 -9 -11 -9h-114q-4 0 -7 3t-2 6l31 174q2 6 -6 6h-134q-6 0 -7 -6l-31 -174q-2 -9 -10 -9z" />
    <glyph glyph-name="uni043E" unicode="&#x43e;" horiz-adv-x="508" 
d="M217 -11q-84 0 -133 46.5t-49 127.5q0 47 12 105q13 61 31 98q63 129 224 129q84 0 133 -46.5t49 -127.5q0 -47 -12 -105q-13 -61 -31 -98q-63 -129 -224 -129zM235 102q55 0 82 55q11 24 22 74q10 47 10 77q0 74 -65 74q-55 0 -82 -55q-11 -24 -22 -75q-10 -47 -10 -76
q0 -74 65 -74z" />
    <glyph glyph-name="uni043F" unicode="&#x43f;" horiz-adv-x="533" 
d="M150 0h-115q-4 0 -6.5 3t-1.5 6l82 466q1 9 11 9h392q8 0 7 -9l-82 -466q-1 -9 -10 -9h-114q-4 0 -7 3t-2 6l62 356q2 6 -5 6h-131q-6 0 -7 -6l-63 -356q-2 -9 -10 -9z" />
    <glyph glyph-name="uni0440" unicode="&#x440;" horiz-adv-x="530" 
d="M120 -180h-115q-9 0 -8 10l113 644q1 10 11 10h115q9 0 8 -10l-6 -37h1q46 58 132 58q68 0 103.5 -41.5t35.5 -117.5q0 -50 -14 -123q-14 -72 -36 -115q-54 -109 -176 -109q-88 0 -114 59h-1l-38 -218q-1 -10 -11 -10zM260 102q55 0 82 55q12 23 21 72q10 47 10 79
q0 74 -64 74q-55 0 -82 -55q-11 -23 -21 -72q-10 -47 -10 -79q0 -74 64 -74z" />
    <glyph glyph-name="uni0441" unicode="&#x441;" horiz-adv-x="460" 
d="M214 -11q-82 0 -130.5 46t-48.5 126q0 40 11 101q10 58 32 103q64 130 221 130q121 0 158 -97q3 -9 -4 -13l-87 -49q-10 -7 -16 3q-22 43 -64 43q-56 0 -83 -55q-12 -23 -23 -75q-9 -48 -9 -75q0 -75 64 -75q43 0 84 45q7 7 13 3l76 -55q8 -5 1 -14q-66 -92 -195 -92z
" />
    <glyph glyph-name="uni0442" unicode="&#x442;" horiz-adv-x="422" 
d="M232 0h-114q-4 0 -7 3t-2 6l63 356q2 6 -5 6h-121q-10 0 -8 9l17 95q1 9 10 9h385q8 0 7 -9l-16 -95q-1 -9 -11 -9h-118q-6 0 -7 -6l-63 -356q-2 -9 -10 -9z" />
    <glyph glyph-name="uni0443" unicode="&#x443;" horiz-adv-x="492" 
d="M56 -180h-33q-9 0 -8 10l16 94q1 10 12 10h21q47 0 74 52l18 37l-94 451q-1 10 8 10h119q9 0 10 -10l44 -287h2l140 287q4 10 14 10h120q11 0 7 -10l-283 -516q-43 -80 -84 -108q-41 -30 -103 -30z" />
    <glyph glyph-name="uni0444" unicode="&#x444;" horiz-adv-x="694" 
d="M337 -180h-115q-10 0 -8 9l29 160q1 6 -5 6q-102 7 -155.5 59.5t-53.5 144.5q0 78 32.5 142.5t90.5 100.5q69 42 172 46q6 0 7 6l32 177q1 9 10 9h115q10 0 8 -9l-31 -177q-1 -6 5 -6q102 -7 155 -59.5t53 -143.5q0 -76 -32.5 -142t-89.5 -101q-69 -42 -173 -47
q-5 0 -7 -6l-29 -160q-1 -9 -10 -9zM258 104q6 0 7 6l46 263q1 6 -5 6q-53 -2 -86 -29q-26 -21 -41 -62.5t-15 -87.5q0 -92 94 -96zM401 104q51 3 86 29q28 23 41 66q15 44 15 85q0 92 -94 95q-5 0 -7 -6l-46 -263q-2 -6 5 -6z" />
    <glyph glyph-name="uni0445" unicode="&#x445;" horiz-adv-x="497" 
d="M116 0h-127q-5 0 -7 3.5t1 6.5l203 243l-106 221q-4 10 8 10h119q11 0 14 -8l52 -118h1l94 118q6 8 16 8h125q5 0 6.5 -3t-1.5 -7l-185 -223l114 -241q4 -10 -8 -10h-118q-9 0 -14 9l-61 135h-1l-108 -135q-6 -9 -17 -9z" />
    <glyph glyph-name="uni0446" unicode="&#x446;" horiz-adv-x="543" 
d="M468 -104h-102q-8 0 -7 9l15 89q2 6 -4 6h-334q-10 0 -8 9l82 466q2 9 11 9h115q8 0 7 -9l-62 -355q-1 -6 5 -6h131q5 0 7 6l63 355q1 9 11 9h115q9 0 7 -9l-63 -355q-1 -6 5 -6h43q9 0 8 -9l-36 -200q-1 -9 -9 -9z" />
    <glyph glyph-name="uni0447" unicode="&#x447;" horiz-adv-x="508" 
d="M416 0h-114q-4 0 -7 3t-2 6l28 158q1 5 -0.5 6t-7.5 0q-65 -17 -116 -17q-71 0 -103.5 42t-17.5 122l27 155q1 9 11 9h114q10 0 8 -9l-26 -150q-11 -59 48 -59q33 0 77 14q6 2 8 8l32 187q1 9 12 9h114q9 0 7 -9l-82 -466q-2 -9 -10 -9z" />
    <glyph glyph-name="uni0448" unicode="&#x448;" horiz-adv-x="771" 
d="M667 0h-631q-10 0 -8 9l82 466q2 9 11 9h115q3 0 5.5 -3t1.5 -6l-63 -355q-2 -6 5 -6h114q5 0 7 6l63 355q1 9 11 9h113q9 0 8 -9l-62 -355q-1 -6 5 -6h112q6 0 7 6l63 355q2 9 11 9h114q9 0 8 -9l-82 -466q-1 -9 -10 -9z" />
    <glyph glyph-name="uni0449" unicode="&#x449;" horiz-adv-x="782" 
d="M707 -104h-103q-8 0 -6 9l15 89q1 6 -4 6h-573q-10 0 -8 9l82 466q2 9 11 9h115q3 0 5.5 -3t1.5 -6l-63 -355q-2 -6 5 -6h114q5 0 7 6l63 355q1 9 11 9h113q9 0 8 -9l-62 -355q-1 -6 5 -6h112q6 0 7 6l63 355q2 9 11 9h114q9 0 8 -9l-62 -355q-1 -6 5 -6h42q10 0 8 -9
l-35 -200q-1 -9 -10 -9z" />
    <glyph glyph-name="uni044A" unicode="&#x44a;" horiz-adv-x="549" 
d="M331 0h-239q-4 0 -7 3t-2 6l63 356q2 6 -5 6h-96q-9 0 -7 9l17 95q1 9 10 9h226q9 0 7 -9l-26 -154q-2 -6 5 -6h105q63 0 100.5 -38t37.5 -99q0 -79 -52 -128q-53 -50 -137 -50zM237 104h90q29 0 47 16t18 45q0 48 -50 48h-86q-6 0 -7 -6l-17 -97q-2 -6 5 -6z" />
    <glyph glyph-name="uni044B" unicode="&#x44b;" horiz-adv-x="714" 
d="M273 0h-238q-4 0 -6.5 3t-1.5 6l82 466q1 9 11 9h115q9 0 7 -9l-27 -154q-1 -6 5 -6h104q63 0 100.5 -38t37.5 -99q0 -79 -52 -128q-53 -50 -137 -50zM181 104h89q30 0 48 16t18 45q0 22 -13 35t-37 13h-86q-6 0 -7 -6l-17 -97q-2 -6 5 -6zM607 0h-113q-10 0 -9 10
l82 464q1 10 12 10h113q9 0 8 -10l-82 -464q-1 -10 -11 -10z" />
    <glyph glyph-name="uni044C" unicode="&#x44c;" horiz-adv-x="493" 
d="M275 0h-240q-4 0 -6.5 3t-1.5 6l82 466q1 9 11 9h115q9 0 7 -9l-27 -154q-1 -6 5 -6h106q63 0 100.5 -38t37.5 -99q0 -79 -52 -128q-53 -50 -137 -50zM181 104h89q30 0 48 16t18 45q0 22 -13 35t-37 13h-86q-6 0 -7 -6l-17 -97q-2 -6 5 -6z" />
    <glyph glyph-name="uni044D" unicode="&#x44d;" horiz-adv-x="462" 
d="M179 -11q-62 0 -106.5 26t-66.5 70q-3 7 7 14l73 54q10 5 14 -4q30 -51 86 -51q54 0 82 42q14 23 20 49q1 3 -1 4.5t-6 1.5h-119q-8 0 -7 9l15 82q1 10 10 10h121q7 0 7 6v12q0 73 -71 73q-60 0 -97 -46q-8 -11 -16 -4l-63 57q-7 5 0 13q73 88 197 88q87 0 135.5 -46.5
t48.5 -128.5q0 -63 -19 -133q-18 -71 -50 -112q-68 -86 -194 -86z" />
    <glyph glyph-name="uni044E" unicode="&#x44e;" horiz-adv-x="729" 
d="M445 -11q-90 0 -135 52.5t-40 141.5q0 6 -5 6h-67q-6 0 -7 -6l-31 -174q-2 -9 -10 -9h-115q-4 0 -6.5 3t-1.5 6l82 466q1 9 11 9h115q9 0 7 -9l-29 -167q-1 -6 5 -6h66q6 0 7 6q19 59 44 93q36 49 81.5 71.5t111.5 22.5q85 0 131.5 -46.5t46.5 -129.5q0 -109 -42 -198
q-62 -132 -219 -132zM461 102q53 0 78 55q10 19 21 70q11 53 11 77q0 78 -60 78q-51 0 -78 -56q-31 -63 -31 -148q0 -76 59 -76z" />
    <glyph glyph-name="uni044F" unicode="&#x44f;" horiz-adv-x="517" 
d="M42 -4h-28q-10 0 -8 9l16 92q1 10 11 10h12q30 0 49 31l20 33q14 24 31 32v3q-34 8 -55.5 39.5t-21.5 71.5q0 79 59 123q61 44 150 44h218q9 0 8 -9l-82 -466q-1 -9 -10 -9h-114q-11 0 -9 9l26 152q2 6 -5 6h-16q-37 0 -62 -42l-36 -59q-25 -43 -59 -57q-32 -13 -94 -13z
M250 265h79q5 0 7 5l18 108q2 6 -5 6h-79q-30 0 -51.5 -19t-21.5 -48q0 -23 14.5 -37.5t38.5 -14.5z" />
    <glyph glyph-name="uni0450" unicode="&#x450;" horiz-adv-x="503" 
d="M222 -11q-90 0 -138.5 45.5t-48.5 131.5q0 117 40 196q64 133 225 133q80 0 129.5 -45t49.5 -125q0 -44 -13 -113q-1 -10 -12 -10h-283q-5 0 -7 -6q-1 -3 -1 -15q0 -84 87 -84q57 0 116 47q8 8 15 0l49 -59q8 -7 -1 -16q-88 -80 -207 -80zM187 291h156q5 0 7 6q3 15 3 27
q0 68 -70 68q-63 0 -88 -54q-8 -15 -12 -40q-1 -7 4 -7zM340 551h-81q-10 0 -17 10l-72 130q-2 4 0 7t7 3h104q12 0 15 -10l52 -130q3 -10 -8 -10z" />
    <glyph glyph-name="uni0451" unicode="&#x451;" horiz-adv-x="503" 
d="M222 -11q-90 0 -138.5 45.5t-48.5 131.5q0 117 40 196q64 133 225 133q80 0 129.5 -45t49.5 -125q0 -44 -13 -113q-1 -10 -12 -10h-283q-5 0 -7 -6q-1 -3 -1 -15q0 -84 87 -84q57 0 116 47q8 8 15 0l49 -59q8 -7 -1 -16q-88 -80 -207 -80zM187 291h156q5 0 7 6q3 15 3 27
q0 68 -70 68q-63 0 -88 -54q-8 -15 -12 -40q-1 -7 4 -7zM447 566h-89q-9 0 -8 10l18 95q1 10 11 10h89q9 0 8 -10l-18 -95q-1 -10 -11 -10zM254 566h-89q-9 0 -8 10l18 95q1 10 11 10h88q9 0 8 -10l-17 -95q-1 -10 -11 -10z" />
    <glyph glyph-name="uni0452" unicode="&#x452;" horiz-adv-x="533" 
d="M237 -180h-32q-8 0 -7 10l17 94q1 10 11 10h16q30 0 43.5 12t19.5 45l53 297q8 44 -6.5 68.5t-49.5 24.5t-59 -24.5t-32 -66.5l-49 -280q-1 -10 -10 -10h-115q-10 0 -9 10l91 513q1 6 -5 6h-65q-9 0 -8 10l13 75q1 10 12 10h64q6 0 7 6l7 40q1 10 11 10h116q9 0 8 -10
l-8 -40q-1 -6 5 -6h96q9 0 8 -10l-12 -75q-1 -10 -12 -10h-97q-5 0 -7 -6l-15 -85h2q49 57 131 57q75 0 108.5 -49.5t18.5 -131.5l-58 -322q-18 -99 -62 -136q-43 -36 -140 -36z" />
    <glyph glyph-name="uni0453" unicode="&#x453;" horiz-adv-x="400" 
d="M150 0h-115q-4 0 -6.5 3t-1.5 6l82 466q1 9 10 9h307q10 0 8 -9l-16 -95q-2 -9 -12 -9h-177q-5 0 -7 -6l-62 -356q-2 -9 -10 -9zM277 551h-86q-11 0 -4 10l95 130q7 10 19 10h111q5 0 6 -3.5t-3 -7.5l-118 -129q-10 -10 -20 -10z" />
    <glyph glyph-name="uni0454" unicode="&#x454;" horiz-adv-x="462" 
d="M220 -11q-87 0 -136 49.5t-49 134.5q0 61 20 133q19 72 57 114q68 75 181 75t171 -91q4 -7 -6 -14l-72 -51q-8 -6 -14 3q-30 46 -82 46q-41 0 -66 -23q-24 -24 -34 -63q-1 -7 4 -7h122q9 0 8 -10l-14 -81q-2 -9 -11 -9h-123q-6 0 -7 -7q-1 -4 -1 -18q0 -34 18.5 -53.5
t52.5 -19.5q58 0 103 48q10 11 15 3l61 -57q7 -6 1 -14q-75 -88 -199 -88z" />
    <glyph glyph-name="uni0455" unicode="&#x455;" horiz-adv-x="487" 
d="M219 -11q-131 0 -204 76q-6 6 2 14l72 67q8 6 14 0q59 -51 134 -51q37 0 61 17t24 41q0 33 -57 37l-51 5q-63 7 -97.5 38.5t-34.5 82.5q0 84 60 131q61 48 158 48q53 0 101 -17t78 -44q7 -6 -1 -14l-64 -65q-6 -7 -14 -2q-53 38 -117 38q-32 0 -51.5 -14.5t-19.5 -35.5
q0 -16 12 -24t43 -12l50 -5q136 -13 136 -120q0 -87 -63 -139t-171 -52z" />
    <glyph glyph-name="uni0456" unicode="&#x456;" horiz-adv-x="255" 
d="M152 0h-115q-10 0 -9 10l82 464q1 10 11 10h115q9 0 8 -10l-82 -464q-1 -10 -10 -10zM251 565h-116q-9 0 -8 10l18 95q1 10 11 10h115q9 0 8 -10l-17 -95q-1 -10 -11 -10z" />
    <glyph glyph-name="uni0457" unicode="&#x457;" horiz-adv-x="255" 
d="M334 566h-89q-9 0 -8 10l18 95q1 10 11 10h89q9 0 8 -10l-18 -95q-1 -10 -11 -10zM141 566h-89q-9 0 -8 10l18 95q1 10 11 10h88q9 0 8 -10l-17 -95q-1 -10 -11 -10zM152 0h-115q-10 0 -9 10l82 464q1 10 11 10h115q9 0 8 -10l-82 -464q-1 -10 -10 -10z" />
    <glyph glyph-name="uni0458" unicode="&#x458;" horiz-adv-x="255" 
d="M-43 -180h-32q-8 0 -7 10l17 94q1 10 11 10h16q30 0 43.5 12t19.5 45l85 483q1 10 11 10h115q9 0 8 -10l-85 -482q-18 -99 -62 -136q-43 -36 -140 -36zM251 565h-116q-9 0 -8 10l18 95q1 10 11 10h115q9 0 8 -10l-17 -95q-1 -10 -11 -10z" />
    <glyph glyph-name="uni0459" unicode="&#x459;" horiz-adv-x="789" 
d="M26 -4h-38q-10 0 -8 9l17 96q1 9 10 9h8q39 0 65 30t39 105l41 230q2 9 10 9h362q8 0 7 -9l-27 -154q-2 -6 5 -6h106q63 0 100.5 -38t37.5 -99q0 -79 -52 -128q-53 -50 -137 -50h-239q-4 0 -7 3t-2 6l63 356q1 6 -5 6h-109q-5 0 -7 -6l-21 -122q-23 -137 -75 -192
q-51 -55 -144 -55zM478 104h89q30 0 48 16t18 45q0 22 -13 35t-37 13h-86q-5 0 -7 -6l-17 -97q-1 -6 5 -6z" />
    <glyph glyph-name="uni045A" unicode="&#x45a;" horiz-adv-x="774" 
d="M150 0h-115q-4 0 -6.5 3t-1.5 6l82 466q1 9 11 9h115q9 0 7 -9l-27 -159q-1 -6 6 -6h134q5 0 7 6l28 159q2 9 11 9h114q9 0 8 -9l-27 -159q-2 -6 5 -6h106q63 0 100.5 -37t37.5 -97q0 -78 -52 -127t-137 -49h-240q-4 0 -7 3t-2 6l35 188q2 6 -6 6h-134q-6 0 -7 -6
l-35 -188q-2 -9 -10 -9zM461 104h90q66 0 66 57q0 45 -50 45h-87q-6 0 -7 -6l-17 -90q-2 -6 5 -6z" />
    <glyph glyph-name="uni045B" unicode="&#x45b;" horiz-adv-x="533" 
d="M152 0h-115q-10 0 -9 10l91 513q1 6 -5 6h-65q-9 0 -8 10l13 75q1 10 12 10h64q6 0 7 6l7 40q1 10 11 10h116q9 0 8 -10l-8 -40q-1 -6 5 -6h96q9 0 8 -10l-12 -75q-1 -10 -12 -10h-97q-5 0 -7 -6l-15 -85h2q49 57 131 57q75 0 108.5 -49.5t18.5 -131.5l-55 -304
q-1 -10 -11 -10h-114q-9 0 -8 10l49 278q8 44 -6.5 68.5t-49.5 24.5t-59 -24.5t-32 -66.5l-49 -280q-1 -10 -10 -10z" />
    <glyph glyph-name="uni045C" unicode="&#x45c;" horiz-adv-x="513" 
d="M150 0h-115q-4 0 -6.5 3t-1.5 6l82 466q1 9 11 9h115q9 0 7 -9l-29 -167q-1 -6 5 -6h28q38 0 63 49l41 76q21 36 49 48.5t87 12.5h31q11 0 9 -9l-16 -89q-2 -9 -11 -9h-8q-18 0 -27 -6t-20 -27l-25 -47q-18 -37 -48 -46v-4q19 -7 31 -48l16 -50q7 -24 16.5 -34.5
t26.5 -10.5h12q9 0 7 -9l-16 -94q-2 -9 -11 -9h-42q-91 0 -113 87l-17 65q-11 41 -59 41h-24q-6 0 -7 -6l-31 -174q-2 -9 -10 -9zM333 551h-86q-11 0 -4 10l95 130q7 10 19 10h111q5 0 6 -3.5t-3 -7.5l-118 -129q-10 -10 -20 -10z" />
    <glyph glyph-name="uni045D" unicode="&#x45d;" horiz-adv-x="550" 
d="M148 0h-113q-4 0 -6.5 3t-1.5 6l82 466q1 9 11 9h112q10 0 8 -9l-47 -259h3l203 262q6 6 14 6h115q10 0 8 -9l-82 -466q-2 -9 -11 -9h-112q-9 0 -8 9l47 266h-3l-205 -267q-6 -8 -14 -8zM378 551h-81q-10 0 -17 10l-72 130q-2 4 0 7t7 3h104q12 0 15 -10l52 -130
q3 -10 -8 -10z" />
    <glyph glyph-name="uni045E" unicode="&#x45e;" horiz-adv-x="492" 
d="M56 -180h-33q-9 0 -8 10l16 94q1 10 12 10h21q47 0 74 52l18 37l-94 451q-1 10 8 10h119q9 0 10 -10l44 -287h2l140 287q4 10 14 10h120q11 0 7 -10l-283 -516q-43 -80 -84 -108q-41 -30 -103 -30zM306 544q-63 0 -98.5 30t-38.5 87q-1 13 9 15l59 10q9 1 11 -7
q4 -22 20 -36.5t40 -14.5q48 0 76 52q4 7 14 6l54 -9q11 -2 6 -16q-19 -60 -55.5 -88.5t-96.5 -28.5z" />
    <glyph glyph-name="uni045F" unicode="&#x45f;" horiz-adv-x="533" 
d="M266 -104h-104q-8 0 -6 9l15 89q1 6 -4 6h-131q-10 0 -8 9l82 466q2 9 11 9h115q8 0 7 -9l-62 -355q-1 -6 5 -6h132q6 0 7 6l63 355q2 9 11 9h115q8 0 7 -9l-82 -466q-1 -9 -10 -9h-130q-7 0 -8 -6l-15 -89q-2 -9 -10 -9z" />
    <glyph glyph-name="uni0490" unicode="&#x490;" horiz-adv-x="490" 
d="M159 0h-120q-10 0 -9 10l117 660q1 10 11 10h275q7 0 9 6l19 109q1 10 11 10h104q8 0 7 -10l-41 -231q-2 -9 -11 -9h-259q-6 0 -7 -6l-95 -539q-1 -10 -11 -10z" />
    <glyph glyph-name="uni0491" unicode="&#x491;" horiz-adv-x="400" 
d="M149 0h-114q-4 0 -6.5 3t-1.5 6l82 466q1 9 10 9h195q6 0 7 6l14 79q1 9 10 9h98q9 0 8 -9l-33 -188q-1 -10 -12 -10h-177q-5 0 -7 -6l-62 -356q-2 -9 -11 -9z" />
    <glyph glyph-name="Wgrave" unicode="&#x1e80;" horiz-adv-x="833" 
d="M605 0h-97q-10 0 -11 10l-38 434h-2l-192 -434q-4 -10 -14 -10h-97q-9 0 -10 10l-53 660q0 10 8 10h120q11 0 11 -10l17 -439h2l190 439q4 10 14 10h83q10 0 11 -10l38 -439h2l170 439q3 10 12 10h129q10 0 7 -10l-288 -660q-3 -10 -12 -10zM543 755h-87q-9 0 -17 8
l-96 115q-3 4 -1.5 7.5t6.5 3.5h108q13 0 20 -10l73 -114q6 -10 -6 -10z" />
    <glyph glyph-name="wgrave" unicode="&#x1e81;" horiz-adv-x="735" 
d="M520 0h-94q-10 0 -10 10l-30 290h-2l-135 -290q-4 -10 -13 -10h-94q-10 0 -10 10l-68 464q0 10 10 10h110q11 0 12 -10l25 -297h2l134 297q4 10 13 10h83q11 0 12 -10l30 -297h1l127 297q4 10 14 10h121q10 0 6 -10l-231 -464q-4 -10 -13 -10zM449 551h-81q-10 0 -17 10
l-72 130q-2 4 0 7t7 3h104q12 0 15 -10l52 -130q3 -10 -8 -10z" />
    <glyph glyph-name="Wacute" unicode="&#x1e82;" horiz-adv-x="833" 
d="M605 0h-97q-10 0 -11 10l-38 434h-2l-192 -434q-4 -10 -14 -10h-97q-9 0 -10 10l-53 660q0 10 8 10h120q11 0 11 -10l17 -439h2l190 439q4 10 14 10h83q10 0 11 -10l38 -439h2l170 439q3 10 12 10h129q10 0 7 -10l-288 -660q-3 -10 -12 -10zM554 755h-87q-5 0 -6.5 3
t1.5 7l109 114q10 10 21 10h115q5 0 6.5 -3t-2.5 -7l-137 -116q-10 -8 -20 -8z" />
    <glyph glyph-name="wacute" unicode="&#x1e83;" horiz-adv-x="735" 
d="M520 0h-94q-10 0 -10 10l-30 290h-2l-135 -290q-4 -10 -13 -10h-94q-10 0 -10 10l-68 464q0 10 10 10h110q11 0 12 -10l25 -297h2l134 297q4 10 13 10h83q11 0 12 -10l30 -297h1l127 297q4 10 14 10h121q10 0 6 -10l-231 -464q-4 -10 -13 -10zM465 551h-86q-11 0 -4 10
l95 130q7 10 19 10h111q5 0 6 -3.5t-3 -7.5l-118 -129q-10 -10 -20 -10z" />
    <glyph glyph-name="Wdieresis" unicode="&#x1e84;" horiz-adv-x="833" 
d="M605 0h-97q-10 0 -11 10l-38 434h-2l-192 -434q-4 -10 -14 -10h-97q-9 0 -10 10l-53 660q0 10 8 10h120q11 0 11 -10l17 -439h2l190 439q4 10 14 10h83q10 0 11 -10l38 -439h2l170 439q3 10 12 10h129q10 0 7 -10l-288 -660q-3 -10 -12 -10zM659 762h-89q-9 0 -8 10
l18 94q1 10 11 10h88q9 0 8 -10l-17 -94q-1 -10 -11 -10zM466 762h-89q-10 0 -9 10l18 94q1 10 11 10h89q9 0 8 -10l-17 -94q-1 -10 -11 -10z" />
    <glyph glyph-name="wdieresis" unicode="&#x1e85;" horiz-adv-x="735" 
d="M520 0h-94q-10 0 -10 10l-30 290h-2l-135 -290q-4 -10 -13 -10h-94q-10 0 -10 10l-68 464q0 10 10 10h110q11 0 12 -10l25 -297h2l134 297q4 10 13 10h83q11 0 12 -10l30 -297h1l127 297q4 10 14 10h121q10 0 6 -10l-231 -464q-4 -10 -13 -10zM570 566h-89q-9 0 -8 10
l18 95q1 10 11 10h89q9 0 8 -10l-18 -95q-1 -10 -11 -10zM377 566h-89q-9 0 -8 10l18 95q1 10 11 10h88q9 0 8 -10l-17 -95q-1 -10 -11 -10z" />
    <glyph glyph-name="Ygrave" unicode="&#x1ef2;" horiz-adv-x="545" 
d="M298 0h-120q-10 0 -9 10l47 261l-125 399q-2 4 1 7t8 3h117q11 0 14 -10l75 -255h3l165 255q6 10 15 10h125q13 0 7 -10l-265 -399l-47 -261q-1 -10 -11 -10zM403 755h-87q-9 0 -17 8l-96 115q-3 4 -1.5 7.5t6.5 3.5h108q13 0 20 -10l73 -114q6 -10 -6 -10z" />
    <glyph glyph-name="ygrave" unicode="&#x1ef3;" horiz-adv-x="492" 
d="M57 -180h-33q-11 0 -8 10l16 94q1 10 12 10h21q47 0 74 52l18 37l-94 451q-1 10 8 10h119q9 0 10 -10l44 -287h2l140 287q4 10 14 10h120q11 0 7 -10l-283 -516q-42 -79 -83 -108q-41 -30 -104 -30zM344 551h-81q-10 0 -17 10l-72 130q-2 4 0 7t7 3h104q12 0 15 -10
l52 -130q3 -10 -8 -10z" />
    <glyph glyph-name="uni2010" unicode="&#x2010;" horiz-adv-x="372" 
d="M329 207h-277q-9 0 -8 10l17 97q1 10 11 10h277q9 0 8 -10l-17 -97q-1 -10 -11 -10z" />
    <glyph glyph-name="endash" unicode="&#x2013;" horiz-adv-x="516" 
d="M489 210h-457q-8 0 -7 10l15 92q1 10 12 10h457q8 0 7 -10l-16 -92q-1 -10 -11 -10z" />
    <glyph glyph-name="emdash" unicode="&#x2014;" horiz-adv-x="861" 
d="M834 210h-802q-8 0 -7 10l15 92q1 10 12 10h802q8 0 7 -10l-16 -92q-1 -10 -11 -10z" />
    <glyph glyph-name="afii00208" unicode="&#x2015;" horiz-adv-x="861" 
d="M834 210h-802q-8 0 -7 10l15 92q1 10 12 10h802q8 0 7 -10l-16 -92q-1 -10 -11 -10z" />
    <glyph glyph-name="quoteleft" unicode="&#x2018;" horiz-adv-x="222" 
d="M207 476h-93q-9 0 -8 10l18 102q3 14 12 21l90 66q10 7 17 7q10 0 8 -11l-33 -185q-1 -10 -11 -10z" />
    <glyph glyph-name="quoteright" unicode="&#x2019;" horiz-adv-x="222" 
d="M114 474q-10 0 -8 11l32 185q1 10 11 10h94q9 0 8 -10l-18 -103q-3 -13 -12 -21l-90 -65q-10 -7 -17 -7z" />
    <glyph glyph-name="quotesinglbase" unicode="&#x201a;" horiz-adv-x="223" 
d="M15 -89q-11 0 -9 11l33 185q1 10 11 10h93q10 0 9 -10l-18 -102q-3 -13 -12 -21l-91 -66q-7 -7 -16 -7z" />
    <glyph glyph-name="quotedblleft" unicode="&#x201c;" horiz-adv-x="400" 
d="M385 476h-93q-9 0 -8 10l17 102q1 14 12 21l91 66q10 7 16 7q11 0 9 -11l-33 -185q-1 -10 -11 -10zM207 476h-93q-9 0 -8 10l18 102q3 14 12 21l90 66q10 7 17 7q10 0 8 -11l-33 -185q-1 -10 -11 -10z" />
    <glyph glyph-name="quotedblright" unicode="&#x201d;" horiz-adv-x="400" 
d="M292 474q-10 0 -8 11l32 185q1 10 11 10h93q10 0 9 -10l-18 -103q-3 -13 -12 -21l-91 -65q-7 -7 -16 -7zM114 474q-10 0 -8 11l32 185q1 10 11 10h94q9 0 8 -10l-18 -103q-3 -13 -12 -21l-90 -65q-10 -7 -17 -7z" />
    <glyph glyph-name="quotedblbase" unicode="&#x201e;" horiz-adv-x="400" 
d="M193 -89q-11 0 -9 11l33 185q1 10 11 10h93q9 0 8 -10l-17 -102q-1 -13 -13 -21l-90 -66q-10 -7 -16 -7zM15 -89q-11 0 -9 11l33 185q1 10 11 10h93q10 0 9 -10l-18 -102q-3 -13 -12 -21l-91 -66q-7 -7 -16 -7z" />
    <glyph glyph-name="dagger" unicode="&#x2020;" horiz-adv-x="524" 
d="M249 -180h-112q-11 0 -8 10l90 506q1 6 -5 6h-139q-9 0 -8 10l18 96q1 10 11 10h137q7 0 8 6l36 206q1 10 11 10h112q10 0 9 -10l-37 -206q-2 -6 4 -6h139q9 0 8 -10l-17 -96q-1 -10 -12 -10h-136q-6 0 -8 -6l-89 -506q-3 -10 -12 -10z" />
    <glyph glyph-name="daggerdbl" unicode="&#x2021;" horiz-adv-x="524" 
d="M255 -180h-112q-11 0 -8 10l31 173q2 6 -5 6h-138q-9 0 -8 10l17 96q1 10 11 10h138q7 0 8 6l41 238q2 6 -5 6h-138q-9 0 -8 10l17 96q1 10 11 10h138q7 0 8 6l30 173q1 10 11 10h112q10 0 9 -10l-31 -173q-2 -6 4 -6h139q9 0 8 -10l-17 -96q-1 -10 -12 -10h-137
q-5 0 -7 -6l-43 -238q-1 -6 5 -6h139q9 0 8 -10l-17 -96q-1 -10 -11 -10h-139q-6 0 -7 -6l-30 -173q-3 -10 -12 -10z" />
    <glyph glyph-name="bullet" unicode="&#x2022;" horiz-adv-x="417" 
d="M338 201q-42 -42 -107 -42t-108 42q-42 42 -42 107t42 107q43 43 108 43t107 -43q42 -42 42 -107t-42 -107z" />
    <glyph glyph-name="ellipsis" unicode="&#x2026;" horiz-adv-x="732" 
d="M633 0h-113q-10 0 -9 10l20 116q1 10 11 10h113q10 0 9 -10l-20 -116q-1 -10 -11 -10zM389 0h-113q-10 0 -9 10l20 116q1 10 11 10h113q10 0 9 -10l-20 -116q-1 -10 -11 -10zM145 0h-113q-10 0 -9 10l20 116q1 10 11 10h113q10 0 9 -10l-20 -116q-1 -10 -11 -10z" />
    <glyph glyph-name="perthousand" unicode="&#x2030;" horiz-adv-x="1102" 
d="M203 -11h-79q-10 0 -3 10l502 682q7 10 16 10h80q10 0 4 -10l-502 -682q-7 -10 -18 -10zM220 330q-50 0 -81 27.5t-31 75.5q0 33 10 89q10 57 24 86q41 80 138 80q50 0 81 -28t31 -76q0 -35 -10 -89q-10 -56 -24 -85q-39 -80 -138 -80zM232 406q27 0 39 25q6 11 17 74
t11 76q0 31 -31 31q-26 0 -38 -25q-7 -13 -18 -74q-11 -63 -11 -76q0 -31 31 -31zM875 -9q-49 0 -80 28t-31 76q0 33 10 89q10 58 24 85q38 80 138 80q50 0 81 -27.5t31 -75.5q0 -29 -11 -89t-23 -85q-40 -81 -139 -81zM563 -9q-50 0 -81 28t-31 76q0 33 10 89q10 58 24 85
q39 80 138 80q50 0 81 -27.5t31 -75.5q0 -36 -10 -90q-11 -56 -24 -84q-39 -81 -138 -81zM887 67q26 0 38 26q8 14 18 73q11 63 11 76q0 31 -31 31q-26 0 -39 -25q-7 -15 -17 -74q-11 -63 -11 -76q0 -31 31 -31zM574 67q27 0 39 26q8 14 18 73q11 63 11 76q0 31 -31 31
q-27 0 -39 -25q-7 -13 -18 -74q-11 -63 -11 -76q0 -31 31 -31z" />
    <glyph glyph-name="guilsinglleft" unicode="&#x2039;" horiz-adv-x="309" 
d="M216 41l-173 216q-6 8 2 14l250 216q3 3 6.5 1.5t2.5 -5.5l-21 -117q-3 -13 -13 -21l-94 -83q-4 -4 -2 -8l65 -84q9 -9 6 -21l-18 -104q-1 -4 -4.5 -5.5t-6.5 1.5z" />
    <glyph glyph-name="guilsinglright" unicode="&#x203a;" horiz-adv-x="309" 
d="M290 257l-249 -216q-4 -3 -7 -1.5t-2 5.5l20 117q3 13 13 21l95 83q4 4 2 8l-65 84q-9 9 -6 21l18 104q1 4 4.5 5.5t6.5 -1.5l172 -216q6 -8 -2 -14z" />
    <glyph glyph-name="interrobang" unicode="&#x203d;" horiz-adv-x="462" 
d="M281 197h-109q-9 0 -8 10l24 257q1 10 11 10h93q9 0 8 -10l-13 -75h2l21 26q47 59 47 108q0 29 -16 45t-43 16q-56 0 -79 -45q-4 -10 -13 -9l-103 17q-9 1 -6 12q48 132 215 132q78 0 125 -41.5t47 -112.5q0 -46 -18.5 -81.5t-65.5 -89.5l-76 -85q-24 -27 -31 -63l-1 -11
q-1 -10 -11 -10zM128 10l19 110q1 10 11 10h113q10 0 9 -10l-19 -110q-1 -10 -11 -10h-114q-9 0 -8 10z" />
    <glyph glyph-name="fraction" unicode="&#x2044;" horiz-adv-x="236" 
d="M-75 -11h-79q-12 0 -4 10l501 682q6 10 17 10h80q9 0 3 -10l-500 -682q-7 -10 -18 -10z" />
    <glyph glyph-name="zero.superior" unicode="&#x2070;" horiz-adv-x="343" 
d="M208 422q-55 0 -87 30.5t-32 84.5q0 33 15 112q15 80 28 107q43 88 151 88q55 0 87 -30.5t32 -84.5q0 -33 -15 -113q-13 -74 -28 -106q-42 -88 -151 -88zM223 505q28 0 41 28q8 17 22 94q14 79 14 101q0 33 -31 33q-29 0 -41 -26q-10 -20 -23 -96q-14 -79 -14 -101
q0 -33 32 -33z" />
    <glyph glyph-name="four.superior" unicode="&#x2074;" horiz-adv-x="343" 
d="M319 430h-75q-8 0 -7 10l7 41q2 6 -5 6h-158q-9 0 -8 10l11 66q2 12 8 18l155 245q7 10 16 10h82q9 0 5 -10l-155 -253v-1h59q6 0 7 6l13 71q1 10 11 10h74q9 0 8 -10l-12 -71q-1 -6 4 -6h16q8 0 7 -10l-11 -65q-1 -10 -11 -10h-16q-4 0 -6 -6l-8 -41q-1 -10 -11 -10z
" />
    <glyph glyph-name="five.superior" unicode="&#x2075;" horiz-adv-x="343" 
d="M208 422q-51 0 -80.5 22.5t-33.5 64.5q-1 10 8 13l74 18q9 3 11 -5q6 -28 35 -28t41 24q12 21 12 49q0 35 -32 35q-21 0 -33 -14q-6 -6 -13 -6h-76q-9 0 -8 10l39 221q1 10 11 10h236q9 0 8 -10l-11 -64q-1 -10 -11 -10h-150q-6 0 -6 -6l-12 -65h1q26 17 61 17
q46 0 72 -23.5t26 -67.5q0 -57 -22 -102q-41 -83 -147 -83z" />
    <glyph glyph-name="six.superior" unicode="&#x2076;" horiz-adv-x="343" 
d="M209 422q-57 0 -90.5 29t-33.5 78q0 58 55 135l116 162q7 10 17 10h90q4 0 5 -3.5t-2 -7.5l-102 -144v-1q10 2 17 2q44 0 71 -27t27 -71q0 -69 -49 -115q-49 -47 -121 -47zM223 505q23 0 39.5 17t16.5 41q0 38 -39 38q-23 0 -39.5 -17t-16.5 -41q0 -17 10.5 -27.5
t28.5 -10.5z" />
    <glyph glyph-name="seven.superior" unicode="&#x2077;" horiz-adv-x="343" 
d="M216 430h-82q-13 0 -5 11l179 309v2h-71q-5 0 -7 -6l-8 -40q-1 -10 -11 -10h-75q-9 0 -8 10l22 120q1 10 11 10h255q10 0 9 -10l-13 -72q-2 -8 -7 -15l-174 -300q-6 -9 -15 -9z" />
    <glyph glyph-name="eight.superior" unicode="&#x2078;" horiz-adv-x="343" 
d="M208 422q-56 0 -90.5 28.5t-34.5 75.5q0 70 63 117v1q-24 24 -24 59q0 58 47 99q47 42 114 42q55 0 85.5 -28.5t30.5 -72.5q0 -59 -51 -99v-1q31 -28 31 -70q0 -64 -50 -108q-49 -43 -121 -43zM253 679q20 0 34 15t14 36q0 14 -9 23t-24 9q-20 0 -34 -15t-14 -36
q0 -14 9 -23t24 -9zM222 504q24 0 41 17.5t17 40.5q0 18 -11.5 29t-29.5 11q-24 0 -40.5 -17t-16.5 -41q0 -18 11.5 -29t28.5 -11z" />
    </font>
</defs>
</svg>
