<?xml version="1.0" standalone="no"?>
<!DOCTYPE svg PUBLIC "-//W3C//DTD SVG 1.1//EN" "http://www.w3.org/Graphics/SVG/1.1/DTD/svg11.dtd" >
<svg xmlns="http://www.w3.org/2000/svg" xmlns:xlink="http://www.w3.org/1999/xlink" version="1.1">
<metadata>
Created by FontForge 20161013 at Wed Apr  9 00:47:55 2014
 By ,,,
Copyright (c) 2010 Linotype GmbH, www.linotype.com. All rights reserved. This font software may not be reproduced, modified, disclosed or transferred without the express written approval of Linotype GmbH.
</metadata>
<defs>
<font id="DINNextW1G-Heavy" horiz-adv-x="562" >
  <font-face 
    font-family="DIN Next W1G Medium"
    font-weight="800"
    font-stretch="normal"
    units-per-em="1000"
    panose-1="2 11 9 3 2 2 3 5 2 3"
    ascent="780"
    descent="-220"
    x-height="487"
    cap-height="680"
    bbox="-240.692 -248 1126 931"
    underline-thickness="50"
    underline-position="-200"
    unicode-range="U+000D-FB04"
  />
<missing-glyph horiz-adv-x="530" 
d="M0 10v660q0 10 10 10h510q10 0 10 -10v-660q0 -10 -10 -10h-510q-10 0 -10 10zM79 599v-518q0 -6 6 -6h360q6 0 6 6v518q0 6 -6 6h-360q-6 0 -6 -6zM300 249h-81q-10 0 -10 10v24q0 28 20 54l39 47q28 31 28 51q0 17 -10 27t-26 10q-34 0 -41 -34q-3 -10 -12 -9l-76 10
q-10 1 -8 11q8 52 45.5 82.5t96.5 30.5q60 0 98 -34t38 -86q0 -49 -40 -92l-38 -47q-13 -13 -13 -35v-10q0 -10 -10 -10zM208 123v75q0 10 10 10h83q10 0 10 -10v-75q0 -10 -10 -10h-83q-10 0 -10 10z" />
    <glyph glyph-name="IJ" unicode="IJ" horiz-adv-x="820" 
d="M304 81q-5 8 1 14l111 88q8 6 14 -2q32 -36 75 -36q86 0 86 100v425q0 10 10 10h156q10 0 10 -10v-411q0 -134 -66.5 -202.5t-193.5 -68.5q-65 0 -120.5 25.5t-82.5 67.5zM55 10v660q0 10 10 10h156q10 0 10 -10v-660q0 -10 -10 -10h-156q-10 0 -10 10z" />
    <glyph glyph-name="ij" unicode="ij" horiz-adv-x="548" 
d="M485 550h-148q-10 0 -10 10v110q0 10 10 10h148q10 0 10 -10v-110q0 -10 -10 -10zM296 -180h-38q-10 0 -10 10v118q0 10 10 10h15q31 0 42.5 11t11.5 44v464q0 10 10 10h148q10 0 10 -10v-464q0 -100 -49.5 -146.5t-149.5 -46.5zM211 550h-148q-10 0 -10 10v110
q0 10 10 10h148q10 0 10 -10v-110q0 -10 -10 -10zM211 0h-148q-10 0 -10 10v467q0 10 10 10h148q10 0 10 -10v-467q0 -10 -10 -10z" />
    <glyph glyph-name="napostrophe" unicode="&#x22;n" horiz-adv-x="558" 
d="M498 0h-148q-10 0 -10 10v278q0 71 -59 71q-28 0 -44 -19t-16 -52v-278q0 -10 -10 -10h-148q-10 0 -10 10v467q0 10 10 10h148q10 0 10 -10v-35h1q39 57 125 57q79 0 120 -48t41 -134v-307q0 -10 -10 -10zM-33 472q-11 0 -11 13v185q0 10 10 10h109q10 0 10 -10v-94
q0 -14 -9 -21l-92 -75q-10 -8 -17 -8z" />
    <glyph glyph-name="f_f" unicode="ff" horiz-adv-x="702" 
d="M231 0h-147q-10 0 -10 10v351q0 6 -6 6h-28q-10 0 -10 10v100q0 10 10 10h28q6 0 6 6v14q0 92 42.5 132.5t137.5 40.5h66q10 0 10 -10v-108q0 -10 -10 -10h-29q-29 0 -39.5 -9.5t-10.5 -34.5v-15q0 -6 6 -6h71q10 0 10 -10v-100q0 -10 -10 -10h-71q-6 0 -6 -6v-351
q0 -10 -10 -10zM582 0h-147q-10 0 -10 10v351q0 6 -6 6h-28q-10 0 -10 10v100q0 10 10 10h28q6 0 6 6v14q0 92 42.5 132.5t137.5 40.5h66q10 0 10 -10v-108q0 -10 -10 -10h-29q-30 0 -40 -9.5t-10 -34.5v-15q0 -6 6 -6h71q10 0 10 -10v-100q0 -10 -10 -10h-71q-6 0 -6 -6
v-351q0 -10 -10 -10z" />
    <glyph glyph-name="fi" unicode="fi" horiz-adv-x="625" 
d="M231 0h-147q-10 0 -10 10v351q0 6 -6 6h-28q-10 0 -10 10v100q0 10 10 10h28q6 0 6 6v14q0 92 42.5 132.5t137.5 40.5h66q10 0 10 -10v-108q0 -10 -10 -10h-29q-29 0 -39.5 -9.5t-10.5 -34.5v-15q0 -6 6 -6h71q10 0 10 -10v-100q0 -10 -10 -10h-71q-6 0 -6 -6v-351
q0 -10 -10 -10zM562 550h-148q-10 0 -10 10v110q0 10 10 10h148q10 0 10 -10v-110q0 -10 -10 -10zM562 0h-148q-10 0 -10 10v467q0 10 10 10h148q10 0 10 -10v-467q0 -10 -10 -10z" />
    <glyph glyph-name="fl" unicode="fl" horiz-adv-x="666" 
d="M231 0h-147q-10 0 -10 10v351q0 6 -6 6h-28q-10 0 -10 10v100q0 10 10 10h28q6 0 6 6v14q0 92 42.5 132.5t137.5 40.5h66q10 0 10 -10v-108q0 -10 -10 -10h-29q-29 0 -39.5 -9.5t-10.5 -34.5v-15q0 -6 6 -6h71q10 0 10 -10v-100q0 -10 -10 -10h-71q-6 0 -6 -6v-351
q0 -10 -10 -10zM632 -6h-61q-91 0 -130 39.5t-39 131.5v505q0 10 10 10h148q10 0 10 -10v-488q0 -48 41 -48h21q10 0 10 -10v-120q0 -10 -10 -10z" />
    <glyph glyph-name="f_f_i" unicode="ffi" horiz-adv-x="976" 
d="M231 0h-147q-10 0 -10 10v351q0 6 -6 6h-28q-10 0 -10 10v100q0 10 10 10h28q6 0 6 6v14q0 92 42.5 132.5t137.5 40.5h66q10 0 10 -10v-108q0 -10 -10 -10h-29q-29 0 -39.5 -9.5t-10.5 -34.5v-15q0 -6 6 -6h71q10 0 10 -10v-100q0 -10 -10 -10h-71q-6 0 -6 -6v-351
q0 -10 -10 -10zM582 0h-147q-10 0 -10 10v351q0 6 -6 6h-28q-10 0 -10 10v100q0 10 10 10h28q6 0 6 6v14q0 92 42.5 132.5t137.5 40.5h66q10 0 10 -10v-108q0 -10 -10 -10h-29q-30 0 -40 -9.5t-10 -34.5v-15q0 -6 6 -6h71q10 0 10 -10v-100q0 -10 -10 -10h-71q-6 0 -6 -6
v-351q0 -10 -10 -10zM913 550h-148q-10 0 -10 10v110q0 10 10 10h148q10 0 10 -10v-110q0 -10 -10 -10zM913 0h-148q-10 0 -10 10v467q0 10 10 10h148q10 0 10 -10v-467q0 -10 -10 -10z" />
    <glyph glyph-name="f_f_l" unicode="ffl" horiz-adv-x="1017" 
d="M231 0h-147q-10 0 -10 10v351q0 6 -6 6h-28q-10 0 -10 10v100q0 10 10 10h28q6 0 6 6v14q0 92 42.5 132.5t137.5 40.5h66q10 0 10 -10v-108q0 -10 -10 -10h-29q-29 0 -39.5 -9.5t-10.5 -34.5v-15q0 -6 6 -6h71q10 0 10 -10v-100q0 -10 -10 -10h-71q-6 0 -6 -6v-351
q0 -10 -10 -10zM582 0h-147q-10 0 -10 10v351q0 6 -6 6h-28q-10 0 -10 10v100q0 10 10 10h28q6 0 6 6v14q0 92 42.5 132.5t137.5 40.5h66q10 0 10 -10v-108q0 -10 -10 -10h-29q-30 0 -40 -9.5t-10 -34.5v-15q0 -6 6 -6h71q10 0 10 -10v-100q0 -10 -10 -10h-71q-6 0 -6 -6
v-351q0 -10 -10 -10zM983 -6h-61q-91 0 -130 39.5t-39 131.5v505q0 10 10 10h148q10 0 10 -10v-488q0 -48 41 -48h21q10 0 10 -10v-120q0 -10 -10 -10z" />
    <glyph glyph-name=".notdef" horiz-adv-x="530" 
d="M0 10v660q0 10 10 10h510q10 0 10 -10v-660q0 -10 -10 -10h-510q-10 0 -10 10zM79 599v-518q0 -6 6 -6h360q6 0 6 6v518q0 6 -6 6h-360q-6 0 -6 -6zM300 249h-81q-10 0 -10 10v24q0 28 20 54l39 47q28 31 28 51q0 17 -10 27t-26 10q-34 0 -41 -34q-3 -10 -12 -9l-76 10
q-10 1 -8 11q8 52 45.5 82.5t96.5 30.5q60 0 98 -34t38 -86q0 -49 -40 -92l-38 -47q-13 -13 -13 -35v-10q0 -10 -10 -10zM208 123v75q0 10 10 10h83q10 0 10 -10v-75q0 -10 -10 -10h-83q-10 0 -10 10z" />
    <glyph glyph-name=".null" horiz-adv-x="0" 
 />
    <glyph glyph-name="nonmarkingreturn" horiz-adv-x="333" 
 />
    <glyph glyph-name="NULL" horiz-adv-x="500" 
 />
    <glyph glyph-name="NULL" horiz-adv-x="500" 
 />
    <glyph glyph-name="CR" unicode="&#xd;" horiz-adv-x="0" 
 />
    <glyph glyph-name="space" unicode=" " horiz-adv-x="238" 
 />
    <glyph glyph-name="exclam" unicode="!" horiz-adv-x="317" 
d="M211 210h-105q-10 0 -10 10l-24 450q0 10 10 10h153q10 0 10 -10l-24 -450q0 -10 -10 -10zM80 10v126q0 10 10 10h138q10 0 10 -10v-126q0 -10 -10 -10h-138q-10 0 -10 10z" />
    <glyph glyph-name="quotedbl" unicode="&#x22;" horiz-adv-x="406" 
d="M340 455h-97q-10 0 -10 10v205q0 10 10 10h97q10 0 10 -10v-205q0 -10 -10 -10zM163 455h-97q-10 0 -10 10v205q0 10 10 10h97q10 0 10 -10v-205q0 -10 -10 -10z" />
    <glyph glyph-name="numbersign" unicode="#" horiz-adv-x="599" 
d="M71 10l23 170h-62q-10 0 -10 10v100q0 10 10 10h79l12 89h-65q-10 0 -10 10v100q0 10 10 10h81l22 161q1 10 11 10h116q10 0 9 -10l-22 -161h93l22 161q1 10 11 10h116q10 0 9 -10l-22 -161h63q10 0 10 -10v-100q0 -10 -10 -10h-80l-12 -89h66q10 0 10 -10v-100
q0 -10 -10 -10h-82l-23 -170q-1 -10 -11 -10h-116q-10 0 -9 10l23 170h-93l-23 -170q-1 -10 -11 -10h-116q-10 0 -9 10zM258 389l-12 -89h94l12 89h-94z" />
    <glyph glyph-name="dollar" unicode="$" 
d="M52 65q-9 8 -2 16l83 101q6 7 13 1q62 -50 127 -50q40 0 62 18.5t22 52.5q0 51 -70 60l-21 3q-95 12 -148 65.5t-53 137.5q0 82 48 141.5t129 75.5v69q0 10 10 10h83q10 0 10 -10v-67q79 -10 150 -55q10 -7 2 -16l-70 -101q-6 -8 -14 -3q-52 33 -106 33
q-33 0 -53.5 -17.5t-20.5 -45.5q0 -48 71 -59l24 -3q197 -27 197 -205q0 -86 -47.5 -145.5t-132.5 -76.5v-71q0 -10 -10 -10h-83q-10 0 -10 10v66q-111 11 -190 75z" />
    <glyph glyph-name="percent" unicode="%" horiz-adv-x="850" 
d="M167 -2l395 684q6 10 16 10h101q11 0 5 -10l-395 -684q-6 -10 -16 -10h-102q-10 0 -4 10zM70 415q-10 30 -10 94t10 94q14 40 49.5 62.5t86.5 22.5t86.5 -22.5t48.5 -62.5q11 -31 11 -94t-11 -94q-13 -40 -48.5 -62.5t-86.5 -22.5t-86.5 22.5t-49.5 62.5zM206 415
q21 0 28 19q3 10 3 75t-3 75q-7 19 -28 19q-22 0 -28 -19q-3 -10 -3 -75t3 -75q6 -19 28 -19zM508 77q-10 30 -10 94t10 94q28 85 136 85q51 0 86.5 -22.5t48.5 -62.5q11 -36 11 -94t-11 -94q-13 -40 -48.5 -62.5t-86.5 -22.5q-108 0 -136 85zM616 96q6 -19 28 -19
q21 0 27 19q4 8 4 75q0 66 -4 75q-6 18 -27 18q-22 0 -28 -18q-3 -12 -3 -75q0 -65 3 -75z" />
    <glyph glyph-name="ampersand" unicode="&#x26;" horiz-adv-x="647" 
d="M45 174q0 55 28.5 101.5t94.5 97.5q-39 51 -54.5 84t-15.5 68q0 73 54 119q56 48 136 48q84 0 137 -47q52 -46 52 -119q0 -45 -25 -83t-87 -87l72 -90l66 74q7 8 14 1l81 -71q8 -6 2 -14l-80 -93l11 -13q15 -19 38 -19h15q10 0 10 -10v-111q0 -10 -10 -10h-51
q-39 0 -63 12t-51 45q-78 -69 -174 -69q-93 0 -146.5 50.5t-53.5 135.5zM283 458q50 41 50 72q2 28 -20.5 40t-45.5 0t-21 -40q0 -25 37 -72zM197 187q0 -27 16.5 -44.5t45.5 -18.5q36 -2 78 36l-87 110q-53 -44 -53 -83z" />
    <glyph glyph-name="quotesingle" unicode="'" horiz-adv-x="229" 
d="M163 455h-97q-10 0 -10 10v205q0 10 10 10h97q10 0 10 -10v-205q0 -10 -10 -10z" />
    <glyph glyph-name="parenleft" unicode="(" horiz-adv-x="329" 
d="M181 -74q-129 178 -129 402t129 402q7 10 15 10h96q11 0 7 -10q-89 -189 -89 -402q0 -215 89 -402q4 -10 -7 -10h-96q-8 0 -15 10z" />
    <glyph glyph-name="parenright" unicode=")" horiz-adv-x="329" 
d="M35 -74q89 187 89 402q0 213 -89 402q-4 10 7 10h96q8 0 15 -10q129 -178 129 -402t-129 -402q-7 -10 -15 -10h-96q-11 0 -7 10z" />
    <glyph glyph-name="asterisk" unicode="*" horiz-adv-x="402" 
d="M240 355h-68q-10 0 -10 10l1 78l-67 -40q-10 -5 -14 4l-34 59q-5 8 4 13l69 38l-69 39q-9 5 -4 13l34 59q4 9 14 4l67 -41l-1 79q0 10 10 10h68q10 0 10 -10l-2 -79l69 41q8 5 13 -4l34 -59q5 -8 -4 -13l-69 -39l69 -38q9 -5 4 -13l-34 -59q-5 -9 -13 -4l-69 41l2 -79
q0 -10 -10 -10z" />
    <glyph glyph-name="plus" unicode="+" 
d="M203 206h-146q-10 0 -10 10v120q0 10 10 10h146q6 0 6 6v148q0 10 10 10h124q10 0 10 -10v-148q0 -6 6 -6h146q10 0 10 -10v-120q0 -10 -10 -10h-146q-6 0 -6 -6v-148q0 -10 -10 -10h-124q-10 0 -10 10v148q0 6 -6 6z" />
    <glyph glyph-name="comma" unicode="," horiz-adv-x="255" 
d="M52 -94v242q0 10 10 10h131q10 0 10 -10v-131q0 -13 -9 -21l-114 -94q-10 -7 -16 -7q-12 0 -12 11z" />
    <glyph glyph-name="hyphen" unicode="-" horiz-adv-x="399" 
d="M350 193h-301q-10 0 -10 10v125q0 10 10 10h301q10 0 10 -10v-125q0 -10 -10 -10z" />
    <glyph glyph-name="period" unicode="." horiz-adv-x="263" 
d="M52 10v138q0 10 10 10h139q10 0 10 -10v-138q0 -10 -10 -10h-139q-10 0 -10 10z" />
    <glyph glyph-name="slash" unicode="/" horiz-adv-x="446" 
d="M39 -2l212 684q3 10 13 10h143q10 0 7 -10l-212 -684q-3 -10 -13 -10h-143q-10 0 -7 10z" />
    <glyph glyph-name="zero" unicode="0" 
d="M64 134q-16 47 -16 206t16 206q49 146 217 146t218 -146q15 -49 15 -206q0 -156 -15 -206q-50 -146 -218 -146t-217 146zM226 163q12 -37 55 -37q44 0 56 37q7 21 7 177t-7 177q-12 37 -56 37q-43 0 -55 -37q-8 -22 -8 -177t8 -177z" />
    <glyph glyph-name="one" unicode="1" 
d="M238 10v488h-2l-115 -76q-12 -7 -12 6v146q0 8 7 14l122 86q8 6 18 6h139q10 0 10 -10v-660q0 -10 -10 -10h-147q-10 0 -10 10z" />
    <glyph glyph-name="two" unicode="2" 
d="M59 10v112q0 7 5 14l239 268q37 40 37 84q0 30 -16 48t-45 18q-61 0 -68 -76q0 -11 -11 -9l-132 20q-10 1 -8 12q4 82 67 137q61 54 159 54q97 0 158 -56q61 -55 61 -142q0 -92 -74 -172l-162 -180v-2h226q10 0 10 -10v-120q0 -10 -10 -10h-426q-10 0 -10 10z" />
    <glyph glyph-name="three" unicode="3" 
d="M51 156q-2 11 8 12l133 22q11 2 12 -8q17 -56 75 -56q32 0 51 20t19 55q0 38 -21.5 59t-59.5 21h-27q-10 0 -10 10v116q0 10 10 10h25q33 0 52 18.5t19 51.5q0 31 -17.5 49t-46.5 18q-52 0 -65 -55q-1 -10 -11 -8l-133 21q-10 1 -8 12q14 77 74 122.5t152 45.5
q102 0 161 -53t59 -135q0 -89 -77 -140v-2q89 -47 89 -164q0 -93 -65 -152q-64 -58 -166 -58q-95 0 -157 45t-75 123z" />
    <glyph glyph-name="four" unicode="4" 
d="M308 95h-264q-10 0 -10 10v128q0 5 2 11l187 428q3 8 14 8h157q11 0 7 -10l-189 -429v-2h96q6 0 6 6v120q0 10 10 10h140q10 0 10 -10v-120q0 -6 5 -6h39q10 0 10 -10v-124q0 -10 -10 -10h-38q-6 0 -6 -6v-79q0 -10 -10 -10h-140q-10 0 -10 10v79q0 6 -6 6z" />
    <glyph glyph-name="five" unicode="5" 
d="M65 149q0 9 9 12l130 21q10 1 13 -9q17 -47 66 -47q43 0 57 39q7 17 7 57q0 41 -7 58q-14 39 -58 39q-38 0 -55 -32q-4 -10 -14 -10h-128q-10 0 -10 10v383q0 10 10 10h396q10 0 10 -10v-120q0 -10 -10 -10h-258q-6 0 -6 -6v-114h2q38 35 105 35q136 0 173 -114
q15 -47 15 -119q0 -57 -15 -102q-21 -64 -76.5 -98t-136.5 -34q-94 0 -152 45q-60 46 -67 116z" />
    <glyph glyph-name="six" unicode="6" 
d="M43 207q0 79 54 183l151 283q4 7 12 7h158q12 0 7 -11l-136 -254l1 -1q17 5 34 5q84 0 140 -59t56 -151q0 -100 -67 -161q-66 -60 -172 -60q-105 0 -172 60q-66 60 -66 159zM281 126q35 0 56.5 22.5t21.5 57.5q0 36 -21.5 58.5t-56.5 22.5q-34 0 -55.5 -23t-21.5 -58
t21.5 -57.5t55.5 -22.5z" />
    <glyph glyph-name="seven" unicode="7" 
d="M127 11l210 521v3h-117q-6 0 -6 -6v-64q0 -10 -10 -10h-136q-10 0 -10 10v205q0 10 10 10h433q10 0 10 -10v-132q0 -2 -2 -10l-207 -518q-4 -10 -14 -10h-153q-10 0 -8 11z" />
    <glyph glyph-name="eight" unicode="8" 
d="M41 199q0 99 78 154v2q-63 49 -63 135q0 85 61 143q62 59 164 59t164 -59q61 -58 61 -143q0 -87 -62 -135v-2q77 -54 77 -154q0 -95 -68 -154q-67 -57 -172 -57t-172 57q-68 59 -68 154zM233 439q19 -19 48 -19t48 19q19 20 19 48t-19 47q-19 20 -48 20t-48 -20
q-18 -19 -18 -47t18 -48zM224 262q-22 -22 -22 -57t22 -57t57 -22t57 22t22 57t-22 57q-22 23 -57 23t-57 -23z" />
    <glyph glyph-name="nine" unicode="9" 
d="M137 11l136 254l-2 1q-15 -5 -33 -5q-86 0 -141 58t-55 152q0 100 66 160q67 61 173 61q105 0 171 -60q67 -60 67 -159q0 -79 -54 -183l-151 -283q-4 -7 -13 -7h-157q-12 0 -7 11zM281 393q34 0 55.5 23t21.5 58t-21.5 57.5t-55.5 22.5q-35 0 -56.5 -22.5t-21.5 -57.5
q0 -36 21.5 -58.5t56.5 -22.5z" />
    <glyph glyph-name="colon" unicode=":" horiz-adv-x="278" 
d="M208 329h-138q-10 0 -10 10v138q0 10 10 10h138q10 0 10 -10v-138q0 -10 -10 -10zM60 10v138q0 10 10 10h138q10 0 10 -10v-138q0 -10 -10 -10h-138q-10 0 -10 10z" />
    <glyph glyph-name="semicolon" unicode=";" horiz-adv-x="278" 
d="M208 329h-138q-10 0 -10 10v138q0 10 10 10h138q10 0 10 -10v-138q0 -10 -10 -10zM64 -94v242q0 10 10 10h131q10 0 10 -10v-131q0 -12 -9 -20l-115 -95q-7 -7 -16 -7q-11 0 -11 11z" />
    <glyph glyph-name="less" unicode="&#x3c;" 
d="M506 44l-448 167q-10 3 -10 14v102q0 11 10 14l448 167q10 3 10 -6v-129q0 -9 -10 -13l-243 -83v-2l243 -83q10 -4 10 -13v-129q0 -9 -10 -6z" />
    <glyph glyph-name="equal" unicode="=" 
d="M505 316h-448q-10 0 -10 10v120q0 10 10 10h448q10 0 10 -10v-120q0 -10 -10 -10zM505 96h-448q-10 0 -10 10v120q0 10 10 10h448q10 0 10 -10v-120q0 -10 -10 -10z" />
    <glyph glyph-name="greater" unicode="&#x3e;" 
d="M47 50v129q0 9 10 13l244 83v2l-244 83q-10 4 -10 13v129q0 9 10 6l448 -167q10 -3 10 -14v-102q0 -11 -10 -14l-448 -167q-10 -3 -10 6z" />
    <glyph glyph-name="question" unicode="?" horiz-adv-x="483" 
d="M303 210h-136q-10 0 -10 10v41q0 50 31 84l60 71q44 47 44 80q0 24 -15.5 40t-40.5 16q-52 0 -65 -61q-1 -10 -11 -8l-129 18q-9 1 -8 11q11 83 69 131.5t148 48.5q96 0 155 -55q60 -54 60 -133q0 -74 -68 -145l-53 -64q-21 -23 -21 -58v-17q0 -10 -10 -10zM157 10v126
q0 10 10 10h138q10 0 10 -10v-126q0 -10 -10 -10h-138q-10 0 -10 10z" />
    <glyph glyph-name="at" unicode="@" horiz-adv-x="931" 
d="M41 262q0 188 117 303q116 115 307 115q189 0 306 -114t117 -299q0 -103 -56 -159t-136 -56q-103 0 -139 66h-1q-34 -66 -136 -66q-113 0 -141 94q-14 42 -14 119q0 76 14 120q28 94 130 94q78 0 107 -50h1v30q0 9 9 9h118q8 0 8 -9v-237q0 -27 13 -42t35 -15
q59 0 59 102q0 135 -80 217q-79 82 -214 82t-215 -83q-79 -82 -79 -221q0 -136 79 -216q80 -81 215 -81q106 0 198 50q10 6 14 -4l51 -74q5 -8 -3 -14q-109 -72 -260 -72q-189 0 -307 114q-117 113 -117 297zM405 203q13 -37 54 -37t53 37q5 17 5 62q0 47 -5 62
q-12 38 -53 38q-40 0 -54 -38q-5 -20 -5 -62q0 -40 5 -62z" />
    <glyph glyph-name="A" unicode="A" horiz-adv-x="674" 
d="M13 10l235 660q3 10 13 10h163q10 0 13 -10l230 -660q3 -10 -7 -10h-165q-10 0 -13 10l-32 105h-221l-32 -105q-3 -10 -13 -10h-164q-10 0 -7 10zM340 473l-66 -212h132l-63 212h-3z" />
    <glyph glyph-name="B" unicode="B" horiz-adv-x="614" 
d="M55 10v660q0 10 10 10h277q109 0 165.5 -47.5t56.5 -133.5q0 -102 -83 -146v-2q41 -15 68 -57.5t27 -97.5q0 -96 -62.5 -146t-174.5 -50h-274q-10 0 -10 10zM237 407h71q81 0 81 70t-81 70h-71q-6 0 -6 -6v-128q0 -6 6 -6zM231 280v-141q0 -6 6 -6h80q83 0 83 77
q0 76 -83 76h-80q-6 0 -6 -6z" />
    <glyph glyph-name="C" unicode="C" horiz-adv-x="574" 
d="M59 156q-20 63 -20 184t20 184q27 83 90 125.5t157 42.5q89 0 152 -40t92 -115q4 -9 -5 -14l-133 -58q-10 -4 -14 6q-30 64 -89 64q-62 0 -82 -59q-10 -29 -10 -136t10 -136q20 -59 82 -59q59 0 89 64q4 10 14 6l133 -58q9 -5 5 -14q-29 -75 -92 -115t-152 -40
q-94 0 -157 42.5t-90 125.5z" />
    <glyph glyph-name="D" unicode="D" horiz-adv-x="631" 
d="M55 10v660q0 10 10 10h263q192 0 242 -155q20 -65 20 -185t-20 -185q-50 -155 -242 -155h-263q-10 0 -10 10zM231 518v-356q0 -6 6 -6h53q48 0 74 15t38 50q10 31 10 119t-10 119q-12 35 -38 50t-74 15h-53q-6 0 -6 -6z" />
    <glyph glyph-name="E" unicode="E" horiz-adv-x="557" 
d="M55 10v660q0 10 10 10h445q10 0 10 -10v-129q0 -10 -10 -10h-273q-6 0 -6 -6v-103q0 -6 6 -6h224q10 0 10 -10v-126q0 -10 -10 -10h-224q-6 0 -6 -6v-109q0 -6 6 -6h273q10 0 10 -10v-129q0 -10 -10 -10h-445q-10 0 -10 10z" />
    <glyph glyph-name="F" unicode="F" horiz-adv-x="552" 
d="M55 10v660q0 10 10 10h445q10 0 10 -10v-129q0 -10 -10 -10h-273q-6 0 -6 -6v-112q0 -6 6 -6h224q10 0 10 -10v-126q0 -10 -10 -10h-224q-6 0 -6 -6v-245q0 -10 -10 -10h-156q-10 0 -10 10z" />
    <glyph glyph-name="G" unicode="G" horiz-adv-x="628" 
d="M59 155q-20 66 -20 185t20 185q26 80 94 123.5t162 43.5q89 0 153 -38.5t94 -106.5q5 -12 -5 -16l-130 -55q-11 -5 -15 4q-34 55 -97 55q-69 0 -88 -60q-10 -29 -10 -135q0 -104 10 -135q21 -60 93 -60q74 0 90 54q6 18 6 44q0 6 -6 6h-74q-10 0 -10 10v113q0 10 10 10
h243q10 0 10 -10v-52q0 -104 -18 -158q-27 -83 -94.5 -128.5t-161.5 -45.5t-162 43.5t-94 123.5z" />
    <glyph glyph-name="H" unicode="H" horiz-adv-x="659" 
d="M55 10v660q0 10 10 10h156q10 0 10 -10v-241q0 -6 6 -6h185q6 0 6 6v241q0 10 10 10h156q10 0 10 -10v-660q0 -10 -10 -10h-156q-10 0 -10 10v251q0 6 -6 6h-185q-6 0 -6 -6v-251q0 -10 -10 -10h-156q-10 0 -10 10z" />
    <glyph glyph-name="I" unicode="I" horiz-adv-x="286" 
d="M55 10v660q0 10 10 10h156q10 0 10 -10v-660q0 -10 -10 -10h-156q-10 0 -10 10z" />
    <glyph glyph-name="J" unicode="J" horiz-adv-x="534" 
d="M23 81q-5 8 1 14l111 88q8 6 14 -2q31 -36 75 -36q86 0 86 100v425q0 10 10 10h156q10 0 10 -10v-411q0 -134 -66.5 -202.5t-193.5 -68.5q-65 0 -120.5 25.5t-82.5 67.5z" />
    <glyph glyph-name="K" unicode="K" horiz-adv-x="657" 
d="M55 10v660q0 10 10 10h156q10 0 10 -10v-266l195 267q8 9 17 9h176q13 0 6 -13l-203 -263l215 -393q2 -4 0.5 -7.5t-6.5 -3.5h-179q-12 0 -16 9l-132 256l-73 -97v-158q0 -10 -10 -10h-156q-10 0 -10 10z" />
    <glyph glyph-name="L" unicode="L" horiz-adv-x="554" 
d="M55 10v660q0 10 10 10h156q10 0 10 -10v-508q0 -6 6 -6h288q10 0 10 -10v-136q0 -10 -10 -10h-460q-10 0 -10 10z" />
    <glyph glyph-name="M" unicode="M" horiz-adv-x="772" 
d="M55 10v660q0 10 10 10h148q13 0 17 -10l157 -355h4l153 355q4 10 17 10h146q10 0 10 -10v-660q0 -10 -10 -10h-139q-10 0 -10 10v350h-5l-109 -254q-6 -13 -19 -13h-78q-12 0 -19 13l-109 254h-5v-350q0 -10 -10 -10h-139q-10 0 -10 10z" />
    <glyph glyph-name="N" unicode="N" horiz-adv-x="653" 
d="M55 10v660q0 10 10 10h147q13 0 17 -10l205 -385h4v385q0 10 10 10h140q10 0 10 -10v-660q0 -10 -10 -10h-147q-13 0 -17 10l-203 384h-6v-384q0 -10 -10 -10h-140q-10 0 -10 10z" />
    <glyph glyph-name="O" unicode="O" horiz-adv-x="628" 
d="M59 155q-20 66 -20 185t20 185q26 80 93.5 123.5t161.5 43.5t161.5 -43.5t93.5 -123.5q20 -63 20 -185t-20 -185q-26 -80 -93.5 -123.5t-161.5 -43.5t-161.5 43.5t-93.5 123.5zM401 205q10 27 10 135t-10 135q-19 60 -87 60t-87 -60q-10 -27 -10 -135t10 -135
q19 -60 87 -60t87 60z" />
    <glyph glyph-name="P" unicode="P" horiz-adv-x="612" 
d="M221 0h-156q-10 0 -10 10v660q0 10 10 10h272q119 0 185.5 -61t66.5 -165q0 -101 -66 -164t-186 -63h-100q-6 0 -6 -6v-211q0 -10 -10 -10zM237 376h90q41 0 63.5 21t22.5 57t-22.5 56.5t-63.5 20.5h-90q-6 0 -6 -6v-143q0 -6 6 -6z" />
    <glyph glyph-name="Q" unicode="Q" horiz-adv-x="628" 
d="M636 46l-105 -99q-7 -7 -15 0l-66 70q-63 -29 -136 -29q-94 0 -161.5 43.5t-93.5 123.5q-20 63 -20 185t20 185q26 80 93.5 123.5t161.5 43.5t161.5 -43.5t93.5 -123.5q20 -66 20 -185t-20 -185l-7 -18l74 -76q8 -7 0 -15zM314 144q68 0 87 61q10 27 10 135t-10 135
q-19 61 -87 61q-67 0 -88 -61q-9 -30 -9 -135t9 -135q21 -61 88 -61z" />
    <glyph glyph-name="R" unicode="R" horiz-adv-x="629" 
d="M593 0h-173q-11 0 -15 10l-103 232h-65q-6 0 -6 -6v-226q0 -10 -10 -10h-156q-10 0 -10 10v660q0 10 10 10h277q116 0 180 -61q65 -60 65 -158q0 -64 -29 -113.5t-83 -76.5l125 -259q2 -4 0 -8t-7 -4zM237 387h94q37 0 58.5 19.5t21.5 52.5t-21.5 52.5t-58.5 19.5h-94
q-6 0 -6 -6v-132q0 -6 6 -6z" />
    <glyph glyph-name="S" unicode="S" horiz-adv-x="605" 
d="M308 -12q-82 0 -157 28q-77 28 -117 69q-9 8 -1 16l90 106q7 7 14 1q77 -68 173 -68q45 0 70.5 17t25.5 47q0 24 -19.5 37.5t-66.5 19.5l-36 5q-227 32 -227 214q0 96 69 154q68 58 184 58q144 0 243 -75q8 -6 2 -15l-75 -109q-6 -8 -14 -3q-76 51 -153 51
q-36 0 -55.5 -15t-19.5 -42q0 -46 87 -57l36 -5q114 -16 169.5 -68.5t55.5 -147.5q0 -98 -73 -158q-72 -60 -205 -60z" />
    <glyph glyph-name="T" unicode="T" horiz-adv-x="566" 
d="M361 0h-156h-3q-2 0 -5 3q-2 2 -2 4v3v508q0 4 -5 6h-1h-167h-3q-2 0 -4 2l-1 1q0 1 -1 1q-1 1 -1 6v136q0 9 7 10h3h522q4 0 7 -3q1 -1 1 -2q2 -2 2 -5v-136q0 -5 -3 -8q-2 -2 -5 -2h-2h-167q-3 0 -4 -1l-2 -2v-3v-508v-3q-2 -4 -5 -6q-1 -1 -5 -1z" />
    <glyph glyph-name="U" unicode="U" horiz-adv-x="647" 
d="M324 -12q-127 0 -199 71.5t-72 203.5v407q0 10 10 10h156q10 0 10 -10v-418q0 -50 26 -78.5t69 -28.5q44 0 69 28t25 79v418q0 10 10 10h156q10 0 10 -10v-407q0 -131 -72.5 -203t-197.5 -72z" />
    <glyph glyph-name="V" unicode="V" horiz-adv-x="629" 
d="M394 0h-151q-10 0 -13 10l-217 659q-5 11 9 11h164q10 0 13 -10l121 -410h3l117 410q3 10 13 10h163q13 0 8 -11l-217 -659q-3 -10 -13 -10z" />
    <glyph glyph-name="W" unicode="W" horiz-adv-x="907" 
d="M702 0h-125q-10 0 -13 10l-107 380h-2l-108 -380q-3 -10 -13 -10h-125q-10 0 -13 10l-185 660q-1 10 8 10h164q12 0 13 -10l88 -396h2l106 396q3 10 13 10h103q10 0 13 -10l109 -396h2l85 396q1 10 12 10h164q10 0 7 -10l-184 -660q-3 -10 -14 -10z" />
    <glyph glyph-name="X" unicode="X" horiz-adv-x="616" 
d="M606 0h-168q-11 0 -17 10l-107 183h-2l-107 -183q-6 -10 -17 -10h-168q-12 0 -6 11l204 340l-191 318q-5 11 6 11h168q11 0 17 -10l94 -161h2l94 161q6 10 17 10h168q14 0 6 -11l-190 -318l203 -340q8 -11 -6 -11z" />
    <glyph glyph-name="Y" unicode="Y" horiz-adv-x="602" 
d="M383 0h-156q-10 0 -10 10v253l-206 406q-5 11 8 11h157q10 0 16 -10l114 -232h3l112 232q4 10 16 10h154q13 0 8 -11l-206 -406v-253q0 -10 -10 -10z" />
    <glyph glyph-name="Z" unicode="Z" 
d="M516 0h-471q-10 0 -10 10v134q0 6 3 10l282 367v3h-264q-10 0 -10 10v136q0 10 10 10h460q10 0 10 -10v-134q0 -6 -3 -10l-282 -367v-3h275q10 0 10 -10v-136q0 -10 -10 -10z" />
    <glyph glyph-name="bracketleft" unicode="[" horiz-adv-x="312" 
d="M277 -84h-213q-10 0 -10 10v804q0 10 10 10h213q10 0 10 -10v-104q0 -10 -10 -10h-73q-6 0 -6 -6v-564q0 -6 6 -6h73q10 0 10 -10v-104q0 -10 -10 -10z" />
    <glyph glyph-name="backslash" unicode="\" horiz-adv-x="446" 
d="M407 -12h-143q-10 0 -13 10l-212 684q-3 10 7 10h143q10 0 13 -10l212 -684q3 -10 -7 -10z" />
    <glyph glyph-name="bracketright" unicode="]" horiz-adv-x="312" 
d="M248 -84h-213q-10 0 -10 10v104q0 10 10 10h73q6 0 6 6v564q0 6 -6 6h-73q-10 0 -10 10v104q0 10 10 10h213q10 0 10 -10v-804q0 -10 -10 -10z" />
    <glyph glyph-name="asciicircum" unicode="^" 
d="M514 243h-135q-10 0 -14 10l-80 224h-2l-80 -224q-3 -10 -13 -10h-135q-10 0 -7 10l167 417q4 10 14 10h111q10 0 14 -10l166 -417q4 -10 -6 -10z" />
    <glyph glyph-name="underscore" unicode="_" horiz-adv-x="550" 
d="M550 -58v-111h-550v111h550z" />
    <glyph glyph-name="grave" unicode="`" horiz-adv-x="489" 
d="M360 546h-116q-10 0 -17 10l-103 136q-3 4 -1.5 7t6.5 3h139q11 0 17 -10l80 -136q4 -10 -5 -10z" />
    <glyph glyph-name="a" unicode="a" horiz-adv-x="532" 
d="M472 0h-138q-10 0 -10 10v28h-1q-44 -50 -131 -50q-71 0 -114.5 39t-43.5 111q0 78 55 119t152 41h77q6 0 6 6v13q0 28 -20 39.5t-74 11.5q-65 0 -105 -28q-9 -4 -13 3l-52 92q-4 10 3 16q71 48 189 48q124 0 177 -42.5t53 -139.5v-307q0 -10 -10 -10zM248 108
q76 0 76 52v30q0 6 -6 6h-59q-68 0 -68 -46q0 -42 57 -42z" />
    <glyph glyph-name="b" unicode="b" horiz-adv-x="557" 
d="M347 -12q-88 0 -125 58h-1v-36q0 -10 -10 -10h-148q-10 0 -10 10v660q0 10 10 10h148q10 0 10 -10v-229h1q37 58 125 58q123 0 161 -117q17 -57 17 -139q0 -81 -17 -138q-38 -117 -161 -117zM288 126q45 0 60 41q7 21 7 76q0 56 -7 77q-15 41 -60 41t-59 -41
q-8 -22 -8 -77q0 -54 8 -76q14 -41 59 -41z" />
    <glyph glyph-name="c" unicode="c" horiz-adv-x="493" 
d="M263 -12q-81 0 -138 37.5t-79 105.5q-14 40 -14 112q0 73 14 113q22 68 79 105.5t138 37.5q70 0 123.5 -31t78.5 -81q4 -9 -4 -14l-112 -58q-11 -7 -15 3q-24 43 -66 43q-44 0 -59 -42q-7 -20 -7 -76q0 -55 7 -75q15 -42 59 -42q42 0 66 43q4 11 15 3l112 -58q8 -5 4 -14
q-25 -50 -78.5 -81t-123.5 -31z" />
    <glyph glyph-name="d" unicode="d" horiz-adv-x="557" 
d="M494 0h-148q-10 0 -10 10v36h-1q-37 -58 -125 -58q-124 0 -161 117q-17 57 -17 138q0 82 17 139q37 117 161 117q88 0 125 -58h1v229q0 10 10 10h148q10 0 10 -10v-660q0 -10 -10 -10zM269 126q45 0 59 41q8 22 8 76q0 55 -8 77q-14 41 -59 41t-60 -41q-7 -21 -7 -77
q0 -55 7 -76q15 -41 60 -41z" />
    <glyph glyph-name="e" unicode="e" horiz-adv-x="533" 
d="M275 -12q-87 0 -146 37.5t-81 105.5q-16 45 -16 112t15 113q23 68 79.5 105.5t138.5 37.5q86 0 142.5 -36.5t77.5 -104.5q16 -47 16 -152q0 -10 -11 -10h-289q-6 0 -6 -6q1 -7 4 -20q17 -53 94 -53q61 0 109 39q8 8 15 0l71 -73q9 -8 -1 -15q-83 -80 -212 -80zM201 298
h132q6 0 6 6q0 21 -4 30q-14 44 -68 44t-68 -44q-4 -15 -4 -30q0 -6 6 -6z" />
    <glyph glyph-name="f" unicode="f" horiz-adv-x="351" 
d="M231 0h-147q-10 0 -10 10v351q0 6 -6 6h-28q-10 0 -10 10v100q0 10 10 10h28q6 0 6 6v14q0 92 42.5 132.5t137.5 40.5h66q10 0 10 -10v-108q0 -10 -10 -10h-29q-29 0 -39.5 -9.5t-10.5 -34.5v-15q0 -6 6 -6h71q10 0 10 -10v-100q0 -10 -10 -10h-71q-6 0 -6 -6v-351
q0 -10 -10 -10z" />
    <glyph glyph-name="g" unicode="g" horiz-adv-x="552" 
d="M240 -192q-57 0 -111 22q-55 23 -80 54q-5 8 1 15l84 86q8 7 15 0q47 -39 96 -39q45 0 65.5 24t20.5 75v37h-1q-34 -57 -124 -57q-123 0 -160 117q-16 47 -16 120q0 72 16 120q37 117 160 117q90 0 124 -58h1v36q0 10 10 10h148q10 0 10 -10v-402q0 -137 -64.5 -202
t-194.5 -65zM265 162q46 0 59 43q7 22 7 57q0 33 -7 57q-14 42 -59 42t-58 -42q-7 -18 -7 -57t7 -57q13 -43 58 -43z" />
    <glyph glyph-name="h" unicode="h" horiz-adv-x="558" 
d="M498 0h-148q-10 0 -10 10v278q0 71 -59 71q-28 0 -44 -19t-16 -52v-278q0 -10 -10 -10h-148q-10 0 -10 10v660q0 10 10 10h148q10 0 10 -10v-228h1q39 57 125 57q79 0 120 -48t41 -134v-307q0 -10 -10 -10z" />
    <glyph glyph-name="i" unicode="i" horiz-adv-x="274" 
d="M211 550h-148q-10 0 -10 10v110q0 10 10 10h148q10 0 10 -10v-110q0 -10 -10 -10zM211 0h-148q-10 0 -10 10v467q0 10 10 10h148q10 0 10 -10v-467q0 -10 -10 -10z" />
    <glyph glyph-name="j" unicode="j" horiz-adv-x="274" 
d="M211 550h-148q-10 0 -10 10v110q0 10 10 10h148q10 0 10 -10v-110q0 -10 -10 -10zM22 -180h-38q-10 0 -10 10v118q0 10 10 10h15q31 0 42.5 11t11.5 44v464q0 10 10 10h148q10 0 10 -10v-464q0 -100 -49.5 -146.5t-149.5 -46.5z" />
    <glyph glyph-name="k" unicode="k" horiz-adv-x="540" 
d="M525 0h-159q-11 0 -15 10l-95 188l-36 -48v-140q0 -10 -10 -10h-147q-10 0 -10 10v660q0 10 10 10h147q10 0 10 -10v-342l114 149q9 10 19 10h153q4 0 5.5 -3.5t-1.5 -6.5l-143 -166l163 -301q6 -10 -5 -10z" />
    <glyph glyph-name="l" unicode="l" horiz-adv-x="315" 
d="M281 -6h-61q-91 0 -130 39.5t-39 131.5v505q0 10 10 10h148q10 0 10 -10v-488q0 -48 41 -48h21q10 0 10 -10v-120q0 -10 -10 -10z" />
    <glyph glyph-name="m" unicode="m" horiz-adv-x="845" 
d="M785 0h-148q-10 0 -10 10v278q0 33 -15.5 52t-44.5 19q-28 0 -43.5 -19t-15.5 -52v-278q0 -10 -10 -10h-148q-10 0 -10 10v278q0 71 -59 71q-28 0 -44 -19t-16 -52v-278q0 -10 -10 -10h-148q-10 0 -10 10v467q0 10 10 10h148q10 0 10 -10v-35h1q39 57 125 57
q87 0 128 -60h1q56 60 149 60q83 0 126.5 -47.5t43.5 -134.5v-307q0 -10 -10 -10z" />
    <glyph glyph-name="n" unicode="n" horiz-adv-x="558" 
d="M498 0h-148q-10 0 -10 10v278q0 71 -59 71q-28 0 -44 -19t-16 -52v-278q0 -10 -10 -10h-148q-10 0 -10 10v467q0 10 10 10h148q10 0 10 -10v-35h1q39 57 125 57q79 0 120 -48t41 -134v-307q0 -10 -10 -10z" />
    <glyph glyph-name="o" unicode="o" horiz-adv-x="538" 
d="M47 129q-15 49 -15 114t15 115q22 67 80.5 104t141.5 37t141 -36.5t81 -104.5q15 -49 15 -115q0 -65 -15 -114q-23 -68 -81 -104.5t-141 -36.5t-141.5 37t-80.5 104zM329 167q7 24 7 76q0 53 -7 77q-15 41 -60 41t-60 -41q-7 -24 -7 -77q0 -52 7 -76q15 -41 60 -41t60 41
z" />
    <glyph glyph-name="p" unicode="p" horiz-adv-x="557" 
d="M211 -180h-148q-10 0 -10 10v647q0 10 10 10h148q10 0 10 -10v-36h1q37 58 125 58q123 0 161 -117q17 -57 17 -139q0 -81 -17 -138q-38 -117 -161 -117q-88 0 -125 58h-1v-216q0 -10 -10 -10zM288 126q45 0 60 41q7 21 7 76q0 56 -7 77q-15 41 -60 41t-59 -41
q-8 -22 -8 -77q0 -54 8 -76q14 -41 59 -41z" />
    <glyph glyph-name="q" unicode="q" horiz-adv-x="557" 
d="M494 -180h-148q-10 0 -10 10v216h-1q-37 -58 -125 -58q-124 0 -161 117q-17 57 -17 138q0 82 17 139q37 117 161 117q88 0 125 -58h1v36q0 10 10 10h148q10 0 10 -10v-647q0 -10 -10 -10zM269 126q45 0 59 41q8 22 8 76q0 55 -8 77q-14 41 -59 41t-60 -41q-7 -21 -7 -77
q0 -55 7 -76q15 -41 60 -41z" />
    <glyph glyph-name="r" unicode="r" horiz-adv-x="429" 
d="M211 0h-148q-10 0 -10 10v467q0 10 10 10h148q10 0 10 -10v-43h1q35 65 126 65q44 0 67 -19q8 -5 5 -13l-57 -141q-4 -6 -14 -1q-39 23 -71 19q-57 -4 -57 -85v-249q0 -10 -10 -10z" />
    <glyph glyph-name="s" unicode="s" horiz-adv-x="512" 
d="M261 -12q-143 0 -232 75q-7 7 -1 14l71 85q7 6 14 2q79 -52 158 -52q62 0 62 35q0 14 -13 21t-48 11l-54 5q-168 20 -168 155q0 73 56 116.5t154 43.5q128 0 210 -61q7 -5 2 -15l-63 -80q-6 -7 -15 -3q-62 38 -136 38q-51 0 -51 -30q0 -13 12 -20t44 -10l54 -6
q90 -9 132 -48t41 -106q-1 -79 -61.5 -124.5t-167.5 -45.5z" />
    <glyph glyph-name="t" unicode="t" horiz-adv-x="341" 
d="M299 -6h-56q-96 0 -136.5 42.5t-40.5 141.5v183q0 6 -6 6h-28q-10 0 -10 10v100q0 10 10 10h28q6 0 6 6v127q0 10 10 10h146q10 0 10 -10v-127q0 -6 6 -6h61q10 0 10 -10v-100q0 -10 -10 -10h-61q-6 0 -6 -6v-176q0 -29 10 -40t35 -11h22q10 0 10 -10v-120q0 -10 -10 -10
z" />
    <glyph glyph-name="u" unicode="u" horiz-adv-x="555" 
d="M492 0h-148q-10 0 -10 10v35h-1q-41 -57 -124 -57q-79 0 -119.5 48t-40.5 134v307q0 10 10 10h148q10 0 10 -10v-278q0 -71 59 -71q58 0 58 71v278q0 10 10 10h148q10 0 10 -10v-467q0 -10 -10 -10z" />
    <glyph glyph-name="v" unicode="v" horiz-adv-x="532" 
d="M338 0h-139q-9 0 -12 10l-174 467q-3 10 8 10h154q11 0 14 -10l81 -260h2l78 260q3 10 14 10h153q11 0 8 -10l-174 -467q-3 -10 -13 -10z" />
    <glyph glyph-name="w" unicode="w" horiz-adv-x="772" 
d="M595 0h-116q-9 0 -12 10l-75 250h-2l-76 -250q-3 -10 -12 -10h-116q-9 0 -12 10l-158 466q-5 11 8 11h149q11 0 14 -10l67 -257h2l75 257q3 10 13 10h95q11 0 14 -10l75 -257h2l63 257q3 10 15 10h149q12 0 7 -11l-157 -466q-3 -10 -12 -10z" />
    <glyph glyph-name="x" unicode="x" horiz-adv-x="535" 
d="M521 0h-159q-10 0 -16 9l-73 115h-1l-73 -115q-6 -9 -16 -9h-158q-12 0 -6 10l163 242l-151 225q-6 10 7 10h159q11 0 16 -9l60 -97h1l61 97q6 9 16 9h157q13 0 7 -10l-151 -225l164 -242q2 -4 0 -7t-7 -3z" />
    <glyph glyph-name="y" unicode="y" horiz-adv-x="531" 
d="M137 -180h-37q-10 0 -10 10v118q0 10 10 10h25q46 0 60 41l11 31l-183 447q-4 10 7 10h157q9 0 12 -10l84 -244h2l78 244q3 10 13 10h153q11 0 7 -10l-211 -532q-29 -73 -67 -98q-39 -27 -111 -27z" />
    <glyph glyph-name="z" unicode="z" horiz-adv-x="494" 
d="M446 0h-396q-10 0 -10 10v108q0 6 3 10l215 223v3h-197q-10 0 -10 10v113q0 10 10 10h385q10 0 10 -10v-113q0 -6 -3 -10l-214 -218v-3h207q10 0 10 -10v-113q0 -10 -10 -10z" />
    <glyph glyph-name="braceleft" unicode="{" horiz-adv-x="367" 
d="M330 -84h-74q-133 0 -133 126v138q0 85 -69 85q-10 0 -10 10v109q0 10 10 10q36 0 52.5 20t16.5 64v136q0 126 133 126h74q10 0 10 -10v-104q0 -10 -10 -10h-24q-42 0 -42 -44v-113q0 -56 -16.5 -85t-55.5 -44v-1q39 -15 55.5 -44t16.5 -85v-116q0 -44 42 -44h24
q10 0 10 -10v-104q0 -10 -10 -10z" />
    <glyph glyph-name="bar" unicode="|" horiz-adv-x="337" 
d="M231 -84h-125q-10 0 -10 10v804q0 10 10 10h125q10 0 10 -10v-804q0 -10 -10 -10z" />
    <glyph glyph-name="braceright" unicode="}" horiz-adv-x="367" 
d="M111 -84h-74q-10 0 -10 10v104q0 10 10 10h24q42 0 42 44v116q0 56 16.5 85t55.5 44v1q-39 15 -55.5 44t-16.5 85v113q0 44 -42 44h-24q-10 0 -10 10v104q0 10 10 10h74q133 0 133 -126v-136q0 -44 16.5 -64t52.5 -20q10 0 10 -10v-109q0 -10 -10 -10q-69 0 -69 -85v-138
q0 -126 -133 -126z" />
    <glyph glyph-name="asciitilde" unicode="~" 
d="M373 183q-49 0 -102 32q-38 25 -63 25q-36 0 -63 -46q-6 -11 -14 -3l-81 51q-7 4 -4 14q24 51 63.5 81.5t85.5 30.5q51 0 102 -33q40 -25 64 -25q35 0 62 46q4 9 14 4l82 -52q8 -5 3 -14q-22 -50 -62 -80.5t-87 -30.5z" />
    <glyph glyph-name="uni00A0" unicode="&#xa0;" horiz-adv-x="238" 
 />
    <glyph glyph-name="exclamdown" unicode="&#xa1;" horiz-adv-x="317" 
d="M106 277h105q10 0 10 -10l24 -450q0 -10 -10 -10h-153q-10 0 -10 10l24 450q0 10 10 10zM237 477v-126q0 -10 -10 -10h-138q-10 0 -10 10v126q0 10 10 10h138q10 0 10 -10z" />
    <glyph glyph-name="cent" unicode="&#xa2;" 
d="M230 243q0 -49 8 -75q14 -42 64 -42q46 0 68 43q4 9 16 3l112 -58q8 -5 4 -14q-20 -42 -62.5 -71t-98.5 -38v-78q0 -10 -10 -10h-79q-10 0 -10 10v80q-130 21 -167 138q-14 45 -14 112q0 68 14 113q37 115 167 138v79q0 10 10 10h79q10 0 10 -10v-77q56 -9 98 -38t63 -71
q4 -9 -4 -14l-112 -58q-12 -6 -16 3q-22 43 -68 43q-50 0 -64 -42q-8 -26 -8 -76z" />
    <glyph glyph-name="sterling" unicode="&#xa3;" 
d="M497 0h-419q-10 0 -10 10v116q0 8 5 13q35 32 35 80v38q0 6 -6 6h-34q-10 0 -10 10v96q0 10 10 10h34q6 0 6 6v105q0 96 54.5 149t150.5 53q80 0 132 -41.5t61 -107.5q2 -11 -8 -12l-129 -27q-11 -2 -12 8q-7 42 -42 42q-40 0 -40 -52v-117q0 -6 6 -6h125q10 0 10 -10
v-96q0 -10 -10 -10h-125q-6 0 -6 -6v-27q0 -60 -29 -89v-2h251q10 0 10 -10v-119q0 -10 -10 -10z" />
    <glyph glyph-name="currency" unicode="&#xa4;" 
d="M539 121l-83 -85q-8 -6 -14 0l-61 61q-42 -21 -92 -21q-51 0 -91 21l-60 -60q-7 -7 -14 0l-84 85q-6 6 0 14l60 59q-19 38 -19 89q0 47 19 89l-60 61q-8 6 0 14l83 84q8 6 14 0l61 -61q91 43 182 0l61 61q7 7 14 0l84 -84q7 -7 0 -14l-62 -62q41 -85 1 -177l61 -60
q8 -8 0 -14zM227 220q25 -25 62 -25t62 25t25 64q0 38 -25 63q-25 26 -62 26t-62 -26q-24 -25 -24 -63t24 -64z" />
    <glyph glyph-name="yen" unicode="&#xa5;" 
d="M359 0h-147q-10 0 -10 10v112q0 6 -6 6h-112q-10 0 -10 10v62q0 10 10 10h112q6 0 6 6v29q0 6 -6 6h-112q-10 0 -10 10v62q0 10 10 10h87v2l-145 335q-4 10 7 10h156q11 0 15 -10l82 -237h3l81 237q3 10 15 10h153q11 0 7 -10l-145 -335v-2h87q10 0 10 -10v-62
q0 -10 -10 -10h-112q-6 0 -6 -6v-29q0 -6 6 -6h112q10 0 10 -10v-62q0 -10 -10 -10h-112q-6 0 -6 -6v-112q0 -10 -10 -10z" />
    <glyph glyph-name="brokenbar" unicode="&#xa6;" horiz-adv-x="337" 
d="M231 388h-125q-10 0 -10 10v332q0 10 10 10h125q10 0 10 -10v-332q0 -10 -10 -10zM231 -84h-125q-10 0 -10 10v336q0 10 10 10h125q10 0 10 -10v-336q0 -10 -10 -10z" />
    <glyph glyph-name="section" unicode="&#xa7;" horiz-adv-x="531" 
d="M262 -194q-86 0 -139 41.5t-59 108.5q-1 10 7 11l124 19q10 1 11 -8q4 -48 53 -48q52 0 52 46q0 28 -21 45.5t-76 32.5q-163 43 -163 196q0 95 83 148v2q-61 43 -61 127q0 70 54 118q53 49 142 49q84 0 136.5 -43t58.5 -109q1 -10 -7 -11l-122 -18q-10 -2 -11 7
q-8 50 -52 50q-23 0 -36.5 -12.5t-13.5 -32.5q0 -26 21.5 -43t74.5 -32q162 -46 162 -196q0 -94 -83 -148v-2q63 -43 63 -133q0 -71 -54 -118q-55 -47 -144 -47zM266 181q30 0 47.5 19.5t17.5 51.5t-17.5 51.5t-47.5 19.5q-31 0 -48.5 -19.5t-17.5 -51.5t17.5 -51.5
t48.5 -19.5z" />
    <glyph glyph-name="dieresis" unicode="&#xa8;" horiz-adv-x="489" 
d="M401 550h-108q-10 0 -10 10v110q0 10 10 10h108q10 0 10 -10v-110q0 -10 -10 -10zM196 550h-108q-10 0 -10 10v110q0 10 10 10h108q10 0 10 -10v-110q0 -10 -10 -10z" />
    <glyph glyph-name="copyright" unicode="&#xa9;" horiz-adv-x="794" 
d="M648 87q-100 -100 -251 -100q-152 0 -252 100t-100 252t100 252q101 101 252 101q150 0 251 -101t101 -252t-101 -252zM663 339q0 116 -75 193q-75 76 -191 76t-191 -76q-75 -77 -75 -193q0 -115 75 -192q75 -76 191 -76t191 76q75 77 75 192zM404 145q-64 0 -109.5 29
t-63.5 83q-10 27 -10 84q0 56 10 83q18 54 63.5 83t109.5 29q54 0 96.5 -23t61.5 -60q6 -10 -4 -13l-85 -44q-9 -4 -14 4q-18 30 -51 30q-40 0 -50 -34q-5 -18 -5 -55q0 -38 5 -56q10 -34 50 -34q33 0 51 31q5 8 14 3l85 -43q10 -4 4 -14q-19 -37 -61.5 -60t-96.5 -23z" />
    <glyph glyph-name="ordfeminine" unicode="&#xaa;" horiz-adv-x="367" 
d="M316 392h-87q-10 0 -10 10v14h-2q-24 -30 -80 -30q-46 0 -74 23t-28 65q0 46 34.5 71.5t96.5 25.5h46q6 0 6 6v5q0 25 -56 25q-40 0 -67 -18q-10 -6 -14 4l-31 53q-5 9 3 14q50 29 122 29q80 0 115.5 -25.5t35.5 -82.5v-179q0 -10 -10 -10zM171 461q47 0 47 29v10
q0 6 -6 6h-38q-34 0 -34 -23q0 -22 31 -22z" />
    <glyph glyph-name="guillemotleft" unicode="&#xab;" horiz-adv-x="586" 
d="M526 23l-237 234q-7 7 0 14l237 234q3 3 6.5 1.5t3.5 -5.5v-138q0 -9 -10 -19l-77 -76q-4 -4 0 -8l77 -76q10 -10 10 -19v-138q0 -4 -3.5 -5.5t-6.5 1.5zM265 23l-236 234q-7 7 0 14l236 234q3 3 6.5 1.5t3.5 -5.5v-138q0 -10 -10 -19l-76 -76q-4 -4 0 -8l76 -76
q10 -9 10 -19v-138q0 -4 -3.5 -5.5t-6.5 1.5z" />
    <glyph glyph-name="logicalnot" unicode="&#xac;" 
d="M505 76h-123q-10 0 -10 10v114q0 6 -6 6h-309q-10 0 -10 10v120q0 10 10 10h448q10 0 10 -10v-250q0 -10 -10 -10z" />
    <glyph glyph-name="uni00AD" unicode="&#xad;" horiz-adv-x="400" 
d="M350 193h-301q-10 0 -10 10v125q0 10 10 10h301q10 0 10 -10v-125q0 -10 -10 -10z" />
    <glyph glyph-name="registered" unicode="&#xae;" horiz-adv-x="437" 
d="M218 301q-83 0 -138 55t-55 137q0 81 55 136t138 55t138 -55q56 -56 56 -136q0 -81 -56 -137q-55 -55 -138 -55zM218 342q65 0 107 42q42 44 42 109q0 66 -42 108t-107 42q-64 0 -106 -42t-42 -108q0 -65 42 -109q42 -42 106 -42zM190 388h-50q-7 0 -7 7v198q0 7 7 7h93
q40 0 61.5 -18.5t21.5 -51.5q0 -42 -37 -61l37 -74q1 -7 -5 -7h-55q-7 0 -10 7l-30 65h-15q-4 0 -4 -4v-61q0 -7 -7 -7zM201 509h26q25 0 25 21q0 20 -25 20h-26q-4 0 -4 -4v-32q0 -5 4 -5z" />
    <glyph glyph-name="overscore" unicode="&#xaf;" horiz-adv-x="489" 
d="M395 562h-301q-10 0 -10 10v91q0 10 10 10h301q10 0 10 -10v-91q0 -10 -10 -10z" />
    <glyph glyph-name="degree" unicode="&#xb0;" horiz-adv-x="407" 
d="M203 378q-67 0 -113 45q-45 45 -45 113t45 113q47 45 113 45q68 0 113 -46q46 -45 46 -112t-46 -113q-45 -45 -113 -45zM160 492q17 -17 43 -17t43 17t17 44t-17 44q-17 18 -43 18t-43 -18q-16 -17 -16 -44t16 -44z" />
    <glyph glyph-name="plusminus" unicode="&#xb1;" 
d="M343 184h-124q-10 0 -10 10v147q0 6 -6 6h-146q-10 0 -10 10v119q0 10 10 10h146q6 0 6 6v147q0 10 10 10h124q10 0 10 -10v-147q0 -6 6 -6h146q10 0 10 -10v-119q0 -10 -10 -10h-146q-6 0 -6 -6v-147q0 -10 -10 -10zM505 0h-448q-10 0 -10 10v120q0 10 10 10h448
q10 0 10 -10v-120q0 -10 -10 -10z" />
    <glyph glyph-name="twosuperior" unicode="&#xb2;" horiz-adv-x="366" 
d="M322 430h-277q-10 0 -10 10v76q0 10 8 18l146 137q23 23 23 45q0 31 -31 31q-32 0 -35 -36q-2 -11 -11 -9l-91 13q-9 1 -9 11q2 50 43.5 83.5t109.5 33.5q64 0 104 -34t40 -92q0 -57 -54 -107l-84 -78v-1h128q10 0 10 -10v-81q0 -10 -10 -10z" />
    <glyph glyph-name="threesuperior" unicode="&#xb3;" horiz-adv-x="366" 
d="M186 423q-63 0 -103.5 27t-49.5 75q-2 11 8 12l90 14q8 1 13 -7q12 -25 38 -25q36 0 36 35t-43 35h-13q-10 0 -10 10v74q0 10 10 10h13q16 0 26 8.5t10 23.5q0 32 -32 32q-23 0 -34 -23q-3 -9 -12 -7l-90 14q-10 1 -8 11q9 46 48.5 73.5t100.5 27.5q68 0 108 -32
q39 -31 39 -82t-45 -82v-1q52 -24 52 -94q0 -59 -41 -94t-111 -35z" />
    <glyph glyph-name="acute" unicode="&#xb4;" horiz-adv-x="489" 
d="M251 546h-116q-9 0 -5 10l80 136q6 10 17 10h139q5 0 6.5 -3t-1.5 -7l-103 -136q-7 -10 -17 -10z" />
    <glyph glyph-name="mu" unicode="&#xb5;" horiz-adv-x="604" 
d="M369 51h-1q-33 -55 -103 -55q-22 0 -43 8h-1v-174q0 -10 -10 -10h-148q-10 0 -10 10v647q0 10 10 10h148q10 0 10 -10v-286q0 -63 59 -63q29 0 46 19t17 52v278q0 10 10 10h148q10 0 10 -10v-298q0 -27 5 -36t20 -9h3q10 0 10 -10v-120q0 -10 -10 -10h-29q-48 0 -78 9
q-29 9 -38 18q-7 7 -25 30z" />
    <glyph glyph-name="paragraph" unicode="&#xb6;" horiz-adv-x="678" 
d="M600 -180h-114q-10 0 -10 10v730q0 6 -6 6h-68q-6 0 -6 -6v-730q0 -10 -10 -10h-113q-10 0 -10 10v386q-93 6 -153 69q-60 65 -60 163q0 102 66 167q68 65 180 65h304q10 0 10 -10v-840q0 -10 -10 -10z" />
    <glyph glyph-name="middot" unicode="&#xb7;" horiz-adv-x="263" 
d="M201 186h-139q-10 0 -10 10v138q0 10 10 10h139q10 0 10 -10v-138q0 -10 -10 -10z" />
    <glyph glyph-name="cedilla" unicode="&#xb8;" horiz-adv-x="489" 
d="M279 -166h-115q-10 0 -7 10l62 156q4 10 14 10h101q10 0 7 -10l-46 -156q-3 -10 -16 -10z" />
    <glyph glyph-name="onesuperior" unicode="&#xb9;" horiz-adv-x="366" 
d="M268 430h-102q-10 0 -10 10v270h-2l-66 -38q-4 -2 -7 0t-3 6v97q0 11 9 15l62 40q10 6 17 6h102q10 0 10 -10v-386q0 -10 -10 -10z" />
    <glyph glyph-name="ordmasculine" unicode="&#xba;" horiz-adv-x="387" 
d="M194 383q-120 0 -149 90q-8 26 -8 63t8 63q29 90 149 90t148 -90q8 -26 8 -63t-8 -63q-28 -90 -148 -90zM194 473q26 0 37 26q3 10 3 37q0 26 -3 37q-11 26 -37 26q-27 0 -38 -26q-3 -11 -3 -37q0 -27 3 -37q11 -26 38 -26z" />
    <glyph glyph-name="guillemotright" unicode="&#xbb;" horiz-adv-x="586" 
d="M564 257l-236 -234q-3 -3 -6.5 -1.5t-3.5 5.5v138q0 10 10 19l76 76q4 4 0 8l-76 76q-10 9 -10 19v138q0 4 3.5 5.5t6.5 -1.5l236 -234q7 -7 0 -14zM303 257l-236 -234q-3 -3 -6.5 -1.5t-3.5 5.5v138q0 9 10 19l77 76q4 4 0 8l-77 76q-10 10 -10 19v138q0 4 3.5 5.5
t6.5 -1.5l236 -234q7 -7 0 -14z" />
    <glyph glyph-name="onequarter" unicode="&#xbc;" horiz-adv-x="908" 
d="M784 0h-93q-10 0 -10 10v36q0 6 -6 6h-166q-10 0 -10 10v85q0 11 4 18l107 231q4 10 15 10h107q11 0 7 -10l-111 -241v-2h47q6 0 6 6v57q0 10 10 10h93q10 0 10 -10v-57q0 -6 5 -6h14q10 0 10 -10v-81q0 -10 -10 -10h-13q-6 0 -6 -6v-36q0 -10 -10 -10zM287 -12h-102
q-10 0 -4 10l395 684q6 10 16 10h102q10 0 4 -10l-395 -684q-6 -10 -16 -10zM274 274h-102q-10 0 -10 10v270h-2l-66 -38q-4 -2 -7 0t-3 6v97q0 11 9 15l62 40q10 6 17 6h102q10 0 10 -10v-386q0 -10 -10 -10z" />
    <glyph glyph-name="onehalf" unicode="&#xbd;" horiz-adv-x="934" 
d="M840 0h-277q-10 0 -10 10v76q0 10 8 18l146 137q23 23 23 45q0 31 -31 31q-32 0 -35 -36q-2 -11 -11 -9l-91 13q-9 1 -9 11q2 50 43.5 83.5t109.5 33.5q64 0 104 -34t40 -92q0 -57 -54 -107l-84 -78v-1h128q10 0 10 -10v-81q0 -10 -10 -10zM287 -12h-102q-10 0 -4 10
l395 684q6 10 16 10h102q10 0 4 -10l-395 -684q-6 -10 -16 -10zM274 274h-102q-10 0 -10 10v270h-2l-66 -38q-4 -2 -7 0t-3 6v97q0 11 9 15l62 40q10 6 17 6h102q10 0 10 -10v-386q0 -10 -10 -10z" />
    <glyph glyph-name="threequarters" unicode="&#xbe;" horiz-adv-x="970" 
d="M848 0h-93q-10 0 -10 10v36q0 6 -6 6h-166q-10 0 -10 10v85q0 11 4 18l107 231q4 10 15 10h107q11 0 7 -10l-111 -241v-2h47q6 0 6 6v57q0 10 10 10h93q10 0 10 -10v-57q0 -6 5 -6h14q10 0 10 -10v-81q0 -10 -10 -10h-13q-6 0 -6 -6v-36q0 -10 -10 -10zM239 267
q-63 0 -103.5 27t-49.5 75q-2 11 8 12l90 14q8 1 13 -7q13 -25 38 -25q36 0 36 35t-43 35h-13q-10 0 -10 10v74q0 10 10 10h13q16 0 26 8.5t10 23.5q0 32 -32 32q-23 0 -34 -23q-3 -9 -12 -7l-90 14q-10 1 -8 11q9 46 48.5 73.5t100.5 27.5q68 0 108 -32q39 -31 39 -82
t-45 -82v-1q52 -24 52 -94q0 -59 -41 -94t-111 -35zM352 -12h-102q-10 0 -4 10l395 684q6 10 16 10h102q10 0 4 -10l-395 -684q-6 -10 -16 -10z" />
    <glyph glyph-name="questiondown" unicode="&#xbf;" horiz-adv-x="483" 
d="M182 277h136q10 0 10 -10v-41q0 -50 -31 -84l-60 -71q-44 -47 -44 -80q0 -24 15.5 -40t40.5 -16q52 0 65 61q1 10 11 8l129 -18q9 -1 8 -11q-11 -83 -69 -131.5t-148 -48.5q-96 0 -155 55q-60 54 -60 133q0 74 68 145l53 64q21 22 21 58v17q0 10 10 10zM328 477v-126
q0 -10 -10 -10h-138q-10 0 -10 10v126q0 10 10 10h138q10 0 10 -10z" />
    <glyph glyph-name="Agrave" unicode="&#xc0;" horiz-adv-x="674" 
d="M13 10l235 660q3 10 13 10h163q10 0 13 -10l230 -660q3 -10 -7 -10h-165q-10 0 -13 10l-32 105h-221l-32 -105q-3 -10 -13 -10h-164q-10 0 -7 10zM340 473l-66 -212h132l-63 212h-3zM403 747h-115q-11 0 -20 9l-128 123q-3 4 -1.5 7t6.5 3h142q11 0 18 -10l102 -122
q3 -4 1.5 -7t-5.5 -3z" />
    <glyph glyph-name="Aacute" unicode="&#xc1;" horiz-adv-x="674" 
d="M13 10l235 660q3 10 13 10h163q10 0 13 -10l230 -660q3 -10 -7 -10h-165q-10 0 -13 10l-32 105h-221l-32 -105q-3 -10 -13 -10h-164q-10 0 -7 10zM340 473l-66 -212h132l-63 212h-3zM395 747h-115q-12 0 -4 10l102 122q7 10 18 10h142q5 0 6.5 -3t-1.5 -7l-128 -123
q-9 -9 -20 -9z" />
    <glyph glyph-name="Acircumflex" unicode="&#xc2;" horiz-adv-x="674" 
d="M13 10l235 660q3 10 13 10h163q10 0 13 -10l230 -660q3 -10 -7 -10h-165q-10 0 -13 10l-32 105h-221l-32 -105q-3 -10 -13 -10h-164q-10 0 -7 10zM340 473l-66 -212h132l-63 212h-3zM507 741h-95q-13 0 -23 10l-48 50h-2l-49 -50q-10 -10 -23 -10h-95q-12 0 -4 10
l108 137q7 10 19 10h90q12 0 19 -10l108 -137q3 -4 1.5 -7t-6.5 -3z" />
    <glyph glyph-name="Atilde" unicode="&#xc3;" horiz-adv-x="674" 
d="M13 10l235 660q3 10 13 10h163q10 0 13 -10l230 -660q3 -10 -7 -10h-165q-10 0 -13 10l-32 105h-221l-32 -105q-3 -10 -13 -10h-164q-10 0 -7 10zM340 473l-66 -212h132l-63 212h-3zM408 740q-35 0 -83 23q-36 18 -60 18q-33 0 -76 -33q-4 -3 -7 -1.5t-3 5.5v81
q0 11 9 22q37 37 81 37q36 0 84 -24q39 -17 60 -17q32 0 75 32q11 8 11 -3v-81q0 -13 -10 -22q-37 -37 -81 -37z" />
    <glyph glyph-name="Adieresis" unicode="&#xc4;" horiz-adv-x="674" 
d="M13 10l235 660q3 10 13 10h163q10 0 13 -10l230 -660q3 -10 -7 -10h-165q-10 0 -13 10l-32 105h-221l-32 -105q-3 -10 -13 -10h-164q-10 0 -7 10zM340 473l-66 -212h132l-63 212h-3zM496 750h-107q-10 0 -10 10v110q0 10 10 10h107q10 0 10 -10v-110q0 -10 -10 -10z
M290 750h-107q-10 0 -10 10v110q0 10 10 10h107q10 0 10 -10v-110q0 -10 -10 -10z" />
    <glyph glyph-name="Aring" unicode="&#xc5;" horiz-adv-x="674" 
d="M13 10l235 660q3 10 13 10h163q10 0 13 -10l230 -660q3 -10 -7 -10h-165q-10 0 -13 10l-32 105h-221l-32 -105q-3 -10 -13 -10h-164q-10 0 -7 10zM340 473l-66 -212h132l-63 212h-3zM339 704q-49 0 -81.5 32.5t-32.5 81.5t32.5 81t81.5 32q50 0 82.5 -32t32.5 -81
t-32.5 -81.5t-82.5 -32.5zM339 773q27 -2 38 21.5t0 46.5t-38 21q-18 0 -30.5 -12.5t-12.5 -31.5t12.5 -32t30.5 -13z" />
    <glyph glyph-name="AE" unicode="&#xc6;" horiz-adv-x="931" 
d="M889 0h-445q-10 0 -10 10v99q0 6 -6 6h-178l-45 -105q-4 -10 -14 -10h-168q-11 0 -7 10l303 660q4 10 14 10h556q10 0 10 -10v-129q0 -10 -10 -10h-273q-6 0 -6 -6v-103q0 -6 6 -6h224q10 0 10 -10v-126q0 -10 -10 -10h-224q-6 0 -6 -6v-109q0 -6 6 -6h273q10 0 10 -10
v-129q0 -10 -10 -10zM434 531h-3l-117 -270h114q6 0 6 6v264z" />
    <glyph glyph-name="Ccedilla" unicode="&#xc7;" horiz-adv-x="574" 
d="M307 -166h-115q-10 0 -7 10l59 149q-142 26 -185 163q-20 63 -20 184t20 184q27 83 90 125.5t157 42.5q89 0 152 -40t92 -115q4 -9 -5 -14l-133 -58q-10 -4 -14 6q-30 64 -89 64q-62 0 -82 -59q-10 -29 -10 -136t10 -136q20 -59 82 -59q59 0 89 64q4 10 14 6l133 -58
q9 -5 5 -14q-48 -125 -183 -150l-44 -149q-3 -10 -16 -10z" />
    <glyph glyph-name="Egrave" unicode="&#xc8;" horiz-adv-x="557" 
d="M55 10v660q0 10 10 10h445q10 0 10 -10v-129q0 -10 -10 -10h-273q-6 0 -6 -6v-103q0 -6 6 -6h224q10 0 10 -10v-126q0 -10 -10 -10h-224q-6 0 -6 -6v-109q0 -6 6 -6h273q10 0 10 -10v-129q0 -10 -10 -10h-445q-10 0 -10 10zM367 747h-115q-11 0 -20 9l-128 123
q-3 4 -1.5 7t6.5 3h142q11 0 18 -10l102 -122q8 -10 -4 -10z" />
    <glyph glyph-name="Eacute" unicode="&#xc9;" horiz-adv-x="557" 
d="M55 10v660q0 10 10 10h445q10 0 10 -10v-129q0 -10 -10 -10h-273q-6 0 -6 -6v-103q0 -6 6 -6h224q10 0 10 -10v-126q0 -10 -10 -10h-224q-6 0 -6 -6v-109q0 -6 6 -6h273q10 0 10 -10v-129q0 -10 -10 -10h-445q-10 0 -10 10zM310 747h-115q-12 0 -4 10l102 122q7 10 18 10
h142q5 0 6.5 -3t-1.5 -7l-128 -123q-9 -9 -20 -9z" />
    <glyph glyph-name="Ecircumflex" unicode="&#xca;" horiz-adv-x="557" 
d="M55 10v660q0 10 10 10h445q10 0 10 -10v-129q0 -10 -10 -10h-273q-6 0 -6 -6v-103q0 -6 6 -6h224q10 0 10 -10v-126q0 -10 -10 -10h-224q-6 0 -6 -6v-109q0 -6 6 -6h273q10 0 10 -10v-129q0 -10 -10 -10h-445q-10 0 -10 10zM456 741h-95q-13 0 -23 10l-48 50h-2l-49 -50
q-10 -10 -23 -10h-95q-12 0 -4 10l108 137q7 10 19 10h90q12 0 19 -10l108 -137q3 -4 1.5 -7t-6.5 -3z" />
    <glyph glyph-name="Edieresis" unicode="&#xcb;" horiz-adv-x="557" 
d="M55 10v660q0 10 10 10h445q10 0 10 -10v-129q0 -10 -10 -10h-273q-6 0 -6 -6v-103q0 -6 6 -6h224q10 0 10 -10v-126q0 -10 -10 -10h-224q-6 0 -6 -6v-109q0 -6 6 -6h273q10 0 10 -10v-129q0 -10 -10 -10h-445q-10 0 -10 10zM443 750h-107q-10 0 -10 10v110q0 10 10 10
h107q10 0 10 -10v-110q0 -10 -10 -10zM237 750h-107q-10 0 -10 10v110q0 10 10 10h107q10 0 10 -10v-110q0 -10 -10 -10z" />
    <glyph glyph-name="Igrave" unicode="&#xcc;" horiz-adv-x="286" 
d="M211 747h-115q-11 0 -20 9l-128 123q-3 4 -1.5 7t6.5 3h142q11 0 18 -10l102 -122q8 -10 -4 -10zM57 10v660q0 10 10 10h156q10 0 10 -10v-660q0 -10 -10 -10h-156q-10 0 -10 10z" />
    <glyph glyph-name="Iacute" unicode="&#xcd;" horiz-adv-x="286" 
d="M194 747h-115q-12 0 -4 10l102 122q7 10 18 10h142q5 0 6.5 -3t-1.5 -7l-128 -123q-9 -9 -20 -9zM55 10v660q0 10 10 10h156q10 0 10 -10v-660q0 -10 -10 -10h-156q-10 0 -10 10z" />
    <glyph glyph-name="Icircumflex" unicode="&#xce;" horiz-adv-x="286" 
d="M313 741h-95q-13 0 -23 10l-48 50h-2l-49 -50q-10 -10 -23 -10h-95q-4 0 -5.5 3t1.5 7l108 137q7 10 19 10h90q12 0 19 -10l108 -137q3 -4 1.5 -7t-6.5 -3zM57 10v660q0 10 10 10h156q10 0 10 -10v-660q0 -10 -10 -10h-156q-10 0 -10 10z" />
    <glyph glyph-name="Idieresis" unicode="&#xcf;" horiz-adv-x="286" 
d="M55 10v660q0 10 10 10h156q10 0 10 -10v-660q0 -10 -10 -10h-156q-10 0 -10 10zM300 750h-107q-10 0 -10 10v110q0 10 10 10h107q10 0 10 -10v-110q0 -10 -10 -10zM94 750h-107q-10 0 -10 10v110q0 10 10 10h107q10 0 10 -10v-110q0 -10 -10 -10z" />
    <glyph glyph-name="Eth" unicode="&#xd0;" horiz-adv-x="631" 
d="M328 0h-263q-10 0 -10 10v266q0 6 -6 6h-25q-10 0 -10 10v102q0 10 10 10h25q6 0 6 6v260q0 10 10 10h263q192 0 242 -155q20 -65 20 -185t-20 -185q-50 -155 -242 -155zM237 156h53q48 0 74 15t38 50q10 31 10 119t-10 119q-12 35 -38 50t-74 15h-53q-6 0 -6 -6v-108
q0 -6 6 -6h70q10 0 10 -10v-102q0 -10 -10 -10h-70q-6 0 -6 -6v-114q0 -6 6 -6z" />
    <glyph glyph-name="Ntilde" unicode="&#xd1;" horiz-adv-x="653" 
d="M55 10v660q0 10 10 10h147q13 0 17 -10l205 -385h4v385q0 10 10 10h140q10 0 10 -10v-660q0 -10 -10 -10h-147q-13 0 -17 10l-203 384h-6v-384q0 -10 -10 -10h-140q-10 0 -10 10zM395 740q-35 0 -83 23q-36 18 -60 18q-32 0 -76 -33q-4 -3 -7 -1.5t-3 5.5v81q0 11 9 22
q37 37 81 37q36 0 84 -24q39 -17 60 -17q32 0 75 32q11 8 11 -3v-81q0 -13 -10 -22q-37 -37 -81 -37z" />
    <glyph glyph-name="Ograve" unicode="&#xd2;" horiz-adv-x="628" 
d="M59 155q-20 66 -20 185t20 185q26 80 93.5 123.5t161.5 43.5t161.5 -43.5t93.5 -123.5q20 -63 20 -185t-20 -185q-26 -80 -93.5 -123.5t-161.5 -43.5t-161.5 43.5t-93.5 123.5zM401 205q10 27 10 135t-10 135q-19 60 -87 60t-87 -60q-10 -27 -10 -135t10 -135
q19 -60 87 -60t87 60zM385 747h-115q-11 0 -20 9l-128 123q-3 4 -1.5 7t6.5 3h142q11 0 18 -10l102 -122q8 -10 -4 -10z" />
    <glyph glyph-name="Oacute" unicode="&#xd3;" horiz-adv-x="628" 
d="M357 747h-115q-4 0 -5.5 3t1.5 7l102 122q7 10 18 10h142q5 0 6.5 -3t-1.5 -7l-128 -123q-9 -9 -20 -9zM59 155q-20 66 -20 185t20 185q26 80 93.5 123.5t161.5 43.5t161.5 -43.5t93.5 -123.5q20 -63 20 -185t-20 -185q-26 -80 -93.5 -123.5t-161.5 -43.5t-161.5 43.5
t-93.5 123.5zM401 205q10 27 10 135t-10 135q-19 60 -87 60t-87 -60q-10 -27 -10 -135t10 -135q19 -60 87 -60t87 60z" />
    <glyph glyph-name="Ocircumflex" unicode="&#xd4;" horiz-adv-x="628" 
d="M59 155q-20 66 -20 185t20 185q26 80 93.5 123.5t161.5 43.5t161.5 -43.5t93.5 -123.5q20 -63 20 -185t-20 -185q-26 -80 -93.5 -123.5t-161.5 -43.5t-161.5 43.5t-93.5 123.5zM401 205q10 27 10 135t-10 135q-19 60 -87 60t-87 -60q-10 -27 -10 -135t10 -135
q19 -60 87 -60t87 60zM481 741h-95q-13 0 -23 10l-48 50h-2l-49 -50q-10 -10 -23 -10h-95q-4 0 -5.5 3t1.5 7l108 137q7 10 19 10h90q12 0 19 -10l108 -137q3 -4 1.5 -7t-6.5 -3z" />
    <glyph glyph-name="Otilde" unicode="&#xd5;" horiz-adv-x="628" 
d="M59 155q-20 66 -20 185t20 185q26 80 93.5 123.5t161.5 43.5t161.5 -43.5t93.5 -123.5q20 -63 20 -185t-20 -185q-26 -80 -93.5 -123.5t-161.5 -43.5t-161.5 43.5t-93.5 123.5zM401 205q10 27 10 135t-10 135q-19 60 -87 60t-87 -60q-10 -27 -10 -135t10 -135
q19 -60 87 -60t87 60zM382 740q-35 0 -83 23q-36 18 -60 18q-33 0 -76 -33q-4 -3 -7 -1.5t-3 5.5v81q0 11 9 22q37 37 81 37q36 0 84 -24q39 -17 60 -17q32 0 75 32q11 8 11 -3v-81q0 -13 -10 -22q-37 -37 -81 -37z" />
    <glyph glyph-name="Odieresis" unicode="&#xd6;" horiz-adv-x="628" 
d="M59 155q-20 66 -20 185t20 185q26 80 93.5 123.5t161.5 43.5t161.5 -43.5t93.5 -123.5q20 -63 20 -185t-20 -185q-26 -80 -93.5 -123.5t-161.5 -43.5t-161.5 43.5t-93.5 123.5zM401 205q10 27 10 135t-10 135q-19 60 -87 60t-87 -60q-10 -27 -10 -135t10 -135
q19 -60 87 -60t87 60zM470 750h-107q-10 0 -10 10v110q0 10 10 10h107q10 0 10 -10v-110q0 -10 -10 -10zM264 750h-107q-10 0 -10 10v110q0 10 10 10h107q10 0 10 -10v-110q0 -10 -10 -10z" />
    <glyph glyph-name="multiply" unicode="&#xd7;" 
d="M504 141l-81 -81q-7 -8 -14 0l-117 117q-4 4 -8 0l-118 -117q-7 -8 -14 0l-80 80q-7 7 0 14l116 117q4 5 0 9l-116 117q-7 7 0 14l81 82q7 7 14 0l117 -118q4 -3 9 0l117 118q7 7 14 0l80 -81q8 -7 0 -14l-116 -117q-5 -5 0 -8l116 -118q8 -7 0 -14z" />
    <glyph glyph-name="Oslash" unicode="&#xd8;" horiz-adv-x="628" 
d="M135 -30h-102q-11 0 -5 10l70 109q-21 29 -33 66q-20 66 -20 185t20 185q26 80 93.5 123.5t161.5 43.5q80 0 142 -32l26 40q7 10 17 10h101q4 0 6 -3t0 -7l-70 -110q22 -31 33 -65q20 -63 20 -185t-20 -185q-26 -80 -93.5 -123.5t-161.5 -43.5q-80 0 -142 32l-26 -40
q-7 -10 -17 -10zM407 205q10 27 10 135t-10 135q-19 60 -87 60t-87 -60q-10 -27 -10 -135t10 -135q19 -60 87 -60t87 60z" />
    <glyph glyph-name="Ugrave" unicode="&#xd9;" horiz-adv-x="647" 
d="M324 -12q-127 0 -199 71.5t-72 203.5v407q0 10 10 10h156q10 0 10 -10v-418q0 -50 26 -78.5t69 -28.5q44 0 69 28t25 79v418q0 10 10 10h156q10 0 10 -10v-407q0 -131 -72.5 -203t-197.5 -72zM395 747h-115q-11 0 -20 9l-128 123q-3 4 -1.5 7t6.5 3h142q11 0 18 -10
l102 -122q8 -10 -4 -10z" />
    <glyph glyph-name="Uacute" unicode="&#xda;" horiz-adv-x="647" 
d="M371 747h-115q-4 0 -5.5 3t1.5 7l102 122q7 10 18 10h142q5 0 6.5 -3t-1.5 -7l-128 -123q-9 -9 -20 -9zM324 -12q-127 0 -199 71.5t-72 203.5v407q0 10 10 10h156q10 0 10 -10v-418q0 -50 26 -78.5t69 -28.5q44 0 69 28t25 79v418q0 10 10 10h156q10 0 10 -10v-407
q0 -131 -72.5 -203t-197.5 -72z" />
    <glyph glyph-name="Ucircumflex" unicode="&#xdb;" horiz-adv-x="647" 
d="M324 -12q-127 0 -199 71.5t-72 203.5v407q0 10 10 10h156q10 0 10 -10v-418q0 -50 26 -78.5t69 -28.5q44 0 69 28t25 79v418q0 10 10 10h156q10 0 10 -10v-407q0 -131 -72.5 -203t-197.5 -72zM490 741h-95q-13 0 -23 10l-48 50h-2l-49 -50q-10 -10 -23 -10h-95
q-12 0 -4 10l108 137q7 10 19 10h90q12 0 19 -10l108 -137q3 -4 1.5 -7t-6.5 -3z" />
    <glyph glyph-name="Udieresis" unicode="&#xdc;" horiz-adv-x="647" 
d="M324 -12q-127 0 -199 71.5t-72 203.5v407q0 10 10 10h156q10 0 10 -10v-418q0 -50 26 -78.5t69 -28.5q44 0 69 28t25 79v418q0 10 10 10h156q10 0 10 -10v-407q0 -131 -72.5 -203t-197.5 -72zM480 750h-107q-10 0 -10 10v110q0 10 10 10h107q10 0 10 -10v-110
q0 -10 -10 -10zM274 750h-107q-10 0 -10 10v110q0 10 10 10h107q10 0 10 -10v-110q0 -10 -10 -10z" />
    <glyph glyph-name="Yacute" unicode="&#xdd;" horiz-adv-x="602" 
d="M383 0h-156q-10 0 -10 10v253l-206 406q-5 11 8 11h157q10 0 16 -10l114 -232h3l112 232q4 10 16 10h154q13 0 8 -11l-206 -406v-253q0 -10 -10 -10zM356 747h-115q-12 0 -4 10l102 122q7 10 18 10h142q5 0 6.5 -3t-1.5 -7l-128 -123q-9 -9 -20 -9z" />
    <glyph glyph-name="Thorn" unicode="&#xde;" horiz-adv-x="612" 
d="M221 0h-156q-10 0 -10 10v660q0 10 10 10h156q10 0 10 -10v-87q0 -6 6 -6h100q119 0 185.5 -61t66.5 -165q0 -101 -66 -164t-186 -63h-100q-6 0 -6 -6v-108q0 -10 -10 -10zM237 273h90q41 0 63.5 21t22.5 57t-22.5 56.5t-63.5 20.5h-90q-6 0 -6 -6v-143q0 -6 6 -6z" />
    <glyph glyph-name="germandbls" unicode="&#xdf;" horiz-adv-x="579" 
d="M328 -5h-40q-10 0 -10 10v110q0 10 10 10h24q50 0 62 39q5 17 5 64q0 48 -5 66q-14 41 -67 41h-17q-10 0 -10 10v108q0 10 10 10h25q53 0 53 48q0 47 -70 47q-42 0 -60.5 -18.5t-18.5 -57.5v-472q0 -10 -10 -10h-146q-10 0 -10 10v470q0 106 59.5 159t184.5 53
q112 0 173 -46q62 -47 62 -125q0 -79 -57 -117v-2q43 -23 59 -71q10 -30 10 -107q0 -86 -12 -124q-18 -56 -67 -80.5t-137 -24.5z" />
    <glyph glyph-name="agrave" unicode="&#xe0;" horiz-adv-x="532" 
d="M472 0h-138q-10 0 -10 10v28h-1q-44 -50 -131 -50q-71 0 -114.5 39t-43.5 111q0 78 55 119t152 41h77q6 0 6 6v13q0 28 -20 39.5t-74 11.5q-65 0 -105 -28q-9 -4 -13 3l-52 92q-4 10 3 16q71 48 189 48q124 0 177 -42.5t53 -139.5v-307q0 -10 -10 -10zM248 108
q76 0 76 52v30q0 6 -6 6h-59q-68 0 -68 -46q0 -42 57 -42zM360 546h-116q-10 0 -17 10l-103 136q-3 4 -1.5 7t6.5 3h139q11 0 17 -10l80 -136q4 -10 -5 -10z" />
    <glyph glyph-name="aacute" unicode="&#xe1;" horiz-adv-x="532" 
d="M472 0h-138q-10 0 -10 10v28h-1q-44 -50 -131 -50q-71 0 -114.5 39t-43.5 111q0 78 55 119t152 41h77q6 0 6 6v13q0 28 -20 39.5t-74 11.5q-65 0 -105 -28q-9 -4 -13 3l-52 92q-4 10 3 16q71 48 189 48q124 0 177 -42.5t53 -139.5v-307q0 -10 -10 -10zM248 108
q76 0 76 52v30q0 6 -6 6h-59q-68 0 -68 -46q0 -42 57 -42zM315 546h-116q-9 0 -5 10l80 136q6 10 17 10h139q5 0 6.5 -3t-1.5 -7l-103 -136q-7 -10 -17 -10z" />
    <glyph glyph-name="acircumflex" unicode="&#xe2;" horiz-adv-x="532" 
d="M472 0h-138q-10 0 -10 10v28h-1q-44 -50 -131 -50q-71 0 -114.5 39t-43.5 111q0 78 55 119t152 41h77q6 0 6 6v13q0 28 -20 39.5t-74 11.5q-65 0 -105 -28q-9 -4 -13 3l-52 92q-4 10 3 16q71 48 189 48q124 0 177 -42.5t53 -139.5v-307q0 -10 -10 -10zM248 108
q76 0 76 52v30q0 6 -6 6h-59q-68 0 -68 -46q0 -42 57 -42zM433 544h-95q-13 0 -23 10l-49 50h-2l-48 -50q-10 -10 -23 -10h-95q-5 0 -6.5 3t1.5 7l109 137q7 10 18 10h91q11 0 18 -10l109 -137q3 -4 1.5 -7t-6.5 -3z" />
    <glyph glyph-name="atilde" unicode="&#xe3;" horiz-adv-x="532" 
d="M472 0h-138q-10 0 -10 10v28h-1q-44 -50 -131 -50q-71 0 -114.5 39t-43.5 111q0 78 55 119t152 41h77q6 0 6 6v13q0 28 -20 39.5t-74 11.5q-65 0 -105 -28q-9 -4 -13 3l-52 92q-4 10 3 16q71 48 189 48q124 0 177 -42.5t53 -139.5v-307q0 -10 -10 -10zM248 108
q76 0 76 52v30q0 6 -6 6h-59q-68 0 -68 -46q0 -42 57 -42zM335 545q-35 0 -83 23q-36 18 -60 18q-32 0 -76 -32q-4 -3 -7 -2t-3 5v81q0 13 9 22q37 37 81 37q36 0 84 -23q36 -18 60 -18q34 0 75 33q11 8 11 -4v-81q0 -13 -10 -22q-37 -37 -81 -37z" />
    <glyph glyph-name="adieresis" unicode="&#xe4;" horiz-adv-x="532" 
d="M472 0h-138q-10 0 -10 10v28h-1q-44 -50 -131 -50q-71 0 -114.5 39t-43.5 111q0 78 55 119t152 41h77q6 0 6 6v13q0 28 -20 39.5t-74 11.5q-65 0 -105 -28q-9 -4 -13 3l-52 92q-4 10 3 16q71 48 189 48q124 0 177 -42.5t53 -139.5v-307q0 -10 -10 -10zM248 108
q76 0 76 52v30q0 6 -6 6h-59q-68 0 -68 -46q0 -42 57 -42zM421 550h-108q-10 0 -10 10v110q0 10 10 10h108q10 0 10 -10v-110q0 -10 -10 -10zM216 550h-108q-10 0 -10 10v110q0 10 10 10h108q10 0 10 -10v-110q0 -10 -10 -10z" />
    <glyph glyph-name="aring" unicode="&#xe5;" horiz-adv-x="532" 
d="M472 0h-138q-10 0 -10 10v28h-1q-44 -50 -131 -50q-71 0 -114.5 39t-43.5 111q0 78 55 119t152 41h77q6 0 6 6v13q0 28 -20 39.5t-74 11.5q-65 0 -105 -28q-9 -4 -13 3l-52 92q-4 10 3 16q71 48 189 48q124 0 177 -42.5t53 -139.5v-307q0 -10 -10 -10zM248 108
q76 0 76 52v30q0 6 -6 6h-59q-68 0 -68 -46q0 -42 57 -42zM267 518q-49 0 -81.5 32.5t-32.5 81.5t32.5 81.5t81.5 32.5q50 0 82.5 -32.5t32.5 -81.5t-32.5 -81.5t-82.5 -32.5zM267 587q27 -2 38 21.5t0 47t-38 21.5q-18 0 -30.5 -13t-12.5 -32t12.5 -32t30.5 -13z" />
    <glyph glyph-name="ae" unicode="&#xe6;" horiz-adv-x="819" 
d="M562 -12q-51 0 -95 18.5t-70 50.5h-1q-52 -69 -183 -69q-86 0 -132.5 38.5t-46.5 111.5q0 78 55 119t152 41h77q6 0 6 6v13q0 28 -20 39.5t-74 11.5q-65 0 -105 -28q-9 -4 -13 3l-52 92q-4 10 3 16q71 48 189 48q103 0 164 -43h2q53 43 134 43q175 0 220 -141
q15 -45 15 -152q0 -10 -10 -10h-289q-6 0 -6 -6q0 -13 4 -20q17 -53 94 -53q60 0 109 39q8 8 14 0l72 -73q7 -7 -1 -15q-83 -80 -212 -80zM488 298h132q6 0 6 6q0 15 -5 30q-14 44 -67 44q-54 0 -68 -44q-4 -9 -4 -30q0 -6 6 -6zM248 108q76 0 76 52v30q0 6 -6 6h-59
q-68 0 -68 -46q0 -42 57 -42z" />
    <glyph glyph-name="ccedilla" unicode="&#xe7;" horiz-adv-x="493" 
d="M258 -166h-115q-10 0 -7 10l60 151q-118 34 -150 136q-14 40 -14 112q0 73 14 113q22 68 79 105.5t138 37.5q70 0 123.5 -31t78.5 -81q4 -9 -4 -14l-112 -58q-11 -7 -15 3q-24 43 -66 43q-44 0 -59 -42q-7 -20 -7 -76q0 -55 7 -75q15 -42 59 -42q42 0 66 43q4 11 15 3
l112 -58q8 -5 4 -14q-42 -83 -147 -106l-44 -150q-3 -10 -16 -10z" />
    <glyph glyph-name="egrave" unicode="&#xe8;" horiz-adv-x="533" 
d="M275 -12q-87 0 -146 37.5t-81 105.5q-16 45 -16 112t15 113q23 68 79.5 105.5t138.5 37.5q86 0 142.5 -36.5t77.5 -104.5q16 -47 16 -152q0 -10 -11 -10h-289q-6 0 -6 -6q1 -7 4 -20q17 -53 94 -53q61 0 109 39q8 8 15 0l71 -73q9 -8 -1 -15q-83 -80 -212 -80zM201 298
h132q6 0 6 6q0 21 -4 30q-14 44 -68 44t-68 -44q-4 -15 -4 -30q0 -6 6 -6zM338 546h-116q-10 0 -17 10l-103 136q-3 4 -1.5 7t6.5 3h139q11 0 17 -10l80 -136q4 -10 -5 -10z" />
    <glyph glyph-name="eacute" unicode="&#xe9;" horiz-adv-x="533" 
d="M275 -12q-87 0 -146 37.5t-81 105.5q-16 45 -16 112t15 113q23 68 79.5 105.5t138.5 37.5q86 0 142.5 -36.5t77.5 -104.5q16 -47 16 -152q0 -10 -11 -10h-289q-6 0 -6 -6q1 -7 4 -20q17 -53 94 -53q61 0 109 39q8 8 15 0l71 -73q9 -8 -1 -15q-83 -80 -212 -80zM201 298
h132q6 0 6 6q0 21 -4 30q-14 44 -68 44t-68 -44q-4 -15 -4 -30q0 -6 6 -6zM309 546h-116q-9 0 -5 10l80 136q6 10 17 10h139q5 0 6.5 -3t-1.5 -7l-103 -136q-7 -10 -17 -10z" />
    <glyph glyph-name="ecircumflex" unicode="&#xea;" horiz-adv-x="533" 
d="M275 -12q-87 0 -146 37.5t-81 105.5q-16 45 -16 112t15 113q23 68 79.5 105.5t138.5 37.5q86 0 142.5 -36.5t77.5 -104.5q16 -47 16 -152q0 -10 -11 -10h-289q-6 0 -6 -6q1 -7 4 -20q17 -53 94 -53q61 0 109 39q8 8 15 0l71 -73q9 -8 -1 -15q-83 -80 -212 -80zM201 298
h132q6 0 6 6q0 21 -4 30q-14 44 -68 44t-68 -44q-4 -15 -4 -30q0 -6 6 -6zM433 544h-95q-13 0 -23 10l-49 50h-2l-48 -50q-10 -10 -23 -10h-95q-5 0 -6.5 3t1.5 7l109 137q7 10 18 10h91q11 0 18 -10l109 -137q3 -4 1.5 -7t-6.5 -3z" />
    <glyph glyph-name="edieresis" unicode="&#xeb;" horiz-adv-x="533" 
d="M275 -12q-87 0 -146 37.5t-81 105.5q-16 45 -16 112t15 113q23 68 79.5 105.5t138.5 37.5q86 0 142.5 -36.5t77.5 -104.5q16 -47 16 -152q0 -10 -11 -10h-289q-6 0 -6 -6q1 -7 4 -20q17 -53 94 -53q61 0 109 39q8 8 15 0l71 -73q9 -8 -1 -15q-83 -80 -212 -80zM201 298
h132q6 0 6 6q0 21 -4 30q-14 44 -68 44t-68 -44q-4 -15 -4 -30q0 -6 6 -6zM422 550h-108q-10 0 -10 10v110q0 10 10 10h108q10 0 10 -10v-110q0 -10 -10 -10zM217 550h-108q-10 0 -10 10v110q0 10 10 10h108q10 0 10 -10v-110q0 -10 -10 -10z" />
    <glyph glyph-name="igrave" unicode="&#xec;" horiz-adv-x="274" 
d="M201 546h-116q-10 0 -17 10l-103 136q-3 4 -1.5 7t6.5 3h139q11 0 17 -10l80 -136q4 -10 -5 -10zM213 0h-148q-10 0 -10 10v467q0 10 10 10h148q10 0 10 -10v-467q0 -10 -10 -10z" />
    <glyph glyph-name="iacute" unicode="&#xed;" horiz-adv-x="274" 
d="M193 546h-116q-9 0 -5 10l80 136q6 10 17 10h139q5 0 6.5 -3t-1.5 -7l-103 -136q-7 -10 -17 -10zM211 0h-148q-10 0 -10 10v467q0 10 10 10h148q10 0 10 -10v-467q0 -10 -10 -10z" />
    <glyph glyph-name="icircumflex" unicode="&#xee;" horiz-adv-x="274" 
d="M307 544h-95q-13 0 -23 10l-49 50h-2l-48 -50q-10 -10 -23 -10h-95q-5 0 -6.5 3t1.5 7l109 137q7 10 18 10h91q11 0 18 -10l109 -137q3 -4 1.5 -7t-6.5 -3zM213 0h-148q-10 0 -10 10v467q0 10 10 10h148q10 0 10 -10v-467q0 -10 -10 -10z" />
    <glyph glyph-name="idieresis" unicode="&#xef;" horiz-adv-x="274" 
d="M294 550h-108q-10 0 -10 10v110q0 10 10 10h108q10 0 10 -10v-110q0 -10 -10 -10zM89 550h-108q-10 0 -10 10v110q0 10 10 10h108q10 0 10 -10v-110q0 -10 -10 -10zM211 0h-148q-10 0 -10 10v467q0 10 10 10h148q10 0 10 -10v-467q0 -10 -10 -10z" />
    <glyph glyph-name="eth" unicode="&#xf0;" horiz-adv-x="538" 
d="M423 566l-55 -17l23 -31q64 -89 89 -150q27 -63 27 -137q0 -51 -14 -98q-23 -69 -81.5 -107t-142.5 -38t-142.5 37t-79.5 101q-15 48 -15 93q0 50 14 97q19 58 64.5 92t107.5 34q38 0 67 -18h2l-61 83l-98 -29q-10 -1 -13 7l-21 73q-3 10 7 13l64 19l-58 80q-3 4 -1.5 7
t6.5 3h148q12 0 19 -9l28 -39l88 26q10 1 13 -7l22 -72q1 -10 -7 -13zM269 125q49 0 62 42q6 21 6 52t-6 52q-13 42 -61 42t-62 -42q-7 -22 -7 -52q0 -28 7 -52q14 -42 61 -42z" />
    <glyph glyph-name="ntilde" unicode="&#xf1;" horiz-adv-x="558" 
d="M498 0h-148q-10 0 -10 10v278q0 71 -59 71q-28 0 -44 -19t-16 -52v-278q0 -10 -10 -10h-148q-10 0 -10 10v467q0 10 10 10h148q10 0 10 -10v-35h1q39 57 125 57q79 0 120 -48t41 -134v-307q0 -10 -10 -10zM347 545q-35 0 -83 23q-36 18 -60 18q-32 0 -76 -32q-4 -3 -7 -2
t-3 5v81q0 13 9 22q37 37 81 37q36 0 84 -23q36 -18 60 -18q34 0 75 33q11 8 11 -4v-81q0 -13 -10 -22q-37 -37 -81 -37z" />
    <glyph glyph-name="ograve" unicode="&#xf2;" horiz-adv-x="538" 
d="M47 129q-15 49 -15 114t15 115q22 67 80.5 104t141.5 37t141 -36.5t81 -104.5q15 -49 15 -115q0 -65 -15 -114q-23 -68 -81 -104.5t-141 -36.5t-141.5 37t-80.5 104zM329 167q7 24 7 76q0 53 -7 77q-15 41 -60 41t-60 -41q-7 -24 -7 -77q0 -52 7 -76q15 -41 60 -41t60 41
zM338 546h-116q-10 0 -17 10l-103 136q-3 4 -1.5 7t6.5 3h139q11 0 17 -10l80 -136q4 -10 -5 -10z" />
    <glyph glyph-name="oacute" unicode="&#xf3;" horiz-adv-x="538" 
d="M47 129q-15 49 -15 114t15 115q22 67 80.5 104t141.5 37t141 -36.5t81 -104.5q15 -49 15 -115q0 -65 -15 -114q-23 -68 -81 -104.5t-141 -36.5t-141.5 37t-80.5 104zM329 167q7 24 7 76q0 53 -7 77q-15 41 -60 41t-60 -41q-7 -24 -7 -77q0 -52 7 -76q15 -41 60 -41t60 41
zM317 546h-116q-9 0 -5 10l80 136q6 10 17 10h139q5 0 6.5 -3t-1.5 -7l-103 -136q-7 -10 -17 -10z" />
    <glyph glyph-name="ocircumflex" unicode="&#xf4;" horiz-adv-x="538" 
d="M47 129q-15 49 -15 114t15 115q22 67 80.5 104t141.5 37t141 -36.5t81 -104.5q15 -49 15 -115q0 -65 -15 -114q-23 -68 -81 -104.5t-141 -36.5t-141.5 37t-80.5 104zM329 167q7 24 7 76q0 53 -7 77q-15 41 -60 41t-60 -41q-7 -24 -7 -77q0 -52 7 -76q15 -41 60 -41t60 41
zM436 544h-95q-13 0 -23 10l-49 50h-2l-48 -50q-10 -10 -23 -10h-95q-5 0 -6.5 3t1.5 7l109 137q7 10 18 10h91q11 0 18 -10l109 -137q3 -4 1.5 -7t-6.5 -3z" />
    <glyph glyph-name="otilde" unicode="&#xf5;" horiz-adv-x="538" 
d="M47 129q-15 49 -15 114t15 115q22 67 80.5 104t141.5 37t141 -36.5t81 -104.5q15 -49 15 -115q0 -65 -15 -114q-23 -68 -81 -104.5t-141 -36.5t-141.5 37t-80.5 104zM329 167q7 24 7 76q0 53 -7 77q-15 41 -60 41t-60 -41q-7 -24 -7 -77q0 -52 7 -76q15 -41 60 -41t60 41
zM337 545q-35 0 -83 23q-36 18 -60 18q-32 0 -76 -32q-4 -3 -7 -2t-3 5v81q0 13 9 22q37 37 81 37q36 0 84 -23q36 -18 60 -18q34 0 75 33q11 8 11 -4v-81q0 -13 -10 -22q-37 -37 -81 -37z" />
    <glyph glyph-name="odieresis" unicode="&#xf6;" horiz-adv-x="538" 
d="M47 129q-15 49 -15 114t15 115q22 67 80.5 104t141.5 37t141 -36.5t81 -104.5q15 -49 15 -115q0 -65 -15 -114q-23 -68 -81 -104.5t-141 -36.5t-141.5 37t-80.5 104zM329 167q7 24 7 76q0 53 -7 77q-15 41 -60 41t-60 -41q-7 -24 -7 -77q0 -52 7 -76q15 -41 60 -41t60 41
zM424 550h-108q-10 0 -10 10v110q0 10 10 10h108q10 0 10 -10v-110q0 -10 -10 -10zM219 550h-108q-10 0 -10 10v110q0 10 10 10h108q10 0 10 -10v-110q0 -10 -10 -10z" />
    <glyph glyph-name="divide" unicode="&#xf7;" 
d="M281 389q-35 0 -60 24.5t-25 59.5q0 36 25 60.5t60 24.5q36 0 60.5 -24.5t24.5 -60.5q0 -35 -24.5 -59.5t-60.5 -24.5zM505 206h-448q-10 0 -10 10v120q0 10 10 10h448q10 0 10 -10v-120q0 -10 -10 -10zM281 -6q-35 0 -60 24.5t-25 60.5q0 35 25 59.5t60 24.5
q36 0 60.5 -24.5t24.5 -59.5q0 -36 -24.5 -60.5t-60.5 -24.5z" />
    <glyph glyph-name="oslash" unicode="&#xf8;" horiz-adv-x="538" 
d="M270 -12q-67 0 -118 24l-24 -32q-7 -10 -19 -10h-82q-4 0 -5.5 3t1.5 7l62 82q-27 34 -37 67q-15 49 -15 114t15 115q22 67 80.5 104t141.5 37q67 0 118 -24l24 32q7 10 19 10h81q11 0 5 -10l-62 -83q22 -25 37 -66q15 -49 15 -115q0 -65 -15 -114q-23 -68 -81 -104.5
t-141 -36.5zM330 167q7 24 7 76q0 53 -7 77q-15 41 -60 41t-60 -41q-7 -24 -7 -77q0 -52 7 -76q15 -41 60 -41t60 41z" />
    <glyph glyph-name="ugrave" unicode="&#xf9;" horiz-adv-x="555" 
d="M492 0h-148q-10 0 -10 10v35h-1q-41 -57 -124 -57q-79 0 -119.5 48t-40.5 134v307q0 10 10 10h148q10 0 10 -10v-278q0 -71 59 -71q58 0 58 71v278q0 10 10 10h148q10 0 10 -10v-467q0 -10 -10 -10zM347 546h-116q-10 0 -17 10l-103 136q-3 4 -1.5 7t6.5 3h139
q11 0 17 -10l80 -136q4 -10 -5 -10z" />
    <glyph glyph-name="uacute" unicode="&#xfa;" horiz-adv-x="555" 
d="M324 546h-116q-9 0 -5 10l80 136q6 10 17 10h139q5 0 6.5 -3t-1.5 -7l-103 -136q-7 -10 -17 -10zM492 0h-148q-10 0 -10 10v35h-1q-41 -57 -124 -57q-79 0 -119.5 48t-40.5 134v307q0 10 10 10h148q10 0 10 -10v-278q0 -71 59 -71q58 0 58 71v278q0 10 10 10h148
q10 0 10 -10v-467q0 -10 -10 -10z" />
    <glyph glyph-name="ucircumflex" unicode="&#xfb;" horiz-adv-x="555" 
d="M492 0h-148q-10 0 -10 10v35h-1q-41 -57 -124 -57q-79 0 -119.5 48t-40.5 134v307q0 10 10 10h148q10 0 10 -10v-278q0 -71 59 -71q58 0 58 71v278q0 10 10 10h148q10 0 10 -10v-467q0 -10 -10 -10zM445 544h-95q-13 0 -23 10l-49 50h-2l-48 -50q-10 -10 -23 -10h-95
q-5 0 -6.5 3t1.5 7l109 137q7 10 18 10h91q11 0 18 -10l109 -137q3 -4 1.5 -7t-6.5 -3z" />
    <glyph glyph-name="udieresis" unicode="&#xfc;" horiz-adv-x="555" 
d="M492 0h-148q-10 0 -10 10v35h-1q-41 -57 -124 -57q-79 0 -119.5 48t-40.5 134v307q0 10 10 10h148q10 0 10 -10v-278q0 -71 59 -71q58 0 58 71v278q0 10 10 10h148q10 0 10 -10v-467q0 -10 -10 -10zM433 550h-108q-10 0 -10 10v110q0 10 10 10h108q10 0 10 -10v-110
q0 -10 -10 -10zM228 550h-108q-10 0 -10 10v110q0 10 10 10h108q10 0 10 -10v-110q0 -10 -10 -10z" />
    <glyph glyph-name="yacute" unicode="&#xfd;" horiz-adv-x="531" 
d="M137 -180h-37q-10 0 -10 10v118q0 10 10 10h25q46 0 60 41l11 31l-183 447q-4 10 7 10h157q9 0 12 -10l84 -244h2l78 244q3 10 13 10h153q11 0 7 -10l-211 -532q-29 -73 -67 -98q-39 -27 -111 -27zM322 546h-116q-9 0 -5 10l80 136q6 10 17 10h139q5 0 6.5 -3t-1.5 -7
l-103 -136q-7 -10 -17 -10z" />
    <glyph glyph-name="thorn" unicode="&#xfe;" horiz-adv-x="557" 
d="M211 -180h-148q-10 0 -10 10v840q0 10 10 10h148q10 0 10 -10v-229h1q37 58 125 58q123 0 161 -117q17 -57 17 -139q0 -81 -17 -138q-38 -117 -161 -117q-88 0 -125 58h-1v-216q0 -10 -10 -10zM288 126q45 0 60 41q7 21 7 76q0 56 -7 77q-15 41 -60 41t-59 -41
q-8 -22 -8 -77q0 -54 8 -76q14 -41 59 -41z" />
    <glyph glyph-name="ydieresis" unicode="&#xff;" horiz-adv-x="531" 
d="M137 -180h-37q-10 0 -10 10v118q0 10 10 10h25q46 0 60 41l11 31l-183 447q-4 10 7 10h157q9 0 12 -10l84 -244h2l78 244q3 10 13 10h153q11 0 7 -10l-211 -532q-29 -73 -67 -98q-39 -27 -111 -27zM425 550h-108q-10 0 -10 10v110q0 10 10 10h108q10 0 10 -10v-110
q0 -10 -10 -10zM220 550h-108q-10 0 -10 10v110q0 10 10 10h108q10 0 10 -10v-110q0 -10 -10 -10z" />
    <glyph glyph-name="Amacron" unicode="&#x100;" horiz-adv-x="674" 
d="M13 10l235 660q3 10 13 10h163q10 0 13 -10l230 -660q3 -10 -7 -10h-165q-10 0 -13 10l-32 105h-221l-32 -105q-3 -10 -13 -10h-164q-10 0 -7 10zM340 473l-66 -212h132l-63 212h-3zM490 761h-301q-10 0 -10 10v90q0 10 10 10h301q10 0 10 -10v-90q0 -10 -10 -10z" />
    <glyph glyph-name="amacron" unicode="&#x101;" horiz-adv-x="532" 
d="M472 0h-138q-10 0 -10 10v28h-1q-44 -50 -131 -50q-71 0 -114.5 39t-43.5 111q0 78 55 119t152 41h77q6 0 6 6v13q0 28 -20 39.5t-74 11.5q-65 0 -105 -28q-9 -4 -13 3l-52 92q-4 10 3 16q71 48 189 48q124 0 177 -42.5t53 -139.5v-307q0 -10 -10 -10zM248 108
q76 0 76 52v30q0 6 -6 6h-59q-68 0 -68 -46q0 -42 57 -42zM416 562h-301q-10 0 -10 10v91q0 10 10 10h301q10 0 10 -10v-91q0 -10 -10 -10z" />
    <glyph glyph-name="Abreve" unicode="&#x102;" horiz-adv-x="674" 
d="M13 10l235 660q3 10 13 10h163q10 0 13 -10l230 -660q3 -10 -7 -10h-165q-10 0 -13 10l-32 105h-221l-32 -105q-3 -10 -13 -10h-164q-10 0 -7 10zM340 473l-66 -212h132l-63 212h-3zM339 734q-69 0 -113 40q-45 41 -47 101q0 10 12 10h65q10 0 14 -10q18 -40 69 -40
q52 0 70 40q4 10 14 10h65q12 0 12 -10q-2 -60 -47 -101q-44 -40 -114 -40z" />
    <glyph glyph-name="abreve" unicode="&#x103;" horiz-adv-x="532" 
d="M472 0h-138q-10 0 -10 10v28h-1q-44 -50 -131 -50q-71 0 -114.5 39t-43.5 111q0 78 55 119t152 41h77q6 0 6 6v13q0 28 -20 39.5t-74 11.5q-65 0 -105 -28q-9 -4 -13 3l-52 92q-4 10 3 16q71 48 189 48q124 0 177 -42.5t53 -139.5v-307q0 -10 -10 -10zM248 108
q76 0 76 52v30q0 6 -6 6h-59q-68 0 -68 -46q0 -42 57 -42zM105 679q0 11 12 11h65q9 0 14 -11q18 -40 69 -40q52 0 70 40q5 11 14 11h65q12 0 12 -11q-2 -61 -48 -101q-44 -40 -113 -40t-113 40q-45 41 -47 101z" />
    <glyph glyph-name="Aogonek" unicode="&#x104;" horiz-adv-x="674" 
d="M558 -192q-51 0 -80.5 26.5t-29.5 70.5q0 55 54 95h-11q-6 2 -9 10l-32 105h-220l-33 -105q-3 -10 -10 -10h-165q-12 0 -9 10l235 660q3 10 11 10h166q9 0 12 -10l230 -660q2 -8 -9 -11q-89 -36 -89 -65q0 -16 17 -16q7 0 25 8q8 5 13 -3l38 -71q5 -8 -4 -13
q-46 -31 -100 -31zM343 473h-3l-67 -212h134z" />
    <glyph glyph-name="aogonek" unicode="&#x105;" horiz-adv-x="532" 
d="M324 10v28h-1q-44 -50 -131 -50q-71 0 -114.5 39t-43.5 111q0 78 55 119t152 41h77q6 0 6 6v13q0 28 -20 39.5t-74 11.5q-65 0 -105 -28q-9 -4 -13 3l-52 92q-4 10 3 16q71 48 189 48q124 0 177 -42.5t53 -139.5v-307q0 -6 -7 -10q-90 -38 -90 -66q0 -16 17 -16
q10 0 24 8q9 4 13 -3l38 -71q5 -8 -4 -13q-44 -31 -99 -31q-51 0 -80.5 26.5t-29.5 70.5q0 59 66 98q-6 0 -6 7zM248 108q76 0 76 52v30q0 6 -6 6h-59q-68 0 -68 -46q0 -42 57 -42z" />
    <glyph glyph-name="Cacute" unicode="&#x106;" horiz-adv-x="574" 
d="M59 156q-20 63 -20 184t20 184q27 83 90 125.5t157 42.5q89 0 152 -40t92 -115q4 -9 -5 -14l-133 -58q-10 -4 -14 6q-30 64 -89 64q-62 0 -82 -59q-10 -29 -10 -136t10 -136q20 -59 82 -59q59 0 89 64q4 10 14 6l133 -58q9 -5 5 -14q-29 -75 -92 -115t-152 -40
q-94 0 -157 42.5t-90 125.5zM340 747h-115q-12 0 -4 10l102 122q7 10 18 10h142q5 0 6.5 -3t-1.5 -7l-128 -123q-9 -9 -20 -9z" />
    <glyph glyph-name="cacute" unicode="&#x107;" horiz-adv-x="493" 
d="M298 546h-116q-9 0 -5 10l80 136q6 10 17 10h139q5 0 6.5 -3t-1.5 -7l-103 -136q-7 -10 -17 -10zM263 -12q-81 0 -138 37.5t-79 105.5q-14 40 -14 112q0 73 14 113q22 68 79 105.5t138 37.5q70 0 123.5 -31t78.5 -81q4 -9 -4 -14l-112 -58q-11 -7 -15 3q-24 43 -66 43
q-44 0 -59 -42q-7 -20 -7 -76q0 -55 7 -75q15 -42 59 -42q42 0 66 43q4 11 15 3l112 -58q8 -5 4 -14q-25 -50 -78.5 -81t-123.5 -31z" />
    <glyph glyph-name="Ccircumflex" unicode="&#x108;" horiz-adv-x="574" 
d="M59 156q-20 63 -20 184t20 184q27 83 90 125.5t157 42.5q89 0 152 -40t92 -115q4 -9 -5 -14l-133 -58q-10 -4 -14 6q-30 64 -89 64q-62 0 -82 -59q-10 -29 -10 -136t10 -136q20 -59 82 -59q59 0 89 64q4 10 14 6l133 -58q9 -5 5 -14q-29 -75 -92 -115t-152 -40
q-94 0 -157 42.5t-90 125.5zM471 741h-95q-13 0 -23 10l-48 50h-2l-49 -50q-10 -10 -23 -10h-95q-4 0 -5.5 3t1.5 7l108 137q7 10 19 10h90q12 0 19 -10l108 -137q3 -4 1.5 -7t-6.5 -3z" />
    <glyph glyph-name="ccircumflex" unicode="&#x109;" horiz-adv-x="493" 
d="M263 -12q-81 0 -138 37.5t-79 105.5q-14 40 -14 112q0 73 14 113q22 68 79 105.5t138 37.5q70 0 123.5 -31t78.5 -81q4 -9 -4 -14l-112 -58q-11 -7 -15 3q-24 43 -66 43q-44 0 -59 -42q-7 -20 -7 -76q0 -55 7 -75q15 -42 59 -42q42 0 66 43q4 11 15 3l112 -58q8 -5 4 -14
q-25 -50 -78.5 -81t-123.5 -31zM430 544h-95q-13 0 -23 10l-49 50h-2l-48 -50q-10 -10 -23 -10h-95q-5 0 -6.5 3t1.5 7l109 137q7 10 18 10h91q11 0 18 -10l109 -137q3 -4 1.5 -7t-6.5 -3z" />
    <glyph glyph-name="Cdotaccent" unicode="&#x10a;" horiz-adv-x="574" 
d="M59 156q-20 63 -20 184t20 184q27 83 90 125.5t157 42.5q89 0 152 -40t92 -115q4 -9 -5 -14l-133 -58q-10 -4 -14 6q-30 64 -89 64q-62 0 -82 -59q-10 -29 -10 -136t10 -136q20 -59 82 -59q59 0 89 64q4 10 14 6l133 -58q9 -5 5 -14q-29 -75 -92 -115t-152 -40
q-94 0 -157 42.5t-90 125.5zM370 750h-138q-10 0 -10 10v110q0 10 10 10h138q10 0 10 -10v-110q0 -10 -10 -10z" />
    <glyph glyph-name="cdotaccent" unicode="&#x10b;" horiz-adv-x="493" 
d="M263 -12q-81 0 -138 37.5t-79 105.5q-14 40 -14 112q0 73 14 113q22 68 79 105.5t138 37.5q70 0 123.5 -31t78.5 -81q4 -9 -4 -14l-112 -58q-11 -7 -15 3q-24 43 -66 43q-44 0 -59 -42q-7 -20 -7 -76q0 -55 7 -75q15 -42 59 -42q42 0 66 43q4 11 15 3l112 -58q8 -5 4 -14
q-25 -50 -78.5 -81t-123.5 -31zM329 550h-138q-10 0 -10 10v110q0 10 10 10h138q10 0 10 -10v-110q0 -10 -10 -10z" />
    <glyph glyph-name="Ccaron" unicode="&#x10c;" horiz-adv-x="574" 
d="M59 156q-20 63 -20 184t20 184q27 83 90 125.5t157 42.5q89 0 152 -40t92 -115q4 -9 -5 -14l-133 -58q-10 -4 -14 6q-30 64 -89 64q-62 0 -82 -59q-10 -29 -10 -136t10 -136q20 -59 82 -59q59 0 89 64q4 10 14 6l133 -58q9 -5 5 -14q-29 -75 -92 -115t-152 -40
q-94 0 -157 42.5t-90 125.5zM348 736h-90q-12 0 -19 10l-108 136q-8 10 4 10h95q13 0 23 -10l49 -49h2l48 49q10 10 23 10h95q5 0 6.5 -3t-1.5 -7l-108 -136q-7 -10 -19 -10z" />
    <glyph glyph-name="ccaron" unicode="&#x10d;" horiz-adv-x="493" 
d="M263 -12q-81 0 -138 37.5t-79 105.5q-14 40 -14 112q0 73 14 113q22 68 79 105.5t138 37.5q70 0 123.5 -31t78.5 -81q4 -9 -4 -14l-112 -58q-11 -7 -15 3q-24 43 -66 43q-44 0 -59 -42q-7 -20 -7 -76q0 -55 7 -75q15 -42 59 -42q42 0 66 43q4 11 15 3l112 -58q8 -5 4 -14
q-25 -50 -78.5 -81t-123.5 -31zM308 541h-91q-11 0 -18 10l-109 137q-3 4 -1.5 7t6.5 3h95q13 0 23 -10l48 -49h2l49 49q10 10 23 10h95q5 0 6.5 -3t-1.5 -7l-109 -137q-7 -10 -18 -10z" />
    <glyph glyph-name="Dcaron" unicode="&#x10e;" horiz-adv-x="631" 
d="M340 736h-90q-12 0 -19 10l-108 136q-8 10 4 10h95q13 0 23 -10l49 -49h2l48 49q10 10 23 10h95q5 0 6.5 -3t-1.5 -7l-108 -136q-7 -10 -19 -10zM55 10v660q0 10 10 10h263q192 0 242 -155q20 -65 20 -185t-20 -185q-50 -155 -242 -155h-263q-10 0 -10 10zM231 518v-356
q0 -6 6 -6h53q48 0 74 15t38 50q10 31 10 119t-10 119q-12 35 -38 50t-74 15h-53q-6 0 -6 -6z" />
    <glyph glyph-name="dcaron" unicode="&#x10f;" horiz-adv-x="581" 
d="M493 0h-148q-10 0 -10 10v36h-1q-37 -58 -125 -58q-123 0 -161 117q-17 57 -17 138q0 82 17 139q38 117 161 117q88 0 125 -58h1v229q0 10 10 10h148q10 0 10 -10v-660q0 -10 -10 -10zM268 126q45 0 59 41q8 22 8 76q0 55 -8 77q-14 41 -59 41t-60 -41q-7 -21 -7 -77
q0 -55 7 -76q15 -41 60 -41zM543 472q-11 0 -11 13v185q0 10 10 10h109q10 0 10 -10v-94q0 -14 -9 -21l-92 -75q-10 -8 -17 -8z" />
    <glyph glyph-name="Dcroat" unicode="&#x110;" horiz-adv-x="631" 
d="M328 0h-263q-10 0 -10 10v266q0 6 -6 6h-25q-10 0 -10 10v102q0 10 10 10h25q6 0 6 6v260q0 10 10 10h263q192 0 242 -155q20 -65 20 -185t-20 -185q-50 -155 -242 -155zM237 156h53q48 0 74 15t38 50q10 31 10 119t-10 119q-12 35 -38 50t-74 15h-53q-6 0 -6 -6v-108
q0 -6 6 -6h70q10 0 10 -10v-102q0 -10 -10 -10h-70q-6 0 -6 -6v-114q0 -6 6 -6z" />
    <glyph glyph-name="dslash" unicode="&#x111;" horiz-adv-x="557" 
d="M335 441h1v92q0 6 -6 6h-95q-10 0 -10 10v83q0 10 10 10h95q6 0 6 6v22q0 10 10 10h148q10 0 10 -10v-22q0 -6 6 -6h32q10 0 10 -10v-83q0 -10 -10 -10h-32q-6 0 -6 -6v-523q0 -10 -10 -10h-148q-10 0 -10 10v36h-1q-37 -58 -125 -58q-124 0 -161 117q-17 57 -17 138
q0 82 17 139q37 117 161 117q88 0 125 -58zM269 126q45 0 59 41q8 22 8 76q0 55 -8 77q-14 41 -59 41t-60 -41q-7 -21 -7 -77q0 -55 7 -76q15 -41 60 -41z" />
    <glyph glyph-name="Emacron" unicode="&#x112;" horiz-adv-x="557" 
d="M55 10v660q0 10 10 10h445q10 0 10 -10v-129q0 -10 -10 -10h-273q-6 0 -6 -6v-103q0 -6 6 -6h224q10 0 10 -10v-126q0 -10 -10 -10h-224q-6 0 -6 -6v-109q0 -6 6 -6h273q10 0 10 -10v-129q0 -10 -10 -10h-445q-10 0 -10 10zM437 761h-301q-10 0 -10 10v90q0 10 10 10h301
q10 0 10 -10v-90q0 -10 -10 -10z" />
    <glyph glyph-name="emacron" unicode="&#x113;" horiz-adv-x="533" 
d="M275 -12q-87 0 -146 37.5t-81 105.5q-16 45 -16 112t15 113q23 68 79.5 105.5t138.5 37.5q86 0 142.5 -36.5t77.5 -104.5q16 -47 16 -152q0 -10 -11 -10h-289q-6 0 -6 -6q1 -7 4 -20q17 -53 94 -53q61 0 109 39q8 8 15 0l71 -73q9 -8 -1 -15q-83 -80 -212 -80zM201 298
h132q6 0 6 6q0 21 -4 30q-14 44 -68 44t-68 -44q-4 -15 -4 -30q0 -6 6 -6zM416 562h-301q-10 0 -10 10v91q0 10 10 10h301q10 0 10 -10v-91q0 -10 -10 -10z" />
    <glyph glyph-name="Ebreve" unicode="&#x114;" horiz-adv-x="557" 
d="M55 10v660q0 10 10 10h445q10 0 10 -10v-129q0 -10 -10 -10h-273q-6 0 -6 -6v-103q0 -6 6 -6h224q10 0 10 -10v-126q0 -10 -10 -10h-224q-6 0 -6 -6v-109q0 -6 6 -6h273q10 0 10 -10v-129q0 -10 -10 -10h-445q-10 0 -10 10zM282 734q-69 0 -113 40q-45 41 -47 101
q0 10 12 10h65q10 0 14 -10q18 -40 69 -40q52 0 70 40q4 10 14 10h65q12 0 12 -10q-2 -60 -47 -101q-44 -40 -114 -40z" />
    <glyph glyph-name="ebreve" unicode="&#x115;" horiz-adv-x="533" 
d="M275 -12q-87 0 -146 37.5t-81 105.5q-16 45 -16 112t15 113q23 68 79.5 105.5t138.5 37.5q86 0 142.5 -36.5t77.5 -104.5q16 -47 16 -152q0 -10 -11 -10h-289q-6 0 -6 -6q1 -7 4 -20q17 -53 94 -53q61 0 109 39q8 8 15 0l71 -73q9 -8 -1 -15q-83 -80 -212 -80zM201 298
h132q6 0 6 6q0 21 -4 30q-14 44 -68 44t-68 -44q-4 -15 -4 -30q0 -6 6 -6zM105 679q0 11 12 11h65q9 0 14 -11q18 -40 69 -40q52 0 70 40q5 11 14 11h65q12 0 12 -11q-2 -61 -48 -101q-44 -40 -113 -40t-113 40q-45 41 -47 101z" />
    <glyph glyph-name="Edotaccent" unicode="&#x116;" horiz-adv-x="557" 
d="M55 10v660q0 10 10 10h445q10 0 10 -10v-129q0 -10 -10 -10h-273q-6 0 -6 -6v-103q0 -6 6 -6h224q10 0 10 -10v-126q0 -10 -10 -10h-224q-6 0 -6 -6v-109q0 -6 6 -6h273q10 0 10 -10v-129q0 -10 -10 -10h-445q-10 0 -10 10zM351 750h-138q-10 0 -10 10v110q0 10 10 10
h138q10 0 10 -10v-110q0 -10 -10 -10z" />
    <glyph glyph-name="edotaccent" unicode="&#x117;" horiz-adv-x="533" 
d="M275 -12q-87 0 -146 37.5t-81 105.5q-16 45 -16 112t15 113q23 68 79.5 105.5t138.5 37.5q86 0 142.5 -36.5t77.5 -104.5q16 -47 16 -152q0 -10 -11 -10h-289q-6 0 -6 -6q1 -7 4 -20q17 -53 94 -53q61 0 109 39q8 8 15 0l71 -73q9 -8 -1 -15q-83 -80 -212 -80zM201 298
h132q6 0 6 6q0 21 -4 30q-14 44 -68 44t-68 -44q-4 -15 -4 -30q0 -6 6 -6zM334 550h-138q-10 0 -10 10v110q0 10 10 10h138q10 0 10 -10v-110q0 -10 -10 -10z" />
    <glyph glyph-name="Eogonek" unicode="&#x118;" horiz-adv-x="557" 
d="M403 -192q-51 0 -80.5 26.5t-29.5 70.5q0 56 53 95h-281q-10 0 -10 10v660q0 10 10 10h445q10 0 10 -10v-129q0 -10 -10 -10h-273q-6 0 -6 -6v-103q0 -6 6 -6h224q10 0 10 -10v-126q0 -10 -10 -10h-224q-6 0 -6 -6v-109q0 -6 6 -6h273q10 0 10 -10v-129q0 -10 -10 -10
h-11q-85 -39 -85 -66q0 -16 17 -16q10 0 24 8q10 4 14 -4l37 -69q5 -9 -3 -14q-46 -31 -100 -31z" />
    <glyph glyph-name="eogonek" unicode="&#x119;" horiz-adv-x="533" 
d="M347 -192q-51 0 -80.5 26.5t-29.5 70.5q0 43 36 83h-9q-84 2 -139.5 39.5t-76.5 103.5q-16 45 -16 112t15 113q23 68 79.5 105.5t138.5 37.5q86 0 142.5 -36.5t77.5 -104.5q16 -47 16 -152q0 -10 -11 -10h-289q-6 0 -6 -6q1 -7 4 -20q17 -53 94 -53q61 0 109 39q8 8 15 0
l71 -73q9 -8 -1 -15q-20 -20 -41 -33q-88 -72 -88 -101q0 -16 17 -16q7 0 25 8q8 5 13 -3l38 -71q5 -8 -4 -13q-46 -31 -100 -31zM201 298h132q6 0 6 6q0 21 -4 30q-14 44 -68 44t-68 -44q-4 -15 -4 -30q0 -6 6 -6z" />
    <glyph glyph-name="Ecaron" unicode="&#x11a;" horiz-adv-x="557" 
d="M330 736h-90q-12 0 -19 10l-108 136q-8 10 4 10h95q13 0 23 -10l49 -49h2l48 49q10 10 23 10h95q5 0 6.5 -3t-1.5 -7l-108 -136q-7 -10 -19 -10zM55 10v660q0 10 10 10h445q10 0 10 -10v-129q0 -10 -10 -10h-273q-6 0 -6 -6v-103q0 -6 6 -6h224q10 0 10 -10v-126
q0 -10 -10 -10h-224q-6 0 -6 -6v-109q0 -6 6 -6h273q10 0 10 -10v-129q0 -10 -10 -10h-445q-10 0 -10 10z" />
    <glyph glyph-name="ecaron" unicode="&#x11b;" horiz-adv-x="533" 
d="M275 -12q-87 0 -146 37.5t-81 105.5q-16 45 -16 112t15 113q23 68 79.5 105.5t138.5 37.5q86 0 142.5 -36.5t77.5 -104.5q16 -47 16 -152q0 -10 -11 -10h-289q-6 0 -6 -6q1 -7 4 -20q17 -53 94 -53q61 0 109 39q8 8 15 0l71 -73q9 -8 -1 -15q-83 -80 -212 -80zM201 298
h132q6 0 6 6q0 21 -4 30q-14 44 -68 44t-68 -44q-4 -15 -4 -30q0 -6 6 -6zM311 541h-91q-11 0 -18 10l-109 137q-3 4 -1.5 7t6.5 3h95q13 0 23 -10l48 -49h2l49 49q10 10 23 10h95q5 0 6.5 -3t-1.5 -7l-109 -137q-7 -10 -18 -10z" />
    <glyph glyph-name="Gcircumflex" unicode="&#x11c;" horiz-adv-x="628" 
d="M59 155q-20 66 -20 185t20 185q26 80 94 123.5t162 43.5q89 0 153 -38.5t94 -106.5q5 -12 -5 -16l-130 -55q-11 -5 -15 4q-34 55 -97 55q-69 0 -88 -60q-10 -29 -10 -135q0 -104 10 -135q21 -60 93 -60q74 0 90 54q6 18 6 44q0 6 -6 6h-74q-10 0 -10 10v113q0 10 10 10
h243q10 0 10 -10v-52q0 -104 -18 -158q-27 -83 -94.5 -128.5t-161.5 -45.5t-162 43.5t-94 123.5zM481 741h-95q-13 0 -23 10l-48 50h-2l-49 -50q-10 -10 -23 -10h-95q-4 0 -5.5 3t1.5 7l108 137q7 10 19 10h90q12 0 19 -10l108 -137q3 -4 1.5 -7t-6.5 -3z" />
    <glyph glyph-name="gcircumflex" unicode="&#x11d;" horiz-adv-x="552" 
d="M240 -192q-57 0 -111 22q-55 23 -80 54q-5 8 1 15l84 86q8 7 15 0q47 -39 96 -39q45 0 65.5 24t20.5 75v37h-1q-34 -57 -124 -57q-123 0 -160 117q-16 47 -16 120q0 72 16 120q37 117 160 117q90 0 124 -58h1v36q0 10 10 10h148q10 0 10 -10v-402q0 -137 -64.5 -202
t-194.5 -65zM265 162q46 0 59 43q7 22 7 57q0 33 -7 57q-14 42 -59 42t-58 -42q-7 -18 -7 -57t7 -57q13 -43 58 -43zM438 544h-95q-13 0 -23 10l-49 50h-2l-48 -50q-10 -10 -23 -10h-95q-5 0 -6.5 3t1.5 7l109 137q7 10 18 10h91q11 0 18 -10l109 -137q3 -4 1.5 -7t-6.5 -3z
" />
    <glyph glyph-name="Gbreve" unicode="&#x11e;" horiz-adv-x="628" 
d="M59 155q-20 66 -20 185t20 185q26 80 94 123.5t162 43.5q89 0 153 -38.5t94 -106.5q5 -12 -5 -16l-130 -55q-11 -5 -15 4q-34 55 -97 55q-69 0 -88 -60q-10 -29 -10 -135q0 -104 10 -135q21 -60 93 -60q74 0 90 54q6 18 6 44q0 6 -6 6h-74q-10 0 -10 10v113q0 10 10 10
h243q10 0 10 -10v-52q0 -104 -18 -158q-27 -83 -94.5 -128.5t-161.5 -45.5t-162 43.5t-94 123.5zM313 734q-69 0 -113 40q-45 41 -47 101q0 10 12 10h65q10 0 14 -10q18 -40 69 -40q52 0 70 40q4 10 14 10h65q12 0 12 -10q-2 -60 -47 -101q-44 -40 -114 -40z" />
    <glyph glyph-name="gbreve" unicode="&#x11f;" horiz-adv-x="552" 
d="M240 -192q-57 0 -111 22q-55 23 -80 54q-5 8 1 15l84 86q8 7 15 0q47 -39 96 -39q45 0 65.5 24t20.5 75v37h-1q-34 -57 -124 -57q-123 0 -160 117q-16 47 -16 120q0 72 16 120q37 117 160 117q90 0 124 -58h1v36q0 10 10 10h148q10 0 10 -10v-402q0 -137 -64.5 -202
t-194.5 -65zM265 162q46 0 59 43q7 22 7 57q0 33 -7 57q-14 42 -59 42t-58 -42q-7 -18 -7 -57t7 -57q13 -43 58 -43zM110 679q0 11 12 11h65q9 0 14 -11q18 -40 69 -40q52 0 70 40q5 11 14 11h65q12 0 12 -11q-2 -61 -48 -101q-44 -40 -113 -40t-113 40q-45 41 -47 101z" />
    <glyph glyph-name="Gdotaccent" unicode="&#x120;" horiz-adv-x="628" 
d="M59 155q-20 66 -20 185t20 185q26 80 94 123.5t162 43.5q89 0 153 -38.5t94 -106.5q5 -12 -5 -16l-130 -55q-11 -5 -15 4q-34 55 -97 55q-69 0 -88 -60q-10 -29 -10 -135q0 -104 10 -135q21 -60 93 -60q74 0 90 54q6 18 6 44q0 6 -6 6h-74q-10 0 -10 10v113q0 10 10 10
h243q10 0 10 -10v-52q0 -104 -18 -158q-27 -83 -94.5 -128.5t-161.5 -45.5t-162 43.5t-94 123.5zM382 750h-138q-10 0 -10 10v110q0 10 10 10h138q10 0 10 -10v-110q0 -10 -10 -10z" />
    <glyph glyph-name="gdotaccent" unicode="&#x121;" horiz-adv-x="552" 
d="M240 -192q-57 0 -111 22q-55 23 -80 54q-5 8 1 15l84 86q8 7 15 0q47 -39 96 -39q45 0 65.5 24t20.5 75v37h-1q-34 -57 -124 -57q-123 0 -160 117q-16 47 -16 120q0 72 16 120q37 117 160 117q90 0 124 -58h1v36q0 10 10 10h148q10 0 10 -10v-402q0 -137 -64.5 -202
t-194.5 -65zM265 162q46 0 59 43q7 22 7 57q0 33 -7 57q-14 42 -59 42t-58 -42q-7 -18 -7 -57t7 -57q13 -43 58 -43zM339 550h-138q-10 0 -10 10v110q0 10 10 10h138q10 0 10 -10v-110q0 -10 -10 -10z" />
    <glyph glyph-name="Gcommaaccent" unicode="&#x122;" horiz-adv-x="628" 
d="M59 155q-20 66 -20 185t20 185q26 80 94 123.5t162 43.5q89 0 153 -38.5t94 -106.5q5 -12 -5 -16l-130 -55q-11 -5 -15 4q-34 55 -97 55q-69 0 -88 -60q-10 -29 -10 -135q0 -104 10 -135q21 -60 93 -60q74 0 90 54q6 18 6 44q0 6 -6 6h-74q-10 0 -10 10v113q0 10 10 10
h243q10 0 10 -10v-52q0 -104 -18 -158q-27 -83 -94.5 -128.5t-161.5 -45.5t-162 43.5t-94 123.5zM255 -248q-11 0 -11 13v179q0 10 10 10h120q10 0 10 -10v-89q0 -14 -9 -20l-103 -75q-11 -8 -17 -8z" />
    <glyph glyph-name="gcommaaccent" unicode="&#x123;" horiz-adv-x="552" 
d="M240 -192q-57 0 -111 22q-55 23 -80 54q-5 8 1 15l84 86q8 7 15 0q47 -39 96 -39q45 0 65.5 24t20.5 75v37h-1q-34 -57 -124 -57q-123 0 -160 117q-16 47 -16 120q0 72 16 120q37 117 160 117q90 0 124 -58h1v36q0 10 10 10h148q10 0 10 -10v-402q0 -137 -64.5 -202
t-194.5 -65zM265 162q46 0 59 43q7 22 7 57q0 33 -7 57q-14 42 -59 42t-58 -42q-7 -18 -7 -57t7 -57q13 -43 58 -43zM331 550h-120q-10 0 -10 10v88q0 15 8 21l104 75q10 7 17 7q11 0 11 -12v-179q0 -10 -10 -10z" />
    <glyph glyph-name="Hcircumflex" unicode="&#x124;" horiz-adv-x="659" 
d="M55 10v660q0 10 10 10h156q10 0 10 -10v-241q0 -6 6 -6h185q6 0 6 6v241q0 10 10 10h156q10 0 10 -10v-660q0 -10 -10 -10h-156q-10 0 -10 10v251q0 6 -6 6h-185q-6 0 -6 -6v-251q0 -10 -10 -10h-156q-10 0 -10 10zM496 741h-95q-13 0 -23 10l-48 50h-2l-49 -50
q-10 -10 -23 -10h-95q-12 0 -4 10l108 137q7 10 19 10h90q12 0 19 -10l108 -137q3 -4 1.5 -7t-6.5 -3z" />
    <glyph glyph-name="hcircumflex" unicode="&#x125;" horiz-adv-x="558" 
d="M498 0h-148q-10 0 -10 10v278q0 71 -59 71q-28 0 -44 -19t-16 -52v-278q0 -10 -10 -10h-148q-10 0 -10 10v660q0 10 10 10h148q10 0 10 -10v-228h1q39 57 125 57q79 0 120 -48t41 -134v-307q0 -10 -10 -10zM451 741h-95q-13 0 -23 10l-48 50h-2l-49 -50q-10 -10 -23 -10
h-95q-4 0 -5.5 3t1.5 7l108 137q7 10 19 10h90q12 0 19 -10l108 -137q3 -4 1.5 -7t-6.5 -3z" />
    <glyph glyph-name="Hbar" unicode="&#x126;" horiz-adv-x="659" 
d="M594 0h-156q-10 0 -10 10v251q0 6 -6 6h-185q-6 0 -6 -6v-251q0 -10 -10 -10h-156q-10 0 -10 10v482q0 6 -6 6h-29q-10 0 -10 10v86q0 10 10 10h29q6 0 6 6v60q0 10 10 10h156q10 0 10 -10v-60q0 -6 6 -6h185q6 0 6 6v60q0 10 10 10h156q10 0 10 -10v-60q0 -6 6 -6h29
q10 0 10 -10v-86q0 -10 -10 -10h-29q-6 0 -6 -6v-482q0 -10 -10 -10zM237 423h185q6 0 6 6v63q0 6 -6 6h-185q-6 0 -6 -6v-63q0 -6 6 -6z" />
    <glyph glyph-name="hbar" unicode="&#x127;" horiz-adv-x="558" 
d="M498 0h-148q-10 0 -10 10v278q0 71 -59 71q-28 0 -44 -19t-16 -52v-278q0 -10 -10 -10h-148q-10 0 -10 10v523q0 6 -6 6h-32q-10 0 -10 10v83q0 10 10 10h32q6 0 6 6v22q0 10 10 10h148q10 0 10 -10v-22q0 -6 6 -6h95q10 0 10 -10v-83q0 -10 -10 -10h-95q-6 0 -6 -6v-91
h1q39 57 125 57q79 0 120 -48t41 -134v-307q0 -10 -10 -10z" />
    <glyph glyph-name="Itilde" unicode="&#x128;" horiz-adv-x="286" 
d="M213 740q-35 0 -83 23q-36 18 -60 18q-32 0 -76 -33q-4 -3 -7 -1.5t-3 5.5v81q0 11 9 22q37 37 81 37q36 0 84 -24q39 -17 60 -17q32 0 75 32q11 8 11 -3v-81q0 -13 -10 -22q-37 -37 -81 -37zM55 10v660q0 10 10 10h156q10 0 10 -10v-660q0 -10 -10 -10h-156
q-10 0 -10 10z" />
    <glyph glyph-name="itilde" unicode="&#x129;" horiz-adv-x="274" 
d="M206 545q-35 0 -83 23q-36 18 -60 18q-32 0 -76 -32q-4 -3 -7 -2t-3 5v81q0 13 9 22q37 37 81 37q36 0 84 -23q36 -18 60 -18q35 0 75 33q11 8 11 -4v-81q0 -13 -10 -22q-37 -37 -81 -37zM211 0h-148q-10 0 -10 10v467q0 10 10 10h148q10 0 10 -10v-467q0 -10 -10 -10z
" />
    <glyph glyph-name="Imacron" unicode="&#x12a;" horiz-adv-x="286" 
d="M55 10v660q0 10 10 10h156q10 0 10 -10v-660q0 -10 -10 -10h-156q-10 0 -10 10zM295 761h-301q-10 0 -10 10v90q0 10 10 10h301q10 0 10 -10v-90q0 -10 -10 -10z" />
    <glyph glyph-name="imacron" unicode="&#x12b;" horiz-adv-x="274" 
d="M211 0h-148q-10 0 -10 10v467q0 10 10 10h148q10 0 10 -10v-467q0 -10 -10 -10zM288 562h-301q-10 0 -10 10v91q0 10 10 10h301q10 0 10 -10v-91q0 -10 -10 -10z" />
    <glyph glyph-name="Ibreve" unicode="&#x12c;" horiz-adv-x="286" 
d="M144 734q-69 0 -113 40q-45 41 -47 101q0 10 12 10h65q10 0 14 -10q18 -40 69 -40q52 0 70 40q4 10 14 10h65q12 0 12 -10q-2 -60 -47 -101q-44 -40 -114 -40zM55 10v660q0 10 10 10h156q10 0 10 -10v-660q0 -10 -10 -10h-156q-10 0 -10 10z" />
    <glyph glyph-name="ibreve" unicode="&#x12d;" horiz-adv-x="274" 
d="M-23 679q0 11 12 11h65q9 0 14 -11q18 -40 69 -40q52 0 70 40q5 11 14 11h65q12 0 12 -11q-2 -61 -48 -101q-44 -40 -113 -40t-113 40q-45 41 -47 101zM211 0h-148q-10 0 -10 10v467q0 10 10 10h148q10 0 10 -10v-467q0 -10 -10 -10z" />
    <glyph glyph-name="Iogonek" unicode="&#x12e;" horiz-adv-x="286" 
d="M134 -192q-51 0 -80.5 26.5t-29.5 70.5q0 51 50 95h-9q-10 0 -10 10v660q0 10 10 10h156q10 0 10 -10v-659q0 -7 -7 -11q-46 -24 -62.5 -38.5t-16.5 -27.5q0 -16 17 -16q11 0 25 8q8 5 13 -3l38 -71q5 -8 -4 -13q-46 -31 -100 -31z" />
    <glyph glyph-name="iogonek" unicode="&#x12f;" horiz-adv-x="274" 
d="M211 550h-148q-10 0 -10 10v110q0 10 10 10h148q10 0 10 -10v-110q0 -10 -10 -10zM129 -192q-51 0 -80.5 26.5t-29.5 70.5q0 56 46 95h-3q-9 2 -9 10v467q0 10 10 10h148q10 0 10 -10v-467q0 -8 -9 -12q-72 -39 -72 -64q0 -16 17 -16q10 0 24 8q9 4 13 -3l38 -71
q5 -8 -4 -13q-46 -31 -99 -31z" />
    <glyph glyph-name="Idot" unicode="&#x130;" horiz-adv-x="286" 
d="M213 750h-138q-10 0 -10 10v110q0 10 10 10h138q10 0 10 -10v-110q0 -10 -10 -10zM55 10v660q0 10 10 10h156q10 0 10 -10v-660q0 -10 -10 -10h-156q-10 0 -10 10z" />
    <glyph glyph-name="dotlessi" unicode="&#x131;" horiz-adv-x="274" 
d="M211 0h-148q-10 0 -10 10v467q0 10 10 10h148q10 0 10 -10v-467q0 -10 -10 -10z" />
    <glyph glyph-name="Jcircumflex" unicode="&#x134;" horiz-adv-x="534" 
d="M23 81q-5 8 1 14l111 88q8 6 14 -2q31 -36 75 -36q86 0 86 100v425q0 10 10 10h156q10 0 10 -10v-411q0 -134 -66.5 -202.5t-193.5 -68.5q-65 0 -120.5 25.5t-82.5 67.5zM563 741h-95q-13 0 -23 10l-48 50h-2l-49 -50q-10 -10 -23 -10h-95q-12 0 -4 10l108 137
q7 10 19 10h90q12 0 19 -10l108 -137q3 -4 1.5 -7t-6.5 -3z" />
    <glyph glyph-name="jcircumflex" unicode="&#x135;" horiz-adv-x="274" 
d="M308 544h-95q-13 0 -23 10l-49 50h-2l-48 -50q-10 -10 -23 -10h-95q-5 0 -6.5 3t1.5 7l109 137q7 10 18 10h91q11 0 18 -10l109 -137q3 -4 1.5 -7t-6.5 -3zM24 -180h-38q-10 0 -10 10v118q0 10 10 10h15q31 0 42.5 11t11.5 44v464q0 10 10 10h148q10 0 10 -10v-464
q0 -100 -49.5 -146.5t-149.5 -46.5z" />
    <glyph glyph-name="Kcommaaccent" unicode="&#x136;" horiz-adv-x="657" 
d="M55 10v660q0 10 10 10h156q10 0 10 -10v-266l195 267q8 9 17 9h176q13 0 6 -13l-203 -263l215 -393q2 -4 0.5 -7.5t-6.5 -3.5h-179q-12 0 -16 9l-132 256l-73 -97v-158q0 -10 -10 -10h-156q-10 0 -10 10zM270 -248q-11 0 -11 13v179q0 10 10 10h120q10 0 10 -10v-89
q0 -14 -9 -20l-103 -75q-11 -8 -17 -8z" />
    <glyph glyph-name="kcommaaccent" unicode="&#x137;" horiz-adv-x="540" 
d="M525 0h-159q-11 0 -15 10l-95 188l-36 -48v-140q0 -10 -10 -10h-147q-10 0 -10 10v660q0 10 10 10h147q10 0 10 -10v-342l114 149q9 10 19 10h153q4 0 5.5 -3.5t-1.5 -6.5l-143 -166l163 -301q6 -10 -5 -10zM214 -248q-11 0 -11 13v179q0 10 10 10h120q10 0 10 -10v-89
q0 -14 -9 -20l-103 -75q-11 -8 -17 -8z" />
    <glyph glyph-name="kgreenlandic" unicode="&#x138;" horiz-adv-x="540" 
d="M525 0h-159q-11 0 -15 10l-95 188l-36 -48v-140q0 -10 -10 -10h-147q-10 0 -10 10v467q0 10 10 10h147q10 0 10 -10v-149l114 149q9 10 19 10h153q4 0 5.5 -3.5t-1.5 -6.5l-143 -166l163 -301q6 -10 -5 -10z" />
    <glyph glyph-name="Lacute" unicode="&#x139;" horiz-adv-x="554" 
d="M205 747h-115q-4 0 -5.5 3t1.5 7l102 122q7 10 18 10h142q5 0 6.5 -3t-1.5 -7l-128 -123q-9 -9 -20 -9zM55 10v660q0 10 10 10h156q10 0 10 -10v-508q0 -6 6 -6h288q10 0 10 -10v-136q0 -10 -10 -10h-460q-10 0 -10 10z" />
    <glyph glyph-name="lacute" unicode="&#x13a;" horiz-adv-x="315" 
d="M193 747h-115q-4 0 -5.5 3t1.5 7l102 122q7 10 18 10h142q5 0 6.5 -3t-1.5 -7l-128 -123q-9 -9 -20 -9zM281 -6h-61q-91 0 -130 39.5t-39 131.5v505q0 10 10 10h148q10 0 10 -10v-488q0 -48 41 -48h21q10 0 10 -10v-120q0 -10 -10 -10z" />
    <glyph glyph-name="Lcommaaccent" unicode="&#x13b;" horiz-adv-x="554" 
d="M55 10v660q0 10 10 10h156q10 0 10 -10v-508q0 -6 6 -6h288q10 0 10 -10v-136q0 -10 -10 -10h-460q-10 0 -10 10zM225 -248q-11 0 -11 13v179q0 10 10 10h120q10 0 10 -10v-89q0 -14 -9 -20l-103 -75q-11 -8 -17 -8z" />
    <glyph glyph-name="lcommaaccent" unicode="&#x13c;" horiz-adv-x="315" 
d="M281 -6h-61q-91 0 -130 39.5t-39 131.5v505q0 10 10 10h148q10 0 10 -10v-488q0 -48 41 -48h21q10 0 10 -10v-120q0 -10 -10 -10zM119 -248q-11 0 -11 13v179q0 10 10 10h120q10 0 10 -10v-89q0 -14 -9 -20l-103 -75q-11 -8 -17 -8z" />
    <glyph glyph-name="Lcaron" unicode="&#x13d;" horiz-adv-x="554" 
d="M55 10v660q0 10 10 10h156q10 0 10 -10v-508q0 -6 6 -6h288q10 0 10 -10v-136q0 -10 -10 -10h-460q-10 0 -10 10zM302 472q-11 0 -11 13v185q0 10 10 10h109q10 0 10 -10v-94q0 -14 -9 -21l-92 -75q-10 -8 -17 -8z" />
    <glyph glyph-name="lcaron" unicode="&#x13e;" horiz-adv-x="316" 
d="M281 -6h-61q-91 0 -130 39.5t-39 131.5v505q0 10 10 10h148q10 0 10 -10v-488q0 -48 41 -48h21q10 0 10 -10v-120q0 -10 -10 -10zM263 472q-11 0 -11 13v185q0 10 10 10h109q10 0 10 -10v-94q0 -14 -9 -21l-92 -75q-10 -8 -17 -8z" />
    <glyph glyph-name="Ldot" unicode="&#x13f;" horiz-adv-x="554" 
d="M55 10v660q0 10 10 10h156q10 0 10 -10v-508q0 -6 6 -6h288q10 0 10 -10v-136q0 -10 -10 -10h-460q-10 0 -10 10zM490 265h-139q-10 0 -10 10v138q0 10 10 10h139q10 0 10 -10v-138q0 -10 -10 -10z" />
    <glyph glyph-name="ldot" unicode="&#x140;" horiz-adv-x="418" 
d="M281 -6h-61q-91 0 -130 39.5t-39 131.5v505q0 10 10 10h148q10 0 10 -10v-488q0 -48 41 -48h21q10 0 10 -10v-120q0 -10 -10 -10zM414 264h-139q-10 0 -10 10v138q0 10 10 10h139q10 0 10 -10v-138q0 -10 -10 -10z" />
    <glyph glyph-name="Lslash" unicode="&#x141;" horiz-adv-x="554" 
d="M525 0h-460q-10 0 -10 10v231l-40 -20q-10 -4 -10 6v107q0 10 10 14l40 20v302q0 10 10 10h156q10 0 10 -10v-220l128 66q10 4 10 -6v-108q0 -10 -10 -14l-128 -65v-161q0 -6 6 -6h288q10 0 10 -10v-136q0 -10 -10 -10z" />
    <glyph glyph-name="lslash" unicode="&#x142;" horiz-adv-x="316" 
d="M281 359l-62 -32v-145q0 -48 41 -48h21q10 0 10 -10v-120q0 -10 -10 -10h-61q-91 0 -130 39.5t-39 131.5v81l-32 -16q-10 -4 -10 6v105q0 10 10 14l32 16v299q0 10 10 10h148q10 0 10 -10v-218l62 32q10 4 10 -6v-104q0 -11 -10 -15z" />
    <glyph glyph-name="Nacute" unicode="&#x143;" horiz-adv-x="653" 
d="M345 747h-115q-4 0 -5.5 3t1.5 7l102 122q7 10 18 10h142q5 0 6.5 -3t-1.5 -7l-128 -123q-9 -9 -20 -9zM55 10v660q0 10 10 10h147q13 0 17 -10l205 -385h4v385q0 10 10 10h140q10 0 10 -10v-660q0 -10 -10 -10h-147q-13 0 -17 10l-203 384h-6v-384q0 -10 -10 -10h-140
q-10 0 -10 10z" />
    <glyph glyph-name="nacute" unicode="&#x144;" horiz-adv-x="558" 
d="M304 546h-116q-9 0 -5 10l80 136q6 10 17 10h139q5 0 6.5 -3t-1.5 -7l-103 -136q-7 -10 -17 -10zM498 0h-148q-10 0 -10 10v278q0 71 -59 71q-28 0 -44 -19t-16 -52v-278q0 -10 -10 -10h-148q-10 0 -10 10v467q0 10 10 10h148q10 0 10 -10v-35h1q39 57 125 57
q79 0 120 -48t41 -134v-307q0 -10 -10 -10z" />
    <glyph glyph-name="Ncommaaccent" unicode="&#x145;" horiz-adv-x="653" 
d="M55 10v660q0 10 10 10h147q13 0 17 -10l205 -385h4v385q0 10 10 10h140q10 0 10 -10v-660q0 -10 -10 -10h-147q-13 0 -17 10l-203 384h-6v-384q0 -10 -10 -10h-140q-10 0 -10 10zM267 -248q-11 0 -11 13v179q0 10 10 10h120q10 0 10 -10v-89q0 -14 -9 -20l-103 -75
q-11 -8 -17 -8z" />
    <glyph glyph-name="ncommaaccent" unicode="&#x146;" horiz-adv-x="558" 
d="M498 0h-148q-10 0 -10 10v278q0 71 -59 71q-28 0 -44 -19t-16 -52v-278q0 -10 -10 -10h-148q-10 0 -10 10v467q0 10 10 10h148q10 0 10 -10v-35h1q39 57 125 57q79 0 120 -48t41 -134v-307q0 -10 -10 -10zM220 -248q-11 0 -11 13v179q0 10 10 10h120q10 0 10 -10v-89
q0 -14 -9 -20l-103 -75q-11 -8 -17 -8z" />
    <glyph glyph-name="Ncaron" unicode="&#x147;" horiz-adv-x="653" 
d="M55 10v660q0 10 10 10h147q13 0 17 -10l205 -385h4v385q0 10 10 10h140q10 0 10 -10v-660q0 -10 -10 -10h-147q-13 0 -17 10l-203 384h-6v-384q0 -10 -10 -10h-140q-10 0 -10 10zM371 736h-90q-12 0 -19 10l-108 136q-3 4 -1.5 7t5.5 3h95q13 0 23 -10l49 -49h2l48 49
q10 10 23 10h95q5 0 6.5 -3t-1.5 -7l-108 -136q-7 -10 -19 -10z" />
    <glyph glyph-name="ncaron" unicode="&#x148;" horiz-adv-x="558" 
d="M498 0h-148q-10 0 -10 10v278q0 71 -59 71q-28 0 -44 -19t-16 -52v-278q0 -10 -10 -10h-148q-10 0 -10 10v467q0 10 10 10h148q10 0 10 -10v-35h1q39 57 125 57q79 0 120 -48t41 -134v-307q0 -10 -10 -10zM324 541h-91q-11 0 -18 10l-109 137q-3 4 -1.5 7t6.5 3h95
q13 0 23 -10l48 -49h2l49 49q10 10 23 10h95q5 0 6.5 -3t-1.5 -7l-109 -137q-7 -10 -18 -10z" />
    <glyph glyph-name="Eng" unicode="&#x14a;" horiz-adv-x="653" 
d="M376 -187h-38q-10 0 -10 10v126q0 10 10 10h15q65 0 73 45v2l-205 388h-6v-384q0 -10 -10 -10h-140q-10 0 -10 10v660q0 10 10 10h147q13 0 17 -10l205 -385h4v385q0 10 10 10h140q10 0 10 -10v-635q0 -222 -222 -222z" />
    <glyph glyph-name="eng" unicode="&#x14b;" horiz-adv-x="558" 
d="M313 -180h-37q-10 0 -10 10v118q0 10 10 10h15q30 0 39.5 10t9.5 42v278q0 71 -59 71q-28 0 -44 -19t-16 -52v-278q0 -10 -10 -10h-148q-10 0 -10 10v467q0 10 10 10h148q10 0 10 -10v-35h1q45 57 125 57q79 0 120 -48t41 -134v-304q0 -101 -47.5 -147t-147.5 -46z" />
    <glyph glyph-name="Omacron" unicode="&#x14c;" horiz-adv-x="628" 
d="M59 155q-20 66 -20 185t20 185q26 80 93.5 123.5t161.5 43.5t161.5 -43.5t93.5 -123.5q20 -63 20 -185t-20 -185q-26 -80 -93.5 -123.5t-161.5 -43.5t-161.5 43.5t-93.5 123.5zM401 205q10 27 10 135t-10 135q-19 60 -87 60t-87 -60q-10 -27 -10 -135t10 -135
q19 -60 87 -60t87 60zM464 761h-301q-10 0 -10 10v90q0 10 10 10h301q10 0 10 -10v-90q0 -10 -10 -10z" />
    <glyph glyph-name="omacron" unicode="&#x14d;" horiz-adv-x="538" 
d="M47 129q-15 49 -15 114t15 115q22 67 80.5 104t141.5 37t141 -36.5t81 -104.5q15 -49 15 -115q0 -65 -15 -114q-23 -68 -81 -104.5t-141 -36.5t-141.5 37t-80.5 104zM329 167q7 24 7 76q0 53 -7 77q-15 41 -60 41t-60 -41q-7 -24 -7 -77q0 -52 7 -76q15 -41 60 -41t60 41
zM419 562h-301q-10 0 -10 10v91q0 10 10 10h301q10 0 10 -10v-91q0 -10 -10 -10z" />
    <glyph glyph-name="Obreve" unicode="&#x14e;" horiz-adv-x="628" 
d="M59 155q-20 66 -20 185t20 185q26 80 93.5 123.5t161.5 43.5t161.5 -43.5t93.5 -123.5q20 -63 20 -185t-20 -185q-26 -80 -93.5 -123.5t-161.5 -43.5t-161.5 43.5t-93.5 123.5zM401 205q10 27 10 135t-10 135q-19 60 -87 60t-87 -60q-10 -27 -10 -135t10 -135
q19 -60 87 -60t87 60zM313 734q-69 0 -113 40q-45 41 -47 101q0 10 12 10h65q10 0 14 -10q18 -40 69 -40q52 0 70 40q4 10 14 10h65q12 0 12 -10q-2 -60 -47 -101q-44 -40 -114 -40z" />
    <glyph glyph-name="obreve" unicode="&#x14f;" horiz-adv-x="538" 
d="M47 129q-15 49 -15 114t15 115q22 67 80.5 104t141.5 37t141 -36.5t81 -104.5q15 -49 15 -115q0 -65 -15 -114q-23 -68 -81 -104.5t-141 -36.5t-141.5 37t-80.5 104zM329 167q7 24 7 76q0 53 -7 77q-15 41 -60 41t-60 -41q-7 -24 -7 -77q0 -52 7 -76q15 -41 60 -41t60 41
zM108 679q0 11 12 11h65q9 0 14 -11q18 -40 69 -40q52 0 70 40q5 11 14 11h65q12 0 12 -11q-2 -61 -48 -101q-44 -40 -113 -40t-113 40q-45 41 -47 101z" />
    <glyph glyph-name="Ohungarumlaut" unicode="&#x150;" horiz-adv-x="628" 
d="M59 155q-20 66 -20 185t20 185q26 80 93.5 123.5t161.5 43.5t161.5 -43.5t93.5 -123.5q20 -63 20 -185t-20 -185q-26 -80 -93.5 -123.5t-161.5 -43.5t-161.5 43.5t-93.5 123.5zM401 205q10 27 10 135t-10 135q-19 60 -87 60t-87 -60q-10 -27 -10 -135t10 -135
q19 -60 87 -60t87 60zM447 748h-97q-11 0 -5 10l74 118q6 10 17 10h114q11 0 5 -10l-89 -118q-6 -10 -19 -10zM263 748h-98q-11 0 -5 10l75 118q6 10 17 10h114q11 0 5 -10l-89 -118q-7 -10 -19 -10z" />
    <glyph glyph-name="ohungarumlaut" unicode="&#x151;" horiz-adv-x="538" 
d="M404 543h-98q-10 0 -6 10l69 137q4 10 16 10h114q12 0 6 -10l-84 -137q-6 -10 -17 -10zM219 543h-98q-10 0 -6 10l70 137q4 10 16 10h114q12 0 6 -10l-84 -137q-7 -10 -18 -10zM47 129q-15 49 -15 114t15 115q22 67 80.5 104t141.5 37t141 -36.5t81 -104.5
q15 -49 15 -115q0 -65 -15 -114q-23 -68 -81 -104.5t-141 -36.5t-141.5 37t-80.5 104zM329 167q7 24 7 76q0 53 -7 77q-15 41 -60 41t-60 -41q-7 -24 -7 -77q0 -52 7 -76q15 -41 60 -41t60 41z" />
    <glyph glyph-name="OE" unicode="&#x152;" horiz-adv-x="913" 
d="M866 0h-445q-10 0 -10 10v18h-3q-40 -40 -119 -40q-176 0 -229 164q-21 63 -21 188t21 188q53 164 229 164q79 0 119 -40h3v18q0 10 10 10h445q10 0 10 -10v-129q0 -10 -10 -10h-273q-6 0 -6 -6v-103q0 -6 6 -6h224q10 0 10 -10v-126q0 -10 -10 -10h-224q-6 0 -6 -6v-109
q0 -6 6 -6h273q10 0 10 -10v-129q0 -10 -10 -10zM401 205q10 27 10 135t-10 135q-19 60 -87 60t-87 -60q-10 -27 -10 -135t10 -135q19 -60 87 -60t87 60z" />
    <glyph glyph-name="oe" unicode="&#x153;" horiz-adv-x="836" 
d="M579 -12q-96 0 -157 52h-1q-61 -52 -152 -52q-83 0 -141.5 37t-80.5 104q-15 49 -15 114t15 115q22 67 80.5 104t141.5 37q91 0 151 -51h2q56 51 147 51q175 0 220 -141q16 -47 16 -152q0 -10 -11 -10h-289q-6 0 -6 -6q0 -9 4 -20q18 -53 94 -53q61 0 109 39q8 8 14 0
l72 -73q8 -8 -1 -15q-83 -80 -212 -80zM505 298h132q6 0 6 6q0 15 -4 30q-14 44 -68 44t-68 -44q-4 -9 -4 -30q0 -6 6 -6zM329 167q7 24 7 76q0 53 -7 77q-15 41 -60 41t-60 -41q-7 -24 -7 -77q0 -52 7 -76q15 -41 60 -41t60 41z" />
    <glyph glyph-name="Racute" unicode="&#x154;" horiz-adv-x="629" 
d="M593 0h-173q-11 0 -15 10l-103 232h-65q-6 0 -6 -6v-226q0 -10 -10 -10h-156q-10 0 -10 10v660q0 10 10 10h277q116 0 180 -61q65 -60 65 -158q0 -64 -29 -113.5t-83 -76.5l125 -259q2 -4 0 -8t-7 -4zM237 387h94q37 0 58.5 19.5t21.5 52.5t-21.5 52.5t-58.5 19.5h-94
q-6 0 -6 -6v-132q0 -6 6 -6zM321 747h-115q-4 0 -5.5 3t1.5 7l102 122q7 10 18 10h142q5 0 6.5 -3t-1.5 -7l-128 -123q-9 -9 -20 -9z" />
    <glyph glyph-name="racute" unicode="&#x155;" horiz-adv-x="429" 
d="M211 0h-148q-10 0 -10 10v467q0 10 10 10h148q10 0 10 -10v-43h1q35 65 126 65q44 0 67 -19q8 -5 5 -13l-57 -141q-4 -6 -14 -1q-39 23 -71 19q-57 -4 -57 -85v-249q0 -10 -10 -10zM265 546h-116q-9 0 -5 10l80 136q6 10 17 10h139q5 0 6.5 -3t-1.5 -7l-103 -136
q-7 -10 -17 -10z" />
    <glyph glyph-name="Rcommaaccent" unicode="&#x156;" horiz-adv-x="629" 
d="M593 0h-173q-11 0 -15 10l-103 232h-65q-6 0 -6 -6v-226q0 -10 -10 -10h-156q-10 0 -10 10v660q0 10 10 10h277q116 0 180 -61q65 -60 65 -158q0 -64 -29 -113.5t-83 -76.5l125 -259q2 -4 0 -8t-7 -4zM237 387h94q37 0 58.5 19.5t21.5 52.5t-21.5 52.5t-58.5 19.5h-94
q-6 0 -6 -6v-132q0 -6 6 -6zM255 -248q-11 0 -11 13v179q0 10 10 10h120q10 0 10 -10v-89q0 -14 -9 -20l-103 -75q-11 -8 -17 -8z" />
    <glyph glyph-name="rcommaaccent" unicode="&#x157;" horiz-adv-x="429" 
d="M211 0h-148q-10 0 -10 10v467q0 10 10 10h148q10 0 10 -10v-43h1q35 65 126 65q44 0 67 -19q8 -5 5 -13l-57 -141q-4 -6 -14 -1q-39 23 -71 19q-57 -4 -57 -85v-249q0 -10 -10 -10zM79 -248q-11 0 -11 13v179q0 10 10 10h120q10 0 10 -10v-89q0 -14 -9 -20l-103 -75
q-11 -8 -17 -8z" />
    <glyph glyph-name="Rcaron" unicode="&#x158;" horiz-adv-x="629" 
d="M593 0h-173q-11 0 -15 10l-103 232h-65q-6 0 -6 -6v-226q0 -10 -10 -10h-156q-10 0 -10 10v660q0 10 10 10h277q116 0 180 -61q65 -60 65 -158q0 -64 -29 -113.5t-83 -76.5l125 -259q2 -4 0 -8t-7 -4zM237 387h94q37 0 58.5 19.5t21.5 52.5t-21.5 52.5t-58.5 19.5h-94
q-6 0 -6 -6v-132q0 -6 6 -6zM335 736h-90q-12 0 -19 10l-108 136q-3 4 -1.5 7t5.5 3h95q13 0 23 -10l49 -49h2l48 49q10 10 23 10h95q5 0 6.5 -3t-1.5 -7l-108 -136q-7 -10 -19 -10z" />
    <glyph glyph-name="rcaron" unicode="&#x159;" horiz-adv-x="429" 
d="M211 0h-148q-10 0 -10 10v467q0 10 10 10h148q10 0 10 -10v-43h1q35 65 126 65q44 0 67 -19q8 -5 5 -13l-57 -141q-4 -6 -14 -1q-39 23 -71 19q-57 -4 -57 -85v-249q0 -10 -10 -10zM279 541h-91q-11 0 -18 10l-109 137q-3 4 -1.5 7t6.5 3h95q13 0 23 -10l48 -49h2l49 49
q10 10 23 10h95q5 0 6.5 -3t-1.5 -7l-109 -137q-7 -10 -18 -10z" />
    <glyph glyph-name="Sacute" unicode="&#x15a;" horiz-adv-x="605" 
d="M308 -12q-82 0 -157 28q-77 28 -117 69q-9 8 -1 16l90 106q7 7 14 1q77 -68 173 -68q45 0 70.5 17t25.5 47q0 24 -19.5 37.5t-66.5 19.5l-36 5q-227 32 -227 214q0 96 69 154q68 58 184 58q144 0 243 -75q8 -6 2 -15l-75 -109q-6 -8 -14 -3q-76 51 -153 51
q-36 0 -55.5 -15t-19.5 -42q0 -46 87 -57l36 -5q114 -16 169.5 -68.5t55.5 -147.5q0 -98 -73 -158q-72 -60 -205 -60zM351 747h-115q-4 0 -5.5 3t1.5 7l102 122q7 10 18 10h142q5 0 6.5 -3t-1.5 -7l-128 -123q-9 -9 -20 -9z" />
    <glyph glyph-name="sacute" unicode="&#x15b;" horiz-adv-x="512" 
d="M261 -12q-143 0 -232 75q-7 7 -1 14l71 85q7 6 14 2q79 -52 158 -52q62 0 62 35q0 14 -13 21t-48 11l-54 5q-168 20 -168 155q0 73 56 116.5t154 43.5q128 0 210 -61q7 -5 2 -15l-63 -80q-6 -7 -15 -3q-62 38 -136 38q-51 0 -51 -30q0 -13 12 -20t44 -10l54 -6
q90 -9 132 -48t41 -106q-1 -79 -61.5 -124.5t-167.5 -45.5zM303 546h-116q-9 0 -5 10l80 136q6 10 17 10h139q5 0 6.5 -3t-1.5 -7l-103 -136q-7 -10 -17 -10z" />
    <glyph glyph-name="Scircumflex" unicode="&#x15c;" horiz-adv-x="605" 
d="M308 -12q-82 0 -157 28q-77 28 -117 69q-9 8 -1 16l90 106q7 7 14 1q77 -68 173 -68q45 0 70.5 17t25.5 47q0 24 -19.5 37.5t-66.5 19.5l-36 5q-227 32 -227 214q0 96 69 154q68 58 184 58q144 0 243 -75q8 -6 2 -15l-75 -109q-6 -8 -14 -3q-76 51 -153 51
q-36 0 -55.5 -15t-19.5 -42q0 -46 87 -57l36 -5q114 -16 169.5 -68.5t55.5 -147.5q0 -98 -73 -158q-72 -60 -205 -60zM482 741h-95q-13 0 -23 10l-48 50h-2l-49 -50q-10 -10 -23 -10h-95q-12 0 -4 10l108 137q7 10 19 10h90q12 0 19 -10l108 -137q3 -4 1.5 -7t-6.5 -3z" />
    <glyph glyph-name="scircumflex" unicode="&#x15d;" horiz-adv-x="512" 
d="M261 -12q-143 0 -232 75q-7 7 -1 14l71 85q7 6 14 2q79 -52 158 -52q62 0 62 35q0 14 -13 21t-48 11l-54 5q-168 20 -168 155q0 73 56 116.5t154 43.5q128 0 210 -61q7 -5 2 -15l-63 -80q-6 -7 -15 -3q-62 38 -136 38q-51 0 -51 -30q0 -13 12 -20t44 -10l54 -6
q90 -9 132 -48t41 -106q-1 -79 -61.5 -124.5t-167.5 -45.5zM434 544h-95q-13 0 -23 10l-49 50h-2l-48 -50q-10 -10 -23 -10h-95q-5 0 -6.5 3t1.5 7l109 137q7 10 18 10h91q11 0 18 -10l109 -137q3 -4 1.5 -7t-6.5 -3z" />
    <glyph glyph-name="Scedilla" unicode="&#x15e;" horiz-adv-x="605" 
d="M322 -166h-115q-10 0 -7 10l58 146q-70 10 -130 35.5t-94 59.5q-9 8 -1 16l90 106q7 7 14 1q77 -68 173 -68q45 0 70.5 17t25.5 47q0 24 -19.5 37.5t-66.5 19.5l-36 5q-227 32 -227 214q0 96 69 154q68 58 184 58q144 0 243 -75q8 -6 2 -15l-75 -109q-6 -8 -14 -3
q-76 51 -153 51q-36 0 -55.5 -15t-19.5 -42q0 -46 87 -57l36 -5q114 -16 169.5 -68.5t55.5 -147.5q0 -82 -53.5 -138.5t-150.5 -74.5l-44 -149q-3 -10 -16 -10z" />
    <glyph glyph-name="scedilla" unicode="&#x15f;" horiz-adv-x="512" 
d="M273 -166h-115q-10 0 -7 10l59 147q-107 12 -181 72q-7 7 -1 14l71 85q7 6 14 2q79 -52 158 -52q62 0 62 35q0 14 -13 21t-48 11l-54 5q-168 20 -168 155q0 73 56 116.5t154 43.5q128 0 210 -61q7 -5 2 -15l-63 -80q-6 -7 -15 -3q-62 38 -136 38q-51 0 -51 -30
q0 -13 12 -20t44 -10l54 -6q90 -9 132 -48t41 -106q-1 -63 -41 -105.5t-115 -58.5l-45 -150q-3 -10 -16 -10z" />
    <glyph glyph-name="Scaron" unicode="&#x160;" horiz-adv-x="605" 
d="M308 -12q-82 0 -157 28q-77 28 -117 69q-9 8 -1 16l90 106q7 7 14 1q77 -68 173 -68q45 0 70.5 17t25.5 47q0 24 -19.5 37.5t-66.5 19.5l-36 5q-227 32 -227 214q0 96 69 154q68 58 184 58q144 0 243 -75q8 -6 2 -15l-75 -109q-6 -8 -14 -3q-76 51 -153 51
q-36 0 -55.5 -15t-19.5 -42q0 -46 87 -57l36 -5q114 -16 169.5 -68.5t55.5 -147.5q0 -98 -73 -158q-72 -60 -205 -60zM356 736h-90q-12 0 -19 10l-108 136q-8 10 4 10h95q13 0 23 -10l49 -49h2l48 49q10 10 23 10h95q5 0 6.5 -3t-1.5 -7l-108 -136q-7 -10 -19 -10z" />
    <glyph glyph-name="scaron" unicode="&#x161;" horiz-adv-x="512" 
d="M261 -12q-143 0 -232 75q-7 7 -1 14l71 85q7 6 14 2q79 -52 158 -52q62 0 62 35q0 14 -13 21t-48 11l-54 5q-168 20 -168 155q0 73 56 116.5t154 43.5q128 0 210 -61q7 -5 2 -15l-63 -80q-6 -7 -15 -3q-62 38 -136 38q-51 0 -51 -30q0 -13 12 -20t44 -10l54 -6
q90 -9 132 -48t41 -106q-1 -79 -61.5 -124.5t-167.5 -45.5zM304 541h-91q-11 0 -18 10l-109 137q-3 4 -1.5 7t6.5 3h95q13 0 23 -10l48 -49h2l49 49q10 10 23 10h95q5 0 6.5 -3t-1.5 -7l-109 -137q-7 -10 -18 -10z" />
    <glyph glyph-name="uni0162" unicode="&#x162;" horiz-adv-x="566" 
d="M224 -248q-11 0 -11 13v179q0 10 10 10h120q10 0 10 -10v-89q0 -14 -9 -20l-103 -75q-11 -8 -17 -8zM361 0h-156h-3q-2 0 -5 3q-2 2 -2 4v3v508q0 4 -5 6h-1h-167h-3q-2 0 -4 2l-1 1q0 1 -1 1q-1 1 -1 6v136q0 9 7 10h3h522q4 0 7 -3q1 -1 1 -2q2 -2 2 -5v-136
q0 -5 -3 -8q-2 -2 -5 -2h-2h-167q-3 0 -4 -1l-2 -2v-3v-508v-3q-2 -4 -5 -6q-1 -1 -5 -1z" />
    <glyph glyph-name="uni0163" unicode="&#x163;" horiz-adv-x="341" 
d="M137 -248q-11 0 -11 13v179q0 10 10 10h120q10 0 10 -10v-89q0 -14 -9 -20l-103 -75q-11 -8 -17 -8zM299 -6h-56q-96 0 -136.5 42.5t-40.5 141.5v183q0 6 -6 6h-28q-10 0 -10 10v100q0 10 10 10h28q6 0 6 6v127q0 10 10 10h146q10 0 10 -10v-127q0 -6 6 -6h61
q10 0 10 -10v-100q0 -10 -10 -10h-61q-6 0 -6 -6v-176q0 -29 10 -40t35 -11h22q10 0 10 -10v-120q0 -10 -10 -10z" />
    <glyph glyph-name="Tcaron" unicode="&#x164;" horiz-adv-x="566" 
d="M328 736h-90q-12 0 -19 10l-108 136q-8 10 4 10h95q13 0 23 -10l49 -49h2l48 49q10 10 23 10h95q5 0 6.5 -3t-1.5 -7l-108 -136q-7 -10 -19 -10zM361 0h-156h-3q-2 0 -5 3q-2 2 -2 4v3v508q0 4 -5 6h-1h-167h-3q-2 0 -4 2l-1 1q0 1 -1 1q-1 1 -1 6v136q0 9 7 10h3h522
q4 0 7 -3q1 -1 1 -2q2 -2 2 -5v-136q0 -5 -3 -8q-2 -2 -5 -2h-2h-167q-3 0 -4 -1l-2 -2v-3v-508v-3q-2 -4 -5 -6q-1 -1 -5 -1z" />
    <glyph glyph-name="tcaron" unicode="&#x165;" horiz-adv-x="365" 
d="M299 -6h-56q-96 0 -136.5 42.5t-40.5 141.5v183q0 6 -6 6h-28q-10 0 -10 10v100q0 10 10 10h28q6 0 6 6v127q0 10 10 10h146q10 0 10 -10v-127q0 -6 6 -6h61q10 0 10 -10v-100q0 -10 -10 -10h-61q-6 0 -6 -6v-176q0 -29 10 -40t35 -11h22q10 0 10 -10v-120q0 -10 -10 -10
zM330 472q-11 0 -11 13v185q0 10 10 10h109q10 0 10 -10v-94q0 -14 -9 -21l-92 -75q-10 -8 -17 -8z" />
    <glyph glyph-name="Tbar" unicode="&#x166;" horiz-adv-x="566" 
d="M361 0h-156q-10 0 -10 10v277q0 6 -6 6h-78q-10 0 -10 10v104q0 10 10 10h78q6 0 6 6v95q0 6 -6 6h-167q-10 0 -10 10v136q0 10 10 10h522q10 0 10 -10v-136q0 -10 -10 -10h-167q-6 0 -6 -6v-95q0 -6 6 -6h78q10 0 10 -10v-104q0 -10 -10 -10h-78q-6 0 -6 -6v-277
q0 -10 -10 -10z" />
    <glyph glyph-name="tbar" unicode="&#x167;" horiz-adv-x="341" 
d="M232 222v-37q0 -29 10 -40t35 -11h22q10 0 10 -10v-120q0 -10 -10 -10h-56q-96 0 -136.5 42.5t-40.5 141.5v44q0 6 -6 6h-19q-10 0 -10 10v72q0 10 10 10h19q6 0 6 6v35q0 6 -6 6h-28q-10 0 -10 10v100q0 10 10 10h28q6 0 6 6v127q0 10 10 10h146q10 0 10 -10v-127
q0 -6 6 -6h61q10 0 10 -10v-100q0 -10 -10 -10h-61q-6 0 -6 -6v-35q0 -6 6 -6h47q10 0 10 -10v-72q0 -10 -10 -10h-47q-6 0 -6 -6z" />
    <glyph glyph-name="Utilde" unicode="&#x168;" horiz-adv-x="647" 
d="M392 740q-35 0 -83 23q-36 18 -60 18q-33 0 -76 -33q-4 -3 -7 -1.5t-3 5.5v81q0 11 9 22q37 37 81 37q36 0 84 -24q39 -17 60 -17q32 0 75 32q11 8 11 -3v-81q0 -13 -10 -22q-37 -37 -81 -37zM324 -12q-127 0 -199 71.5t-72 203.5v407q0 10 10 10h156q10 0 10 -10v-418
q0 -50 26 -78.5t69 -28.5q44 0 69 28t25 79v418q0 10 10 10h156q10 0 10 -10v-407q0 -131 -72.5 -203t-197.5 -72z" />
    <glyph glyph-name="utilde" unicode="&#x169;" horiz-adv-x="555" 
d="M492 0h-148q-10 0 -10 10v35h-1q-41 -57 -124 -57q-79 0 -119.5 48t-40.5 134v307q0 10 10 10h148q10 0 10 -10v-278q0 -71 59 -71q58 0 58 71v278q0 10 10 10h148q10 0 10 -10v-467q0 -10 -10 -10zM346 545q-35 0 -83 23q-36 18 -60 18q-32 0 -76 -32q-4 -3 -7 -2t-3 5
v81q0 13 9 22q37 37 81 37q36 0 84 -23q36 -18 60 -18q35 0 75 33q11 8 11 -4v-81q0 -13 -10 -22q-37 -37 -81 -37z" />
    <glyph glyph-name="Umacron" unicode="&#x16a;" horiz-adv-x="647" 
d="M324 -12q-127 0 -199 71.5t-72 203.5v407q0 10 10 10h156q10 0 10 -10v-418q0 -50 26 -78.5t69 -28.5q44 0 69 28t25 79v418q0 10 10 10h156q10 0 10 -10v-407q0 -131 -72.5 -203t-197.5 -72zM474 761h-301q-10 0 -10 10v90q0 10 10 10h301q10 0 10 -10v-90
q0 -10 -10 -10z" />
    <glyph glyph-name="umacron" unicode="&#x16b;" horiz-adv-x="555" 
d="M492 0h-148q-10 0 -10 10v35h-1q-41 -57 -124 -57q-79 0 -119.5 48t-40.5 134v307q0 10 10 10h148q10 0 10 -10v-278q0 -71 59 -71q58 0 58 71v278q0 10 10 10h148q10 0 10 -10v-467q0 -10 -10 -10zM428 562h-301q-10 0 -10 10v91q0 10 10 10h301q10 0 10 -10v-91
q0 -10 -10 -10z" />
    <glyph glyph-name="Ubreve" unicode="&#x16c;" horiz-adv-x="647" 
d="M324 -12q-127 0 -199 71.5t-72 203.5v407q0 10 10 10h156q10 0 10 -10v-418q0 -50 26 -78.5t69 -28.5q44 0 69 28t25 79v418q0 10 10 10h156q10 0 10 -10v-407q0 -131 -72.5 -203t-197.5 -72zM323 734q-69 0 -113 40q-45 41 -47 101q0 10 12 10h65q10 0 14 -10
q18 -40 69 -40q52 0 70 40q4 10 14 10h65q12 0 12 -10q-2 -60 -47 -101q-44 -40 -114 -40z" />
    <glyph glyph-name="ubreve" unicode="&#x16d;" horiz-adv-x="555" 
d="M492 0h-148q-10 0 -10 10v35h-1q-41 -57 -124 -57q-79 0 -119.5 48t-40.5 134v307q0 10 10 10h148q10 0 10 -10v-278q0 -71 59 -71q58 0 58 71v278q0 10 10 10h148q10 0 10 -10v-467q0 -10 -10 -10zM117 679q0 11 12 11h65q9 0 14 -11q18 -40 69 -40q52 0 70 40
q5 11 14 11h65q12 0 12 -11q-2 -61 -48 -101q-44 -40 -113 -40t-113 40q-45 41 -47 101z" />
    <glyph glyph-name="Uring" unicode="&#x16e;" horiz-adv-x="647" 
d="M323 704q-49 0 -81.5 32.5t-32.5 81.5t32.5 81t81.5 32q50 0 82.5 -32t32.5 -81t-32.5 -81.5t-82.5 -32.5zM323 773q27 -2 38 21.5t0 46.5t-38 21q-18 0 -30.5 -12.5t-12.5 -31.5t12.5 -32t30.5 -13zM324 -12q-127 0 -199 71.5t-72 203.5v407q0 10 10 10h156q10 0 10 -10
v-418q0 -50 26 -78.5t69 -28.5q44 0 69 28t25 79v418q0 10 10 10h156q10 0 10 -10v-407q0 -131 -72.5 -203t-197.5 -72z" />
    <glyph glyph-name="uring" unicode="&#x16f;" horiz-adv-x="555" 
d="M492 0h-148q-10 0 -10 10v35h-1q-41 -57 -124 -57q-79 0 -119.5 48t-40.5 134v307q0 10 10 10h148q10 0 10 -10v-278q0 -71 59 -71q58 0 58 71v278q0 10 10 10h148q10 0 10 -10v-467q0 -10 -10 -10zM277 518q-49 0 -81.5 32.5t-32.5 81.5t32.5 81.5t81.5 32.5
q50 0 82.5 -32.5t32.5 -81.5t-32.5 -81.5t-82.5 -32.5zM277 587q27 -2 38 21.5t0 47t-38 21.5q-18 0 -30.5 -13t-12.5 -32t12.5 -32t30.5 -13z" />
    <glyph glyph-name="Uhungarumlaut" unicode="&#x170;" horiz-adv-x="647" 
d="M324 -12q-127 0 -199 71.5t-72 203.5v407q0 10 10 10h156q10 0 10 -10v-418q0 -50 26 -78.5t69 -28.5q44 0 69 28t25 79v418q0 10 10 10h156q10 0 10 -10v-407q0 -131 -72.5 -203t-197.5 -72zM452 748h-97q-11 0 -5 10l74 118q6 10 17 10h114q11 0 5 -10l-89 -118
q-6 -10 -19 -10zM268 748h-98q-11 0 -5 10l75 118q6 10 17 10h114q11 0 5 -10l-89 -118q-7 -10 -19 -10z" />
    <glyph glyph-name="uhungarumlaut" unicode="&#x171;" horiz-adv-x="555" 
d="M492 0h-148q-10 0 -10 10v35h-1q-41 -57 -124 -57q-79 0 -119.5 48t-40.5 134v307q0 10 10 10h148q10 0 10 -10v-278q0 -71 59 -71q58 0 58 71v278q0 10 10 10h148q10 0 10 -10v-467q0 -10 -10 -10zM416 543h-98q-10 0 -6 10l69 137q4 10 16 10h114q12 0 6 -10l-84 -137
q-6 -10 -17 -10zM231 543h-98q-10 0 -6 10l70 137q4 10 16 10h114q12 0 6 -10l-84 -137q-7 -10 -18 -10z" />
    <glyph glyph-name="Uogonek" unicode="&#x172;" horiz-adv-x="647" 
d="M335 -192q-51 0 -80.5 26.5t-29.5 70.5q0 47 41 88q-102 15 -157.5 84.5t-55.5 185.5v407q0 10 10 10h156q10 0 10 -10v-418q0 -50 26 -78.5t69 -28.5q44 0 69 28t25 79v418q0 10 10 10h156q10 0 10 -10v-407q0 -109 -49.5 -177t-139.5 -89q-59 -41 -59 -63q0 -16 17 -16
q10 0 24 8q9 4 13 -3l38 -71q5 -8 -4 -13q-44 -31 -99 -31z" />
    <glyph glyph-name="uogonek" unicode="&#x173;" horiz-adv-x="556" 
d="M395 -192q-51 0 -80.5 26.5t-29.5 70.5q0 56 62 95h-4q-9 0 -9 10v35h-1q-41 -57 -124 -57q-79 0 -119.5 48t-40.5 134v307q0 10 10 10h148q10 0 10 -10v-278q0 -71 59 -71q58 0 58 71v278q0 10 10 10h148q10 0 10 -10v-467q0 -6 -7 -10q-89 -38 -89 -66q0 -16 17 -16
q10 0 24 8q9 4 13 -3l38 -71q5 -8 -4 -13q-44 -31 -99 -31z" />
    <glyph glyph-name="Wcircumflex" unicode="&#x174;" horiz-adv-x="907" 
d="M702 0h-125q-10 0 -13 10l-107 380h-2l-108 -380q-3 -10 -13 -10h-125q-10 0 -13 10l-185 660q-1 10 8 10h164q12 0 13 -10l88 -396h2l106 396q3 10 13 10h103q10 0 13 -10l109 -396h2l85 396q1 10 12 10h164q10 0 7 -10l-184 -660q-3 -10 -14 -10zM622 741h-95
q-13 0 -23 10l-48 50h-2l-49 -50q-10 -10 -23 -10h-95q-12 0 -4 10l108 137q7 10 19 10h90q12 0 19 -10l108 -137q3 -4 1.5 -7t-6.5 -3z" />
    <glyph glyph-name="wcircumflex" unicode="&#x175;" horiz-adv-x="773" 
d="M595 0h-116q-9 0 -12 10l-75 250h-2l-76 -250q-3 -10 -12 -10h-116q-9 0 -12 10l-158 466q-5 11 8 11h149q11 0 14 -10l67 -257h2l75 257q3 10 13 10h95q11 0 14 -10l75 -257h2l63 257q3 10 15 10h149q12 0 7 -11l-157 -466q-3 -10 -12 -10zM557 544h-95q-13 0 -23 10
l-49 50h-2l-48 -50q-10 -10 -23 -10h-95q-5 0 -6.5 3t1.5 7l109 137q7 10 18 10h91q11 0 18 -10l109 -137q3 -4 1.5 -7t-6.5 -3z" />
    <glyph glyph-name="Ycircumflex" unicode="&#x176;" horiz-adv-x="602" 
d="M383 0h-156q-10 0 -10 10v253l-206 406q-5 11 8 11h157q10 0 16 -10l114 -232h3l112 232q4 10 16 10h154q13 0 8 -11l-206 -406v-253q0 -10 -10 -10zM471 741h-95q-13 0 -23 10l-48 50h-2l-49 -50q-10 -10 -23 -10h-95q-4 0 -5.5 3t1.5 7l108 137q7 10 19 10h90
q12 0 19 -10l108 -137q3 -4 1.5 -7t-6.5 -3z" />
    <glyph glyph-name="ycircumflex" unicode="&#x177;" horiz-adv-x="531" 
d="M137 -180h-37q-10 0 -10 10v118q0 10 10 10h25q46 0 60 41l11 31l-183 447q-4 10 7 10h157q9 0 12 -10l84 -244h2l78 244q3 10 13 10h153q11 0 7 -10l-211 -532q-29 -73 -67 -98q-39 -27 -111 -27zM436 544h-95q-13 0 -23 10l-49 50h-2l-48 -50q-10 -10 -23 -10h-95
q-5 0 -6.5 3t1.5 7l109 137q7 10 18 10h91q11 0 18 -10l109 -137q3 -4 1.5 -7t-6.5 -3z" />
    <glyph glyph-name="Ydieresis" unicode="&#x178;" horiz-adv-x="602" 
d="M383 0h-156q-10 0 -10 10v253l-206 406q-5 11 8 11h157q10 0 16 -10l114 -232h3l112 232q4 10 16 10h154q13 0 8 -11l-206 -406v-253q0 -10 -10 -10zM460 750h-107q-10 0 -10 10v110q0 10 10 10h107q10 0 10 -10v-110q0 -10 -10 -10zM254 750h-107q-10 0 -10 10v110
q0 10 10 10h107q10 0 10 -10v-110q0 -10 -10 -10z" />
    <glyph glyph-name="Zacute" unicode="&#x179;" 
d="M516 0h-471q-10 0 -10 10v134q0 6 3 10l282 367v3h-264q-10 0 -10 10v136q0 10 10 10h460q10 0 10 -10v-134q0 -6 -3 -10l-282 -367v-3h275q10 0 10 -10v-136q0 -10 -10 -10zM315 747h-115q-4 0 -5.5 3t1.5 7l102 122q7 10 18 10h142q5 0 6.5 -3t-1.5 -7l-128 -123
q-9 -9 -20 -9z" />
    <glyph glyph-name="zacute" unicode="&#x17a;" horiz-adv-x="494" 
d="M290 546h-116q-9 0 -5 10l80 136q6 10 17 10h139q5 0 6.5 -3t-1.5 -7l-103 -136q-7 -10 -17 -10zM446 0h-396q-10 0 -10 10v108q0 6 3 10l215 223v3h-197q-10 0 -10 10v113q0 10 10 10h385q10 0 10 -10v-113q0 -6 -3 -10l-214 -218v-3h207q10 0 10 -10v-113
q0 -10 -10 -10z" />
    <glyph glyph-name="Zdotaccent" unicode="&#x17b;" 
d="M516 0h-471q-10 0 -10 10v134q0 6 3 10l282 367v3h-264q-10 0 -10 10v136q0 10 10 10h460q10 0 10 -10v-134q0 -6 -3 -10l-282 -367v-3h275q10 0 10 -10v-136q0 -10 -10 -10zM349 750h-138q-10 0 -10 10v110q0 10 10 10h138q10 0 10 -10v-110q0 -10 -10 -10z" />
    <glyph glyph-name="zdotaccent" unicode="&#x17c;" horiz-adv-x="494" 
d="M446 0h-396q-10 0 -10 10v108q0 6 3 10l215 223v3h-197q-10 0 -10 10v113q0 10 10 10h385q10 0 10 -10v-113q0 -6 -3 -10l-214 -218v-3h207q10 0 10 -10v-113q0 -10 -10 -10zM318 550h-138q-10 0 -10 10v110q0 10 10 10h138q10 0 10 -10v-110q0 -10 -10 -10z" />
    <glyph glyph-name="Zcaron" unicode="&#x17d;" 
d="M326 736h-90q-12 0 -19 10l-108 136q-8 10 4 10h95q13 0 23 -10l49 -49h2l48 49q10 10 23 10h95q5 0 6.5 -3t-1.5 -7l-108 -136q-7 -10 -19 -10zM516 0h-471q-10 0 -10 10v134q0 6 3 10l282 367v3h-264q-10 0 -10 10v136q0 10 10 10h460q10 0 10 -10v-134q0 -6 -3 -10
l-282 -367v-3h275q10 0 10 -10v-136q0 -10 -10 -10z" />
    <glyph glyph-name="zcaron" unicode="&#x17e;" horiz-adv-x="494" 
d="M446 0h-396q-10 0 -10 10v108q0 6 3 10l215 223v3h-197q-10 0 -10 10v113q0 10 10 10h385q10 0 10 -10v-113q0 -6 -3 -10l-214 -218v-3h207q10 0 10 -10v-113q0 -10 -10 -10zM296 541h-91q-11 0 -18 10l-109 137q-3 4 -1.5 7t6.5 3h95q13 0 23 -10l48 -49h2l49 49
q10 10 23 10h95q5 0 6.5 -3t-1.5 -7l-109 -137q-7 -10 -18 -10z" />
    <glyph glyph-name="florin" unicode="&#x192;" 
d="M457 302h-87l-47 -302q-15 -99 -62 -139.5t-142 -40.5h-36q-10 0 -10 10v118q0 10 10 10h20q28 0 41 11t18 39l45 294h-58q-10 0 -10 10v103q0 10 10 10h77l12 76q15 97 62 138t141 41h37q10 0 10 -10v-118q0 -10 -10 -10h-21q-26 0 -39.5 -11.5t-17.5 -38.5l-11 -67h68
q10 0 10 -10v-103q0 -10 -10 -10z" />
    <glyph glyph-name="Scommaaccent" unicode="&#x218;" horiz-adv-x="605" 
d="M308 -12q-82 0 -157 28q-77 28 -117 69q-9 8 -1 16l90 106q7 7 14 1q77 -68 173 -68q45 0 70.5 17t25.5 47q0 24 -19.5 37.5t-66.5 19.5l-36 5q-227 32 -227 214q0 96 69 154q68 58 184 58q144 0 243 -75q8 -6 2 -15l-75 -109q-6 -8 -14 -3q-76 51 -153 51
q-36 0 -55.5 -15t-19.5 -42q0 -46 87 -57l36 -5q114 -16 169.5 -68.5t55.5 -147.5q0 -98 -73 -158q-72 -60 -205 -60zM251 -248q-11 0 -11 13v179q0 10 10 10h120q10 0 10 -10v-89q0 -14 -9 -20l-103 -75q-11 -8 -17 -8z" />
    <glyph glyph-name="scommaaccent" unicode="&#x219;" horiz-adv-x="512" 
d="M261 -12q-143 0 -232 75q-7 7 -1 14l71 85q7 6 14 2q79 -52 158 -52q62 0 62 35q0 14 -13 21t-48 11l-54 5q-168 20 -168 155q0 73 56 116.5t154 43.5q128 0 210 -61q7 -5 2 -15l-63 -80q-6 -7 -15 -3q-62 38 -136 38q-51 0 -51 -30q0 -13 12 -20t44 -10l54 -6
q90 -9 132 -48t41 -106q-1 -79 -61.5 -124.5t-167.5 -45.5zM210 -248q-11 0 -11 13v179q0 10 10 10h120q10 0 10 -10v-89q0 -14 -9 -20l-103 -75q-11 -8 -17 -8z" />
    <glyph glyph-name="uni021A" unicode="&#x21a;" horiz-adv-x="566" 
d="M224 -248q-11 0 -11 13v179q0 10 10 10h120q10 0 10 -10v-89q0 -14 -9 -20l-103 -75q-11 -8 -17 -8zM361 0h-156h-3q-2 0 -5 3q-2 2 -2 4v3v508q0 4 -5 6h-1h-167h-3q-2 0 -4 2l-1 1q0 1 -1 1q-1 1 -1 6v136q0 9 7 10h3h522q4 0 7 -3q1 -1 1 -2q2 -2 2 -5v-136
q0 -5 -3 -8q-2 -2 -5 -2h-2h-167q-3 0 -4 -1l-2 -2v-3v-508v-3q-2 -4 -5 -6q-1 -1 -5 -1z" />
    <glyph glyph-name="uni021B" unicode="&#x21b;" horiz-adv-x="341" 
d="M137 -248q-11 0 -11 13v179q0 10 10 10h120q10 0 10 -10v-89q0 -14 -9 -20l-103 -75q-11 -8 -17 -8zM299 -6h-56q-96 0 -136.5 42.5t-40.5 141.5v183q0 6 -6 6h-28q-10 0 -10 10v100q0 10 10 10h28q6 0 6 6v127q0 10 10 10h146q10 0 10 -10v-127q0 -6 6 -6h61
q10 0 10 -10v-100q0 -10 -10 -10h-61q-6 0 -6 -6v-176q0 -29 10 -40t35 -11h22q10 0 10 -10v-120q0 -10 -10 -10z" />
    <glyph glyph-name="dotlessj" unicode="&#x237;" horiz-adv-x="274" 
d="M22 -180h-38q-10 0 -10 10v118q0 10 10 10h15q31 0 42.5 11t11.5 44v464q0 10 10 10h148q10 0 10 -10v-464q0 -100 -49.5 -146.5t-149.5 -46.5z" />
    <glyph glyph-name="circumflex" unicode="&#x2c6;" horiz-adv-x="489" 
d="M413 544h-95q-13 0 -23 10l-49 50h-2l-48 -50q-10 -10 -23 -10h-95q-5 0 -6.5 3t1.5 7l109 137q7 10 18 10h91q11 0 18 -10l109 -137q3 -4 1.5 -7t-6.5 -3z" />
    <glyph glyph-name="caron" unicode="&#x2c7;" horiz-adv-x="489" 
d="M291 541h-91q-11 0 -18 10l-109 137q-3 4 -1.5 7t6.5 3h95q13 0 23 -10l48 -49h2l49 49q10 10 23 10h95q5 0 6.5 -3t-1.5 -7l-109 -137q-7 -10 -18 -10z" />
    <glyph glyph-name="uni02C9" unicode="&#x2c9;" horiz-adv-x="489" 
d="M395 761h-301q-10 0 -10 10v90q0 10 10 10h301q10 0 10 -10v-90q0 -10 -10 -10z" />
    <glyph glyph-name="breve" unicode="&#x2d8;" horiz-adv-x="489" 
d="M84 679q0 11 12 11h65q9 0 14 -11q18 -40 69 -40q52 0 70 40q5 11 14 11h65q12 0 12 -11q-2 -61 -48 -101q-44 -40 -113 -40t-113 40q-45 41 -47 101z" />
    <glyph glyph-name="dotaccent" unicode="&#x2d9;" horiz-adv-x="489" 
d="M313 550h-138q-10 0 -10 10v110q0 10 10 10h138q10 0 10 -10v-110q0 -10 -10 -10z" />
    <glyph glyph-name="ring" unicode="&#x2da;" horiz-adv-x="489" 
d="M244 518q-49 0 -81.5 32.5t-32.5 81.5t32.5 81.5t81.5 32.5q50 0 82.5 -32.5t32.5 -81.5t-32.5 -81.5t-82.5 -32.5zM244 587q27 -2 38 21.5t0 47t-38 21.5q-18 0 -30.5 -13t-12.5 -32t12.5 -32t30.5 -13z" />
    <glyph glyph-name="ogonek" unicode="&#x2db;" horiz-adv-x="489" 
d="M240 -192q-51 0 -80.5 26.5t-29.5 70.5q0 56 53 95q13 10 25 10h127q5 0 5 -4t-4 -6q-85 -39 -85 -66q0 -16 17 -16q10 0 24 8q9 4 13 -3l38 -71q5 -8 -4 -13q-44 -31 -99 -31z" />
    <glyph glyph-name="tilde" unicode="&#x2dc;" horiz-adv-x="489" 
d="M313 545q-35 0 -83 23q-36 18 -60 18q-32 0 -76 -32q-4 -3 -7 -2t-3 5v81q0 13 9 22q37 37 81 37q36 0 84 -23q36 -18 60 -18q34 0 75 33q11 8 11 -4v-81q0 -13 -10 -22q-37 -37 -81 -37z" />
    <glyph glyph-name="hungarumlaut" unicode="&#x2dd;" horiz-adv-x="489" 
d="M346 543h-98q-10 0 -6 10l69 137q4 10 16 10h114q4 0 6 -3t0 -7l-84 -137q-6 -10 -17 -10zM161 543h-98q-10 0 -6 10l70 137q4 10 16 10h114q4 0 6 -3t0 -7l-84 -137q-7 -10 -18 -10z" />
    <glyph glyph-name="uni0374" unicode="&#x374;" horiz-adv-x="559" 
d="M253 468h-119q-10 0 -7 10l119 240q3 10 15 10h171q4 0 6.5 -3.5t0.5 -6.5l-170 -240q-6 -10 -16 -10z" />
    <glyph glyph-name="uni0375" unicode="&#x375;" horiz-adv-x="559" 
d="M313 68h119q10 0 7 -10l-119 -240q-3 -10 -15 -10h-171q-4 0 -6.5 3.5t-0.5 6.5l170 240q6 10 16 10z" />
    <glyph glyph-name="uni037E" unicode="&#x37e;" horiz-adv-x="278" 
d="M208 329h-138q-10 0 -10 10v138q0 10 10 10h138q10 0 10 -10v-138q0 -10 -10 -10zM64 -94v242q0 10 10 10h131q10 0 10 -10v-131q0 -12 -9 -20l-115 -95q-7 -7 -16 -7q-11 0 -11 11z" />
    <glyph glyph-name="tonos" unicode="&#x384;" horiz-adv-x="449" 
d="M235 546h-101q-10 0 -7 10l40 153q3 10 15 10h149q10 0 4 -10l-86 -153q-4 -10 -14 -10z" />
    <glyph glyph-name="dieresistonos" unicode="&#x385;" horiz-adv-x="658" 
d="M571 550h-108q-10 0 -10 10v110q0 10 10 10h108q10 0 10 -10v-110q0 -10 -10 -10zM195 550h-108q-10 0 -10 10v110q0 10 10 10h108q10 0 10 -10v-110q0 -10 -10 -10zM357 546h-101q-9 0 -8 10l19 153q1 10 14 10h147q9 0 5 -10l-63 -153q-4 -10 -13 -10z" />
    <glyph glyph-name="Alphatonos" unicode="&#x386;" horiz-adv-x="674" 
d="M13 10l235 660q3 10 13 10h163q10 0 13 -10l230 -660q3 -10 -7 -10h-165q-10 0 -13 10l-32 105h-221l-32 -105q-3 -10 -13 -10h-164q-10 0 -7 10zM340 473l-66 -212h132l-63 212h-3zM67 524h-101q-10 0 -7 10l36 136q3 10 15 10h149q10 0 4 -10l-82 -136q-4 -10 -14 -10z
" />
    <glyph glyph-name="anoteleia" unicode="&#x387;" horiz-adv-x="263" 
d="M201 186h-139q-10 0 -10 10v138q0 10 10 10h139q10 0 10 -10v-138q0 -10 -10 -10z" />
    <glyph glyph-name="Epsilontonos" unicode="&#x388;" horiz-adv-x="557" 
d="M58 10v660q0 10 10 10h445q10 0 10 -10v-129q0 -10 -10 -10h-273q-6 0 -6 -6v-103q0 -6 6 -6h224q10 0 10 -10v-126q0 -10 -10 -10h-224q-6 0 -6 -6v-109q0 -6 6 -6h273q10 0 10 -10v-129q0 -10 -10 -10h-445q-10 0 -10 10zM-96 524h-101q-10 0 -7 10l36 136q3 10 15 10
h149q10 0 4 -10l-82 -136q-4 -10 -14 -10z" />
    <glyph glyph-name="Etatonos" unicode="&#x389;" horiz-adv-x="659" 
d="M58 10v660q0 10 10 10h156q10 0 10 -10v-241q0 -6 6 -6h185q6 0 6 6v241q0 10 10 10h156q10 0 10 -10v-660q0 -10 -10 -10h-156q-10 0 -10 10v251q0 6 -6 6h-185q-6 0 -6 -6v-251q0 -10 -10 -10h-156q-10 0 -10 10zM-114 524h-101q-10 0 -7 10l36 136q3 10 15 10h149
q10 0 4 -10l-82 -136q-4 -10 -14 -10z" />
    <glyph glyph-name="Iotatonos" unicode="&#x38a;" horiz-adv-x="286" 
d="M-96 524h-101q-10 0 -7 10l36 136q3 10 15 10h149q10 0 4 -10l-82 -136q-4 -10 -14 -10zM58 10v660q0 10 10 10h156q10 0 10 -10v-660q0 -10 -10 -10h-156q-10 0 -10 10z" />
    <glyph glyph-name="Omicrontonos" unicode="&#x38c;" horiz-adv-x="628" 
d="M62 155q-20 66 -20 185t20 185q26 80 93.5 123.5t161.5 43.5t161.5 -43.5t93.5 -123.5q20 -63 20 -185t-20 -185q-26 -80 -93.5 -123.5t-161.5 -43.5t-161.5 43.5t-93.5 123.5zM404 205q10 27 10 135t-10 135q-20 60 -87 60t-87 -60q-10 -27 -10 -135t10 -135
q20 -60 87 -60t87 60zM-55 524h-101q-10 0 -7 10l36 136q3 10 15 10h149q10 0 4 -10l-82 -136q-4 -10 -14 -10z" />
    <glyph glyph-name="Upsilontonos" unicode="&#x38e;" horiz-adv-x="602" 
d="M382 0h-156q-10 0 -10 10v253l-206 406q-5 11 8 11h157q10 0 16 -10l114 -232h3l112 232q4 10 16 10h154q13 0 8 -11l-206 -406v-253q0 -10 -10 -10zM-132 524h-101q-10 0 -7 10l36 136q3 10 15 10h149q10 0 4 -10l-82 -136q-4 -10 -14 -10z" />
    <glyph glyph-name="Omegatonos" unicode="&#x38f;" horiz-adv-x="639" 
d="M-55 524h-101q-10 0 -7 10l36 136q3 10 15 10h149q10 0 4 -10l-82 -136q-4 -10 -14 -10z" />
    <glyph glyph-name="iotadieresistonos" unicode="&#x390;" horiz-adv-x="356" 
d="M394 550h-108q-10 0 -10 10v110q0 10 10 10h108q10 0 10 -10v-110q0 -10 -10 -10zM18 550h-108q-10 0 -10 10v110q0 10 10 10h108q10 0 10 -10v-110q0 -10 -10 -10zM180 546h-101q-9 0 -8 10l19 153q1 10 14 10h147q9 0 5 -10l-63 -153q-4 -10 -13 -10zM203 -12
q-81 0 -117.5 37.5t-36.5 119.5v332q0 10 10 10h148q10 0 10 -10v-296q0 -29 11 -41t36 -12q15 0 34 4q9 2 11 -8l21 -104q1 -9 -7 -12q-48 -20 -120 -20z" />
    <glyph glyph-name="Alpha" unicode="&#x391;" horiz-adv-x="674" 
d="M13 10l235 660q3 10 13 10h163q10 0 13 -10l230 -660q3 -10 -7 -10h-165q-10 0 -13 10l-32 105h-221l-32 -105q-3 -10 -13 -10h-164q-10 0 -7 10zM340 473l-66 -212h132l-63 212h-3z" />
    <glyph glyph-name="Beta" unicode="&#x392;" horiz-adv-x="614" 
d="M55 10v660q0 10 10 10h277q109 0 165.5 -47.5t56.5 -133.5q0 -102 -83 -146v-2q41 -15 68 -57.5t27 -97.5q0 -96 -62.5 -146t-174.5 -50h-274q-10 0 -10 10zM237 407h71q81 0 81 70t-81 70h-71q-6 0 -6 -6v-128q0 -6 6 -6zM231 280v-141q0 -6 6 -6h80q83 0 83 77
q0 76 -83 76h-80q-6 0 -6 -6z" />
    <glyph glyph-name="Gamma" unicode="&#x393;" horiz-adv-x="532" 
d="M231 525v-515q0 -10 -10 -10h-156q-10 0 -10 10v660q0 10 10 10h415q10 0 10 -10v-129q0 -10 -10 -10h-243q-6 0 -6 -6z" />
    <glyph glyph-name="uni0394" unicode="&#x394;" horiz-adv-x="678" 
d="M661 0h-638q-11 0 -8 10l235 660q3 10 13 10h163q10 0 13 -10l230 -660q3 -10 -8 -10zM247 149h190q7 0 5 6l-97 318h-3l-100 -318q-2 -6 5 -6z" />
    <glyph glyph-name="Epsilon" unicode="&#x395;" horiz-adv-x="557" 
d="M55 10v660q0 10 10 10h445q10 0 10 -10v-129q0 -10 -10 -10h-273q-6 0 -6 -6v-103q0 -6 6 -6h224q10 0 10 -10v-126q0 -10 -10 -10h-224q-6 0 -6 -6v-109q0 -6 6 -6h273q10 0 10 -10v-129q0 -10 -10 -10h-445q-10 0 -10 10z" />
    <glyph glyph-name="Zeta" unicode="&#x396;" 
d="M516 0h-471q-10 0 -10 10v134q0 6 3 10l282 367v3h-264q-10 0 -10 10v136q0 10 10 10h460q10 0 10 -10v-134q0 -6 -3 -10l-282 -367v-3h275q10 0 10 -10v-136q0 -10 -10 -10z" />
    <glyph glyph-name="Eta" unicode="&#x397;" horiz-adv-x="659" 
d="M55 10v660q0 10 10 10h156q10 0 10 -10v-241q0 -6 6 -6h185q6 0 6 6v241q0 10 10 10h156q10 0 10 -10v-660q0 -10 -10 -10h-156q-10 0 -10 10v251q0 6 -6 6h-185q-6 0 -6 -6v-251q0 -10 -10 -10h-156q-10 0 -10 10z" />
    <glyph glyph-name="Theta" unicode="&#x398;" horiz-adv-x="662" 
d="M572 579q29 -46 40 -100.5t11 -138.5t-18 -155q-50 -197 -273 -197q-225 0 -275 197q-18 71 -18 155t11 138.5t40 100.5q71 113 241 113t241 -113zM331 145q69 0 92 47q15 29 19 68q3 32 3 80q0 79 -11 122q-20 73 -103 73q-58 0 -87 -36q-12 -15 -18 -44q-9 -42 -9 -115
q0 -47 1 -61q2 -19 6 -51q8 -42 32 -60.5t75 -22.5zM393 286h-124q-10 0 -10 10v88q0 10 10 10h124q10 0 10 -10v-88q0 -10 -10 -10z" />
    <glyph glyph-name="Iota" unicode="&#x399;" horiz-adv-x="286" 
d="M55 10v660q0 10 10 10h156q10 0 10 -10v-660q0 -10 -10 -10h-156q-10 0 -10 10z" />
    <glyph glyph-name="Kappa" unicode="&#x39a;" horiz-adv-x="657" 
d="M55 10v660q0 10 10 10h156q10 0 10 -10v-266l195 267q8 9 17 9h176q13 0 6 -13l-203 -263l215 -393q2 -4 0.5 -7.5t-6.5 -3.5h-179q-12 0 -16 9l-132 256l-73 -97v-158q0 -10 -10 -10h-156q-10 0 -10 10z" />
    <glyph glyph-name="Lambda" unicode="&#x39b;" horiz-adv-x="664" 
d="M333 473h-3l-133 -463q-3 -10 -13 -10h-164q-10 0 -7 10l225 660q3 10 13 10h163q10 0 13 -10l230 -660q3 -10 -7 -10h-165q-10 0 -13 10z" />
    <glyph glyph-name="Mu" unicode="&#x39c;" horiz-adv-x="772" 
d="M55 10v660q0 10 10 10h148q13 0 17 -10l157 -355h4l153 355q4 10 17 10h146q10 0 10 -10v-660q0 -10 -10 -10h-139q-10 0 -10 10v350h-5l-109 -254q-6 -13 -19 -13h-78q-12 0 -19 13l-109 254h-5v-350q0 -10 -10 -10h-139q-10 0 -10 10z" />
    <glyph glyph-name="Nu" unicode="&#x39d;" horiz-adv-x="653" 
d="M55 10v660q0 10 10 10h147q13 0 17 -10l205 -385h4v385q0 10 10 10h140q10 0 10 -10v-660q0 -10 -10 -10h-147q-13 0 -17 10l-203 384h-6v-384q0 -10 -10 -10h-140q-10 0 -10 10z" />
    <glyph glyph-name="Xi" unicode="&#x39e;" horiz-adv-x="574" 
d="M477 264h-381q-10 0 -10 10v132q0 10 10 10h381q10 0 10 -10v-132q0 -10 -10 -10zM524 525h-474q-10 0 -10 10v135q0 10 10 10h474q10 0 10 -10v-135q0 -10 -10 -10zM524 0h-474q-10 0 -10 10v135q0 10 10 10h474q10 0 10 -10v-135q0 -10 -10 -10z" />
    <glyph glyph-name="Omicron" unicode="&#x39f;" horiz-adv-x="628" 
d="M59 155q-20 66 -20 185t20 185q26 80 93.5 123.5t161.5 43.5t161.5 -43.5t93.5 -123.5q20 -63 20 -185t-20 -185q-26 -80 -93.5 -123.5t-161.5 -43.5t-161.5 43.5t-93.5 123.5zM401 205q10 27 10 135t-10 135q-19 60 -87 60t-87 -60q-10 -27 -10 -135t10 -135
q19 -60 87 -60t87 60z" />
    <glyph glyph-name="Pi" unicode="&#x3a0;" horiz-adv-x="649" 
d="M221 0h-156q-10 0 -10 10v660q0 10 10 10h519q10 0 10 -10v-660q0 -10 -10 -10h-156q-10 0 -10 10v508q0 6 -6 6h-175q-6 0 -6 -6v-508q0 -10 -10 -10z" />
    <glyph glyph-name="Rho" unicode="&#x3a1;" horiz-adv-x="612" 
d="M221 0h-156q-10 0 -10 10v660q0 10 10 10h272q119 0 185.5 -61t66.5 -165q0 -101 -66 -164t-186 -63h-100q-6 0 -6 -6v-211q0 -10 -10 -10zM237 376h90q41 0 63.5 21t22.5 57t-22.5 56.5t-63.5 20.5h-90q-6 0 -6 -6v-143q0 -6 6 -6z" />
    <glyph glyph-name="Sigma" unicode="&#x3a3;" 
d="M518 0h-471q-10 0 -10 8v125q0 7 3 11l131 179l-126 191q-3 4 -3 10v146q0 10 10 10h460q10 0 10 -10v-136q0 -10 -10 -10h-272v-3l121 -176q5 -7 0 -15l-126 -171v-3h283q10 0 10 -10v-136q0 -10 -10 -10z" />
    <glyph glyph-name="Tau" unicode="&#x3a4;" horiz-adv-x="566" 
d="M361 0h-156q-10 0 -10 10v508q0 6 -6 6h-170q-7 0 -7 8v138q0 10 10 10h522q10 0 10 -10v-136q0 -10 -10 -10h-167q-6 0 -6 -6v-508q0 -10 -10 -10z" />
    <glyph glyph-name="Upsilon" unicode="&#x3a5;" horiz-adv-x="602" 
d="M383 0h-156q-10 0 -10 10v253l-206 406q-5 11 8 11h157q10 0 16 -10l114 -232h3l112 232q4 10 16 10h154q13 0 8 -11l-206 -406v-253q0 -10 -10 -10z" />
    <glyph glyph-name="Phi" unicode="&#x3a6;" horiz-adv-x="786" 
d="M314 166v343q-57 -1 -81.5 -41.5t-24.5 -131.5q0 -87 24 -128.5t82 -41.5zM472 509v-343q57 0 81.5 42t24.5 131q0 90 -24.5 130t-81.5 40zM472 11v-45q0 -10 -10 -10h-138q-10 0 -10 10v44q-149 12 -219 91.5t-70 236.5q0 309 289 327v51q0 10 10 10h138q10 0 10 -10
v-51q289 -17 289 -327q0 -311 -289 -327z" />
    <glyph glyph-name="Chi" unicode="&#x3a7;" horiz-adv-x="616" 
d="M606 0h-168q-11 0 -17 10l-107 183h-2l-107 -183q-6 -10 -17 -10h-168q-12 0 -6 11l204 340l-191 318q-5 11 6 11h168q11 0 17 -10l94 -161h2l94 161q6 10 17 10h168q14 0 6 -11l-190 -318l203 -340q8 -11 -6 -11z" />
    <glyph glyph-name="Psi" unicode="&#x3a8;" horiz-adv-x="742" 
d="M292 10v74q-128 7 -188 67q-59 59 -59 192v328q0 9 12 9h135q11 0 11 -9v-336q0 -59 17.5 -82t71.5 -24v441q0 10 10 10h138q10 0 10 -10v-441q52 1 70.5 23.5t18.5 78.5v340q0 9 11 9h135q12 0 12 -9v-328q0 -125 -55 -187q-54 -63 -192 -72v-74q0 -10 -10 -10h-138
q-10 0 -10 10z" />
    <glyph glyph-name="uni03A9" unicode="&#x3a9;" horiz-adv-x="639" 
d="M584 0h-223q-10 0 -10 10v117q0 11 9 15q34 16 46 57t12 141q0 105 -10 135q-22 60 -89 60q-69 0 -88 -60q-10 -26 -10 -135q0 -100 12 -141t46 -57q9 -4 9 -15v-117q0 -10 -10 -10h-223q-10 0 -10 10v123q0 10 10 10h49v1q-62 47 -62 196q0 123 21 183q28 82 94.5 125.5
t161.5 43.5q96 0 162 -43t95 -126q21 -60 21 -183q0 -149 -62 -196v-1h49q10 0 10 -10v-123q0 -10 -10 -10z" />
    <glyph glyph-name="Iotadieresis" unicode="&#x3aa;" horiz-adv-x="286" 
d="M55 10v660q0 10 10 10h156q10 0 10 -10v-660q0 -10 -10 -10h-156q-10 0 -10 10zM300 750h-107q-10 0 -10 10v110q0 10 10 10h107q10 0 10 -10v-110q0 -10 -10 -10zM94 750h-107q-10 0 -10 10v110q0 10 10 10h107q10 0 10 -10v-110q0 -10 -10 -10z" />
    <glyph glyph-name="Upsilondieresis" unicode="&#x3ab;" horiz-adv-x="602" 
d="M383 0h-156q-10 0 -10 10v253l-206 406q-5 11 8 11h157q10 0 16 -10l114 -232h3l112 232q4 10 16 10h154q13 0 8 -11l-206 -406v-253q0 -10 -10 -10zM462 750h-107q-10 0 -10 10v110q0 10 10 10h107q10 0 10 -10v-110q0 -10 -10 -10zM256 750h-107q-10 0 -10 10v110
q0 10 10 10h107q10 0 10 -10v-110q0 -10 -10 -10z" />
    <glyph glyph-name="alphatonos" unicode="&#x3ac;" horiz-adv-x="606" 
d="M224 -12q-113 0 -155 76q-37 67 -37 179q0 126 45 191t147 65q109 0 153 -80h1q9 23 21 60q2 8 12 8h146q18 0 12 -23q-39 -140 -92 -245l3 -9q25 -76 71 -76q12 0 12 -13v-117q0 -10 -10 -10h-22q-74 0 -101 13q-29 14 -54 49h-1q-53 -68 -151 -68zM269 126q45 0 59 41
q8 22 8 76q0 55 -8 77q-14 41 -59 41t-60 -41q-7 -21 -7 -77q0 -55 7 -76q15 -41 60 -41zM335 546h-101q-10 0 -7 10l40 153q3 10 15 10h149q10 0 4 -10l-86 -153q-4 -10 -14 -10z" />
    <glyph glyph-name="epsilontonos" unicode="&#x3ad;" horiz-adv-x="476" 
d="M252 -12q-107 0 -158.5 36t-51.5 111q0 94 85 125v1q-67 31 -67 99q0 139 205 139q107 0 156 -15q9 -2 11 -5.5t0 -15.5l-18 -95q-2 -8 -15 -6q-64 11 -113 11q-55 0 -55 -34q0 -33 49 -33h61q15 0 15 -16v-84q0 -12 -14 -12h-62q-56 0 -56 -35q0 -37 61 -37q47 0 120 18
q11 3 14 1.5t5 -9.5l23 -99q1 -10 -6 -13q-66 -32 -189 -32zM319 546h-101q-10 0 -7 10l40 153q3 10 15 10h149q10 0 4 -10l-86 -153q-4 -10 -14 -10z" />
    <glyph glyph-name="etatonos" unicode="&#x3ae;" horiz-adv-x="585" 
d="M235 0h-148q-10 0 -10 10v313q0 41 -27 41q-10 0 -10 10v108q0 10 10 10q59 0 103 -12q49 -13 67 -66l2 -9h2q43 94 152 94q76 0 117.5 -46.5t41.5 -136.5v-486q0 -10 -10 -10h-148q-10 0 -10 10v458q0 71 -62 71q-28 0 -44 -18t-16 -51v-280q0 -10 -10 -10zM308 546
h-101q-10 0 -7 10l40 153q3 10 15 10h149q10 0 4 -10l-86 -153q-4 -10 -14 -10z" />
    <glyph glyph-name="iotatonos" unicode="&#x3af;" horiz-adv-x="356" 
d="M203 -12q-81 0 -117.5 37.5t-36.5 119.5v332q0 10 10 10h148q10 0 10 -10v-296q0 -29 11 -41t36 -12q15 0 34 4q9 2 11 -8l21 -104q1 -9 -7 -12q-48 -20 -120 -20zM183 546h-101q-10 0 -7 10l40 153q3 10 15 10h149q10 0 4 -10l-86 -153q-4 -10 -14 -10z" />
    <glyph glyph-name="upsilondieresistonos" unicode="&#x3b0;" horiz-adv-x="564" 
d="M293 -12q-120 0 -173 59t-53 191v84q0 23 -6 32.5t-21 9.5q-10 0 -10 10v108q0 10 10 10h41q78 0 114 -21q40 -23 40 -115v-158q0 -70 61 -70q27 0 42.5 18t15.5 52v279q0 10 10 10h148q10 0 10 -10v-239q0 -133 -53.5 -191.5t-175.5 -58.5zM526 550h-108q-10 0 -10 10
v110q0 10 10 10h108q10 0 10 -10v-110q0 -10 -10 -10zM150 550h-108q-10 0 -10 10v110q0 10 10 10h108q10 0 10 -10v-110q0 -10 -10 -10zM312 546h-101q-9 0 -8 10l19 153q1 10 14 10h147q9 0 5 -10l-63 -153q-4 -10 -13 -10z" />
    <glyph glyph-name="alpha" unicode="&#x3b1;" horiz-adv-x="606" 
d="M224 -12q-113 0 -155 76q-37 67 -37 179q0 126 45 191t147 65q109 0 153 -80h1q9 23 21 60q2 8 12 8h146q18 0 12 -23q-39 -140 -92 -245l3 -9q25 -76 71 -76q12 0 12 -13v-117q0 -10 -10 -10h-22q-74 0 -101 13q-29 14 -54 49h-1q-53 -68 -151 -68zM269 126q45 0 59 41
q8 22 8 76q0 55 -8 77q-14 41 -59 41t-60 -41q-7 -21 -7 -77q0 -55 7 -76q15 -41 60 -41z" />
    <glyph glyph-name="beta" unicode="&#x3b2;" horiz-adv-x="594" 
d="M211 -180h-148q-10 0 -10 10v621q0 241 246 241q104 0 160 -48t56 -131q0 -89 -60 -130v-2q50 -13 80 -56.5t30 -112.5q0 -96 -56 -161q-55 -63 -160 -63q-83 0 -127 51h-1v-209q0 -10 -10 -10zM294 133q38 0 58 23t20 61q0 40 -17 59.5t-55 19.5h-23q-10 0 -10 10v106
q0 10 10 10h28q29 0 43.5 18.5t14.5 48.5q0 31 -18.5 50t-53.5 19q-32 0 -52.5 -20t-20.5 -60v-263q0 -82 76 -82z" />
    <glyph glyph-name="gamma" unicode="&#x3b3;" horiz-adv-x="559" 
d="M374 -176h-147q-10 0 -10 10l4 160l-131 327q-14 32 -20 37q-8 6 -29 6q-16 0 -16 10v108q0 10 10 10h16q87 0 125 -20q36 -19 61 -88l63 -179h2l25 70q39 111 45 202q0 10 11 10h148q8 0 8 -10q0 -43 -12 -92q-12 -48 -26 -88q-10 -27 -50 -126l-71 -177q4 -140 4 -160
q0 -10 -10 -10z" />
    <glyph glyph-name="delta" unicode="&#x3b4;" horiz-adv-x="534" 
d="M263 -12q-110 0 -170.5 63t-60.5 173q0 79 39.5 137t99.5 81v1l-13 10q-56 44 -56 99q0 67 47 103.5t133 36.5q105 0 186 -29q7 -4 6 -11l-32 -110q-3 -9 -16 -5q-54 19 -107 19q-33 0 -33 -27q0 -11 7.5 -19t32.5 -23l11 -7q93 -60 128 -116q37 -58 37 -139
q0 -112 -62.5 -174.5t-176.5 -62.5zM332 217q0 97 -66 135q-64 -31 -64 -136q0 -90 65 -90t65 91z" />
    <glyph glyph-name="epsilon" unicode="&#x3b5;" horiz-adv-x="476" 
d="M252 -12q-107 0 -158.5 36t-51.5 111q0 94 85 125v1q-67 31 -67 99q0 139 205 139q107 0 156 -15q9 -2 11 -5.5t0 -15.5l-18 -95q-2 -8 -15 -6q-64 11 -113 11q-55 0 -55 -34q0 -33 49 -33h61q15 0 15 -16v-84q0 -12 -14 -12h-62q-56 0 -56 -35q0 -37 61 -37q47 0 120 18
q11 3 14 1.5t5 -9.5l23 -99q1 -10 -6 -13q-66 -32 -189 -32z" />
    <glyph glyph-name="zeta" unicode="&#x3b6;" horiz-adv-x="440" 
d="M268 -178q-8 -2 -12 5l-42 76q-4 7 5 12q46 22 46 50q0 22 -33 34l-24 9q-84 32 -125 68q-48 44 -48 143q0 180 170 330v1h-135q-10 0 -10 10v110q0 10 10 10h357q10 0 10 -10v-89q-132 -109 -182 -187q-50 -79 -50 -145q0 -45 20 -68q20 -21 85 -47l28 -11
q52 -20 73 -47t21 -75q0 -116 -164 -179z" />
    <glyph glyph-name="eta" unicode="&#x3b7;" horiz-adv-x="585" 
d="M235 0h-148q-10 0 -10 10v313q0 41 -27 41q-10 0 -10 10v108q0 10 10 10q59 0 103 -12q49 -13 67 -66l2 -9h2q43 94 152 94q76 0 117.5 -46.5t41.5 -136.5v-486q0 -10 -10 -10h-148q-10 0 -10 10v458q0 71 -62 71q-28 0 -44 -18t-16 -51v-280q0 -10 -10 -10z" />
    <glyph glyph-name="theta" unicode="&#x3b8;" horiz-adv-x="570" 
d="M285 -12q-116 0 -177 71q-27 33 -41 79q-25 81 -25 204q0 350 243 350t243 -350q0 -115 -24 -195q-44 -155 -219 -159zM285 126q44 0 56 34q12 32 14 122h-140q0 -90 14 -124q14 -32 56 -32zM215 400h140q0 72 -10 108q-11 46 -60 46q-38 0 -54 -29q-6 -8 -11 -34
q-5 -31 -5 -91z" />
    <glyph glyph-name="iota" unicode="&#x3b9;" horiz-adv-x="356" 
d="M203 -12q-81 0 -117.5 37.5t-36.5 119.5v332q0 10 10 10h148q10 0 10 -10v-296q0 -29 11 -41t36 -12q15 0 34 4q9 2 11 -8l21 -104q1 -9 -7 -12q-48 -20 -120 -20z" />
    <glyph glyph-name="kappa" unicode="&#x3ba;" horiz-adv-x="572" 
d="M557 0h-163q-8 0 -14 10l-97 148l-62 -73v-75q0 -10 -10 -10h-148q-10 0 -10 10v467q0 10 10 10h148q10 0 10 -10v-188l101 122q40 48 74 64q36 17 89 17h37q11 0 11 -10v-108q0 -10 -11 -10h-15q-21 0 -39.5 -13.5t-54.5 -52.5l-26 -29l175 -259q6 -10 -5 -10z" />
    <glyph glyph-name="lambda" unicode="&#x3bb;" horiz-adv-x="578" 
d="M188 0h-156q-12 0 -7 11l195 416l-26 63q-16 39 -26 51q-9 11 -32 11h-17q-10 0 -10 10v108q0 10 9 10h31q82 0 119 -25q39 -25 70 -101l136 -329q26 -64 36 -77q11 -14 34 -14h13q10 0 10 -10v-120q0 -10 -10 -10h-43q-74 0 -105 22t-54 74l-58 137h-2l-92 -217
q-4 -10 -15 -10z" />
    <glyph glyph-name="uni03BC" unicode="&#x3bc;" horiz-adv-x="604" 
d="M369 51h-1q-33 -55 -103 -55q-22 0 -43 8h-1v-174q0 -10 -10 -10h-148q-10 0 -10 10v647q0 10 10 10h148q10 0 10 -10v-286q0 -63 59 -63q29 0 46 19t17 52v278q0 10 10 10h148q10 0 10 -10v-298q0 -27 5 -36t20 -9h3q10 0 10 -10v-120q0 -10 -10 -10h-29q-48 0 -78 9
q-29 9 -38 18q-7 7 -25 30z" />
    <glyph glyph-name="nu" unicode="&#x3bd;" horiz-adv-x="534" 
d="M350 0h-149q-9 0 -12 10l-175 467q-3 10 8 10h158q11 0 14 -10l81 -265h3l20 57q36 102 47 209q1 9 13 9h150q9 0 9 -9q0 -60 -18 -121q-17 -57 -56 -153l-81 -194q-3 -10 -12 -10z" />
    <glyph glyph-name="xi" unicode="&#x3be;" horiz-adv-x="470" 
d="M269 -173l-42 76q-3 7 5 12q46 22 46 51q0 22 -31 32l-16 7q-111 40 -152 76q-41 38 -41 105q0 54 27.5 95t75.5 61v2q-73 28 -73 107q0 80 65 98v1h-73q-10 0 -10 10v110q0 10 10 10h379q10 0 10 -10v-118h-108q-93 0 -93 -62q0 -65 92 -65h55q10 0 10 -10v-122
q0 -10 -8 -10h-72q-97 0 -97 -69q0 -26 18 -41.5t71 -36.5l34 -13q52 -20 73 -47t21 -72q0 -117 -164 -182q-8 -2 -12 5z" />
    <glyph glyph-name="omicron" unicode="&#x3bf;" horiz-adv-x="536" 
d="M46 129q-15 49 -15 114t15 115q22 67 80.5 104t141.5 37t141.5 -37t80.5 -104q15 -49 15 -115q0 -65 -15 -114q-22 -67 -80.5 -104t-141.5 -37t-141.5 37t-80.5 104zM268 126q45 0 60 41q7 24 7 76q0 53 -7 77q-15 41 -60 41q-46 0 -60 -41q-7 -20 -7 -77q0 -56 7 -76
q14 -41 60 -41z" />
    <glyph glyph-name="pi" unicode="&#x3c0;" horiz-adv-x="638" 
d="M574 -6h-41q-86 0 -125 39.5t-39 128.5v175q0 6 -6 6h-98q-6 0 -6 -6v-327q0 -10 -10 -10h-148q-10 0 -10 10v327q0 6 -6 6h-45q-10 0 -10 10v124q0 10 10 10h548q10 0 10 -10v-124q0 -10 -10 -10h-45q-6 0 -6 -6v-162q0 -24 6 -32.5t24 -8.5h7q10 0 10 -10v-120
q0 -10 -10 -10z" />
    <glyph glyph-name="rho" unicode="&#x3c1;" horiz-adv-x="548" 
d="M201 -180h-149q-9 0 -9 10v424q0 60 16 105.5t39.5 71.5t56.5 42t62 21t60 5q125 0 188 -74q52 -61 52 -182q0 -124 -57 -190q-50 -65 -143 -65q-67 0 -105 42h-1v-200q0 -10 -10 -10zM280 126q45 0 60 41q7 21 7 76q0 56 -7 77q-15 41 -60 41q-46 0 -59 -39
q-8 -22 -8 -79q0 -56 8 -78q13 -39 59 -39z" />
    <glyph glyph-name="sigma1" unicode="&#x3c2;" horiz-adv-x="440" 
d="M232 -173l-42 76q-4 7 3 11q29 14 38.5 26t9.5 28t-14 29.5t-58 37.5q-75 43 -111.5 94.5t-36.5 124.5q0 112 66 178.5t182 66.5q96 0 152 -25q8 -3 9.5 -6.5t-1.5 -12.5l-30 -106q-5 -15 -19 -10q-51 13 -85 13q-42 0 -66 -23t-24 -64q0 -28 13 -50q14 -21 30 -34
t56 -36q62 -38 82 -65q22 -28 22 -74q0 -118 -162 -183q-9 -4 -14 4z" />
    <glyph glyph-name="sigma" unicode="&#x3c3;" horiz-adv-x="585" 
d="M266 -12q-132 0 -194 87q-42 60 -42 168q0 244 241 244h274q10 0 10 -10v-109q0 -10 -10 -10h-79v-1q38 -35 38 -119q0 -127 -62 -187q-63 -63 -176 -63zM268 126q45 0 59 41q7 21 7 85q0 82 -33 104h-10q-91 0 -91 -99q0 -65 8 -92q14 -39 60 -39z" />
    <glyph glyph-name="tau" unicode="&#x3c4;" horiz-adv-x="470" 
d="M138 146v191q0 6 -6 6h-102q-10 0 -10 10v124q0 10 10 10h400q10 0 10 -10v-124q0 -10 -10 -10h-118q-6 0 -6 -6v-155q0 -30 11.5 -42t37.5 -12q9 0 38 6q7 1 9 -5l22 -103q1 -7 -8 -12q-50 -26 -115 -26q-86 0 -124.5 38.5t-38.5 119.5z" />
    <glyph glyph-name="upsilon" unicode="&#x3c5;" horiz-adv-x="564" 
d="M293 -12q-120 0 -173 59t-53 191v84q0 23 -6 32.5t-21 9.5q-10 0 -10 10v108q0 10 10 10h41q78 0 114 -21q40 -23 40 -115v-158q0 -70 61 -70q27 0 42.5 18t15.5 52v279q0 10 10 10h148q10 0 10 -10v-239q0 -133 -53.5 -191.5t-175.5 -58.5z" />
    <glyph glyph-name="phi" unicode="&#x3c6;" horiz-adv-x="703" 
d="M428 600v-85q120 -4 183 -74.5t63 -195.5q0 -124 -63.5 -194.5t-182.5 -75.5v-145q0 -10 -10 -10h-133q-10 0 -10 10v145q-118 5 -182 74.5t-64 195.5q0 124 62.5 194.5t183.5 75.5v85q0 10 10 10h133q10 0 10 -10zM275 112v265q-49 -4 -64 -32t-15 -103q0 -68 15 -97
q15 -27 64 -33zM428 378v-265q51 6 65 35q14 31 14 100q0 70 -15 97q-15 29 -64 33z" />
    <glyph glyph-name="chi" unicode="&#x3c7;" horiz-adv-x="601" 
d="M181 -180h-160q-11 0 0 20l197 335l-92 155q-14 23 -23.5 28.5t-33.5 5.5h-7q-10 0 -10 10v108q0 10 9 10h56q66 0 101 -25q36 -24 73 -91l32 -57h1l83 159q5 9 13 9h162q5 0 6.5 -4.5t-1.5 -9.5l-179 -307l96 -158q33 -54 74 -54h8q11 0 11 -10v-120q0 -10 -10 -10h-28
q-72 0 -110 23q-37 22 -75 83l-67 108h-1l-112 -198q-4 -10 -13 -10z" />
    <glyph glyph-name="psi" unicode="&#x3c8;" horiz-adv-x="739" 
d="M449 -180h-134q-10 0 -10 10v150q-118 4 -176.5 64t-58.5 185v92q0 23 -6 33t-21 10q-10 0 -10 10v108q0 10 10 10h62q66 0 97 -26q30 -26 30 -104v-154q0 -51 15 -69t58 -20v481q0 10 10 10h134q10 0 10 -10v-481q42 2 57.5 20.5t15.5 68.5v269q0 10 10 10h142
q10 0 10 -10v-248q0 -124 -58.5 -184.5t-176.5 -64.5v-150q0 -10 -10 -10z" />
    <glyph glyph-name="omega" unicode="&#x3c9;" horiz-adv-x="734" 
d="M218 -12q-183 0 -183 228q0 177 67 277q4 7 14 4l130 -34q10 -3 5 -14q-46 -101 -46 -231q0 -81 47 -81q44 0 44 63v118q0 15 13 15h117q12 0 12 -15v-117q0 -64 46 -64q45 0 45 76q0 134 -46 236q-5 11 5 14l130 34q10 1 14 -4q31 -45 49 -119.5t18 -157.5
q0 -228 -184 -228q-48 0 -88 26.5t-59 70.5h-2q-19 -44 -59.5 -70.5t-88.5 -26.5z" />
    <glyph glyph-name="iotadieresis" unicode="&#x3ca;" horiz-adv-x="356" 
d="M296 550h-108q-10 0 -10 10v110q0 10 10 10h108q10 0 10 -10v-110q0 -10 -10 -10zM91 550h-108q-10 0 -10 10v110q0 10 10 10h108q10 0 10 -10v-110q0 -10 -10 -10zM203 -12q-81 0 -117.5 37.5t-36.5 119.5v332q0 10 10 10h148q10 0 10 -10v-296q0 -29 11 -41t36 -12
q15 0 34 4q9 2 11 -8l21 -104q1 -9 -7 -12q-48 -20 -120 -20z" />
    <glyph glyph-name="upsilondieresis" unicode="&#x3cb;" horiz-adv-x="564" 
d="M293 -12q-120 0 -173 59t-53 191v84q0 23 -6 32.5t-21 9.5q-10 0 -10 10v108q0 10 10 10h41q78 0 114 -21q40 -23 40 -115v-158q0 -70 61 -70q27 0 42.5 18t15.5 52v279q0 10 10 10h148q10 0 10 -10v-239q0 -133 -53.5 -191.5t-175.5 -58.5zM447 550h-108q-10 0 -10 10
v110q0 10 10 10h108q10 0 10 -10v-110q0 -10 -10 -10zM242 550h-108q-10 0 -10 10v110q0 10 10 10h108q10 0 10 -10v-110q0 -10 -10 -10z" />
    <glyph glyph-name="omicrontonos" unicode="&#x3cc;" horiz-adv-x="536" 
d="M46 129q-15 49 -15 114t15 115q22 67 80.5 104t141.5 37t141.5 -37t80.5 -104q15 -49 15 -115q0 -65 -15 -114q-22 -67 -80.5 -104t-141.5 -37t-141.5 37t-80.5 104zM268 126q45 0 60 41q7 24 7 76q0 53 -7 77q-15 41 -60 41q-46 0 -60 -41q-7 -20 -7 -77q0 -56 7 -76
q14 -41 60 -41zM316 546h-101q-10 0 -7 10l40 153q3 10 15 10h149q10 0 4 -10l-86 -153q-4 -10 -14 -10z" />
    <glyph glyph-name="upsilontonos" unicode="&#x3cd;" horiz-adv-x="564" 
d="M293 -12q-120 0 -173 59t-53 191v84q0 23 -6 32.5t-21 9.5q-10 0 -10 10v108q0 10 10 10h41q78 0 114 -21q40 -23 40 -115v-158q0 -70 61 -70q27 0 42.5 18t15.5 52v279q0 10 10 10h148q10 0 10 -10v-239q0 -133 -53.5 -191.5t-175.5 -58.5zM325 546h-101q-10 0 -7 10
l40 153q3 10 15 10h149q10 0 4 -10l-86 -153q-4 -10 -14 -10z" />
    <glyph glyph-name="omegatonos" unicode="&#x3ce;" horiz-adv-x="734" 
d="M218 -12q-183 0 -183 228q0 177 67 277q4 7 14 4l130 -34q10 -3 5 -14q-46 -101 -46 -231q0 -81 47 -81q44 0 44 63v118q0 15 13 15h117q12 0 12 -15v-117q0 -64 46 -64q45 0 45 76q0 134 -46 236q-5 11 5 14l130 34q10 1 14 -4q31 -45 49 -119.5t18 -157.5
q0 -228 -184 -228q-48 0 -88 26.5t-59 70.5h-2q-19 -44 -59.5 -70.5t-88.5 -26.5zM413 546h-101q-10 0 -7 10l40 153q3 10 15 10h149q10 0 4 -10l-86 -153q-4 -10 -14 -10z" />
    <glyph glyph-name="uni0400" unicode="&#x400;" horiz-adv-x="557" 
d="M510 0h-445q-10 0 -10 10v660q0 10 10 10h445q10 0 10 -10v-129q0 -10 -10 -10h-273q-6 0 -6 -6v-103q0 -6 6 -6h224q10 0 10 -10v-126q0 -10 -10 -10h-224q-6 0 -6 -6v-109q0 -6 6 -6h273q10 0 10 -10v-129q0 -10 -10 -10zM367 747h-115q-11 0 -20 9l-128 123
q-3 4 -1.5 7t6.5 3h142q11 0 18 -10l102 -122q8 -10 -4 -10z" />
    <glyph glyph-name="uni0401" unicode="&#x401;" horiz-adv-x="557" 
d="M510 0h-445q-10 0 -10 10v660q0 10 10 10h445q10 0 10 -10v-129q0 -10 -10 -10h-273q-6 0 -6 -6v-103q0 -6 6 -6h224q10 0 10 -10v-126q0 -10 -10 -10h-224q-6 0 -6 -6v-109q0 -6 6 -6h273q10 0 10 -10v-129q0 -10 -10 -10zM443 750h-107q-10 0 -10 10v110q0 10 10 10
h107q10 0 10 -10v-110q0 -10 -10 -10zM237 750h-107q-10 0 -10 10v110q0 10 10 10h107q10 0 10 -10v-110q0 -10 -10 -10z" />
    <glyph glyph-name="uni0402" unicode="&#x402;" horiz-adv-x="755" 
d="M361 0h-156q-10 0 -10 10v508q0 6 -5 6h-168q-10 0 -10 10v136q0 10 10 10h522q10 0 10 -10v-136q0 -10 -10 -10h-167q-6 0 -6 -5v-102q0 -8 10 -7q80 17 151 17q34 0 66.5 -10t63 -32t49 -63t18.5 -96q0 -108 -62.5 -167t-189.5 -59h-32q-10 0 -10 10v130q0 9 10 9h22
q85 0 85 65q0 26 -22 40t-56 14q-48 0 -95 -16q-8 -3 -8 -12v-230q0 -10 -10 -10z" />
    <glyph glyph-name="uni0403" unicode="&#x403;" horiz-adv-x="512" 
d="M221 0h-156q-10 0 -10 10v660q0 10 10 10h430q10 0 10 -10v-136q0 -10 -10 -10h-258q-6 0 -6 -6v-508q0 -10 -10 -10zM310 747h-115q-12 0 -4 10l102 122q7 10 18 10h142q5 0 6.5 -3t-1.5 -7l-128 -123q-9 -9 -20 -9z" />
    <glyph glyph-name="uni0404" unicode="&#x404;" horiz-adv-x="581" 
d="M316 -12q-95 0 -163 43.5t-94 124.5q-20 63 -20 184t20 184q26 81 94 124.5t163 43.5q183 0 241 -150q4 -9 -5 -14l-128 -55q-10 -4 -14 6q-30 64 -91 64q-33 0 -58 -17t-34 -45q-6 -21 -9 -58q0 -7 7 -7h156q10 0 10 -10v-124q0 -9 -10 -9h-155q-8 0 -8 -8q2 -41 9 -66
q9 -28 34 -45t58 -17q60 0 92 65q4 10 14 6l127 -56q9 -5 5 -14q-58 -150 -241 -150z" />
    <glyph glyph-name="uni0405" unicode="&#x405;" horiz-adv-x="605" 
d="M308 -12q-82 0 -157 28q-77 28 -117 69q-9 8 -1 16l90 106q7 7 14 1q77 -68 173 -68q45 0 70.5 17t25.5 47q0 24 -19.5 37.5t-66.5 19.5l-36 5q-227 32 -227 214q0 96 69 154q68 58 184 58q144 0 243 -75q8 -6 2 -15l-75 -109q-6 -8 -14 -3q-76 51 -153 51
q-36 0 -55.5 -15t-19.5 -42q0 -46 87 -57l36 -5q114 -16 169.5 -68.5t55.5 -147.5q0 -98 -73 -158q-72 -60 -205 -60z" />
    <glyph glyph-name="uni0406" unicode="&#x406;" horiz-adv-x="286" 
d="M221 0h-156q-10 0 -10 10v660q0 10 10 10h156q10 0 10 -10v-660q0 -10 -10 -10z" />
    <glyph glyph-name="uni0407" unicode="&#x407;" horiz-adv-x="286" 
d="M300 750h-107q-10 0 -10 10v110q0 10 10 10h107q10 0 10 -10v-110q0 -10 -10 -10zM94 750h-107q-10 0 -10 10v110q0 10 10 10h107q10 0 10 -10v-110q0 -10 -10 -10zM221 0h-156q-10 0 -10 10v660q0 10 10 10h156q10 0 10 -10v-660q0 -10 -10 -10z" />
    <glyph glyph-name="uni0408" unicode="&#x408;" horiz-adv-x="534" 
d="M226 -12q-65 0 -120.5 25.5t-82.5 67.5q-5 8 1 14l111 88q8 6 14 -2q31 -36 75 -36q86 0 86 100v425q0 10 10 10h156q10 0 10 -10v-411q0 -134 -66.5 -202.5t-193.5 -68.5z" />
    <glyph glyph-name="uni0409" unicode="&#x409;" horiz-adv-x="1007" 
d="M68 -5h-51q-10 0 -10 10v137q0 9 10 9h15q44 0 71 40q28 40 28 151v329q0 9 9 9h474q9 0 9 -9v-215q0 -6 6 -6h100q119 0 185.5 -60.5t66.5 -163.5q0 -104 -66.5 -165t-185.5 -61h-273q-9 0 -9 10v508q0 6 -6 6h-132q-6 0 -6 -6v-180q0 -188 -57 -266q-57 -77 -178 -77z
M629 149h90q41 0 63.5 20.5t22.5 56.5t-22.5 57t-63.5 21h-90q-6 0 -6 -6v-143q0 -6 6 -6z" />
    <glyph glyph-name="uni040A" unicode="&#x40a;" horiz-adv-x="980" 
d="M221 0h-156q-10 0 -10 10v660q0 10 10 10h156q10 0 10 -10v-230q0 -6 6 -6h185q6 0 6 6v230q0 10 10 10h156q10 0 10 -10v-230q0 -6 6 -6h117q105 0 166 -60q61 -58 61 -155t-61 -158t-166 -61h-289q-10 0 -10 10v262q0 6 -6 6h-185q-6 0 -6 -6v-262q0 -10 -10 -10z
M610 149h100q30 0 49 20t19 50t-19 50t-49 20h-100q-6 0 -6 -6v-128q0 -6 6 -6z" />
    <glyph glyph-name="uni040B" unicode="&#x40b;" horiz-adv-x="758" 
d="M361 0h-156q-10 0 -10 10v508q0 6 -5 6h-168q-10 0 -10 10v136q0 10 10 10h522q10 0 10 -10v-136q0 -10 -10 -10h-167q-6 0 -6 -6v-101q0 -8 10 -7q80 17 151 17q179 0 179 -181v-237q0 -9 -9 -9h-157q-10 0 -10 9v199q0 28 -16 44t-45 16q-48 0 -86 -7q-17 -3 -17 -15
v-236q0 -10 -10 -10z" />
    <glyph glyph-name="uni040C" unicode="&#x40c;" horiz-adv-x="650" 
d="M221 0h-156q-10 0 -10 10v660q0 10 10 10h156q10 0 10 -10v-241q0 -6 6 -6h29q52 0 73 50l39 97q26 66 65.5 90.5t110.5 24.5h43q10 0 10 -10v-132q0 -9 -10 -9h-6q-50 0 -66 -40l-30 -78q-18 -46 -49 -59v-4q44 -14 60 -64l34 -99q14 -39 60 -39h7q10 0 10 -9v-137
q0 -10 -10 -10h-47q-73 0 -113.5 26t-63.5 90l-34 96q-14 36 -33.5 48t-57.5 12h-21q-6 0 -6 -6v-251q0 -10 -10 -10zM360 747h-115q-12 0 -4 10l102 122q7 10 18 10h142q5 0 6.5 -3t-1.5 -7l-128 -123q-9 -9 -20 -9z" />
    <glyph glyph-name="uni040D" unicode="&#x40d;" horiz-adv-x="667" 
d="M205 0h-141q-9 0 -9 10v661q0 9 9 9h158q9 0 9 -9v-369h3l212 369q4 9 16 9h141q9 0 9 -9v-661q0 -10 -9 -10h-158q-9 0 -9 10v370h-3l-211 -370q-6 -10 -17 -10zM417 747h-115q-11 0 -20 9l-128 123q-3 4 -1.5 7t6.5 3h142q11 0 18 -10l102 -122q8 -10 -4 -10z" />
    <glyph glyph-name="uni040E" unicode="&#x40e;" horiz-adv-x="621" 
d="M177 -5h-60q-10 0 -10 10v137q0 9 10 9h42q55 0 70 34l9 19l-224 464q-6 12 6 12h167q11 0 16 -9l121 -274h3l111 274q4 9 16 9h160q11 0 6 -11l-248 -550q-24 -51 -58 -84q-41 -40 -137 -40zM163 852q-3 12 5 14l80 10q9 1 12 -7q13 -40 62 -40t62 40q3 8 12 7l80 -10
q8 -2 5 -14q-22 -127 -159 -127t-159 127z" />
    <glyph glyph-name="uni040F" unicode="&#x40f;" horiz-adv-x="651" 
d="M398 -123h-145q-8 0 -8 10v107q0 6 -6 6h-175q-9 0 -9 9v661q0 10 9 10h158q9 0 9 -10v-508q0 -6 6 -6h177q6 0 6 6v508q0 10 8 10h159q9 0 9 -10v-661q0 -9 -10 -9h-174q-6 0 -6 -6v-107q0 -10 -8 -10z" />
    <glyph glyph-name="uni0410" unicode="&#x410;" horiz-adv-x="674" 
d="M184 0h-164q-10 0 -7 10l235 660q3 10 13 10h163q10 0 13 -10l230 -660q3 -10 -7 -10h-165q-10 0 -13 10l-32 105h-221l-32 -105q-3 -10 -13 -10zM340 473l-66 -212h132l-63 212h-3z" />
    <glyph glyph-name="uni0411" unicode="&#x411;" horiz-adv-x="614" 
d="M354 0h-290q-9 0 -9 10v661q0 9 9 9h464q9 0 9 -9v-130q0 -10 -9 -10h-291q-6 0 -6 -6v-85q0 -6 6 -6h117q104 0 166 -60q61 -58 61 -155t-61 -158t-166 -61zM237 149h100q30 0 49 20t19 50t-19 50t-49 20h-100q-6 0 -6 -6v-128q0 -6 6 -6z" />
    <glyph glyph-name="uni0412" unicode="&#x412;" horiz-adv-x="614" 
d="M339 0h-274q-10 0 -10 10v660q0 10 10 10h277q109 0 165.5 -47.5t56.5 -133.5q0 -101 -83 -145v-4q41 -16 68 -57.5t27 -96.5q0 -96 -62.5 -146t-174.5 -50zM237 133h80q83 0 83 77q0 76 -83 76h-80q-6 0 -6 -6v-141q0 -6 6 -6zM237 407h71q81 0 81 70t-81 70h-71
q-6 0 -6 -6v-128q0 -6 6 -6z" />
    <glyph glyph-name="uni0413" unicode="&#x413;" horiz-adv-x="512" 
d="M221 0h-156q-10 0 -10 10v660q0 10 10 10h430q10 0 10 -10v-136q0 -10 -10 -10h-258q-6 0 -6 -6v-508q0 -10 -10 -10z" />
    <glyph glyph-name="uni0414" unicode="&#x414;" horiz-adv-x="695" 
d="M152 -123h-144q-8 0 -8 10v260q0 9 9 9h36q13 0 18 9q35 78 52 165q17 90 17 226v115q0 9 10 9h470q9 0 9 -10v-508q0 -6 6 -6h53q10 0 10 -9v-260q0 -10 -9 -10h-144q-8 0 -8 10v107q0 6 -6 6h-356q-6 0 -6 -6v-107q0 -10 -9 -10zM248 156h191q6 0 6 6v356q0 6 -6 6
h-129q-6 0 -6 -6v-11q0 -95 -18 -191q-16 -94 -44 -152q-5 -8 6 -8z" />
    <glyph glyph-name="uni0415" unicode="&#x415;" horiz-adv-x="557" 
d="M510 0h-445q-10 0 -10 10v660q0 10 10 10h445q10 0 10 -10v-129q0 -10 -10 -10h-273q-6 0 -6 -6v-103q0 -6 6 -6h224q10 0 10 -10v-126q0 -10 -10 -10h-224q-6 0 -6 -6v-109q0 -6 6 -6h273q10 0 10 -10v-129q0 -10 -10 -10z" />
    <glyph glyph-name="uni0416" unicode="&#x416;" horiz-adv-x="984" 
d="M92 -5h-49q-10 0 -10 10v137q0 9 10 9h4q49 0 63 39l34 99q16 50 60 64v4q-31 13 -49 59l-30 78q-9 23 -23 31.5t-42 8.5h-7q-10 0 -10 9v132q0 10 10 10h43q69 0 110 -26.5t66 -88.5l39 -97q22 -52 73 -52h14q6 0 6 6v243q0 10 10 10h156q10 0 10 -10v-243q0 -6 6 -6h14
q51 0 73 52l39 97q25 62 66 88.5t110 26.5h43q10 0 10 -10v-132q0 -9 -10 -9h-7q-28 0 -42 -8.5t-23 -31.5l-30 -78q-18 -46 -49 -59v-4q44 -14 60 -64l34 -99q14 -39 63 -39h4q10 0 10 -9v-137q0 -10 -10 -10h-49q-70 0 -111.5 27t-63.5 89l-34 96q-14 37 -34.5 50
t-56.5 13h-6q-6 0 -6 -6v-254q0 -10 -10 -10h-156q-10 0 -10 10v254q0 6 -6 6h-6q-36 0 -56.5 -13t-34.5 -50l-34 -96q-22 -62 -63.5 -89t-111.5 -27z" />
    <glyph glyph-name="uni0417" unicode="&#x417;" horiz-adv-x="575" 
d="M294 -12q-183 0 -267 81q-7 6 0 15l74 107q6 6 12 1q78 -54 163 -54q35 0 61.5 18.5t26.5 46.5q0 32 -23.5 52t-60.5 20h-72q-9 0 -9 10v122q0 10 9 10h72q35 0 54.5 18t19.5 49q0 28 -22 43.5t-61 15.5q-79 0 -146 -46q-10 -7 -14 0l-71 106q-8 8 1 13q106 76 259 76
q104 0 169 -54q65 -53 65 -142q0 -45 -23 -83t-62 -58v-4q43 -18 69 -59t26 -91q0 -96 -72 -154q-71 -59 -178 -59z" />
    <glyph glyph-name="uni0418" unicode="&#x418;" horiz-adv-x="667" 
d="M205 0h-141q-9 0 -9 10v661q0 9 9 9h158q9 0 9 -9v-369h3l212 369q4 9 16 9h141q9 0 9 -9v-661q0 -10 -9 -10h-158q-9 0 -9 10v370h-3l-211 -370q-6 -10 -17 -10z" />
    <glyph glyph-name="uni0419" unicode="&#x419;" horiz-adv-x="667" 
d="M205 0h-141q-9 0 -9 10v661q0 9 9 9h158q9 0 9 -9v-369h3l212 369q4 9 16 9h141q9 0 9 -9v-661q0 -10 -9 -10h-158q-9 0 -9 10v370h-3l-211 -370q-6 -10 -17 -10zM174 852q-3 12 5 14l80 10q9 1 12 -7q13 -40 62 -40t62 40q3 8 12 7l80 -10q8 -2 5 -14
q-22 -127 -159 -127t-159 127z" />
    <glyph glyph-name="uni041A" unicode="&#x41a;" horiz-adv-x="650" 
d="M221 0h-156q-10 0 -10 10v660q0 10 10 10h156q10 0 10 -10v-241q0 -6 6 -6h29q52 0 73 50l39 97q26 66 65.5 90.5t110.5 24.5h43q10 0 10 -10v-132q0 -9 -10 -9h-6q-50 0 -66 -40l-30 -78q-18 -46 -49 -59v-4q44 -14 60 -64l34 -99q14 -39 60 -39h7q10 0 10 -9v-137
q0 -10 -10 -10h-47q-73 0 -113.5 26t-63.5 90l-34 96q-14 36 -33.5 48t-57.5 12h-21q-6 0 -6 -6v-251q0 -10 -10 -10z" />
    <glyph glyph-name="uni041B" unicode="&#x41b;" horiz-adv-x="678" 
d="M68 -5h-51q-10 0 -10 10v137q0 9 10 9h15q44 0 71 40q28 40 28 151v329q0 9 9 9h474q9 0 9 -9v-661q0 -10 -8 -10h-159q-9 0 -9 10v508q0 6 -6 6h-132q-6 0 -6 -6v-180q0 -188 -57 -266q-57 -77 -178 -77z" />
    <glyph glyph-name="uni041C" unicode="&#x41c;" horiz-adv-x="772" 
d="M204 0h-139q-10 0 -10 10v660q0 10 10 10h148q13 0 17 -10l157 -355h4l153 355q4 10 17 10h146q10 0 10 -10v-660q0 -10 -10 -10h-139q-10 0 -10 10v350h-5l-109 -254q-6 -13 -19 -13h-78q-13 0 -19 13l-109 254h-5v-350q0 -10 -10 -10z" />
    <glyph glyph-name="uni041D" unicode="&#x41d;" horiz-adv-x="659" 
d="M221 0h-156q-10 0 -10 10v660q0 10 10 10h156q10 0 10 -10v-241q0 -6 6 -6h185q6 0 6 6v241q0 10 10 10h156q10 0 10 -10v-660q0 -10 -10 -10h-156q-10 0 -10 10v251q0 6 -6 6h-185q-6 0 -6 -6v-251q0 -10 -10 -10z" />
    <glyph glyph-name="uni041E" unicode="&#x41e;" horiz-adv-x="628" 
d="M59 155q-20 66 -20 185t20 185q26 80 93.5 123.5t161.5 43.5t161.5 -43.5t93.5 -123.5q20 -63 20 -185t-20 -185q-26 -80 -93.5 -123.5t-161.5 -43.5t-161.5 43.5t-93.5 123.5zM401 205q10 27 10 135t-10 135q-19 60 -87 60t-87 -60q-10 -27 -10 -135t10 -135
q19 -60 87 -60t87 60z" />
    <glyph glyph-name="uni041F" unicode="&#x41f;" horiz-adv-x="651" 
d="M222 0h-158q-9 0 -9 10v661q0 9 9 9h522q10 0 10 -9v-661q0 -10 -9 -10h-159q-8 0 -8 10v508q0 6 -6 6h-177q-6 0 -6 -6v-508q0 -10 -9 -10z" />
    <glyph glyph-name="uni0420" unicode="&#x420;" horiz-adv-x="612" 
d="M221 0h-156q-10 0 -10 10v660q0 10 10 10h272q119 0 185.5 -61t66.5 -165q0 -101 -66 -164t-186 -63h-100q-6 0 -6 -6v-211q0 -10 -10 -10zM237 376h90q41 0 63.5 21t22.5 57t-22.5 56.5t-63.5 20.5h-90q-6 0 -6 -6v-143q0 -6 6 -6z" />
    <glyph glyph-name="uni0421" unicode="&#x421;" horiz-adv-x="574" 
d="M306 -12q-94 0 -157 42.5t-90 125.5q-20 63 -20 184t20 184q27 83 90 125.5t157 42.5q89 0 152 -40t92 -115q4 -9 -5 -14l-133 -58q-10 -4 -14 6q-30 64 -89 64q-62 0 -82 -59q-10 -29 -10 -136t10 -136q20 -59 82 -59q59 0 89 64q4 10 14 6l133 -58q9 -5 5 -14
q-29 -75 -92 -115t-152 -40z" />
    <glyph glyph-name="uni0422" unicode="&#x422;" horiz-adv-x="566" 
d="M361 0h-156q-10 0 -10 10v508q0 6 -5 6h-168q-10 0 -10 10v136q0 10 10 10h522q10 0 10 -10v-136q0 -10 -10 -10h-167q-6 0 -6 -6v-508q0 -10 -10 -10z" />
    <glyph glyph-name="uni0423" unicode="&#x423;" horiz-adv-x="621" 
d="M177 -5h-60q-10 0 -10 10v137q0 9 10 9h42q55 0 70 34l9 19l-224 464q-6 12 6 12h167q11 0 16 -9l121 -274h3l111 274q4 9 16 9h160q11 0 6 -11l-248 -550q-24 -51 -58 -84q-41 -40 -137 -40z" />
    <glyph glyph-name="uni0424" unicode="&#x424;" horiz-adv-x="820" 
d="M489 -12h-158q-9 0 -9 10v72q0 6 -6 6q-151 10 -221 78.5t-70 201.5q0 247 291 262q6 0 6 6v58q0 10 9 10h158q9 0 9 -10v-58q0 -6 6 -6q291 -15 291 -262q0 -133 -70 -201.5t-221 -78.5q-6 0 -6 -6v-72q0 -10 -9 -10zM315 224q7 0 7 6v234q0 5 -7 5q-61 -3 -87.5 -30
t-26.5 -91q0 -61 26.5 -89.5t87.5 -34.5zM505 224q61 6 87.5 34.5t26.5 89.5q0 64 -26.5 91t-87.5 30q-7 0 -7 -5v-234q0 -6 7 -6z" />
    <glyph glyph-name="uni0425" unicode="&#x425;" horiz-adv-x="616" 
d="M188 0h-168q-12 0 -6 11l204 340l-191 318q-5 11 6 11h168q11 0 17 -10l94 -161h2l94 161q6 10 17 10h168q14 0 6 -11l-190 -318l203 -340q8 -11 -6 -11h-168q-11 0 -17 10l-107 183h-2l-107 -183q-6 -10 -17 -10z" />
    <glyph glyph-name="uni0426" unicode="&#x426;" horiz-adv-x="670" 
d="M656 -123h-144q-8 0 -8 10v107q0 6 -6 6h-434q-9 0 -9 9v661q0 10 9 10h158q9 0 9 -10v-508q0 -6 6 -6h177q6 0 6 6v508q0 10 8 10h159q9 0 9 -10v-508q0 -6 6 -6h53q10 0 10 -9v-260q0 -10 -9 -10z" />
    <glyph glyph-name="uni0427" unicode="&#x427;" horiz-adv-x="611" 
d="M547 0h-158q-9 0 -9 10v223q0 8 -10 7q-80 -17 -151 -17q-179 0 -179 181v267q0 9 9 9h157q10 0 10 -9v-229q0 -28 16 -44t45 -16q48 0 86 7q17 3 17 15v267q0 9 9 9h157q10 0 10 -9v-661q0 -10 -9 -10z" />
    <glyph glyph-name="uni0428" unicode="&#x428;" horiz-adv-x="956" 
d="M891 0h-827q-9 0 -9 9v661q0 10 9 10h158q9 0 9 -10v-508q0 -6 6 -6h147q6 0 6 6v508q0 10 8 10h159q9 0 9 -10v-508q0 -6 6 -6h147q6 0 6 6v508q0 10 8 10h159q9 0 9 -10v-661q0 -9 -10 -9z" />
    <glyph glyph-name="uni0429" unicode="&#x429;" horiz-adv-x="975" 
d="M961 -123h-144q-8 0 -8 10v107q0 6 -6 6h-739q-9 0 -9 9v661q0 10 9 10h158q9 0 9 -10v-508q0 -6 6 -6h147q6 0 6 6v508q0 10 8 10h159q9 0 9 -10v-508q0 -6 6 -6h147q6 0 6 6v508q0 10 8 10h159q9 0 9 -10v-508q0 -6 6 -6h53q10 0 10 -9v-260q0 -10 -9 -10z" />
    <glyph glyph-name="uni042A" unicode="&#x42a;" horiz-adv-x="705" 
d="M427 0h-272q-10 0 -10 10v508q0 6 -5 6h-118q-10 0 -10 10v136q0 10 10 10h289q10 0 10 -10v-214q0 -6 6 -6h100q119 0 185.5 -60.5t66.5 -163.5q0 -104 -66.5 -165t-185.5 -61zM327 149h90q41 0 63.5 20.5t22.5 56.5t-22.5 57t-63.5 21h-90q-6 0 -6 -6v-143q0 -6 6 -6z
" />
    <glyph glyph-name="uni042B" unicode="&#x42b;" horiz-adv-x="886" 
d="M337 0h-272q-10 0 -10 10v660q0 10 10 10h156q10 0 10 -10v-214q0 -6 6 -6h100q119 0 185.5 -60.5t66.5 -163.5q0 -104 -66.5 -165t-185.5 -61zM237 149h90q41 0 63.5 20.5t22.5 56.5t-22.5 57t-63.5 21h-90q-6 0 -6 -6v-143q0 -6 6 -6zM821 0h-156q-10 0 -10 10v660
q0 10 10 10h156q10 0 10 -10v-660q0 -10 -10 -10z" />
    <glyph glyph-name="uni042C" unicode="&#x42c;" horiz-adv-x="615" 
d="M337 0h-272q-10 0 -10 10v660q0 10 10 10h156q10 0 10 -10v-214q0 -6 6 -6h100q119 0 185.5 -60.5t66.5 -163.5q0 -104 -66.5 -165t-185.5 -61zM237 149h90q41 0 63.5 20.5t22.5 56.5t-22.5 57t-63.5 21h-90q-6 0 -6 -6v-143q0 -6 6 -6z" />
    <glyph glyph-name="uni042D" unicode="&#x42d;" horiz-adv-x="581" 
d="M269 -12q-183 0 -241 150q-4 9 5 14l127 56q10 4 14 -6q32 -65 92 -65q32 0 57.5 17t34.5 45q8 25 9 66q0 8 -8 8h-155q-10 0 -10 9v124q0 10 10 10h156q7 0 7 7q-3 37 -9 58q-9 28 -34.5 45t-57.5 17q-61 0 -91 -64q-4 -10 -14 -6l-128 55q-9 5 -5 14q58 150 241 150
q95 0 163 -43.5t94 -124.5q20 -63 20 -184t-20 -184q-26 -81 -94 -124.5t-163 -43.5z" />
    <glyph glyph-name="uni042E" unicode="&#x42e;" horiz-adv-x="885" 
d="M581 -12q-92 0 -157 43.5t-89 123.5q-14 48 -17 106q0 6 -6 6h-75q-6 0 -6 -6v-251q0 -10 -10 -10h-156q-10 0 -10 10v660q0 10 10 10h156q10 0 10 -10v-241q0 -6 6 -6h75q6 0 6 6q6 57 17 96q26 80 91 123.5t155 43.5t155 -43.5t91 -123.5q19 -60 19 -185t-19 -185
q-26 -80 -91 -123.5t-155 -43.5zM659 205q9 30 9 135t-9 135q-17 60 -78 60t-78 -60q-9 -30 -9 -135t9 -135q17 -60 78 -60t78 60z" />
    <glyph glyph-name="uni042F" unicode="&#x42f;" horiz-adv-x="620" 
d="M98 -5h-64q-10 0 -10 10v137q0 9 10 9h14q41 0 53 29l20 51q15 40 46 58v4q-133 39 -133 177q0 89 61 149q61 61 171 61h290q9 0 9 -9v-661q0 -10 -9 -10h-157q-10 0 -10 10v227q0 6 -6 6h-26q-27 1 -42 -8t-30 -44l-31 -80q-23 -62 -61 -89t-95 -27zM289 387h94q6 0 6 6
v132q0 6 -6 6h-94q-37 0 -58.5 -19.5t-21.5 -52.5t21.5 -52.5t58.5 -19.5z" />
    <glyph glyph-name="uni0430" unicode="&#x430;" horiz-adv-x="532" 
d="M192 -12q-71 0 -114.5 39t-43.5 111q0 78 55 119t152 41h77q6 0 6 6v13q0 28 -20 39.5t-74 11.5q-65 0 -105 -28q-9 -4 -13 3l-52 92q-4 9 3 16q71 48 189 48q124 0 177 -42.5t53 -139.5v-307q0 -10 -10 -10h-138q-10 0 -10 10v28h-1q-44 -50 -131 -50zM248 108
q76 0 76 52v30q0 6 -6 6h-59q-68 0 -68 -46q0 -42 57 -42z" />
    <glyph glyph-name="uni0431" unicode="&#x431;" horiz-adv-x="541" 
d="M279 -12q-114 0 -176 62q-43 43 -54 116q-5 40 -6 72q-1 21 -1 90q0 107 15.5 167.5t60.5 100.5q37 31 88 41l30 6l32 5q27 4 28 4q18 3 24.5 5t14 8.5t9.5 17.5q0 9 10 9h131q9 0 9 -9q0 -82 -34 -121t-114 -46q-9 -2 -39 -3q-13 -1 -43 -4q-40 -2 -67 -26
q-24 -21 -24 -60h3q13 25 47.5 41t81.5 16q111 0 157.5 -58.5t46.5 -179.5q0 -254 -230 -254zM277 126q36 0 50.5 24t14.5 93q0 63 -15 85.5t-50 22.5q-36 0 -51 -22.5t-15 -85.5q0 -70 14.5 -93.5t51.5 -23.5z" />
    <glyph glyph-name="uni0432" unicode="&#x432;" horiz-adv-x="538" 
d="M331 0h-269q-9 0 -9 9v469q0 9 9 9h272q77 0 118 -34.5t41 -95.5q0 -71 -60 -103v-4q30 -10 49 -40t19 -70q0 -68 -44.5 -104t-125.5 -36zM226 107h64q21 0 33 11.5t12 31.5q0 42 -45 42h-64q-6 0 -6 -6v-73q0 -6 6 -6zM226 300h58q43 0 43 40q0 39 -43 39h-58
q-6 0 -6 -6v-67q0 -6 6 -6z" />
    <glyph glyph-name="uni0433" unicode="&#x433;" horiz-adv-x="420" 
d="M212 0h-150q-9 0 -9 9v469q0 9 9 9h341q10 0 10 -9v-120q0 -9 -10 -9h-176q-6 0 -6 -6v-334q0 -9 -9 -9z" />
    <glyph glyph-name="uni0434" unicode="&#x434;" horiz-adv-x="578" 
d="M144 -93h-134q-8 0 -8 9v213q0 9 9 9h26q11 0 15 13q12 39 22 79q18 74 18 217v31q0 9 9 9h405q9 0 9 -9v-334q0 -6 6 -6h40q9 0 9 -9v-213q0 -9 -8 -9h-134q-8 0 -8 9v78q0 6 -6 6h-256q-6 0 -6 -6v-78q0 -9 -8 -9zM219 138h122q6 0 6 6v203q0 6 -6 6h-87q-6 0 -6 -6v-5
q0 -108 -33 -197q-3 -7 4 -7z" />
    <glyph glyph-name="uni0435" unicode="&#x435;" horiz-adv-x="533" 
d="M275 -12q-87 0 -146 37.5t-81 105.5q-16 45 -16 112t15 113q23 68 79.5 105.5t138.5 37.5q86 0 142.5 -36.5t77.5 -104.5q16 -47 16 -152q0 -10 -11 -10h-289q-6 0 -6 -6q1 -7 4 -20q17 -53 94 -53q61 0 109 39q8 8 15 0l71 -73q9 -8 -1 -15q-83 -80 -212 -80zM201 298
h132q6 0 6 6q0 21 -4 30q-14 44 -68 44t-68 -44q-4 -15 -4 -30q0 -6 6 -6z" />
    <glyph glyph-name="uni0436" unicode="&#x436;" horiz-adv-x="778" 
d="M94 -5h-57q-9 0 -9 9v120q0 9 9 9h5q23 0 35 34l16 43q9 21 16.5 30t21.5 13v4q-19 11 -29 39l-13 35q-10 28 -37 28h-7q-9 0 -9 9v115q0 9 9 9h48q58 0 84 -17q25 -16 41 -59l24 -63q15 -40 52 -40h5q6 0 6 6v159q0 9 9 9h150q9 0 9 -9v-159q0 -6 6 -6h5q37 0 52 40
l24 63q16 43 41 59q26 17 84 17h48q9 0 9 -9v-115q0 -9 -9 -9h-7q-27 0 -37 -28l-13 -35q-10 -28 -29 -39v-4q25 -6 38 -43l16 -43q12 -34 35 -34h5q9 0 9 -9v-120q0 -9 -9 -9h-57q-55 0 -82.5 18.5t-42.5 61.5l-24 67q-13 39 -50 39h-6q-6 0 -6 -6v-166q0 -9 -9 -9h-150
q-9 0 -9 9v166q0 6 -6 6h-6q-37 0 -50 -39l-24 -67q-15 -43 -42.5 -61.5t-82.5 -18.5z" />
    <glyph glyph-name="uni0437" unicode="&#x437;" horiz-adv-x="485" 
d="M241 -12q-76 0 -127.5 14t-96.5 49q-6 4 -1 12l68 92q4 4 13 0q61 -38 118 -38q67 0 67 39q0 20 -13 27.5t-43 7.5h-63q-9 0 -9 9v94q0 10 9 10h60q52 0 52 37q0 35 -69 35q-39 0 -100 -34q-10 -4 -13 1l-56 85q-5 8 4 14q77 57 197 57q208 0 208 -136q0 -33 -17.5 -61.5
t-45.5 -40.5v-4q31 -13 50.5 -43.5t19.5 -68.5q0 -71 -58 -114t-154 -43z" />
    <glyph glyph-name="uni0438" unicode="&#x438;" horiz-adv-x="569" 
d="M210 0h-148q-9 0 -9 9v469q0 9 9 9h144q9 0 9 -9v-226h3l125 227q5 8 14 8h150q9 0 9 -9v-469q0 -9 -9 -9h-144q-9 0 -9 9v236h-3l-127 -236q-4 -9 -14 -9z" />
    <glyph glyph-name="uni0439" unicode="&#x439;" horiz-adv-x="569" 
d="M210 0h-148q-9 0 -9 9v469q0 9 9 9h144q9 0 9 -9v-226h3l125 227q5 8 14 8h150q9 0 9 -9v-469q0 -9 -9 -9h-144q-9 0 -9 9v236h-3l-127 -236q-4 -9 -14 -9zM284 531q-130 0 -152 127q-3 12 5 14l76 12q9 1 12 -7q6 -19 22.5 -32t36.5 -13q45 0 60 45q3 8 12 7l76 -12
q8 -2 5 -14q-22 -127 -153 -127z" />
    <glyph glyph-name="uni043A" unicode="&#x43a;" horiz-adv-x="540" 
d="M212 0h-150q-9 0 -9 9v469q0 9 9 9h150q9 0 9 -9v-156q0 -6 6 -6h18q32 0 50 37l29 63q20 43 44.5 58t88.5 18h42q9 0 9 -9v-115q0 -9 -9 -9h-7q-24 0 -37 -28l-13 -28q-16 -36 -31 -46v-4q25 -10 37 -43l17 -46q7 -18 14 -24.5t20 -6.5h5q9 0 9 -9v-120q0 -9 -9 -9h-43
q-63 0 -93 17.5t-46 62.5l-24 67q-12 36 -47 36h-24q-6 0 -6 -6v-163q0 -9 -9 -9z" />
    <glyph glyph-name="uni043B" unicode="&#x43b;" horiz-adv-x="578" 
d="M68 -5h-49q-9 0 -9 9v120q0 9 9 9h9q73 0 73 101v244q0 9 9 9h406q9 0 9 -9v-469q0 -9 -9 -9h-150q-9 0 -9 9v334q0 6 -6 6h-86q-6 0 -6 -6v-101q0 -136 -45 -192q-43 -55 -146 -55z" />
    <glyph glyph-name="uni043C" unicode="&#x43c;" horiz-adv-x="661" 
d="M197 0h-135q-9 0 -9 9v469q0 9 9 9h141q7 0 11 -7l115 -236h3l115 236q3 7 11 7h141q9 0 9 -9v-469q0 -9 -9 -9h-135q-9 0 -9 9v214h-3l-74 -151q-4 -9 -14 -9h-66q-10 0 -13 9l-76 151h-3v-214q0 -9 -9 -9z" />
    <glyph glyph-name="uni043D" unicode="&#x43d;" horiz-adv-x="557" 
d="M212 0h-150q-9 0 -9 9v469q0 9 9 9h150q9 0 9 -9v-156q0 -6 6 -6h103q6 0 6 6v156q0 9 10 9h149q9 0 9 -9v-469q0 -9 -9 -9h-149q-10 0 -10 9v163q0 6 -6 6h-103q-6 0 -6 -6v-163q0 -9 -9 -9z" />
    <glyph glyph-name="uni043E" unicode="&#x43e;" horiz-adv-x="538" 
d="M47 129q-15 49 -15 114t15 115q22 67 80.5 104t141.5 37t141.5 -37t80.5 -104q15 -49 15 -115q0 -65 -15 -114q-22 -67 -80.5 -104t-141.5 -37t-141.5 37t-80.5 104zM329 167q7 20 7 76q0 57 -7 77q-14 41 -60 41t-60 -41q-7 -20 -7 -77q0 -56 7 -76q14 -41 60 -41t60 41
z" />
    <glyph glyph-name="uni043F" unicode="&#x43f;" horiz-adv-x="557" 
d="M212 0h-150q-9 0 -9 9v469q0 9 9 9h433q9 0 9 -9v-469q0 -9 -9 -9h-149q-10 0 -10 9v334q0 6 -6 6h-103q-6 0 -6 -6v-334q0 -9 -9 -9z" />
    <glyph glyph-name="uni0440" unicode="&#x440;" horiz-adv-x="557" 
d="M211 -180h-148q-10 0 -10 10v647q0 10 10 10h148q10 0 10 -10v-36h1q37 58 125 58q123 0 161 -117q17 -57 17 -139q0 -81 -17 -138q-38 -117 -161 -117q-88 0 -125 58h-1v-216q0 -10 -10 -10zM288 126q45 0 60 41q7 21 7 76q0 56 -7 77q-15 41 -60 41t-59 -41
q-8 -22 -8 -77q0 -54 8 -76q14 -41 59 -41z" />
    <glyph glyph-name="uni0441" unicode="&#x441;" horiz-adv-x="493" 
d="M263 -12q-80 0 -136.5 37t-80.5 106q-14 40 -14 112q0 73 14 113q24 69 80.5 106t136.5 37q70 0 123.5 -31t78.5 -81q4 -9 -4 -14l-112 -58q-11 -7 -15 3q-24 43 -66 43q-44 0 -59 -42q-7 -20 -7 -76q0 -55 7 -75q15 -42 59 -42q42 0 66 43q4 11 15 3l112 -58q8 -5 4 -14
q-25 -50 -78.5 -81t-123.5 -31z" />
    <glyph glyph-name="uni0442" unicode="&#x442;" horiz-adv-x="448" 
d="M299 0h-149q-10 0 -10 9v334q0 6 -6 6h-115q-9 0 -9 9v120q0 9 9 9h410q9 0 9 -9v-120q0 -9 -9 -9h-115q-6 0 -6 -6v-334q0 -9 -9 -9z" />
    <glyph glyph-name="uni0443" unicode="&#x443;" horiz-adv-x="531" 
d="M137 -180h-37q-10 0 -10 10v118q0 10 10 10h25q46 0 60 41l11 31l-183 447q-4 10 7 10h157q9 0 12 -10l84 -244h2l78 244q3 10 13 10h153q11 0 7 -10l-211 -532q-29 -73 -67 -98q-39 -27 -111 -27z" />
    <glyph glyph-name="uni0444" unicode="&#x444;" horiz-adv-x="748" 
d="M449 -180h-150q-9 0 -9 9v161q0 6 -6 6q-127 9 -190.5 70t-63.5 182q0 118 62.5 176t191.5 67q6 0 6 6v174q0 9 9 9h150q9 0 9 -9v-174q0 -6 6 -6q129 -9 191.5 -67t62.5 -176q0 -121 -63.5 -182t-190.5 -70q-6 0 -6 -6v-161q0 -9 -9 -9zM287 129q6 0 6 6v217q0 6 -6 6
q-22 -2 -34.5 -6t-26.5 -14.5t-20.5 -33t-6.5 -57.5q0 -62 21.5 -88.5t66.5 -29.5zM461 129q45 3 66.5 29.5t21.5 88.5q0 35 -6.5 57.5t-20.5 33t-26.5 14.5t-34.5 6q-6 0 -6 -6v-217q0 -6 6 -6z" />
    <glyph glyph-name="uni0445" unicode="&#x445;" horiz-adv-x="535" 
d="M183 0h-158q-12 0 -6 10l163 242l-151 225q-6 10 7 10h159q11 0 16 -9l60 -97h1l61 97q6 9 16 9h157q13 0 7 -10l-151 -225l164 -242q2 -4 0 -7t-7 -3h-159q-10 0 -16 9l-73 115h-1l-73 -115q-6 -9 -16 -9z" />
    <glyph glyph-name="uni0446" unicode="&#x446;" horiz-adv-x="567" 
d="M551 -93h-134q-8 0 -8 9v78q0 6 -6 6h-341q-9 0 -9 9v469q0 9 9 9h150q9 0 9 -9v-334q0 -6 6 -6h103q6 0 6 6v334q0 9 10 9h149q9 0 9 -9v-334q0 -6 6 -6h40q9 0 9 -9v-213q0 -9 -8 -9z" />
    <glyph glyph-name="uni0447" unicode="&#x447;" horiz-adv-x="525" 
d="M463 0h-149q-10 0 -10 9v146q0 8 -10 7q-55 -11 -105 -11q-78 0 -118.5 36t-40.5 117v174q0 9 9 9h150q9 0 9 -9v-153q0 -44 45 -44q25 0 53 6q8 2 8 9v182q0 9 10 9h149q9 0 9 -9v-469q0 -9 -9 -9z" />
    <glyph glyph-name="uni0448" unicode="&#x448;" horiz-adv-x="810" 
d="M748 0h-686q-9 0 -9 9v469q0 9 9 9h150q9 0 9 -9v-334q0 -6 6 -6h88q6 0 6 6v334q0 9 10 9h149q9 0 9 -9v-334q0 -6 6 -6h88q6 0 6 6v334q0 9 10 9h149q9 0 9 -9v-469q0 -9 -9 -9z" />
    <glyph glyph-name="uni0449" unicode="&#x449;" horiz-adv-x="820" 
d="M804 -93h-134q-8 0 -8 9v78q0 6 -6 6h-594q-9 0 -9 9v469q0 9 9 9h150q9 0 9 -9v-334q0 -6 6 -6h88q6 0 6 6v334q0 9 10 9h149q9 0 9 -9v-334q0 -6 6 -6h88q6 0 6 6v334q0 9 10 9h149q9 0 9 -9v-334q0 -6 6 -6h40q9 0 9 -9v-213q0 -9 -8 -9z" />
    <glyph glyph-name="uni044A" unicode="&#x44a;" horiz-adv-x="571" 
d="M376 0h-257q-9 0 -9 9v334q0 6 -6 6h-85q-9 0 -9 9v120q0 9 9 9h250q9 0 9 -9v-145q0 -6 6 -6h92q76 0 122 -46q47 -45 47 -116q0 -73 -48 -119q-46 -46 -121 -46zM278 116h62q21 0 34.5 14t13.5 35q0 19 -13.5 32.5t-34.5 13.5h-62q-6 0 -6 -6v-83q0 -6 6 -6z" />
    <glyph glyph-name="uni044B" unicode="&#x44b;" horiz-adv-x="749" 
d="M319 0h-257q-9 0 -9 9v469q0 9 9 9h150q9 0 9 -9v-145q0 -6 6 -6h92q76 0 122 -46q47 -45 47 -116q0 -73 -48 -119q-46 -46 -121 -46zM221 116h62q21 0 34.5 14t13.5 35q0 19 -13.5 32.5t-34.5 13.5h-62q-6 0 -6 -6v-83q0 -6 6 -6zM686 0h-148q-10 0 -10 10v467
q0 10 10 10h148q10 0 10 -10v-467q0 -10 -10 -10z" />
    <glyph glyph-name="uni044C" unicode="&#x44c;" horiz-adv-x="514" 
d="M319 0h-257q-9 0 -9 9v469q0 9 9 9h150q9 0 9 -9v-145q0 -6 6 -6h92q76 0 122 -46q47 -45 47 -116q0 -73 -48 -119q-46 -46 -121 -46zM221 116h62q21 0 34.5 14t13.5 35q0 19 -13.5 32.5t-34.5 13.5h-62q-6 0 -6 -6v-83q0 -6 6 -6z" />
    <glyph glyph-name="uni044D" unicode="&#x44d;" horiz-adv-x="493" 
d="M232 -12q-141 0 -204 94q-4 7 4 14l85 71q9 7 16 -3q39 -49 90 -49q32 0 51 19q17 17 20 46q0 6 -6 6h-110q-9 0 -9 9v95q0 10 9 10h111q7 0 5 6q-3 22 -10 35q-17 32 -62 32q-52 0 -82 -43q-7 -9 -16 -3l-85 57q-9 6 -4 14q71 101 197 101q99 0 160 -52q74 -63 74 -204
q0 -118 -53 -182q-61 -73 -181 -73z" />
    <glyph glyph-name="uni044E" unicode="&#x44e;" horiz-adv-x="776" 
d="M515 -12q-104 0 -162 55q-53 47 -63 129q-2 6 -6 6h-57q-6 0 -6 -6v-163q0 -9 -9 -9h-150q-9 0 -9 9v469q0 9 9 9h150q9 0 9 -9v-156q0 -6 6 -6h58q5 0 6 6q11 55 38 94q60 83 186 83q80 0 137 -37t78 -104q14 -48 14 -116q0 -66 -14 -114q-20 -67 -77.5 -103.5
t-137.5 -36.5zM567 167q7 24 7 76q0 53 -7 77q-12 41 -52 41t-52 -41q-7 -24 -7 -77q0 -52 7 -76q12 -41 52 -41t52 41z" />
    <glyph glyph-name="uni044F" unicode="&#x44f;" horiz-adv-x="540" 
d="M91 -5h-48q-9 0 -9 9v117q0 9 9 9h19q23 0 36 28l11 23q8 17 20 24v3q-39 8 -65.5 42.5t-26.5 78.5q0 73 45.5 115.5t125.5 42.5h270q9 0 9 -9v-469q0 -9 -9 -9h-150q-9 0 -9 9v146q0 6 -6 6h-11q-13 0 -21.5 -9.5t-18.5 -30.5l-27 -56q-20 -41 -48 -56q-30 -14 -96 -14z
M249 276h64q6 0 6 6v82q0 6 -6 6h-64q-21 0 -34 -14.5t-13 -35.5q0 -18 13 -31t34 -13z" />
    <glyph glyph-name="uni0450" unicode="&#x450;" horiz-adv-x="533" 
d="M275 -12q-87 0 -146 37.5t-81 105.5q-16 45 -16 112t15 113q23 68 79.5 105.5t138.5 37.5q86 0 142.5 -36.5t77.5 -104.5q16 -47 16 -152q0 -10 -11 -10h-289q-6 0 -6 -6q1 -7 4 -20q17 -53 94 -53q61 0 109 39q8 8 15 0l71 -73q9 -8 -1 -15q-83 -80 -212 -80zM201 298
h132q6 0 6 6q0 21 -4 30q-14 44 -68 44t-68 -44q-4 -15 -4 -30q0 -6 6 -6zM338 546h-116q-10 0 -17 10l-103 136q-3 4 -1.5 7t6.5 3h139q11 0 17 -10l80 -136q4 -10 -5 -10z" />
    <glyph glyph-name="uni0451" unicode="&#x451;" horiz-adv-x="533" 
d="M275 -12q-87 0 -146 37.5t-81 105.5q-16 45 -16 112t15 113q23 68 79.5 105.5t138.5 37.5q86 0 142.5 -36.5t77.5 -104.5q16 -47 16 -152q0 -10 -11 -10h-289q-6 0 -6 -6q1 -7 4 -20q17 -53 94 -53q61 0 109 39q8 8 15 0l71 -73q9 -8 -1 -15q-83 -80 -212 -80zM201 298
h132q6 0 6 6q0 21 -4 30q-14 44 -68 44t-68 -44q-4 -15 -4 -30q0 -6 6 -6zM422 550h-108q-10 0 -10 10v110q0 10 10 10h108q10 0 10 -10v-110q0 -10 -10 -10zM217 550h-108q-10 0 -10 10v110q0 10 10 10h108q10 0 10 -10v-110q0 -10 -10 -10z" />
    <glyph glyph-name="uni0452" unicode="&#x452;" horiz-adv-x="558" 
d="M309 -180h-38q-10 0 -10 10v118q0 10 10 10h15q31 0 42.5 11t11.5 44v275q0 71 -59 71q-28 0 -44 -19t-16 -52v-278q0 -10 -10 -10h-148q-10 0 -10 10v513q0 6 -6 6h-62q-10 0 -10 10v83q0 10 10 10h62q6 0 6 6v32q0 10 10 10h148q10 0 10 -10v-32q0 -6 6 -6h85
q10 0 10 -10v-83q0 -10 -10 -10h-85q-6 0 -6 -6v-81h1q39 57 125 57q79 0 120 -48t41 -134v-304q0 -100 -49.5 -146.5t-149.5 -46.5z" />
    <glyph glyph-name="uni0453" unicode="&#x453;" horiz-adv-x="420" 
d="M212 0h-150q-9 0 -9 9v469q0 9 9 9h341q10 0 10 -9v-120q0 -9 -10 -9h-176q-6 0 -6 -6v-334q0 -9 -9 -9zM247 546h-116q-9 0 -5 10l80 136q6 10 17 10h139q5 0 6.5 -3t-1.5 -7l-103 -136q-7 -10 -17 -10z" />
    <glyph glyph-name="uni0454" unicode="&#x454;" horiz-adv-x="493" 
d="M266 -12q-120 0 -181 73q-53 64 -53 182q0 141 74 204q61 52 160 52q126 0 197 -101q5 -8 -4 -14l-85 -57q-9 -6 -16 3q-30 43 -82 43q-33 0 -49 -16q-19 -17 -23 -51q-2 -6 5 -6h111q9 0 9 -10v-95q0 -9 -9 -9h-110q-6 0 -6 -6q3 -29 20 -46q19 -19 51 -19q51 0 90 49
q7 10 16 3l85 -71q8 -7 4 -14q-63 -94 -204 -94z" />
    <glyph glyph-name="uni0455" unicode="&#x455;" horiz-adv-x="512" 
d="M261 -12q-143 0 -232 75q-7 7 -1 14l71 85q7 6 14 2q79 -52 158 -52q62 0 62 35q0 14 -13 21t-48 11l-54 5q-168 20 -168 155q0 73 56 116.5t154 43.5q128 0 210 -61q7 -5 2 -15l-63 -80q-6 -7 -15 -3q-62 38 -136 38q-51 0 -51 -30q0 -13 12 -20t44 -10l54 -6
q90 -9 132 -48t41 -106q-1 -79 -61.5 -124.5t-167.5 -45.5z" />
    <glyph glyph-name="uni0456" unicode="&#x456;" horiz-adv-x="274" 
d="M211 0h-148q-10 0 -10 10v467q0 10 10 10h148q10 0 10 -10v-467q0 -10 -10 -10zM211 550h-148q-10 0 -10 10v110q0 10 10 10h148q10 0 10 -10v-110q0 -10 -10 -10z" />
    <glyph glyph-name="uni0457" unicode="&#x457;" horiz-adv-x="274" 
d="M294 550h-108q-10 0 -10 10v110q0 10 10 10h108q10 0 10 -10v-110q0 -10 -10 -10zM89 550h-108q-10 0 -10 10v110q0 10 10 10h108q10 0 10 -10v-110q0 -10 -10 -10zM211 0h-148q-10 0 -10 10v467q0 10 10 10h148q10 0 10 -10v-467q0 -10 -10 -10z" />
    <glyph glyph-name="uni0458" unicode="&#x458;" horiz-adv-x="274" 
d="M22 -180h-38q-10 0 -10 10v118q0 10 10 10h15q31 0 42.5 11t11.5 44v464q0 10 10 10h148q10 0 10 -10v-464q0 -100 -49.5 -146.5t-149.5 -46.5zM211 550h-148q-10 0 -10 10v110q0 10 10 10h148q10 0 10 -10v-110q0 -10 -10 -10z" />
    <glyph glyph-name="uni0459" unicode="&#x459;" horiz-adv-x="818" 
d="M68 -5h-49q-9 0 -9 9v120q0 9 9 9h9q73 0 73 101v244q0 9 9 9h406q9 0 9 -9v-145q0 -6 6 -6h92q76 0 122 -46q47 -45 47 -116q0 -73 -48 -119q-46 -46 -121 -46h-257q-9 0 -9 9v334q0 6 -6 6h-86q-6 0 -6 -6v-101q0 -136 -45 -192q-43 -55 -146 -55zM525 116h62
q21 0 34.5 14t13.5 35q0 19 -13.5 32.5t-34.5 13.5h-62q-6 0 -6 -6v-83q0 -6 6 -6z" />
    <glyph glyph-name="uni045A" unicode="&#x45a;" horiz-adv-x="797" 
d="M212 0h-150q-9 0 -9 9v469q0 9 9 9h150q9 0 9 -9v-145q0 -6 6 -6h103q6 0 6 6v145q0 9 10 9h149q9 0 9 -9v-145q0 -6 6 -6h92q76 0 122 -46q47 -45 47 -116q0 -73 -48 -119q-46 -46 -121 -46h-256q-10 0 -10 9v174q0 6 -6 6h-103q-6 0 -6 -6v-174q0 -9 -9 -9zM504 116h62
q21 0 34.5 14t13.5 35q0 19 -13.5 32.5t-34.5 13.5h-62q-6 0 -6 -6v-83q0 -6 6 -6z" />
    <glyph glyph-name="uni045B" unicode="&#x45b;" horiz-adv-x="558" 
d="M211 0h-148q-10 0 -10 10v513q0 6 -6 6h-62q-10 0 -10 10v83q0 10 10 10h62q6 0 6 6v32q0 10 10 10h148q10 0 10 -10v-32q0 -6 6 -6h85q10 0 10 -10v-83q0 -10 -10 -10h-85q-6 0 -6 -6v-81h1q39 57 125 57q79 0 120 -48t41 -134v-307q0 -10 -10 -10h-148q-10 0 -10 10
v278q0 71 -59 71q-28 0 -44 -19t-16 -52v-278q0 -10 -10 -10z" />
    <glyph glyph-name="uni045C" unicode="&#x45c;" horiz-adv-x="540" 
d="M212 0h-150q-9 0 -9 9v469q0 9 9 9h150q9 0 9 -9v-156q0 -6 6 -6h18q32 0 50 37l29 63q20 43 44.5 58t88.5 18h42q9 0 9 -9v-115q0 -9 -9 -9h-7q-24 0 -37 -28l-13 -28q-16 -36 -31 -46v-4q25 -10 37 -43l17 -46q7 -18 14 -24.5t20 -6.5h5q9 0 9 -9v-120q0 -9 -9 -9h-43
q-63 0 -93 17.5t-46 62.5l-24 67q-12 36 -47 36h-24q-6 0 -6 -6v-163q0 -9 -9 -9zM310 546h-116q-9 0 -5 10l80 136q6 10 17 10h139q5 0 6.5 -3t-1.5 -7l-103 -136q-7 -10 -17 -10z" />
    <glyph glyph-name="uni045D" unicode="&#x45d;" horiz-adv-x="569" 
d="M210 0h-148q-9 0 -9 9v469q0 9 9 9h144q9 0 9 -9v-226h3l125 227q5 8 14 8h150q9 0 9 -9v-469q0 -9 -9 -9h-144q-9 0 -9 9v236h-3l-127 -236q-4 -9 -14 -9zM370 546h-116q-10 0 -17 10l-103 136q-3 4 -1.5 7t6.5 3h139q11 0 17 -10l80 -136q4 -10 -5 -10z" />
    <glyph glyph-name="uni045E" unicode="&#x45e;" horiz-adv-x="531" 
d="M137 -180h-37q-10 0 -10 10v118q0 10 10 10h25q46 0 60 41l11 31l-183 447q-4 10 7 10h157q9 0 12 -10l84 -244h2l78 244q3 10 13 10h153q11 0 7 -10l-211 -532q-29 -73 -67 -98q-39 -27 -111 -27zM274 531q-130 0 -152 127q-3 12 5 14l76 12q9 1 12 -7q6 -19 22.5 -32
t36.5 -13q45 0 60 45q3 8 12 7l76 -12q8 -2 5 -14q-22 -127 -153 -127z" />
    <glyph glyph-name="uni045F" unicode="&#x45f;" horiz-adv-x="557" 
d="M345 -93h-134q-8 0 -8 9v78q0 6 -6 6h-135q-9 0 -9 9v469q0 9 9 9h150q9 0 9 -9v-334q0 -6 6 -6h103q6 0 6 6v334q0 9 10 9h149q9 0 9 -9v-469q0 -9 -9 -9h-136q-6 0 -6 -6v-78q0 -9 -8 -9z" />
    <glyph glyph-name="uni0490" unicode="&#x490;" horiz-adv-x="512" 
d="M221 0h-156q-10 0 -10 10v660q0 10 10 10h283q6 0 6 6v107q0 10 8 10h134q9 0 9 -10v-259q0 -10 -10 -10h-258q-6 0 -6 -6v-508q0 -10 -10 -10z" />
    <glyph glyph-name="uni0491" unicode="&#x491;" horiz-adv-x="420" 
d="M212 0h-150q-9 0 -9 9v469q0 9 9 9h200q6 0 6 6v78q0 9 8 9h129q8 0 8 -9v-213q0 -9 -10 -9h-176q-6 0 -6 -6v-334q0 -9 -9 -9z" />
    <glyph glyph-name="Wgrave" unicode="&#x1e80;" horiz-adv-x="907" 
d="M514 747h-115q-11 0 -20 9l-128 123q-3 4 -1.5 7t6.5 3h142q11 0 18 -10l102 -122q3 -4 1.5 -7t-5.5 -3zM702 0h-125q-10 0 -13 10l-107 380h-2l-108 -380q-3 -10 -13 -10h-125q-10 0 -13 10l-185 660q-1 10 8 10h164q12 0 13 -10l88 -396h2l106 396q3 10 13 10h103
q10 0 13 -10l109 -396h2l85 396q1 10 12 10h164q10 0 7 -10l-184 -660q-3 -10 -14 -10z" />
    <glyph glyph-name="wgrave" unicode="&#x1e81;" horiz-adv-x="773" 
d="M595 0h-116q-9 0 -12 10l-75 250h-2l-76 -250q-3 -10 -12 -10h-116q-9 0 -12 10l-158 466q-5 11 8 11h149q11 0 14 -10l67 -257h2l75 257q3 10 13 10h95q11 0 14 -10l75 -257h2l63 257q3 10 15 10h149q12 0 7 -11l-157 -466q-3 -10 -12 -10zM448 546h-116q-10 0 -17 10
l-103 136q-3 4 -1.5 7t6.5 3h139q11 0 17 -10l80 -136q4 -10 -5 -10z" />
    <glyph glyph-name="Wacute" unicode="&#x1e82;" horiz-adv-x="907" 
d="M517 747h-115q-4 0 -5.5 3t1.5 7l102 122q7 10 18 10h142q5 0 6.5 -3t-1.5 -7l-128 -123q-9 -9 -20 -9zM702 0h-125q-10 0 -13 10l-107 380h-2l-108 -380q-3 -10 -13 -10h-125q-10 0 -13 10l-185 660q-1 10 8 10h164q12 0 13 -10l88 -396h2l106 396q3 10 13 10h103
q10 0 13 -10l109 -396h2l85 396q1 10 12 10h164q10 0 7 -10l-184 -660q-3 -10 -14 -10z" />
    <glyph glyph-name="wacute" unicode="&#x1e83;" horiz-adv-x="773" 
d="M595 0h-116q-9 0 -12 10l-75 250h-2l-76 -250q-3 -10 -12 -10h-116q-9 0 -12 10l-158 466q-5 11 8 11h149q11 0 14 -10l67 -257h2l75 257q3 10 13 10h95q11 0 14 -10l75 -257h2l63 257q3 10 15 10h149q12 0 7 -11l-157 -466q-3 -10 -12 -10zM450 546h-116q-9 0 -5 10
l80 136q6 10 17 10h139q5 0 6.5 -3t-1.5 -7l-103 -136q-7 -10 -17 -10z" />
    <glyph glyph-name="Wdieresis" unicode="&#x1e84;" horiz-adv-x="907" 
d="M702 0h-125q-10 0 -13 10l-107 380h-2l-108 -380q-3 -10 -13 -10h-125q-10 0 -13 10l-185 660q-1 10 8 10h164q12 0 13 -10l88 -396h2l106 396q3 10 13 10h103q10 0 13 -10l109 -396h2l85 396q1 10 12 10h164q10 0 7 -10l-184 -660q-3 -10 -14 -10zM611 750h-107
q-10 0 -10 10v110q0 10 10 10h107q10 0 10 -10v-110q0 -10 -10 -10zM405 750h-107q-10 0 -10 10v110q0 10 10 10h107q10 0 10 -10v-110q0 -10 -10 -10z" />
    <glyph glyph-name="wdieresis" unicode="&#x1e85;" horiz-adv-x="773" 
d="M595 0h-116q-9 0 -12 10l-75 250h-2l-76 -250q-3 -10 -12 -10h-116q-9 0 -12 10l-158 466q-5 11 8 11h149q11 0 14 -10l67 -257h2l75 257q3 10 13 10h95q11 0 14 -10l75 -257h2l63 257q3 10 15 10h149q12 0 7 -11l-157 -466q-3 -10 -12 -10zM546 550h-108q-10 0 -10 10
v110q0 10 10 10h108q10 0 10 -10v-110q0 -10 -10 -10zM341 550h-108q-10 0 -10 10v110q0 10 10 10h108q10 0 10 -10v-110q0 -10 -10 -10z" />
    <glyph glyph-name="Ygrave" unicode="&#x1ef2;" horiz-adv-x="602" 
d="M383 0h-156q-10 0 -10 10v253l-206 406q-5 11 8 11h157q10 0 16 -10l114 -232h3l112 232q4 10 16 10h154q13 0 8 -11l-206 -406v-253q0 -10 -10 -10zM376 747h-115q-11 0 -20 9l-128 123q-3 4 -1.5 7t6.5 3h142q11 0 18 -10l102 -122q3 -4 1.5 -7t-5.5 -3z" />
    <glyph glyph-name="ygrave" unicode="&#x1ef3;" horiz-adv-x="531" 
d="M137 -180h-37q-10 0 -10 10v118q0 10 10 10h25q46 0 60 41l11 31l-183 447q-4 10 7 10h157q9 0 12 -10l84 -244h2l78 244q3 10 13 10h153q11 0 7 -10l-211 -532q-29 -73 -67 -98q-39 -27 -111 -27zM339 546h-116q-10 0 -17 10l-103 136q-3 4 -1.5 7t6.5 3h139
q11 0 17 -10l80 -136q4 -10 -5 -10z" />
    <glyph glyph-name="uni2010" unicode="&#x2010;" horiz-adv-x="399" 
d="M350 193h-301q-10 0 -10 10v125q0 10 10 10h301q10 0 10 -10v-125q0 -10 -10 -10z" />
    <glyph glyph-name="endash" unicode="&#x2013;" horiz-adv-x="551" 
d="M521 195h-491q-10 0 -10 10v120q0 10 10 10h491q10 0 10 -10v-120q0 -10 -10 -10z" />
    <glyph glyph-name="emdash" unicode="&#x2014;" horiz-adv-x="921" 
d="M891 195h-861q-10 0 -10 10v120q0 10 10 10h861q10 0 10 -10v-120q0 -10 -10 -10z" />
    <glyph glyph-name="afii00208" unicode="&#x2015;" horiz-adv-x="921" 
d="M891 195h-861q-10 0 -10 10v120q0 10 10 10h861q10 0 10 -10v-120q0 -10 -10 -10z" />
    <glyph glyph-name="quoteleft" unicode="&#x2018;" horiz-adv-x="239" 
d="M176 455h-113q-10 0 -10 10v116q0 15 9 21l96 72q10 8 17 8q11 0 11 -12v-205q0 -10 -10 -10z" />
    <glyph glyph-name="quoteright" unicode="&#x2019;" horiz-adv-x="239" 
d="M64 453q-11 0 -11 12v205q0 10 10 10h113q10 0 10 -10v-115q0 -16 -9 -22l-96 -72q-10 -8 -17 -8z" />
    <glyph glyph-name="quotesinglbase" unicode="&#x201a;" horiz-adv-x="239" 
d="M64 -89q-11 0 -11 11v205q0 10 10 10h113q10 0 10 -10v-115q0 -14 -9 -22l-96 -72q-10 -7 -17 -7z" />
    <glyph glyph-name="quotedblleft" unicode="&#x201c;" horiz-adv-x="437" 
d="M374 455h-113q-10 0 -10 10v116q0 15 9 21l96 72q10 8 17 8q11 0 11 -12v-205q0 -10 -10 -10zM176 455h-113q-10 0 -10 10v116q0 15 9 21l96 72q10 8 17 8q11 0 11 -12v-205q0 -10 -10 -10z" />
    <glyph glyph-name="quotedblright" unicode="&#x201d;" horiz-adv-x="437" 
d="M262 453q-11 0 -11 12v205q0 10 10 10h113q10 0 10 -10v-115q0 -16 -9 -22l-96 -72q-10 -8 -17 -8zM64 453q-11 0 -11 12v205q0 10 10 10h113q10 0 10 -10v-115q0 -16 -9 -22l-96 -72q-10 -8 -17 -8z" />
    <glyph glyph-name="quotedblbase" unicode="&#x201e;" horiz-adv-x="437" 
d="M262 -89q-11 0 -11 11v205q0 10 10 10h113q10 0 10 -10v-115q0 -14 -9 -22l-96 -72q-10 -7 -17 -7zM64 -89q-11 0 -11 11v205q0 10 10 10h113q10 0 10 -10v-115q0 -14 -9 -22l-96 -72q-10 -7 -17 -7z" />
    <glyph glyph-name="dagger" unicode="&#x2020;" horiz-adv-x="566" 
d="M356 -180h-146q-10 0 -10 10v486q0 6 -6 6h-144q-10 0 -10 10v129q0 10 10 10h144q6 0 6 6v193q0 10 10 10h146q10 0 10 -10v-193q0 -6 6 -6h144q10 0 10 -10v-129q0 -10 -10 -10h-144q-6 0 -6 -6v-486q0 -10 -10 -10z" />
    <glyph glyph-name="daggerdbl" unicode="&#x2021;" horiz-adv-x="566" 
d="M356 -180h-146q-10 0 -10 10v157q0 6 -6 6h-144q-10 0 -10 10v129q0 10 10 10h144q6 0 6 6v204q0 6 -6 6h-144q-10 0 -10 10v129q0 10 10 10h144q6 0 6 6v157q0 10 10 10h146q10 0 10 -10v-157q0 -6 6 -6h144q10 0 10 -10v-129q0 -10 -10 -10h-144q-6 0 -6 -6v-204
q0 -6 6 -6h144q10 0 10 -10v-129q0 -10 -10 -10h-144q-6 0 -6 -6v-157q0 -10 -10 -10z" />
    <glyph glyph-name="bullet" unicode="&#x2022;" horiz-adv-x="491" 
d="M84 309q0 70 46 115q46 46 116 46t115 -46q46 -45 46 -115t-46 -116q-45 -46 -115 -46t-116 45q-46 46 -46 117z" />
    <glyph glyph-name="ellipsis" unicode="&#x2026;" horiz-adv-x="789" 
d="M727 0h-139q-10 0 -10 10v138q0 10 10 10h139q10 0 10 -10v-138q0 -10 -10 -10zM464 0h-139q-10 0 -10 10v138q0 10 10 10h139q10 0 10 -10v-138q0 -10 -10 -10zM201 0h-139q-10 0 -10 10v138q0 10 10 10h139q10 0 10 -10v-138q0 -10 -10 -10z" />
    <glyph glyph-name="perthousand" unicode="&#x2030;" horiz-adv-x="1186" 
d="M273 -12h-102q-10 0 -4 10l395 684q6 10 16 10h101q11 0 5 -10l-395 -684q-6 -10 -16 -10zM71 415q-11 31 -11 94t11 94q13 40 48.5 62.5t86.5 22.5t86.5 -22.5t48.5 -62.5q11 -31 11 -94t-11 -94q-13 -40 -48.5 -62.5t-86.5 -22.5t-86.5 22.5t-48.5 62.5zM234 434
q3 10 3 75t-3 75q-6 19 -28 19t-28 -19q-3 -10 -3 -75t3 -75q6 -19 28 -19t28 19zM980 -8q-51 0 -86.5 22.5t-48.5 62.5q-10 30 -10 94t10 94q13 40 48.5 62.5t86.5 22.5q52 0 87.5 -22.5t48.5 -62.5q10 -30 10 -94t-10 -94q-13 -40 -48.5 -62.5t-87.5 -22.5zM509 77
q-11 31 -11 94t11 94q13 40 48.5 62.5t86.5 22.5t86.5 -22.5t48.5 -62.5q11 -31 11 -94t-11 -94q-13 -40 -48.5 -62.5t-86.5 -22.5t-86.5 22.5t-48.5 62.5zM980 77q22 0 28 19q4 8 4 75q0 66 -4 75q-6 18 -28 18q-21 0 -27 -18q-4 -9 -4 -75q0 -67 4 -75q6 -19 27 -19z
M672 96q3 10 3 75q0 63 -3 75q-6 18 -28 18t-28 -18q-3 -12 -3 -75q0 -65 3 -75q6 -19 28 -19t28 19z" />
    <glyph glyph-name="guilsinglleft" unicode="&#x2039;" horiz-adv-x="325" 
d="M265 23l-236 234q-7 7 0 14l236 234q3 3 6.5 1.5t3.5 -5.5v-138q0 -10 -10 -19l-76 -76q-4 -4 0 -8l76 -76q10 -9 10 -19v-138q0 -4 -3.5 -5.5t-6.5 1.5z" />
    <glyph glyph-name="guilsinglright" unicode="&#x203a;" horiz-adv-x="325" 
d="M303 257l-236 -234q-3 -3 -6.5 -1.5t-3.5 5.5v138q0 9 10 19l77 76q4 4 0 8l-77 76q-10 10 -10 19v138q0 4 3.5 5.5t6.5 -1.5l236 -234q7 -7 0 -14z" />
    <glyph glyph-name="interrobang" unicode="&#x203d;" horiz-adv-x="483" 
d="M303 210h-132q-10 0 -10 10l-24 233q0 10 10 10h111q10 0 10 -10l-5 -78h2l10 17q36 60 36 104q0 72 -72 72q-56 0 -68 -46q-3 -10 -11 -8l-129 18q-9 1 -8 11q16 73 71 111t146 38q99 0 157 -50.5t58 -137.5q0 -80 -68 -162l-53 -64q-21 -22 -21 -51v-7q0 -10 -10 -10z
M157 10v126q0 10 10 10h138q10 0 10 -10v-126q0 -10 -10 -10h-138q-10 0 -10 10z" />
    <glyph glyph-name="fraction" unicode="&#x2044;" horiz-adv-x="173" 
d="M-60 -12h-102q-10 0 -4 10l395 684q6 10 16 10h102q10 0 4 -10l-395 -684q-6 -10 -16 -10z" />
    <glyph glyph-name="zero.superior" unicode="&#x2070;" horiz-adv-x="366" 
d="M36 517q-11 35 -11 116t11 116q30 94 147 94t148 -94q10 -33 10 -116t-10 -116q-31 -94 -148 -94t-147 94zM213 539q3 11 3 94t-3 94q-6 20 -30 20t-30 -20q-3 -11 -3 -94t3 -94q8 -20 30 -20t30 20z" />
    <glyph glyph-name="four.superior" unicode="&#x2074;" horiz-adv-x="366" 
d="M306 430h-93q-10 0 -10 10v36q0 6 -6 6h-166q-10 0 -10 10v85q0 11 4 18l107 231q4 10 15 10h107q11 0 7 -10l-111 -241v-2h47q6 0 6 6v57q0 10 10 10h93q10 0 10 -10v-57q0 -6 5 -6h14q10 0 10 -10v-81q0 -10 -10 -10h-13q-6 0 -6 -6v-36q0 -10 -10 -10z" />
    <glyph glyph-name="five.superior" unicode="&#x2075;" horiz-adv-x="366" 
d="M182 423q-59 0 -97 25t-47 69q-1 9 8 12l90 16q8 2 13 -6q10 -19 33 -19q24 0 30 19q3 11 3 23q0 13 -3 22q-6 20 -30 20q-15 0 -25 -10q-5 -6 -12 -6h-93q-10 0 -10 10v228q0 10 10 10h258q10 0 10 -10v-78q0 -11 -10 -11h-155q-6 0 -6 -7v-47h1q23 17 62 17
q91 0 115 -73q8 -22 8 -60q0 -37 -7 -58q-29 -86 -146 -86z" />
    <glyph glyph-name="six.superior" unicode="&#x2076;" horiz-adv-x="366" 
d="M183 423q-70 0 -114 37.5t-44 98.5q0 51 38 116l85 151q7 10 16 10h113q11 0 5 -10l-77 -137l1 -1h5l4 1q57 0 92 -35.5t35 -94.5q0 -61 -44 -98.5t-115 -37.5zM154 529q11 -11 29 -11t29 11t11 28t-11 27q-11 11 -29 11t-29 -11q-11 -10 -11 -27t11 -28z" />
    <glyph glyph-name="seven.superior" unicode="&#x2077;" horiz-adv-x="366" 
d="M199 430h-108q-9 0 -6 12l126 293v2h-59q-6 0 -6 -6v-36q0 -10 -10 -10h-92q-10 0 -10 10v131q0 10 10 10h282q10 0 10 -10v-89q0 -11 -4 -15l-120 -282q-3 -10 -13 -10z" />
    <glyph glyph-name="eight.superior" unicode="&#x2078;" horiz-adv-x="366" 
d="M24 552q0 54 44 89v1q-35 32 -35 76q0 53 41 89t109 36t109.5 -36t41.5 -89q0 -44 -36 -76v-1q44 -35 44 -89q0 -58 -44.5 -93.5t-114.5 -35.5t-114.5 35.5t-44.5 93.5zM158 691q10 -9 25 -9t24 9q10 10 10 24t-10 23q-9 10 -24 10t-25 -10q-9 -9 -9 -23t9 -24zM224 557
q1 24 -20 34t-42 0t-20 -34q-1 -24 20 -33.5t42 0t20 33.5z" />
    <glyph glyph-name="nine.superior" unicode="&#x2079;" horiz-adv-x="366" 
d="M202 430h-113q-11 0 -5 10l77 137l-1 1h-5l-4 -1q-57 0 -91.5 35.5t-34.5 94.5q0 61 44 98.5t114 37.5q71 0 115 -37.5t44 -98.5q0 -48 -38 -116l-86 -151q-7 -10 -16 -10zM154 681q11 -10 29 -10t29 10q11 11 11 28t-11 28t-29 11t-29 -11t-11 -28t11 -28z" />
    <glyph glyph-name="zero.inferior" unicode="&#x2080;" horiz-adv-x="366" 
d="M36 -69q-11 35 -11 116t11 116q30 94 147 94t148 -94q10 -33 10 -116t-10 -116q-31 -94 -148 -94t-147 94zM213 -47q3 11 3 94t-3 94q-6 20 -30 20t-30 -20q-3 -11 -3 -94t3 -94q8 -20 30 -20t30 20z" />
    <glyph glyph-name="one.inferior" unicode="&#x2081;" horiz-adv-x="366" 
d="M268 -156h-102q-10 0 -10 10v270h-2l-66 -38q-4 -2 -7 0t-3 6v97q0 11 9 15l62 40q11 6 17 6h102q10 0 10 -10v-386q0 -10 -10 -10z" />
    <glyph glyph-name="two.inferior" unicode="&#x2082;" horiz-adv-x="366" 
d="M322 -156h-277q-10 0 -10 10v76q0 10 8 18l146 137q23 23 23 45q0 31 -31 31q-32 0 -35 -36q-2 -11 -11 -9l-91 13q-9 1 -9 11q2 50 43.5 83.5t109.5 33.5q64 0 104 -34t40 -92q0 -57 -54 -107l-84 -78v-1h128q10 0 10 -10v-81q0 -10 -10 -10z" />
    <glyph glyph-name="three.inferior" unicode="&#x2083;" horiz-adv-x="366" 
d="M186 -163q-63 0 -103.5 27t-49.5 75q-2 11 8 12l90 14q8 1 13 -7q12 -25 38 -25q36 0 36 35t-43 35h-13q-10 0 -10 10v74q0 10 10 10h13q16 0 26 8.5t10 23.5q0 32 -32 32q-23 0 -34 -23q-3 -9 -12 -7l-90 14q-10 1 -8 11q9 46 48.5 73.5t100.5 27.5q68 0 108 -32
q39 -32 39 -82q0 -51 -45 -82v-1q52 -24 52 -94q0 -59 -41 -94t-111 -35z" />
    <glyph glyph-name="four.inferior" unicode="&#x2084;" horiz-adv-x="366" 
d="M306 -156h-93q-10 0 -10 10v36q0 6 -6 6h-166q-10 0 -10 10v85q0 11 4 18l107 231q4 10 15 10h107q11 0 7 -10l-111 -241v-2h47q6 0 6 6v57q0 10 10 10h93q10 0 10 -10v-57q0 -6 5 -6h14q10 0 10 -10v-81q0 -10 -10 -10h-13q-6 0 -6 -6v-36q0 -10 -10 -10z" />
    <glyph glyph-name="five.inferior" unicode="&#x2085;" horiz-adv-x="366" 
d="M182 -163q-59 0 -97 25t-47 69q-1 9 8 12l90 16q8 2 13 -6q10 -19 33 -19q24 0 30 19q3 11 3 23q0 13 -3 22q-6 20 -30 20q-15 0 -25 -10q-5 -6 -12 -6h-93q-10 0 -10 10v228q0 10 10 10h258q10 0 10 -10v-78q0 -11 -10 -11h-155q-6 0 -6 -7v-47h1q23 17 62 17
q91 0 115 -73q8 -22 8 -60q0 -37 -7 -58q-29 -86 -146 -86z" />
    <glyph glyph-name="six.inferior" unicode="&#x2086;" horiz-adv-x="366" 
d="M183 -163q-70 0 -114 37.5t-44 98.5q0 51 38 116l85 151q7 10 16 10h113q11 0 5 -10l-77 -137l1 -1h5l4 1q57 0 92 -35.5t35 -94.5q0 -61 -44 -98.5t-115 -37.5zM154 -57q11 -11 29 -11t29 11t11 28t-11 28q-11 10 -29 10t-29 -10q-11 -11 -11 -28t11 -28z" />
    <glyph glyph-name="seven.inferior" unicode="&#x2087;" horiz-adv-x="366" 
d="M199 -156h-108q-9 0 -6 12l126 293v2h-59q-6 0 -6 -6v-36q0 -10 -10 -10h-92q-10 0 -10 10v131q0 10 10 10h282q10 0 10 -10v-89q0 -11 -4 -15l-120 -282q-3 -10 -13 -10z" />
    <glyph glyph-name="eight.inferior" unicode="&#x2088;" horiz-adv-x="366" 
d="M24 -34q0 54 44 89v1q-35 32 -35 76q0 53 41 89t109 36t109.5 -36t41.5 -89q0 -44 -36 -76v-1q44 -35 44 -89q0 -58 -44.5 -93.5t-114.5 -35.5t-114.5 35.5t-44.5 93.5zM158 105q10 -9 25 -9t24 9q10 10 10 24t-10 23q-9 10 -24 10t-25 -10q-9 -9 -9 -23t9 -24zM224 -29
q1 24 -20 34t-42 0t-20 -34q-1 -24 20 -33.5t42 0t20 33.5z" />
    <glyph glyph-name="nine.inferior" unicode="&#x2089;" horiz-adv-x="366" 
d="M202 -156h-113q-11 0 -5 10l77 137l-1 1h-5l-4 -1q-57 0 -91.5 35.5t-34.5 94.5q0 61 44 98.5t114 37.5q71 0 115 -37.5t44 -98.5q0 -48 -38 -116l-86 -151q-7 -10 -16 -10zM154 95q11 -10 29 -10t29 10q11 11 11 28t-11 28t-29 11t-29 -11t-11 -28t11 -28z" />
    <glyph glyph-name="Euro" unicode="&#x20ac;" 
d="M322 -12q-172 0 -220 145q-13 42 -13 100q0 6 -6 6h-38q-10 0 -10 10v62q0 10 10 10h38q6 0 6 6v29q0 6 -6 6h-38q-10 0 -10 10v63q0 10 10 10h38q6 0 6 6q0 54 13 96q48 145 220 145q151 0 208 -124q4 -9 -5 -14l-115 -52q-12 -5 -17 5q-23 47 -68 47q-48 0 -61 -46
q-6 -16 -6 -57q0 -6 6 -6h151q10 0 10 -10l-10 -63q-1 -10 -10 -10h-141q-6 0 -6 -6v-29q0 -6 6 -6h131q10 0 10 -10l-10 -62q-1 -10 -10 -10h-121q-6 0 -6 -6q0 -45 6 -61q13 -46 61 -46q45 0 68 47q5 10 17 5l115 -52q9 -5 5 -14q-57 -124 -208 -124z" />
    <glyph glyph-name="afii61248" unicode="&#x2105;" horiz-adv-x="850" 
d="M167 -2l395 684q6 10 16 10h101q11 0 5 -10l-395 -684q-6 -10 -16 -10h-102q-10 0 -4 10zM651 -12q-55 0 -94.5 26t-54.5 74q-22 81 0 162q15 48 54.5 74t94.5 26t93.5 -26t53.5 -74q10 -30 10 -81t-10 -81q-15 -48 -53.5 -74t-93.5 -26zM651 86q27 0 38 29q4 15 4 54
t-4 54q-11 29 -38 29q-29 0 -38 -29q-5 -22 -5 -54q0 -29 5 -54q9 -29 38 -29zM206 328q-57 0 -97 26.5t-56 74.5q-10 27 -10 78q0 53 10 79q16 50 56 77t97 27q49 0 86.5 -21.5t55.5 -57.5q1 -6 -3 -10l-79 -40q-7 -4 -10 2q-20 30 -47 30q-30 0 -42 -30q-5 -18 -5 -54
q0 -34 5 -52q12 -30 42 -30q29 0 47 31q2 7 10 2l79 -41q4 -4 3 -10q-19 -36 -56.5 -58.5t-85.5 -22.5z" />
    <glyph glyph-name="afii61289" unicode="&#x2113;" horiz-adv-x="474" 
d="M127 151l-27 -20q-8 -5 -14 2l-50 73q-5 10 2 14l89 66v176q0 110 43 170t127 60q67 0 107.5 -42t40.5 -114q0 -144 -173 -296v-80q0 -45 37 -45q21 0 52 21q8 6 14 -2l50 -73q6 -8 -2 -14q-65 -59 -145 -59q-73 0 -111.5 41.5t-39.5 121.5zM272 491v-93q57 70 57 140
q0 44 -27 44q-16 0 -23 -19.5t-7 -71.5z" />
    <glyph glyph-name="uni2116" unicode="&#x2116;" horiz-adv-x="966" 
d="M217 0h-148q-10 0 -10 10v661q0 9 10 9h129q10 0 15 -9l191 -340h3v340q0 9 10 9h148q9 0 9 -9v-661q0 -10 -9 -10h-128q-12 0 -16 10l-191 340h-3v-340q0 -10 -10 -10zM896 121h-250q-10 0 -10 9v85q0 9 10 9h250q10 0 10 -9v-85q0 -9 -10 -9zM773 275q-157 0 -157 153
t157 153q156 0 156 -153t-156 -153zM773 365q22 0 31 14t9 49t-9 49t-31 14q-23 0 -32 -14t-9 -49t9 -49t32 -14z" />
    <glyph glyph-name="published" unicode="&#x2117;" horiz-adv-x="794" 
d="M648 87q-100 -100 -251 -100q-152 0 -252 100t-100 252t100 252q101 101 252 101q150 0 251 -101t101 -252t-101 -252zM663 339q0 116 -75 193q-75 76 -191 76t-191 -76q-75 -77 -75 -193q0 -115 75 -192q75 -76 191 -76t191 76q75 77 75 192zM375 151h-106q-9 0 -9 9
v357q0 9 9 9h155q160 0 160 -131q0 -72 -40.5 -103.5t-119.5 -31.5h-35q-5 0 -5 -5v-95q0 -9 -9 -9zM388 351h15q38 0 54 9t16 35q0 23 -16.5 31t-53.5 8h-15q-4 0 -4 -3v-77q0 -3 4 -3z" />
    <glyph glyph-name="trademark" unicode="&#x2122;" horiz-adv-x="841" 
d="M782 286h-78q-10 0 -10 10v185h-3l-57 -130q-4 -10 -14 -10h-47q-9 0 -13 10l-58 130h-2v-185q0 -10 -10 -10h-79q-10 0 -10 10v374q0 10 10 10h81q11 0 15 -10l89 -199h4l88 199q4 10 14 10h80q10 0 10 -10v-374q0 -10 -10 -10zM239 286h-89q-10 0 -10 10v282q0 6 -6 6
h-92q-10 0 -10 10v76q0 10 10 10h305q10 0 10 -10v-76q0 -10 -10 -10h-92q-6 0 -6 -6v-282q0 -10 -10 -10z" />
    <glyph glyph-name="Omega" unicode="&#x2126;" horiz-adv-x="639" 
d="M584 0h-223q-10 0 -10 10v117q0 11 9 15q34 16 46 57t12 141q0 105 -10 135q-22 60 -89 60q-69 0 -88 -60q-10 -26 -10 -135q0 -100 12 -141t46 -57q9 -4 9 -15v-117q0 -10 -10 -10h-223q-10 0 -10 10v123q0 10 10 10h49v1q-62 47 -62 196q0 123 21 183q28 82 94.5 125.5
t161.5 43.5q96 0 162 -43t95 -126q21 -60 21 -183q0 -149 -62 -196v-1h49q10 0 10 -10v-123q0 -10 -10 -10z" />
    <glyph glyph-name="estimated" unicode="&#x212e;" horiz-adv-x="578" 
d="M288 -12q-106 0 -172 74t-66 182t65 182q66 73 173 73t173 -71q65 -70 67 -184h-374v-167q53 -53 134 -53q115 0 177 110l33 -21q-43 -67 -91.5 -96t-118.5 -29zM154 278h270v133q-62 57 -136 57q-80 0 -134 -57v-133z" />
    <glyph glyph-name="onethird" unicode="&#x2153;" horiz-adv-x="943" 
d="M706 -7q-63 0 -103.5 27t-49.5 75q-2 11 8 12l90 14q8 1 13 -7q12 -25 38 -25q36 0 36 35t-43 35h-13q-10 0 -10 10v74q0 10 10 10h13q16 0 26 8.5t10 23.5q0 32 -32 32q-23 0 -34 -23q-3 -9 -12 -7l-90 14q-10 1 -8 11q9 46 48.5 73.5t100.5 27.5q68 0 108 -32
q39 -31 39 -82t-45 -82v-1q52 -24 52 -94q0 -59 -41 -94t-111 -35zM287 -12h-102q-10 0 -4 10l395 684q6 10 16 10h102q10 0 4 -10l-395 -684q-6 -10 -16 -10zM274 274h-102q-10 0 -10 10v270h-2l-66 -38q-4 -2 -7 0t-3 6v97q0 11 9 15l62 40q10 6 17 6h102q10 0 10 -10
v-386q0 -10 -10 -10z" />
    </font>
</defs>
</svg>
