<?xml version="1.0" standalone="no"?>
<!DOCTYPE svg PUBLIC "-//W3C//DTD SVG 1.1//EN" "http://www.w3.org/Graphics/SVG/1.1/DTD/svg11.dtd" >
<svg xmlns="http://www.w3.org/2000/svg" xmlns:xlink="http://www.w3.org/1999/xlink" version="1.1">
<metadata>
Created by FontForge 20161013 at Wed Apr  9 00:48:01 2014
 By ,,,
Copyright (c) 2010 Linotype GmbH, www.linotype.com. All rights reserved. This font software may not be reproduced, modified, disclosed or transferred without the express written approval of Linotype GmbH.
</metadata>
<defs>
<font id="DINNextW1G-UltraLight" horiz-adv-x="522" >
  <font-face 
    font-family="DIN Next W1G UltraLight"
    font-weight="100"
    font-stretch="normal"
    units-per-em="1000"
    panose-1="2 11 2 3 2 2 3 5 2 3"
    ascent="782"
    descent="-218"
    x-height="474"
    cap-height="680"
    bbox="-134.143 -216 987 912"
    underline-thickness="50"
    underline-position="-200"
    unicode-range="U+000D-FB04"
  />
<missing-glyph horiz-adv-x="464" 
d="M0 10v660q0 10 10 10h444q10 0 10 -10v-660q0 -10 -10 -10h-444q-10 0 -10 10zM30 646v-612q0 -6 6 -6h392q6 0 6 6v612q0 6 -6 6h-392q-6 0 -6 -6zM229 217h-8q-10 0 -10 10v25q0 44 24 72l31 37q26 32 34.5 50.5t8.5 43.5q0 36 -23 58t-59 22q-70 0 -87 -77
q-2 -9 -12 -8l-7 1q-10 1 -8 11q8 45 39 72t75 27q50 0 80 -30t30 -76q0 -30 -9.5 -52t-34.5 -52l-31 -37q-15 -19 -19 -30t-4 -32v-25q0 -10 -10 -10zM205 123v28q0 10 10 10h19q10 0 10 -10v-28q0 -10 -10 -10h-19q-10 0 -10 10z" />
    <glyph glyph-name="IJ" unicode="IJ" horiz-adv-x="695" 
d="M282 34q-8 5 -3 14l8 9q6 6 15 1q52 -39 114 -39q153 0 153 173v478q0 10 10 10h11q10 0 10 -10v-479q0 -100 -47.5 -150.5t-136.5 -50.5q-75 0 -134 44zM102 10v660q0 10 10 10h11q10 0 10 -10v-660q0 -10 -10 -10h-11q-10 0 -10 10z" />
    <glyph glyph-name="ij" unicode="ij" horiz-adv-x="460" 
d="M127 620h-24q-10 0 -10 10v40q0 10 10 10h24q10 0 10 -10v-40q0 -10 -10 -10zM120 0h-10q-10 0 -10 10v454q0 10 10 10h10q10 0 10 -10v-454q0 -10 -10 -10zM357 620h-24q-10 0 -10 10v40q0 10 10 10h24q10 0 10 -10v-40q0 -10 -10 -10zM253 -180h-4q-10 0 -10 10v8
q0 10 10 10h4q46 0 61.5 16t15.5 65v535q0 10 10 10h10q10 0 10 -10v-535q0 -63 -23 -86t-84 -23z" />
    <glyph glyph-name="napostrophe" unicode="&#x22;n" horiz-adv-x="538" 
d="M434 0h-10q-10 0 -10 10v284q0 162 -139 162q-63 0 -104 -40t-41 -107v-299q0 -10 -10 -10h-10q-10 0 -10 10v454q0 10 10 10h10q10 0 10 -10v-67h1q18 41 56.5 64t89.5 23q81 0 124 -46.5t43 -136.5v-291q0 -10 -10 -10zM56 561v109q0 10 9 10h11q9 0 9 -10v-64
q0 -15 -5 -28l-7 -19q-2 -4 -6 -6t-7.5 0t-3.5 8z" />
    <glyph glyph-name="f_f" unicode="ff" horiz-adv-x="598" 
d="M136 0h-10q-10 0 -10 10v430q0 6 -6 6h-58q-10 0 -10 10v8q0 10 10 10h58q6 0 6 6v61q0 86 25 112q25 27 97 27h21q10 0 10 -10v-8q0 -10 -10 -10h-17q-61 0 -79 -19q-17 -19 -17 -82v-71q0 -6 6 -6h107q10 0 10 -10v-8q0 -10 -10 -10h-107q-6 0 -6 -6v-430
q0 -10 -10 -10zM435 0h-10q-10 0 -10 10v430q0 6 -6 6h-58q-10 0 -10 10v8q0 10 10 10h58q6 0 6 6v61q0 86 25 112q26 27 97 27h21q10 0 10 -10v-8q0 -10 -10 -10h-17q-61 0 -79 -19q-17 -19 -17 -82v-71q0 -6 6 -6h107q10 0 10 -10v-8q0 -10 -10 -10h-107q-6 0 -6 -6v-430
q0 -10 -10 -10z" />
    <glyph glyph-name="fi" unicode="fi" horiz-adv-x="529" 
d="M136 0h-10q-10 0 -10 10v430q0 6 -6 6h-58q-10 0 -10 10v8q0 10 10 10h58q6 0 6 6v61q0 86 25 112q25 27 97 27h21q10 0 10 -10v-8q0 -10 -10 -10h-17q-61 0 -79 -19q-17 -19 -17 -82v-71q0 -6 6 -6h107q10 0 10 -10v-8q0 -10 -10 -10h-107q-6 0 -6 -6v-430
q0 -10 -10 -10zM426 620h-24q-10 0 -10 10v40q0 10 10 10h24q10 0 10 -10v-40q0 -10 -10 -10zM419 0h-10q-10 0 -10 10v454q0 10 10 10h10q10 0 10 -10v-454q0 -10 -10 -10z" />
    <glyph glyph-name="fl" unicode="fl" horiz-adv-x="548" 
d="M136 0h-10q-10 0 -10 10v430q0 6 -6 6h-58q-10 0 -10 10v8q0 10 10 10h58q6 0 6 6v61q0 86 25 112q25 27 97 27h21q10 0 10 -10v-8q0 -10 -10 -10h-17q-61 0 -79 -19q-17 -19 -17 -82v-71q0 -6 6 -6h107q10 0 10 -10v-8q0 -10 -10 -10h-107q-6 0 -6 -6v-430
q0 -10 -10 -10zM498 -2h-15q-46 0 -65.5 23t-19.5 76v573q0 10 10 10h10q10 0 10 -10v-573q0 -39 12.5 -55t42.5 -16h15q10 0 10 -10v-8q0 -10 -10 -10z" />
    <glyph glyph-name="f_f_i" unicode="ffi" horiz-adv-x="828" 
d="M136 0h-10q-10 0 -10 10v430q0 6 -6 6h-58q-10 0 -10 10v8q0 10 10 10h58q6 0 6 6v61q0 86 25 112q25 27 97 27h21q10 0 10 -10v-8q0 -10 -10 -10h-17q-61 0 -79 -19q-17 -19 -17 -82v-71q0 -6 6 -6h107q10 0 10 -10v-8q0 -10 -10 -10h-107q-6 0 -6 -6v-430
q0 -10 -10 -10zM435 0h-10q-10 0 -10 10v430q0 6 -6 6h-58q-10 0 -10 10v8q0 10 10 10h58q6 0 6 6v61q0 86 25 112q26 27 97 27h21q10 0 10 -10v-8q0 -10 -10 -10h-17q-61 0 -79 -19q-17 -19 -17 -82v-71q0 -6 6 -6h107q10 0 10 -10v-8q0 -10 -10 -10h-107q-6 0 -6 -6v-430
q0 -10 -10 -10zM725 620h-24q-10 0 -10 10v40q0 10 10 10h24q10 0 10 -10v-40q0 -10 -10 -10zM718 0h-10q-10 0 -10 10v454q0 10 10 10h10q10 0 10 -10v-454q0 -10 -10 -10z" />
    <glyph glyph-name="f_f_l" unicode="ffl" horiz-adv-x="847" 
d="M136 0h-10q-10 0 -10 10v430q0 6 -6 6h-58q-10 0 -10 10v8q0 10 10 10h58q6 0 6 6v61q0 86 25 112q25 27 97 27h21q10 0 10 -10v-8q0 -10 -10 -10h-17q-61 0 -79 -19q-17 -19 -17 -82v-71q0 -6 6 -6h107q10 0 10 -10v-8q0 -10 -10 -10h-107q-6 0 -6 -6v-430
q0 -10 -10 -10zM435 0h-10q-10 0 -10 10v430q0 6 -6 6h-58q-10 0 -10 10v8q0 10 10 10h58q6 0 6 6v61q0 86 25 112q26 27 97 27h21q10 0 10 -10v-8q0 -10 -10 -10h-17q-61 0 -79 -19q-17 -19 -17 -82v-71q0 -6 6 -6h107q10 0 10 -10v-8q0 -10 -10 -10h-107q-6 0 -6 -6v-430
q0 -10 -10 -10zM797 -2h-15q-46 0 -65.5 23t-19.5 76v573q0 10 10 10h10q10 0 10 -10v-573q0 -39 12.5 -55t42.5 -16h15q10 0 10 -10v-8q0 -10 -10 -10z" />
    <glyph glyph-name=".notdef" horiz-adv-x="464" 
d="M0 10v660q0 10 10 10h444q10 0 10 -10v-660q0 -10 -10 -10h-444q-10 0 -10 10zM30 646v-612q0 -6 6 -6h392q6 0 6 6v612q0 6 -6 6h-392q-6 0 -6 -6zM229 217h-8q-10 0 -10 10v25q0 44 24 72l31 37q26 32 34.5 50.5t8.5 43.5q0 36 -23 58t-59 22q-70 0 -87 -77
q-2 -9 -12 -8l-7 1q-10 1 -8 11q8 45 39 72t75 27q50 0 80 -30t30 -76q0 -30 -9.5 -52t-34.5 -52l-31 -37q-15 -19 -19 -30t-4 -32v-25q0 -10 -10 -10zM205 123v28q0 10 10 10h19q10 0 10 -10v-28q0 -10 -10 -10h-19q-10 0 -10 10z" />
    <glyph glyph-name=".null" horiz-adv-x="0" 
 />
    <glyph glyph-name="nonmarkingreturn" horiz-adv-x="333" 
 />
    <glyph glyph-name="NULL" horiz-adv-x="500" 
 />
    <glyph glyph-name="NULL" horiz-adv-x="500" 
 />
    <glyph glyph-name="CR.001" unicode="&#xd;" horiz-adv-x="0" 
 />
    <glyph glyph-name="space" unicode=" " horiz-adv-x="250" 
 />
    <glyph glyph-name="exclam" unicode="!" horiz-adv-x="248" 
d="M129 170h-8q-10 0 -10 10l-2 490q0 10 10 10h12q10 0 10 -10l-2 -490q0 -10 -10 -10zM100 10v50q0 10 10 10h28q10 0 10 -10v-50q0 -10 -10 -10h-28q-10 0 -10 10z" />
    <glyph glyph-name="quotedbl" unicode="&#x22;" horiz-adv-x="300" 
d="M210 536h-10q-10 0 -10 10v124q0 10 10 10h10q10 0 10 -10v-124q0 -10 -10 -10zM100 536h-10q-10 0 -10 10v124q0 10 10 10h10q10 0 10 -10v-124q0 -10 -10 -10z" />
    <glyph glyph-name="numbersign" unicode="#" 
d="M99 10l29 213h-87q-10 0 -10 10v7q0 10 10 10h90l27 197h-93q-10 0 -10 10v7q0 10 10 10h97l27 196q1 10 11 10h10q10 0 9 -10l-27 -196h167l27 196q1 10 11 10h10q10 0 9 -10l-27 -196h92q10 0 10 -10v-7q0 -10 -10 -10h-96l-27 -197h99q10 0 10 -10v-7q0 -10 -10 -10
h-102l-29 -213q-1 -10 -11 -10h-10q-10 0 -9 10l29 213h-167l-29 -213q-1 -10 -11 -10h-10q-10 0 -9 10zM188 447l-27 -197h167l27 197h-167z" />
    <glyph glyph-name="dollar" unicode="$" 
d="M70 44q-9 6 -1 14l7 8q4 6 14 1q74 -46 165 -49v313q-171 25 -171 176q0 80 46 128.5t125 53.5v52q0 10 10 10h8q10 0 10 -10v-51q79 -5 143 -42q9 -5 3 -14l-5 -7q-6 -7 -14 -2q-68 34 -127 37v-306q179 -27 179 -175q0 -82 -47 -132.5t-132 -57.5v-52q0 -10 -10 -10h-8
q-10 0 -10 10v51q-102 1 -185 54zM255 360v301q-65 -4 -103 -45t-38 -106q0 -128 141 -150zM283 327v-309q70 5 109.5 47t39.5 113q0 66 -34.5 101.5t-114.5 47.5z" />
    <glyph glyph-name="percent" unicode="%" horiz-adv-x="786" 
d="M180 0l393 680q6 10 14 10h10q10 0 6 -10l-393 -680q-6 -10 -14 -10h-10q-10 0 -6 10zM108 401q-8 27 -8 108t8 108q23 71 102 71t102 -71q8 -27 8 -108t-8 -108q-23 -71 -102 -71t-102 71zM284 406q8 26 8 103t-8 103q-17 50 -74 50t-74 -50q-8 -26 -8 -103t8 -103
q17 -50 74 -50t74 50zM474 63q-8 27 -8 108t8 108q23 71 102 71t102 -71q8 -27 8 -108t-8 -108q-23 -71 -102 -71t-102 71zM502 68q17 -50 74 -50t74 50q8 26 8 103t-8 103q-17 50 -74 50t-74 -50q-8 -26 -8 -103t8 -103z" />
    <glyph glyph-name="ampersand" unicode="&#x26;" horiz-adv-x="606" 
d="M83 157q0 56 35.5 109t109.5 114q-61 79 -80 113q-20 37 -20 69q0 56 37.5 92t96.5 36t96.5 -36t37.5 -92q0 -46 -27 -86q-25 -37 -101 -101l172 -227l73 94q6 8 14 2l6 -4q10 -6 2 -14l-78 -101l57 -75q16 -22 37 -22h16q10 0 10 -10v-8q0 -10 -10 -10h-17
q-21 0 -33.5 7t-27.5 26l-51 67q-49 -58 -93 -84t-97 -26q-75 0 -120 46t-45 121zM251 398q71 58 93 93q22 34 22 71q0 44 -29 72t-75 28t-75 -28t-29 -72q0 -25 17 -56q13 -22 76 -108zM113 157q0 -63 36 -101t99 -38q47 0 86 24t87 81l-176 234q-69 -56 -100.5 -102.5
t-31.5 -97.5z" />
    <glyph glyph-name="quotesingle" unicode="'" horiz-adv-x="190" 
d="M100 536h-10q-10 0 -10 10v124q0 10 10 10h10q10 0 10 -10v-124q0 -10 -10 -10z" />
    <glyph glyph-name="parenleft" unicode="(" horiz-adv-x="269" 
d="M188 -74q-103 190 -103 402t103 402q4 10 13 10h9q11 0 7 -10q-102 -194 -102 -402t102 -402q4 -10 -7 -10h-9q-9 0 -13 10z" />
    <glyph glyph-name="parenright" unicode=")" horiz-adv-x="269" 
d="M57 -74q102 194 102 402t-102 402q-4 10 7 10h9q9 0 13 -10q103 -190 103 -402t-103 -402q-4 -10 -13 -10h-9q-11 0 -7 10z" />
    <glyph glyph-name="asterisk" unicode="*" horiz-adv-x="356" 
d="M187 406h-6q-10 0 -10 10v104l-90 -51q-9 -6 -14 3l-3 5q-6 10 4 14l89 52l-89 52q-10 4 -4 14l3 5q5 9 14 3l90 -52v105q0 10 10 10h6q10 0 10 -10v-105l90 52q9 6 14 -3l3 -5q6 -10 -4 -14l-90 -52l90 -52q10 -4 4 -14l-3 -5q-5 -9 -14 -3l-90 51v-104q0 -10 -10 -10z
" />
    <glyph glyph-name="plus" unicode="+" 
d="M246 94v162q0 6 -6 6h-161q-10 0 -10 10v8q0 10 10 10h161q6 0 6 6v162q0 10 10 10h10q10 0 10 -10v-162q0 -6 6 -6h161q10 0 10 -10v-8q0 -10 -10 -10h-161q-6 0 -6 -6v-162q0 -10 -10 -10h-10q-10 0 -10 10z" />
    <glyph glyph-name="comma" unicode="," horiz-adv-x="198" 
d="M78 -94v154q0 10 10 10h22q10 0 10 -10v-58q0 -12 -4 -23l-21 -73q-2 -5 -6 -7t-7.5 0t-3.5 7z" />
    <glyph glyph-name="hyphen" unicode="-" horiz-adv-x="368" 
d="M308 253h-248q-10 0 -10 10v8q0 10 10 10h248q10 0 10 -10v-8q0 -10 -10 -10z" />
    <glyph glyph-name="period" unicode="." horiz-adv-x="204" 
d="M78 10v50q0 10 10 10h28q10 0 10 -10v-50q0 -10 -10 -10h-28q-10 0 -10 10z" />
    <glyph glyph-name="slash" unicode="/" horiz-adv-x="399" 
d="M77 0l221 680q3 10 13 10h10q10 0 7 -10l-221 -680q-3 -10 -13 -10h-10q-10 0 -7 10z" />
    <glyph glyph-name="zero" unicode="0" 
d="M95 107q-17 54 -17 233t17 233q37 117 166 117t166 -117q17 -54 17 -233t-17 -233q-37 -117 -166 -117t-166 117zM124 114q32 -96 137 -96t137 96q16 48 16 226t-16 226q-32 96 -137 96t-137 -96q-16 -48 -16 -226t16 -226z" />
    <glyph glyph-name="one" unicode="1" 
d="M272 10v629h-2l-131 -95q-4 -3 -7.5 -1.5t-3.5 7.5v12q0 9 7 15l133 97q7 6 14 6h10q10 0 10 -10v-660q0 -10 -10 -10h-10q-10 0 -10 10z" />
    <glyph glyph-name="two" unicode="2" 
d="M88 10v2q0 8 4 12l256 344q59 80 59 148q0 65 -40.5 105.5t-104.5 40.5q-60 0 -98 -35.5t-48 -98.5q-1 -10 -13 -7l-7 2q-10 3 -8 11q10 69 57 112.5t117 43.5q77 0 126 -49q49 -48 49 -125q0 -76 -70 -170l-236 -317v-1h296q10 0 10 -10v-8q0 -10 -10 -10h-329
q-10 0 -10 10z" />
    <glyph glyph-name="three" unicode="3" 
d="M78 128q-3 9 7 12l9 2q10 3 13 -7q14 -52 53 -84.5t103 -32.5q69 0 111.5 45t42.5 117q0 70 -43 116t-112 46h-31q-10 0 -10 10v8q0 10 10 10h31q63 0 102.5 41t39.5 106q0 66 -39.5 105.5t-105.5 39.5q-60 0 -97 -31t-46 -81q-1 -10 -11 -8l-10 2q-10 1 -8 12
q9 57 55.5 95.5t116.5 38.5q78 0 126 -49q49 -48 49 -124q0 -111 -98 -159v-2q48 -19 79.5 -65t31.5 -111q0 -83 -51 -137q-51 -53 -133 -53q-79 0 -126 41q-46 43 -59 97z" />
    <glyph glyph-name="four" unicode="4" 
d="M330 152h-259q-10 0 -10 10v6q0 2 2 10l222 494q5 8 13 8h12q10 0 6 -9l-219 -490v-1h233q6 0 6 6v194q0 10 10 10h10q10 0 10 -10v-194q0 -6 6 -6h85q10 0 10 -10v-8q0 -10 -10 -10h-85q-6 0 -6 -6v-136q0 -10 -10 -10h-10q-10 0 -10 10v136q0 6 -6 6z" />
    <glyph glyph-name="five" unicode="5" 
d="M103 136q-2 11 7 12l9 2q11 3 13 -8q7 -57 45.5 -90.5t101.5 -33.5q47 0 81.5 23t49.5 66q12 36 12 110q0 67 -14 112q-27 87 -126 87q-51 0 -87.5 -28t-48.5 -71q-3 -10 -10 -10h-10q-10 0 -10 10v353q0 10 10 10h303q10 0 10 -10v-8q0 -10 -10 -10h-277q-6 0 -6 -6
v-276h1q16 32 52.5 53t82.5 21q120 0 154 -105q16 -48 16 -122q0 -73 -14 -117q-36 -110 -159 -110q-74 0 -121 40.5t-55 105.5z" />
    <glyph glyph-name="six" unicode="6" 
d="M70 193q0 66 44 152l165 327q5 8 13 8h12q10 0 6 -9l-154 -306l2 -1q35 32 103 32q85 0 138 -56t53 -147t-53 -147t-138 -56t-138 56t-53 147zM145 319q-45 -49 -45 -126t45 -126t116 -49t116 49t45 126t-45 126t-116 49t-116 -49z" />
    <glyph glyph-name="seven" unicode="7" 
d="M165 11l252 638v3h-281q-6 0 -6 -6v-101q0 -10 -10 -10h-10q-10 0 -10 10v125q0 10 10 10h329q10 0 10 -10v-14q0 -2 -2 -10l-252 -637q-5 -9 -13 -9h-12q-10 0 -5 11z" />
    <glyph glyph-name="eight" unicode="8" 
d="M69 181q0 62 31.5 109t86.5 68v2q-46 21 -72.5 62t-26.5 95q0 76 48 124q49 49 125 49t124 -49q49 -48 49 -124q0 -54 -26.5 -95t-72.5 -62v-2q55 -21 86.5 -68t31.5 -109q0 -84 -54 -138q-55 -53 -138 -53t-138 53q-54 54 -54 138zM404 517q0 64 -39.5 104.5
t-103.5 40.5t-103.5 -40.5t-39.5 -104.5q0 -63 40 -104t103 -41t103 41t40 104zM144 297q-45 -47 -45 -116q0 -71 45 -117q46 -46 117 -46t116 46q46 46 46 117q0 69 -45 116t-117 47t-117 -47z" />
    <glyph glyph-name="nine" unicode="9" 
d="M212 9l154 306l-2 1q-35 -32 -103 -32q-85 0 -138 56t-53 147t53 147t138 56t138 -56t53 -147q0 -66 -44 -152l-165 -327q-5 -8 -13 -8h-12q-10 0 -6 9zM145 361q45 -49 116 -49t116 49t45 126t-45 126t-116 49t-116 -49t-45 -126t45 -126z" />
    <glyph glyph-name="colon" unicode=":" horiz-adv-x="212" 
d="M120 404h-28q-10 0 -10 10v50q0 10 10 10h28q10 0 10 -10v-50q0 -10 -10 -10zM82 10v50q0 10 10 10h28q10 0 10 -10v-50q0 -10 -10 -10h-28q-10 0 -10 10z" />
    <glyph glyph-name="semicolon" unicode=";" horiz-adv-x="212" 
d="M120 404h-28q-10 0 -10 10v50q0 10 10 10h28q10 0 10 -10v-50q0 -10 -10 -10zM85 -94v154q0 10 10 10h22q10 0 10 -10v-58q0 -12 -4 -23l-21 -73q-2 -5 -6 -7t-7.5 0t-3.5 7z" />
    <glyph glyph-name="less" unicode="&#x3c;" 
d="M443 114l-364 147q-10 4 -10 12v6q0 8 10 12l364 147q10 3 10 -7v-8q0 -9 -10 -13l-329 -133v-2l329 -133q10 -4 10 -13v-8q0 -10 -10 -7z" />
    <glyph glyph-name="equal" unicode="=" 
d="M443 358h-364q-10 0 -10 10v8q0 10 10 10h364q10 0 10 -10v-8q0 -10 -10 -10zM443 166h-364q-10 0 -10 10v8q0 10 10 10h364q10 0 10 -10v-8q0 -10 -10 -10z" />
    <glyph glyph-name="greater" unicode="&#x3e;" 
d="M443 261l-364 -147q-10 -3 -10 7v8q0 9 10 13l329 133v2l-329 133q-10 4 -10 13v8q0 10 10 7l364 -147q10 -4 10 -12v-6q0 -8 -10 -12z" />
    <glyph glyph-name="question" unicode="?" horiz-adv-x="439" 
d="M205 176v38q0 60 35 104l45 56q46 57 58 85q14 33 14 70q0 62 -37.5 97.5t-97.5 35.5q-56 0 -92.5 -33.5t-47.5 -94.5q-2 -9 -12 -8l-9 2q-10 1 -8 11q10 68 55.5 109.5t113.5 41.5q74 0 119.5 -44.5t45.5 -116.5q0 -43 -15 -77q-15 -33 -54 -81l-45 -56q-24 -30 -31 -49
t-7 -52v-38q0 -10 -10 -10h-10q-10 0 -10 10zM196 10v50q0 10 10 10h28q10 0 10 -10v-50q0 -10 -10 -10h-28q-10 0 -10 10z" />
    <glyph glyph-name="at" unicode="@" horiz-adv-x="881" 
d="M51 267q0 174 109 283q110 110 283 110q172 0 282 -110t110 -283q0 -104 -39.5 -157t-108.5 -53q-41 0 -72.5 23t-43.5 62h-1q-37 -85 -140 -85q-108 0 -139 100q-13 40 -13 104t13 104q31 100 139 100q90 0 128 -62h2v43q0 10 10 10h10q10 0 10 -10v-244q0 -55 28 -86
t71 -31q54 0 85 45t31 137q0 163 -101 264t-261 101q-161 0 -262 -101q-100 -100 -100 -264q0 -166 100 -266q101 -101 262 -101q134 0 220 49q8 5 13 -4l4 -7q5 -8 -4 -13q-94 -53 -233 -53q-173 0 -283 110q-109 109 -109 285zM320 164q25 -79 114 -79t114 79q12 36 12 97
t-12 97q-25 79 -114 79t-114 -79q-12 -36 -12 -97t12 -97z" />
    <glyph glyph-name="A" unicode="A" horiz-adv-x="587" 
d="M40 10l240 660q3 10 11 10h13q8 0 11 -10l238 -660q3 -10 -7 -10h-14q-9 0 -13 10l-66 185h-313l-67 -185q-4 -10 -13 -10h-13q-10 0 -7 10zM296 627l-146 -403h292l-144 403h-2z" />
    <glyph glyph-name="B" unicode="B" horiz-adv-x="599" 
d="M102 10v660q0 10 10 10h218q90 0 140.5 -46.5t50.5 -127.5q0 -62 -30.5 -103t-85.5 -54v-2q47 -6 87 -50q40 -43 40 -117q0 -83 -52.5 -131.5t-145.5 -48.5h-222q-10 0 -10 10zM139 361h191q76 0 118 39t42 106q0 69 -41.5 107t-118.5 38h-191q-6 0 -6 -6v-278q0 -6 6 -6
zM133 326v-291q0 -6 6 -6h195q81 0 124 39.5t43 111.5t-43.5 112t-123.5 40h-195q-6 0 -6 -6z" />
    <glyph glyph-name="C" unicode="C" horiz-adv-x="548" 
d="M88 135q-18 54 -18 205t18 205q46 145 205 145q137 0 194 -116q5 -9 -2 -13l-10 -5q-8 -5 -13 4q-56 101 -169 101q-135 0 -175 -124q-17 -53 -17 -197t17 -197q40 -124 175 -124q113 0 169 101q5 9 13 4l10 -5q7 -4 2 -13q-57 -116 -194 -116q-159 0 -205 145z" />
    <glyph glyph-name="D" unicode="D" horiz-adv-x="622" 
d="M102 10v660q0 10 10 10h200q170 0 213 -132q19 -57 19 -208t-19 -208q-43 -132 -213 -132h-200q-10 0 -10 10zM133 645v-610q0 -6 6 -6h173q147 0 183 110q18 55 18 201t-18 201q-36 110 -183 110h-173q-6 0 -6 -6z" />
    <glyph glyph-name="E" unicode="E" horiz-adv-x="550" 
d="M102 10v660q0 10 10 10h374q10 0 10 -10v-9q0 -10 -10 -10h-347q-6 0 -6 -6v-279q0 -6 6 -6h300q10 0 10 -10v-9q0 -10 -10 -10h-300q-6 0 -6 -6v-290q0 -6 6 -6h347q10 0 10 -10v-9q0 -10 -10 -10h-374q-10 0 -10 10z" />
    <glyph glyph-name="F" unicode="F" horiz-adv-x="546" 
d="M102 10v660q0 10 10 10h374q10 0 10 -10v-9q0 -10 -10 -10h-347q-6 0 -6 -6v-286q0 -6 6 -6h300q10 0 10 -10v-9q0 -10 -10 -10h-300q-6 0 -6 -6v-308q0 -10 -10 -10h-11q-10 0 -10 10z" />
    <glyph glyph-name="G" unicode="G" horiz-adv-x="602" 
d="M89 138q-19 56 -19 202t19 202q48 148 212 148q145 0 202 -115q6 -10 -2 -15l-9 -5q-9 -4 -13 3q-55 103 -178 103q-140 0 -182 -127q-18 -54 -18 -194t18 -194q42 -127 182 -127t182 127q18 54 18 151q0 6 -6 6h-173q-10 0 -10 10v9q0 10 10 10h200q10 0 10 -10v-32
q0 -96 -19 -152q-48 -148 -212 -148t-212 148z" />
    <glyph glyph-name="H" unicode="H" horiz-adv-x="647" 
d="M102 10v660q0 10 10 10h11q10 0 10 -10v-304q0 -6 6 -6h369q6 0 6 6v304q0 10 10 10h11q10 0 10 -10v-660q0 -10 -10 -10h-11q-10 0 -10 10v315q0 6 -6 6h-369q-6 0 -6 -6v-315q0 -10 -10 -10h-11q-10 0 -10 10z" />
    <glyph glyph-name="I" unicode="I" horiz-adv-x="235" 
d="M102 10v660q0 10 10 10h11q10 0 10 -10v-660q0 -10 -10 -10h-11q-10 0 -10 10z" />
    <glyph glyph-name="J" unicode="J" horiz-adv-x="460" 
d="M52 34q-8 5 -3 14l8 9q6 6 15 1q52 -39 114 -39q153 0 153 173v478q0 10 10 10h11q10 0 10 -10v-479q0 -100 -47.5 -150.5t-136.5 -50.5q-75 0 -134 44z" />
    <glyph glyph-name="K" unicode="K" horiz-adv-x="582" 
d="M102 10v660q0 10 10 10h11q10 0 10 -10v-421l353 421q9 10 17 10h18q5 0 6.5 -3t-1.5 -7l-217 -258l231 -402q6 -10 -5 -10h-17q-8 0 -14 10l-217 377l-154 -184v-193q0 -10 -10 -10h-11q-10 0 -10 10z" />
    <glyph glyph-name="L" unicode="L" horiz-adv-x="524" 
d="M102 10v660q0 10 10 10h11q10 0 10 -10v-635q0 -6 6 -6h347q10 0 10 -10v-9q0 -10 -10 -10h-374q-10 0 -10 10z" />
    <glyph glyph-name="M" unicode="M" horiz-adv-x="754" 
d="M102 10v660q0 10 10 10h14q9 0 13 -10l237 -522h3l236 522q4 10 13 10h14q10 0 10 -10v-660q0 -10 -10 -10h-11q-10 0 -10 10v590h-3l-222 -486q-4 -10 -17 -10h-4q-13 0 -17 10l-222 486h-3v-590q0 -10 -10 -10h-11q-10 0 -10 10z" />
    <glyph glyph-name="N" unicode="N" horiz-adv-x="648" 
d="M102 10v660q0 10 10 10h9q11 0 17 -10l374 -603h3v603q0 10 10 10h11q10 0 10 -10v-660q0 -10 -10 -10h-9q-11 0 -17 10l-374 603h-3v-603q0 -10 -10 -10h-11q-10 0 -10 10z" />
    <glyph glyph-name="O" unicode="O" horiz-adv-x="602" 
d="M90 138q-20 62 -20 202t20 202q48 148 211 148t211 -148q20 -62 20 -202t-20 -202q-48 -148 -211 -148t-211 148zM482 146q19 56 19 194t-19 194q-42 127 -181 127t-181 -127q-19 -56 -19 -194t19 -194q42 -127 181 -127t181 127z" />
    <glyph glyph-name="P" unicode="P" horiz-adv-x="579" 
d="M123 0h-11q-10 0 -10 10v660q0 10 10 10h215q96 0 149.5 -48.5t53.5 -135.5t-53.5 -135.5t-149.5 -48.5h-188q-6 0 -6 -6v-296q0 -10 -10 -10zM139 341h188q84 0 128 40t44 115t-44 115t-128 40h-188q-6 0 -6 -6v-298q0 -6 6 -6z" />
    <glyph glyph-name="Q" unicode="Q" horiz-adv-x="602" 
d="M542 -23l-7 -6q-8 -6 -14 1l-65 73q-55 -55 -155 -55q-163 0 -211 148q-20 62 -20 202t20 202q48 148 211 148t211 -148q20 -62 20 -202t-20 -202q-14 -42 -37 -72l67 -75q6 -8 0 -14zM301 19q86 0 134 49l-84 94q-6 8 0 14l7 6q7 6 14 -1l82 -92q17 25 28 57
q19 56 19 194t-19 194q-42 127 -181 127t-181 -127q-19 -56 -19 -194t19 -194q42 -127 181 -127z" />
    <glyph glyph-name="R" unicode="R" horiz-adv-x="613" 
d="M530 0h-17q-7 0 -12 9l-149 310q-6 -1 -27 -1h-186q-6 0 -6 -6v-302q0 -10 -10 -10h-11q-10 0 -10 10v660q0 10 10 10h213q97 0 150 -47.5t53 -133.5q0 -72 -37.5 -117t-107.5 -59l152 -313q6 -10 -5 -10zM139 347h186q85 0 128.5 39t43.5 113t-43.5 113t-128.5 39h-186
q-6 0 -6 -6v-292q0 -6 6 -6z" />
    <glyph glyph-name="S" unicode="S" horiz-adv-x="600" 
d="M297 -10q-61 0 -120 22q-61 24 -94 52q-7 8 -1 14l8 9q6 7 14 1q88 -69 199 -69q90 0 142.5 43t52.5 116q0 64 -41 101t-136 49l-30 4q-192 26 -192 173q0 86 55.5 135.5t150.5 49.5q107 0 183 -52q10 -5 2 -14l-7 -9q-6 -7 -14 -2q-81 48 -166 48q-80 0 -126.5 -41.5
t-46.5 -111.5q0 -64 42 -100.5t136 -48.5l30 -4q191 -26 191 -174q0 -88 -61 -139.5t-171 -51.5z" />
    <glyph glyph-name="T" unicode="T" horiz-adv-x="513" 
d="M262 0h-11q-10 0 -10 10v635q0 6 -6 6h-203q-10 0 -10 10v9q0 10 10 10h449q10 0 10 -10v-9q0 -10 -10 -10h-203q-6 0 -6 -6v-635q0 -10 -10 -10z" />
    <glyph glyph-name="U" unicode="U" horiz-adv-x="632" 
d="M316 -10q-222 0 -222 243v437q0 10 10 10h11q10 0 10 -10v-438q0 -105 49 -159t142 -54q191 0 191 213v438q0 10 10 10h11q10 0 10 -10v-437q0 -120 -56.5 -181.5t-165.5 -61.5z" />
    <glyph glyph-name="V" unicode="V" horiz-adv-x="557" 
d="M292 0h-13q-8 0 -11 10l-230 654q-6 16 7 16h9q11 0 15 -10l217 -622h1l212 622q4 10 15 10h10q13 0 7 -16l-228 -654q-3 -10 -11 -10z" />
    <glyph glyph-name="W" unicode="W" horiz-adv-x="813" 
d="M607 0h-14q-8 0 -11 10l-171 604h-2l-172 -604q-3 -10 -11 -10h-14q-10 0 -11 10l-159 659q-3 11 8 11h11q13 0 14 -10l145 -611h2l169 611q3 10 12 10h13q9 0 12 -10l171 -611h2l143 611q3 10 14 10h11q11 0 8 -11l-159 -659q-1 -10 -11 -10z" />
    <glyph glyph-name="X" unicode="X" horiz-adv-x="533" 
d="M494 0h-18q-7 0 -12 8l-191 322h-1l-192 -322q-5 -8 -12 -8h-17q-11 0 -5 10l209 349l-186 311q-6 10 5 10h18q7 0 12 -8l168 -284h1l169 284q5 8 12 8h17q11 0 5 -10l-186 -311l209 -349q6 -10 -5 -10z" />
    <glyph glyph-name="Y" unicode="Y" horiz-adv-x="506" 
d="M261 0h-11q-10 0 -10 10v269l-207 389q-2 4 0 8t7 4h12q11 0 15 -10l189 -352h2l185 352q4 10 15 10h12q5 0 7 -4t0 -8l-206 -389v-269q0 -10 -10 -10z" />
    <glyph glyph-name="Z" unicode="Z" horiz-adv-x="543" 
d="M475 0h-408q-10 0 -10 10v9q0 6 6 15l383 616v1h-365q-10 0 -10 10v9q0 10 10 10h394q10 0 10 -10v-9q0 -6 -5 -14l-384 -617v-1h379q10 0 10 -10v-9q0 -10 -10 -10z" />
    <glyph glyph-name="bracketleft" unicode="[" horiz-adv-x="284" 
d="M224 -84h-98q-10 0 -10 10v804q0 10 10 10h98q10 0 10 -10v-8q0 -10 -10 -10h-72q-6 0 -6 -6v-756q0 -6 6 -6h72q10 0 10 -10v-8q0 -10 -10 -10z" />
    <glyph glyph-name="backslash" unicode="\" horiz-adv-x="399" 
d="M321 -10h-10q-10 0 -13 10l-221 680q-3 10 7 10h10q10 0 13 -10l221 -680q3 -10 -7 -10z" />
    <glyph glyph-name="bracketright" unicode="]" horiz-adv-x="284" 
d="M158 -84h-98q-10 0 -10 10v8q0 10 10 10h72q6 0 6 6v756q0 6 -6 6h-72q-10 0 -10 10v8q0 10 10 10h98q10 0 10 -10v-804q0 -10 -10 -10z" />
    <glyph glyph-name="asciicircum" unicode="^" 
d="M449 292h-9q-9 0 -13 10l-160 342h-2l-160 -342q-4 -10 -13 -10h-9q-11 0 -7 10l172 368q4 10 14 10h8q10 0 14 -10l172 -368q4 -10 -7 -10z" />
    <glyph glyph-name="underscore" unicode="_" horiz-adv-x="445" 
d="M445 -88v-28h-445v28h445z" />
    <glyph glyph-name="grave" unicode="`" horiz-adv-x="420" 
d="M263 560h-7q-10 0 -17 10l-85 120q-3 4 -1.5 7t6.5 3h15q10 0 16 -10l78 -120q7 -10 -5 -10z" />
    <glyph glyph-name="a" unicode="a" horiz-adv-x="509" 
d="M405 0h-10q-10 0 -10 10v57h-1q-13 -35 -53.5 -56t-99.5 -21q-75 0 -117 36t-42 102q0 136 176 136h131q6 0 6 6v61q0 70 -28.5 97.5t-103.5 27.5q-83 0 -124 -38q-7 -6 -14 -2l-7 6q-8 8 -1 14q47 48 146 48q88 0 125 -34t37 -119v-321q0 -10 -10 -10zM235 18
q66 0 108 34.5t42 87.5v90q0 6 -6 6h-129q-77 0 -112.5 -26.5t-35.5 -81.5q0 -53 34.5 -81.5t98.5 -28.5z" />
    <glyph glyph-name="b" unicode="b" horiz-adv-x="525" 
d="M282 -10q-110 0 -151 89h-1v-69q0 -10 -10 -10h-10q-10 0 -10 10v660q0 10 10 10h10q10 0 10 -10v-275h1q41 89 151 89q125 0 161 -113q17 -54 17 -134t-17 -134q-36 -113 -161 -113zM280 18q103 0 135 95q15 46 15 124q0 77 -15 124q-32 95 -135 95q-105 0 -137 -95
q-13 -39 -13 -124t13 -124q32 -95 137 -95z" />
    <glyph glyph-name="c" unicode="c" horiz-adv-x="468" 
d="M249 -10q-62 0 -106 31.5t-62 88.5q-16 51 -16 127t16 127q18 57 62 88.5t106 31.5q111 0 157 -96q5 -10 -5 -14l-7 -3q-9 -3 -13 4q-41 81 -132 81q-108 0 -139 -103q-15 -45 -15 -116t15 -116q31 -103 139 -103q91 0 132 81q4 7 13 4l7 -3q10 -4 5 -14
q-46 -96 -157 -96z" />
    <glyph glyph-name="d" unicode="d" horiz-adv-x="525" 
d="M415 0h-10q-10 0 -10 10v69h-1q-41 -89 -151 -89q-125 0 -161 113q-17 54 -17 134t17 134q36 113 161 113q110 0 151 -89h1v275q0 10 10 10h10q10 0 10 -10v-660q0 -10 -10 -10zM245 18q105 0 137 95q13 39 13 124t-13 124q-32 95 -137 95q-103 0 -135 -95
q-15 -47 -15 -124t15 -124q32 -95 135 -95z" />
    <glyph glyph-name="e" unicode="e" horiz-adv-x="494" 
d="M253 -10q-135 0 -174 122q-14 45 -14 126q0 82 14 126q19 58 62.5 89t105.5 31q129 0 168 -120q14 -44 14 -118q0 -10 -11 -10h-317q-6 0 -6 -7q0 -68 12 -107q35 -104 146 -104q93 0 143 69q6 8 14 2l6 -5q7 -6 1 -14q-56 -80 -164 -80zM101 264h292q6 0 6 6
q0 45 -11 83q-33 103 -141 103t-141 -103q-11 -38 -11 -83q0 -6 6 -6z" />
    <glyph glyph-name="f" unicode="f" horiz-adv-x="299" 
d="M136 0h-10q-10 0 -10 10v430q0 6 -6 6h-58q-10 0 -10 10v8q0 10 10 10h58q6 0 6 6v61q0 86 25 112q25 27 97 27h21q10 0 10 -10v-8q0 -10 -10 -10h-17q-61 0 -79 -19q-17 -19 -17 -82v-71q0 -6 6 -6h107q10 0 10 -10v-8q0 -10 -10 -10h-107q-6 0 -6 -6v-430
q0 -10 -10 -10z" />
    <glyph glyph-name="g" unicode="g" horiz-adv-x="517" 
d="M239 -190q-49 0 -90.5 19t-59.5 49q-6 9 2 14l8 5q8 5 14 -3q44 -56 126 -56q148 0 148 161v80h-1q-39 -89 -148 -89q-119 0 -157 113q-16 47 -16 134t16 134q38 113 157 113q109 0 148 -89h1v69q0 10 10 10h10q10 0 10 -10v-465q0 -94 -46.5 -141.5t-131.5 -47.5z
M241 18q101 0 133 95q13 36 13 124t-13 124q-32 95 -133 95q-100 0 -131 -94q-15 -45 -15 -125t15 -125q31 -94 131 -94z" />
    <glyph glyph-name="h" unicode="h" horiz-adv-x="538" 
d="M434 0h-10q-10 0 -10 10v284q0 162 -139 162q-63 0 -104 -40t-41 -107v-299q0 -10 -10 -10h-10q-10 0 -10 10v660q0 10 10 10h10q10 0 10 -10v-273h1q18 41 56.5 64t89.5 23q81 0 124 -46.5t43 -136.5v-291q0 -10 -10 -10z" />
    <glyph glyph-name="i" unicode="i" horiz-adv-x="230" 
d="M127 620h-24q-10 0 -10 10v40q0 10 10 10h24q10 0 10 -10v-40q0 -10 -10 -10zM120 0h-10q-10 0 -10 10v454q0 10 10 10h10q10 0 10 -10v-454q0 -10 -10 -10z" />
    <glyph glyph-name="j" unicode="j" horiz-adv-x="230" 
d="M23 -180h-4q-10 0 -10 10v8q0 10 10 10h4q46 0 61.5 16t15.5 65v535q0 10 10 10h10q10 0 10 -10v-535q0 -63 -23 -86t-84 -23zM127 620h-24q-10 0 -10 10v40q0 10 10 10h24q10 0 10 -10v-40q0 -10 -10 -10z" />
    <glyph glyph-name="k" unicode="k" horiz-adv-x="490" 
d="M440 0h-13q-9 0 -15 10l-165 269l-117 -140v-129q0 -10 -10 -10h-10q-10 0 -10 10v660q0 10 10 10h10q10 0 10 -10v-488l237 283q7 9 16 9h15q5 0 6.5 -3t-1.5 -7l-136 -162l179 -292q2 -4 0 -7t-6 -3z" />
    <glyph glyph-name="l" unicode="l" horiz-adv-x="249" 
d="M199 -2h-15q-46 0 -65.5 23t-19.5 76v573q0 10 10 10h10q10 0 10 -10v-573q0 -39 12.5 -55t42.5 -16h15q10 0 10 -10v-8q0 -10 -10 -10z" />
    <glyph glyph-name="m" unicode="m" horiz-adv-x="852" 
d="M748 0h-10q-10 0 -10 10v284q0 162 -139 162q-63 0 -104 -40t-41 -107v-299q0 -10 -10 -10h-10q-10 0 -10 10v284q0 162 -139 162q-63 0 -104 -40t-41 -107v-299q0 -10 -10 -10h-10q-10 0 -10 10v454q0 10 10 10h10q10 0 10 -10v-67h1q18 41 56.5 64t89.5 23
q123 0 156 -102h1q39 102 157 102q81 0 124 -46.5t43 -136.5v-291q0 -10 -10 -10z" />
    <glyph glyph-name="n" unicode="n" horiz-adv-x="538" 
d="M434 0h-10q-10 0 -10 10v284q0 162 -139 162q-63 0 -104 -40t-41 -107v-299q0 -10 -10 -10h-10q-10 0 -10 10v454q0 10 10 10h10q10 0 10 -10v-67h1q18 41 56.5 64t89.5 23q81 0 124 -46.5t43 -136.5v-291q0 -10 -10 -10z" />
    <glyph glyph-name="o" unicode="o" horiz-adv-x="502" 
d="M81 110q-16 48 -16 127t16 127q19 57 63 88.5t107 31.5t107 -31.5t63 -88.5q16 -48 16 -127t-16 -127q-19 -57 -63 -88.5t-107 -31.5t-107 31.5t-63 88.5zM393 120q14 45 14 117t-14 117q-16 49 -53 75.5t-89 26.5t-89 -26.5t-53 -75.5q-14 -45 -14 -117t14 -117
q16 -49 53 -75.5t89 -26.5t89 26.5t53 75.5z" />
    <glyph glyph-name="p" unicode="p" horiz-adv-x="525" 
d="M120 -180h-10q-10 0 -10 10v634q0 10 10 10h10q10 0 10 -10v-69h1q41 89 151 89q125 0 161 -113q17 -54 17 -134t-17 -134q-36 -113 -161 -113q-110 0 -151 89h-1v-249q0 -10 -10 -10zM280 18q103 0 135 95q15 46 15 124q0 77 -15 124q-32 95 -135 95q-105 0 -137 -95
q-13 -39 -13 -124t13 -124q32 -95 137 -95z" />
    <glyph glyph-name="q" unicode="q" horiz-adv-x="525" 
d="M415 -180h-10q-10 0 -10 10v249h-1q-41 -89 -151 -89q-125 0 -161 113q-17 54 -17 134t17 134q36 113 161 113q110 0 151 -89h1v69q0 10 10 10h10q10 0 10 -10v-634q0 -10 -10 -10zM245 18q105 0 137 95q13 39 13 124t-13 124q-32 95 -137 95q-103 0 -135 -95
q-15 -47 -15 -124t15 -124q32 -95 135 -95z" />
    <glyph glyph-name="r" unicode="r" horiz-adv-x="384" 
d="M120 0h-10q-10 0 -10 10v454q0 10 10 10h10q10 0 10 -10v-71h1q12 42 45.5 66.5t83.5 24.5q54 0 94 -29q7 -4 2 -13l-6 -8q-5 -7 -15 -2q-39 24 -79 24q-63 0 -94.5 -49.5t-31.5 -131.5v-265q0 -10 -10 -10z" />
    <glyph glyph-name="s" unicode="s" horiz-adv-x="475" 
d="M246 -10q-98 0 -178 63q-7 7 0 14l7 7q6 6 14 0q74 -56 162 -56q67 0 103 29t36 80q0 47 -26 69.5t-96 30.5l-47 5q-134 14 -134 119q0 63 42.5 98t117.5 35q80 0 148 -40q10 -5 2 -14l-4 -6q-5 -8 -14 -3q-72 35 -135 35q-62 0 -94.5 -27t-32.5 -75q0 -43 29 -65.5
t94 -29.5l47 -5q133 -13 133 -122q0 -67 -45.5 -104.5t-128.5 -37.5z" />
    <glyph glyph-name="t" unicode="t" horiz-adv-x="306" 
d="M252 -2h-17q-66 0 -92.5 27.5t-26.5 96.5v318q0 6 -6 6h-58q-10 0 -10 10v8q0 10 10 10h58q6 0 6 6v140q0 10 10 10h10q10 0 10 -10v-140q0 -6 6 -6h100q10 0 10 -10v-8q0 -10 -10 -10h-100q-6 0 -6 -6v-316q0 -57 19 -77.5t71 -20.5h16q10 0 10 -10v-8q0 -10 -10 -10z
" />
    <glyph glyph-name="u" unicode="u" horiz-adv-x="531" 
d="M421 0h-10q-10 0 -10 10v67h-1q-17 -41 -55.5 -64t-88.5 -23q-165 0 -165 183v291q0 10 10 10h10q10 0 10 -10v-284q0 -84 33.5 -123t103.5 -39q62 0 102.5 40t40.5 107v299q0 10 10 10h10q10 0 10 -10v-454q0 -10 -10 -10z" />
    <glyph glyph-name="v" unicode="v" horiz-adv-x="460" 
d="M239 0h-12q-8 0 -11 10l-174 454q-3 10 7 10h12q9 0 13 -10l160 -416h1l157 416q4 10 13 10h12q10 0 7 -10l-174 -454q-3 -10 -11 -10z" />
    <glyph glyph-name="w" unicode="w" horiz-adv-x="728" 
d="M526 0h-8q-9 0 -12 10l-138 417h-1l-139 -417q-3 -10 -12 -10h-8q-9 0 -12 10l-148 454q-3 10 7 10h10q9 0 13 -10l135 -412h1l136 412q3 10 12 10h10q9 0 12 -10l139 -412h1l132 412q4 10 13 10h10q10 0 7 -10l-148 -454q-3 -10 -12 -10z" />
    <glyph glyph-name="x" unicode="x" horiz-adv-x="449" 
d="M406 0h-15q-9 0 -13 7l-147 218h-1l-148 -218q-4 -7 -13 -7h-14q-11 0 -5 10l164 240l-146 214q-6 10 5 10h14q9 0 13 -7l130 -192h1l131 192q4 7 13 7h13q11 0 5 -10l-146 -214l164 -240q6 -10 -5 -10z" />
    <glyph glyph-name="y" unicode="y" horiz-adv-x="460" 
d="M98 -180h-16q-10 0 -10 10v8q0 10 10 10h18q34 0 53 21q21 19 45 84l20 53l-176 458q-3 10 7 10h12q9 0 13 -10l160 -416h1l157 416q4 10 13 10h12q10 0 7 -10l-199 -519q-28 -76 -57 -100q-26 -25 -70 -25z" />
    <glyph glyph-name="z" unicode="z" horiz-adv-x="460" 
d="M392 0h-322q-10 0 -10 10v8q0 6 6 15l299 412v1h-282q-10 0 -10 10v8q0 10 10 10h309q10 0 10 -10v-8q0 -6 -6 -15l-299 -412v-1h295q10 0 10 -10v-8q0 -10 -10 -10z" />
    <glyph glyph-name="braceleft" unicode="{" horiz-adv-x="306" 
d="M246 -84h-23q-44 0 -63 22t-19 75v216q0 83 -51 87q-10 1 -10 10v8q0 9 10 10q51 4 51 87v212q0 53 19 75t63 22h23q10 0 10 -10v-8q0 -10 -10 -10h-24q-27 0 -39 -14.5t-12 -48.5v-207q0 -54 -9.5 -77.5t-33.5 -33.5v-2q24 -10 33.5 -33.5t9.5 -77.5v-211
q0 -34 12 -48.5t39 -14.5h24q10 0 10 -10v-8q0 -10 -10 -10z" />
    <glyph glyph-name="bar" unicode="|" horiz-adv-x="210" 
d="M110 -84h-10q-10 0 -10 10v804q0 10 10 10h10q10 0 10 -10v-804q0 -10 -10 -10z" />
    <glyph glyph-name="braceright" unicode="}" horiz-adv-x="306" 
d="M83 -84h-23q-10 0 -10 10v8q0 10 10 10h24q27 0 39 14.5t12 48.5v211q0 54 9.5 77.5t33.5 33.5v2q-24 10 -33.5 33.5t-9.5 77.5v207q0 34 -12 48.5t-39 14.5h-24q-10 0 -10 10v8q0 10 10 10h23q44 0 63 -22t19 -75v-212q0 -83 51 -87q10 -1 10 -10v-8q0 -9 -10 -10
q-51 -4 -51 -87v-216q0 -53 -19 -75t-63 -22z" />
    <glyph glyph-name="asciitilde" unicode="~" 
d="M352 224q-42 0 -95 41q-46 34 -78 34q-48 0 -86 -59q-5 -8 -14 -2l-5 3q-8 5 -3 14q39 71 109 71q42 0 95 -41q46 -34 78 -34q48 0 86 59q5 8 14 2l5 -3q8 -5 3 -14q-39 -71 -109 -71z" />
    <glyph glyph-name="uni00A0" unicode="&#xa0;" horiz-adv-x="250" 
 />
    <glyph glyph-name="exclamdown" unicode="&#xa1;" horiz-adv-x="248" 
d="M119 304h8q10 0 10 -10l2 -490q0 -10 -10 -10h-12q-10 0 -10 10l2 490q0 10 10 10zM148 464v-50q0 -10 -10 -10h-28q-10 0 -10 10v50q0 10 10 10h28q10 0 10 -10z" />
    <glyph glyph-name="cent" unicode="&#xa2;" 
d="M281 567v-83q107 -3 153 -96q5 -10 -5 -14l-7 -3q-9 -3 -13 4q-39 78 -128 81v-438q87 1 128 81q4 7 13 4l7 -3q10 -4 5 -14q-45 -93 -153 -96v-83q0 -10 -10 -10h-8q-10 0 -10 10v84q-113 11 -148 119q-16 51 -16 127t16 127q35 107 148 118v85q0 10 10 10h8
q10 0 10 -10zM134 121q28 -93 119 -102v436q-91 -11 -119 -102q-15 -45 -15 -116t15 -116z" />
    <glyph glyph-name="sterling" unicode="&#xa3;" 
d="M424 0h-314q-10 0 -10 10v8q0 5 5 10q26 27 34 47.5t8 59.5v167q0 6 -6 6h-51q-10 0 -10 10v8q0 10 10 10h51q6 0 6 6v185q0 77 38 120t103 43q53 0 89 -31.5t49 -86.5q2 -9 -7 -12l-9 -3q-11 -3 -12 7q-11 47 -40 72.5t-70 25.5q-52 0 -81.5 -33.5t-29.5 -100.5v-186
q0 -6 6 -6h143q10 0 10 -10v-8q0 -10 -10 -10h-143q-6 0 -6 -6v-167q0 -69 -37 -106v-1h284q10 0 10 -10v-8q0 -10 -10 -10z" />
    <glyph glyph-name="currency" unicode="&#xa4;" 
d="M475 120l-6 -6q-7 -7 -14 0l-68 67q-50 -41 -119 -41t-119 41l-68 -67q-7 -7 -14 0l-6 6q-7 7 0 14l68 67q-44 50 -44 122t44 122l-68 67q-7 7 0 14l6 6q7 7 14 0l68 -67q50 41 119 41t119 -41l68 67q7 7 14 0l6 -6q7 -7 0 -14l-68 -67q44 -50 44 -122t-44 -122l68 -67
q7 -7 0 -14zM158 212q44 -44 110 -44q65 0 109 44q44 46 44 111q0 66 -44 110q-43 45 -109 45t-110 -45q-43 -43 -43 -110t43 -111z" />
    <glyph glyph-name="yen" unicode="&#xa5;" 
d="M273 0h-10q-10 0 -10 10v157q0 6 -6 6h-137q-10 0 -10 10v7q0 10 10 10h137q6 0 6 6v70q0 6 -6 6h-137q-10 0 -10 10v7q0 10 10 10h128v1l-164 356q-8 14 8 14h8q12 0 16 -10l162 -352h2l160 352q4 10 16 10h8q16 0 8 -14l-164 -356v-1h128q10 0 10 -10v-7q0 -10 -10 -10
h-137q-6 0 -6 -6v-70q0 -6 6 -6h137q10 0 10 -10v-7q0 -10 -10 -10h-137q-6 0 -6 -6v-157q0 -10 -10 -10z" />
    <glyph glyph-name="brokenbar" unicode="&#xa6;" horiz-adv-x="210" 
d="M110 388h-10q-10 0 -10 10v332q0 10 10 10h10q10 0 10 -10v-332q0 -10 -10 -10zM110 -84h-10q-10 0 -10 10v336q0 10 10 10h10q10 0 10 -10v-336q0 -10 -10 -10z" />
    <glyph glyph-name="section" unicode="&#xa7;" 
d="M259 -192q-70 0 -110.5 39t-40.5 111q0 10 8 12l11 2q11 3 11 -7q-1 -129 121 -129q56 0 88.5 30t32.5 87q0 53 -34 82.5t-112 43.5q-136 25 -136 174q0 65 30 109.5t87 56.5v1q-51 22 -73 53.5t-22 84.5q0 60 40 97t103 37q64 0 102 -37.5t38 -95.5q0 -10 -8 -12l-10 -2
q-11 -3 -11 7q-1 52 -29.5 82t-81.5 30q-52 0 -82.5 -28t-30.5 -78q0 -55 31 -85.5t107 -45.5q136 -28 136 -174q0 -135 -111 -165v-1q97 -31 97 -134q0 -68 -42 -106.5t-109 -38.5zM164 146q38 -38 97 -38q60 0 96 38q37 37 37 107t-37 107q-36 38 -96 38q-59 0 -97 -38
q-36 -38 -36 -107t36 -107z" />
    <glyph glyph-name="dieresis" unicode="&#xa8;" horiz-adv-x="420" 
d="M322 620h-24q-10 0 -10 10v40q0 10 10 10h24q10 0 10 -10v-40q0 -10 -10 -10zM122 620h-24q-10 0 -10 10v40q0 10 10 10h24q10 0 10 -10v-40q0 -10 -10 -10z" />
    <glyph glyph-name="copyright" unicode="&#xa9;" horiz-adv-x="832" 
d="M665 90q-100 -100 -249 -100q-150 0 -250 100t-100 250q0 149 100 249q101 101 250 101q148 0 249 -101t101 -249q0 -149 -101 -250zM186 108q92 -92 230 -92t230 92q92 94 92 232q0 139 -92 231q-92 93 -230 93t-230 -93q-92 -92 -92 -231q0 -138 92 -232zM421 144
q-105 0 -137 99q-11 36 -11 97t11 97q32 99 137 99q91 0 131 -78q5 -8 -4 -12l-6 -3q-9 -3 -13 4q-37 63 -108 63q-84 0 -111 -81q-10 -29 -10 -89t10 -89q27 -81 111 -81q71 0 108 63q4 7 13 4l6 -3q9 -4 4 -12q-40 -78 -131 -78z" />
    <glyph glyph-name="ordfeminine" unicode="&#xaa;" horiz-adv-x="337" 
d="M267 392h-8q-10 0 -10 10v24h-1q-25 -40 -97 -40q-46 0 -73.5 22.5t-27.5 63.5q0 87 117 87h76q6 0 6 6v27q0 39 -17.5 54t-64.5 15q-50 0 -79 -22q-7 -7 -14 1l-4 5q-6 8 2 14q32 28 96 28q60 0 84.5 -21t24.5 -74v-190q0 -10 -10 -10zM157 412q38 0 65 18t27 42v55
q0 6 -6 6h-73q-92 0 -92 -60q0 -29 21 -45t58 -16z" />
    <glyph glyph-name="guillemotleft" unicode="&#xab;" horiz-adv-x="498" 
d="M415 96l-158 161q-7 7 0 14l158 161q3 3 6.5 1.5t3.5 -5.5v-19q0 -10 -6 -16l-122 -125q-4 -4 0 -8l122 -125q6 -6 6 -16v-19q0 -4 -3.5 -5.5t-6.5 1.5zM224 96l-158 161q-7 7 0 14l158 161q3 3 6.5 1.5t3.5 -5.5v-19q0 -10 -6 -16l-122 -125q-4 -4 0 -8l122 -125
q6 -6 6 -16v-19q0 -4 -3.5 -5.5t-6.5 1.5z" />
    <glyph glyph-name="logicalnot" unicode="&#xac;" 
d="M443 129h-10q-10 0 -10 10v117q0 6 -6 6h-338q-10 0 -10 10v8q0 10 10 10h364q10 0 10 -10v-141q0 -10 -10 -10z" />
    <glyph glyph-name="uni00AD" unicode="&#xad;" horiz-adv-x="368" 
d="M308 253h-248q-10 0 -10 10v8q0 10 10 10h248q10 0 10 -10v-8q0 -10 -10 -10z" />
    <glyph glyph-name="registered" unicode="&#xae;" horiz-adv-x="465" 
d="M232 685q83 0 138 -55q55 -54 55 -137t-55 -138t-138 -55t-138 55q-54 55 -54 138t55 137q55 55 137 55zM63 493q0 -73 48 -123q48 -48 121 -48t121 49q49 49 49 122t-49 121q-48 49 -121 49t-121 -49q-48 -48 -48 -121zM178 386h-4q-9 0 -9 9v198q0 9 9 9h75
q30 0 47 -16.5t17 -43.5q0 -49 -44 -60l43 -86q4 -10 -5 -10h-9q-6 0 -10 7l-44 88h-54q-3 0 -3 -2v-84q0 -9 -9 -9zM190 502h59q42 0 42 40q0 39 -42 39h-59q-3 0 -3 -2v-75q0 -2 3 -2z" />
    <glyph glyph-name="overscore" unicode="&#xaf;" horiz-adv-x="420" 
d="M326 634h-232q-10 0 -10 10v8q0 10 10 10h232q10 0 10 -10v-8q0 -10 -10 -10z" />
    <glyph glyph-name="degree" unicode="&#xb0;" horiz-adv-x="442" 
d="M322 443q-40 -40 -101 -40t-101 40t-40 101t40 101t101 40t101 -40t40 -101t-40 -101zM141 462q32 -32 80 -32t80 32q32 34 32 82q0 49 -32 81q-31 33 -80 33t-81 -33q-31 -31 -31 -81q0 -48 32 -82z" />
    <glyph glyph-name="plusminus" unicode="&#xb1;" 
d="M266 84h-10q-10 0 -10 10v162q0 6 -6 6h-161q-10 0 -10 10v8q0 10 10 10h161q6 0 6 6v162q0 10 10 10h10q10 0 10 -10v-162q0 -6 6 -6h161q10 0 10 -10v-8q0 -10 -10 -10h-161q-6 0 -6 -6v-162q0 -10 -10 -10zM443 0h-364q-10 0 -10 10v8q0 10 10 10h364q10 0 10 -10v-8
q0 -10 -10 -10z" />
    <glyph glyph-name="twosuperior" unicode="&#xb2;" horiz-adv-x="324" 
d="M270 430h-217q-10 0 -10 10v6q0 7 7 14l161 192q37 44 37 84q0 35 -23 57.5t-59 22.5q-68 0 -86 -69q-1 -10 -12 -8l-6 1q-10 2 -9 12q8 40 38.5 65t74.5 25q50 0 80 -30t30 -76q0 -47 -45 -101l-149 -177v-2h188q10 0 10 -10v-6q0 -10 -10 -10z" />
    <glyph glyph-name="threesuperior" unicode="&#xb3;" horiz-adv-x="324" 
d="M165 424q-46 0 -76.5 21.5t-42.5 57.5q-3 8 6 11l8 3q8 3 12 -6q25 -61 93 -61q40 0 65 25t25 64t-25.5 64.5t-66.5 25.5h-16q-10 0 -10 10v6q0 10 10 10h15q38 0 61 22.5t23 59.5q0 35 -23 57t-61 22q-64 0 -84 -56q-3 -10 -11 -8l-7 1q-10 1 -8 11q9 35 37.5 56.5
t72.5 21.5q50 0 81 -29.5t31 -75.5q0 -63 -57 -93v-1q28 -12 47 -39t19 -65q0 -50 -33 -82.5t-85 -32.5z" />
    <glyph glyph-name="acute" unicode="&#xb4;" horiz-adv-x="420" 
d="M172 560h-7q-12 0 -5 10l78 120q6 10 16 10h15q5 0 6.5 -3t-1.5 -7l-85 -120q-7 -10 -17 -10z" />
    <glyph glyph-name="mu" unicode="&#xb5;" horiz-adv-x="546" 
d="M120 -180h-10q-10 0 -10 10v634q0 10 10 10h10q10 0 10 -10v-285q0 -82 33 -121.5t104 -39.5q62 0 102.5 40t40.5 107v299q0 10 10 10h10q10 0 10 -10v-395q0 -43 30 -43q11 0 11 -10v-8q0 -10 -11 -10h-1q-31 0 -45 15t-14 52v12h-1q-17 -41 -55.5 -64t-88.5 -23
q-95 0 -134 72h-1v-232q0 -10 -10 -10z" />
    <glyph glyph-name="paragraph" unicode="&#xb6;" horiz-adv-x="542" 
d="M442 -180h-10q-10 0 -10 10v816q0 6 -6 6h-108q-6 0 -6 -6v-816q0 -10 -10 -10h-10q-10 0 -10 10v440q-88 4 -141 61q-51 57 -51 144q0 93 58 149t161 56h143q10 0 10 -10v-840q0 -10 -10 -10z" />
    <glyph glyph-name="middot" unicode="&#xb7;" horiz-adv-x="204" 
d="M116 231h-28q-10 0 -10 10v50q0 10 10 10h28q10 0 10 -10v-50q0 -10 -10 -10z" />
    <glyph glyph-name="cedilla" unicode="&#xb8;" horiz-adv-x="420" 
d="M193 -145h-11q-10 0 -7 10l52 135q4 10 13 10h8q10 0 7 -10l-46 -135q-4 -10 -16 -10z" />
    <glyph glyph-name="onesuperior" unicode="&#xb9;" horiz-adv-x="324" 
d="M194 430h-8q-10 0 -10 10v361h-1l-71 -50q-10 -6 -10 5v11q0 10 7 14l70 49q9 6 15 6h8q10 0 10 -10v-386q0 -10 -10 -10z" />
    <glyph glyph-name="ordmasculine" unicode="&#xba;" horiz-adv-x="342" 
d="M60 462q-22 74 0 148q26 77 111 77t111 -77q22 -74 0 -148q-26 -77 -111 -77t-111 77zM255 471q9 25 9 65t-9 65q-19 60 -84 60t-84 -60q-9 -25 -9 -65t9 -65q19 -60 84 -60t84 60z" />
    <glyph glyph-name="guillemotright" unicode="&#xbb;" horiz-adv-x="498" 
d="M439 257l-158 -161q-3 -3 -6.5 -1.5t-3.5 5.5v19q0 10 6 16l122 125q4 4 0 8l-122 125q-6 6 -6 16v19q0 4 3.5 5.5t6.5 -1.5l158 -161q7 -7 0 -14zM248 257l-158 -161q-3 -3 -6.5 -1.5t-3.5 5.5v19q0 10 6 16l122 125q4 4 0 8l-122 125q-6 6 -6 16v19q0 4 3.5 5.5
t6.5 -1.5l158 -161q7 -7 0 -14z" />
    <glyph glyph-name="onequarter" unicode="&#xbc;" horiz-adv-x="823" 
d="M180 274h-8q-10 0 -10 10v361h-1l-71 -50q-10 -6 -10 5v11q0 10 7 14l70 49q9 6 15 6h8q10 0 10 -10v-386q0 -10 -10 -10zM652 0h-8q-10 0 -10 10v68q0 6 -6 6h-161q-10 0 -10 10v6q0 8 4 15l137 281q4 10 13 10h11q4 0 6 -3t0 -7l-138 -285v-1h138q6 0 6 6v107
q0 10 10 10h8q10 0 10 -10v-107q0 -6 6 -6h45q10 0 10 -10v-6q0 -10 -10 -10h-45q-6 0 -6 -6v-68q0 -10 -10 -10zM200 -10h-10q-10 0 -6 10l393 680q6 10 14 10h10q10 0 6 -10l-393 -680q-6 -10 -14 -10z" />
    <glyph glyph-name="onehalf" unicode="&#xbd;" horiz-adv-x="849" 
d="M739 0h-217q-10 0 -10 10v6q0 7 7 14l161 192q37 44 37 84q0 35 -23 57.5t-59 22.5q-68 0 -86 -69q-1 -10 -12 -8l-6 1q-11 2 -9 12q8 40 38.5 65t74.5 25q50 0 80 -30t30 -76q0 -47 -45 -101l-149 -177v-2h188q10 0 10 -10v-6q0 -10 -10 -10zM180 274h-8q-10 0 -10 10
v361h-1l-71 -50q-10 -6 -10 5v11q0 10 7 14l70 49q9 6 15 6h8q10 0 10 -10v-386q0 -10 -10 -10zM200 -10h-10q-10 0 -6 10l393 680q6 10 14 10h10q10 0 6 -10l-393 -680q-6 -10 -14 -10z" />
    <glyph glyph-name="threequarters" unicode="&#xbe;" horiz-adv-x="890" 
d="M722 0h-8q-10 0 -10 10v68q0 6 -6 6h-161q-10 0 -10 10v6q0 8 4 15l137 281q4 10 13 10h11q12 0 6 -10l-138 -285v-1h138q6 0 6 6v107q0 10 10 10h8q10 0 10 -10v-107q0 -6 6 -6h45q10 0 10 -10v-6q0 -10 -10 -10h-45q-6 0 -6 -6v-68q0 -10 -10 -10zM223 268
q-46 0 -76.5 21.5t-42.5 57.5q-3 8 6 11l8 3q8 3 12 -6q25 -61 93 -61q40 0 65 25t25 64t-25.5 64.5t-66.5 25.5h-16q-10 0 -10 10v6q0 10 10 10h15q38 0 61 22.5t23 59.5q0 35 -23 57t-61 22q-64 0 -84 -56q-3 -10 -11 -8l-7 1q-10 1 -8 11q9 35 37.5 56.5t72.5 21.5
q50 0 81 -29.5t31 -75.5q0 -63 -57 -93v-1q28 -12 47 -39t19 -65q0 -50 -33 -82.5t-85 -32.5zM270 -10h-10q-10 0 -6 10l393 680q6 10 14 10h10q10 0 6 -10l-393 -680q-6 -10 -14 -10z" />
    <glyph glyph-name="questiondown" unicode="&#xbf;" horiz-adv-x="439" 
d="M236 298v-38q0 -60 -35 -104l-45 -56q-45 -56 -58 -86q-14 -33 -14 -69q0 -62 37.5 -97.5t97.5 -35.5q56 0 92.5 33.5t47.5 94.5q2 9 12 8l9 -2q10 -1 8 -11q-10 -68 -55.5 -109.5t-113.5 -41.5q-74 0 -119.5 44.5t-45.5 116.5q0 43 15 76t54 82l45 56q24 30 31 49t7 52
v38q0 10 10 10h10q10 0 10 -10zM245 464v-50q0 -10 -10 -10h-28q-10 0 -10 10v50q0 10 10 10h28q10 0 10 -10z" />
    <glyph glyph-name="Agrave" unicode="&#xc0;" horiz-adv-x="587" 
d="M40 10l240 660q3 10 11 10h13q8 0 11 -10l238 -660q3 -10 -7 -10h-14q-9 0 -13 10l-66 185h-313l-67 -185q-4 -10 -13 -10h-13q-10 0 -7 10zM296 627l-146 -403h292l-144 403h-2zM305 765h-7q-9 0 -18 10l-87 103q-3 4 -1.5 7t5.5 3h15q8 0 17 -10l80 -103q7 -10 -4 -10z
" />
    <glyph glyph-name="Aacute" unicode="&#xc1;" horiz-adv-x="587" 
d="M40 10l240 660q3 10 11 10h13q8 0 11 -10l238 -660q3 -10 -7 -10h-14q-9 0 -13 10l-66 185h-313l-67 -185q-4 -10 -13 -10h-13q-10 0 -7 10zM296 627l-146 -403h292l-144 403h-2zM294 765h-7q-11 0 -4 10l80 103q9 10 17 10h15q4 0 5.5 -3t-1.5 -7l-87 -103
q-9 -10 -18 -10z" />
    <glyph glyph-name="Acircumflex" unicode="&#xc2;" horiz-adv-x="587" 
d="M40 10l240 660q3 10 11 10h13q8 0 11 -10l238 -660q3 -10 -7 -10h-14q-9 0 -13 10l-66 185h-313l-67 -185q-4 -10 -13 -10h-13q-10 0 -7 10zM296 627l-146 -403h292l-144 403h-2zM397 755h-8q-9 0 -16 10l-76 98h-2l-76 -98q-7 -10 -16 -10h-8q-4 0 -5.5 3t1.5 7l87 121
q6 9 14 9h8q8 0 14 -9l87 -121q3 -4 1.5 -7t-5.5 -3z" />
    <glyph glyph-name="Atilde" unicode="&#xc3;" horiz-adv-x="587" 
d="M40 10l240 660q3 10 11 10h13q8 0 11 -10l238 -660q3 -10 -7 -10h-14q-9 0 -13 10l-66 185h-313l-67 -185q-4 -10 -13 -10h-13q-10 0 -7 10zM296 627l-146 -403h292l-144 403h-2zM347 794q-23 0 -57 21q-28 18 -46 18q-24 0 -55 -34q-3 -3 -5.5 -2t-2.5 5v15q0 7 7 14
q25 28 57 28q25 0 57 -21q27 -18 46 -18q24 0 55 34q3 3 5.5 2t2.5 -5v-15q0 -7 -7 -14q-25 -28 -57 -28z" />
    <glyph glyph-name="Adieresis" unicode="&#xc4;" horiz-adv-x="587" 
d="M40 10l240 660q3 10 11 10h13q8 0 11 -10l238 -660q3 -10 -7 -10h-14q-9 0 -13 10l-66 185h-313l-67 -185q-4 -10 -13 -10h-13q-10 0 -7 10zM296 627l-146 -403h292l-144 403h-2zM408 795h-24q-10 0 -10 10v40q0 10 10 10h24q10 0 10 -10v-40q0 -10 -10 -10zM208 795h-24
q-10 0 -10 10v40q0 10 10 10h24q10 0 10 -10v-40q0 -10 -10 -10z" />
    <glyph glyph-name="Aring" unicode="&#xc5;" horiz-adv-x="587" 
d="M40 10l240 660q3 10 11 10h13q8 0 11 -10l238 -660q3 -10 -7 -10h-14q-9 0 -13 10l-66 185h-313l-67 -185q-4 -10 -13 -10h-13q-10 0 -7 10zM296 627l-146 -403h292l-144 403h-2zM355 769q-23 -23 -59 -23q-35 0 -60 23q-23 25 -23 60q0 36 23 59q24 24 60 24t59 -24
q24 -23 24 -59t-24 -60zM255 788q16 -16 41 -16t40 16q16 16 16 41t-16 41q-15 16 -40 16t-41 -16q-15 -16 -15 -41t15 -41z" />
    <glyph glyph-name="AE" unicode="&#xc6;" horiz-adv-x="948" 
d="M890 0h-374q-10 0 -10 10v179q0 6 -6 6h-298l-123 -185q-6 -10 -15 -10h-15q-11 0 -5 10l438 662q5 8 15 8h393q10 0 10 -10v-9q0 -10 -10 -10h-347q-6 0 -6 -6v-279q0 -6 6 -6h300q10 0 10 -10v-9q0 -10 -10 -10h-300q-6 0 -6 -6v-290q0 -6 6 -6h347q10 0 10 -10v-9
q0 -10 -10 -10zM506 648h-3l-282 -424h279q6 0 6 6v418z" />
    <glyph glyph-name="Ccedilla" unicode="&#xc7;" horiz-adv-x="548" 
d="M252 -145h-11q-10 0 -7 10l48 125q-149 6 -194 145q-18 54 -18 205t18 205q46 145 205 145q137 0 194 -116q5 -9 -2 -13l-10 -5q-8 -5 -13 4q-56 101 -169 101q-135 0 -175 -124q-17 -53 -17 -197t17 -197q40 -124 175 -124q113 0 169 101q5 9 13 4l10 -5q7 -4 2 -13
q-55 -108 -177 -115l-42 -126q-4 -10 -16 -10z" />
    <glyph glyph-name="Egrave" unicode="&#xc8;" horiz-adv-x="550" 
d="M102 10v660q0 10 10 10h374q10 0 10 -10v-9q0 -10 -10 -10h-347q-6 0 -6 -6v-279q0 -6 6 -6h300q10 0 10 -10v-9q0 -10 -10 -10h-300q-6 0 -6 -6v-290q0 -6 6 -6h347q10 0 10 -10v-9q0 -10 -10 -10h-374q-10 0 -10 10zM318 765h-7q-9 0 -18 10l-87 103q-3 4 -1.5 7t5.5 3
h15q8 0 17 -10l80 -103q7 -10 -4 -10z" />
    <glyph glyph-name="Eacute" unicode="&#xc9;" horiz-adv-x="550" 
d="M102 10v660q0 10 10 10h374q10 0 10 -10v-9q0 -10 -10 -10h-347q-6 0 -6 -6v-279q0 -6 6 -6h300q10 0 10 -10v-9q0 -10 -10 -10h-300q-6 0 -6 -6v-290q0 -6 6 -6h347q10 0 10 -10v-9q0 -10 -10 -10h-374q-10 0 -10 10zM274 765h-7q-11 0 -4 10l80 103q9 10 17 10h15
q12 0 4 -10l-87 -103q-9 -10 -18 -10z" />
    <glyph glyph-name="Ecircumflex" unicode="&#xca;" horiz-adv-x="550" 
d="M399 755h-8q-9 0 -16 10l-76 98h-2l-76 -98q-7 -10 -16 -10h-8q-12 0 -4 10l87 121q6 9 14 9h8q8 0 14 -9l87 -121q8 -10 -4 -10zM102 10v660q0 10 10 10h374q10 0 10 -10v-9q0 -10 -10 -10h-347q-6 0 -6 -6v-279q0 -6 6 -6h300q10 0 10 -10v-9q0 -10 -10 -10h-300
q-6 0 -6 -6v-290q0 -6 6 -6h347q10 0 10 -10v-9q0 -10 -10 -10h-374q-10 0 -10 10z" />
    <glyph glyph-name="Edieresis" unicode="&#xcb;" horiz-adv-x="550" 
d="M102 10v660q0 10 10 10h374q10 0 10 -10v-9q0 -10 -10 -10h-347q-6 0 -6 -6v-279q0 -6 6 -6h300q10 0 10 -10v-9q0 -10 -10 -10h-300q-6 0 -6 -6v-290q0 -6 6 -6h347q10 0 10 -10v-9q0 -10 -10 -10h-374q-10 0 -10 10zM405 795h-24q-10 0 -10 10v40q0 10 10 10h24
q10 0 10 -10v-40q0 -10 -10 -10zM205 795h-24q-10 0 -10 10v40q0 10 10 10h24q10 0 10 -10v-40q0 -10 -10 -10z" />
    <glyph glyph-name="Igrave" unicode="&#xcc;" horiz-adv-x="235" 
d="M131 765h-7q-9 0 -18 10l-87 103q-3 4 -1.5 7t5.5 3h15q8 0 17 -10l80 -103q7 -10 -4 -10zM103 10v660q0 10 10 10h11q10 0 10 -10v-660q0 -10 -10 -10h-11q-10 0 -10 10z" />
    <glyph glyph-name="Iacute" unicode="&#xcd;" horiz-adv-x="235" 
d="M121 765h-7q-11 0 -4 10l80 103q9 10 17 10h15q4 0 5.5 -3t-1.5 -7l-87 -103q-9 -10 -18 -10zM110 10v660q0 10 10 10h11q10 0 10 -10v-660q0 -10 -10 -10h-11q-10 0 -10 10z" />
    <glyph glyph-name="Icircumflex" unicode="&#xce;" horiz-adv-x="235" 
d="M103 10v660q0 10 10 10h11q10 0 10 -10v-660q0 -10 -10 -10h-11q-10 0 -10 10zM219 755h-8q-9 0 -16 10l-76 98h-2l-76 -98q-7 -10 -16 -10h-8q-4 0 -5.5 3t1.5 7l87 121q6 9 14 9h8q8 0 14 -9l87 -121q3 -4 1.5 -7t-5.5 -3z" />
    <glyph glyph-name="Idieresis" unicode="&#xcf;" horiz-adv-x="235" 
d="M102 10v660q0 10 10 10h11q10 0 10 -10v-660q0 -10 -10 -10h-11q-10 0 -10 10zM229 795h-24q-10 0 -10 10v40q0 10 10 10h24q10 0 10 -10v-40q0 -10 -10 -10zM29 795h-24q-10 0 -10 10v40q0 10 10 10h24q10 0 10 -10v-40q0 -10 -10 -10z" />
    <glyph glyph-name="Eth" unicode="&#xd0;" horiz-adv-x="622" 
d="M312 0h-200q-10 0 -10 10v315q0 6 -6 6h-46q-10 0 -10 10v8q0 10 10 10h46q6 0 6 6v305q0 10 10 10h200q170 0 213 -132q19 -57 19 -208t-19 -208q-43 -132 -213 -132zM139 29h173q147 0 183 110q18 55 18 201t-18 201q-36 110 -183 110h-173q-6 0 -6 -6v-280q0 -6 6 -6
h145q10 0 10 -10v-8q0 -10 -10 -10h-145q-6 0 -6 -6v-290q0 -6 6 -6z" />
    <glyph glyph-name="Ntilde" unicode="&#xd1;" horiz-adv-x="648" 
d="M102 10v660q0 10 10 10h9q11 0 17 -10l374 -603h3v603q0 10 10 10h11q10 0 10 -10v-660q0 -10 -10 -10h-9q-11 0 -17 10l-374 603h-3v-603q0 -10 -10 -10h-11q-10 0 -10 10zM375 794q-23 0 -57 21q-28 18 -46 18q-24 0 -55 -34q-3 -3 -5.5 -2t-2.5 5v15q0 7 7 14
q25 28 57 28q25 0 57 -21q27 -18 46 -18q24 0 55 34q3 3 5.5 2t2.5 -5v-15q0 -7 -7 -14q-25 -28 -57 -28z" />
    <glyph glyph-name="Ograve" unicode="&#xd2;" horiz-adv-x="602" 
d="M90 138q-20 62 -20 202t20 202q48 148 211 148t211 -148q20 -62 20 -202t-20 -202q-48 -148 -211 -148t-211 148zM482 146q19 56 19 194t-19 194q-42 127 -181 127t-181 -127q-19 -56 -19 -194t19 -194q42 -127 181 -127t181 127zM322 765h-7q-9 0 -18 10l-87 103
q-3 4 -1.5 7t5.5 3h15q8 0 17 -10l80 -103q7 -10 -4 -10z" />
    <glyph glyph-name="Oacute" unicode="&#xd3;" horiz-adv-x="602" 
d="M90 138q-20 62 -20 202t20 202q48 148 211 148t211 -148q20 -62 20 -202t-20 -202q-48 -148 -211 -148t-211 148zM482 146q19 56 19 194t-19 194q-42 127 -181 127t-181 -127q-19 -56 -19 -194t19 -194q42 -127 181 -127t181 127zM287 765h-7q-11 0 -4 10l80 103
q9 10 17 10h15q4 0 5.5 -3t-1.5 -7l-87 -103q-9 -10 -18 -10z" />
    <glyph glyph-name="Ocircumflex" unicode="&#xd4;" horiz-adv-x="602" 
d="M90 138q-20 62 -20 202t20 202q48 148 211 148t211 -148q20 -62 20 -202t-20 -202q-48 -148 -211 -148t-211 148zM482 146q19 56 19 194t-19 194q-42 127 -181 127t-181 -127q-19 -56 -19 -194t19 -194q42 -127 181 -127t181 127zM402 755h-8q-9 0 -16 10l-76 98h-2
l-76 -98q-7 -10 -16 -10h-8q-4 0 -5.5 3t1.5 7l87 121q6 9 14 9h8q8 0 14 -9l87 -121q3 -4 1.5 -7t-5.5 -3z" />
    <glyph glyph-name="Otilde" unicode="&#xd5;" horiz-adv-x="602" 
d="M90 138q-20 62 -20 202t20 202q48 148 211 148t211 -148q20 -62 20 -202t-20 -202q-48 -148 -211 -148t-211 148zM482 146q19 56 19 194t-19 194q-42 127 -181 127t-181 -127q-19 -56 -19 -194t19 -194q42 -127 181 -127t181 127zM352 794q-22 0 -57 21q-29 18 -46 18
q-24 0 -55 -34q-3 -3 -5.5 -2t-2.5 5v15q0 7 7 14q25 28 57 28q26 0 57 -21q27 -18 46 -18q24 0 55 34q3 3 5.5 2t2.5 -5v-15q0 -7 -7 -14q-25 -28 -57 -28z" />
    <glyph glyph-name="Odieresis" unicode="&#xd6;" horiz-adv-x="602" 
d="M90 138q-20 62 -20 202t20 202q48 148 211 148t211 -148q20 -62 20 -202t-20 -202q-48 -148 -211 -148t-211 148zM482 146q19 56 19 194t-19 194q-42 127 -181 127t-181 -127q-19 -56 -19 -194t19 -194q42 -127 181 -127t181 127zM413 795h-24q-10 0 -10 10v40
q0 10 10 10h24q10 0 10 -10v-40q0 -10 -10 -10zM213 795h-24q-10 0 -10 10v40q0 10 10 10h24q10 0 10 -10v-40q0 -10 -10 -10z" />
    <glyph glyph-name="multiply" unicode="&#xd7;" 
d="M424 126l-6 -6q-7 -7 -14 0l-132 132q-4 4 -8 0l-132 -132q-7 -7 -14 0l-6 6q-7 7 0 14l132 132q4 4 0 8l-132 132q-7 7 0 14l6 6q7 7 14 0l132 -132q4 -4 8 0l132 132q7 7 14 0l6 -6q7 -7 0 -14l-132 -132q-4 -4 0 -8l132 -132q7 -7 0 -14z" />
    <glyph glyph-name="Oslash" unicode="&#xd8;" horiz-adv-x="602" 
d="M100 -30h-10q-10 0 -6 10l46 82q-26 34 -40 76q-20 62 -20 202t20 202q48 148 211 148q94 0 152 -52l35 62q4 10 14 10h10q10 0 6 -10l-46 -82q23 -29 40 -76q20 -62 20 -202t-20 -202q-48 -148 -211 -148q-97 0 -152 52l-35 -62q-4 -10 -14 -10zM120 146q11 -34 26 -55
l291 519q-49 51 -136 51q-139 0 -181 -127q-19 -56 -19 -194t19 -194zM301 19q139 0 181 127q19 56 19 194t-19 194q-12 33 -27 54l-291 -518q50 -51 137 -51z" />
    <glyph glyph-name="Ugrave" unicode="&#xd9;" horiz-adv-x="632" 
d="M316 -10q-222 0 -222 243v437q0 10 10 10h11q10 0 10 -10v-438q0 -105 49 -159t142 -54q191 0 191 213v438q0 10 10 10h11q10 0 10 -10v-437q0 -120 -56.5 -181.5t-165.5 -61.5zM336 765h-7q-9 0 -18 10l-87 103q-3 4 -1.5 7t5.5 3h15q8 0 17 -10l80 -103q7 -10 -4 -10z
" />
    <glyph glyph-name="Uacute" unicode="&#xda;" horiz-adv-x="632" 
d="M316 -10q-222 0 -222 243v437q0 10 10 10h11q10 0 10 -10v-438q0 -105 49 -159t142 -54q191 0 191 213v438q0 10 10 10h11q10 0 10 -10v-437q0 -120 -56.5 -181.5t-165.5 -61.5zM300 765h-7q-11 0 -4 10l80 103q9 10 17 10h15q12 0 4 -10l-87 -103q-9 -10 -18 -10z" />
    <glyph glyph-name="Ucircumflex" unicode="&#xdb;" horiz-adv-x="632" 
d="M417 755h-8q-9 0 -16 10l-76 98h-2l-76 -98q-7 -10 -16 -10h-8q-12 0 -4 10l87 121q6 9 14 9h8q8 0 14 -9l87 -121q8 -10 -4 -10zM316 -10q-222 0 -222 243v437q0 10 10 10h11q10 0 10 -10v-438q0 -105 49 -159t142 -54q191 0 191 213v438q0 10 10 10h11q10 0 10 -10
v-437q0 -120 -56.5 -181.5t-165.5 -61.5z" />
    <glyph glyph-name="Udieresis" unicode="&#xdc;" horiz-adv-x="632" 
d="M316 -10q-222 0 -222 243v437q0 10 10 10h11q10 0 10 -10v-438q0 -105 49 -159t142 -54q191 0 191 213v438q0 10 10 10h11q10 0 10 -10v-437q0 -120 -56.5 -181.5t-165.5 -61.5zM428 795h-24q-10 0 -10 10v40q0 10 10 10h24q10 0 10 -10v-40q0 -10 -10 -10zM228 795h-24
q-10 0 -10 10v40q0 10 10 10h24q10 0 10 -10v-40q0 -10 -10 -10z" />
    <glyph glyph-name="Yacute" unicode="&#xdd;" horiz-adv-x="506" 
d="M261 0h-11q-10 0 -10 10v269l-207 389q-2 4 0 8t7 4h12q11 0 15 -10l189 -352h2l185 352q4 10 15 10h12q5 0 7 -4t0 -8l-206 -389v-269q0 -10 -10 -10zM248 765h-7q-11 0 -4 10l80 103q9 10 17 10h15q12 0 4 -10l-87 -103q-9 -10 -18 -10z" />
    <glyph glyph-name="Thorn" unicode="&#xde;" horiz-adv-x="579" 
d="M123 0h-11q-10 0 -10 10v660q0 10 10 10h11q10 0 10 -10v-137q0 -6 6 -6h188q96 0 149.5 -48.5t53.5 -135.5t-53.5 -135.5t-149.5 -48.5h-188q-6 0 -6 -6v-143q0 -10 -10 -10zM139 188h188q84 0 128 40t44 115t-44 115t-128 40h-188q-6 0 -6 -6v-298q0 -6 6 -6z" />
    <glyph glyph-name="germandbls" unicode="&#xdf;" horiz-adv-x="536" 
d="M290 -6h-9q-10 0 -10 10v8q0 10 10 10h9q106 0 131 76q10 29 10 121q0 93 -10 123q-23 72 -128 74h-12q-10 0 -10 10v8q0 10 10 10h12q67 0 97.5 25.5t30.5 81.5q0 54 -35.5 82.5t-103.5 28.5q-83 0 -117.5 -37.5t-34.5 -127.5v-487q0 -10 -10 -10h-10q-10 0 -10 10v489
q0 98 42.5 144.5t139.5 46.5q82 0 125.5 -37t43.5 -102q0 -96 -79 -120v-2q58 -19 78 -79q11 -35 11 -131q0 -95 -11 -131q-31 -94 -160 -94z" />
    <glyph glyph-name="agrave" unicode="&#xe0;" horiz-adv-x="509" 
d="M405 0h-10q-10 0 -10 10v57h-1q-13 -35 -53.5 -56t-99.5 -21q-75 0 -117 36t-42 102q0 136 176 136h131q6 0 6 6v61q0 70 -28.5 97.5t-103.5 27.5q-83 0 -124 -38q-7 -6 -14 -2l-7 6q-8 8 -1 14q47 48 146 48q88 0 125 -34t37 -119v-321q0 -10 -10 -10zM235 18
q66 0 108 34.5t42 87.5v90q0 6 -6 6h-129q-77 0 -112.5 -26.5t-35.5 -81.5q0 -53 34.5 -81.5t98.5 -28.5zM299 560h-7q-10 0 -17 10l-85 120q-3 4 -1.5 7t6.5 3h15q10 0 16 -10l78 -120q7 -10 -5 -10z" />
    <glyph glyph-name="aacute" unicode="&#xe1;" horiz-adv-x="509" 
d="M405 0h-10q-10 0 -10 10v57h-1q-13 -35 -53.5 -56t-99.5 -21q-75 0 -117 36t-42 102q0 136 176 136h131q6 0 6 6v61q0 70 -28.5 97.5t-103.5 27.5q-83 0 -124 -38q-7 -6 -14 -2l-7 6q-8 8 -1 14q47 48 146 48q88 0 125 -34t37 -119v-321q0 -10 -10 -10zM235 18
q66 0 108 34.5t42 87.5v90q0 6 -6 6h-129q-77 0 -112.5 -26.5t-35.5 -81.5q0 -53 34.5 -81.5t98.5 -28.5zM252 560h-7q-12 0 -5 10l78 120q6 10 16 10h15q5 0 6.5 -3t-1.5 -7l-85 -120q-7 -10 -17 -10z" />
    <glyph glyph-name="acircumflex" unicode="&#xe2;" horiz-adv-x="509" 
d="M405 0h-10q-10 0 -10 10v57h-1q-13 -35 -53.5 -56t-99.5 -21q-75 0 -117 36t-42 102q0 136 176 136h131q6 0 6 6v61q0 70 -28.5 97.5t-103.5 27.5q-83 0 -124 -38q-7 -6 -14 -2l-7 6q-8 8 -1 14q47 48 146 48q88 0 125 -34t37 -119v-321q0 -10 -10 -10zM235 18
q66 0 108 34.5t42 87.5v90q0 6 -6 6h-129q-77 0 -112.5 -26.5t-35.5 -81.5q0 -53 34.5 -81.5t98.5 -28.5zM355 560h-8q-9 0 -16 10l-76 98h-2l-76 -98q-7 -10 -16 -10h-8q-12 0 -4 10l87 121q6 9 14 9h8q8 0 14 -9l87 -121q8 -10 -4 -10z" />
    <glyph glyph-name="atilde" unicode="&#xe3;" horiz-adv-x="509" 
d="M405 0h-10q-10 0 -10 10v57h-1q-13 -35 -53.5 -56t-99.5 -21q-75 0 -117 36t-42 102q0 136 176 136h131q6 0 6 6v61q0 70 -28.5 97.5t-103.5 27.5q-83 0 -124 -38q-7 -6 -14 -2l-7 6q-8 8 -1 14q47 48 146 48q88 0 125 -34t37 -119v-321q0 -10 -10 -10zM235 18
q66 0 108 34.5t42 87.5v90q0 6 -6 6h-129q-77 0 -112.5 -26.5t-35.5 -81.5q0 -53 34.5 -81.5t98.5 -28.5zM305 613q-23 0 -57 21q-28 18 -46 18q-24 0 -55 -34q-3 -3 -5.5 -2t-2.5 5v15q0 7 7 14q25 28 57 28q25 0 57 -21q27 -18 46 -18q24 0 55 34q3 3 5.5 2t2.5 -5v-15
q0 -7 -7 -14q-25 -28 -57 -28z" />
    <glyph glyph-name="adieresis" unicode="&#xe4;" horiz-adv-x="509" 
d="M405 0h-10q-10 0 -10 10v57h-1q-13 -35 -53.5 -56t-99.5 -21q-75 0 -117 36t-42 102q0 136 176 136h131q6 0 6 6v61q0 70 -28.5 97.5t-103.5 27.5q-83 0 -124 -38q-7 -6 -14 -2l-7 6q-8 8 -1 14q47 48 146 48q88 0 125 -34t37 -119v-321q0 -10 -10 -10zM235 18
q66 0 108 34.5t42 87.5v90q0 6 -6 6h-129q-77 0 -112.5 -26.5t-35.5 -81.5q0 -53 34.5 -81.5t98.5 -28.5zM366 620h-24q-10 0 -10 10v40q0 10 10 10h24q10 0 10 -10v-40q0 -10 -10 -10zM166 620h-24q-10 0 -10 10v40q0 10 10 10h24q10 0 10 -10v-40q0 -10 -10 -10z" />
    <glyph glyph-name="aring" unicode="&#xe5;" horiz-adv-x="509" 
d="M405 0h-10q-10 0 -10 10v57h-1q-13 -35 -53.5 -56t-99.5 -21q-75 0 -117 36t-42 102q0 136 176 136h131q6 0 6 6v61q0 70 -28.5 97.5t-103.5 27.5q-83 0 -124 -38q-7 -6 -14 -2l-7 6q-8 8 -1 14q47 48 146 48q88 0 125 -34t37 -119v-321q0 -10 -10 -10zM235 18
q66 0 108 34.5t42 87.5v90q0 6 -6 6h-129q-77 0 -112.5 -26.5t-35.5 -81.5q0 -53 34.5 -81.5t98.5 -28.5zM315 569q-23 -23 -59 -23q-35 0 -60 23q-23 25 -23 60q0 36 23 59q24 24 60 24t59 -24q24 -23 24 -59t-24 -60zM215 588q16 -16 41 -16t40 16q16 16 16 41t-16 41
q-15 16 -40 16t-41 -16q-15 -16 -15 -41t15 -41z" />
    <glyph glyph-name="ae" unicode="&#xe6;" horiz-adv-x="814" 
d="M573 -10q-122 0 -167 103h-1q-37 -103 -174 -103q-75 0 -117 36t-42 102q0 136 176 136h131q6 0 6 6v61q0 70 -28.5 97.5t-103.5 27.5q-83 0 -124 -38q-7 -6 -14 -2l-7 6q-8 8 -1 14q47 48 146 48q72 0 109 -22t47 -73h1q47 95 157 95q129 0 168 -120q14 -44 14 -118
q0 -10 -11 -10h-317q-6 0 -6 -7q0 -68 12 -107q35 -104 146 -104q93 0 143 69q6 8 14 2l6 -5q7 -6 1 -14q-56 -80 -164 -80zM421 264h292q6 0 6 6q0 45 -11 83q-33 103 -141 103t-141 -103q-11 -38 -11 -83q0 -6 6 -6zM235 18q66 0 108 34.5t42 87.5v90q0 6 -6 6h-129
q-77 0 -112.5 -26.5t-35.5 -81.5q0 -53 34.5 -81.5t98.5 -28.5z" />
    <glyph glyph-name="ccedilla" unicode="&#xe7;" horiz-adv-x="468" 
d="M212 -145h-11q-10 0 -7 10l48 125q-60 2 -102 33.5t-59 86.5q-16 51 -16 127t16 127q18 57 62 88.5t106 31.5q111 0 157 -96q5 -10 -5 -14l-7 -3q-9 -3 -13 4q-41 81 -132 81q-108 0 -139 -103q-15 -45 -15 -116t15 -116q31 -103 139 -103q91 0 132 81q4 7 13 4l7 -3
q10 -4 5 -14q-41 -86 -135 -95l-43 -126q-4 -10 -16 -10z" />
    <glyph glyph-name="egrave" unicode="&#xe8;" horiz-adv-x="494" 
d="M253 -10q-135 0 -174 122q-14 45 -14 126q0 82 14 126q19 58 62.5 89t105.5 31q129 0 168 -120q14 -44 14 -118q0 -10 -11 -10h-317q-6 0 -6 -7q0 -68 12 -107q35 -104 146 -104q93 0 143 69q6 8 14 2l6 -5q7 -6 1 -14q-56 -80 -164 -80zM101 264h292q6 0 6 6
q0 45 -11 83q-33 103 -141 103t-141 -103q-11 -38 -11 -83q0 -6 6 -6zM266 560h-7q-10 0 -17 10l-85 120q-3 4 -1.5 7t6.5 3h15q10 0 16 -10l78 -120q7 -10 -5 -10z" />
    <glyph glyph-name="eacute" unicode="&#xe9;" horiz-adv-x="494" 
d="M253 -10q-135 0 -174 122q-14 45 -14 126q0 82 14 126q19 58 62.5 89t105.5 31q129 0 168 -120q14 -44 14 -118q0 -10 -11 -10h-317q-6 0 -6 -7q0 -68 12 -107q35 -104 146 -104q93 0 143 69q6 8 14 2l6 -5q7 -6 1 -14q-56 -80 -164 -80zM101 264h292q6 0 6 6
q0 45 -11 83q-33 103 -141 103t-141 -103q-11 -38 -11 -83q0 -6 6 -6zM238 560h-7q-12 0 -5 10l78 120q6 10 16 10h15q5 0 6.5 -3t-1.5 -7l-85 -120q-7 -10 -17 -10z" />
    <glyph glyph-name="ecircumflex" unicode="&#xea;" horiz-adv-x="494" 
d="M253 -10q-135 0 -174 122q-14 45 -14 126q0 82 14 126q19 58 62.5 89t105.5 31q129 0 168 -120q14 -44 14 -118q0 -10 -11 -10h-317q-6 0 -6 -7q0 -68 12 -107q35 -104 146 -104q93 0 143 69q6 8 14 2l6 -5q7 -6 1 -14q-56 -80 -164 -80zM101 264h292q6 0 6 6
q0 45 -11 83q-33 103 -141 103t-141 -103q-11 -38 -11 -83q0 -6 6 -6zM348 560h-8q-9 0 -16 10l-76 98h-2l-76 -98q-7 -10 -16 -10h-8q-4 0 -5.5 3t1.5 7l87 121q6 9 14 9h8q8 0 14 -9l87 -121q3 -4 1.5 -7t-5.5 -3z" />
    <glyph glyph-name="edieresis" unicode="&#xeb;" horiz-adv-x="494" 
d="M253 -10q-135 0 -174 122q-14 45 -14 126q0 82 14 126q19 58 62.5 89t105.5 31q129 0 168 -120q14 -44 14 -118q0 -10 -11 -10h-317q-6 0 -6 -7q0 -68 12 -107q35 -104 146 -104q93 0 143 69q6 8 14 2l6 -5q7 -6 1 -14q-56 -80 -164 -80zM101 264h292q6 0 6 6
q0 45 -11 83q-33 103 -141 103t-141 -103q-11 -38 -11 -83q0 -6 6 -6zM359 620h-24q-10 0 -10 10v40q0 10 10 10h24q10 0 10 -10v-40q0 -10 -10 -10zM159 620h-24q-10 0 -10 10v40q0 10 10 10h24q10 0 10 -10v-40q0 -10 -10 -10z" />
    <glyph glyph-name="igrave" unicode="&#xec;" horiz-adv-x="230" 
d="M129 560h-7q-10 0 -17 10l-85 120q-3 4 -1.5 7t6.5 3h15q10 0 16 -10l78 -120q7 -10 -5 -10zM121 0h-10q-10 0 -10 10v454q0 10 10 10h10q10 0 10 -10v-454q0 -10 -10 -10z" />
    <glyph glyph-name="iacute" unicode="&#xed;" horiz-adv-x="230" 
d="M116 560h-7q-12 0 -5 10l78 120q6 10 16 10h15q5 0 6.5 -3t-1.5 -7l-85 -120q-7 -10 -17 -10zM127 0h-10q-10 0 -10 10v454q0 10 10 10h10q10 0 10 -10v-454q0 -10 -10 -10z" />
    <glyph glyph-name="icircumflex" unicode="&#xee;" horiz-adv-x="230" 
d="M121 0h-10q-10 0 -10 10v454q0 10 10 10h10q10 0 10 -10v-454q0 -10 -10 -10zM217 560h-8q-9 0 -16 10l-76 98h-2l-76 -98q-7 -10 -16 -10h-8q-4 0 -5.5 3t1.5 7l87 121q6 9 14 9h8q8 0 14 -9l87 -121q3 -4 1.5 -7t-5.5 -3z" />
    <glyph glyph-name="idieresis" unicode="&#xef;" horiz-adv-x="230" 
d="M227 620h-24q-10 0 -10 10v40q0 10 10 10h24q10 0 10 -10v-40q0 -10 -10 -10zM27 620h-24q-10 0 -10 10v40q0 10 10 10h24q10 0 10 -10v-40q0 -10 -10 -10zM120 0h-10q-10 0 -10 10v454q0 10 10 10h10q10 0 10 -10v-454q0 -10 -10 -10z" />
    <glyph glyph-name="eth" unicode="&#xf0;" horiz-adv-x="502" 
d="M358 606l-83 -25l43 -52q68 -79 93 -141q26 -63 26 -141q0 -89 -16 -137q-19 -57 -63 -88.5t-107 -31.5t-107 31.5t-63 88.5q-16 48 -16 127t16 127q19 57 62 88.5t101 31.5q54 0 100 -33h1l-100 121l-96 -29q-13 -3 -14 7l-1 6q-1 9 8 12l85 25l-65 77q-3 4 -1.5 7
t5.5 3h17q10 0 17 -10l56 -68l95 28q11 3 13 -6l1 -6q2 -9 -7 -12zM393 120q14 45 14 117q0 71 -15 115q-16 49 -53 76.5t-88 27.5q-52 0 -89 -26.5t-53 -75.5q-14 -45 -14 -117t14 -117q16 -49 53 -75.5t89 -26.5t89 26.5t53 75.5z" />
    <glyph glyph-name="ntilde" unicode="&#xf1;" horiz-adv-x="538" 
d="M434 0h-10q-10 0 -10 10v284q0 162 -139 162q-63 0 -104 -40t-41 -107v-299q0 -10 -10 -10h-10q-10 0 -10 10v454q0 10 10 10h10q10 0 10 -10v-67h1q18 41 56.5 64t89.5 23q81 0 124 -46.5t43 -136.5v-291q0 -10 -10 -10zM320 613q-22 0 -57 21q-28 18 -46 18
q-24 0 -55 -34q-3 -3 -5.5 -2t-2.5 5v15q0 7 7 14q25 28 57 28q26 0 57 -21q27 -18 46 -18q24 0 55 34q3 3 5.5 2t2.5 -5v-15q0 -7 -7 -14q-25 -28 -57 -28z" />
    <glyph glyph-name="ograve" unicode="&#xf2;" horiz-adv-x="502" 
d="M81 110q-16 48 -16 127t16 127q19 57 63 88.5t107 31.5t107 -31.5t63 -88.5q16 -48 16 -127t-16 -127q-19 -57 -63 -88.5t-107 -31.5t-107 31.5t-63 88.5zM393 120q14 45 14 117t-14 117q-16 49 -53 75.5t-89 26.5t-89 -26.5t-53 -75.5q-14 -45 -14 -117t14 -117
q16 -49 53 -75.5t89 -26.5t89 26.5t53 75.5zM269 560h-7q-10 0 -17 10l-85 120q-3 4 -1.5 7t6.5 3h15q10 0 16 -10l78 -120q7 -10 -5 -10z" />
    <glyph glyph-name="oacute" unicode="&#xf3;" horiz-adv-x="502" 
d="M81 110q-16 48 -16 127t16 127q19 57 63 88.5t107 31.5t107 -31.5t63 -88.5q16 -48 16 -127t-16 -127q-19 -57 -63 -88.5t-107 -31.5t-107 31.5t-63 88.5zM393 120q14 45 14 117t-14 117q-16 49 -53 75.5t-89 26.5t-89 -26.5t-53 -75.5q-14 -45 -14 -117t14 -117
q16 -49 53 -75.5t89 -26.5t89 26.5t53 75.5zM240 560h-7q-12 0 -5 10l78 120q6 10 16 10h15q5 0 6.5 -3t-1.5 -7l-85 -120q-7 -10 -17 -10z" />
    <glyph glyph-name="ocircumflex" unicode="&#xf4;" horiz-adv-x="502" 
d="M81 110q-16 48 -16 127t16 127q19 57 63 88.5t107 31.5t107 -31.5t63 -88.5q16 -48 16 -127t-16 -127q-19 -57 -63 -88.5t-107 -31.5t-107 31.5t-63 88.5zM393 120q14 45 14 117t-14 117q-16 49 -53 75.5t-89 26.5t-89 -26.5t-53 -75.5q-14 -45 -14 -117t14 -117
q16 -49 53 -75.5t89 -26.5t89 26.5t53 75.5zM352 560h-8q-9 0 -16 10l-76 98h-2l-76 -98q-7 -10 -16 -10h-8q-4 0 -5.5 3t1.5 7l87 121q6 9 14 9h8q8 0 14 -9l87 -121q3 -4 1.5 -7t-5.5 -3z" />
    <glyph glyph-name="otilde" unicode="&#xf5;" horiz-adv-x="502" 
d="M81 110q-16 48 -16 127t16 127q19 57 63 88.5t107 31.5t107 -31.5t63 -88.5q16 -48 16 -127t-16 -127q-19 -57 -63 -88.5t-107 -31.5t-107 31.5t-63 88.5zM393 120q14 45 14 117t-14 117q-16 49 -53 75.5t-89 26.5t-89 -26.5t-53 -75.5q-14 -45 -14 -117t14 -117
q16 -49 53 -75.5t89 -26.5t89 26.5t53 75.5zM302 613q-22 0 -57 21q-29 18 -46 18q-24 0 -55 -34q-3 -3 -5.5 -2t-2.5 5v15q0 7 7 14q25 28 57 28q26 0 57 -21q27 -18 46 -18q24 0 55 34q3 3 5.5 2t2.5 -5v-15q0 -7 -7 -14q-25 -28 -57 -28z" />
    <glyph glyph-name="odieresis" unicode="&#xf6;" horiz-adv-x="502" 
d="M81 110q-16 48 -16 127t16 127q19 57 63 88.5t107 31.5t107 -31.5t63 -88.5q16 -48 16 -127t-16 -127q-19 -57 -63 -88.5t-107 -31.5t-107 31.5t-63 88.5zM393 120q14 45 14 117t-14 117q-16 49 -53 75.5t-89 26.5t-89 -26.5t-53 -75.5q-14 -45 -14 -117t14 -117
q16 -49 53 -75.5t89 -26.5t89 26.5t53 75.5zM363 620h-24q-10 0 -10 10v40q0 10 10 10h24q10 0 10 -10v-40q0 -10 -10 -10zM163 620h-24q-10 0 -10 10v40q0 10 10 10h24q10 0 10 -10v-40q0 -10 -10 -10z" />
    <glyph glyph-name="divide" unicode="&#xf7;" 
d="M284 384q-13 -15 -31.5 -8t-23 23.5t8.5 31.5q14 14 32 8t22.5 -22.5t-8.5 -32.5zM443 262h-364q-10 0 -10 10v8q0 10 10 10h364q10 0 10 -10v-8q0 -10 -10 -10zM284 120q-13 -15 -31.5 -8t-23 23.5t8.5 31.5q14 14 32 8t22.5 -22.5t-8.5 -32.5z" />
    <glyph glyph-name="oslash" unicode="&#xf8;" horiz-adv-x="502" 
d="M85 -30h-9q-11 0 -5 10l46 70q-21 24 -32 60q-16 48 -16 127t16 127q19 57 63 88.5t107 31.5q73 0 119 -42l35 52q6 10 16 10h9q11 0 5 -10l-46 -71q21 -28 32 -59q16 -48 16 -127t-16 -127q-19 -57 -63 -88.5t-107 -31.5q-73 0 -120 41l-34 -51q-6 -10 -16 -10zM113 120
q8 -25 21 -44l224 341q-41 39 -103 39q-52 0 -89 -26.5t-53 -75.5q-14 -45 -14 -117t14 -117zM255 18q52 0 89 26.5t53 75.5q14 45 14 117t-14 117q-8 24 -21 43l-225 -341q41 -38 104 -38z" />
    <glyph glyph-name="ugrave" unicode="&#xf9;" horiz-adv-x="531" 
d="M421 0h-10q-10 0 -10 10v67h-1q-17 -41 -55.5 -64t-88.5 -23q-165 0 -165 183v291q0 10 10 10h10q10 0 10 -10v-284q0 -84 33.5 -123t103.5 -39q62 0 102.5 40t40.5 107v299q0 10 10 10h10q10 0 10 -10v-454q0 -10 -10 -10zM287 560h-7q-10 0 -17 10l-85 120q-3 4 -1.5 7
t6.5 3h15q10 0 16 -10l78 -120q7 -10 -5 -10z" />
    <glyph glyph-name="uacute" unicode="&#xfa;" horiz-adv-x="531" 
d="M421 0h-10q-10 0 -10 10v67h-1q-17 -41 -55.5 -64t-88.5 -23q-165 0 -165 183v291q0 10 10 10h10q10 0 10 -10v-284q0 -84 33.5 -123t103.5 -39q62 0 102.5 40t40.5 107v299q0 10 10 10h10q10 0 10 -10v-454q0 -10 -10 -10zM250 560h-7q-12 0 -5 10l78 120q6 10 16 10h15
q5 0 6.5 -3t-1.5 -7l-85 -120q-7 -10 -17 -10z" />
    <glyph glyph-name="ucircumflex" unicode="&#xfb;" horiz-adv-x="531" 
d="M421 0h-10q-10 0 -10 10v67h-1q-17 -41 -55.5 -64t-88.5 -23q-165 0 -165 183v291q0 10 10 10h10q10 0 10 -10v-284q0 -84 33.5 -123t103.5 -39q62 0 102.5 40t40.5 107v299q0 10 10 10h10q10 0 10 -10v-454q0 -10 -10 -10zM366 560h-8q-9 0 -16 10l-76 98h-2l-76 -98
q-7 -10 -16 -10h-8q-4 0 -5.5 3t1.5 7l87 121q6 9 14 9h8q8 0 14 -9l87 -121q3 -4 1.5 -7t-5.5 -3z" />
    <glyph glyph-name="udieresis" unicode="&#xfc;" horiz-adv-x="531" 
d="M421 0h-10q-10 0 -10 10v67h-1q-17 -41 -55.5 -64t-88.5 -23q-165 0 -165 183v291q0 10 10 10h10q10 0 10 -10v-284q0 -84 33.5 -123t103.5 -39q62 0 102.5 40t40.5 107v299q0 10 10 10h10q10 0 10 -10v-454q0 -10 -10 -10zM377 620h-24q-10 0 -10 10v40q0 10 10 10h24
q10 0 10 -10v-40q0 -10 -10 -10zM177 620h-24q-10 0 -10 10v40q0 10 10 10h24q10 0 10 -10v-40q0 -10 -10 -10z" />
    <glyph glyph-name="yacute" unicode="&#xfd;" horiz-adv-x="460" 
d="M98 -180h-16q-10 0 -10 10v8q0 10 10 10h18q34 0 53 21q21 19 45 84l20 53l-176 458q-3 10 7 10h12q9 0 13 -10l160 -416h1l157 416q4 10 13 10h12q10 0 7 -10l-199 -519q-28 -76 -57 -100q-26 -25 -70 -25zM223 560h-7q-12 0 -5 10l78 120q6 10 16 10h15q5 0 6.5 -3
t-1.5 -7l-85 -120q-7 -10 -17 -10z" />
    <glyph glyph-name="thorn" unicode="&#xfe;" horiz-adv-x="525" 
d="M120 -180h-10q-10 0 -10 10v840q0 10 10 10h10q10 0 10 -10v-275h1q41 89 151 89q125 0 161 -113q17 -54 17 -134t-17 -134q-36 -113 -161 -113q-110 0 -151 89h-1v-249q0 -10 -10 -10zM280 18q103 0 135 95q15 46 15 124q0 77 -15 124q-32 95 -135 95q-105 0 -137 -95
q-13 -39 -13 -124t13 -124q32 -95 137 -95z" />
    <glyph glyph-name="ydieresis" unicode="&#xff;" horiz-adv-x="460" 
d="M98 -180h-16q-10 0 -10 10v8q0 10 10 10h18q34 0 53 21q21 19 45 84l20 53l-176 458q-3 10 7 10h12q9 0 13 -10l160 -416h1l157 416q4 10 13 10h12q10 0 7 -10l-199 -519q-28 -76 -57 -100q-26 -25 -70 -25zM345 620h-24q-10 0 -10 10v40q0 10 10 10h24q10 0 10 -10v-40
q0 -10 -10 -10zM145 620h-24q-10 0 -10 10v40q0 10 10 10h24q10 0 10 -10v-40q0 -10 -10 -10z" />
    <glyph glyph-name="Amacron" unicode="&#x100;" horiz-adv-x="587" 
d="M40 10l240 660q3 10 11 10h13q8 0 11 -10l238 -660q3 -10 -7 -10h-14q-9 0 -13 10l-66 185h-313l-67 -185q-4 -10 -13 -10h-13q-10 0 -7 10zM296 627l-146 -403h292l-144 403h-2zM412 810h-232q-10 0 -10 10v8q0 10 10 10h232q10 0 10 -10v-8q0 -10 -10 -10z" />
    <glyph glyph-name="amacron" unicode="&#x101;" horiz-adv-x="509" 
d="M405 0h-10q-10 0 -10 10v57h-1q-13 -35 -53.5 -56t-99.5 -21q-75 0 -117 36t-42 102q0 136 176 136h131q6 0 6 6v61q0 70 -28.5 97.5t-103.5 27.5q-83 0 -124 -38q-7 -6 -14 -2l-7 6q-8 8 -1 14q47 48 146 48q88 0 125 -34t37 -119v-321q0 -10 -10 -10zM235 18
q66 0 108 34.5t42 87.5v90q0 6 -6 6h-129q-77 0 -112.5 -26.5t-35.5 -81.5q0 -53 34.5 -81.5t98.5 -28.5zM370 634h-232q-10 0 -10 10v8q0 10 10 10h232q10 0 10 -10v-8q0 -10 -10 -10z" />
    <glyph glyph-name="Abreve" unicode="&#x102;" horiz-adv-x="587" 
d="M40 10l240 660q3 10 11 10h13q8 0 11 -10l238 -660q3 -10 -7 -10h-14q-9 0 -13 10l-66 185h-313l-67 -185q-4 -10 -13 -10h-13q-10 0 -7 10zM296 627l-146 -403h292l-144 403h-2zM180 869q-1 10 9 10h7q8 0 11 -10q19 -67 89 -67q71 0 90 67q3 10 11 10h6q10 0 9 -10
q-8 -42 -39.5 -68t-76.5 -26t-76.5 26t-39.5 68z" />
    <glyph glyph-name="abreve" unicode="&#x103;" horiz-adv-x="509" 
d="M405 0h-10q-10 0 -10 10v57h-1q-13 -35 -53.5 -56t-99.5 -21q-75 0 -117 36t-42 102q0 136 176 136h131q6 0 6 6v61q0 70 -28.5 97.5t-103.5 27.5q-83 0 -124 -38q-7 -6 -14 -2l-7 6q-8 8 -1 14q47 48 146 48q88 0 125 -34t37 -119v-321q0 -10 -10 -10zM235 18
q66 0 108 34.5t42 87.5v90q0 6 -6 6h-129q-77 0 -112.5 -26.5t-35.5 -81.5q0 -53 34.5 -81.5t98.5 -28.5zM138 673q-1 10 9 10h7q8 0 11 -10q19 -67 89 -67q71 0 90 67q3 10 11 10h6q10 0 9 -10q-8 -42 -39.5 -68t-76.5 -26t-76.5 26t-39.5 68z" />
    <glyph glyph-name="Aogonek" unicode="&#x104;" horiz-adv-x="587" 
d="M496 -162q-28 0 -43.5 15t-15.5 42q0 49 83 111l-67 189h-313l-67 -185q-4 -10 -13 -10h-13q-10 0 -7 10l240 660q3 10 11 10h13q8 0 11 -10l238 -660q3 -6 -3 -10q-49 -39 -66 -61.5t-17 -41.5q0 -31 31 -31q11 0 30 11q9 5 14 -3l3 -5q5 -8 -3 -14q-20 -17 -46 -17z
M298 627h-2l-146 -403h292z" />
    <glyph glyph-name="aogonek" unicode="&#x105;" horiz-adv-x="509" 
d="M385 10v57h-1q-13 -35 -53.5 -56t-99.5 -21q-75 0 -117 36t-42 102q0 136 176 136h131q6 0 6 6v61q0 70 -28.5 97.5t-103.5 27.5q-83 0 -124 -38q-7 -6 -14 -2l-7 6q-8 8 -1 14q47 48 146 48q88 0 125 -34t37 -119v-321q0 -5 -5 -10q-49 -39 -66 -61.5t-17 -41.5
q0 -31 31 -31q11 0 30 11q9 5 14 -3l3 -5q5 -8 -3 -14q-20 -17 -46 -17q-28 0 -43.5 15t-15.5 42q0 49 88 115zM235 18q66 0 108 34.5t42 87.5v90q0 6 -6 6h-129q-77 0 -112.5 -26.5t-35.5 -81.5q0 -53 34.5 -81.5t98.5 -28.5z" />
    <glyph glyph-name="Cacute" unicode="&#x106;" horiz-adv-x="548" 
d="M88 135q-18 54 -18 205t18 205q46 145 205 145q137 0 194 -116q5 -9 -2 -13l-10 -5q-8 -5 -13 4q-56 101 -169 101q-135 0 -175 -124q-17 -53 -17 -197t17 -197q40 -124 175 -124q113 0 169 101q5 9 13 4l10 -5q7 -4 2 -13q-57 -116 -194 -116q-159 0 -205 145zM275 765
h-7q-11 0 -4 10l80 103q9 10 17 10h15q4 0 5.5 -3t-1.5 -7l-87 -103q-9 -10 -18 -10z" />
    <glyph glyph-name="cacute" unicode="&#x107;" horiz-adv-x="468" 
d="M249 -10q-62 0 -106 31.5t-62 88.5q-16 51 -16 127t16 127q18 57 62 88.5t106 31.5q111 0 157 -96q5 -10 -5 -14l-7 -3q-9 -3 -13 4q-41 81 -132 81q-108 0 -139 -103q-15 -45 -15 -116t15 -116q31 -103 139 -103q91 0 132 81q4 7 13 4l7 -3q10 -4 5 -14
q-46 -96 -157 -96zM238 560h-7q-12 0 -5 10l78 120q6 10 16 10h15q5 0 6.5 -3t-1.5 -7l-85 -120q-7 -10 -17 -10z" />
    <glyph glyph-name="Ccircumflex" unicode="&#x108;" horiz-adv-x="548" 
d="M88 135q-18 54 -18 205t18 205q46 145 205 145q137 0 194 -116q5 -9 -2 -13l-10 -5q-8 -5 -13 4q-56 101 -169 101q-135 0 -175 -124q-17 -53 -17 -197t17 -197q40 -124 175 -124q113 0 169 101q5 9 13 4l10 -5q7 -4 2 -13q-57 -116 -194 -116q-159 0 -205 145zM391 755
h-8q-9 0 -16 10l-76 98h-2l-76 -98q-7 -10 -16 -10h-8q-12 0 -4 10l87 121q6 9 14 9h8q8 0 14 -9l87 -121q8 -10 -4 -10z" />
    <glyph glyph-name="ccircumflex" unicode="&#x109;" horiz-adv-x="468" 
d="M249 -10q-62 0 -106 31.5t-62 88.5q-16 51 -16 127t16 127q18 57 62 88.5t106 31.5q111 0 157 -96q5 -10 -5 -14l-7 -3q-9 -3 -13 4q-41 81 -132 81q-108 0 -139 -103q-15 -45 -15 -116t15 -116q31 -103 139 -103q91 0 132 81q4 7 13 4l7 -3q10 -4 5 -14
q-46 -96 -157 -96zM352 560h-8q-9 0 -16 10l-76 98h-2l-76 -98q-7 -10 -16 -10h-8q-4 0 -5.5 3t1.5 7l87 121q6 9 14 9h8q8 0 14 -9l87 -121q3 -4 1.5 -7t-5.5 -3z" />
    <glyph glyph-name="Cdotaccent" unicode="&#x10a;" horiz-adv-x="548" 
d="M88 135q-18 54 -18 205t18 205q46 145 205 145q137 0 194 -116q5 -9 -2 -13l-10 -5q-8 -5 -13 4q-56 101 -169 101q-135 0 -175 -124q-17 -53 -17 -197t17 -197q40 -124 175 -124q113 0 169 101q5 9 13 4l10 -5q7 -4 2 -13q-57 -116 -194 -116q-159 0 -205 145zM302 795
h-24q-10 0 -10 10v40q0 10 10 10h24q10 0 10 -10v-40q0 -10 -10 -10z" />
    <glyph glyph-name="cdotaccent" unicode="&#x10b;" horiz-adv-x="468" 
d="M249 -10q-62 0 -106 31.5t-62 88.5q-16 51 -16 127t16 127q18 57 62 88.5t106 31.5q111 0 157 -96q5 -10 -5 -14l-7 -3q-9 -3 -13 4q-41 81 -132 81q-108 0 -139 -103q-15 -45 -15 -116t15 -116q31 -103 139 -103q91 0 132 81q4 7 13 4l7 -3q10 -4 5 -14
q-46 -96 -157 -96zM262 620h-24q-10 0 -10 10v40q0 10 10 10h24q10 0 10 -10v-40q0 -10 -10 -10z" />
    <glyph glyph-name="Ccaron" unicode="&#x10c;" horiz-adv-x="548" 
d="M88 135q-18 54 -18 205t18 205q46 145 205 145q137 0 194 -116q5 -9 -2 -13l-10 -5q-8 -5 -13 4q-56 101 -169 101q-135 0 -175 -124q-17 -53 -17 -197t17 -197q40 -124 175 -124q113 0 169 101q5 9 13 4l10 -5q7 -4 2 -13q-57 -116 -194 -116q-159 0 -205 145zM294 755
h-8q-8 0 -14 9l-87 121q-8 10 4 10h8q9 0 16 -10l76 -98h2l76 98q7 10 16 10h8q12 0 4 -10l-87 -121q-6 -9 -14 -9z" />
    <glyph glyph-name="ccaron" unicode="&#x10d;" horiz-adv-x="468" 
d="M249 -10q-62 0 -106 31.5t-62 88.5q-16 51 -16 127t16 127q18 57 62 88.5t106 31.5q111 0 157 -96q5 -10 -5 -14l-7 -3q-9 -3 -13 4q-41 81 -132 81q-108 0 -139 -103q-15 -45 -15 -116t15 -116q31 -103 139 -103q91 0 132 81q4 7 13 4l7 -3q10 -4 5 -14
q-46 -96 -157 -96zM254 560h-8q-8 0 -14 9l-87 121q-8 10 4 10h8q9 0 16 -10l76 -98h2l76 98q7 10 16 10h8q12 0 4 -10l-87 -121q-6 -9 -14 -9z" />
    <glyph glyph-name="Dcaron" unicode="&#x10e;" horiz-adv-x="622" 
d="M102 10v660q0 10 10 10h200q170 0 213 -132q19 -57 19 -208t-19 -208q-43 -132 -213 -132h-200q-10 0 -10 10zM133 645v-610q0 -6 6 -6h173q147 0 183 110q18 55 18 201t-18 201q-36 110 -183 110h-173q-6 0 -6 -6zM303 755h-8q-8 0 -14 9l-87 121q-3 4 -1.5 7t5.5 3h8
q9 0 16 -10l76 -98h2l76 98q7 10 16 10h8q4 0 5.5 -3t-1.5 -7l-87 -121q-6 -9 -14 -9z" />
    <glyph glyph-name="dcaron" unicode="&#x10f;" horiz-adv-x="525" 
d="M415 0h-10q-10 0 -10 10v69h-1q-41 -89 -151 -89q-125 0 -161 113q-17 54 -17 134t17 134q36 113 161 113q110 0 151 -89h1v275q0 10 10 10h10q10 0 10 -10v-660q0 -10 -10 -10zM245 18q105 0 137 95q13 39 13 124t-13 124q-32 95 -137 95q-103 0 -135 -95
q-15 -47 -15 -124t15 -124q32 -95 135 -95zM480 561v109q0 10 9 10h11q9 0 9 -10v-64q0 -15 -5 -28l-7 -19q-2 -4 -6 -6t-7.5 0t-3.5 8z" />
    <glyph glyph-name="Dcroat" unicode="&#x110;" horiz-adv-x="622" 
d="M312 0h-200q-10 0 -10 10v315q0 6 -6 6h-46q-10 0 -10 10v8q0 10 10 10h46q6 0 6 6v305q0 10 10 10h200q170 0 213 -132q19 -57 19 -208t-19 -208q-43 -132 -213 -132zM139 29h173q147 0 183 110q18 55 18 201t-18 201q-36 110 -183 110h-173q-6 0 -6 -6v-280q0 -6 6 -6
h145q10 0 10 -10v-8q0 -10 -10 -10h-145q-6 0 -6 -6v-290q0 -6 6 -6z" />
    <glyph glyph-name="dslash" unicode="&#x111;" horiz-adv-x="525" 
d="M415 0h-10q-10 0 -10 10v69h-1q-41 -89 -151 -89q-125 0 -161 113q-17 54 -17 134t17 134q36 113 161 113q110 0 151 -89h1v171q0 6 -6 6h-140q-10 0 -10 10v7q0 10 10 10h140q6 0 6 6v65q0 10 10 10h10q10 0 10 -10v-65q0 -6 6 -6h37q10 0 10 -10v-7q0 -10 -10 -10h-37
q-6 0 -6 -6v-556q0 -10 -10 -10zM245 18q105 0 137 95q13 39 13 124t-13 124q-32 95 -137 95q-103 0 -135 -95q-15 -47 -15 -124t15 -124q32 -95 135 -95z" />
    <glyph glyph-name="Emacron" unicode="&#x112;" horiz-adv-x="550" 
d="M102 10v660q0 10 10 10h374q10 0 10 -10v-9q0 -10 -10 -10h-347q-6 0 -6 -6v-279q0 -6 6 -6h300q10 0 10 -10v-9q0 -10 -10 -10h-300q-6 0 -6 -6v-290q0 -6 6 -6h347q10 0 10 -10v-9q0 -10 -10 -10h-374q-10 0 -10 10zM409 810h-232q-10 0 -10 10v8q0 10 10 10h232
q10 0 10 -10v-8q0 -10 -10 -10z" />
    <glyph glyph-name="emacron" unicode="&#x113;" horiz-adv-x="494" 
d="M253 -10q-135 0 -174 122q-14 45 -14 126q0 82 14 126q19 58 62.5 89t105.5 31q129 0 168 -120q14 -44 14 -118q0 -10 -11 -10h-317q-6 0 -6 -7q0 -68 12 -107q35 -104 146 -104q93 0 143 69q6 8 14 2l6 -5q7 -6 1 -14q-56 -80 -164 -80zM101 264h292q6 0 6 6
q0 45 -11 83q-33 103 -141 103t-141 -103q-11 -38 -11 -83q0 -6 6 -6zM363 634h-232q-10 0 -10 10v8q0 10 10 10h232q10 0 10 -10v-8q0 -10 -10 -10z" />
    <glyph glyph-name="Ebreve" unicode="&#x114;" horiz-adv-x="550" 
d="M102 10v660q0 10 10 10h374q10 0 10 -10v-9q0 -10 -10 -10h-347q-6 0 -6 -6v-279q0 -6 6 -6h300q10 0 10 -10v-9q0 -10 -10 -10h-300q-6 0 -6 -6v-290q0 -6 6 -6h347q10 0 10 -10v-9q0 -10 -10 -10h-374q-10 0 -10 10zM179 869q-1 10 9 10h7q8 0 11 -10q19 -67 89 -67
q71 0 90 67q3 10 11 10h6q10 0 9 -10q-8 -42 -39.5 -68t-76.5 -26t-76.5 26t-39.5 68z" />
    <glyph glyph-name="ebreve" unicode="&#x115;" horiz-adv-x="494" 
d="M253 -10q-135 0 -174 122q-14 45 -14 126q0 82 14 126q19 58 62.5 89t105.5 31q129 0 168 -120q14 -44 14 -118q0 -10 -11 -10h-317q-6 0 -6 -7q0 -68 12 -107q35 -104 146 -104q93 0 143 69q6 8 14 2l6 -5q7 -6 1 -14q-56 -80 -164 -80zM101 264h292q6 0 6 6
q0 45 -11 83q-33 103 -141 103t-141 -103q-11 -38 -11 -83q0 -6 6 -6zM131 673q-1 10 9 10h7q8 0 11 -10q19 -67 89 -67q71 0 90 67q3 10 11 10h6q10 0 9 -10q-8 -42 -39.5 -68t-76.5 -26t-76.5 26t-39.5 68z" />
    <glyph glyph-name="Edotaccent" unicode="&#x116;" horiz-adv-x="550" 
d="M102 10v660q0 10 10 10h374q10 0 10 -10v-9q0 -10 -10 -10h-347q-6 0 -6 -6v-279q0 -6 6 -6h300q10 0 10 -10v-9q0 -10 -10 -10h-300q-6 0 -6 -6v-290q0 -6 6 -6h347q10 0 10 -10v-9q0 -10 -10 -10h-374q-10 0 -10 10zM311 795h-24q-10 0 -10 10v40q0 10 10 10h24
q10 0 10 -10v-40q0 -10 -10 -10z" />
    <glyph glyph-name="edotaccent" unicode="&#x117;" horiz-adv-x="494" 
d="M253 -10q-135 0 -174 122q-14 45 -14 126q0 82 14 126q19 58 62.5 89t105.5 31q129 0 168 -120q14 -44 14 -118q0 -10 -11 -10h-317q-6 0 -6 -7q0 -68 12 -107q35 -104 146 -104q93 0 143 69q6 8 14 2l6 -5q7 -6 1 -14q-56 -80 -164 -80zM101 264h292q6 0 6 6
q0 45 -11 83q-33 103 -141 103t-141 -103q-11 -38 -11 -83q0 -6 6 -6zM259 620h-24q-10 0 -10 10v40q0 10 10 10h24q10 0 10 -10v-40q0 -10 -10 -10z" />
    <glyph glyph-name="Eogonek" unicode="&#x118;" horiz-adv-x="550" 
d="M424 -162q-28 0 -43.5 15t-15.5 42q0 47 75 105h-328q-10 0 -10 10v660q0 10 10 10h374q10 0 10 -10v-9q0 -10 -10 -10h-347q-6 0 -6 -6v-279q0 -6 6 -6h300q10 0 10 -10v-9q0 -10 -10 -10h-300q-6 0 -6 -6v-290q0 -6 6 -6h347q10 0 10 -10v-9q0 -10 -10 -10h-9
q-48 -38 -65 -60.5t-17 -42.5q0 -31 31 -31q11 0 30 11q9 5 14 -3l3 -5q5 -8 -3 -14q-20 -17 -46 -17z" />
    <glyph glyph-name="eogonek" unicode="&#x119;" horiz-adv-x="494" 
d="M330 -162q-28 0 -43.5 15.5t-15.5 41.5q0 43 54 106q-36 -11 -72 -11q-135 0 -174 122q-14 45 -14 126q0 82 14 126q19 58 62.5 89t105.5 31q129 0 168 -120q14 -44 14 -118q0 -10 -11 -10h-317q-6 0 -6 -7q0 -68 12 -107q35 -104 146 -104q93 0 143 69q6 8 14 2l6 -5
q7 -6 1 -14q-19 -24 -29 -33q-57 -65 -71 -89q-16 -28 -16 -52q0 -30 30 -30q12 0 31 11q9 5 14 -3l3 -5q5 -8 -3 -14q-20 -17 -46 -17zM101 264h292q6 0 6 6q0 45 -11 83q-33 103 -141 103t-141 -103q-11 -38 -11 -83q0 -6 6 -6z" />
    <glyph glyph-name="Ecaron" unicode="&#x11a;" horiz-adv-x="550" 
d="M302 755h-8q-8 0 -14 9l-87 121q-8 10 4 10h8q9 0 16 -10l76 -98h2l76 98q7 10 16 10h8q12 0 4 -10l-87 -121q-6 -9 -14 -9zM102 10v660q0 10 10 10h374q10 0 10 -10v-9q0 -10 -10 -10h-347q-6 0 -6 -6v-279q0 -6 6 -6h300q10 0 10 -10v-9q0 -10 -10 -10h-300q-6 0 -6 -6
v-290q0 -6 6 -6h347q10 0 10 -10v-9q0 -10 -10 -10h-374q-10 0 -10 10z" />
    <glyph glyph-name="ecaron" unicode="&#x11b;" horiz-adv-x="494" 
d="M253 -10q-135 0 -174 122q-14 45 -14 126q0 82 14 126q19 58 62.5 89t105.5 31q129 0 168 -120q14 -44 14 -118q0 -10 -11 -10h-317q-6 0 -6 -7q0 -68 12 -107q35 -104 146 -104q93 0 143 69q6 8 14 2l6 -5q7 -6 1 -14q-56 -80 -164 -80zM101 264h292q6 0 6 6
q0 45 -11 83q-33 103 -141 103t-141 -103q-11 -38 -11 -83q0 -6 6 -6zM251 560h-8q-8 0 -14 9l-87 121q-3 4 -1.5 7t5.5 3h8q9 0 16 -10l76 -98h2l76 98q7 10 16 10h8q4 0 5.5 -3t-1.5 -7l-87 -121q-6 -9 -14 -9z" />
    <glyph glyph-name="Gcircumflex" unicode="&#x11c;" horiz-adv-x="602" 
d="M89 138q-19 56 -19 202t19 202q48 148 212 148q145 0 202 -115q6 -10 -2 -15l-9 -5q-9 -4 -13 3q-55 103 -178 103q-140 0 -182 -127q-18 -54 -18 -194t18 -194q42 -127 182 -127t182 127q18 54 18 151q0 6 -6 6h-173q-10 0 -10 10v9q0 10 10 10h200q10 0 10 -10v-32
q0 -96 -19 -152q-48 -148 -212 -148t-212 148zM402 755h-8q-9 0 -16 10l-76 98h-2l-76 -98q-7 -10 -16 -10h-8q-4 0 -5.5 3t1.5 7l87 121q6 9 14 9h8q8 0 14 -9l87 -121q3 -4 1.5 -7t-5.5 -3z" />
    <glyph glyph-name="gcircumflex" unicode="&#x11d;" horiz-adv-x="517" 
d="M239 -190q-49 0 -90.5 19t-59.5 49q-6 9 2 14l8 5q8 5 14 -3q44 -56 126 -56q148 0 148 161v80h-1q-39 -89 -148 -89q-119 0 -157 113q-16 47 -16 134t16 134q38 113 157 113q109 0 148 -89h1v69q0 10 10 10h10q10 0 10 -10v-465q0 -94 -46.5 -141.5t-131.5 -47.5z
M241 18q101 0 133 95q13 36 13 124t-13 124q-32 95 -133 95q-100 0 -131 -94q-15 -45 -15 -125t15 -125q31 -94 131 -94zM349 560h-8q-9 0 -16 10l-76 98h-2l-76 -98q-7 -10 -16 -10h-8q-12 0 -4 10l87 121q6 9 14 9h8q8 0 14 -9l87 -121q8 -10 -4 -10z" />
    <glyph glyph-name="Gbreve" unicode="&#x11e;" horiz-adv-x="602" 
d="M89 138q-19 56 -19 202t19 202q48 148 212 148q145 0 202 -115q6 -10 -2 -15l-9 -5q-9 -4 -13 3q-55 103 -178 103q-140 0 -182 -127q-18 -54 -18 -194t18 -194q42 -127 182 -127t182 127q18 54 18 151q0 6 -6 6h-173q-10 0 -10 10v9q0 10 10 10h200q10 0 10 -10v-32
q0 -96 -19 -152q-48 -148 -212 -148t-212 148zM185 869q-1 10 9 10h7q8 0 11 -10q19 -67 89 -67q71 0 90 67q3 10 11 10h6q10 0 9 -10q-8 -42 -39.5 -68t-76.5 -26t-76.5 26t-39.5 68z" />
    <glyph glyph-name="gbreve" unicode="&#x11f;" horiz-adv-x="517" 
d="M239 -190q-49 0 -90.5 19t-59.5 49q-6 9 2 14l8 5q8 5 14 -3q44 -56 126 -56q148 0 148 161v80h-1q-39 -89 -148 -89q-119 0 -157 113q-16 47 -16 134t16 134q38 113 157 113q109 0 148 -89h1v69q0 10 10 10h10q10 0 10 -10v-465q0 -94 -46.5 -141.5t-131.5 -47.5z
M241 18q101 0 133 95q13 36 13 124t-13 124q-32 95 -133 95q-100 0 -131 -94q-15 -45 -15 -125t15 -125q31 -94 131 -94zM136 673q-1 10 9 10h7q8 0 11 -10q19 -67 89 -67q71 0 90 67q3 10 11 10h6q10 0 9 -10q-8 -42 -39.5 -68t-76.5 -26t-76.5 26t-39.5 68z" />
    <glyph glyph-name="Gdotaccent" unicode="&#x120;" horiz-adv-x="602" 
d="M89 138q-19 56 -19 202t19 202q48 148 212 148q145 0 202 -115q6 -10 -2 -15l-9 -5q-9 -4 -13 3q-55 103 -178 103q-140 0 -182 -127q-18 -54 -18 -194t18 -194q42 -127 182 -127t182 127q18 54 18 151q0 6 -6 6h-173q-10 0 -10 10v9q0 10 10 10h200q10 0 10 -10v-32
q0 -96 -19 -152q-48 -148 -212 -148t-212 148zM313 795h-24q-10 0 -10 10v40q0 10 10 10h24q10 0 10 -10v-40q0 -10 -10 -10z" />
    <glyph glyph-name="gdotaccent" unicode="&#x121;" horiz-adv-x="517" 
d="M239 -190q-49 0 -90.5 19t-59.5 49q-6 9 2 14l8 5q8 5 14 -3q44 -56 126 -56q148 0 148 161v80h-1q-39 -89 -148 -89q-119 0 -157 113q-16 47 -16 134t16 134q38 113 157 113q109 0 148 -89h1v69q0 10 10 10h10q10 0 10 -10v-465q0 -94 -46.5 -141.5t-131.5 -47.5z
M241 18q101 0 133 95q13 36 13 124t-13 124q-32 95 -133 95q-100 0 -131 -94q-15 -45 -15 -125t15 -125q31 -94 131 -94zM265 620h-24q-10 0 -10 10v40q0 10 10 10h24q10 0 10 -10v-40q0 -10 -10 -10z" />
    <glyph glyph-name="Gcommaaccent" unicode="&#x122;" horiz-adv-x="602" 
d="M89 138q-19 56 -19 202t19 202q48 148 212 148q145 0 202 -115q6 -10 -2 -15l-9 -5q-9 -4 -13 3q-55 103 -178 103q-140 0 -182 -127q-18 -54 -18 -194t18 -194q42 -127 182 -127t182 127q18 54 18 151q0 6 -6 6h-173q-10 0 -10 10v9q0 10 10 10h200q10 0 10 -10v-32
q0 -96 -19 -152q-48 -148 -212 -148t-212 148zM286 -174v109q0 10 9 10h11q9 0 9 -10v-64q0 -13 -5 -28l-7 -19q-2 -4 -6 -6t-7.5 0t-3.5 8z" />
    <glyph glyph-name="gcommaaccent" unicode="&#x123;" horiz-adv-x="517" 
d="M239 -190q-49 0 -90.5 19t-59.5 49q-6 9 2 14l8 5q8 5 14 -3q44 -56 126 -56q148 0 148 161v80h-1q-39 -89 -148 -89q-119 0 -157 113q-16 47 -16 134t16 134q38 113 157 113q109 0 148 -89h1v69q0 10 10 10h10q10 0 10 -10v-465q0 -94 -46.5 -141.5t-131.5 -47.5z
M241 18q101 0 133 95q13 36 13 124t-13 124q-32 95 -133 95q-100 0 -131 -94q-15 -45 -15 -125t15 -125q31 -94 131 -94zM264 691v-109q0 -10 -9 -10h-11q-9 0 -9 10v64q0 15 5 28l7 19q2 4 6 6t7.5 0t3.5 -8z" />
    <glyph glyph-name="Hcircumflex" unicode="&#x124;" horiz-adv-x="647" 
d="M102 10v660q0 10 10 10h11q10 0 10 -10v-304q0 -6 6 -6h369q6 0 6 6v304q0 10 10 10h11q10 0 10 -10v-660q0 -10 -10 -10h-11q-10 0 -10 10v315q0 6 -6 6h-369q-6 0 -6 -6v-315q0 -10 -10 -10h-11q-10 0 -10 10zM424 755h-8q-9 0 -16 10l-76 98h-2l-76 -98
q-7 -10 -16 -10h-8q-4 0 -5.5 3t1.5 7l87 121q6 9 14 9h8q8 0 14 -9l87 -121q3 -4 1.5 -7t-5.5 -3z" />
    <glyph glyph-name="hcircumflex" unicode="&#x125;" horiz-adv-x="538" 
d="M375 755h-8q-9 0 -16 10l-76 98h-2l-76 -98q-7 -10 -16 -10h-8q-12 0 -4 10l87 121q6 9 14 9h8q8 0 14 -9l87 -121q8 -10 -4 -10zM434 0h-10q-10 0 -10 10v284q0 162 -139 162q-63 0 -104 -40t-41 -107v-299q0 -10 -10 -10h-10q-10 0 -10 10v660q0 10 10 10h10
q10 0 10 -10v-273h1q18 41 56.5 64t89.5 23q81 0 124 -46.5t43 -136.5v-291q0 -10 -10 -10z" />
    <glyph glyph-name="Hbar" unicode="&#x126;" horiz-adv-x="647" 
d="M535 0h-11q-10 0 -10 10v315q0 6 -6 6h-369q-6 0 -6 -6v-315q0 -10 -10 -10h-11q-10 0 -10 10v487q0 6 -6 6h-42q-10 0 -10 10v7q0 10 10 10h42q6 0 6 6v134q0 10 10 10h11q10 0 10 -10v-134q0 -6 6 -6h369q6 0 6 6v134q0 10 10 10h11q10 0 10 -10v-134q0 -6 6 -6h42
q10 0 10 -10v-7q0 -10 -10 -10h-42q-6 0 -6 -6v-487q0 -10 -10 -10zM139 360h369q6 0 6 6v131q0 6 -6 6h-369q-6 0 -6 -6v-131q0 -6 6 -6z" />
    <glyph glyph-name="hbar" unicode="&#x127;" horiz-adv-x="538" 
d="M434 0h-10q-10 0 -10 10v284q0 162 -139 162q-63 0 -104 -40t-41 -107v-299q0 -10 -10 -10h-10q-10 0 -10 10v556q0 6 -6 6h-37q-10 0 -10 10v7q0 10 10 10h37q6 0 6 6v65q0 10 10 10h10q10 0 10 -10v-65q0 -6 6 -6h140q10 0 10 -10v-7q0 -10 -10 -10h-140q-6 0 -6 -6
v-169h1q18 41 56.5 64t89.5 23q81 0 124 -46.5t43 -136.5v-291q0 -10 -10 -10z" />
    <glyph glyph-name="Itilde" unicode="&#x128;" horiz-adv-x="235" 
d="M169 794q-23 0 -57 21q-29 18 -46 18q-24 0 -55 -34q-3 -3 -5.5 -2t-2.5 5v15q0 7 7 14q25 28 57 28q25 0 57 -21q27 -18 46 -18q24 0 55 34q3 3 5.5 2t2.5 -5v-15q0 -7 -7 -14q-25 -28 -57 -28zM102 10v660q0 10 10 10h11q10 0 10 -10v-660q0 -10 -10 -10h-11
q-10 0 -10 10z" />
    <glyph glyph-name="itilde" unicode="&#x129;" horiz-adv-x="230" 
d="M166 613q-22 0 -57 21q-28 18 -46 18q-24 0 -55 -34q-3 -3 -5.5 -2t-2.5 5v15q0 7 7 14q25 28 57 28q26 0 57 -21q27 -18 46 -18q24 0 55 34q3 3 5.5 2t2.5 -5v-15q0 -7 -7 -14q-25 -28 -57 -28zM120 0h-10q-10 0 -10 10v454q0 10 10 10h10q10 0 10 -10v-454
q0 -10 -10 -10z" />
    <glyph glyph-name="Imacron" unicode="&#x12a;" horiz-adv-x="235" 
d="M102 10v660q0 10 10 10h11q10 0 10 -10v-660q0 -10 -10 -10h-11q-10 0 -10 10zM234 810h-232q-10 0 -10 10v8q0 10 10 10h232q10 0 10 -10v-8q0 -10 -10 -10z" />
    <glyph glyph-name="imacron" unicode="&#x12b;" horiz-adv-x="230" 
d="M120 0h-10q-10 0 -10 10v454q0 10 10 10h10q10 0 10 -10v-454q0 -10 -10 -10zM231 634h-232q-10 0 -10 10v8q0 10 10 10h232q10 0 10 -10v-8q0 -10 -10 -10z" />
    <glyph glyph-name="Ibreve" unicode="&#x12c;" horiz-adv-x="235" 
d="M4 869q-1 10 9 10h7q8 0 11 -10q19 -67 89 -67q71 0 90 67q3 10 11 10h6q10 0 9 -10q-8 -42 -39.5 -68t-76.5 -26t-76.5 26t-39.5 68zM104 10v660q0 10 10 10h11q10 0 10 -10v-660q0 -10 -10 -10h-11q-10 0 -10 10z" />
    <glyph glyph-name="ibreve" unicode="&#x12d;" horiz-adv-x="230" 
d="M1 673q-1 10 9 10h7q8 0 11 -10q19 -67 89 -67q71 0 90 67q3 10 11 10h6q10 0 9 -10q-8 -42 -39.5 -68t-76.5 -26t-76.5 26t-39.5 68zM122 0h-10q-10 0 -10 10v454q0 10 10 10h10q10 0 10 -10v-454q0 -10 -10 -10z" />
    <glyph glyph-name="Iogonek" unicode="&#x12e;" horiz-adv-x="235" 
d="M96 -162q-28 0 -43.5 15t-15.5 42q0 39 65 112v663q0 10 10 10h11q10 0 10 -10v-659q0 -6 -4 -10q-37 -43 -49.5 -64t-12.5 -40q0 -31 31 -31q11 0 30 11q9 5 14 -3l3 -5q5 -8 -3 -14q-20 -17 -46 -17z" />
    <glyph glyph-name="iogonek" unicode="&#x12f;" horiz-adv-x="230" 
d="M127 620h-24q-10 0 -10 10v40q0 10 10 10h24q10 0 10 -10v-40q0 -10 -10 -10zM92 -162q-28 0 -43.5 15t-15.5 42q0 24 13 46q14 23 54 66v457q0 10 10 10h10q10 0 10 -10v-454q0 -5 -4 -9q-40 -43 -52 -64q-11 -22 -11 -40q0 -31 31 -31q11 0 30 11q9 5 14 -3l3 -5
q5 -8 -3 -14q-20 -17 -46 -17z" />
    <glyph glyph-name="Idot" unicode="&#x130;" horiz-adv-x="235" 
d="M130 795h-24q-10 0 -10 10v40q0 10 10 10h24q10 0 10 -10v-40q0 -10 -10 -10zM102 10v660q0 10 10 10h11q10 0 10 -10v-660q0 -10 -10 -10h-11q-10 0 -10 10z" />
    <glyph glyph-name="dotlessi" unicode="&#x131;" horiz-adv-x="230" 
d="M120 0h-10q-10 0 -10 10v454q0 10 10 10h10q10 0 10 -10v-454q0 -10 -10 -10z" />
    <glyph glyph-name="Jcircumflex" unicode="&#x134;" horiz-adv-x="460" 
d="M52 34q-8 5 -3 14l8 9q6 6 15 1q52 -39 114 -39q153 0 153 173v478q0 10 10 10h11q10 0 10 -10v-479q0 -100 -47.5 -150.5t-136.5 -50.5q-75 0 -134 44zM453 755h-8q-9 0 -16 10l-76 98h-2l-76 -98q-7 -10 -16 -10h-8q-4 0 -5.5 3t1.5 7l87 121q6 9 14 9h8q8 0 14 -9
l87 -121q3 -4 1.5 -7t-5.5 -3z" />
    <glyph glyph-name="jcircumflex" unicode="&#x135;" horiz-adv-x="230" 
d="M24 -180h-4q-10 0 -10 10v8q0 10 10 10h4q46 0 61.5 16t15.5 65v535q0 10 10 10h10q10 0 10 -10v-535q0 -63 -23 -86t-84 -23zM217 560h-8q-9 0 -16 10l-76 98h-2l-76 -98q-7 -10 -16 -10h-8q-4 0 -5.5 3t1.5 7l87 121q6 9 14 9h8q8 0 14 -9l87 -121q3 -4 1.5 -7t-5.5 -3
z" />
    <glyph glyph-name="Kcommaaccent" unicode="&#x136;" horiz-adv-x="582" 
d="M102 10v660q0 10 10 10h11q10 0 10 -10v-421l353 421q9 10 17 10h18q5 0 6.5 -3t-1.5 -7l-217 -258l231 -402q6 -10 -5 -10h-17q-8 0 -14 10l-217 377l-154 -184v-193q0 -10 -10 -10h-11q-10 0 -10 10zM276 -174v109q0 10 9 10h11q9 0 9 -10v-64q0 -13 -5 -28l-7 -19
q-2 -4 -6 -6t-7.5 0t-3.5 8z" />
    <glyph glyph-name="kcommaaccent" unicode="&#x137;" horiz-adv-x="490" 
d="M440 0h-13q-9 0 -15 10l-165 269l-117 -140v-129q0 -10 -10 -10h-10q-10 0 -10 10v660q0 10 10 10h10q10 0 10 -10v-488l237 283q7 9 16 9h15q5 0 6.5 -3t-1.5 -7l-136 -162l179 -292q2 -4 0 -7t-6 -3zM230 -174v109q0 10 9 10h11q9 0 9 -10v-64q0 -13 -5 -28l-7 -19
q-2 -4 -6 -6t-7.5 0t-3.5 8z" />
    <glyph glyph-name="kgreenlandic" unicode="&#x138;" horiz-adv-x="490" 
d="M440 0h-13q-9 0 -15 10l-165 269l-117 -140v-129q0 -10 -10 -10h-10q-10 0 -10 10v454q0 10 10 10h10q10 0 10 -10v-282l237 283q7 9 16 9h15q5 0 6.5 -3t-1.5 -7l-136 -162l179 -292q2 -4 0 -7t-6 -3z" />
    <glyph glyph-name="Lacute" unicode="&#x139;" horiz-adv-x="524" 
d="M119 765h-7q-11 0 -4 10l80 103q9 10 17 10h15q4 0 5.5 -3t-1.5 -7l-87 -103q-9 -10 -18 -10zM110 10v660q0 10 10 10h11q10 0 10 -10v-635q0 -6 6 -6h347q10 0 10 -10v-9q0 -10 -10 -10h-374q-10 0 -10 10z" />
    <glyph glyph-name="lacute" unicode="&#x13a;" horiz-adv-x="249" 
d="M199 -2h-15q-46 0 -65.5 23t-19.5 76v573q0 10 10 10h10q10 0 10 -10v-573q0 -39 12.5 -55t42.5 -16h15q10 0 10 -10v-8q0 -10 -10 -10zM120 765h-7q-11 0 -4 10l80 103q9 10 17 10h15q12 0 4 -10l-87 -103q-9 -10 -18 -10z" />
    <glyph glyph-name="Lcommaaccent" unicode="&#x13b;" horiz-adv-x="524" 
d="M102 10v660q0 10 10 10h11q10 0 10 -10v-635q0 -6 6 -6h347q10 0 10 -10v-9q0 -10 -10 -10h-374q-10 0 -10 10zM290 -174v109q0 10 9 10h11q9 0 9 -10v-64q0 -13 -5 -28l-7 -19q-2 -4 -6 -6t-7.5 0t-3.5 8z" />
    <glyph glyph-name="lcommaaccent" unicode="&#x13c;" horiz-adv-x="249" 
d="M199 -2h-15q-46 0 -65.5 23t-19.5 76v573q0 10 10 10h10q10 0 10 -10v-573q0 -39 12.5 -55t42.5 -16h15q10 0 10 -10v-8q0 -10 -10 -10zM140 -174v109q0 10 9 10h11q9 0 9 -10v-64q0 -13 -5 -28l-7 -19q-2 -4 -6 -6t-7.5 0t-3.5 8z" />
    <glyph glyph-name="Lcaron" unicode="&#x13d;" horiz-adv-x="524" 
d="M102 10v660q0 10 10 10h11q10 0 10 -10v-635q0 -6 6 -6h347q10 0 10 -10v-9q0 -10 -10 -10h-374q-10 0 -10 10zM248 561v109q0 10 9 10h11q9 0 9 -10v-64q0 -15 -5 -28l-7 -19q-2 -4 -6 -6t-7.5 0t-3.5 8z" />
    <glyph glyph-name="lcaron" unicode="&#x13e;" horiz-adv-x="249" 
d="M199 -2h-15q-46 0 -65.5 23t-19.5 76v573q0 10 10 10h10q10 0 10 -10v-573q0 -39 12.5 -55t42.5 -16h15q10 0 10 -10v-8q0 -10 -10 -10zM192 552q-7 0 -7 9v109q0 10 9 10h11q9 0 9 -10v-64q0 -15 -5 -28l-7 -19q-4 -7 -10 -7z" />
    <glyph glyph-name="Ldot" unicode="&#x13f;" horiz-adv-x="524" 
d="M102 10v660q0 10 10 10h11q10 0 10 -10v-635q0 -6 6 -6h347q10 0 10 -10v-9q0 -10 -10 -10h-374q-10 0 -10 10zM393 292h-28q-10 0 -10 10v50q0 10 10 10h28q10 0 10 -10v-50q0 -10 -10 -10z" />
    <glyph glyph-name="ldot" unicode="&#x140;" horiz-adv-x="249" 
d="M199 -2h-15q-46 0 -65.5 23t-19.5 76v573q0 10 10 10h10q10 0 10 -10v-573q0 -39 12.5 -55t42.5 -16h15q10 0 10 -10v-8q0 -10 -10 -10zM252 291h-28q-10 0 -10 10v50q0 10 10 10h28q10 0 10 -10v-50q0 -10 -10 -10z" />
    <glyph glyph-name="Lslash" unicode="&#x141;" horiz-adv-x="524" 
d="M486 0h-374q-10 0 -10 10v297l-59 -30q-10 -4 -10 6v12q0 10 10 14l59 30v331q0 10 10 10h11q10 0 10 -10v-315l171 87q10 4 10 -6v-12q0 -10 -10 -14l-171 -87v-288q0 -6 6 -6h347q10 0 10 -10v-9q0 -10 -10 -10z" />
    <glyph glyph-name="lslash" unicode="&#x142;" horiz-adv-x="249" 
d="M199 392l-70 -36v-259q0 -39 12.5 -55t42.5 -16h15q10 0 10 -10v-8q0 -10 -10 -10h-15q-46 0 -65.5 23t-19.5 76v244l-41 -21q-10 -4 -10 6v12q0 10 10 14l41 21v297q0 10 10 10h10q10 0 10 -10v-282l70 36q10 4 10 -6v-12q0 -10 -10 -14z" />
    <glyph glyph-name="Nacute" unicode="&#x143;" horiz-adv-x="648" 
d="M102 10v660q0 10 10 10h9q11 0 17 -10l374 -603h3v603q0 10 10 10h11q10 0 10 -10v-660q0 -10 -10 -10h-9q-11 0 -17 10l-374 603h-3v-603q0 -10 -10 -10h-11q-10 0 -10 10zM298 765h-7q-11 0 -4 10l80 103q9 10 17 10h15q12 0 4 -10l-87 -103q-9 -10 -18 -10z" />
    <glyph glyph-name="nacute" unicode="&#x144;" horiz-adv-x="538" 
d="M434 0h-10q-10 0 -10 10v284q0 162 -139 162q-63 0 -104 -40t-41 -107v-299q0 -10 -10 -10h-10q-10 0 -10 10v454q0 10 10 10h10q10 0 10 -10v-67h1q18 41 56.5 64t89.5 23q81 0 124 -46.5t43 -136.5v-291q0 -10 -10 -10zM239 560h-7q-12 0 -5 10l78 120q6 10 16 10h15
q5 0 6.5 -3t-1.5 -7l-85 -120q-7 -10 -17 -10z" />
    <glyph glyph-name="Ncommaaccent" unicode="&#x145;" horiz-adv-x="648" 
d="M102 10v660q0 10 10 10h9q11 0 17 -10l374 -603h3v603q0 10 10 10h11q10 0 10 -10v-660q0 -10 -10 -10h-9q-11 0 -17 10l-374 603h-3v-603q0 -10 -10 -10h-11q-10 0 -10 10zM326 -183q-7 0 -7 9v109q0 10 9 10h11q9 0 9 -10v-64q0 -13 -5 -28l-7 -19q-4 -7 -10 -7z" />
    <glyph glyph-name="ncommaaccent" unicode="&#x146;" horiz-adv-x="538" 
d="M434 0h-10q-10 0 -10 10v284q0 162 -139 162q-63 0 -104 -40t-41 -107v-299q0 -10 -10 -10h-10q-10 0 -10 10v454q0 10 10 10h10q10 0 10 -10v-67h1q18 41 56.5 64t89.5 23q81 0 124 -46.5t43 -136.5v-291q0 -10 -10 -10zM254 -174v109q0 10 9 10h11q9 0 9 -10v-64
q0 -13 -5 -28l-7 -19q-2 -4 -6 -6t-7.5 0t-3.5 8z" />
    <glyph glyph-name="Ncaron" unicode="&#x147;" horiz-adv-x="648" 
d="M102 10v660q0 10 10 10h9q11 0 17 -10l374 -603h3v603q0 10 10 10h11q10 0 10 -10v-660q0 -10 -10 -10h-9q-11 0 -17 10l-374 603h-3v-603q0 -10 -10 -10h-11q-10 0 -10 10zM328 755h-8q-8 0 -14 9l-87 121q-8 10 4 10h8q9 0 16 -10l76 -98h2l76 98q7 10 16 10h8
q12 0 4 -10l-87 -121q-6 -9 -14 -9z" />
    <glyph glyph-name="ncaron" unicode="&#x148;" horiz-adv-x="538" 
d="M434 0h-10q-10 0 -10 10v284q0 162 -139 162q-63 0 -104 -40t-41 -107v-299q0 -10 -10 -10h-10q-10 0 -10 10v454q0 10 10 10h10q10 0 10 -10v-67h1q18 41 56.5 64t89.5 23q81 0 124 -46.5t43 -136.5v-291q0 -10 -10 -10zM273 560h-8q-8 0 -14 9l-87 121q-3 4 -1.5 7
t5.5 3h8q9 0 16 -10l76 -98h2l76 98q7 10 16 10h8q4 0 5.5 -3t-1.5 -7l-87 -121q-6 -9 -14 -9z" />
    <glyph glyph-name="Eng" unicode="&#x14a;" horiz-adv-x="648" 
d="M415 -180h-7q-10 0 -10 10v9q0 10 10 10h7q54 0 77 24t23 81v47l-379 612h-3v-603q0 -10 -10 -10h-11q-10 0 -10 10v660q0 10 10 10h10q11 0 17 -10l373 -603h3v603q0 10 10 10h11q10 0 10 -10v-714q0 -72 -31 -104t-100 -32z" />
    <glyph glyph-name="eng" unicode="&#x14b;" horiz-adv-x="538" 
d="M337 -180h-4q-10 0 -10 10v8q0 10 10 10h4q46 0 61.5 16t15.5 65v365q0 162 -139 162q-63 0 -104 -40t-41 -107v-299q0 -10 -10 -10h-10q-10 0 -10 10v454q0 10 10 10h10q10 0 10 -10v-67h1q18 41 56.5 64t89.5 23q81 0 124 -46.5t43 -136.5v-372q0 -63 -23 -86t-84 -23z
" />
    <glyph glyph-name="Omacron" unicode="&#x14c;" horiz-adv-x="602" 
d="M90 138q-20 62 -20 202t20 202q48 148 211 148t211 -148q20 -62 20 -202t-20 -202q-48 -148 -211 -148t-211 148zM482 146q19 56 19 194t-19 194q-42 127 -181 127t-181 -127q-19 -56 -19 -194t19 -194q42 -127 181 -127t181 127zM417 810h-232q-10 0 -10 10v8
q0 10 10 10h232q10 0 10 -10v-8q0 -10 -10 -10z" />
    <glyph glyph-name="omacron" unicode="&#x14d;" horiz-adv-x="502" 
d="M81 110q-16 48 -16 127t16 127q19 57 63 88.5t107 31.5t107 -31.5t63 -88.5q16 -48 16 -127t-16 -127q-19 -57 -63 -88.5t-107 -31.5t-107 31.5t-63 88.5zM393 120q14 45 14 117t-14 117q-16 49 -53 75.5t-89 26.5t-89 -26.5t-53 -75.5q-14 -45 -14 -117t14 -117
q16 -49 53 -75.5t89 -26.5t89 26.5t53 75.5zM367 634h-232q-10 0 -10 10v8q0 10 10 10h232q10 0 10 -10v-8q0 -10 -10 -10z" />
    <glyph glyph-name="Obreve" unicode="&#x14e;" horiz-adv-x="602" 
d="M90 138q-20 62 -20 202t20 202q48 148 211 148t211 -148q20 -62 20 -202t-20 -202q-48 -148 -211 -148t-211 148zM482 146q19 56 19 194t-19 194q-42 127 -181 127t-181 -127q-19 -56 -19 -194t19 -194q42 -127 181 -127t181 127zM185 869q-1 10 9 10h7q8 0 11 -10
q19 -67 89 -67q71 0 90 67q3 10 11 10h6q10 0 9 -10q-8 -42 -39.5 -68t-76.5 -26t-76.5 26t-39.5 68z" />
    <glyph glyph-name="obreve" unicode="&#x14f;" horiz-adv-x="502" 
d="M81 110q-16 48 -16 127t16 127q19 57 63 88.5t107 31.5t107 -31.5t63 -88.5q16 -48 16 -127t-16 -127q-19 -57 -63 -88.5t-107 -31.5t-107 31.5t-63 88.5zM393 120q14 45 14 117t-14 117q-16 49 -53 75.5t-89 26.5t-89 -26.5t-53 -75.5q-14 -45 -14 -117t14 -117
q16 -49 53 -75.5t89 -26.5t89 26.5t53 75.5zM135 673q-1 10 9 10h7q8 0 11 -10q19 -67 89 -67q71 0 90 67q3 10 11 10h6q10 0 9 -10q-8 -42 -39.5 -68t-76.5 -26t-76.5 26t-39.5 68z" />
    <glyph glyph-name="Ohungarumlaut" unicode="&#x150;" horiz-adv-x="602" 
d="M90 138q-20 62 -20 202t20 202q48 148 211 148t211 -148q20 -62 20 -202t-20 -202q-48 -148 -211 -148t-211 148zM482 146q19 56 19 194t-19 194q-42 127 -181 127t-181 -127q-19 -56 -19 -194t19 -194q42 -127 181 -127t181 127zM363 765h-8q-11 0 -4 10l68 103
q7 10 16 10h14q12 0 4 -10l-75 -104q-6 -9 -15 -9zM253 765h-8q-11 0 -4 10l68 103q7 10 16 10h14q12 0 4 -10l-75 -104q-6 -9 -15 -9z" />
    <glyph glyph-name="ohungarumlaut" unicode="&#x151;" horiz-adv-x="502" 
d="M311 560h-7q-9 0 -5 10l68 120q6 10 16 10h13q11 0 5 -10l-76 -122q-5 -8 -14 -8zM201 560h-7q-9 0 -5 10l68 120q6 10 16 10h13q11 0 5 -10l-76 -122q-5 -8 -14 -8zM81 110q-16 48 -16 127t16 127q19 57 63 88.5t107 31.5t107 -31.5t63 -88.5q16 -48 16 -127t-16 -127
q-19 -57 -63 -88.5t-107 -31.5t-107 31.5t-63 88.5zM393 120q14 45 14 117t-14 117q-16 49 -53 75.5t-89 26.5t-89 -26.5t-53 -75.5q-14 -45 -14 -117t14 -117q16 -49 53 -75.5t89 -26.5t89 26.5t53 75.5z" />
    <glyph glyph-name="OE" unicode="&#x152;" horiz-adv-x="949" 
d="M885 0h-374q-10 0 -10 10v106h-1q-52 -126 -199 -126q-163 0 -211 148q-20 62 -20 202t20 202q48 148 211 148q147 0 199 -126h1v106q0 10 10 10h374q10 0 10 -10v-9q0 -10 -10 -10h-347q-6 0 -6 -6v-279q0 -6 6 -6h300q10 0 10 -10v-9q0 -10 -10 -10h-300q-6 0 -6 -6
v-290q0 -6 6 -6h347q10 0 10 -10v-9q0 -10 -10 -10zM482 146q19 56 19 194t-19 194q-42 127 -181 127t-181 -127q-19 -56 -19 -194t19 -194q42 -127 181 -127t181 127z" />
    <glyph glyph-name="oe" unicode="&#x153;" horiz-adv-x="836" 
d="M595 -10q-133 0 -173 118h-1q-19 -56 -63 -87t-107 -31t-107 31.5t-63 88.5q-16 48 -16 127t16 127q19 57 63 88.5t107 31.5q62 0 106.5 -31.5t63.5 -87.5h1q20 58 63.5 88.5t103.5 30.5q129 0 168 -120q14 -44 14 -118q0 -10 -11 -10h-317q-6 0 -6 -7q0 -68 12 -107
q35 -104 146 -104q93 0 143 69q6 8 14 2l6 -5q7 -6 1 -14q-56 -80 -164 -80zM443 264h292q6 0 6 6q0 45 -11 83q-33 103 -141 103t-141 -103q-11 -38 -11 -83q0 -6 6 -6zM393 120q14 45 14 117t-14 117q-16 49 -53 75.5t-89 26.5t-89 -26.5t-53 -75.5q-14 -45 -14 -117
t14 -117q16 -49 53 -75.5t89 -26.5t89 26.5t53 75.5z" />
    <glyph glyph-name="Racute" unicode="&#x154;" horiz-adv-x="613" 
d="M530 0h-17q-7 0 -12 9l-149 310q-6 -1 -27 -1h-186q-6 0 -6 -6v-302q0 -10 -10 -10h-11q-10 0 -10 10v660q0 10 10 10h213q97 0 150 -47.5t53 -133.5q0 -72 -37.5 -117t-107.5 -59l152 -313q6 -10 -5 -10zM139 347h186q85 0 128.5 39t43.5 113t-43.5 113t-128.5 39h-186
q-6 0 -6 -6v-292q0 -6 6 -6zM270 765h-7q-11 0 -4 10l80 103q9 10 17 10h15q12 0 4 -10l-87 -103q-9 -10 -18 -10z" />
    <glyph glyph-name="racute" unicode="&#x155;" horiz-adv-x="384" 
d="M120 0h-10q-10 0 -10 10v454q0 10 10 10h10q10 0 10 -10v-71h1q12 42 45.5 66.5t83.5 24.5q54 0 94 -29q7 -4 2 -13l-6 -8q-5 -7 -15 -2q-39 24 -79 24q-63 0 -94.5 -49.5t-31.5 -131.5v-265q0 -10 -10 -10zM189 560h-7q-12 0 -5 10l78 120q6 10 16 10h15q5 0 6.5 -3
t-1.5 -7l-85 -120q-7 -10 -17 -10z" />
    <glyph glyph-name="Rcommaaccent" unicode="&#x156;" horiz-adv-x="613" 
d="M530 0h-17q-7 0 -12 9l-149 310q-6 -1 -27 -1h-186q-6 0 -6 -6v-302q0 -10 -10 -10h-11q-10 0 -10 10v660q0 10 10 10h213q97 0 150 -47.5t53 -133.5q0 -72 -37.5 -117t-107.5 -59l152 -313q6 -10 -5 -10zM139 347h186q85 0 128.5 39t43.5 113t-43.5 113t-128.5 39h-186
q-6 0 -6 -6v-292q0 -6 6 -6zM298 -183q-7 0 -7 9v109q0 10 9 10h11q9 0 9 -10v-64q0 -13 -5 -28l-7 -19q-4 -7 -10 -7z" />
    <glyph glyph-name="rcommaaccent" unicode="&#x157;" horiz-adv-x="384" 
d="M120 0h-10q-10 0 -10 10v454q0 10 10 10h10q10 0 10 -10v-71h1q12 42 45.5 66.5t83.5 24.5q54 0 94 -29q7 -4 2 -13l-6 -8q-5 -7 -15 -2q-39 24 -79 24q-63 0 -94.5 -49.5t-31.5 -131.5v-265q0 -10 -10 -10zM100 -174v109q0 10 9 10h11q9 0 9 -10v-64q0 -13 -5 -28
l-7 -19q-2 -4 -6 -6t-7.5 0t-3.5 8z" />
    <glyph glyph-name="Rcaron" unicode="&#x158;" horiz-adv-x="613" 
d="M530 0h-17q-7 0 -12 9l-149 310q-6 -1 -27 -1h-186q-6 0 -6 -6v-302q0 -10 -10 -10h-11q-10 0 -10 10v660q0 10 10 10h213q97 0 150 -47.5t53 -133.5q0 -72 -37.5 -117t-107.5 -59l152 -313q6 -10 -5 -10zM139 347h186q85 0 128.5 39t43.5 113t-43.5 113t-128.5 39h-186
q-6 0 -6 -6v-292q0 -6 6 -6zM290 755h-8q-8 0 -14 9l-87 121q-8 10 4 10h8q9 0 16 -10l76 -98h2l76 98q7 10 16 10h8q12 0 4 -10l-87 -121q-6 -9 -14 -9z" />
    <glyph glyph-name="rcaron" unicode="&#x159;" horiz-adv-x="384" 
d="M120 0h-10q-10 0 -10 10v454q0 10 10 10h10q10 0 10 -10v-71h1q12 42 45.5 66.5t83.5 24.5q54 0 94 -29q7 -4 2 -13l-6 -8q-5 -7 -15 -2q-39 24 -79 24q-63 0 -94.5 -49.5t-31.5 -131.5v-265q0 -10 -10 -10zM225 560h-8q-8 0 -14 9l-87 121q-3 4 -1.5 7t5.5 3h8
q9 0 16 -10l76 -98h2l76 98q7 10 16 10h8q4 0 5.5 -3t-1.5 -7l-87 -121q-6 -9 -14 -9z" />
    <glyph glyph-name="Sacute" unicode="&#x15a;" horiz-adv-x="600" 
d="M297 -10q-61 0 -120 22q-61 24 -94 52q-7 8 -1 14l8 9q6 7 14 1q88 -69 199 -69q90 0 142.5 43t52.5 116q0 64 -41 101t-136 49l-30 4q-192 26 -192 173q0 86 55.5 135.5t150.5 49.5q107 0 183 -52q10 -5 2 -14l-7 -9q-6 -7 -14 -2q-81 48 -166 48q-80 0 -126.5 -41.5
t-46.5 -111.5q0 -64 42 -100.5t136 -48.5l30 -4q191 -26 191 -174q0 -88 -61 -139.5t-171 -51.5zM287 765h-7q-11 0 -4 10l80 103q9 10 17 10h15q4 0 5.5 -3t-1.5 -7l-87 -103q-9 -10 -18 -10z" />
    <glyph glyph-name="sacute" unicode="&#x15b;" horiz-adv-x="475" 
d="M246 -10q-98 0 -178 63q-7 7 0 14l7 7q6 6 14 0q74 -56 162 -56q67 0 103 29t36 80q0 47 -26 69.5t-96 30.5l-47 5q-134 14 -134 119q0 63 42.5 98t117.5 35q80 0 148 -40q10 -5 2 -14l-4 -6q-5 -8 -14 -3q-72 35 -135 35q-62 0 -94.5 -27t-32.5 -75q0 -43 29 -65.5
t94 -29.5l47 -5q133 -13 133 -122q0 -67 -45.5 -104.5t-128.5 -37.5zM233 560h-7q-12 0 -5 10l78 120q6 10 16 10h15q5 0 6.5 -3t-1.5 -7l-85 -120q-7 -10 -17 -10z" />
    <glyph glyph-name="Scircumflex" unicode="&#x15c;" horiz-adv-x="600" 
d="M297 -10q-61 0 -120 22q-61 24 -94 52q-7 8 -1 14l8 9q6 7 14 1q88 -69 199 -69q90 0 142.5 43t52.5 116q0 64 -41 101t-136 49l-30 4q-192 26 -192 173q0 86 55.5 135.5t150.5 49.5q107 0 183 -52q10 -5 2 -14l-7 -9q-6 -7 -14 -2q-81 48 -166 48q-80 0 -126.5 -41.5
t-46.5 -111.5q0 -64 42 -100.5t136 -48.5l30 -4q191 -26 191 -174q0 -88 -61 -139.5t-171 -51.5zM405 755h-8q-9 0 -16 10l-76 98h-2l-76 -98q-7 -10 -16 -10h-8q-12 0 -4 10l87 121q6 9 14 9h8q8 0 14 -9l87 -121q8 -10 -4 -10z" />
    <glyph glyph-name="scircumflex" unicode="&#x15d;" horiz-adv-x="475" 
d="M246 -10q-98 0 -178 63q-7 7 0 14l7 7q6 6 14 0q74 -56 162 -56q67 0 103 29t36 80q0 47 -26 69.5t-96 30.5l-47 5q-134 14 -134 119q0 63 42.5 98t117.5 35q80 0 148 -40q10 -5 2 -14l-4 -6q-5 -8 -14 -3q-72 35 -135 35q-62 0 -94.5 -27t-32.5 -75q0 -43 29 -65.5
t94 -29.5l47 -5q133 -13 133 -122q0 -67 -45.5 -104.5t-128.5 -37.5zM348 560h-8q-9 0 -16 10l-76 98h-2l-76 -98q-7 -10 -16 -10h-8q-12 0 -4 10l87 121q6 9 14 9h8q8 0 14 -9l87 -121q8 -10 -4 -10z" />
    <glyph glyph-name="Scedilla" unicode="&#x15e;" horiz-adv-x="600" 
d="M265 -145h-11q-10 0 -7 10l48 125q-59 1 -118 22t-94 52q-7 8 -1 14l8 9q6 7 14 1q88 -69 199 -69q90 0 142.5 43t52.5 116q0 64 -41 101t-136 49l-30 4q-192 26 -192 173q0 86 55.5 135.5t150.5 49.5q107 0 183 -52q10 -5 2 -14l-7 -9q-6 -7 -14 -2q-81 48 -166 48
q-80 0 -126.5 -41.5t-46.5 -111.5q0 -64 42 -100.5t136 -48.5l30 -4q191 -26 191 -174q0 -82 -53.5 -132.5t-151.5 -57.5l-43 -126q-4 -10 -16 -10z" />
    <glyph glyph-name="scedilla" unicode="&#x15f;" horiz-adv-x="475" 
d="M209 -145h-11q-10 0 -7 10l48 125q-95 2 -171 63q-7 7 0 14l7 7q6 6 14 0q74 -56 162 -56q67 0 103 29t36 80q0 47 -26 69.5t-96 30.5l-47 5q-134 14 -134 119q0 63 42.5 98t117.5 35q80 0 148 -40q10 -5 2 -14l-4 -6q-5 -8 -14 -3q-72 35 -135 35q-62 0 -94.5 -27
t-32.5 -75q0 -43 29 -65.5t94 -29.5l47 -5q133 -13 133 -122q0 -63 -39 -99.5t-113 -41.5l-43 -126q-4 -10 -16 -10z" />
    <glyph glyph-name="Scaron" unicode="&#x160;" horiz-adv-x="600" 
d="M297 -10q-61 0 -120 22q-61 24 -94 52q-7 8 -1 14l8 9q6 7 14 1q88 -69 199 -69q90 0 142.5 43t52.5 116q0 64 -41 101t-136 49l-30 4q-192 26 -192 173q0 86 55.5 135.5t150.5 49.5q107 0 183 -52q10 -5 2 -14l-7 -9q-6 -7 -14 -2q-81 48 -166 48q-80 0 -126.5 -41.5
t-46.5 -111.5q0 -64 42 -100.5t136 -48.5l30 -4q191 -26 191 -174q0 -88 -61 -139.5t-171 -51.5zM308 755h-8q-8 0 -14 9l-87 121q-8 10 4 10h8q9 0 16 -10l76 -98h2l76 98q7 10 16 10h8q12 0 4 -10l-87 -121q-6 -9 -14 -9z" />
    <glyph glyph-name="scaron" unicode="&#x161;" horiz-adv-x="475" 
d="M246 -10q-98 0 -178 63q-7 7 0 14l7 7q6 6 14 0q74 -56 162 -56q67 0 103 29t36 80q0 47 -26 69.5t-96 30.5l-47 5q-134 14 -134 119q0 63 42.5 98t117.5 35q80 0 148 -40q10 -5 2 -14l-4 -6q-5 -8 -14 -3q-72 35 -135 35q-62 0 -94.5 -27t-32.5 -75q0 -43 29 -65.5
t94 -29.5l47 -5q133 -13 133 -122q0 -67 -45.5 -104.5t-128.5 -37.5zM250 560h-8q-8 0 -14 9l-87 121q-3 4 -1.5 7t5.5 3h8q9 0 16 -10l76 -98h2l76 98q7 10 16 10h8q4 0 5.5 -3t-1.5 -7l-87 -121q-6 -9 -14 -9z" />
    <glyph glyph-name="uni0162" unicode="&#x162;" horiz-adv-x="513" 
d="M262 0h-11q-10 0 -10 10v635q0 6 -6 6h-203q-10 0 -10 10v9q0 10 10 10h449q10 0 10 -10v-9q0 -10 -10 -10h-203q-6 0 -6 -6v-635q0 -10 -10 -10zM248 -183q-7 0 -7 9v109q0 10 9 10h11q9 0 9 -10v-64q0 -13 -5 -28l-7 -19q-4 -7 -10 -7z" />
    <glyph glyph-name="uni0163" unicode="&#x163;" horiz-adv-x="306" 
d="M252 -2h-17q-66 0 -92.5 27.5t-26.5 96.5v318q0 6 -6 6h-58q-10 0 -10 10v8q0 10 10 10h58q6 0 6 6v140q0 10 10 10h10q10 0 10 -10v-140q0 -6 6 -6h100q10 0 10 -10v-8q0 -10 -10 -10h-100q-6 0 -6 -6v-316q0 -57 19 -77.5t71 -20.5h16q10 0 10 -10v-8q0 -10 -10 -10z
M172 -183q-7 0 -7 9v109q0 10 9 10h11q9 0 9 -10v-64q0 -13 -5 -28l-7 -19q-4 -7 -10 -7z" />
    <glyph glyph-name="Tcaron" unicode="&#x164;" horiz-adv-x="513" 
d="M262 0h-11q-10 0 -10 10v635q0 6 -6 6h-203q-10 0 -10 10v9q0 10 10 10h449q10 0 10 -10v-9q0 -10 -10 -10h-203q-6 0 -6 -6v-635q0 -10 -10 -10zM260 755h-8q-8 0 -14 9l-87 121q-8 10 4 10h8q9 0 16 -10l76 -98h2l76 98q7 10 16 10h8q12 0 4 -10l-87 -121q-6 -9 -14 -9
z" />
    <glyph glyph-name="tcaron" unicode="&#x165;" horiz-adv-x="306" 
d="M252 -2h-17q-66 0 -92.5 27.5t-26.5 96.5v318q0 6 -6 6h-58q-10 0 -10 10v8q0 10 10 10h58q6 0 6 6v140q0 10 10 10h10q10 0 10 -10v-140q0 -6 6 -6h100q10 0 10 -10v-8q0 -10 -10 -10h-100q-6 0 -6 -6v-316q0 -57 19 -77.5t71 -20.5h16q10 0 10 -10v-8q0 -10 -10 -10z
M228 561v109q0 10 9 10h11q9 0 9 -10v-64q0 -15 -5 -28l-7 -19q-2 -4 -6 -6t-7.5 0t-3.5 8z" />
    <glyph glyph-name="Tbar" unicode="&#x166;" horiz-adv-x="513" 
d="M262 0h-11q-10 0 -10 10v415q0 6 -6 6h-107q-10 0 -10 10v8q0 10 10 10h107q6 0 6 6v180q0 6 -6 6h-203q-10 0 -10 10v9q0 10 10 10h449q10 0 10 -10v-9q0 -10 -10 -10h-203q-6 0 -6 -6v-180q0 -6 6 -6h107q10 0 10 -10v-8q0 -10 -10 -10h-107q-6 0 -6 -6v-415
q0 -10 -10 -10z" />
    <glyph glyph-name="tbar" unicode="&#x167;" horiz-adv-x="306" 
d="M252 -2h-17q-66 0 -92.5 27.5t-26.5 96.5v201q0 6 -6 6h-48q-10 0 -10 10v7q0 10 10 10h48q6 0 6 6v78q0 6 -6 6h-58q-10 0 -10 10v8q0 10 10 10h58q6 0 6 6v140q0 10 10 10h10q10 0 10 -10v-140q0 -6 6 -6h100q10 0 10 -10v-8q0 -10 -10 -10h-100q-6 0 -6 -6v-78
q0 -6 6 -6h86q10 0 10 -10v-7q0 -10 -10 -10h-86q-6 0 -6 -6v-199q0 -57 19 -77.5t71 -20.5h16q10 0 10 -10v-8q0 -10 -10 -10z" />
    <glyph glyph-name="Utilde" unicode="&#x168;" horiz-adv-x="632" 
d="M367 794q-23 0 -57 21q-28 18 -46 18q-24 0 -55 -34q-3 -3 -5.5 -2t-2.5 5v15q0 7 7 14q25 28 57 28q25 0 57 -21q27 -18 46 -18q24 0 55 34q3 3 5.5 2t2.5 -5v-15q0 -7 -7 -14q-25 -28 -57 -28zM316 -10q-222 0 -222 243v437q0 10 10 10h11q10 0 10 -10v-438
q0 -105 49 -159t142 -54q191 0 191 213v438q0 10 10 10h11q10 0 10 -10v-437q0 -120 -56.5 -181.5t-165.5 -61.5z" />
    <glyph glyph-name="utilde" unicode="&#x169;" horiz-adv-x="531" 
d="M421 0h-10q-10 0 -10 10v67h-1q-17 -41 -55.5 -64t-88.5 -23q-165 0 -165 183v291q0 10 10 10h10q10 0 10 -10v-284q0 -84 33.5 -123t103.5 -39q62 0 102.5 40t40.5 107v299q0 10 10 10h10q10 0 10 -10v-454q0 -10 -10 -10zM316 613q-22 0 -57 21q-29 18 -46 18
q-24 0 -55 -34q-3 -3 -5.5 -2t-2.5 5v15q0 7 7 14q25 28 57 28q26 0 57 -21q27 -18 46 -18q24 0 55 34q3 3 5.5 2t2.5 -5v-15q0 -7 -7 -14q-25 -28 -57 -28z" />
    <glyph glyph-name="Umacron" unicode="&#x16a;" horiz-adv-x="632" 
d="M316 -10q-222 0 -222 243v437q0 10 10 10h11q10 0 10 -10v-438q0 -105 49 -159t142 -54q191 0 191 213v438q0 10 10 10h11q10 0 10 -10v-437q0 -120 -56.5 -181.5t-165.5 -61.5zM432 810h-232q-10 0 -10 10v8q0 10 10 10h232q10 0 10 -10v-8q0 -10 -10 -10z" />
    <glyph glyph-name="umacron" unicode="&#x16b;" horiz-adv-x="531" 
d="M421 0h-10q-10 0 -10 10v67h-1q-17 -41 -55.5 -64t-88.5 -23q-165 0 -165 183v291q0 10 10 10h10q10 0 10 -10v-284q0 -84 33.5 -123t103.5 -39q62 0 102.5 40t40.5 107v299q0 10 10 10h10q10 0 10 -10v-454q0 -10 -10 -10zM381 634h-232q-10 0 -10 10v8q0 10 10 10h232
q10 0 10 -10v-8q0 -10 -10 -10z" />
    <glyph glyph-name="Ubreve" unicode="&#x16c;" horiz-adv-x="632" 
d="M316 -10q-222 0 -222 243v437q0 10 10 10h11q10 0 10 -10v-438q0 -105 49 -159t142 -54q191 0 191 213v438q0 10 10 10h11q10 0 10 -10v-437q0 -120 -56.5 -181.5t-165.5 -61.5zM200 869q-1 10 9 10h7q8 0 11 -10q19 -67 89 -67q71 0 90 67q3 10 11 10h6q10 0 9 -10
q-8 -42 -39.5 -68t-76.5 -26t-76.5 26t-39.5 68z" />
    <glyph glyph-name="ubreve" unicode="&#x16d;" horiz-adv-x="531" 
d="M421 0h-10q-10 0 -10 10v67h-1q-17 -41 -55.5 -64t-88.5 -23q-165 0 -165 183v291q0 10 10 10h10q10 0 10 -10v-284q0 -84 33.5 -123t103.5 -39q62 0 102.5 40t40.5 107v299q0 10 10 10h10q10 0 10 -10v-454q0 -10 -10 -10zM149 673q-1 10 9 10h7q8 0 11 -10
q19 -67 89 -67q71 0 90 67q3 10 11 10h6q10 0 9 -10q-8 -42 -39.5 -68t-76.5 -26t-76.5 26t-39.5 68z" />
    <glyph glyph-name="Uring" unicode="&#x16e;" horiz-adv-x="632" 
d="M375 769q-23 -23 -59 -23q-35 0 -60 23q-23 25 -23 60q0 36 23 59q24 24 60 24t59 -24q24 -23 24 -59t-24 -60zM275 788q16 -16 41 -16t40 16q16 16 16 41t-16 41q-15 16 -40 16t-41 -16q-15 -16 -15 -41t15 -41zM316 -10q-222 0 -222 243v437q0 10 10 10h11q10 0 10 -10
v-438q0 -105 49 -159t142 -54q191 0 191 213v438q0 10 10 10h11q10 0 10 -10v-437q0 -120 -56.5 -181.5t-165.5 -61.5z" />
    <glyph glyph-name="uring" unicode="&#x16f;" horiz-adv-x="531" 
d="M421 0h-10q-10 0 -10 10v67h-1q-17 -41 -55.5 -64t-88.5 -23q-165 0 -165 183v291q0 10 10 10h10q10 0 10 -10v-284q0 -84 33.5 -123t103.5 -39q62 0 102.5 40t40.5 107v299q0 10 10 10h10q10 0 10 -10v-454q0 -10 -10 -10zM324 569q-23 -23 -59 -23q-35 0 -60 23
q-23 25 -23 60q0 36 23 59q24 24 60 24t59 -24q24 -23 24 -59t-24 -60zM224 588q16 -16 41 -16t40 16q16 16 16 41t-16 41q-15 16 -40 16t-41 -16q-15 -16 -15 -41t15 -41z" />
    <glyph glyph-name="Uhungarumlaut" unicode="&#x170;" horiz-adv-x="632" 
d="M316 -10q-222 0 -222 243v437q0 10 10 10h11q10 0 10 -10v-438q0 -105 49 -159t142 -54q191 0 191 213v438q0 10 10 10h11q10 0 10 -10v-437q0 -120 -56.5 -181.5t-165.5 -61.5zM369 765h-8q-11 0 -4 10l68 103q7 10 16 10h14q12 0 4 -10l-75 -104q-6 -9 -15 -9zM259 765
h-8q-11 0 -4 10l68 103q7 10 16 10h14q12 0 4 -10l-75 -104q-6 -9 -15 -9z" />
    <glyph glyph-name="uhungarumlaut" unicode="&#x171;" horiz-adv-x="531" 
d="M311 560h-7q-9 0 -5 10l68 120q6 10 16 10h13q11 0 5 -10l-76 -122q-5 -8 -14 -8zM201 560h-7q-9 0 -5 10l68 120q6 10 16 10h13q11 0 5 -10l-76 -122q-5 -8 -14 -8zM421 0h-10q-10 0 -10 10v67h-1q-17 -41 -55.5 -64t-88.5 -23q-165 0 -165 183v291q0 10 10 10h10
q10 0 10 -10v-284q0 -84 33.5 -123t103.5 -39q62 0 102.5 40t40.5 107v299q0 10 10 10h10q10 0 10 -10v-454q0 -10 -10 -10z" />
    <glyph glyph-name="Uogonek" unicode="&#x172;" horiz-adv-x="632" 
d="M317 -162q-28 0 -43.5 15t-15.5 42q0 37 50 95q-214 4 -214 243v437q0 10 10 10h11q10 0 10 -10v-438q0 -105 49 -159t142 -54q191 0 191 213v438q0 10 10 10h11q10 0 10 -10v-437q0 -228 -197 -242q-33 -38 -43 -56.5t-10 -37.5q0 -31 31 -31q11 0 30 11q9 5 14 -3l3 -5
q5 -8 -3 -14q-20 -17 -46 -17z" />
    <glyph glyph-name="uogonek" unicode="&#x173;" horiz-adv-x="531" 
d="M372 -162q-28 0 -43.5 15t-15.5 42q0 50 88 114v68h-1q-17 -41 -55.5 -64t-88.5 -23q-165 0 -165 183v291q0 10 10 10h10q10 0 10 -10v-284q0 -84 33.5 -123t103.5 -39q62 0 102.5 40t40.5 107v299q0 10 10 10h10q10 0 10 -10v-454q0 -5 -5 -10q-49 -39 -66 -61.5
t-17 -41.5q0 -31 31 -31q11 0 30 11q9 5 14 -3l3 -5q5 -8 -3 -14q-20 -17 -46 -17z" />
    <glyph glyph-name="Wcircumflex" unicode="&#x174;" horiz-adv-x="813" 
d="M607 0h-14q-8 0 -11 10l-171 604h-2l-172 -604q-3 -10 -11 -10h-14q-10 0 -11 10l-159 659q-3 11 8 11h11q13 0 14 -10l145 -611h2l169 611q3 10 12 10h13q9 0 12 -10l171 -611h2l143 611q3 10 14 10h11q11 0 8 -11l-159 -659q-1 -10 -11 -10zM510 755h-8q-9 0 -16 10
l-76 98h-2l-76 -98q-7 -10 -16 -10h-8q-12 0 -4 10l87 121q6 9 14 9h8q8 0 14 -9l87 -121q8 -10 -4 -10z" />
    <glyph glyph-name="wcircumflex" unicode="&#x175;" horiz-adv-x="728" 
d="M526 0h-8q-9 0 -12 10l-138 417h-1l-139 -417q-3 -10 -12 -10h-8q-9 0 -12 10l-148 454q-3 10 7 10h10q9 0 13 -10l135 -412h1l136 412q3 10 12 10h10q9 0 12 -10l139 -412h1l132 412q4 10 13 10h10q10 0 7 -10l-148 -454q-3 -10 -12 -10zM468 560h-8q-9 0 -16 10l-76 98
h-2l-76 -98q-7 -10 -16 -10h-8q-12 0 -4 10l87 121q6 9 14 9h8q8 0 14 -9l87 -121q8 -10 -4 -10z" />
    <glyph glyph-name="Ycircumflex" unicode="&#x176;" horiz-adv-x="506" 
d="M261 0h-11q-10 0 -10 10v269l-207 389q-2 4 0 8t7 4h12q11 0 15 -10l189 -352h2l185 352q4 10 15 10h12q5 0 7 -4t0 -8l-206 -389v-269q0 -10 -10 -10zM356 755h-8q-9 0 -16 10l-76 98h-2l-76 -98q-7 -10 -16 -10h-8q-4 0 -5.5 3t1.5 7l87 121q6 9 14 9h8q8 0 14 -9
l87 -121q3 -4 1.5 -7t-5.5 -3z" />
    <glyph glyph-name="ycircumflex" unicode="&#x177;" horiz-adv-x="460" 
d="M98 -180h-16q-10 0 -10 10v8q0 10 10 10h18q34 0 53 21q21 19 45 84l20 53l-176 458q-3 10 7 10h12q9 0 13 -10l160 -416h1l157 416q4 10 13 10h12q10 0 7 -10l-199 -519q-28 -76 -57 -100q-26 -25 -70 -25zM334 560h-8q-9 0 -16 10l-76 98h-2l-76 -98q-7 -10 -16 -10h-8
q-12 0 -4 10l87 121q6 9 14 9h8q8 0 14 -9l87 -121q8 -10 -4 -10z" />
    <glyph glyph-name="Ydieresis" unicode="&#x178;" horiz-adv-x="506" 
d="M261 0h-11q-10 0 -10 10v269l-207 389q-2 4 0 8t7 4h12q11 0 15 -10l189 -352h2l185 352q4 10 15 10h12q5 0 7 -4t0 -8l-206 -389v-269q0 -10 -10 -10zM367 795h-24q-10 0 -10 10v40q0 10 10 10h24q10 0 10 -10v-40q0 -10 -10 -10zM167 795h-24q-10 0 -10 10v40
q0 10 10 10h24q10 0 10 -10v-40q0 -10 -10 -10z" />
    <glyph glyph-name="Zacute" unicode="&#x179;" horiz-adv-x="543" 
d="M475 0h-408q-10 0 -10 10v9q0 6 6 15l383 616v1h-365q-10 0 -10 10v9q0 10 10 10h394q10 0 10 -10v-9q0 -6 -5 -14l-384 -617v-1h379q10 0 10 -10v-9q0 -10 -10 -10zM257 765h-7q-11 0 -4 10l80 103q9 10 17 10h15q4 0 5.5 -3t-1.5 -7l-87 -103q-9 -10 -18 -10z" />
    <glyph glyph-name="zacute" unicode="&#x17a;" horiz-adv-x="460" 
d="M392 0h-322q-10 0 -10 10v8q0 6 6 15l299 412v1h-282q-10 0 -10 10v8q0 10 10 10h309q10 0 10 -10v-8q0 -6 -6 -15l-299 -412v-1h295q10 0 10 -10v-8q0 -10 -10 -10zM216 560h-7q-12 0 -5 10l78 120q6 10 16 10h15q5 0 6.5 -3t-1.5 -7l-85 -120q-7 -10 -17 -10z" />
    <glyph glyph-name="Zdotaccent" unicode="&#x17b;" horiz-adv-x="543" 
d="M475 0h-408q-10 0 -10 10v9q0 6 6 15l383 616v1h-365q-10 0 -10 10v9q0 10 10 10h394q10 0 10 -10v-9q0 -6 -5 -14l-384 -617v-1h379q10 0 10 -10v-9q0 -10 -10 -10zM287 795h-24q-10 0 -10 10v40q0 10 10 10h24q10 0 10 -10v-40q0 -10 -10 -10z" />
    <glyph glyph-name="zdotaccent" unicode="&#x17c;" horiz-adv-x="460" 
d="M392 0h-322q-10 0 -10 10v8q0 6 6 15l299 412v1h-282q-10 0 -10 10v8q0 10 10 10h309q10 0 10 -10v-8q0 -6 -6 -15l-299 -412v-1h295q10 0 10 -10v-8q0 -10 -10 -10zM244 620h-24q-10 0 -10 10v40q0 10 10 10h24q10 0 10 -10v-40q0 -10 -10 -10z" />
    <glyph glyph-name="Zcaron" unicode="&#x17d;" horiz-adv-x="543" 
d="M475 0h-408q-10 0 -10 10v9q0 6 6 15l383 616v1h-365q-10 0 -10 10v9q0 10 10 10h394q10 0 10 -10v-9q0 -6 -5 -14l-384 -617v-1h379q10 0 10 -10v-9q0 -10 -10 -10zM279 755h-8q-8 0 -14 9l-87 121q-3 4 -1.5 7t5.5 3h8q9 0 16 -10l76 -98h2l76 98q7 10 16 10h8
q4 0 5.5 -3t-1.5 -7l-87 -121q-6 -9 -14 -9z" />
    <glyph glyph-name="zcaron" unicode="&#x17e;" horiz-adv-x="460" 
d="M392 0h-322q-10 0 -10 10v8q0 6 6 15l299 412v1h-282q-10 0 -10 10v8q0 10 10 10h309q10 0 10 -10v-8q0 -6 -6 -15l-299 -412v-1h295q10 0 10 -10v-8q0 -10 -10 -10zM234 560h-8q-8 0 -14 9l-87 121q-8 10 4 10h8q9 0 16 -10l76 -98h2l76 98q7 10 16 10h8q12 0 4 -10
l-87 -121q-6 -9 -14 -9z" />
    <glyph glyph-name="florin" unicode="&#x192;" 
d="M403 360h-110l-63 -407q-12 -75 -42 -104t-93 -29h-17q-10 0 -10 10v8q0 10 10 10h25q45 0 66 22.5t30 79.5l64 410h-95q-10 0 -10 10v8q0 10 10 10h99l25 159q12 75 42 104t93 29h17q10 0 10 -10v-8q0 -10 -10 -10h-25q-45 0 -66 -22.5t-30 -79.5l-25 -162h105
q10 0 10 -10v-8q0 -10 -10 -10z" />
    <glyph glyph-name="Scommaaccent" unicode="&#x218;" horiz-adv-x="600" 
d="M297 -10q-61 0 -120 22q-61 24 -94 52q-7 8 -1 14l8 9q6 7 14 1q88 -69 199 -69q90 0 142.5 43t52.5 116q0 64 -41 101t-136 49l-30 4q-192 26 -192 173q0 86 55.5 135.5t150.5 49.5q107 0 183 -52q10 -5 2 -14l-7 -9q-6 -7 -14 -2q-81 48 -166 48q-80 0 -126.5 -41.5
t-46.5 -111.5q0 -64 42 -100.5t136 -48.5l30 -4q191 -26 191 -174q0 -88 -61 -139.5t-171 -51.5zM292 -174v109q0 10 9 10h11q9 0 9 -10v-64q0 -13 -5 -28l-7 -19q-2 -4 -6 -6t-7.5 0t-3.5 8z" />
    <glyph glyph-name="scommaaccent" unicode="&#x219;" horiz-adv-x="475" 
d="M246 -10q-98 0 -178 63q-7 7 0 14l7 7q6 6 14 0q74 -56 162 -56q67 0 103 29t36 80q0 47 -26 69.5t-96 30.5l-47 5q-134 14 -134 119q0 63 42.5 98t117.5 35q80 0 148 -40q10 -5 2 -14l-4 -6q-5 -8 -14 -3q-72 35 -135 35q-62 0 -94.5 -27t-32.5 -75q0 -43 29 -65.5
t94 -29.5l47 -5q133 -13 133 -122q0 -67 -45.5 -104.5t-128.5 -37.5zM229 -174v109q0 10 9 10h11q9 0 9 -10v-64q0 -13 -5 -28l-7 -19q-2 -4 -6 -6t-7.5 0t-3.5 8z" />
    <glyph glyph-name="uni021A" unicode="&#x21a;" horiz-adv-x="513" 
d="M262 0h-11q-10 0 -10 10v635q0 6 -6 6h-203q-10 0 -10 10v9q0 10 10 10h449q10 0 10 -10v-9q0 -10 -10 -10h-203q-6 0 -6 -6v-635q0 -10 -10 -10zM248 -183q-7 0 -7 9v109q0 10 9 10h11q9 0 9 -10v-64q0 -13 -5 -28l-7 -19q-4 -7 -10 -7z" />
    <glyph glyph-name="uni021B" unicode="&#x21b;" horiz-adv-x="306" 
d="M252 -2h-17q-66 0 -92.5 27.5t-26.5 96.5v318q0 6 -6 6h-58q-10 0 -10 10v8q0 10 10 10h58q6 0 6 6v140q0 10 10 10h10q10 0 10 -10v-140q0 -6 6 -6h100q10 0 10 -10v-8q0 -10 -10 -10h-100q-6 0 -6 -6v-316q0 -57 19 -77.5t71 -20.5h16q10 0 10 -10v-8q0 -10 -10 -10z
M172 -183q-7 0 -7 9v109q0 10 9 10h11q9 0 9 -10v-64q0 -13 -5 -28l-7 -19q-4 -7 -10 -7z" />
    <glyph glyph-name="dotlessj" unicode="&#x237;" horiz-adv-x="230" 
d="M23 -180h-4q-10 0 -10 10v8q0 10 10 10h4q46 0 61.5 16t15.5 65v535q0 10 10 10h10q10 0 10 -10v-535q0 -63 -23 -86t-84 -23z" />
    <glyph glyph-name="circumflex" unicode="&#x2c6;" horiz-adv-x="420" 
d="M312 560h-8q-9 0 -16 10l-76 98h-2l-76 -98q-7 -10 -16 -10h-8q-12 0 -4 10l87 121q6 9 14 9h8q8 0 14 -9l87 -121q8 -10 -4 -10z" />
    <glyph glyph-name="caron" unicode="&#x2c7;" horiz-adv-x="420" 
d="M215 560h-8q-8 0 -14 9l-87 121q-8 10 4 10h8q9 0 16 -10l76 -98h2l76 98q7 10 16 10h8q12 0 4 -10l-87 -121q-6 -9 -14 -9z" />
    <glyph glyph-name="uni02C9" unicode="&#x2c9;" horiz-adv-x="420" 
d="M326 810h-232q-10 0 -10 10v8q0 10 10 10h232q10 0 10 -10v-8q0 -10 -10 -10z" />
    <glyph glyph-name="breve" unicode="&#x2d8;" horiz-adv-x="420" 
d="M96 673q-1 10 9 10h7q8 0 11 -10q19 -67 89 -67q71 0 90 67q3 10 11 10h6q10 0 9 -10q-8 -42 -39.5 -68t-76.5 -26t-76.5 26t-39.5 68z" />
    <glyph glyph-name="dotaccent" unicode="&#x2d9;" horiz-adv-x="420" 
d="M222 620h-24q-10 0 -10 10v40q0 10 10 10h24q10 0 10 -10v-40q0 -10 -10 -10z" />
    <glyph glyph-name="ring" unicode="&#x2da;" horiz-adv-x="420" 
d="M269 569q-23 -23 -59 -23q-35 0 -60 23q-23 25 -23 60q0 36 23 59q24 24 60 24t59 -24q24 -23 24 -59t-24 -60zM169 588q16 -16 41 -16t40 16q16 16 16 41t-16 41q-15 16 -40 16t-41 -16q-15 -16 -15 -41t15 -41z" />
    <glyph glyph-name="ogonek" unicode="&#x2db;" horiz-adv-x="420" 
d="M215 -162q-28 0 -43.5 15t-15.5 42q0 46 74 105q11 10 23 10h14q4 0 5 -4t-3 -6q-49 -39 -66 -61.5t-17 -41.5q0 -31 31 -31q11 0 30 11q9 5 14 -3l3 -5q5 -8 -3 -14q-20 -17 -46 -17z" />
    <glyph glyph-name="tilde" unicode="&#x2dc;" horiz-adv-x="420" 
d="M261 613q-23 0 -57 21q-28 18 -46 18q-24 0 -55 -34q-3 -3 -5.5 -2t-2.5 5v15q0 7 7 14q25 28 57 28q25 0 57 -21q27 -18 46 -18q24 0 55 34q3 3 5.5 2t2.5 -5v-15q0 -7 -7 -14q-25 -28 -57 -28z" />
    <glyph glyph-name="hungarumlaut" unicode="&#x2dd;" horiz-adv-x="420" 
d="M231 560h-7q-9 0 -5 10l68 120q6 10 16 10h13q11 0 5 -10l-76 -122q-5 -8 -14 -8zM121 560h-7q-9 0 -5 10l68 120q6 10 16 10h13q11 0 5 -10l-76 -122q-5 -8 -14 -8z" />
    <glyph glyph-name="uni0374" unicode="&#x374;" horiz-adv-x="452" 
d="M172 470h-7q-12 0 -5 10l108 220q6 10 16 10h17q5 0 6.5 -3t-1.5 -7l-117 -220q-7 -10 -17 -10z" />
    <glyph glyph-name="uni0375" unicode="&#x375;" horiz-adv-x="452" 
d="M288 62h7q12 0 5 -10l-108 -220q-6 -10 -16 -10h-17q-5 0 -6.5 3t1.5 7l117 220q7 10 17 10z" />
    <glyph glyph-name="uni037E" unicode="&#x37e;" horiz-adv-x="212" 
d="M120 404h-28q-10 0 -10 10v50q0 10 10 10h28q10 0 10 -10v-50q0 -10 -10 -10zM85 -94v154q0 10 10 10h22q10 0 10 -10v-58q0 -12 -4 -23l-21 -73q-2 -5 -6 -7t-7.5 0t-3.5 7z" />
    <glyph glyph-name="tonos" unicode="&#x384;" horiz-adv-x="430" 
d="M187 560h-7q-8 0 -5 10l40 120q3 10 12 10h18q8 0 4 -10l-49 -120q-4 -10 -13 -10z" />
    <glyph glyph-name="dieresistonos" unicode="&#x385;" horiz-adv-x="420" 
d="M322 590h-24q-10 0 -10 10v40q0 10 10 10h24q10 0 10 -10v-40q0 -10 -10 -10zM122 590h-24q-10 0 -10 10v40q0 10 10 10h24q10 0 10 -10v-40q0 -10 -10 -10zM192 560h-6q-11 0 -8 10l29 120q3 10 11 10h18q9 0 5 -10l-37 -120q-1 -10 -12 -10z" />
    <glyph glyph-name="Alphatonos" unicode="&#x386;" horiz-adv-x="587" 
d="M40 10l240 660q3 10 11 10h13q8 0 11 -10l238 -660q3 -10 -7 -10h-14q-9 0 -13 10l-66 185h-313l-67 -185q-4 -10 -13 -10h-13q-10 0 -7 10zM296 627l-146 -403h292l-144 403h-2zM107 540h-5q-10 0 -7 10l40 120q3 10 12 10h18q8 0 4 -10l-49 -120q-4 -10 -13 -10z" />
    <glyph glyph-name="anoteleia" unicode="&#x387;" horiz-adv-x="204" 
d="M116 231h-28q-10 0 -10 10v50q0 10 10 10h28q10 0 10 -10v-50q0 -10 -10 -10z" />
    <glyph glyph-name="Epsilontonos" unicode="&#x388;" horiz-adv-x="550" 
d="M105 10v660q0 10 10 10h374q10 0 10 -10v-9q0 -10 -10 -10h-347q-6 0 -6 -6v-279q0 -6 6 -6h300q10 0 10 -10v-9q0 -10 -10 -10h-300q-6 0 -6 -6v-290q0 -6 6 -6h347q10 0 10 -10v-9q0 -10 -10 -10h-374q-10 0 -10 10zM-61 540h-5q-10 0 -7 10l40 120q3 10 12 10h18
q8 0 4 -10l-49 -120q-4 -10 -13 -10z" />
    <glyph glyph-name="Etatonos" unicode="&#x389;" horiz-adv-x="647" 
d="M105 10v660q0 10 10 10h11q10 0 10 -10v-304q0 -6 6 -6h369q6 0 6 6v304q0 10 10 10h11q10 0 10 -10v-660q0 -10 -10 -10h-11q-10 0 -10 10v315q0 6 -6 6h-369q-6 0 -6 -6v-315q0 -10 -10 -10h-11q-10 0 -10 10zM-61 540h-5q-10 0 -7 10l40 120q3 10 12 10h18q8 0 4 -10
l-49 -120q-4 -10 -13 -10z" />
    <glyph glyph-name="Iotatonos" unicode="&#x38a;" horiz-adv-x="235" 
d="M-61 540h-5q-10 0 -7 10l40 120q3 10 12 10h18q8 0 4 -10l-49 -120q-4 -10 -13 -10zM105 10v660q0 10 10 10h11q10 0 10 -10v-660q0 -10 -10 -10h-11q-10 0 -10 10z" />
    <glyph glyph-name="Omicrontonos" unicode="&#x38c;" horiz-adv-x="602" 
d="M93 138q-20 62 -20 202t20 202q48 148 211 148t211 -148q20 -62 20 -202t-20 -202q-48 -148 -211 -148t-211 148zM485 146q19 56 19 194t-19 194q-42 127 -181 127t-181 -127q-19 -56 -19 -194t19 -194q42 -127 181 -127t181 127zM-12 540h-5q-10 0 -7 10l40 120
q3 10 12 10h18q8 0 4 -10l-49 -120q-4 -10 -13 -10z" />
    <glyph glyph-name="Upsilontonos" unicode="&#x38e;" horiz-adv-x="506" 
d="M262 0h-11q-10 0 -10 10v269l-207 389q-2 4 0 8t7 4h12q11 0 15 -10l189 -352h2l185 352q4 10 15 10h12q5 0 7 -4t0 -8l-206 -389v-269q0 -10 -10 -10zM-81 540h-5q-10 0 -7 10l40 120q3 10 12 10h18q8 0 4 -10l-49 -120q-4 -10 -13 -10z" />
    <glyph glyph-name="Omegatonos" unicode="&#x38f;" horiz-adv-x="602" 
d="M513 0h-161q-10 0 -10 10v12q0 7 10 10q67 29 96.5 59.5t41.5 84t14 164.5q0 138 -19 194q-42 127 -181 127t-181 -127q-19 -56 -19 -194q2 -111 14 -164.5t41.5 -84t96.5 -59.5q10 -3 10 -10v-12q0 -10 -10 -10h-161q-10 0 -10 10v8q0 10 10 10h96v2q-67 33 -92 99
q-26 67 -26 211q0 140 20 202q48 148 211 148t211 -148q20 -62 20 -202q0 -144 -26 -211q-25 -66 -92 -99v-2h96q10 0 10 -10v-8q0 -10 -10 -10zM-12 540h-5q-10 0 -7 10l40 120q3 10 12 10h18q8 0 4 -10l-49 -120q-4 -10 -13 -10z" />
    <glyph glyph-name="iotadieresistonos" unicode="&#x390;" horiz-adv-x="265" 
d="M250 590h-24q-10 0 -10 10v40q0 10 10 10h24q10 0 10 -10v-40q0 -10 -10 -10zM50 590h-24q-10 0 -10 10v40q0 10 10 10h24q10 0 10 -10v-40q0 -10 -10 -10zM120 560h-6q-11 0 -8 10l29 120q3 10 11 10h18q9 0 5 -10l-37 -120q-1 -10 -12 -10zM169 -10q-69 0 -69 72v402
q0 10 10 10h10q10 0 10 -10v-399q0 -26 10.5 -37t34.5 -11q14 0 41 11q6 2 7 -2l6 -12q3 -5 -4 -9q-26 -15 -56 -15z" />
    <glyph glyph-name="Alpha" unicode="&#x391;" horiz-adv-x="587" 
d="M40 10l240 660q3 10 11 10h13q8 0 11 -10l238 -660q3 -10 -7 -10h-14q-9 0 -13 10l-66 185h-313l-67 -185q-4 -10 -13 -10h-13q-10 0 -7 10zM296 627l-146 -403h292l-144 403h-2z" />
    <glyph glyph-name="Beta" unicode="&#x392;" horiz-adv-x="599" 
d="M102 10v660q0 10 10 10h218q90 0 140.5 -46.5t50.5 -127.5q0 -62 -30.5 -103t-85.5 -54v-2q47 -6 87 -50q40 -43 40 -117q0 -83 -52.5 -131.5t-145.5 -48.5h-222q-10 0 -10 10zM139 361h191q76 0 118 39t42 106q0 69 -41.5 107t-118.5 38h-191q-6 0 -6 -6v-278q0 -6 6 -6
zM133 326v-291q0 -6 6 -6h195q81 0 124 39.5t43 111.5t-43.5 112t-123.5 40h-195q-6 0 -6 -6z" />
    <glyph glyph-name="Gamma" unicode="&#x393;" horiz-adv-x="511" 
d="M123 0h-11q-10 0 -10 10v660q0 10 10 10h364q10 0 10 -10v-9q0 -10 -10 -10h-337q-6 0 -6 -6v-635q0 -10 -10 -10z" />
    <glyph glyph-name="uni0394" unicode="&#x394;" horiz-adv-x="587" 
d="M546 0h-499q-10 0 -7 10l240 660q3 10 11 10h12q8 0 11 -10l239 -660q3 -10 -7 -10zM88 29h416q8 0 6 6l-212 592h-2l-214 -592q-2 -6 6 -6z" />
    <glyph glyph-name="Epsilon" unicode="&#x395;" horiz-adv-x="550" 
d="M102 10v660q0 10 10 10h374q10 0 10 -10v-9q0 -10 -10 -10h-347q-6 0 -6 -6v-279q0 -6 6 -6h300q10 0 10 -10v-9q0 -10 -10 -10h-300q-6 0 -6 -6v-290q0 -6 6 -6h347q10 0 10 -10v-9q0 -10 -10 -10h-374q-10 0 -10 10z" />
    <glyph glyph-name="Zeta" unicode="&#x396;" horiz-adv-x="543" 
d="M475 0h-408q-10 0 -10 10v9q0 6 6 15l383 616v1h-365q-10 0 -10 10v9q0 10 10 10h394q10 0 10 -10v-9q0 -6 -5 -14l-384 -617v-1h379q10 0 10 -10v-9q0 -10 -10 -10z" />
    <glyph glyph-name="Eta" unicode="&#x397;" horiz-adv-x="647" 
d="M102 10v660q0 10 10 10h11q10 0 10 -10v-304q0 -6 6 -6h369q6 0 6 6v304q0 10 10 10h11q10 0 10 -10v-660q0 -10 -10 -10h-11q-10 0 -10 10v315q0 6 -6 6h-369q-6 0 -6 -6v-315q0 -10 -10 -10h-11q-10 0 -10 10z" />
    <glyph glyph-name="Theta" unicode="&#x398;" horiz-adv-x="602" 
d="M90 138q-20 62 -20 202t20 202q48 148 211 148t211 -148q20 -62 20 -202t-20 -202q-48 -148 -211 -148t-211 148zM482 146q19 56 19 194t-19 194q-42 127 -181 127t-181 -127q-19 -56 -19 -194t19 -194q42 -127 181 -127t181 127zM422 325h-242q-10 0 -10 10v10
q0 10 10 10h242q10 0 10 -10v-10q0 -10 -10 -10z" />
    <glyph glyph-name="Iota" unicode="&#x399;" horiz-adv-x="235" 
d="M102 10v660q0 10 10 10h11q10 0 10 -10v-660q0 -10 -10 -10h-11q-10 0 -10 10z" />
    <glyph glyph-name="Kappa" unicode="&#x39a;" horiz-adv-x="582" 
d="M102 10v660q0 10 10 10h11q10 0 10 -10v-421l353 421q9 10 17 10h18q5 0 6.5 -3t-1.5 -7l-217 -258l231 -402q6 -10 -5 -10h-17q-8 0 -14 10l-217 377l-154 -184v-193q0 -10 -10 -10h-11q-10 0 -10 10z" />
    <glyph glyph-name="Lambda" unicode="&#x39b;" horiz-adv-x="567" 
d="M60 0h-13q-10 0 -7 10l230 660q3 10 11 10h13q8 0 11 -10l228 -660q3 -10 -7 -10h-14q-9 0 -13 10l-211 610h-2l-213 -610q-4 -10 -13 -10z" />
    <glyph glyph-name="Mu" unicode="&#x39c;" horiz-adv-x="754" 
d="M102 10v660q0 10 10 10h14q9 0 13 -10l237 -522h3l236 522q4 10 13 10h14q10 0 10 -10v-660q0 -10 -10 -10h-11q-10 0 -10 10v590h-3l-222 -486q-4 -10 -17 -10h-4q-13 0 -17 10l-222 486h-3v-590q0 -10 -10 -10h-11q-10 0 -10 10z" />
    <glyph glyph-name="Nu" unicode="&#x39d;" horiz-adv-x="648" 
d="M102 10v660q0 10 10 10h9q11 0 17 -10l374 -603h3v603q0 10 10 10h11q10 0 10 -10v-660q0 -10 -10 -10h-9q-11 0 -17 10l-374 603h-3v-603q0 -10 -10 -10h-11q-10 0 -10 10z" />
    <glyph glyph-name="Xi" unicode="&#x39e;" horiz-adv-x="538" 
d="M468 0h-398q-10 0 -10 10v15q0 10 10 10h398q10 0 10 -10v-15q0 -10 -10 -10zM421 327h-305q-10 0 -10 10v15q0 10 10 10h305q10 0 10 -10v-15q0 -10 -10 -10zM468 645h-398q-10 0 -10 10v15q0 10 10 10h398q10 0 10 -10v-15q0 -10 -10 -10z" />
    <glyph glyph-name="Omicron" unicode="&#x39f;" horiz-adv-x="602" 
d="M90 138q-20 62 -20 202t20 202q48 148 211 148t211 -148q20 -62 20 -202t-20 -202q-48 -148 -211 -148t-211 148zM482 146q19 56 19 194t-19 194q-42 127 -181 127t-181 -127q-19 -56 -19 -194t19 -194q42 -127 181 -127t181 127z" />
    <glyph glyph-name="Pi" unicode="&#x3a0;" horiz-adv-x="637" 
d="M123 0h-11q-10 0 -10 10v660q0 10 10 10h413q10 0 10 -10v-660q0 -10 -10 -10h-11q-10 0 -10 10v635q0 6 -6 6h-359q-6 0 -6 -6v-635q0 -10 -10 -10z" />
    <glyph glyph-name="Rho" unicode="&#x3a1;" horiz-adv-x="579" 
d="M123 0h-11q-10 0 -10 10v660q0 10 10 10h215q96 0 149.5 -48.5t53.5 -135.5t-53.5 -135.5t-149.5 -48.5h-188q-6 0 -6 -6v-296q0 -10 -10 -10zM139 341h188q84 0 128 40t44 115t-44 115t-128 40h-188q-6 0 -6 -6v-298q0 -6 6 -6z" />
    <glyph glyph-name="Sigma" unicode="&#x3a3;" horiz-adv-x="536" 
d="M476 0h-408q-10 0 -10 10v9q0 6 6 15l197 314l-189 299q-5 8 -5 14v9q0 10 10 10h394q10 0 10 -10v-9q0 -10 -10 -10h-368v-1l189 -297q1 -4 0 -7l-195 -316v-1h379q10 0 10 -10v-9q0 -10 -10 -10z" />
    <glyph glyph-name="Tau" unicode="&#x3a4;" horiz-adv-x="513" 
d="M262 0h-11q-10 0 -10 10v635q0 6 -6 6h-203q-10 0 -10 10v9q0 10 10 10h449q10 0 10 -10v-9q0 -10 -10 -10h-203q-6 0 -6 -6v-635q0 -10 -10 -10z" />
    <glyph glyph-name="Upsilon" unicode="&#x3a5;" horiz-adv-x="506" 
d="M261 0h-11q-10 0 -10 10v269l-207 389q-2 4 0 8t7 4h12q11 0 15 -10l189 -352h2l185 352q4 10 15 10h12q5 0 7 -4t0 -8l-206 -389v-269q0 -10 -10 -10z" />
    <glyph glyph-name="Phi" unicode="&#x3a6;" horiz-adv-x="669" 
d="M320 0v75q-191 5 -241 131q-26 66 -26 150q0 86 26 149q24 62 87 95.5t154 35.5v44q0 10 10 10h11q10 0 10 -10v-44q186 -6 239 -131q26 -63 26 -149q0 -84 -26 -150q-53 -126 -239 -131v-75q0 -10 -10 -10h-11q-10 0 -10 10zM320 104v503q-78 -2 -134 -32t-79 -83
q-23 -58 -23 -136q0 -79 23 -137q23 -53 79 -83t134 -32zM351 606v-502q165 8 210 113q24 58 24 139q0 80 -24 139q-43 107 -210 111z" />
    <glyph glyph-name="Chi" unicode="&#x3a7;" horiz-adv-x="533" 
d="M494 0h-18q-7 0 -12 8l-191 322h-1l-192 -322q-5 -8 -12 -8h-17q-11 0 -5 10l209 349l-186 311q-6 10 5 10h18q7 0 12 -8l168 -284h1l169 284q5 8 12 8h17q11 0 5 -10l-186 -311l209 -349q6 -10 -5 -10z" />
    <glyph glyph-name="Psi" unicode="&#x3a8;" horiz-adv-x="691" 
d="M330 10v130q-240 0 -240 253v277q0 10 10 10h11q10 0 10 -10v-278q0 -113 54.5 -168t154.5 -55v501q0 10 10 10h11q10 0 10 -10v-501q209 0 209 223v278q0 10 10 10h11q10 0 10 -10v-277q0 -253 -240 -253v-130q0 -10 -10 -10h-11q-10 0 -10 10z" />
    <glyph glyph-name="uni03A9" unicode="&#x3a9;" horiz-adv-x="602" 
d="M510 0h-161q-10 0 -10 10v12q0 7 10 10q67 29 96.5 59.5t41.5 84t14 164.5q0 138 -19 194q-42 127 -181 127t-181 -127q-19 -56 -19 -194q2 -111 14 -164.5t41.5 -84t96.5 -59.5q10 -3 10 -10v-12q0 -10 -10 -10h-161q-10 0 -10 10v8q0 10 10 10h96v2q-67 33 -92 99
q-26 67 -26 211q0 140 20 202q48 148 211 148t211 -148q20 -62 20 -202q0 -144 -26 -211q-25 -66 -92 -99v-2h96q10 0 10 -10v-8q0 -10 -10 -10z" />
    <glyph glyph-name="Iotadieresis" unicode="&#x3aa;" horiz-adv-x="235" 
d="M102 10v660q0 10 10 10h11q10 0 10 -10v-660q0 -10 -10 -10h-11q-10 0 -10 10zM229 795h-24q-10 0 -10 10v40q0 10 10 10h24q10 0 10 -10v-40q0 -10 -10 -10zM29 795h-24q-10 0 -10 10v40q0 10 10 10h24q10 0 10 -10v-40q0 -10 -10 -10z" />
    <glyph glyph-name="Upsilondieresis" unicode="&#x3ab;" horiz-adv-x="506" 
d="M261 0h-11q-10 0 -10 10v269l-207 389q-2 4 0 8t7 4h12q11 0 15 -10l189 -352h2l185 352q4 10 15 10h12q5 0 7 -4t0 -8l-206 -389v-269q0 -10 -10 -10zM367 795h-24q-10 0 -10 10v40q0 10 10 10h24q10 0 10 -10v-40q0 -10 -10 -10zM167 795h-24q-10 0 -10 10v40
q0 10 10 10h24q10 0 10 -10v-40q0 -10 -10 -10z" />
    <glyph glyph-name="alphatonos" unicode="&#x3ac;" horiz-adv-x="545" 
d="M231 -10q-118 0 -154 113q-17 54 -17 134t16 129q37 118 158 118q77 0 122 -56q41 -53 47 -146h1q28 109 36 185q1 7 8 7h13q8 0 8 -10q0 -55 -57 -248l12 -75q10 -67 23.5 -91t45.5 -24h6q11 0 11 -12v-6q0 -10 -11 -10h-6q-42 0 -61 25.5t-29 86.5l-7 43h-1
q-45 -163 -164 -163zM231 18q54 0 90 38q61 66 61 186q0 39 -7.5 74t-23.5 68t-46 52.5t-71 19.5q-97 0 -129 -95q-15 -47 -15 -124t15 -124q15 -46 48 -70.5t78 -24.5zM267 560h-7q-8 0 -5 10l40 120q3 10 12 10h18q8 0 4 -10l-49 -120q-4 -10 -13 -10z" />
    <glyph glyph-name="epsilontonos" unicode="&#x3ad;" horiz-adv-x="464" 
d="M241 -10q-80 0 -128 37t-48 100q0 50 34.5 84.5t86.5 38.5v1q-49 8 -75 36t-26 69q0 62 46.5 95t121.5 33q82 0 136 -26q6 -3 3 -10l-6 -13q-3 -5 -12 -2q-58 23 -123 23q-66 0 -101.5 -26t-35.5 -72q0 -44 36.5 -68.5t91.5 -24.5h76q10 0 10 -10v-11q0 -10 -10 -10h-86
q-66 0 -101.5 -30t-35.5 -78q0 -51 38 -79.5t108 -28.5q84 0 158 43q7 4 11 -2l8 -13q3 -5 -8 -11q-74 -45 -169 -45zM259 560h-7q-8 0 -5 10l40 120q3 10 12 10h18q8 0 4 -10l-49 -120q-4 -10 -13 -10z" />
    <glyph glyph-name="etatonos" unicode="&#x3ae;" horiz-adv-x="534" 
d="M121 0h-10q-10 0 -10 10v397q0 44 -30 44q-11 0 -11 10v8q0 10 11 10q31 0 45.5 -14.5t14.5 -50.5v-17h1q18 41 57.5 64t87.5 23q82 0 125 -46.5t43 -136.5v-471q0 -10 -10 -10h-10q-10 0 -10 10v464q0 162 -140 162q-55 0 -100 -39q-44 -38 -44 -108v-299q0 -10 -10 -10
zM249 560h-7q-8 0 -5 10l40 120q3 10 12 10h18q8 0 4 -10l-49 -120q-4 -10 -13 -10z" />
    <glyph glyph-name="iotatonos" unicode="&#x3af;" horiz-adv-x="265" 
d="M120 560h-7q-8 0 -5 10l40 120q3 10 12 10h18q8 0 4 -10l-49 -120q-4 -10 -13 -10zM169 -10q-69 0 -69 72v402q0 10 10 10h10q10 0 10 -10v-399q0 -26 10.5 -37t34.5 -11q14 0 41 11q6 2 7 -2l6 -12q3 -5 -4 -9q-26 -15 -56 -15z" />
    <glyph glyph-name="upsilondieresistonos" unicode="&#x3b0;" horiz-adv-x="523" 
d="M380 590h-24q-10 0 -10 10v40q0 10 10 10h24q10 0 10 -10v-40q0 -10 -10 -10zM180 590h-24q-10 0 -10 10v40q0 10 10 10h24q10 0 10 -10v-40q0 -10 -10 -10zM250 560h-6q-11 0 -8 10l29 120q3 10 11 10h18q9 0 5 -10l-37 -120q-1 -10 -12 -10zM274 -10h-7q-80 0 -123 50
t-43 143v230q0 22 -6.5 30t-23.5 8q-11 0 -11 10v8q0 10 11 10h4q56 0 56 -61v-228q0 -172 138 -172h4q138 0 138 172v274q0 10 10 10h10q10 0 10 -10v-281q0 -93 -43 -143t-124 -50z" />
    <glyph glyph-name="alpha" unicode="&#x3b1;" horiz-adv-x="545" 
d="M231 -10q-118 0 -154 113q-17 54 -17 134t16 129q37 118 158 118q77 0 122 -56q41 -53 47 -146h1q28 109 36 185q1 7 8 7h13q8 0 8 -10q0 -55 -57 -248l12 -75q10 -67 23.5 -91t45.5 -24h6q11 0 11 -12v-6q0 -10 -11 -10h-6q-42 0 -61 25.5t-29 86.5l-7 43h-1
q-45 -163 -164 -163zM231 18q54 0 90 38q61 66 61 186q0 39 -7.5 74t-23.5 68t-46 52.5t-71 19.5q-97 0 -129 -95q-15 -47 -15 -124t15 -124q15 -46 48 -70.5t78 -24.5z" />
    <glyph glyph-name="beta" unicode="&#x3b2;" horiz-adv-x="539" 
d="M120 -180h-10q-10 0 -10 10v648q0 212 170 212q81 0 121.5 -43t40.5 -118q0 -58 -26 -97.5t-64 -49.5v-2q60 -13 96 -60t36 -119q0 -92 -48 -152q-47 -59 -146 -59q-108 0 -149 89h-1v-249q0 -10 -10 -10zM279 18q82 0 123.5 48t41.5 135q0 80 -44 121.5t-126 41.5h-44
q-10 0 -10 10v9q0 10 10 10h44q63 0 95.5 35t32.5 101q0 65 -34.5 99t-97.5 34q-72 0 -106 -45t-34 -141v-271q0 -95 40 -141t109 -46z" />
    <glyph glyph-name="gamma" unicode="&#x3b3;" horiz-adv-x="468" 
d="M264 -158h-13q-10 0 -10 10l4 139l-147 408q-12 32 -22 42t-31 10q-10 0 -10 10v7q0 11 12 11h4q50 0 70 -59l137 -388h1l48 118q40 97 62 176q19 67 19 138q0 10 11 10h10q9 0 9 -9q0 -111 -86 -322l-62 -152q4 -115 4 -139q0 -10 -10 -10z" />
    <glyph glyph-name="delta" unicode="&#x3b4;" horiz-adv-x="506" 
d="M251 -10q-77 0 -132 53q-54 54 -54 174q0 201 179 242v1l-29 16q-44 26 -60.5 49t-16.5 56q0 49 35 79t99 30q73 0 134 -31q10 -4 7 -12l-5 -11q-3 -6 -10 -3q-63 31 -124 31q-60 0 -84 -26t-24 -55q0 -33 21 -54q23 -21 84 -54l17 -9q81 -42 115 -100.5t34 -147.5
q0 -109 -49.5 -168.5t-136.5 -59.5zM252 18q70 0 112.5 50t42.5 149q0 89 -29.5 140t-99.5 84q-86 -12 -134.5 -67.5t-48.5 -156.5q0 -106 44 -153q45 -46 113 -46z" />
    <glyph glyph-name="epsilon" unicode="&#x3b5;" horiz-adv-x="464" 
d="M241 -10q-80 0 -128 37t-48 100q0 50 34.5 84.5t86.5 38.5v1q-49 8 -75 36t-26 69q0 62 46.5 95t121.5 33q82 0 136 -26q6 -3 3 -10l-6 -13q-3 -5 -12 -2q-58 23 -123 23q-66 0 -101.5 -26t-35.5 -72q0 -44 36.5 -68.5t91.5 -24.5h76q10 0 10 -10v-11q0 -10 -10 -10h-86
q-66 0 -101.5 -30t-35.5 -78q0 -51 38 -79.5t108 -28.5q84 0 158 43q7 4 11 -2l8 -13q3 -5 -8 -11q-74 -45 -169 -45z" />
    <glyph glyph-name="zeta" unicode="&#x3b6;" horiz-adv-x="408" 
d="M269 -144q-5 -2 -8 3l-5 11q-3 6 4 9q69 29 69 74q0 24 -14.5 36.5t-52.5 21.5l-15 4q-99 26 -140.5 73t-41.5 131q0 231 271 433v1h-231q-10 0 -10 10v7q0 10 10 10h258q10 0 10 -10v-16q-144 -112 -211 -215t-67 -213q0 -86 36 -122t111 -57l28 -8q48 -14 68 -31
t20 -51q0 -68 -89 -101z" />
    <glyph glyph-name="eta" unicode="&#x3b7;" horiz-adv-x="534" 
d="M121 0h-10q-10 0 -10 10v397q0 44 -30 44q-11 0 -11 10v8q0 10 11 10q31 0 45.5 -14.5t14.5 -50.5v-17h1q18 41 57.5 64t87.5 23q82 0 125 -46.5t43 -136.5v-471q0 -10 -10 -10h-10q-10 0 -10 10v464q0 162 -140 162q-55 0 -100 -39q-44 -38 -44 -108v-299q0 -10 -10 -10
z" />
    <glyph glyph-name="theta" unicode="&#x3b8;" horiz-adv-x="512" 
d="M138 28q-39 38 -53.5 113t-14.5 209q0 102 20 181q39 159 166 159q44 0 79 -21.5t55 -56.5q20 -34 32 -81q20 -79 20 -181q0 -134 -14.5 -209t-53.5 -113q-41 -38 -118 -38t-118 38zM354 49q56 55 57 279h-310q1 -224 57 -279q31 -31 98 -31t98 31zM101 358h310
q0 162 -42 237q-37 66 -113 66t-113 -66q-42 -75 -42 -237z" />
    <glyph glyph-name="iota" unicode="&#x3b9;" horiz-adv-x="265" 
d="M169 -10q-69 0 -69 72v402q0 10 10 10h10q10 0 10 -10v-399q0 -26 10.5 -37t34.5 -11q14 0 41 11q6 2 7 -2l6 -12q3 -5 -4 -9q-26 -15 -56 -15z" />
    <glyph glyph-name="kappa" unicode="&#x3ba;" horiz-adv-x="501" 
d="M453 0h-11q-10 0 -16 10l-172 261l-124 -169v-92q0 -10 -10 -10h-10q-10 0 -10 10v454q0 10 10 10h10q10 0 10 -10v-321l174 243q40 57 66 75t59 18h9q11 0 11 -10v-7q0 -11 -12 -11h-7q-26 0 -49 -18q-25 -20 -65 -76l-46 -63l189 -284q3 -4 1 -7t-7 -3z" />
    <glyph glyph-name="lambda" unicode="&#x3bb;" horiz-adv-x="499" 
d="M67 0h-11q-12 0 -4 17l185 441l-49 123q-17 41 -33 56t-42 15h-8q-9 0 -9 10v8q0 10 7 10h6q42 0 65 -22q24 -21 48 -85l187 -494q12 -33 23 -43t33 -10h1q11 0 11 -11v-6q0 -11 -10 -11h-2q-32 0 -49.5 13t-31.5 50l-134 364h-1l-171 -415q-4 -10 -11 -10z" />
    <glyph glyph-name="uni03BC" unicode="&#x3bc;" horiz-adv-x="546" 
d="M120 -180h-10q-10 0 -10 10v634q0 10 10 10h10q10 0 10 -10v-285q0 -82 33 -121.5t104 -39.5q62 0 102.5 40t40.5 107v299q0 10 10 10h10q10 0 10 -10v-395q0 -43 30 -43q11 0 11 -10v-8q0 -10 -11 -10h-1q-31 0 -45 15t-14 52v12h-1q-17 -41 -55.5 -64t-88.5 -23
q-95 0 -134 72h-1v-232q0 -10 -10 -10z" />
    <glyph glyph-name="nu" unicode="&#x3bd;" horiz-adv-x="446" 
d="M233 0h-16q-8 0 -11 10l-172 454q-3 10 7 10h12q9 0 13 -10l159 -422h2l50 125q45 112 67 182q20 63 20 115q0 10 11 10h10q9 0 9 -9q0 -58 -22 -125q-21 -68 -69 -186l-59 -144q-4 -10 -11 -10z" />
    <glyph glyph-name="xi" unicode="&#x3be;" horiz-adv-x="414" 
d="M271 -141l-5 11q-3 6 4 9q69 29 69 74q0 26 -16.5 37.5t-70.5 26.5l-31 7q-83 22 -119.5 56.5t-36.5 105.5q0 76 43 123q43 48 103 60v1q-110 30 -110 133q0 63 45 102q44 39 109 47v1h-160q-10 0 -10 10v7q0 10 10 10h283q10 0 10 -10v-15q-14 0 -40 -2
q-120 -9 -169 -52q-48 -43 -48 -101q0 -52 38.5 -82t114.5 -30h64q10 0 10 -10v-11q0 -10 -10 -10h-65q-43 0 -84 -16t-72.5 -56t-31.5 -98q0 -59 28.5 -88.5t97.5 -45.5l64 -16q47 -11 65 -30.5t18 -50.5q0 -67 -89 -100q-5 -2 -8 3z" />
    <glyph glyph-name="omicron" unicode="&#x3bf;" horiz-adv-x="502" 
d="M81 110q-16 48 -16 127t16 127q19 57 63 88.5t107 31.5t107 -31.5t63 -88.5q16 -48 16 -127t-16 -127q-19 -57 -63 -88.5t-107 -31.5t-107 31.5t-63 88.5zM393 120q14 45 14 117t-14 117q-16 49 -53 75.5t-89 26.5t-89 -26.5t-53 -75.5q-14 -45 -14 -117t14 -117
q16 -49 53 -75.5t89 -26.5t89 26.5t53 75.5z" />
    <glyph glyph-name="pi" unicode="&#x3c0;" horiz-adv-x="570" 
d="M139 0h-10q-10 0 -10 10v428q0 6 -6 6h-63q-10 0 -10 10v10q0 10 10 10h460q10 0 10 -10v-10q0 -10 -10 -10h-63q-6 0 -6 -6v-347q0 -36 13.5 -50.5t41.5 -14.5h3q10 0 10 -10v-8q0 -10 -10 -10h-6q-82 0 -82 89v351q0 6 -6 6h-250q-6 0 -6 -6v-428q0 -10 -10 -10z" />
    <glyph glyph-name="rho" unicode="&#x3c1;" horiz-adv-x="521" 
d="M105 -180h-10q-10 0 -10 10v400q0 85 16 134.5t56 82.5q44 37 113 37q63 0 108 -31.5t63 -88.5q16 -48 16 -127t-16 -127q-18 -55 -63 -87.5t-110 -32.5q-111 0 -152 89h-1v-249q0 -10 -10 -10zM268 18q55 0 92 27t52 72q15 47 15 120t-14 118q-15 48 -52.5 74.5
t-91.5 26.5q-48 0 -86 -27t-53 -72t-15 -146q0 -193 153 -193z" />
    <glyph glyph-name="sigma1" unicode="&#x3c2;" horiz-adv-x="457" 
d="M261 -141l-5 11q-3 6 4 9q39 17 54 34.5t15 42.5q0 49 -75 76q-101 36 -145 83t-44 143q0 98 48 162q49 64 148 64q79 0 131 -31q5 -4 4 -10l-6 -10q-4 -7 -14 -3q-54 26 -114 26q-100 0 -137 -70q-30 -53 -30 -128q0 -78 35 -122q33 -42 130 -77q56 -21 77 -42.5
t21 -57.5q0 -70 -89 -103q-5 -2 -8 3z" />
    <glyph glyph-name="sigma" unicode="&#x3c3;" horiz-adv-x="510" 
d="M76 110q-16 48 -16 127t23 131q48 106 202 106h180q10 0 10 -10v-8q0 -10 -10 -10h-118v-1q85 -37 85 -208q0 -79 -16 -127q-19 -57 -62 -88.5t-106 -31.5t-108 31.5t-64 88.5zM388 120q14 45 14 117q0 85 -20.5 134.5t-76.5 74.5h-20q-104 0 -149.5 -51.5t-45.5 -157.5
q0 -72 14 -117q16 -48 54 -75t90 -27t88 26.5t52 75.5z" />
    <glyph glyph-name="tau" unicode="&#x3c4;" horiz-adv-x="421" 
d="M185 83v355q0 6 -6 6h-139q-10 0 -10 10v10q0 10 10 10h331q10 0 10 -10v-10q0 -10 -10 -10h-150q-6 0 -6 -6v-359q0 -62 56 -62q16 0 52 11q5 2 7 -3l5 -14q2 -5 -4 -8q-25 -13 -59 -13q-47 0 -67 22t-20 71z" />
    <glyph glyph-name="upsilon" unicode="&#x3c5;" horiz-adv-x="523" 
d="M274 -10h-7q-80 0 -123 50t-43 143v230q0 22 -6.5 30t-23.5 8q-11 0 -11 10v8q0 10 11 10h4q56 0 56 -61v-228q0 -172 138 -172h4q138 0 138 172v274q0 10 10 10h10q10 0 10 -10v-281q0 -93 -43 -143t-124 -50z" />
    <glyph glyph-name="phi" unicode="&#x3c6;" horiz-adv-x="622" 
d="M296 -170v160q-112 1 -173 64q-63 63 -63 184q0 117 62 181q62 62 174 65v96q0 10 10 10h10q10 0 10 -10v-96q110 -2 171 -63q65 -63 65 -185q0 -117 -62 -181q-62 -62 -174 -65v-160q0 -10 -10 -10h-10q-10 0 -10 10zM296 17v439q-97 0 -151 -56q-55 -55 -55 -162
q0 -108 56 -166q53 -53 150 -55zM326 457v-439q96 0 150 54q56 56 56 164q0 113 -59 169q-53 50 -147 52z" />
    <glyph glyph-name="chi" unicode="&#x3c7;" horiz-adv-x="496" 
d="M77 -180h-13q-10 0 -4 10l184 330l-135 254q-19 37 -51 37h-7q-11 0 -11 11v6q0 11 12 11h6q30 0 48.5 -13t38.5 -51l118 -224h1l146 276q4 7 13 7h13q4 0 6 -3t0 -7l-164 -303l149 -278q12 -22 22 -29.5t29 -7.5h6q12 0 12 -11v-6q0 -11 -12 -11h-2q-33 0 -50.5 12
t-38.5 51l-133 252h-1l-168 -306q-4 -7 -14 -7z" />
    <glyph glyph-name="psi" unicode="&#x3c8;" horiz-adv-x="639" 
d="M335 -180h-10q-10 0 -10 10v160q-92 2 -151 46q-59 45 -59 143v234q0 22 -6.5 30t-23.5 8q-11 0 -11 10v8q0 10 11 10h5q55 0 55 -61v-232q0 -86 48 -126.5t132 -41.5v562q0 10 10 10h10q10 0 10 -10v-562q180 2 180 168v278q0 10 10 10h10q10 0 10 -10v-285
q0 -98 -59 -143q-58 -44 -151 -46v-160q0 -10 -10 -10z" />
    <glyph glyph-name="omega" unicode="&#x3c9;" horiz-adv-x="668" 
d="M206 -10q-66 0 -102 52t-36 155q0 93 26 164.5t68 113.5q6 5 13 1l8 -5q8 -5 0 -14q-85 -95 -85 -262q0 -177 110 -177q50 0 80.5 44.5t30.5 136.5v97q0 10 10 10h10q10 0 10 -10v-97q0 -87 29 -134t82 -47q110 0 110 177q0 167 -85 262q-8 9 0 14l8 5q7 4 13 -1
q42 -42 68 -113.5t26 -164.5q0 -98 -34.5 -152.5t-104.5 -54.5q-103 0 -126 117h-2q-24 -117 -127 -117z" />
    <glyph glyph-name="iotadieresis" unicode="&#x3ca;" horiz-adv-x="265" 
d="M230 620h-24q-10 0 -10 10v40q0 10 10 10h24q10 0 10 -10v-40q0 -10 -10 -10zM30 620h-24q-10 0 -10 10v40q0 10 10 10h24q10 0 10 -10v-40q0 -10 -10 -10zM169 -10q-69 0 -69 72v402q0 10 10 10h10q10 0 10 -10v-399q0 -26 10.5 -37t34.5 -11q14 0 41 11q6 2 7 -2l6 -12
q3 -5 -4 -9q-26 -15 -56 -15z" />
    <glyph glyph-name="upsilondieresis" unicode="&#x3cb;" horiz-adv-x="523" 
d="M274 -10h-7q-80 0 -123 50t-43 143v230q0 22 -6.5 30t-23.5 8q-11 0 -11 10v8q0 10 11 10h4q56 0 56 -61v-228q0 -172 138 -172h4q138 0 138 172v274q0 10 10 10h10q10 0 10 -10v-281q0 -93 -43 -143t-124 -50zM368 620h-24q-10 0 -10 10v40q0 10 10 10h24q10 0 10 -10
v-40q0 -10 -10 -10zM168 620h-24q-10 0 -10 10v40q0 10 10 10h24q10 0 10 -10v-40q0 -10 -10 -10z" />
    <glyph glyph-name="omicrontonos" unicode="&#x3cc;" horiz-adv-x="502" 
d="M81 110q-16 48 -16 127t16 127q19 57 63 88.5t107 31.5t107 -31.5t63 -88.5q16 -48 16 -127t-16 -127q-19 -57 -63 -88.5t-107 -31.5t-107 31.5t-63 88.5zM393 120q14 45 14 117t-14 117q-16 49 -53 75.5t-89 26.5t-89 -26.5t-53 -75.5q-14 -45 -14 -117t14 -117
q16 -49 53 -75.5t89 -26.5t89 26.5t53 75.5zM254 560h-7q-8 0 -5 10l40 120q3 10 12 10h18q8 0 4 -10l-49 -120q-4 -10 -13 -10z" />
    <glyph glyph-name="upsilontonos" unicode="&#x3cd;" horiz-adv-x="523" 
d="M274 -10h-7q-80 0 -123 50t-43 143v230q0 22 -6.5 30t-23.5 8q-11 0 -11 10v8q0 10 11 10h4q56 0 56 -61v-228q0 -172 138 -172h4q138 0 138 172v274q0 10 10 10h10q10 0 10 -10v-281q0 -93 -43 -143t-124 -50zM262 560h-7q-8 0 -5 10l40 120q3 10 12 10h18q8 0 4 -10
l-49 -120q-4 -10 -13 -10z" />
    <glyph glyph-name="omegatonos" unicode="&#x3ce;" horiz-adv-x="668" 
d="M206 -10q-66 0 -102 52t-36 155q0 93 26 164.5t68 113.5q6 5 13 1l8 -5q8 -5 0 -14q-85 -95 -85 -262q0 -177 110 -177q50 0 80.5 44.5t30.5 136.5v97q0 10 10 10h10q10 0 10 -10v-97q0 -87 29 -134t82 -47q110 0 110 177q0 167 -85 262q-8 9 0 14l8 5q7 4 13 -1
q42 -42 68 -113.5t26 -164.5q0 -98 -34.5 -152.5t-104.5 -54.5q-103 0 -126 117h-2q-24 -117 -127 -117zM337 560h-7q-8 0 -5 10l40 120q3 10 12 10h18q8 0 4 -10l-49 -120q-4 -10 -13 -10z" />
    <glyph glyph-name="uni0400" unicode="&#x400;" horiz-adv-x="550" 
d="M486 0h-374q-10 0 -10 10v660q0 10 10 10h374q10 0 10 -10v-9q0 -10 -10 -10h-347q-6 0 -6 -6v-279q0 -6 6 -6h300q10 0 10 -10v-9q0 -10 -10 -10h-300q-6 0 -6 -6v-290q0 -6 6 -6h347q10 0 10 -10v-9q0 -10 -10 -10zM318 765h-7q-9 0 -18 10l-87 103q-3 4 -1.5 7t5.5 3
h15q8 0 17 -10l80 -103q7 -10 -4 -10z" />
    <glyph glyph-name="uni0401" unicode="&#x401;" horiz-adv-x="550" 
d="M486 0h-374q-10 0 -10 10v660q0 10 10 10h374q10 0 10 -10v-9q0 -10 -10 -10h-347q-6 0 -6 -6v-279q0 -6 6 -6h300q10 0 10 -10v-9q0 -10 -10 -10h-300q-6 0 -6 -6v-290q0 -6 6 -6h347q10 0 10 -10v-9q0 -10 -10 -10zM413 795h-24q-10 0 -10 10v40q0 10 10 10h24
q10 0 10 -10v-40q0 -10 -10 -10zM213 795h-24q-10 0 -10 10v40q0 10 10 10h24q10 0 10 -10v-40q0 -10 -10 -10z" />
    <glyph glyph-name="uni0402" unicode="&#x402;" horiz-adv-x="720" 
d="M263 0h-12q-10 0 -10 10v635q0 6 -7 6h-200q-10 0 -10 10v9q0 10 10 10h447q10 0 10 -10v-9q0 -10 -10 -10h-203q-6 0 -6 -6v-266q0 -4 1.5 -5t3.5 0q105 38 185 38q205 0 205 -205q0 -103 -54.5 -155t-156.5 -52h-25q-10 0 -10 10v9q0 10 10 10h32q83 0 128 45.5
t45 134.5q0 174 -170 174q-89 0 -186 -38q-8 -3 -8 -11v-324q0 -10 -9 -10z" />
    <glyph glyph-name="uni0403" unicode="&#x403;" horiz-adv-x="500" 
d="M124 0h-12q-10 0 -10 10v661q0 9 10 9h357q9 0 9 -9v-11q0 -9 -9 -9h-330q-6 0 -6 -6v-635q0 -10 -9 -10zM284 765h-7q-11 0 -4 10l80 103q9 10 17 10h15q12 0 4 -10l-87 -103q-9 -10 -18 -10z" />
    <glyph glyph-name="uni0404" unicode="&#x404;" horiz-adv-x="561" 
d="M305 -10q-137 0 -192 97q-26 43 -34.5 101t-8.5 161q0 128 20 191q48 150 215 150q134 0 197 -121q4 -7 -3 -12l-11 -6q-8 -5 -13 4q-58 106 -171 106q-144 0 -184 -127q-21 -63 -19 -168q0 -6 6 -6h265q9 0 9 -9v-11q0 -9 -9 -9h-266q-5 0 -5 -5q0 -145 31 -210
q45 -97 172 -97q116 0 170 107q6 7 13 3l12 -6q8 -5 3 -13q-64 -120 -197 -120z" />
    <glyph glyph-name="uni0405" unicode="&#x405;" horiz-adv-x="600" 
d="M297 -10q-61 0 -120 22q-61 24 -94 52q-7 8 -1 14l8 9q6 7 14 1q88 -69 199 -69q90 0 142.5 43t52.5 116q0 64 -41 101t-136 49l-30 4q-192 26 -192 173q0 86 55.5 135.5t150.5 49.5q107 0 183 -52q10 -5 2 -14l-7 -9q-6 -7 -14 -2q-81 48 -166 48q-80 0 -126.5 -41.5
t-46.5 -111.5q0 -64 42 -100.5t136 -48.5l30 -4q191 -26 191 -174q0 -88 -61 -139.5t-171 -51.5z" />
    <glyph glyph-name="uni0406" unicode="&#x406;" horiz-adv-x="235" 
d="M123 0h-11q-10 0 -10 10v660q0 10 10 10h11q10 0 10 -10v-660q0 -10 -10 -10z" />
    <glyph glyph-name="uni0407" unicode="&#x407;" horiz-adv-x="235" 
d="M229 795h-24q-10 0 -10 10v40q0 10 10 10h24q10 0 10 -10v-40q0 -10 -10 -10zM29 795h-24q-10 0 -10 10v40q0 10 10 10h24q10 0 10 -10v-40q0 -10 -10 -10zM123 0h-11q-10 0 -10 10v660q0 10 10 10h11q10 0 10 -10v-660q0 -10 -10 -10z" />
    <glyph glyph-name="uni0408" unicode="&#x408;" horiz-adv-x="460" 
d="M189 -10q-75 0 -134 44q-11 6 -3 14l8 9q6 6 15 1q53 -39 114 -39q153 0 153 173v478q0 10 10 10h11q10 0 10 -10v-479q0 -100 -47.5 -150.5t-136.5 -50.5z" />
    <glyph glyph-name="uni0409" unicode="&#x409;" horiz-adv-x="1018" 
d="M28 -3h-13q-9 0 -9 10v8q0 10 9 10h11q41 0 68 16.5t50 57.5q46 83 46 326v246q0 9 10 9h348q10 0 10 -9v-287q0 -6 6 -6h208q94 0 145.5 -49t51.5 -139t-52 -140t-145 -50h-236q-9 0 -9 10v635q0 6 -6 6h-294q-6 0 -6 -6v-250q0 -215 -48 -306q-47 -92 -145 -92zM564 29
h204q81 0 125.5 41.5t44.5 119.5q0 77 -44.5 118t-125.5 41h-204q-6 0 -6 -6v-308q0 -6 6 -6z" />
    <glyph glyph-name="uni040A" unicode="&#x40a;" horiz-adv-x="1005" 
d="M123 0h-11q-10 0 -10 10v660q0 10 10 10h11q10 0 10 -10v-296q0 -6 6 -6h369q6 0 6 6v296q0 10 10 10h11q10 0 10 -9v-297q0 -6 6 -6h208q95 0 146 -44.5t51 -133.5q0 -90 -52 -140t-145 -50h-235q-10 0 -10 10v323q0 6 -6 6h-369q-6 0 -6 -6v-323q0 -10 -10 -10zM551 29
h204q81 0 125.5 41.5t44.5 119.5q0 149 -170 149h-204q-6 0 -6 -6v-298q0 -6 6 -6z" />
    <glyph glyph-name="uni040B" unicode="&#x40b;" horiz-adv-x="749" 
d="M263 0h-12q-10 0 -10 10v635q0 6 -7 6h-200q-10 0 -10 10v9q0 10 10 10h447q10 0 10 -10v-9q0 -10 -10 -10h-203q-6 0 -6 -6v-261q0 -12 12 -8q108 36 178 36q101 0 149 -39.5t48 -130.5v-232q0 -10 -10 -10h-12q-9 0 -9 10v232q0 70 -34 104q-39 37 -128 37
q-87 0 -180 -37q-14 -6 -14 -20v-316q0 -10 -9 -10z" />
    <glyph glyph-name="uni040C" unicode="&#x40c;" horiz-adv-x="582" 
d="M123 0h-11q-10 0 -10 10v660q0 10 10 10h11q10 0 10 -10v-304q0 -6 6 -6h99q66 0 111 95l68 147q22 47 44 64t65 17h7q10 0 10 -10v-9q0 -10 -10 -10h-6q-36 0 -50 -13q-13 -13 -33 -54l-65 -139q-38 -77 -79 -96v-4q52 -7 88 -93l66 -156q14 -32 19 -41q22 -32 68 -32
h15q10 0 10 -10v-9q0 -10 -10 -10h-14q-46 0 -71 19.5t-44 66.5l-78 183q-15 36 -40 50.5t-71 14.5h-99q-6 0 -6 -6v-315q0 -10 -10 -10zM294 765h-7q-11 0 -4 10l80 103q9 10 17 10h15q12 0 4 -10l-87 -103q-9 -10 -18 -10z" />
    <glyph glyph-name="uni040D" unicode="&#x40d;" horiz-adv-x="668" 
d="M125 0h-13q-10 0 -10 10v661q0 9 10 9h12q9 0 9 -9v-619h3l392 623q2 5 9 5h19q10 0 10 -9v-661q0 -10 -10 -10h-11q-10 0 -10 10v619h-3l-391 -619q-6 -10 -16 -10zM348 765h-7q-9 0 -18 10l-87 103q-3 4 -1.5 7t5.5 3h15q8 0 17 -10l80 -103q7 -10 -4 -10z" />
    <glyph glyph-name="uni040E" unicode="&#x40e;" horiz-adv-x="527" 
d="M131 -3h-34q-9 0 -9 10v9q0 10 9 10h26q39 0 61.5 18.5t41.5 66.5l32 76l-224 485q-3 8 5 8h21q6 0 7 -6l207 -447h3l187 444q4 9 11 9h18q9 0 5 -9l-243 -571q-22 -53 -51.5 -78t-72.5 -25zM156 865q-2 6 4 9l13 5q6 2 9 -5q10 -33 35 -55t59 -22t59 22t35 55q3 7 9 5
l13 -5q6 -3 4 -9q-33 -96 -120 -96t-120 96z" />
    <glyph glyph-name="uni040F" unicode="&#x40f;" horiz-adv-x="640" 
d="M325 -167h-10q-11 0 -11 9v152q0 6 -6 6h-186q-10 0 -10 10v660q0 10 10 10h11q10 0 10 -10v-635q0 -6 6 -6h362q6 0 6 6v635q0 10 10 10h11q10 0 10 -10v-660q0 -10 -10 -10h-187q-6 0 -6 -6v-152q0 -9 -10 -9z" />
    <glyph glyph-name="uni0410" unicode="&#x410;" horiz-adv-x="587" 
d="M60 0h-13q-10 0 -7 10l240 660q3 10 11 10h13q8 0 11 -10l238 -660q3 -10 -7 -10h-14q-9 0 -13 10l-66 185h-313l-67 -185q-4 -10 -13 -10zM296 627l-146 -403h292l-144 403h-2z" />
    <glyph glyph-name="uni0411" unicode="&#x411;" horiz-adv-x="598" 
d="M332 0h-220q-10 0 -10 10v661q0 9 10 9h376q10 0 10 -9v-12q0 -8 -10 -8h-349q-6 0 -6 -6v-271q0 -6 6 -6h193q97 0 148.5 -47t51.5 -137t-51.5 -137t-148.5 -47zM139 29h193q82 0 125.5 39.5t43.5 115.5q0 77 -43.5 116t-125.5 39h-193q-6 0 -6 -6v-298q0 -6 6 -6z" />
    <glyph glyph-name="uni0412" unicode="&#x412;" horiz-adv-x="599" 
d="M334 0h-222q-10 0 -10 10v660q0 10 10 10h218q90 0 140.5 -46.5t50.5 -127.5q0 -62 -30.5 -102.5t-85.5 -53.5v-4q49 -6 87 -49q40 -43 40 -117q0 -83 -52.5 -131.5t-145.5 -48.5zM139 29h195q81 0 124 39.5t43 111.5t-43.5 112t-123.5 40h-195q-6 0 -6 -6v-291
q0 -6 6 -6zM139 361h191q76 0 118 39t42 106q0 69 -41.5 107t-118.5 38h-191q-6 0 -6 -6v-278q0 -6 6 -6z" />
    <glyph glyph-name="uni0413" unicode="&#x413;" horiz-adv-x="500" 
d="M124 0h-12q-10 0 -10 10v661q0 9 10 9h357q9 0 9 -9v-11q0 -9 -9 -9h-330q-6 0 -6 -6v-635q0 -10 -9 -10z" />
    <glyph glyph-name="uni0414" unicode="&#x414;" horiz-adv-x="657" 
d="M37 -167h-12q-10 0 -10 9v177q0 10 11 10h44q8 0 12 7q36 59 53 115q43 136 43 488v32q0 9 10 9h348q9 0 9 -9v-636q0 -6 6 -6h68q10 0 10 -10v-177q0 -9 -9 -9h-13q-9 0 -9 9v152q0 6 -6 6h-540q-6 0 -6 -6v-152q0 -9 -9 -9zM119 29h389q6 0 6 6v610q0 6 -6 6h-293
q-6 0 -6 -6v-5q0 -279 -22 -398q-23 -124 -71 -207q-4 -6 3 -6z" />
    <glyph glyph-name="uni0415" unicode="&#x415;" horiz-adv-x="550" 
d="M486 0h-374q-10 0 -10 10v660q0 10 10 10h374q10 0 10 -10v-9q0 -10 -10 -10h-347q-6 0 -6 -6v-279q0 -6 6 -6h300q10 0 10 -10v-9q0 -10 -10 -10h-300q-6 0 -6 -6v-290q0 -6 6 -6h347q10 0 10 -10v-9q0 -10 -10 -10z" />
    <glyph glyph-name="uni0416" unicode="&#x416;" horiz-adv-x="905" 
d="M458 0h-11q-10 0 -10 10v315q0 6 -6 6h-87q-46 0 -70.5 -14.5t-40.5 -50.5l-78 -180q-22 -49 -46.5 -69t-68.5 -20h-14q-10 0 -10 10v9q0 10 10 10h15q33 0 50.5 16.5t36.5 59.5l66 153q20 44 39.5 66t48.5 27v4q-26 11 -43 34t-39 69l-62 129q-19 38 -31 52
q-15 18 -52 18h-6q-10 0 -10 10v9q0 10 10 10h7q42 0 64.5 -18.5t44.5 -65.5l68 -144q45 -95 111 -95h87q6 0 6 6v304q0 10 10 10h11q10 0 10 -10v-304q0 -6 6 -6h87q66 0 111 95l68 144q22 47 44.5 65.5t64.5 18.5h7q10 0 10 -10v-9q0 -10 -10 -10h-6q-37 0 -52 -18
q-12 -14 -31 -52l-62 -129q-22 -46 -39 -69t-43 -34v-4q29 -5 48.5 -27t39.5 -66l66 -153q19 -43 36.5 -59.5t50.5 -16.5h15q10 0 10 -10v-9q0 -10 -10 -10h-14q-44 0 -68.5 20t-46.5 69l-78 180q-16 36 -40.5 50.5t-70.5 14.5h-87q-6 0 -6 -6v-315q0 -10 -10 -10z" />
    <glyph glyph-name="uni0417" unicode="&#x417;" horiz-adv-x="553" 
d="M268 -10q-60 0 -118 23t-93 57q-6 8 0 14l8 8q6 7 14 1q85 -74 189 -74q90 0 141.5 44t51.5 117q0 152 -171 152h-71q-10 0 -10 10v10q0 9 10 9h70q77 0 119 41t42 113q0 66 -47.5 106t-124.5 40q-96 0 -175 -64q-9 -9 -14 -1l-7 8q-6 7 1 13q47 38 91 55.5t101 17.5
q97 0 151.5 -46.5t54.5 -128.5q0 -126 -107 -164v-4q57 -12 87.5 -56t30.5 -113q0 -86 -59 -137t-165 -51z" />
    <glyph glyph-name="uni0418" unicode="&#x418;" horiz-adv-x="668" 
d="M125 0h-13q-10 0 -10 10v661q0 9 10 9h12q9 0 9 -9v-619h3l392 623q2 5 9 5h19q10 0 10 -9v-661q0 -10 -10 -10h-11q-10 0 -10 10v619h-3l-391 -619q-6 -10 -16 -10z" />
    <glyph glyph-name="uni0419" unicode="&#x419;" horiz-adv-x="668" 
d="M125 0h-13q-10 0 -10 10v661q0 9 10 9h12q9 0 9 -9v-619h3l392 623q2 5 9 5h19q10 0 10 -9v-661q0 -10 -10 -10h-11q-10 0 -10 10v619h-3l-391 -619q-6 -10 -16 -10zM214 865q-2 6 4 9l13 5q6 2 9 -5q10 -33 35 -55t59 -22t59 22t35 55q3 7 9 5l13 -5q6 -3 4 -9
q-33 -96 -120 -96t-120 96z" />
    <glyph glyph-name="uni041A" unicode="&#x41a;" horiz-adv-x="582" 
d="M123 0h-11q-10 0 -10 10v660q0 10 10 10h11q10 0 10 -10v-304q0 -6 6 -6h99q66 0 111 95l68 147q22 47 44 64t65 17h7q10 0 10 -10v-9q0 -10 -10 -10h-6q-36 0 -50 -13q-13 -13 -33 -54l-65 -139q-38 -77 -79 -96v-4q52 -7 88 -93l66 -156q14 -32 19 -41q22 -32 68 -32
h15q10 0 10 -10v-9q0 -10 -10 -10h-14q-46 0 -71 19.5t-44 66.5l-78 183q-15 36 -40 50.5t-71 14.5h-99q-6 0 -6 -6v-315q0 -10 -10 -10z" />
    <glyph glyph-name="uni041B" unicode="&#x41b;" horiz-adv-x="660" 
d="M28 -3h-13q-9 0 -9 10v8q0 10 9 10h11q41 0 68 16.5t50 57.5q46 83 46 326v246q0 9 10 9h348q10 0 10 -9v-661q0 -10 -9 -10h-13q-9 0 -9 10v635q0 6 -6 6h-294q-6 0 -6 -6v-250q0 -215 -48 -306q-47 -92 -145 -92z" />
    <glyph glyph-name="uni041C" unicode="&#x41c;" horiz-adv-x="754" 
d="M123 0h-11q-10 0 -10 10v660q0 10 10 10h14q9 0 13 -10l237 -522h3l236 522q4 10 13 10h14q10 0 10 -10v-660q0 -10 -10 -10h-11q-10 0 -10 10v590h-3l-222 -486q-4 -10 -17 -10h-4q-13 0 -17 10l-222 486h-3v-590q0 -10 -10 -10z" />
    <glyph glyph-name="uni041D" unicode="&#x41d;" horiz-adv-x="647" 
d="M123 0h-11q-10 0 -10 10v660q0 10 10 10h11q10 0 10 -10v-304q0 -6 6 -6h369q6 0 6 6v304q0 10 10 10h11q10 0 10 -10v-660q0 -10 -10 -10h-11q-10 0 -10 10v315q0 6 -6 6h-369q-6 0 -6 -6v-315q0 -10 -10 -10z" />
    <glyph glyph-name="uni041E" unicode="&#x41e;" horiz-adv-x="602" 
d="M90 138q-20 62 -20 202t20 202q48 148 211 148t211 -148q20 -62 20 -202t-20 -202q-48 -148 -211 -148t-211 148zM482 146q19 56 19 194t-19 194q-42 127 -181 127t-181 -127q-19 -56 -19 -194t19 -194q42 -127 181 -127t181 127z" />
    <glyph glyph-name="uni041F" unicode="&#x41f;" horiz-adv-x="640" 
d="M123 0h-11q-10 0 -10 10v660q0 10 10 10h416q10 0 10 -10v-660q0 -10 -10 -10h-11q-10 0 -10 10v635q0 6 -6 6h-362q-6 0 -6 -6v-635q0 -10 -10 -10z" />
    <glyph glyph-name="uni0420" unicode="&#x420;" horiz-adv-x="579" 
d="M123 0h-11q-10 0 -10 10v660q0 10 10 10h215q99 0 151 -47.5t52 -136.5t-52 -136.5t-151 -47.5h-188q-6 0 -6 -6v-296q0 -10 -10 -10zM139 341h188q84 0 128 40t44 115t-44 115t-128 40h-188q-6 0 -6 -6v-298q0 -6 6 -6z" />
    <glyph glyph-name="uni0421" unicode="&#x421;" horiz-adv-x="548" 
d="M293 -10q-159 0 -205 145q-18 54 -18 205t18 205q46 145 205 145q137 0 194 -116q5 -9 -2 -13l-10 -5q-8 -5 -13 4q-56 101 -169 101q-135 0 -175 -124q-17 -53 -17 -197t17 -197q40 -124 175 -124q113 0 169 101q5 9 13 4l10 -5q7 -4 2 -13q-57 -116 -194 -116z" />
    <glyph glyph-name="uni0422" unicode="&#x422;" horiz-adv-x="513" 
d="M262 0h-11q-10 0 -10 10v635q0 6 -6 6h-203q-10 0 -10 10v9q0 10 10 10h449q10 0 10 -10v-9q0 -10 -10 -10h-203q-6 0 -6 -6v-635q0 -10 -10 -10z" />
    <glyph glyph-name="uni0423" unicode="&#x423;" horiz-adv-x="527" 
d="M131 -3h-34q-9 0 -9 10v9q0 10 9 10h26q39 0 61.5 18.5t41.5 66.5l32 76l-224 485q-3 8 5 8h21q6 0 7 -6l207 -447h3l187 444q4 9 11 9h18q9 0 5 -9l-243 -571q-22 -53 -51.5 -78t-72.5 -25z" />
    <glyph glyph-name="uni0424" unicode="&#x424;" horiz-adv-x="722" 
d="M366 -10h-12q-9 0 -9 10v77q0 6 -6 6q-138 4 -210 72.5t-72 197.5q0 132 72 201.5t210 73.5q6 0 6 6v47q0 8 10 8h11q10 0 10 -8v-47q0 -6 6 -6q139 -4 211 -73.5t72 -201.5q0 -129 -72.5 -197.5t-210.5 -72.5q-6 0 -6 -6v-77q0 -10 -10 -10zM339 112q6 0 6 6v474
q0 7 -6 7q-251 -5 -251 -245q0 -115 63 -178t188 -64zM382 112q125 1 188.5 64t63.5 178q0 240 -252 245q-6 0 -6 -7v-474q0 -6 6 -6z" />
    <glyph glyph-name="uni0425" unicode="&#x425;" horiz-adv-x="533" 
d="M68 0h-17q-11 0 -5 10l209 349l-186 311q-6 10 5 10h18q7 0 12 -8l168 -284h1l169 284q5 8 12 8h17q11 0 5 -10l-186 -311l209 -349q6 -10 -5 -10h-18q-7 0 -12 8l-191 322h-1l-192 -322q-5 -8 -12 -8z" />
    <glyph glyph-name="uni0426" unicode="&#x426;" horiz-adv-x="650" 
d="M613 -167h-12q-10 0 -10 9v152q0 6 -6 6h-473q-10 0 -10 10v660q0 10 10 10h11q10 0 10 -10v-635q0 -6 6 -6h362q6 0 6 6v635q0 10 10 10h11q10 0 10 -10v-635q0 -6 6 -6h68q10 0 10 -10v-177q0 -9 -9 -9z" />
    <glyph glyph-name="uni0427" unicode="&#x427;" horiz-adv-x="610" 
d="M499 0h-13q-9 0 -9 10v287q0 5 -7 4q-38 -15 -96 -27t-98 -12q-94 0 -141 40.5t-47 128.5v240q0 9 10 9h11q10 0 10 -9v-234q0 -91 50 -122q42 -25 109 -25q102 0 195 41q4 3 4 10v330q0 9 9 9h12q10 0 10 -9v-661q0 -10 -9 -10z" />
    <glyph glyph-name="uni0428" unicode="&#x428;" horiz-adv-x="925" 
d="M813 0h-701q-10 0 -10 10v660q0 10 10 10h11q10 0 10 -10v-635q0 -6 6 -6h302q6 0 6 6v635q0 10 10 10h11q10 0 10 -10v-635q0 -6 6 -6h302q6 0 6 6v635q0 10 10 10h11q10 0 10 -10v-660q0 -10 -10 -10z" />
    <glyph glyph-name="uni0429" unicode="&#x429;" horiz-adv-x="935" 
d="M898 -167h-12q-10 0 -10 9v152q0 6 -6 6h-758q-10 0 -10 10v660q0 10 10 10h11q10 0 10 -10v-635q0 -6 6 -6h302q6 0 6 6v635q0 10 10 10h11q10 0 10 -10v-635q0 -6 6 -6h302q6 0 6 6v635q0 10 10 10h11q10 0 10 -10v-635q0 -6 6 -6h68q10 0 10 -10v-177q0 -9 -9 -9z" />
    <glyph glyph-name="uni042A" unicode="&#x42a;" horiz-adv-x="698" 
d="M452 0h-235q-10 0 -10 10v635q0 6 -6 6h-170q-9 0 -9 9v11q0 9 9 9h198q9 0 9 -9v-287q0 -6 6 -6h208q94 0 145.5 -49t51.5 -139t-52 -140t-145 -50zM244 29h204q81 0 125.5 41.5t44.5 119.5q0 77 -44.5 118t-125.5 41h-204q-6 0 -6 -6v-308q0 -6 6 -6z" />
    <glyph glyph-name="uni042B" unicode="&#x42b;" horiz-adv-x="770" 
d="M337 0h-225q-10 0 -10 10v661q0 9 10 9h12q9 0 9 -9v-287q0 -6 6 -6h198q94 0 145.5 -49t51.5 -139t-52 -140t-145 -50zM139 29h194q81 0 125.5 41.5t44.5 119.5q0 77 -44.5 118t-125.5 41h-194q-6 0 -6 -6v-308q0 -6 6 -6zM658 0h-11q-10 0 -10 10v661q0 9 10 9h11
q10 0 10 -9v-661q0 -10 -10 -10z" />
    <glyph glyph-name="uni042C" unicode="&#x42c;" horiz-adv-x="593" 
d="M347 0h-235q-10 0 -10 10v661q0 9 10 9h12q9 0 9 -9v-287q0 -6 6 -6h208q94 0 145.5 -49t51.5 -139t-52 -140t-145 -50zM139 29h204q81 0 125.5 41.5t44.5 119.5q0 77 -44.5 118t-125.5 41h-204q-6 0 -6 -6v-308q0 -6 6 -6z" />
    <glyph glyph-name="uni042D" unicode="&#x42d;" horiz-adv-x="561" 
d="M260 -10q-71 0 -124 31t-73 89q-4 9 3 13l12 6q9 4 13 -3q53 -107 170 -107q127 0 172 97q31 65 31 210q0 5 -5 5h-266q-9 0 -9 9v11q0 9 9 9h265q6 0 6 6q2 105 -19 168q-40 127 -184 127q-113 0 -171 -106q-5 -9 -13 -4l-11 6q-8 5 -3 12q61 121 197 121
q167 0 215 -150q20 -63 20 -191q0 -103 -8.5 -161t-34.5 -101q-55 -97 -192 -97z" />
    <glyph glyph-name="uni042E" unicode="&#x42e;" horiz-adv-x="806" 
d="M519 -10q-153 0 -198 139q-17 50 -19 196q0 6 -6 6h-155q-6 0 -6 -6v-315q0 -10 -9 -10h-12q-10 0 -10 10v661q0 9 10 9h12q9 0 9 -9v-305q0 -6 6 -6h155q6 0 6 6q2 131 19 185q45 139 198 139q151 0 197 -139q20 -62 20 -211t-20 -211q-46 -139 -197 -139zM687 136
q18 58 18 204t-18 204q-41 117 -168 117t-168 -117q-18 -58 -18 -204t18 -204q41 -117 168 -117t168 117z" />
    <glyph glyph-name="uni042F" unicode="&#x42f;" horiz-adv-x="619" 
d="M48 -3h-21q-10 0 -10 10v9q0 10 10 10h19q32 0 49.5 16t41.5 63l58 133q25 57 57 74v4q-171 10 -171 181q0 87 54 135t136 48h236q10 0 10 -10v-660q0 -10 -10 -10h-11q-10 0 -10 10v296q0 6 -6 6h-149q-71 0 -100 -69l-64 -148q-22 -51 -48.5 -74.5t-70.5 -23.5z
M266 341h214q6 0 6 6v298q0 6 -6 6h-204q-76 0 -120 -40t-44 -114q0 -75 40.5 -115.5t113.5 -40.5z" />
    <glyph glyph-name="uni0430" unicode="&#x430;" horiz-adv-x="509" 
d="M231 -10q-75 0 -117 36t-42 102q0 136 176 136h131q6 0 6 6v61q0 70 -28.5 97.5t-103.5 27.5q-83 0 -124 -38q-7 -6 -14 -2l-7 6q-8 8 -1 14q47 48 146 48q88 0 125 -34t37 -119v-321q0 -10 -10 -10h-10q-10 0 -10 10v57h-1q-13 -35 -53.5 -56t-99.5 -21zM235 18
q66 0 108 34.5t42 87.5v90q0 6 -6 6h-129q-77 0 -112.5 -26.5t-35.5 -81.5q0 -53 34.5 -81.5t98.5 -28.5z" />
    <glyph glyph-name="uni0431" unicode="&#x431;" horiz-adv-x="517" 
d="M263 -10q-73 0 -122 46q-36 32 -49 86.5t-13 147.5v85q0 6 2 64q1 43 6 60q1 3 4.5 17.5t6.5 24.5q12 39 49 76q24 23 64 36q39 13 70 16q26 4 80 7q40 1 43 23q1 10 11 10h12q11 0 7 -10q-6 -28 -21 -37t-58 -12q-65 -5 -79 -7q-72 -9 -113 -50q-34 -34 -44 -73
t-10 -122h3q20 41 63 65.5t91 24.5q90 0 138 -61t48 -175q0 -242 -189 -242zM264 18q74 0 116 53t42 156q0 213 -158 213q-73 0 -114 -52.5t-41 -159.5q0 -106 41 -158t114 -52z" />
    <glyph glyph-name="uni0432" unicode="&#x432;" horiz-adv-x="500" 
d="M297 0h-187q-10 0 -10 10v455q0 9 10 9h184q65 0 99 -31.5t34 -89.5q0 -81 -76 -106v-4q84 -21 84 -114q0 -60 -36.5 -94.5t-101.5 -34.5zM136 28h158q52 0 81.5 26.5t29.5 74.5q0 47 -29.5 74t-81.5 27h-158q-6 0 -6 -6v-190q0 -6 6 -6zM136 258h157q48 0 76 27t28 72
q0 44 -27.5 66.5t-76.5 22.5h-157q-6 0 -6 -5v-178q0 -5 6 -5z" />
    <glyph glyph-name="uni0433" unicode="&#x433;" horiz-adv-x="389" 
d="M119 0h-10q-9 0 -9 10v455q0 9 9 9h255q10 0 10 -9v-9q0 -10 -10 -10h-228q-6 0 -6 -6v-430q0 -10 -11 -10z" />
    <glyph glyph-name="uni0434" unicode="&#x434;" horiz-adv-x="545" 
d="M31 -145h-12q-9 0 -9 10v154q0 9 10 9h36q16 0 23 12q31 49 47 110q18 63 18 172v143q0 9 10 9h273q11 0 11 -9v-431q0 -6 6 -6h57q10 0 10 -9v-154q0 -10 -9 -10h-11q-10 0 -10 10v129q0 6 -6 6h-429q-6 0 -6 -6v-129q0 -10 -9 -10zM113 28h289q6 0 6 6v406q0 6 -6 6
h-222q-6 0 -6 -6v-113q0 -189 -65 -293q-1 -4 4 -6z" />
    <glyph glyph-name="uni0435" unicode="&#x435;" horiz-adv-x="494" 
d="M253 -10q-135 0 -174 122q-14 45 -14 126q0 82 14 126q19 58 62.5 89t105.5 31q129 0 168 -120q14 -44 14 -118q0 -10 -11 -10h-317q-6 0 -6 -7q0 -68 12 -107q35 -104 146 -104q93 0 143 69q6 8 14 2l6 -5q7 -6 1 -14q-56 -80 -164 -80zM101 264h292q6 0 6 6
q0 45 -11 83q-33 103 -141 103t-141 -103q-11 -38 -11 -83q0 -6 6 -6z" />
    <glyph glyph-name="uni0436" unicode="&#x436;" horiz-adv-x="730" 
d="M54 -3h-15q-10 0 -10 10v8q0 10 10 10h8q35 0 51.5 13.5t29.5 50.5l30 84q11 31 31 51t43 23v4q-33 14 -56 68l-30 71q-15 33 -32 46t-47 13h-11q-11 0 -11 11v7q0 10 11 10h13q38 0 61.5 -16.5t40.5 -56.5l30 -71q31 -75 93 -75h50q6 0 6 6v201q0 9 11 9h8q11 0 11 -9
v-201q0 -6 6 -6h50q62 0 93 75l30 71q17 40 40.5 56.5t61.5 16.5h13q11 0 11 -10v-7q0 -11 -11 -11h-11q-30 0 -47 -13t-32 -46l-30 -71q-23 -54 -56 -68v-4q23 -3 43 -23t31 -51l30 -84q13 -37 29.5 -50.5t51.5 -13.5h8q10 0 10 -10v-8q0 -10 -10 -10h-15q-44 0 -65 18
t-39 69l-30 83q-17 44 -50 54q-21 8 -52 8h-54q-6 0 -6 -6v-213q0 -10 -11 -10h-8q-11 0 -11 10v213q0 6 -6 6h-54q-30 0 -53 -8q-33 -11 -49 -54l-30 -83q-18 -51 -39 -69t-65 -18z" />
    <glyph glyph-name="uni0437" unicode="&#x437;" horiz-adv-x="460" 
d="M229 -10q-100 0 -168 62q-8 6 1 15l6 6q7 7 14 0q33 -31 65.5 -43t80.5 -12q66 0 104.5 29.5t38.5 78.5q0 50 -31.5 77t-86.5 27h-63q-9 0 -9 12v6q0 10 9 10h66q49 0 78 26.5t29 73.5q0 45 -34 71.5t-91 26.5q-89 0 -136 -43q-8 -8 -13 0l-9 10q-4 6 1 11q61 50 156 50
q75 0 115.5 -32.5t40.5 -94.5q0 -80 -74 -109v-4q37 -8 59.5 -39t22.5 -77q0 -63 -47 -100.5t-125 -37.5z" />
    <glyph glyph-name="uni0438" unicode="&#x438;" horiz-adv-x="556" 
d="M123 0h-13q-10 0 -10 10v455q0 9 10 9h10q10 0 10 -9v-413h3l291 418q3 4 9 4h12q11 0 11 -9v-455q0 -10 -11 -10h-8q-11 0 -11 10v411h-3l-290 -416q-5 -5 -10 -5z" />
    <glyph glyph-name="uni0439" unicode="&#x439;" horiz-adv-x="556" 
d="M123 0h-13q-10 0 -10 10v455q0 9 10 9h10q10 0 10 -9v-413h3l291 418q3 4 9 4h12q11 0 11 -9v-455q0 -10 -11 -10h-8q-11 0 -11 10v411h-3l-290 -416q-5 -5 -10 -5zM162 675q-2 6 4 9l13 5q6 2 9 -5q10 -33 35 -55t59 -22t59 22t35 55q3 7 9 5l13 -5q6 -3 4 -9
q-33 -96 -120 -96t-120 96z" />
    <glyph glyph-name="uni043A" unicode="&#x43a;" horiz-adv-x="495" 
d="M119 0h-9q-10 0 -10 10v455q0 9 10 9h9q11 0 11 -9v-201q0 -6 6 -6h65q61 0 93 75l30 71q17 40 40.5 56.5t61.5 16.5h13q11 0 11 -10v-7q0 -11 -11 -11h-11q-30 0 -47 -13t-32 -46l-30 -71q-23 -54 -56 -68v-4q23 -3 43 -23t31 -51l30 -84q13 -37 29.5 -50.5t51.5 -13.5
h8q10 0 10 -10v-8q0 -10 -10 -10h-15q-44 0 -65 18t-39 69l-30 83q-17 44 -50 54q-23 8 -52 8h-69q-6 0 -6 -6v-213q0 -10 -11 -10z" />
    <glyph glyph-name="uni043B" unicode="&#x43b;" horiz-adv-x="540" 
d="M37 -3h-16q-9 0 -9 10v9q0 9 9 9h17q43 0 73 35q42 45 42 211v194q0 9 10 9h268q9 0 9 -9v-455q0 -10 -9 -10h-11q-10 0 -10 10v430q0 6 -6 6h-215q-6 0 -6 -6v-195q0 -248 -146 -248z" />
    <glyph glyph-name="uni043C" unicode="&#x43c;" horiz-adv-x="615" 
d="M120 0h-10q-10 0 -10 10v455q0 9 10 9h11q9 0 12 -7l173 -357h3l173 357q4 7 13 7h10q10 0 10 -9v-455q0 -10 -10 -10h-10q-10 0 -10 10v387h-3l-157 -320q-4 -10 -14 -10h-9q-8 0 -12 10l-157 320h-3v-387q0 -10 -10 -10z" />
    <glyph glyph-name="uni043D" unicode="&#x43d;" horiz-adv-x="545" 
d="M119 0h-9q-10 0 -10 10v455q0 9 10 9h9q11 0 11 -9v-201q0 -6 6 -6h273q6 0 6 6v201q0 9 10 9h10q10 0 10 -9v-455q0 -10 -10 -10h-10q-10 0 -10 10v214q0 6 -6 6h-273q-6 0 -6 -6v-214q0 -10 -11 -10z" />
    <glyph glyph-name="uni043E" unicode="&#x43e;" horiz-adv-x="502" 
d="M81 110q-16 48 -16 127t16 127q19 57 63 88.5t107 31.5t107 -31.5t63 -88.5q16 -48 16 -127t-16 -127q-19 -57 -63 -88.5t-107 -31.5t-107 31.5t-63 88.5zM393 120q14 45 14 117t-14 117q-16 49 -53 75.5t-89 26.5t-89 -26.5t-53 -75.5q-14 -45 -14 -117t14 -117
q16 -49 53 -75.5t89 -26.5t89 26.5t53 75.5z" />
    <glyph glyph-name="uni043F" unicode="&#x43f;" horiz-adv-x="543" 
d="M119 0h-9q-10 0 -10 10v455q0 9 10 9h323q10 0 10 -9v-455q0 -10 -10 -10h-10q-10 0 -10 10v430q0 6 -6 6h-271q-6 0 -6 -6v-430q0 -10 -11 -10z" />
    <glyph glyph-name="uni0440" unicode="&#x440;" horiz-adv-x="525" 
d="M120 -180h-10q-10 0 -10 10v634q0 10 10 10h10q10 0 10 -10v-69h1q41 89 151 89q125 0 161 -113q17 -54 17 -134t-17 -134q-36 -113 -161 -113q-110 0 -151 89h-1v-249q0 -10 -10 -10zM280 18q103 0 135 95q15 46 15 124q0 77 -15 124q-32 95 -135 95q-105 0 -137 -95
q-13 -39 -13 -124t13 -124q32 -95 137 -95z" />
    <glyph glyph-name="uni0441" unicode="&#x441;" horiz-adv-x="468" 
d="M249 -10q-62 0 -106 31.5t-62 88.5q-16 51 -16 127t16 127q18 57 62 88.5t106 31.5q111 0 157 -96q5 -10 -5 -14l-7 -3q-9 -3 -13 4q-41 81 -132 81q-108 0 -139 -103q-15 -45 -15 -116t15 -116q31 -103 139 -103q91 0 132 81q4 7 13 4l7 -3q10 -4 5 -14
q-46 -96 -157 -96z" />
    <glyph glyph-name="uni0442" unicode="&#x442;" horiz-adv-x="406" 
d="M208 0h-10q-10 0 -10 10v430q0 6 -6 6h-157q-10 0 -10 10v9q0 9 10 9h357q9 0 9 -9v-9q0 -10 -9 -10h-158q-6 0 -6 -6v-430q0 -10 -10 -10z" />
    <glyph glyph-name="uni0443" unicode="&#x443;" horiz-adv-x="460" 
d="M98 -180h-16q-10 0 -10 10v8q0 10 10 10h18q34 0 53 21q21 19 45 84l20 53l-176 458q-3 10 7 10h12q9 0 13 -10l160 -416h1l157 416q4 10 13 10h12q10 0 7 -10l-199 -519q-28 -76 -57 -100q-26 -25 -70 -25z" />
    <glyph glyph-name="uni0444" unicode="&#x444;" horiz-adv-x="634" 
d="M323 -180h-12q-9 0 -9 10v157q0 6 -6 6q-236 8 -236 244q0 121 58.5 180t177.5 64q6 0 6 6v183q0 10 9 10h12q9 0 9 -10v-183q0 -6 6 -6q119 -5 177.5 -64t58.5 -180q0 -236 -236 -244q-6 0 -6 -6v-157q0 -10 -9 -10zM296 21q6 0 6 6v420q0 6 -6 6q-103 -4 -154.5 -57
t-51.5 -160q0 -207 206 -215zM338 21q206 8 206 215q0 107 -51.5 160t-154.5 57q-6 0 -6 -6v-420q0 -6 6 -6z" />
    <glyph glyph-name="uni0445" unicode="&#x445;" horiz-adv-x="449" 
d="M69 0h-14q-11 0 -5 10l164 240l-146 214q-6 10 5 10h14q9 0 13 -7l130 -192h1l131 192q4 7 13 7h13q11 0 5 -10l-146 -214l164 -240q6 -10 -5 -10h-15q-9 0 -13 7l-147 218h-1l-148 -218q-4 -7 -13 -7z" />
    <glyph glyph-name="uni0446" unicode="&#x446;" horiz-adv-x="550" 
d="M506 -145h-11q-9 0 -9 10v129q0 6 -6 6h-370q-10 0 -10 9v455q0 10 10 10h9q11 0 11 -10v-430q0 -6 6 -6h271q6 0 6 6v430q0 10 10 10h10q10 0 10 -10v-430q0 -6 6 -6h56q11 0 11 -9v-154q0 -10 -10 -10z" />
    <glyph glyph-name="uni0447" unicode="&#x447;" horiz-adv-x="511" 
d="M401 0h-10q-10 0 -10 10v194q0 4 -5 2q-87 -32 -151 -32q-72 0 -107.5 30t-35.5 99v162q0 9 10 9h10q10 0 10 -9v-155q0 -58 27.5 -82.5t83.5 -24.5q76 0 153 34q5 3 5 6v222q0 9 10 9h10q10 0 10 -9v-455q0 -10 -10 -10z" />
    <glyph glyph-name="uni0448" unicode="&#x448;" horiz-adv-x="750" 
d="M639 0h-529q-10 0 -10 9v455q0 10 10 10h9q11 0 11 -10v-430q0 -6 6 -6h218q6 0 6 6v430q0 10 10 10h10q10 0 10 -10v-430q0 -6 6 -6h218q6 0 6 6v430q0 10 10 10h9q11 0 11 -10v-455q0 -9 -11 -9z" />
    <glyph glyph-name="uni0449" unicode="&#x449;" horiz-adv-x="757" 
d="M713 -145h-11q-9 0 -9 10v129q0 6 -6 6h-577q-10 0 -10 9v455q0 10 10 10h9q11 0 11 -10v-430q0 -6 6 -6h218q6 0 6 6v430q0 10 10 10h10q10 0 10 -10v-430q0 -6 6 -6h218q6 0 6 6v430q0 10 10 10h9q11 0 11 -10v-430q0 -6 6 -6h56q11 0 11 -9v-154q0 -10 -10 -10z" />
    <glyph glyph-name="uni044A" unicode="&#x44a;" horiz-adv-x="529" 
d="M339 0h-174q-10 0 -10 10v430q0 6 -6 6h-125q-9 0 -9 10v9q0 9 9 9h150q11 0 11 -9v-191q0 -6 6 -6h147q68 0 105 -35t37 -99q0 -62 -38 -98t-103 -36zM191 28h150q52 0 80.5 27.5t28.5 77.5q0 52 -28 79.5t-81 27.5h-150q-6 0 -6 -6v-200q0 -6 6 -6z" />
    <glyph glyph-name="uni044B" unicode="&#x44b;" horiz-adv-x="634" 
d="M274 0h-164q-10 0 -10 10v455q0 9 10 9h9q11 0 11 -9v-191q0 -6 6 -6h137q68 0 105 -35t37 -99q0 -62 -38 -98t-103 -36zM136 28h140q52 0 80.5 27.5t28.5 77.5q0 52 -28 79.5t-81 27.5h-140q-6 0 -6 -6v-200q0 -6 6 -6zM524 0h-10q-10 0 -10 10v454q0 10 10 10h10
q10 0 10 -10v-454q0 -10 -10 -10z" />
    <glyph glyph-name="uni044C" unicode="&#x44c;" horiz-adv-x="474" 
d="M284 0h-174q-10 0 -10 10v455q0 9 10 9h9q11 0 11 -9v-191q0 -6 6 -6h147q68 0 105 -35t37 -99q0 -62 -38 -98t-103 -36zM136 28h150q52 0 80.5 27.5t28.5 77.5q0 52 -28 79.5t-81 27.5h-150q-6 0 -6 -6v-200q0 -6 6 -6z" />
    <glyph glyph-name="uni044D" unicode="&#x44d;" horiz-adv-x="473" 
d="M229 -10q-115 0 -162 96q-5 10 5 14l7 3q9 3 13 -4q40 -81 137 -81q51 0 87.5 26.5t52.5 76.5q12 34 14 103q0 6 -6 6h-195q-10 0 -10 11v7q0 10 10 10h194q6 0 6 5q-2 57 -13 90q-16 50 -52.5 76.5t-87.5 26.5q-97 0 -137 -81q-4 -7 -13 -4l-7 3q-10 4 -5 14
q47 96 162 96q62 0 106 -31.5t62 -88.5q16 -51 16 -127t-16 -127q-18 -57 -62 -88.5t-106 -31.5z" />
    <glyph glyph-name="uni044E" unicode="&#x44e;" horiz-adv-x="668" 
d="M257 110q-14 45 -16 114q0 6 -6 6h-99q-6 0 -6 -6v-214q0 -10 -11 -10h-9q-10 0 -10 10v455q0 9 10 9h9q11 0 11 -9v-201q0 -6 6 -6h99q6 0 6 6q3 59 16 100q18 57 61 88.5t104 31.5t104 -31.5t61 -88.5q16 -48 16 -127t-16 -127q-18 -57 -61 -88.5t-104 -31.5t-104 31.5
t-61 88.5zM559 120q14 45 14 117t-14 117q-15 49 -51 75.5t-86 26.5t-86 -26.5t-51 -75.5q-14 -45 -14 -117t14 -117q15 -49 51 -75.5t86 -26.5t86 26.5t51 75.5z" />
    <glyph glyph-name="uni044F" unicode="&#x44f;" horiz-adv-x="510" 
d="M70 -3h-20q-9 0 -9 10v9q0 9 9 9h12q29 0 43 13t29 53l21 54q18 49 48 63v3q-59 4 -89 35t-30 98q0 61 35.5 95.5t102.5 34.5h179q9 0 9 -9v-455q0 -10 -10 -10h-10q-10 0 -10 10v190q0 6 -6 6h-86q-30 0 -54 -9q-30 -11 -48 -54l-23 -59q-19 -49 -38.5 -68t-54.5 -19z
M228 234h146q6 0 6 6v200q0 6 -6 6h-146q-114 0 -114 -103q0 -109 114 -109z" />
    <glyph glyph-name="uni0450" unicode="&#x450;" horiz-adv-x="494" 
d="M253 -10q-135 0 -174 122q-14 45 -14 126q0 82 14 126q19 58 62.5 89t105.5 31q129 0 168 -120q14 -44 14 -118q0 -10 -11 -10h-317q-6 0 -6 -7q0 -68 12 -107q35 -104 146 -104q93 0 143 69q6 8 14 2l6 -5q7 -6 1 -14q-56 -80 -164 -80zM101 264h292q6 0 6 6
q0 45 -11 83q-33 103 -141 103t-141 -103q-11 -38 -11 -83q0 -6 6 -6zM266 560h-7q-10 0 -17 10l-85 120q-3 4 -1.5 7t6.5 3h15q10 0 16 -10l78 -120q7 -10 -5 -10z" />
    <glyph glyph-name="uni0451" unicode="&#x451;" horiz-adv-x="494" 
d="M253 -10q-135 0 -174 122q-14 45 -14 126q0 82 14 126q19 58 62.5 89t105.5 31q129 0 168 -120q14 -44 14 -118q0 -10 -11 -10h-317q-6 0 -6 -7q0 -68 12 -107q35 -104 146 -104q93 0 143 69q6 8 14 2l6 -5q7 -6 1 -14q-56 -80 -164 -80zM101 264h292q6 0 6 6
q0 45 -11 83q-33 103 -141 103t-141 -103q-11 -38 -11 -83q0 -6 6 -6zM366 620h-24q-10 0 -10 10v40q0 10 10 10h24q10 0 10 -10v-40q0 -10 -10 -10zM166 620h-24q-10 0 -10 10v40q0 10 10 10h24q10 0 10 -10v-40q0 -10 -10 -10z" />
    <glyph glyph-name="uni0452" unicode="&#x452;" horiz-adv-x="538" 
d="M337 -180h-4q-10 0 -10 10v8q0 10 10 10h4q46 0 61.5 16t15.5 65v365q0 162 -139 162q-63 0 -104 -40t-41 -107v-299q0 -10 -10 -10h-10q-10 0 -10 10v555q0 6 -6 6h-72q-10 0 -10 10v8q0 10 10 10h72q6 0 6 6v65q0 10 10 10h10q10 0 10 -10v-65q0 -6 6 -6h128
q10 0 10 -10v-8q0 -10 -10 -10h-128q-6 0 -6 -6v-168h1q18 41 56.5 64t89.5 23q81 0 124 -46.5t43 -136.5v-372q0 -63 -23 -86t-84 -23z" />
    <glyph glyph-name="uni0453" unicode="&#x453;" horiz-adv-x="389" 
d="M119 0h-10q-9 0 -9 10v455q0 9 9 9h255q10 0 10 -9v-9q0 -10 -10 -10h-228q-6 0 -6 -6v-430q0 -10 -11 -10zM214 560h-7q-12 0 -5 10l78 120q6 10 16 10h15q5 0 6.5 -3t-1.5 -7l-85 -120q-7 -10 -17 -10z" />
    <glyph glyph-name="uni0454" unicode="&#x454;" horiz-adv-x="473" 
d="M249 -10q-62 0 -106 31.5t-62 88.5q-16 51 -16 127t16 127q18 57 62 88.5t106 31.5q115 0 162 -96q5 -10 -5 -14l-7 -3q-9 -3 -13 4q-40 81 -137 81q-51 0 -87.5 -26.5t-52.5 -76.5q-12 -38 -13 -90q0 -5 6 -5h194q10 0 10 -10v-7q0 -11 -10 -11h-195q-6 0 -6 -6
q2 -69 14 -103q16 -50 52.5 -76.5t87.5 -26.5q97 0 137 81q4 7 13 4l7 -3q10 -4 5 -14q-47 -96 -162 -96z" />
    <glyph glyph-name="uni0455" unicode="&#x455;" horiz-adv-x="475" 
d="M246 -10q-98 0 -178 63q-7 7 0 14l7 7q6 6 14 0q74 -56 162 -56q67 0 103 29t36 80q0 47 -26 69.5t-96 30.5l-47 5q-134 14 -134 119q0 63 42.5 98t117.5 35q80 0 148 -40q10 -5 2 -14l-4 -6q-5 -8 -14 -3q-72 35 -135 35q-62 0 -94.5 -27t-32.5 -75q0 -43 29 -65.5
t94 -29.5l47 -5q133 -13 133 -122q0 -67 -45.5 -104.5t-128.5 -37.5z" />
    <glyph glyph-name="uni0456" unicode="&#x456;" horiz-adv-x="230" 
d="M120 0h-10q-10 0 -10 10v454q0 10 10 10h10q10 0 10 -10v-454q0 -10 -10 -10zM127 620h-24q-10 0 -10 10v40q0 10 10 10h24q10 0 10 -10v-40q0 -10 -10 -10z" />
    <glyph glyph-name="uni0457" unicode="&#x457;" horiz-adv-x="230" 
d="M227 620h-24q-10 0 -10 10v40q0 10 10 10h24q10 0 10 -10v-40q0 -10 -10 -10zM27 620h-24q-10 0 -10 10v40q0 10 10 10h24q10 0 10 -10v-40q0 -10 -10 -10zM120 0h-10q-10 0 -10 10v454q0 10 10 10h10q10 0 10 -10v-454q0 -10 -10 -10z" />
    <glyph glyph-name="uni0458" unicode="&#x458;" horiz-adv-x="230" 
d="M23 -180h-4q-10 0 -10 10v8q0 10 10 10h4q46 0 61.5 16t15.5 65v535q0 10 10 10h10q10 0 10 -10v-535q0 -63 -23 -86t-84 -23zM127 620h-24q-10 0 -10 10v40q0 10 10 10h24q10 0 10 -10v-40q0 -10 -10 -10z" />
    <glyph glyph-name="uni0459" unicode="&#x459;" horiz-adv-x="784" 
d="M37 -3h-16q-9 0 -9 10v9q0 9 9 9h17q43 0 73 35q42 45 42 211v194q0 9 10 9h268q9 0 9 -9v-191q0 -6 6 -6h147q68 0 105 -35t37 -99q0 -62 -38 -98t-103 -36h-174q-10 0 -10 10v430q0 6 -6 6h-215q-6 0 -6 -6v-195q0 -248 -146 -248zM446 28h150q52 0 80.5 27.5
t28.5 77.5q0 52 -28 79.5t-81 27.5h-150q-6 0 -6 -6v-200q0 -6 6 -6z" />
    <glyph glyph-name="uni045A" unicode="&#x45a;" horiz-adv-x="789" 
d="M119 0h-9q-10 0 -10 10v455q0 9 10 9h9q11 0 11 -9v-195q0 -6 6 -6h273q6 0 6 6v195q0 9 10 9h10q10 0 10 -9v-195q0 -6 6 -6h147q69 0 105.5 -34.5t36.5 -97.5q0 -61 -38 -96.5t-103 -35.5h-174q-10 0 -10 10v220q0 6 -6 6h-273q-6 0 -6 -6v-220q0 -10 -11 -10zM451 28
h150q52 0 80.5 26.5t28.5 76.5q0 51 -28 78t-81 27h-150q-6 0 -6 -6v-196q0 -6 6 -6z" />
    <glyph glyph-name="uni045B" unicode="&#x45b;" horiz-adv-x="538" 
d="M120 0h-10q-10 0 -10 10v555q0 6 -6 6h-72q-10 0 -10 10v8q0 10 10 10h72q6 0 6 6v65q0 10 10 10h10q10 0 10 -10v-65q0 -6 6 -6h128q10 0 10 -10v-8q0 -10 -10 -10h-128q-6 0 -6 -6v-168h1q18 41 56.5 64t89.5 23q81 0 124 -46.5t43 -136.5v-291q0 -10 -10 -10h-10
q-10 0 -10 10v284q0 162 -139 162q-63 0 -104 -40t-41 -107v-299q0 -10 -10 -10z" />
    <glyph glyph-name="uni045C" unicode="&#x45c;" horiz-adv-x="495" 
d="M119 0h-9q-10 0 -10 10v455q0 9 10 9h9q11 0 11 -9v-201q0 -6 6 -6h65q61 0 93 75l30 71q17 40 40.5 56.5t61.5 16.5h13q11 0 11 -10v-7q0 -11 -11 -11h-11q-30 0 -47 -13t-32 -46l-30 -71q-23 -54 -56 -68v-4q23 -3 43 -23t31 -51l30 -84q13 -37 29.5 -50.5t51.5 -13.5
h8q10 0 10 -10v-8q0 -10 -10 -10h-15q-44 0 -65 18t-39 69l-30 83q-17 44 -50 54q-23 8 -52 8h-69q-6 0 -6 -6v-213q0 -10 -11 -10zM240 560h-7q-12 0 -5 10l78 120q6 10 16 10h15q5 0 6.5 -3t-1.5 -7l-85 -120q-7 -10 -17 -10z" />
    <glyph glyph-name="uni045D" unicode="&#x45d;" horiz-adv-x="552" 
d="M123 0h-13q-10 0 -10 10v455q0 9 10 9h10q10 0 10 -9v-413h3l291 418q3 4 9 4h12q11 0 11 -9v-455q0 -10 -11 -10h-8q-11 0 -11 10v411h-3l-290 -416q-5 -5 -10 -5zM298 560h-7q-10 0 -17 10l-85 120q-3 4 -1.5 7t6.5 3h15q10 0 16 -10l78 -120q7 -10 -5 -10z" />
    <glyph glyph-name="uni045E" unicode="&#x45e;" horiz-adv-x="460" 
d="M98 -180h-16q-10 0 -10 10v8q0 10 10 10h18q34 0 53 21q21 19 45 84l20 53l-176 458q-3 10 7 10h12q9 0 13 -10l160 -416h1l157 416q4 10 13 10h12q10 0 7 -10l-199 -519q-28 -76 -57 -100q-26 -25 -70 -25zM114 675q-2 6 4 9l13 5q6 2 9 -5q10 -33 35 -55t59 -22t59 22
t35 55q3 7 9 5l13 -5q6 -3 4 -9q-33 -96 -120 -96t-120 96z" />
    <glyph glyph-name="uni045F" unicode="&#x45f;" horiz-adv-x="543" 
d="M276 -145h-10q-10 0 -10 10v129q0 6 -6 6h-140q-10 0 -10 9v455q0 10 10 10h9q11 0 11 -10v-430q0 -6 6 -6h271q6 0 6 6v430q0 10 10 10h10q10 0 10 -10v-455q0 -9 -10 -9h-141q-6 0 -6 -6v-129q0 -10 -10 -10z" />
    <glyph glyph-name="uni0490" unicode="&#x490;" horiz-adv-x="500" 
d="M123 0h-11q-10 0 -10 10v661q0 9 10 9h326q9 0 9 10v115q0 9 11 9h11q9 0 9 -9v-145q0 -9 -9 -9h-330q-6 0 -6 -6v-635q0 -10 -10 -10z" />
    <glyph glyph-name="uni0491" unicode="&#x491;" horiz-adv-x="390" 
d="M119 0h-10q-9 0 -9 10v455q0 9 9 9h230q6 0 6 6v111q0 10 9 10h11q10 0 10 -10v-136q0 -9 -11 -9h-228q-6 0 -6 -6v-430q0 -10 -11 -10z" />
    <glyph glyph-name="Wgrave" unicode="&#x1e80;" horiz-adv-x="813" 
d="M607 0h-14q-8 0 -11 10l-171 604h-2l-172 -604q-3 -10 -11 -10h-14q-10 0 -11 10l-159 659q-3 11 8 11h11q13 0 14 -10l145 -611h2l169 611q3 10 12 10h13q9 0 12 -10l171 -611h2l143 611q3 10 14 10h11q11 0 8 -11l-159 -659q-1 -10 -11 -10zM416 765h-7q-9 0 -18 10
l-87 103q-8 10 4 10h15q8 0 17 -10l80 -103q7 -10 -4 -10z" />
    <glyph glyph-name="wgrave" unicode="&#x1e81;" horiz-adv-x="728" 
d="M526 0h-8q-9 0 -12 10l-138 417h-1l-139 -417q-3 -10 -12 -10h-8q-9 0 -12 10l-148 454q-3 10 7 10h10q9 0 13 -10l135 -412h1l136 412q3 10 12 10h10q9 0 12 -10l139 -412h1l132 412q4 10 13 10h10q10 0 7 -10l-148 -454q-3 -10 -12 -10zM368 560h-7q-10 0 -17 10
l-85 120q-3 4 -1.5 7t6.5 3h15q10 0 16 -10l78 -120q7 -10 -5 -10z" />
    <glyph glyph-name="Wacute" unicode="&#x1e82;" horiz-adv-x="813" 
d="M607 0h-14q-8 0 -11 10l-171 604h-2l-172 -604q-3 -10 -11 -10h-14q-10 0 -11 10l-159 659q-3 11 8 11h11q13 0 14 -10l145 -611h2l169 611q3 10 12 10h13q9 0 12 -10l171 -611h2l143 611q3 10 14 10h11q11 0 8 -11l-159 -659q-1 -10 -11 -10zM412 765h-7q-11 0 -4 10
l80 103q9 10 17 10h15q4 0 5.5 -3t-1.5 -7l-87 -103q-9 -10 -18 -10z" />
    <glyph glyph-name="wacute" unicode="&#x1e83;" horiz-adv-x="728" 
d="M526 0h-8q-9 0 -12 10l-138 417h-1l-139 -417q-3 -10 -12 -10h-8q-9 0 -12 10l-148 454q-3 10 7 10h10q9 0 13 -10l135 -412h1l136 412q3 10 12 10h10q9 0 12 -10l139 -412h1l132 412q4 10 13 10h10q10 0 7 -10l-148 -454q-3 -10 -12 -10zM371 560h-7q-12 0 -5 10l78 120
q6 10 16 10h15q5 0 6.5 -3t-1.5 -7l-85 -120q-7 -10 -17 -10z" />
    <glyph glyph-name="Wdieresis" unicode="&#x1e84;" horiz-adv-x="813" 
d="M607 0h-14q-8 0 -11 10l-171 604h-2l-172 -604q-3 -10 -11 -10h-14q-10 0 -11 10l-159 659q-3 11 8 11h11q13 0 14 -10l145 -611h2l169 611q3 10 12 10h13q9 0 12 -10l171 -611h2l143 611q3 10 14 10h11q11 0 8 -11l-159 -659q-1 -10 -11 -10zM521 795h-24q-10 0 -10 10
v40q0 10 10 10h24q10 0 10 -10v-40q0 -10 -10 -10zM321 795h-24q-10 0 -10 10v40q0 10 10 10h24q10 0 10 -10v-40q0 -10 -10 -10z" />
    <glyph glyph-name="wdieresis" unicode="&#x1e85;" horiz-adv-x="728" 
d="M526 0h-8q-9 0 -12 10l-138 417h-1l-139 -417q-3 -10 -12 -10h-8q-9 0 -12 10l-148 454q-3 10 7 10h10q9 0 13 -10l135 -412h1l136 412q3 10 12 10h10q9 0 12 -10l139 -412h1l132 412q4 10 13 10h10q10 0 7 -10l-148 -454q-3 -10 -12 -10zM479 620h-24q-10 0 -10 10v40
q0 10 10 10h24q10 0 10 -10v-40q0 -10 -10 -10zM279 620h-24q-10 0 -10 10v40q0 10 10 10h24q10 0 10 -10v-40q0 -10 -10 -10z" />
    <glyph glyph-name="Ygrave" unicode="&#x1ef2;" horiz-adv-x="506" 
d="M261 0h-11q-10 0 -10 10v269l-207 389q-2 4 0 8t7 4h12q11 0 15 -10l189 -352h2l185 352q4 10 15 10h12q5 0 7 -4t0 -8l-206 -389v-269q0 -10 -10 -10zM275 765h-7q-9 0 -18 10l-87 103q-8 10 4 10h15q8 0 17 -10l80 -103q7 -10 -4 -10z" />
    <glyph glyph-name="ygrave" unicode="&#x1ef3;" horiz-adv-x="460" 
d="M98 -180h-16q-10 0 -10 10v8q0 10 10 10h18q34 0 53 21q21 19 45 84l20 53l-176 458q-3 10 7 10h12q9 0 13 -10l160 -416h1l157 416q4 10 13 10h12q10 0 7 -10l-199 -519q-28 -76 -57 -100q-26 -25 -70 -25zM263 560h-7q-10 0 -17 10l-85 120q-3 4 -1.5 7t6.5 3h15
q10 0 16 -10l78 -120q7 -10 -5 -10z" />
    <glyph glyph-name="uni2010" unicode="&#x2010;" horiz-adv-x="368" 
d="M308 253h-248q-10 0 -10 10v8q0 10 10 10h248q10 0 10 -10v-8q0 -10 -10 -10z" />
    <glyph glyph-name="endash" unicode="&#x2013;" horiz-adv-x="498" 
d="M458 253h-418q-10 0 -10 10v8q0 10 10 10h418q10 0 10 -10v-8q0 -10 -10 -10z" />
    <glyph glyph-name="emdash" unicode="&#x2014;" horiz-adv-x="814" 
d="M774 253h-734q-10 0 -10 10v8q0 10 10 10h734q10 0 10 -10v-8q0 -10 -10 -10z" />
    <glyph glyph-name="afii00208" unicode="&#x2015;" horiz-adv-x="814" 
d="M774 253h-734q-10 0 -10 10v8q0 10 10 10h734q10 0 10 -10v-8q0 -10 -10 -10z" />
    <glyph glyph-name="quoteleft" unicode="&#x2018;" horiz-adv-x="200" 
d="M110 537h-20q-10 0 -10 10v56q0 12 4 23l18 46q3 9 10 9q8 0 8 -9v-125q0 -10 -10 -10z" />
    <glyph glyph-name="quoteright" unicode="&#x2019;" horiz-adv-x="200" 
d="M88 536q-8 0 -8 9v125q0 10 10 10h20q10 0 10 -10v-56q0 -12 -4 -23l-18 -46q-3 -9 -10 -9z" />
    <glyph glyph-name="quotesinglbase" unicode="&#x201a;" horiz-adv-x="200" 
d="M88 -80q-8 0 -8 9v125q0 10 10 10h20q10 0 10 -10v-56q0 -14 -4 -23l-18 -46q-3 -9 -10 -9z" />
    <glyph glyph-name="quotedblleft" unicode="&#x201c;" horiz-adv-x="324" 
d="M234 537h-20q-10 0 -10 10v56q0 12 4 23l18 46q3 9 10 9q8 0 8 -9v-125q0 -10 -10 -10zM110 537h-20q-10 0 -10 10v56q0 12 4 23l18 46q3 9 10 9q8 0 8 -9v-125q0 -10 -10 -10z" />
    <glyph glyph-name="quotedblright" unicode="&#x201d;" horiz-adv-x="324" 
d="M212 536q-8 0 -8 9v125q0 10 10 10h20q10 0 10 -10v-56q0 -12 -4 -23l-18 -46q-3 -9 -10 -9zM88 536q-8 0 -8 9v125q0 10 10 10h20q10 0 10 -10v-56q0 -14 -4 -23l-18 -47q-3 -8 -10 -8z" />
    <glyph glyph-name="quotedblbase" unicode="&#x201e;" horiz-adv-x="324" 
d="M212 -80q-8 0 -8 9v125q0 10 10 10h20q10 0 10 -10v-56q0 -12 -4 -23l-18 -46q-3 -9 -10 -9zM88 -80q-8 0 -8 9v125q0 10 10 10h20q10 0 10 -10v-56q0 -12 -4 -23l-18 -46q-3 -9 -10 -9z" />
    <glyph glyph-name="dagger" unicode="&#x2020;" horiz-adv-x="410" 
d="M210 -180h-10q-10 0 -10 10v554q0 6 -6 6h-134q-10 0 -10 10v8q0 10 10 10h134q6 0 6 6v246q0 10 10 10h10q10 0 10 -10v-246q0 -6 6 -6h134q10 0 10 -10v-8q0 -10 -10 -10h-134q-6 0 -6 -6v-554q0 -10 -10 -10z" />
    <glyph glyph-name="daggerdbl" unicode="&#x2021;" horiz-adv-x="410" 
d="M210 -180h-10q-10 0 -10 10v220q0 6 -6 6h-134q-10 0 -10 10v8q0 10 10 10h134q6 0 6 6v323q0 6 -6 6h-134q-10 0 -10 10v8q0 10 10 10h134q6 0 6 6v217q0 10 10 10h10q10 0 10 -10v-217q0 -6 6 -6h134q10 0 10 -10v-8q0 -10 -10 -10h-134q-6 0 -6 -6v-323q0 -6 6 -6h134
q10 0 10 -10v-8q0 -10 -10 -10h-134q-6 0 -6 -6v-220q0 -10 -10 -10z" />
    <glyph glyph-name="bullet" unicode="&#x2022;" horiz-adv-x="408" 
d="M278 234q-30 -30 -74 -30t-74 30t-30 74t30 74t74 30t74 -30t30 -74t-30 -74z" />
    <glyph glyph-name="ellipsis" unicode="&#x2026;" horiz-adv-x="612" 
d="M524 0h-28q-10 0 -10 10v50q0 10 10 10h28q10 0 10 -10v-50q0 -10 -10 -10zM320 0h-28q-10 0 -10 10v50q0 10 10 10h28q10 0 10 -10v-50q0 -10 -10 -10zM116 0h-28q-10 0 -10 10v50q0 10 10 10h28q10 0 10 -10v-50q0 -10 -10 -10z" />
    <glyph glyph-name="perthousand" unicode="&#x2030;" horiz-adv-x="1087" 
d="M196 -10h-10q-10 0 -6 10l393 680q6 10 14 10h10q10 0 6 -10l-393 -680q-6 -10 -14 -10zM108 401q-8 27 -8 108t8 108q23 71 102 71t102 -71q8 -27 8 -108t-8 -108q-23 -71 -102 -71t-102 71zM284 406q8 26 8 103t-8 103q-17 50 -74 50t-74 -50q-8 -26 -8 -103t8 -103
q17 -50 74 -50t74 50zM775 63q-8 27 -8 108t8 108q23 71 102 71t102 -71q8 -27 8 -108t-8 -108q-23 -71 -102 -71t-102 71zM474 63q-8 27 -8 108t8 108q23 71 102 71t102 -71q8 -27 8 -108t-8 -108q-23 -71 -102 -71t-102 71zM951 68q8 26 8 103t-8 103q-17 50 -74 50
t-74 -50q-8 -26 -8 -103t8 -103q17 -50 74 -50t74 50zM650 68q8 26 8 103t-8 103q-17 50 -74 50t-74 -50q-8 -26 -8 -103t8 -103q17 -50 74 -50t74 50z" />
    <glyph glyph-name="guilsinglleft" unicode="&#x2039;" horiz-adv-x="307" 
d="M224 96l-158 161q-7 7 0 14l158 161q3 3 6.5 1.5t3.5 -5.5v-19q0 -10 -6 -16l-122 -125q-4 -4 0 -8l122 -125q6 -6 6 -16v-19q0 -4 -3.5 -5.5t-6.5 1.5z" />
    <glyph glyph-name="guilsinglright" unicode="&#x203a;" horiz-adv-x="307" 
d="M248 257l-158 -161q-3 -3 -6.5 -1.5t-3.5 5.5v19q0 10 6 16l122 125q4 4 0 8l-122 125q-6 6 -6 16v19q0 4 3.5 5.5t6.5 -1.5l158 -161q7 -7 0 -14z" />
    <glyph glyph-name="interrobang" unicode="&#x203d;" horiz-adv-x="439" 
d="M205 176v4l-2 320q0 10 10 10h12q10 0 10 -10l-2 -193h1l51 64q46 58 58 87q14 34 14 71q0 62 -37.5 97.5t-97.5 35.5q-56 0 -92.5 -33.5t-47.5 -94.5q-2 -9 -12 -8l-9 2q-10 1 -8 11q10 68 55.5 109.5t113.5 41.5q74 0 119.5 -44.5t45.5 -116.5q0 -43 -15 -77
q-15 -33 -54 -81l-45 -56q-24 -30 -31 -49t-7 -52v-38q0 -10 -10 -10h-10q-10 0 -10 10zM196 10v50q0 10 10 10h28q10 0 10 -10v-50q0 -10 -10 -10h-28q-10 0 -10 10z" />
    <glyph glyph-name="fraction" unicode="&#x2044;" horiz-adv-x="147" 
d="M-117 -10h-10q-10 0 -6 10l393 680q6 10 14 10h10q10 0 6 -10l-393 -680q-6 -10 -14 -10z" />
    <glyph glyph-name="zero.superior" unicode="&#x2070;" horiz-adv-x="324" 
d="M52 501q-9 27 -9 132t9 132q26 77 110 77t110 -77q9 -27 9 -132t-9 -132q-26 -77 -110 -77t-110 77zM245 509q8 27 8 124t-8 124q-20 59 -83 59t-83 -59q-8 -27 -8 -124t8 -124q20 -59 83 -59t83 59z" />
    <glyph glyph-name="four.superior" unicode="&#x2074;" horiz-adv-x="324" 
d="M225 430h-8q-10 0 -10 10v68q0 6 -6 6h-161q-10 0 -10 10v6q0 8 4 15l137 281q4 10 13 10h11q12 0 6 -10l-138 -285v-1h138q6 0 6 6v107q0 10 10 10h8q10 0 10 -10v-107q0 -6 6 -6h45q10 0 10 -10v-6q0 -10 -10 -10h-45q-6 0 -6 -6v-68q0 -10 -10 -10z" />
    <glyph glyph-name="five.superior" unicode="&#x2075;" horiz-adv-x="324" 
d="M173 424q-91 0 -112 80q-3 10 6 13l7 2q9 3 12 -5q22 -64 87 -64q62 0 79 53q5 20 5 58q0 42 -5 59q-16 51 -78 51q-60 0 -78 -48q-3 -10 -11 -10h-8q-10 0 -10 10v203q0 10 10 10h191q10 0 10 -10v-6q0 -10 -10 -10h-167q-6 0 -6 -6v-145h1q21 38 81 38q79 0 101 -66
q7 -18 7 -70q0 -44 -8 -70q-22 -67 -104 -67z" />
    <glyph glyph-name="six.superior" unicode="&#x2076;" horiz-adv-x="324" 
d="M40 546q0 44 27 91l105 191q5 8 12 8h11q12 0 6 -10l-96 -174l1 -1q20 17 58 17q53 0 86.5 -34t33.5 -88q0 -55 -34 -88.5t-88 -33.5t-88 33.5t-34 88.5zM256 546q0 44 -25.5 70t-68.5 26q-42 0 -68 -27q-26 -26 -26 -69q0 -42 26 -70q26 -26 68 -26t68 26.5t26 69.5z
" />
    <glyph glyph-name="seven.superior" unicode="&#x2077;" horiz-adv-x="324" 
d="M112 430h-10q-11 0 -6 11l156 368v1h-164q-6 0 -6 -6v-41q0 -10 -10 -10h-8q-10 0 -10 10v63q0 10 10 10h208q10 0 10 -10v-11q0 -7 -3 -14l-155 -363q-5 -8 -12 -8z" />
    <glyph glyph-name="eight.superior" unicode="&#x2078;" horiz-adv-x="324" 
d="M38 540q0 38 20 66t49 37v2q-26 10 -42 34.5t-16 56.5q0 47 32 76.5t81 29.5q48 0 80.5 -30.5t32.5 -75.5q0 -32 -16 -56.5t-42 -34.5v-2q29 -9 49 -37t20 -66q0 -53 -34.5 -84.5t-89.5 -31.5t-89.5 31.5t-34.5 84.5zM101 678q25 -22 61 -22t60 22q25 22 25 58
q0 35 -25 57q-24 23 -60 23t-61 -23q-24 -23 -24 -57q0 -36 24 -58zM93 475q26 -25 69 -25t69 25q27 26 27 65q0 40 -27 65q-26 25 -69 25t-69 -25q-27 -25 -27 -65q0 -39 27 -65z" />
    <glyph glyph-name="nine.superior" unicode="&#x2079;" horiz-adv-x="324" 
d="M140 430h-11q-12 0 -6 10l96 174l-1 1q-20 -17 -58 -17q-53 0 -86.5 34t-33.5 88q0 55 34 88.5t88 33.5t88 -33.5t34 -88.5q0 -44 -27 -91l-105 -191q-5 -8 -12 -8zM162 624q42 0 68 26q26 28 26 70q0 43 -26 69q-26 27 -68 27t-68 -26.5t-26 -69.5q0 -44 25.5 -70
t68.5 -26z" />
    <glyph glyph-name="zero.inferior" unicode="&#x2080;" horiz-adv-x="324" 
d="M52 -85q-9 27 -9 132t9 132q26 77 110 77t110 -77q9 -27 9 -132t-9 -132q-26 -77 -110 -77t-110 77zM245 -77q8 27 8 124t-8 124q-20 59 -83 59t-83 -59q-8 -27 -8 -124t8 -124q20 -59 83 -59t83 59z" />
    <glyph glyph-name="one.inferior" unicode="&#x2081;" horiz-adv-x="324" 
d="M174 -156h-8q-10 0 -10 10v361h-1l-71 -50q-10 -6 -10 5v11q0 10 7 14l70 49q9 6 15 6h8q10 0 10 -10v-386q0 -10 -10 -10z" />
    <glyph glyph-name="two.inferior" unicode="&#x2082;" horiz-adv-x="324" 
d="M270 -156h-217q-10 0 -10 10v6q0 7 7 14l161 192q37 44 37 84q0 35 -23 57.5t-59 22.5q-68 0 -86 -69q-1 -10 -12 -8l-6 1q-10 2 -9 12q8 40 38.5 65t74.5 25q50 0 80 -30t30 -76q0 -47 -45 -101l-149 -177v-2h188q10 0 10 -10v-6q0 -10 -10 -10z" />
    <glyph glyph-name="three.inferior" unicode="&#x2083;" horiz-adv-x="324" 
d="M165 -162q-46 0 -76.5 21.5t-42.5 57.5q-3 8 6 11l8 3q8 3 12 -6q25 -61 93 -61q40 0 65 25t25 64t-25.5 64.5t-66.5 25.5h-16q-10 0 -10 10v6q0 10 10 10h15q38 0 61 22.5t23 59.5q0 35 -23 57t-61 22q-64 0 -84 -56q-3 -10 -11 -8l-7 1q-10 1 -8 11q9 35 37.5 56.5
t72.5 21.5q50 0 81 -29.5t31 -75.5q0 -63 -57 -93v-1q28 -12 47 -39t19 -65q0 -50 -33 -82.5t-85 -32.5z" />
    <glyph glyph-name="four.inferior" unicode="&#x2084;" horiz-adv-x="324" 
d="M225 -156h-8q-10 0 -10 10v68q0 6 -6 6h-161q-10 0 -10 10v6q0 8 4 15l137 281q4 10 13 10h11q12 0 6 -10l-138 -285v-1h138q6 0 6 6v107q0 10 10 10h8q10 0 10 -10v-107q0 -6 6 -6h45q10 0 10 -10v-6q0 -10 -10 -10h-45q-6 0 -6 -6v-68q0 -10 -10 -10z" />
    <glyph glyph-name="five.inferior" unicode="&#x2085;" horiz-adv-x="324" 
d="M173 -162q-91 0 -112 80q-3 10 6 13l7 2q9 3 12 -5q22 -64 87 -64q62 0 79 53q5 20 5 58q0 42 -5 59q-16 51 -78 51q-60 0 -78 -48q-3 -10 -11 -10h-8q-10 0 -10 10v203q0 10 10 10h191q10 0 10 -10v-6q0 -10 -10 -10h-167q-6 0 -6 -6v-145h1q21 38 81 38q79 0 101 -66
q7 -18 7 -70q0 -44 -8 -70q-22 -67 -104 -67z" />
    <glyph glyph-name="six.inferior" unicode="&#x2086;" horiz-adv-x="324" 
d="M40 -40q0 44 27 91l105 191q5 8 12 8h11q12 0 6 -10l-96 -174l1 -1q20 17 58 17q53 0 86.5 -34t33.5 -88q0 -55 -34 -88.5t-88 -33.5t-88 33.5t-34 88.5zM256 -40q0 44 -25.5 70t-68.5 26q-42 0 -68 -27q-26 -26 -26 -69t26 -69q26 -27 68 -27t68 26.5t26 69.5z" />
    <glyph glyph-name="seven.inferior" unicode="&#x2087;" horiz-adv-x="324" 
d="M112 -156h-10q-11 0 -6 11l156 368v1h-164q-6 0 -6 -6v-41q0 -10 -10 -10h-8q-10 0 -10 10v63q0 10 10 10h208q10 0 10 -10v-11q0 -7 -3 -14l-155 -363q-5 -8 -12 -8z" />
    <glyph glyph-name="eight.inferior" unicode="&#x2088;" horiz-adv-x="324" 
d="M38 -46q0 38 20 66t49 37v2q-26 10 -42 34.5t-16 56.5q0 47 32 76.5t81 29.5q48 0 80.5 -30.5t32.5 -75.5q0 -32 -16 -56.5t-42 -34.5v-2q29 -9 49 -37t20 -66q0 -53 -34.5 -84.5t-89.5 -31.5t-89.5 31.5t-34.5 84.5zM101 92q25 -22 61 -22t60 22q25 22 25 58
q0 35 -25 57q-24 23 -60 23t-61 -23q-24 -23 -24 -57q0 -36 24 -58zM93 -111q26 -25 69 -25t69 25q27 26 27 65q0 40 -27 65q-26 25 -69 25t-69 -25q-27 -25 -27 -65t27 -65z" />
    <glyph glyph-name="nine.inferior" unicode="&#x2089;" horiz-adv-x="324" 
d="M140 -156h-11q-12 0 -6 10l96 174l-1 1q-20 -17 -58 -17q-53 0 -86.5 34t-33.5 88q0 55 34 88.5t88 33.5t88 -33.5t34 -88.5q0 -44 -27 -91l-105 -191q-5 -8 -12 -8zM162 38q42 0 68 26q26 28 26 70q0 43 -26 69q-26 27 -68 27t-68 -26.5t-26 -69.5q0 -44 25.5 -70
t68.5 -26z" />
    <glyph glyph-name="Euro" unicode="&#x20ac;" 
d="M296 -10q-128 0 -169 119q-14 45 -14 155q0 6 -6 6h-51q-10 0 -10 10v7q0 10 10 10h51q6 0 6 6v81q0 6 -6 6h-51q-10 0 -10 10v7q0 10 10 10h51q6 0 6 6q0 103 14 148q41 119 169 119q121 0 169 -115q3 -10 -5 -13l-8 -4q-8 -3 -13 6q-45 98 -143 98q-108 0 -139 -97
q-14 -42 -14 -142q0 -6 6 -6h213q10 0 10 -10v-7q0 -10 -10 -10h-213q-6 0 -6 -6v-81q0 -6 6 -6h183q10 0 10 -10v-7q0 -10 -10 -10h-183q-6 0 -6 -6q0 -107 14 -149q31 -97 139 -97q98 0 143 98q5 9 13 6l8 -4q8 -3 5 -13q-48 -115 -169 -115z" />
    <glyph glyph-name="afii61248" unicode="&#x2105;" horiz-adv-x="786" 
d="M180 0l393 680q6 10 14 10h10q10 0 6 -10l-393 -680q-6 -10 -14 -10h-10q-10 0 -6 10zM214 330q-48 0 -74 21t-41 66q-11 41 -11 91q0 53 11 92q28 88 116 88q73 0 108 -72q3 -7 -3 -10l-14 -9q-6 -1 -9 3q-16 33 -34.5 47.5t-49.5 14.5q-62 0 -85 -69q-10 -31 -10 -85
q0 -53 10 -84q23 -68 82 -68q31 0 50.5 13.5t35.5 45.5q3 5 9 3l12 -8q6 -3 3 -10q-34 -70 -106 -70zM575 -8q-93 0 -121 88q-11 38 -11 90q0 53 11 89q13 43 45 67t76 24q93 0 122 -91q11 -36 11 -89q0 -52 -11 -90q-28 -88 -122 -88zM575 18q73 0 92 69q10 27 10 84
t-10 84q-19 69 -92 69q-71 0 -90 -69q-10 -27 -10 -84t10 -84q19 -69 90 -69z" />
    <glyph glyph-name="afii61289" unicode="&#x2113;" horiz-adv-x="339" 
d="M283 576q0 -65 -28 -124q-26 -57 -104 -154v-218q0 -62 50 -62q32 0 62 31q7 7 14 0l5 -5q7 -7 0 -14q-37 -40 -83 -40q-78 0 -78 92v181l-24 -29q-7 -8 -14 -1l-7 6q-7 7 -1 15l46 54v219q0 163 85 163q36 0 56.5 -30t20.5 -84zM151 525v-182q57 71 80 124q22 51 22 109
q0 39 -13.5 62.5t-34.5 23.5q-54 0 -54 -137z" />
    <glyph glyph-name="uni2116" unicode="&#x2116;" horiz-adv-x="922" 
d="M123 0h-11q-10 0 -10 10v661q0 9 10 9h24q6 0 6 -2l355 -618h3v611q0 9 8 9h12q11 0 11 -9v-661q0 -10 -11 -10h-26q-3 0 -5 2l-353 620h-3v-612q0 -10 -10 -10zM845 167h-206q-9 0 -9 10v9q0 10 9 10h206q10 0 10 -10v-9q0 -10 -10 -10zM620 393q0 150 123 150t123 -150
q0 -151 -123 -151t-123 151zM743 271q92 0 92 122q0 121 -92 121t-92 -121q0 -122 92 -122z" />
    <glyph glyph-name="published" unicode="&#x2117;" horiz-adv-x="832" 
d="M665 90q-100 -100 -249 -100q-150 0 -250 100t-100 250q0 149 100 249q101 101 250 101q148 0 249 -101t101 -249q0 -149 -101 -250zM186 108q92 -92 230 -92t230 92q92 94 92 232q0 139 -92 231q-92 93 -230 93t-230 -93q-92 -92 -92 -231q0 -138 92 -232zM338 140h-9
q-9 0 -9 9v368q0 9 9 9h80q81 0 120.5 -26t39.5 -89q0 -69 -40 -98.5t-120 -29.5h-57q-5 0 -5 -5v-129q0 -9 -9 -9zM352 308h57q69 0 100.5 22.5t31.5 80.5q0 52 -31 71t-101 19h-57q-5 0 -5 -6v-181q0 -6 5 -6z" />
    <glyph glyph-name="trademark" unicode="&#x2122;" horiz-adv-x="804" 
d="M744 286h-7q-10 0 -10 10v323h-2l-131 -270q-5 -8 -11 -8h-8q-6 0 -11 8l-131 270h-2v-323q0 -10 -10 -10h-7q-10 0 -10 10v374q0 10 10 10h11q7 0 12 -8l142 -295h2l140 295q5 8 12 8h11q10 0 10 -10v-374q0 -10 -10 -10zM188 286h-7q-10 0 -10 10v353q0 6 -6 6h-115
q-10 0 -10 10v5q0 10 10 10h269q10 0 10 -10v-5q0 -10 -10 -10h-115q-6 0 -6 -6v-353q0 -10 -10 -10z" />
    <glyph glyph-name="Omega" unicode="&#x2126;" horiz-adv-x="602" 
d="M510 0h-161q-10 0 -10 10v12q0 7 10 10q67 29 96.5 59.5t41.5 84t14 164.5q0 138 -19 194q-42 127 -181 127t-181 -127q-19 -56 -19 -194q2 -111 14 -164.5t41.5 -84t96.5 -59.5q10 -3 10 -10v-12q0 -10 -10 -10h-161q-10 0 -10 10v8q0 10 10 10h96v2q-67 33 -92 99
q-26 67 -26 211q0 140 20 202q48 148 211 148t211 -148q20 -62 20 -202q0 -144 -26 -211q-25 -66 -92 -99v-2h96q10 0 10 -10v-8q0 -10 -10 -10z" />
    <glyph glyph-name="estimated" unicode="&#x212e;" horiz-adv-x="662" 
d="M330 -10q-102 0 -167 71q-63 72 -63 177q0 106 63 176q64 70 167 70q104 0 167 -69q63 -66 65 -177h-361v-163q53 -51 129 -51q109 0 172 107l32 -20q-43 -65 -89.5 -93t-114.5 -28zM201 270h260v130q-59 54 -131 54q-76 0 -129 -54v-130z" />
    <glyph glyph-name="onethird" unicode="&#x2153;" horiz-adv-x="857" 
d="M639 -6q-46 0 -76.5 21.5t-42.5 57.5q-3 8 6 11l8 3q8 3 12 -6q25 -61 93 -61q40 0 65 25t25 64t-25.5 64.5t-66.5 25.5h-16q-10 0 -10 10v6q0 10 10 10h15q38 0 61 22.5t23 59.5q0 35 -23 57t-61 22q-64 0 -84 -56q-3 -10 -11 -8l-7 1q-10 1 -8 11q9 35 37.5 56.5
t72.5 21.5q50 0 81 -29.5t31 -75.5q0 -63 -57 -93v-1q28 -12 47 -39t19 -65q0 -50 -33 -82.5t-85 -32.5zM180 274h-8q-10 0 -10 10v361h-1l-71 -50q-10 -6 -10 5v11q0 10 7 14l70 49q9 6 15 6h8q10 0 10 -10v-386q0 -10 -10 -10zM200 -10h-10q-10 0 -6 10l393 680
q6 10 14 10h10q10 0 6 -10l-393 -680q-6 -10 -14 -10z" />
    <glyph glyph-name="twothirds" unicode="&#x2154;" horiz-adv-x="949" 
d="M731 -6q-46 0 -76.5 21.5t-42.5 57.5q-3 8 6 11l8 3q8 3 12 -6q25 -61 93 -61q40 0 65 25t25 64t-25.5 64.5t-66.5 25.5h-16q-10 0 -10 10v6q0 10 10 10h15q38 0 61 22.5t23 59.5q0 35 -23 57t-61 22q-64 0 -84 -56q-3 -10 -11 -8l-7 1q-10 1 -8 11q9 35 37.5 56.5
t72.5 21.5q50 0 81 -29.5t31 -75.5q0 -63 -57 -93v-1q28 -12 47 -39t19 -65q0 -50 -33 -82.5t-85 -32.5zM327 274h-217q-10 0 -10 10v6q0 7 7 14l161 192q37 44 37 84q0 35 -23 57.5t-59 22.5q-68 0 -86 -69q-1 -10 -12 -8l-6 1q-11 2 -9 12q8 40 38.5 65t74.5 25
q50 0 80 -30t30 -76q0 -47 -45 -101l-149 -177v-2h188q10 0 10 -10v-6q0 -10 -10 -10zM293 -10h-10q-10 0 -6 10l393 680q6 10 14 10h10q10 0 6 -10l-393 -680q-6 -10 -14 -10z" />
    <glyph glyph-name="oneeighth" unicode="&#x215b;" horiz-adv-x="858" 
d="M510 110q0 38 20 66t49 37v2q-26 10 -42 34.5t-16 56.5q0 47 32 76.5t81 29.5q48 0 80.5 -30.5t32.5 -75.5q0 -32 -16 -56.5t-42 -34.5v-2q29 -9 49 -37t20 -66q0 -53 -34.5 -84.5t-89.5 -31.5t-89.5 31.5t-34.5 84.5zM573 248q25 -22 61 -22t60 22q25 22 25 58
q0 35 -25 57q-24 23 -60 23t-61 -23q-24 -23 -24 -57q0 -36 24 -58zM565 45q26 -25 69 -25t69 25q27 25 27 65t-27 65q-26 25 -69 25t-69 -25q-27 -26 -27 -65q0 -40 27 -65zM180 274h-8q-10 0 -10 10v361h-1l-71 -50q-10 -6 -10 5v11q0 10 7 14l70 49q9 6 15 6h8
q10 0 10 -10v-386q0 -10 -10 -10zM200 -10h-10q-10 0 -6 10l393 680q6 10 14 10h10q10 0 6 -10l-393 -680q-6 -10 -14 -10z" />
    </font>
</defs>
</svg>
