<svg xmlns="http://www.w3.org/2000/svg" viewBox="0 0 23 23"><defs><style>.cls-1{fill:#598135;}</style></defs><title>accept</title><g id="Слой_2" data-name="Слой 2"><g id="Layer_60" data-name="Layer 60"><path class="cls-1" d="M11.5,23A11.5,11.5,0,1,1,23,11.5,11.51,11.51,0,0,1,11.5,23Zm0-22A10.5,10.5,0,1,0,22,11.5,10.51,10.51,0,0,0,11.5,1Z"/><path class="cls-1" d="M10.5,15a.5.5,0,0,1-.35-.15l-3-3a.5.5,0,0,1,.71-.71l3,3a.5.5,0,0,1-.35.85Z"/><path class="cls-1" d="M10.5,15a.5.5,0,0,1-.35-.85l6-6a.5.5,0,1,1,.71.71l-6,6A.5.5,0,0,1,10.5,15Z"/></g></g></svg>