<svg xmlns="http://www.w3.org/2000/svg" width="7" height="9" viewBox="0 0 7 9">
  <defs>
    <style>
      .cls-1 {
      	fill: #222222;
      }
    </style>
  </defs>
  <path id="Фигура_2" data-name="Фигура 2" class="cls-1" d="M1225.59,15a1.914,1.914,0,0,0-1.97,1.871v0.66h-1.35a0.275,0.275,0,0,0-.27.281v4.781a1.376,1.376,0,0,0,1.35,1.4h4.3a1.376,1.376,0,0,0,1.35-1.4v-4.78a0.275,0.275,0,0,0-.27-0.281h-1.35V17.027A1.962,1.962,0,0,0,1225.59,15Zm0.72,2.53h-1.62V16.971a0.811,0.811,0,1,1,1.62,0v0.562Z" transform="translate(-1222 -15)"/>
</svg>
