<svg xmlns="http://www.w3.org/2000/svg" viewBox="0 0 23.42 23.42"><title>download</title><g id="Слой_2" data-name="Слой 2"><g id="Layer_60" data-name="Layer 60"><path d="M11.71,23.42A11.71,11.71,0,1,1,23.42,11.71,11.72,11.72,0,0,1,11.71,23.42Zm0-22A10.29,10.29,0,1,0,22,11.71,10.3,10.3,0,0,0,11.71,1.42Z"/><path d="M11.71,16.42a.71.71,0,0,1-.5-1.21l3-3a.71.71,0,1,1,1,1l-3,3A.71.71,0,0,1,11.71,16.42Z"/><path d="M11.71,16.42a.71.71,0,0,1-.5-.21l-3-3a.71.71,0,0,1,1-1l3,3a.71.71,0,0,1-.5,1.21Z"/><path d="M11.71,16.42a.71.71,0,0,1-.71-.71v-8a.71.71,0,1,1,1.42,0v8A.71.71,0,0,1,11.71,16.42Z"/></g></g></svg>