<svg xmlns="http://www.w3.org/2000/svg" viewBox="0 0 23 23"><defs><style>.cls-1{fill:#fff;}</style></defs><title>1</title><g id="Слой_2" data-name="Слой 2"><g id="Layer_60" data-name="Layer 60"><path class="cls-1" d="M11.5,23A11.5,11.5,0,1,1,23,11.5,11.51,11.51,0,0,1,11.5,23Zm0-22A10.5,10.5,0,1,0,22,11.5,10.51,10.51,0,0,0,11.5,1Z"/><path class="cls-1" d="M11.5,12a.5.5,0,0,1-.5-.5V.5a.5.5,0,0,1,1,0v11A.5.5,0,0,1,11.5,12Z"/><path class="cls-1" d="M19.27,19.77a.5.5,0,0,1-.35-.15l-7.77-7.77a.5.5,0,0,1,.71-.71l7.77,7.77a.5.5,0,0,1-.35.85Z"/><path class="cls-1" d="M11.5,12a.5.5,0,0,1-.35-.85l7.77-7.77a.5.5,0,1,1,.71.71l-7.77,7.77A.5.5,0,0,1,11.5,12Z"/></g></g></svg>