<svg xmlns="http://www.w3.org/2000/svg" viewBox="0 0 23 19"><defs><style>.cls-1{fill:#fff;}</style></defs><title>8</title><g id="Слой_2" data-name="Слой 2"><g id="Layer_60" data-name="Layer 60"><path class="cls-1" d="M3.5,19a.5.5,0,0,1-.5-.5V.5a.5.5,0,0,1,1,0v18A.5.5,0,0,1,3.5,19Z"/><path class="cls-1" d="M19.5,19a.5.5,0,0,1-.5-.5V.5a.5.5,0,0,1,1,0v18A.5.5,0,0,1,19.5,19Z"/><path class="cls-1" d="M22.5,4H.5a.5.5,0,0,1,0-1h22a.5.5,0,0,1,0,1Z"/><path class="cls-1" d="M22.5,16H.5a.5.5,0,0,1,0-1h22a.5.5,0,0,1,0,1Z"/><path class="cls-1" d="M13.29,11.57V12H9.74v-.41l2-2.06a3.85,3.85,0,0,0,.54-.7,1.21,1.21,0,0,0,.2-.59.73.73,0,0,0-.29-.62,1.33,1.33,0,0,0-.82-.22,1.88,1.88,0,0,0-.74.16A2.35,2.35,0,0,0,9.93,8l-.22-.36a2.79,2.79,0,0,1,.81-.5A2.39,2.39,0,0,1,11.41,7a1.82,1.82,0,0,1,1.14.33A1.06,1.06,0,0,1,13,8.2a1.52,1.52,0,0,1-.25.75,4.89,4.89,0,0,1-.68.87l-1.69,1.75Z"/><path class="cls-1" d="M13.79,12.51H9.24v-.44H9.19L9.24,12V11.4l2.11-2.2a3.33,3.33,0,0,0,.47-.6A.75.75,0,0,0,12,8.26a.23.23,0,0,0-.1-.22,1.16,1.16,0,0,0-1.06,0,1.86,1.86,0,0,0-.54.35l-.45.42L9.06,7.57l.31-.28a3.28,3.28,0,0,1,1-.59,2.61,2.61,0,0,1,2.52.22,1.56,1.56,0,0,1,.62,1.28,2,2,0,0,1-.32,1,5.4,5.4,0,0,1-.74,1l-.87.91h2.25Z"/></g></g></svg>