<svg xmlns="http://www.w3.org/2000/svg" viewBox="0 0 15 23"><defs><style>.cls-1{fill:#fff;}</style></defs><title>2</title><g id="Слой_2" data-name="Слой 2"><g id="Layer_60" data-name="Layer 60"><path class="cls-1" d="M7.5,18C1.16,18,0,15.81,0,11.5,0,5.24,6.92.3,7.21.09a.5.5,0,0,1,.58,0C8.08.3,15,5.24,15,11.5,15,14.29,14.22,18,7.5,18Zm0-16.88C6.21,2.12,1,6.45,1,11.5c0,3.88.9,5.5,6.5,5.5S14,14.36,14,11.5C14,6.44,8.79,2.12,7.5,1.12Z"/><path class="cls-1" d="M9.5,23a.5.5,0,0,1-.42-.22C5.55,17.48,6.54,10.1,6.91,7.32,7,6.92,7,6.63,7,6.5a.5.5,0,0,1,1,0c0,.15,0,.48-.1,1-.36,2.68-1.3,9.78,2,14.77A.5.5,0,0,1,9.5,23Z"/></g></g></svg>