<svg xmlns="http://www.w3.org/2000/svg" viewBox="0 0 19 19"><defs><style>.cls-1{fill:#fff;}</style></defs><title>7</title><g id="Слой_2" data-name="Слой 2"><g id="Layer_60" data-name="Layer 60"><path class="cls-1" d="M9.5,19A9.51,9.51,0,0,1,0,9.5a.5.5,0,0,1,1,0A8.51,8.51,0,1,0,2.44,4.78a.5.5,0,1,1-.83-.55A9.5,9.5,0,1,1,9.5,19Z"/><path class="cls-1" d="M9.5,10A.5.5,0,0,1,9,9.5v-5a.5.5,0,0,1,1,0v5A.5.5,0,0,1,9.5,10Z"/><path class="cls-1" d="M12.5,13a.5.5,0,0,1-.35-.15l-3-3a.5.5,0,0,1,.71-.71l3,3a.5.5,0,0,1-.35.85Z"/><path class="cls-1" d="M5.5,5h-4A.5.5,0,0,1,1,4.5V.5a.5.5,0,0,1,1,0V4H5.5a.5.5,0,0,1,0,1Z"/></g></g></svg>