<svg xmlns="http://www.w3.org/2000/svg" viewBox="0 0 17 23"><defs><style>.cls-1{fill:#fff;}</style></defs><title>4</title><g id="Слой_2" data-name="Слой 2"><g id="Layer_60" data-name="Layer 60"><path class="cls-1" d="M8.5,23A8.51,8.51,0,0,1,0,14.5C0,8.58,6,0,8.5,0a.5.5,0,0,1,0,1C7,1,1,8.38,1,14.5a7.5,7.5,0,0,0,15,0,11.22,11.22,0,0,0-.37-2.7,22.12,22.12,0,0,0-2.79-6.25A.5.5,0,1,1,13.69,5a23.13,23.13,0,0,1,2.91,6.55A12.21,12.21,0,0,1,17,14.5,8.51,8.51,0,0,1,8.5,23Z"/><path class="cls-1" d="M11.48,8.92a.5.5,0,0,1-.37-.17A12.46,12.46,0,0,1,8,.5a.5.5,0,0,1,1,0,11.46,11.46,0,0,0,2.86,7.59.5.5,0,0,1-.37.83Z"/><path class="cls-1" d="M11.48,8.92a.5.5,0,0,1-.36-.85,6.44,6.44,0,0,0,1.66-2.91.5.5,0,0,1,1,.25,7.45,7.45,0,0,1-1.92,3.37A.5.5,0,0,1,11.48,8.92Z"/><path class="cls-1" d="M8.5,23A4.5,4.5,0,0,1,4,18.5C4,15.36,7.12,11,8.5,11a.5.5,0,0,1,0,1c-.69.1-3.5,3.71-3.5,6.5a3.5,3.5,0,0,0,7,0,5.32,5.32,0,0,0-.18-1.29,10.8,10.8,0,0,0-1.36-3.05.5.5,0,1,1,.84-.54A11.82,11.82,0,0,1,12.79,17,6.38,6.38,0,0,1,13,18.5,4.5,4.5,0,0,1,8.5,23Z"/><path class="cls-1" d="M10,16a.5.5,0,0,1-.37-.17A6.48,6.48,0,0,1,8,11.5a.5.5,0,0,1,1,0,5.48,5.48,0,0,0,1.37,3.63A.5.5,0,0,1,10,16Z"/><path class="cls-1" d="M10,16a.5.5,0,0,1-.36-.85,3,3,0,0,0,.77-1.34.5.5,0,1,1,1,.25,4,4,0,0,1-1,1.8A.5.5,0,0,1,10,16Z"/></g></g></svg>