<svg xmlns="http://www.w3.org/2000/svg" viewBox="0 0 23 14"><defs><style>.cls-1{fill:#fff;}</style></defs><title>3</title><g id="Слой_2" data-name="Слой 2"><g id="Layer_60" data-name="Layer 60"><path class="cls-1" d="M22.5,9H8.5A.5.5,0,0,1,8,8.5v-1A3.5,3.5,0,0,1,11.5,4h8A3.5,3.5,0,0,1,23,7.5v1A.5.5,0,0,1,22.5,9ZM9,8H22V7.5A2.5,2.5,0,0,0,19.5,5h-8A2.5,2.5,0,0,0,9,7.5Z"/><path class="cls-1" d="M.5,14a.5.5,0,0,1-.5-.5V.5a.5.5,0,0,1,1,0v13A.5.5,0,0,1,.5,14Z"/><path class="cls-1" d="M18.5,9H1.5a.5.5,0,0,1,0-1h17a.5.5,0,0,1,0,1Z"/><path class="cls-1" d="M22.5,14a.5.5,0,0,1-.5-.5v-5a.5.5,0,0,1,1,0v5A.5.5,0,0,1,22.5,14Z"/><path class="cls-1" d="M8.5,9H.5A.5.5,0,0,1,0,8.5v-1A3.5,3.5,0,0,1,3.5,4h2A3.5,3.5,0,0,1,9,7.5v1A.5.5,0,0,1,8.5,9ZM1,8H8V7.5A2.5,2.5,0,0,0,5.5,5h-2A2.5,2.5,0,0,0,1,7.5Z"/></g></g></svg>