<svg xmlns="http://www.w3.org/2000/svg" viewBox="0 0 23 19"><defs><style>.cls-1{fill:#fff;}</style></defs><title>5</title><g id="Слой_2" data-name="Слой 2"><g id="Layer_60" data-name="Layer 60"><path class="cls-1" d="M4.5,19A2.5,2.5,0,1,1,7,16.5,2.5,2.5,0,0,1,4.5,19Zm0-4A1.5,1.5,0,1,0,6,16.5,1.5,1.5,0,0,0,4.5,15Z"/><path class="cls-1" d="M18.5,19A2.5,2.5,0,1,1,21,16.5,2.5,2.5,0,0,1,18.5,19Zm0-4A1.5,1.5,0,1,0,20,16.5,1.5,1.5,0,0,0,18.5,15Z"/><path class="cls-1" d="M22.5,17h-2a.5.5,0,0,1,0-1H22V10.58L20.14,5H15.5a.5.5,0,0,1-.5-.5V1H1V16H2.5a.5.5,0,0,1,0,1H.5a.5.5,0,0,1-.5-.5V.5A.5.5,0,0,1,.5,0h15a.5.5,0,0,1,.5.5V4h4.5a.5.5,0,0,1,.47.34l2,6a.5.5,0,0,1,0,.16v6A.5.5,0,0,1,22.5,17Z"/><path class="cls-1" d="M16.5,17H6.5a.5.5,0,0,1,0-1h10a.5.5,0,0,1,0,1Z"/><path class="cls-1" d="M15.5,17a.5.5,0,0,1-.5-.5V4.5a.5.5,0,0,1,1,0v12A.5.5,0,0,1,15.5,17Z"/><path class="cls-1" d="M22.5,11h-7a.5.5,0,0,1,0-1h7a.5.5,0,0,1,0,1Z"/></g></g></svg>