<svg xmlns="http://www.w3.org/2000/svg" viewBox="0 0 23 23"><defs><style>.cls-1{fill:#fff;}</style></defs><title>6</title><g id="Слой_2" data-name="Слой 2"><g id="Layer_60" data-name="Layer 60"><path class="cls-1" d="M9.5,10H.5A.5.5,0,0,1,0,9.5V.5A.5.5,0,0,1,.5,0h9a.5.5,0,0,1,.5.5v9A.5.5,0,0,1,9.5,10ZM1,9H9V1H1Z"/><path class="cls-1" d="M22.5,10h-9a.5.5,0,0,1-.5-.5V.5a.5.5,0,0,1,.5-.5h9a.5.5,0,0,1,.5.5v9A.5.5,0,0,1,22.5,10ZM14,9h8V1H14Z"/><path class="cls-1" d="M9.5,23H.5a.5.5,0,0,1-.5-.5v-9A.5.5,0,0,1,.5,13h9a.5.5,0,0,1,.5.5v9A.5.5,0,0,1,9.5,23ZM1,22H9V14H1Z"/><path class="cls-1" d="M22.5,23h-9a.5.5,0,0,1-.5-.5v-9a.5.5,0,0,1,.5-.5h9a.5.5,0,0,1,.5.5v9A.5.5,0,0,1,22.5,23ZM14,22h8V14H14Z"/></g></g></svg>