<svg xmlns="http://www.w3.org/2000/svg" width="21" height="30" viewBox="0 0 21 30">
  <defs>
    <style>
      .cls-1 {
        fill-rule: evenodd;
      }
    </style>
  </defs>
  <path id="Фигура_3" data-name="Фигура 3" class="cls-1" d="M126.5,716A10.635,10.635,0,0,0,137,705.286v-8.571a10.5,10.5,0,1,0-21,0v8.571A10.635,10.635,0,0,0,126.5,716Zm-8.608-19.285a8.61,8.61,0,1,1,17.216,0v8.571a8.61,8.61,0,1,1-17.216,0v-8.571Zm8.608,2.9a0.952,0.952,0,0,0,.946-0.952V695.19a0.946,0.946,0,1,0-1.892,0v3.477A0.952,0.952,0,0,0,126.5,699.619Z" transform="translate(-116 -686)"/>
</svg>
