<svg xmlns="http://www.w3.org/2000/svg" width="8" height="9" viewBox="0 0 8 9">
  <path id="Фигура_1" data-name="Фигура 1" class="cls-1" d="M1089.9,15.587a1.467,1.467,0,1,1-1.46,1.467A1.47,1.47,0,0,1,1089.9,15.587Zm0.1,4.3a3.4,3.4,0,0,1,3.41,3.4v0.126h-6.82v-0.1a3.4,3.4,0,0,1,3.38-3.423H1090Zm4,3.423v0.391a0.291,0.291,0,0,1-.29.294h-7.42a0.291,0.291,0,0,1-.29-0.294V23.315A4,4,0,1,1,1094,23.315ZM1089.9,15a2.054,2.054,0,1,1-2.05,2.055A2.054,2.054,0,0,1,1089.9,15Z" transform="translate(-1086 -15)"/>
</svg>
